%TF.GenerationSoftware,KiCad,Pcbnew,7.0.6*%
%TF.CreationDate,2023-09-10T10:30:15-04:00*%
%TF.ProjectId,headstage-neuropix1e,68656164-7374-4616-9765-2d6e6575726f,B*%
%TF.SameCoordinates,Original*%
%TF.FileFunction,Component,L4,Bot*%
%TF.FilePolarity,Positive*%
%FSLAX46Y46*%
G04 Gerber Fmt 4.6, Leading zero omitted, Abs format (unit mm)*
G04 Created by KiCad (PCBNEW 7.0.6) date 2023-09-10 10:30:15*
%MOMM*%
%LPD*%
G01*
G04 APERTURE LIST*
%TA.AperFunction,ComponentMain*%
%ADD10C,0.300000*%
%TD*%
%TA.AperFunction,ComponentOutline,Courtyard*%
%ADD11C,0.100000*%
%TD*%
%TA.AperFunction,ComponentPin*%
%ADD12P,0.360000X4X0.000000*%
%TD*%
%TA.AperFunction,ComponentPin*%
%ADD13C,0.000000*%
%TD*%
G04 APERTURE END LIST*
D10*
%TO.C,"L2"*%
%TO.CFtp,"L_0805_2012Metric"*%
%TO.CVal,"ASMPH-0805-4R7M-T"*%
%TO.CLbN,"Inductor_SMD"*%
%TO.CMnt,SMD*%
%TO.CRot,0*%
X144750000Y-88500000D03*
D11*
X146499999Y-87650001D02*
X146499999Y-89349999D01*
X143000001Y-89349999D01*
X143000001Y-87650001D01*
X146499999Y-87650001D01*
D12*
%TO.P,"L2","1","1"*%
X145812500Y-88500000D03*
D13*
%TO.P,"L2","2","2"*%
X143687500Y-88500000D03*
%TD*%
D10*
%TO.C,"C15"*%
%TO.CFtp,"C_0201_0603Metric"*%
%TO.CVal,"0.1uF"*%
%TO.CLbN,"Capacitor_SMD"*%
%TO.CMnt,SMD*%
%TO.CRot,0*%
X145420000Y-98050000D03*
D11*
X146119999Y-97700001D02*
X146119999Y-98399999D01*
X144720001Y-98399999D01*
X144720001Y-97700001D01*
X146119999Y-97700001D01*
D12*
%TO.P,"C15","1"*%
X145740000Y-98050000D03*
D13*
%TO.P,"C15","2"*%
X145100000Y-98050000D03*
%TD*%
D10*
%TO.C,"R9"*%
%TO.CFtp,"R_0201_0603Metric"*%
%TO.CVal,"10k"*%
%TO.CLbN,"Resistor_SMD"*%
%TO.CMnt,SMD*%
%TO.CRot,180*%
X143500000Y-93000000D03*
D11*
X144199999Y-92650001D02*
X144199999Y-93349999D01*
X142800001Y-93349999D01*
X142800001Y-92650001D01*
X144199999Y-92650001D01*
D12*
%TO.P,"R9","1"*%
X143180000Y-93000000D03*
D13*
%TO.P,"R9","2"*%
X143820000Y-93000000D03*
%TD*%
D10*
%TO.C,"U1"*%
%TO.CFtp,"ONSEMI_567JZ_WLCSP4-0.64x0.64"*%
%TO.CVal,"NCP163AFCT250T2G"*%
%TO.CLbN,"jonnew"*%
%TO.CMnt,SMD*%
%TO.CRot,90*%
X140110000Y-93590000D03*
D11*
X140459999Y-93240001D02*
X140459999Y-93939999D01*
X139760001Y-93939999D01*
X139760001Y-93240001D01*
X140459999Y-93240001D01*
D12*
%TO.P,"U1","A1","VIN"*%
X139935000Y-93415000D03*
D13*
%TO.P,"U1","A2","VOUT"*%
X139935000Y-93765000D03*
%TO.P,"U1","B1","EN"*%
X140285000Y-93415000D03*
%TO.P,"U1","B2","GND"*%
X140285000Y-93765000D03*
%TD*%
D10*
%TO.C,"R6"*%
%TO.CFtp,"R_0201_0603Metric"*%
%TO.CVal,"1k"*%
%TO.CLbN,"Resistor_SMD"*%
%TO.CMnt,SMD*%
%TO.CRot,180*%
X149100000Y-90550000D03*
D11*
X149799999Y-90200001D02*
X149799999Y-90899999D01*
X148400001Y-90899999D01*
X148400001Y-90200001D01*
X149799999Y-90200001D01*
D12*
%TO.P,"R6","1"*%
X148780000Y-90550000D03*
D13*
%TO.P,"R6","2"*%
X149420000Y-90550000D03*
%TD*%
D10*
%TO.C,"U8"*%
%TO.CFtp,"ST_WLCSP5-0.959x1.073"*%
%TO.CVal,"M24C64-FCS6TP/K"*%
%TO.CLbN,"jonnew"*%
%TO.CMnt,SMD*%
%TO.CRot,180*%
X142000000Y-92200000D03*
D11*
X142599999Y-91600001D02*
X142599999Y-92799999D01*
X141400001Y-92799999D01*
X141400001Y-91600001D01*
X142599999Y-91600001D01*
D12*
%TO.P,"U8","A1","VCC"*%
X141800000Y-92546500D03*
D13*
%TO.P,"U8","A3","VSS"*%
X142200000Y-92546500D03*
%TO.P,"U8","B2","SDA"*%
X142000000Y-92200000D03*
%TO.P,"U8","C1","~{WC}"*%
X141800000Y-91853500D03*
%TO.P,"U8","C3","SCL"*%
X142200000Y-91853500D03*
%TD*%
D10*
%TO.C,"C4"*%
%TO.CFtp,"C_0201_0603Metric"*%
%TO.CVal,"1uF"*%
%TO.CLbN,"Capacitor_SMD"*%
%TO.CMnt,SMD*%
%TO.CRot,180*%
X137960000Y-91410000D03*
D11*
X138659999Y-91060001D02*
X138659999Y-91759999D01*
X137260001Y-91759999D01*
X137260001Y-91060001D01*
X138659999Y-91060001D01*
D12*
%TO.P,"C4","1"*%
X137640000Y-91410000D03*
D13*
%TO.P,"C4","2"*%
X138280000Y-91410000D03*
%TD*%
D10*
%TO.C,"C32"*%
%TO.CFtp,"C_0201_0603Metric"*%
%TO.CVal,"0.1uF"*%
%TO.CLbN,"Capacitor_SMD"*%
%TO.CMnt,SMD*%
%TO.CRot,0*%
X142000000Y-93300000D03*
D11*
X142699999Y-92950001D02*
X142699999Y-93649999D01*
X141300001Y-93649999D01*
X141300001Y-92950001D01*
X142699999Y-92950001D01*
D12*
%TO.P,"C32","1"*%
X142320000Y-93300000D03*
D13*
%TO.P,"C32","2"*%
X141680000Y-93300000D03*
%TD*%
D10*
%TO.C,"U9"*%
%TO.CFtp,"LGA-28_5.2x3.8mm_P0.5mm"*%
%TO.CVal,"BNO055"*%
%TO.CLbN,"Package_LGA"*%
%TO.CMnt,SMD*%
%TO.CRot,180*%
X139100000Y-96300000D03*
D11*
X142079999Y-94050001D02*
X142079999Y-98549999D01*
X136120001Y-98549999D01*
X136120001Y-94050001D01*
X142079999Y-94050001D01*
D12*
%TO.P,"U9","1","PIN1"*%
X136850000Y-97962500D03*
D13*
%TO.P,"U9","2","GND"*%
X136712500Y-97050000D03*
%TO.P,"U9","3","VDD"*%
X136712500Y-96550000D03*
%TO.P,"U9","4","~{BOOT_LOAD_PIN}"*%
X136712500Y-96050000D03*
%TO.P,"U9","5","PS1"*%
X136712500Y-95550000D03*
%TO.P,"U9","6","PS0"*%
X136850000Y-94637500D03*
%TO.P,"U9","7","PIN7"*%
X137350000Y-94637500D03*
%TO.P,"U9","8","PIN8"*%
X137850000Y-94637500D03*
%TO.P,"U9","9","CAP"*%
X138350000Y-94637500D03*
%TO.P,"U9","10","BL_IND"*%
X138850000Y-94637500D03*
%TO.P,"U9","11","~{RESET}"*%
X139350000Y-94637500D03*
%TO.P,"U9","12","PIN12"*%
X139850000Y-94637500D03*
%TO.P,"U9","13","PIN13"*%
X140350000Y-94637500D03*
%TO.P,"U9","14","INT"*%
X140850000Y-94637500D03*
%TO.P,"U9","15","GNDIO"*%
X141350000Y-94637500D03*
%TO.P,"U9","16","GNDIO"*%
X141487500Y-95550000D03*
%TO.P,"U9","17","COM3"*%
X141487500Y-96050000D03*
%TO.P,"U9","18","COM2"*%
X141487500Y-96550000D03*
%TO.P,"U9","19","COM1"*%
X141487500Y-97050000D03*
%TO.P,"U9","20","COM0"*%
X141350000Y-97962500D03*
%TO.P,"U9","21","PIN21"*%
X140850000Y-97962500D03*
%TO.P,"U9","22","PIN22"*%
X140350000Y-97962500D03*
%TO.P,"U9","23","PIN23"*%
X139850000Y-97962500D03*
%TO.P,"U9","24","PIN24"*%
X139350000Y-97962500D03*
%TO.P,"U9","25","GNDIO"*%
X138850000Y-97962500D03*
%TO.P,"U9","26","XOUT32"*%
X138350000Y-97962500D03*
%TO.P,"U9","27","XIN32"*%
X137850000Y-97962500D03*
%TO.P,"U9","28","VDDIO"*%
X137350000Y-97962500D03*
%TD*%
D10*
%TO.C,"R16"*%
%TO.CFtp,"R_0201_0603Metric"*%
%TO.CVal,"7.15k"*%
%TO.CLbN,"Resistor_SMD"*%
%TO.CMnt,SMD*%
%TO.CRot,-90*%
X141700000Y-90800000D03*
D11*
X142049999Y-90100001D02*
X142049999Y-91499999D01*
X141350001Y-91499999D01*
X141350001Y-90100001D01*
X142049999Y-90100001D01*
D12*
%TO.P,"R16","1"*%
X141700000Y-91120000D03*
D13*
%TO.P,"R16","2"*%
X141700000Y-90480000D03*
%TD*%
D10*
%TO.C,"R8"*%
%TO.CFtp,"R_0201_0603Metric"*%
%TO.CVal,"10k"*%
%TO.CLbN,"Resistor_SMD"*%
%TO.CMnt,SMD*%
%TO.CRot,180*%
X143500000Y-91400000D03*
D11*
X144199999Y-91050001D02*
X144199999Y-91749999D01*
X142800001Y-91749999D01*
X142800001Y-91050001D01*
X144199999Y-91050001D01*
D12*
%TO.P,"R8","1"*%
X143180000Y-91400000D03*
D13*
%TO.P,"R8","2"*%
X143820000Y-91400000D03*
%TD*%
D10*
%TO.C,"C6"*%
%TO.CFtp,"C_0402_1005Metric"*%
%TO.CVal,"10uF"*%
%TO.CLbN,"Capacitor_SMD"*%
%TO.CMnt,SMD*%
%TO.CRot,90*%
X139190000Y-91930000D03*
D11*
X139649999Y-91020001D02*
X139649999Y-92839999D01*
X138730001Y-92839999D01*
X138730001Y-91020001D01*
X139649999Y-91020001D01*
D12*
%TO.P,"C6","1"*%
X139190000Y-91450000D03*
D13*
%TO.P,"C6","2"*%
X139190000Y-92410000D03*
%TD*%
D10*
%TO.C,"C35"*%
%TO.CFtp,"C_0201_0603Metric"*%
%TO.CVal,"0.1uF"*%
%TO.CLbN,"Capacitor_SMD"*%
%TO.CMnt,SMD*%
%TO.CRot,180*%
X137500000Y-93600000D03*
D11*
X138199999Y-93250001D02*
X138199999Y-93949999D01*
X136800001Y-93949999D01*
X136800001Y-93250001D01*
X138199999Y-93250001D01*
D12*
%TO.P,"C35","1"*%
X137180000Y-93600000D03*
D13*
%TO.P,"C35","2"*%
X137820000Y-93600000D03*
%TD*%
D10*
%TO.C,"C18"*%
%TO.CFtp,"C_0402_1005Metric"*%
%TO.CVal,"10uF"*%
%TO.CLbN,"Capacitor_SMD"*%
%TO.CMnt,SMD*%
%TO.CRot,-90*%
X144900000Y-90600000D03*
D11*
X145359999Y-89690001D02*
X145359999Y-91509999D01*
X144440001Y-91509999D01*
X144440001Y-89690001D01*
X145359999Y-89690001D01*
D12*
%TO.P,"C18","1"*%
X144900000Y-91080000D03*
D13*
%TO.P,"C18","2"*%
X144900000Y-90120000D03*
%TD*%
D10*
%TO.C,"R3"*%
%TO.CFtp,"R_0201_0603Metric"*%
%TO.CVal,"2k"*%
%TO.CLbN,"Resistor_SMD"*%
%TO.CMnt,SMD*%
%TO.CRot,180*%
X139100000Y-90450000D03*
D11*
X139799999Y-90100001D02*
X139799999Y-90799999D01*
X138400001Y-90799999D01*
X138400001Y-90100001D01*
X139799999Y-90100001D01*
D12*
%TO.P,"R3","1"*%
X138780000Y-90450000D03*
D13*
%TO.P,"R3","2"*%
X139420000Y-90450000D03*
%TD*%
D10*
%TO.C,"C17"*%
%TO.CFtp,"C_0201_0603Metric"*%
%TO.CVal,"0.1uF"*%
%TO.CLbN,"Capacitor_SMD"*%
%TO.CMnt,SMD*%
%TO.CRot,-90*%
X146450000Y-90800000D03*
D11*
X146799999Y-90100001D02*
X146799999Y-91499999D01*
X146100001Y-91499999D01*
X146100001Y-90100001D01*
X146799999Y-90100001D01*
D12*
%TO.P,"C17","1"*%
X146450000Y-91120000D03*
D13*
%TO.P,"C17","2"*%
X146450000Y-90480000D03*
%TD*%
D10*
%TO.C,"U7"*%
%TO.CFtp,"MICROCHIP_VFLGA4-2.0x1.6"*%
%TO.CVal,"DSC6101MA3B-PROGT"*%
%TO.CLbN,"jonnew"*%
%TO.CMnt,SMD*%
%TO.CRot,0*%
X143200000Y-95700000D03*
D11*
X144099999Y-94600001D02*
X144099999Y-96799999D01*
X142300001Y-96799999D01*
X142300001Y-94600001D01*
X144099999Y-94600001D01*
D12*
%TO.P,"U7","1","EN"*%
X143675000Y-94975000D03*
D13*
%TO.P,"U7","2","GND"*%
X143675000Y-96475000D03*
%TO.P,"U7","3","OUT"*%
X142725000Y-96475000D03*
%TO.P,"U7","4","VCC"*%
X142725000Y-94925000D03*
%TD*%
D10*
%TO.C,"L3"*%
%TO.CFtp,"L_0201_0603Metric"*%
%TO.CVal,"BLF03RD501GZED"*%
%TO.CLbN,"Inductor_SMD"*%
%TO.CMnt,SMD*%
%TO.CRot,0*%
X143600000Y-90600000D03*
D11*
X144299999Y-90250001D02*
X144299999Y-90949999D01*
X142900001Y-90949999D01*
X142900001Y-90250001D01*
X144299999Y-90250001D01*
D12*
%TO.P,"L3","1","1"*%
X143920000Y-90600000D03*
D13*
%TO.P,"L3","2","2"*%
X143280000Y-90600000D03*
%TD*%
D10*
%TO.C,"C9"*%
%TO.CFtp,"C_0201_0603Metric"*%
%TO.CVal,"1uF"*%
%TO.CLbN,"Capacitor_SMD"*%
%TO.CMnt,SMD*%
%TO.CRot,-90*%
X136120000Y-92100000D03*
D11*
X136469999Y-91400001D02*
X136469999Y-92799999D01*
X135770001Y-92799999D01*
X135770001Y-91400001D01*
X136469999Y-91400001D01*
D12*
%TO.P,"C9","1"*%
X136120000Y-92420000D03*
D13*
%TO.P,"C9","2"*%
X136120000Y-91780000D03*
%TD*%
D10*
%TO.C,"C13"*%
%TO.CFtp,"C_0201_0603Metric"*%
%TO.CVal,"0.1uF"*%
%TO.CLbN,"Capacitor_SMD"*%
%TO.CMnt,SMD*%
%TO.CRot,180*%
X149680000Y-98000000D03*
D11*
X150379999Y-97650001D02*
X150379999Y-98349999D01*
X148980001Y-98349999D01*
X148980001Y-97650001D01*
X150379999Y-97650001D01*
D12*
%TO.P,"C13","1"*%
X149360000Y-98000000D03*
D13*
%TO.P,"C13","2"*%
X150000000Y-98000000D03*
%TD*%
D10*
%TO.C,"C5"*%
%TO.CFtp,"C_0201_0603Metric"*%
%TO.CVal,"1uF"*%
%TO.CLbN,"Capacitor_SMD"*%
%TO.CMnt,SMD*%
%TO.CRot,180*%
X138000000Y-92490000D03*
D11*
X138699999Y-92140001D02*
X138699999Y-92839999D01*
X137300001Y-92839999D01*
X137300001Y-92140001D01*
X138699999Y-92140001D01*
D12*
%TO.P,"C5","1"*%
X137680000Y-92490000D03*
D13*
%TO.P,"C5","2"*%
X138320000Y-92490000D03*
%TD*%
D10*
%TO.C,"R17"*%
%TO.CFtp,"R_0201_0603Metric"*%
%TO.CVal,"22"*%
%TO.CLbN,"Resistor_SMD"*%
%TO.CMnt,SMD*%
%TO.CRot,90*%
X143225000Y-97650000D03*
D11*
X143574999Y-96950001D02*
X143574999Y-98349999D01*
X142875001Y-98349999D01*
X142875001Y-96950001D01*
X143574999Y-96950001D01*
D12*
%TO.P,"R17","1"*%
X143225000Y-97330000D03*
D13*
%TO.P,"R17","2"*%
X143225000Y-97970000D03*
%TD*%
D10*
%TO.C,"C27"*%
%TO.CFtp,"C_0201_0603Metric"*%
%TO.CVal,"1uF"*%
%TO.CLbN,"Capacitor_SMD"*%
%TO.CMnt,SMD*%
%TO.CRot,0*%
X143500000Y-92200000D03*
D11*
X144199999Y-91850001D02*
X144199999Y-92549999D01*
X142800001Y-92549999D01*
X142800001Y-91850001D01*
X144199999Y-91850001D01*
D12*
%TO.P,"C27","1"*%
X143820000Y-92200000D03*
D13*
%TO.P,"C27","2"*%
X143180000Y-92200000D03*
%TD*%
D10*
%TO.C,"C2"*%
%TO.CFtp,"C_0201_0603Metric"*%
%TO.CVal,"1uF"*%
%TO.CLbN,"Capacitor_SMD"*%
%TO.CMnt,SMD*%
%TO.CRot,-90*%
X140030000Y-92110000D03*
D11*
X140379999Y-91410001D02*
X140379999Y-92809999D01*
X139680001Y-92809999D01*
X139680001Y-91410001D01*
X140379999Y-91410001D01*
D12*
%TO.P,"C2","1"*%
X140030000Y-92430000D03*
D13*
%TO.P,"C2","2"*%
X140030000Y-91790000D03*
%TD*%
D10*
%TO.C,"C34"*%
%TO.CFtp,"C_0201_0603Metric"*%
%TO.CVal,"0.1uF"*%
%TO.CLbN,"Capacitor_SMD"*%
%TO.CMnt,SMD*%
%TO.CRot,90*%
X135650000Y-97550000D03*
D11*
X135999999Y-96850001D02*
X135999999Y-98249999D01*
X135300001Y-98249999D01*
X135300001Y-96850001D01*
X135999999Y-96850001D01*
D12*
%TO.P,"C34","1"*%
X135650000Y-97230000D03*
D13*
%TO.P,"C34","2"*%
X135650000Y-97870000D03*
%TD*%
D10*
%TO.C,"C31"*%
%TO.CFtp,"C_0201_0603Metric"*%
%TO.CVal,"27pF"*%
%TO.CLbN,"Capacitor_SMD"*%
%TO.CMnt,SMD*%
%TO.CRot,-90*%
X142500000Y-97650000D03*
D11*
X142849999Y-96950001D02*
X142849999Y-98349999D01*
X142150001Y-98349999D01*
X142150001Y-96950001D01*
X142849999Y-96950001D01*
D12*
%TO.P,"C31","1"*%
X142500000Y-97970000D03*
D13*
%TO.P,"C31","2"*%
X142500000Y-97330000D03*
%TD*%
D10*
%TO.C,"C25"*%
%TO.CFtp,"C_0201_0603Metric"*%
%TO.CVal,"0.1uF"*%
%TO.CLbN,"Capacitor_SMD"*%
%TO.CMnt,SMD*%
%TO.CRot,-90*%
X147900000Y-90900000D03*
D11*
X148249999Y-90200001D02*
X148249999Y-91599999D01*
X147550001Y-91599999D01*
X147550001Y-90200001D01*
X148249999Y-90200001D01*
D12*
%TO.P,"C25","1"*%
X147900000Y-91220000D03*
D13*
%TO.P,"C25","2"*%
X147900000Y-90580000D03*
%TD*%
D10*
%TO.C,"C12"*%
%TO.CFtp,"C_0201_0603Metric"*%
%TO.CVal,"10nF"*%
%TO.CLbN,"Capacitor_SMD"*%
%TO.CMnt,SMD*%
%TO.CRot,0*%
X148280000Y-98000000D03*
D11*
X148979999Y-97650001D02*
X148979999Y-98349999D01*
X147580001Y-98349999D01*
X147580001Y-97650001D01*
X148979999Y-97650001D01*
D12*
%TO.P,"C12","1"*%
X148600000Y-98000000D03*
D13*
%TO.P,"C12","2"*%
X147960000Y-98000000D03*
%TD*%
D10*
%TO.C,"C1"*%
%TO.CFtp,"C_0201_0603Metric"*%
%TO.CVal,"1uF"*%
%TO.CLbN,"Capacitor_SMD"*%
%TO.CMnt,SMD*%
%TO.CRot,0*%
X138980000Y-93590000D03*
D11*
X139679999Y-93240001D02*
X139679999Y-93939999D01*
X138280001Y-93939999D01*
X138280001Y-93240001D01*
X139679999Y-93240001D01*
D12*
%TO.P,"C1","1"*%
X139300000Y-93590000D03*
D13*
%TO.P,"C1","2"*%
X138660000Y-93590000D03*
%TD*%
D10*
%TO.C,"C29"*%
%TO.CFtp,"C_0201_0603Metric"*%
%TO.CVal,"0.1uF"*%
%TO.CLbN,"Capacitor_SMD"*%
%TO.CMnt,SMD*%
%TO.CRot,180*%
X140600000Y-90450000D03*
D11*
X141299999Y-90100001D02*
X141299999Y-90799999D01*
X139900001Y-90799999D01*
X139900001Y-90100001D01*
X141299999Y-90100001D01*
D12*
%TO.P,"C29","1"*%
X140280000Y-90450000D03*
D13*
%TO.P,"C29","2"*%
X140920000Y-90450000D03*
%TD*%
D10*
%TO.C,"R4"*%
%TO.CFtp,"R_0201_0603Metric"*%
%TO.CVal,"2k"*%
%TO.CLbN,"Resistor_SMD"*%
%TO.CMnt,SMD*%
%TO.CRot,180*%
X143650000Y-89800000D03*
D11*
X144349999Y-89450001D02*
X144349999Y-90149999D01*
X142950001Y-90149999D01*
X142950001Y-89450001D01*
X144349999Y-89450001D01*
D12*
%TO.P,"R4","1"*%
X143330000Y-89800000D03*
D13*
%TO.P,"R4","2"*%
X143970000Y-89800000D03*
%TD*%
D10*
%TO.C,"C14"*%
%TO.CFtp,"C_0201_0603Metric"*%
%TO.CVal,"10nF"*%
%TO.CLbN,"Capacitor_SMD"*%
%TO.CMnt,SMD*%
%TO.CRot,180*%
X146850000Y-98000000D03*
D11*
X147549999Y-97650001D02*
X147549999Y-98349999D01*
X146150001Y-98349999D01*
X146150001Y-97650001D01*
X147549999Y-97650001D01*
D12*
%TO.P,"C14","1"*%
X146530000Y-98000000D03*
D13*
%TO.P,"C14","2"*%
X147170000Y-98000000D03*
%TD*%
D10*
%TO.C,"C11"*%
%TO.CFtp,"C_0201_0603Metric"*%
%TO.CVal,"1uF"*%
%TO.CLbN,"Capacitor_SMD"*%
%TO.CMnt,SMD*%
%TO.CRot,-90*%
X136870000Y-92100000D03*
D11*
X137219999Y-91400001D02*
X137219999Y-92799999D01*
X136520001Y-92799999D01*
X136520001Y-91400001D01*
X137219999Y-91400001D01*
D12*
%TO.P,"C11","1"*%
X136870000Y-92420000D03*
D13*
%TO.P,"C11","2"*%
X136870000Y-91780000D03*
%TD*%
D10*
%TO.C,"C3"*%
%TO.CFtp,"C_0402_1005Metric"*%
%TO.CVal,"10uF"*%
%TO.CLbN,"Capacitor_SMD"*%
%TO.CMnt,SMD*%
%TO.CRot,-90*%
X140870000Y-91910000D03*
D11*
X141329999Y-91000001D02*
X141329999Y-92819999D01*
X140410001Y-92819999D01*
X140410001Y-91000001D01*
X141329999Y-91000001D01*
D12*
%TO.P,"C3","1"*%
X140870000Y-92390000D03*
D13*
%TO.P,"C3","2"*%
X140870000Y-91430000D03*
%TD*%
D10*
%TO.C,"C33"*%
%TO.CFtp,"C_0201_0603Metric"*%
%TO.CVal,"0.1uF"*%
%TO.CLbN,"Capacitor_SMD"*%
%TO.CMnt,SMD*%
%TO.CRot,90*%
X135650000Y-96050000D03*
D11*
X135999999Y-95350001D02*
X135999999Y-96749999D01*
X135300001Y-96749999D01*
X135300001Y-95350001D01*
X135999999Y-95350001D01*
D12*
%TO.P,"C33","1"*%
X135650000Y-95730000D03*
D13*
%TO.P,"C33","2"*%
X135650000Y-96370000D03*
%TD*%
D10*
%TO.C,"C16"*%
%TO.CFtp,"C_0201_0603Metric"*%
%TO.CVal,"10nF"*%
%TO.CLbN,"Capacitor_SMD"*%
%TO.CMnt,SMD*%
%TO.CRot,-90*%
X145750000Y-90800000D03*
D11*
X146099999Y-90100001D02*
X146099999Y-91499999D01*
X145400001Y-91499999D01*
X145400001Y-90100001D01*
X146099999Y-90100001D01*
D12*
%TO.P,"C16","1"*%
X145750000Y-91120000D03*
D13*
%TO.P,"C16","2"*%
X145750000Y-90480000D03*
%TD*%
D10*
%TO.C,"U5"*%
%TO.CFtp,"TI_RTV0032A"*%
%TO.CVal,"DS90UB933TRTVTQ1"*%
%TO.CLbN,"jonnew"*%
%TO.CMnt,SMD*%
%TO.CRot,180*%
X147350000Y-94500000D03*
D11*
X150249999Y-91600001D02*
X150249999Y-97399999D01*
X144450001Y-97399999D01*
X144450001Y-91600001D01*
X150249999Y-91600001D01*
D12*
%TO.P,"U5","1","HSYNC"*%
X144950000Y-96250000D03*
D13*
%TO.P,"U5","2","VSYNC"*%
X144950000Y-95750000D03*
%TO.P,"U5","3","PCLK"*%
X144950000Y-95250000D03*
%TO.P,"U5","4","SCL"*%
X144950000Y-94750000D03*
%TO.P,"U5","5","SDA"*%
X144950000Y-94250000D03*
%TO.P,"U5","6","ID[X]"*%
X144950000Y-93750000D03*
%TO.P,"U5","7","RES"*%
X144950000Y-93250000D03*
%TO.P,"U5","8","MODE"*%
X144950000Y-92750000D03*
%TO.P,"U5","9","PDB"*%
X145600000Y-92100000D03*
%TO.P,"U5","10","VDDPLL"*%
X146100000Y-92100000D03*
%TO.P,"U5","11","VDDT"*%
X146600000Y-92100000D03*
%TO.P,"U5","12","DOUTN"*%
X147100000Y-92100000D03*
%TO.P,"U5","13","DOUTP"*%
X147600000Y-92100000D03*
%TO.P,"U5","14","VDDCML"*%
X148100000Y-92100000D03*
%TO.P,"U5","15","GPIO0"*%
X148600000Y-92100000D03*
%TO.P,"U5","16","GPIO1"*%
X149100000Y-92100000D03*
%TO.P,"U5","17","GPIO2/CLK0"*%
X149750000Y-92750000D03*
%TO.P,"U5","18","GPIO3/CLKIN"*%
X149750000Y-93250000D03*
%TO.P,"U5","19","DIN_0"*%
X149750000Y-93750000D03*
%TO.P,"U5","20","DIN_1"*%
X149750000Y-94250000D03*
%TO.P,"U5","21","DIN_2"*%
X149750000Y-94750000D03*
%TO.P,"U5","22","DIN_3"*%
X149750000Y-95250001D03*
%TO.P,"U5","23","DIN_4"*%
X149750000Y-95750000D03*
%TO.P,"U5","24","DIN_5"*%
X149750000Y-96250000D03*
%TO.P,"U5","25","VDDIO"*%
X149100000Y-96900000D03*
%TO.P,"U5","26","DIN_6"*%
X148600000Y-96900000D03*
%TO.P,"U5","27","DIN_7"*%
X148100000Y-96900000D03*
%TO.P,"U5","28","VDDD"*%
X147600000Y-96900000D03*
%TO.P,"U5","29","DIN_8"*%
X147100000Y-96900000D03*
%TO.P,"U5","30","DIN_9"*%
X146600000Y-96900000D03*
%TO.P,"U5","31","DIN_10"*%
X146100000Y-96900000D03*
%TO.P,"U5","32","DIN_11"*%
X145600000Y-96900000D03*
%TO.P,"U5","33","GND(DAP)"*%
X147350000Y-94500000D03*
%TD*%
D10*
%TO.C,"C8"*%
%TO.CFtp,"C_0201_0603Metric"*%
%TO.CVal,"1uF"*%
%TO.CLbN,"Capacitor_SMD"*%
%TO.CMnt,SMD*%
%TO.CRot,180*%
X136500000Y-91000000D03*
D11*
X137199999Y-90650001D02*
X137199999Y-91349999D01*
X135800001Y-91349999D01*
X135800001Y-90650001D01*
X137199999Y-90650001D01*
D12*
%TO.P,"C8","1"*%
X136180000Y-91000000D03*
D13*
%TO.P,"C8","2"*%
X136820000Y-91000000D03*
%TD*%
D10*
%TO.C,"L1"*%
%TO.CFtp,"L_1210_3225Metric"*%
%TO.CVal,"CBC3225T101MR"*%
%TO.CLbN,"Inductor_SMD"*%
%TO.CMnt,SMD*%
%TO.CRot,180*%
X140600000Y-88500000D03*
D11*
X142879999Y-86920001D02*
X142879999Y-90079999D01*
X138320001Y-90079999D01*
X138320001Y-86920001D01*
X142879999Y-86920001D01*
D12*
%TO.P,"L1","1","1"*%
X139200000Y-88500000D03*
D13*
%TO.P,"L1","2","2"*%
X142000000Y-88500000D03*
%TD*%
D10*
%TO.C,"R7"*%
%TO.CFtp,"R_0201_0603Metric"*%
%TO.CVal,"10k"*%
%TO.CLbN,"Resistor_SMD"*%
%TO.CMnt,SMD*%
%TO.CRot,0*%
X149100000Y-91250000D03*
D11*
X149799999Y-90900001D02*
X149799999Y-91599999D01*
X148400001Y-91599999D01*
X148400001Y-90900001D01*
X149799999Y-90900001D01*
D12*
%TO.P,"R7","1"*%
X149420000Y-91250000D03*
D13*
%TO.P,"R7","2"*%
X148780000Y-91250000D03*
%TD*%
D10*
%TO.C,"C30"*%
%TO.CFtp,"C_0201_0603Metric"*%
%TO.CVal,"10nF"*%
%TO.CLbN,"Capacitor_SMD"*%
%TO.CMnt,SMD*%
%TO.CRot,180*%
X143200000Y-94100000D03*
D11*
X143899999Y-93750001D02*
X143899999Y-94449999D01*
X142500001Y-94449999D01*
X142500001Y-93750001D01*
X143899999Y-93750001D01*
D12*
%TO.P,"C30","1"*%
X142880000Y-94100000D03*
D13*
%TO.P,"C30","2"*%
X143520000Y-94100000D03*
%TD*%
D10*
%TO.C,"C26"*%
%TO.CFtp,"C_0201_0603Metric"*%
%TO.CVal,"47nF"*%
%TO.CLbN,"Capacitor_SMD"*%
%TO.CMnt,SMD*%
%TO.CRot,-90*%
X147200000Y-90900000D03*
D11*
X147549999Y-90200001D02*
X147549999Y-91599999D01*
X146850001Y-91599999D01*
X146850001Y-90200001D01*
X147549999Y-90200001D01*
D12*
%TO.P,"C26","1"*%
X147200000Y-91220000D03*
D13*
%TO.P,"C26","2"*%
X147200000Y-90580000D03*
%TD*%
M02*
