%TF.GenerationSoftware,KiCad,Pcbnew,7.0.6*%
%TF.CreationDate,2023-09-10T10:28:08-04:00*%
%TF.ProjectId,headstage-neuropix1e,68656164-7374-4616-9765-2d6e6575726f,B*%
%TF.SameCoordinates,Original*%
%TF.FileFunction,Legend,Top*%
%TF.FilePolarity,Positive*%
%FSLAX46Y46*%
G04 Gerber Fmt 4.6, Leading zero omitted, Abs format (unit mm)*
G04 Created by KiCad (PCBNEW 7.0.6) date 2023-09-10 10:28:08*
%MOMM*%
%LPD*%
G01*
G04 APERTURE LIST*
%ADD10C,0.150000*%
%ADD11C,0.200000*%
%ADD12C,0.300000*%
%ADD13C,0.120000*%
%ADD14C,0.127000*%
G04 APERTURE END LIST*
D10*
X122500000Y-94440000D02*
X119500000Y-94947500D01*
X113100000Y-100240000D02*
X115200000Y-97640000D01*
X113100000Y-92140000D02*
X115300000Y-94240000D01*
X118000000Y-99240000D02*
X118300000Y-100540000D01*
X118800000Y-91640000D02*
X118200000Y-92940000D01*
X122600000Y-97340000D02*
X119500000Y-96800000D01*
D11*
X119761400Y-83726697D02*
X119699495Y-83912411D01*
X119699495Y-83912411D02*
X119699495Y-84221935D01*
X119699495Y-84221935D02*
X119761400Y-84345744D01*
X119761400Y-84345744D02*
X119823304Y-84407649D01*
X119823304Y-84407649D02*
X119947114Y-84469554D01*
X119947114Y-84469554D02*
X120070923Y-84469554D01*
X120070923Y-84469554D02*
X120194733Y-84407649D01*
X120194733Y-84407649D02*
X120256638Y-84345744D01*
X120256638Y-84345744D02*
X120318542Y-84221935D01*
X120318542Y-84221935D02*
X120380447Y-83974316D01*
X120380447Y-83974316D02*
X120442352Y-83850506D01*
X120442352Y-83850506D02*
X120504257Y-83788601D01*
X120504257Y-83788601D02*
X120628066Y-83726697D01*
X120628066Y-83726697D02*
X120751876Y-83726697D01*
X120751876Y-83726697D02*
X120875685Y-83788601D01*
X120875685Y-83788601D02*
X120937590Y-83850506D01*
X120937590Y-83850506D02*
X120999495Y-83974316D01*
X120999495Y-83974316D02*
X120999495Y-84283839D01*
X120999495Y-84283839D02*
X120937590Y-84469554D01*
X119823304Y-85769553D02*
X119761400Y-85707649D01*
X119761400Y-85707649D02*
X119699495Y-85521934D01*
X119699495Y-85521934D02*
X119699495Y-85398125D01*
X119699495Y-85398125D02*
X119761400Y-85212411D01*
X119761400Y-85212411D02*
X119885209Y-85088601D01*
X119885209Y-85088601D02*
X120009019Y-85026696D01*
X120009019Y-85026696D02*
X120256638Y-84964792D01*
X120256638Y-84964792D02*
X120442352Y-84964792D01*
X120442352Y-84964792D02*
X120689971Y-85026696D01*
X120689971Y-85026696D02*
X120813780Y-85088601D01*
X120813780Y-85088601D02*
X120937590Y-85212411D01*
X120937590Y-85212411D02*
X120999495Y-85398125D01*
X120999495Y-85398125D02*
X120999495Y-85521934D01*
X120999495Y-85521934D02*
X120937590Y-85707649D01*
X120937590Y-85707649D02*
X120875685Y-85769553D01*
X119699495Y-86945744D02*
X119699495Y-86326696D01*
X119699495Y-86326696D02*
X120999495Y-86326696D01*
X107512530Y-117191004D02*
X107512530Y-118119576D01*
X107512530Y-118119576D02*
X107450625Y-118305290D01*
X107450625Y-118305290D02*
X107326816Y-118429100D01*
X107326816Y-118429100D02*
X107141101Y-118491004D01*
X107141101Y-118491004D02*
X107017292Y-118491004D01*
X108131577Y-118491004D02*
X108131577Y-117191004D01*
X108131577Y-117191004D02*
X108626815Y-117191004D01*
X108626815Y-117191004D02*
X108750625Y-117252909D01*
X108750625Y-117252909D02*
X108812530Y-117314814D01*
X108812530Y-117314814D02*
X108874434Y-117438623D01*
X108874434Y-117438623D02*
X108874434Y-117624338D01*
X108874434Y-117624338D02*
X108812530Y-117748147D01*
X108812530Y-117748147D02*
X108750625Y-117810052D01*
X108750625Y-117810052D02*
X108626815Y-117871957D01*
X108626815Y-117871957D02*
X108131577Y-117871957D01*
X109431577Y-118491004D02*
X109431577Y-117191004D01*
X109431577Y-117191004D02*
X110174434Y-118491004D01*
X110174434Y-118491004D02*
X110174434Y-117191004D01*
X110855387Y-118429100D02*
X110855387Y-118491004D01*
X110855387Y-118491004D02*
X110793482Y-118614814D01*
X110793482Y-118614814D02*
X110731578Y-118676719D01*
X112650625Y-117191004D02*
X112898244Y-117191004D01*
X112898244Y-117191004D02*
X113022054Y-117252909D01*
X113022054Y-117252909D02*
X113145863Y-117376719D01*
X113145863Y-117376719D02*
X113207768Y-117624338D01*
X113207768Y-117624338D02*
X113207768Y-118057671D01*
X113207768Y-118057671D02*
X113145863Y-118305290D01*
X113145863Y-118305290D02*
X113022054Y-118429100D01*
X113022054Y-118429100D02*
X112898244Y-118491004D01*
X112898244Y-118491004D02*
X112650625Y-118491004D01*
X112650625Y-118491004D02*
X112526816Y-118429100D01*
X112526816Y-118429100D02*
X112403006Y-118305290D01*
X112403006Y-118305290D02*
X112341102Y-118057671D01*
X112341102Y-118057671D02*
X112341102Y-117624338D01*
X112341102Y-117624338D02*
X112403006Y-117376719D01*
X112403006Y-117376719D02*
X112526816Y-117252909D01*
X112526816Y-117252909D02*
X112650625Y-117191004D01*
X113764911Y-117624338D02*
X113764911Y-118924338D01*
X113764911Y-117686242D02*
X113888721Y-117624338D01*
X113888721Y-117624338D02*
X114136340Y-117624338D01*
X114136340Y-117624338D02*
X114260149Y-117686242D01*
X114260149Y-117686242D02*
X114322054Y-117748147D01*
X114322054Y-117748147D02*
X114383959Y-117871957D01*
X114383959Y-117871957D02*
X114383959Y-118243385D01*
X114383959Y-118243385D02*
X114322054Y-118367195D01*
X114322054Y-118367195D02*
X114260149Y-118429100D01*
X114260149Y-118429100D02*
X114136340Y-118491004D01*
X114136340Y-118491004D02*
X113888721Y-118491004D01*
X113888721Y-118491004D02*
X113764911Y-118429100D01*
X115436339Y-118429100D02*
X115312530Y-118491004D01*
X115312530Y-118491004D02*
X115064911Y-118491004D01*
X115064911Y-118491004D02*
X114941101Y-118429100D01*
X114941101Y-118429100D02*
X114879197Y-118305290D01*
X114879197Y-118305290D02*
X114879197Y-117810052D01*
X114879197Y-117810052D02*
X114941101Y-117686242D01*
X114941101Y-117686242D02*
X115064911Y-117624338D01*
X115064911Y-117624338D02*
X115312530Y-117624338D01*
X115312530Y-117624338D02*
X115436339Y-117686242D01*
X115436339Y-117686242D02*
X115498244Y-117810052D01*
X115498244Y-117810052D02*
X115498244Y-117933861D01*
X115498244Y-117933861D02*
X114879197Y-118057671D01*
X116055387Y-117624338D02*
X116055387Y-118491004D01*
X116055387Y-117748147D02*
X116117292Y-117686242D01*
X116117292Y-117686242D02*
X116241102Y-117624338D01*
X116241102Y-117624338D02*
X116426816Y-117624338D01*
X116426816Y-117624338D02*
X116550625Y-117686242D01*
X116550625Y-117686242D02*
X116612530Y-117810052D01*
X116612530Y-117810052D02*
X116612530Y-118491004D01*
X118222053Y-117810052D02*
X118655387Y-117810052D01*
X118841101Y-118491004D02*
X118222053Y-118491004D01*
X118222053Y-118491004D02*
X118222053Y-117191004D01*
X118222053Y-117191004D02*
X118841101Y-117191004D01*
X119398243Y-117624338D02*
X119398243Y-118924338D01*
X119398243Y-117686242D02*
X119522053Y-117624338D01*
X119522053Y-117624338D02*
X119769672Y-117624338D01*
X119769672Y-117624338D02*
X119893481Y-117686242D01*
X119893481Y-117686242D02*
X119955386Y-117748147D01*
X119955386Y-117748147D02*
X120017291Y-117871957D01*
X120017291Y-117871957D02*
X120017291Y-118243385D01*
X120017291Y-118243385D02*
X119955386Y-118367195D01*
X119955386Y-118367195D02*
X119893481Y-118429100D01*
X119893481Y-118429100D02*
X119769672Y-118491004D01*
X119769672Y-118491004D02*
X119522053Y-118491004D01*
X119522053Y-118491004D02*
X119398243Y-118429100D01*
X120574433Y-118491004D02*
X120574433Y-117191004D01*
X121131576Y-118491004D02*
X121131576Y-117810052D01*
X121131576Y-117810052D02*
X121069671Y-117686242D01*
X121069671Y-117686242D02*
X120945862Y-117624338D01*
X120945862Y-117624338D02*
X120760148Y-117624338D01*
X120760148Y-117624338D02*
X120636338Y-117686242D01*
X120636338Y-117686242D02*
X120574433Y-117748147D01*
X121626814Y-117624338D02*
X121936338Y-118491004D01*
X122245861Y-117624338D02*
X121936338Y-118491004D01*
X121936338Y-118491004D02*
X121812528Y-118800528D01*
X121812528Y-118800528D02*
X121750623Y-118862433D01*
X121750623Y-118862433D02*
X121626814Y-118924338D01*
X122679195Y-118429100D02*
X122803004Y-118491004D01*
X122803004Y-118491004D02*
X123050623Y-118491004D01*
X123050623Y-118491004D02*
X123174433Y-118429100D01*
X123174433Y-118429100D02*
X123236337Y-118305290D01*
X123236337Y-118305290D02*
X123236337Y-118243385D01*
X123236337Y-118243385D02*
X123174433Y-118119576D01*
X123174433Y-118119576D02*
X123050623Y-118057671D01*
X123050623Y-118057671D02*
X122864909Y-118057671D01*
X122864909Y-118057671D02*
X122741099Y-117995766D01*
X122741099Y-117995766D02*
X122679195Y-117871957D01*
X122679195Y-117871957D02*
X122679195Y-117810052D01*
X122679195Y-117810052D02*
X122741099Y-117686242D01*
X122741099Y-117686242D02*
X122864909Y-117624338D01*
X122864909Y-117624338D02*
X123050623Y-117624338D01*
X123050623Y-117624338D02*
X123174433Y-117686242D01*
X124783956Y-118491004D02*
X124783956Y-117191004D01*
X125403004Y-117624338D02*
X125403004Y-118491004D01*
X125403004Y-117748147D02*
X125464909Y-117686242D01*
X125464909Y-117686242D02*
X125588719Y-117624338D01*
X125588719Y-117624338D02*
X125774433Y-117624338D01*
X125774433Y-117624338D02*
X125898242Y-117686242D01*
X125898242Y-117686242D02*
X125960147Y-117810052D01*
X125960147Y-117810052D02*
X125960147Y-118491004D01*
X127136337Y-118429100D02*
X127012528Y-118491004D01*
X127012528Y-118491004D02*
X126764909Y-118491004D01*
X126764909Y-118491004D02*
X126641099Y-118429100D01*
X126641099Y-118429100D02*
X126579194Y-118367195D01*
X126579194Y-118367195D02*
X126517290Y-118243385D01*
X126517290Y-118243385D02*
X126517290Y-117871957D01*
X126517290Y-117871957D02*
X126579194Y-117748147D01*
X126579194Y-117748147D02*
X126641099Y-117686242D01*
X126641099Y-117686242D02*
X126764909Y-117624338D01*
X126764909Y-117624338D02*
X127012528Y-117624338D01*
X127012528Y-117624338D02*
X127136337Y-117686242D01*
X127693480Y-118367195D02*
X127755385Y-118429100D01*
X127755385Y-118429100D02*
X127693480Y-118491004D01*
X127693480Y-118491004D02*
X127631576Y-118429100D01*
X127631576Y-118429100D02*
X127693480Y-118367195D01*
X127693480Y-118367195D02*
X127693480Y-118491004D01*
X128374433Y-118429100D02*
X128374433Y-118491004D01*
X128374433Y-118491004D02*
X128312528Y-118614814D01*
X128312528Y-118614814D02*
X128250624Y-118676719D01*
X129983957Y-117191004D02*
X129860148Y-117438623D01*
X130479196Y-117314814D02*
X130541100Y-117252909D01*
X130541100Y-117252909D02*
X130664910Y-117191004D01*
X130664910Y-117191004D02*
X130974434Y-117191004D01*
X130974434Y-117191004D02*
X131098243Y-117252909D01*
X131098243Y-117252909D02*
X131160148Y-117314814D01*
X131160148Y-117314814D02*
X131222053Y-117438623D01*
X131222053Y-117438623D02*
X131222053Y-117562433D01*
X131222053Y-117562433D02*
X131160148Y-117748147D01*
X131160148Y-117748147D02*
X130417291Y-118491004D01*
X130417291Y-118491004D02*
X131222053Y-118491004D01*
X131655386Y-117191004D02*
X132460148Y-117191004D01*
X132460148Y-117191004D02*
X132026814Y-117686242D01*
X132026814Y-117686242D02*
X132212529Y-117686242D01*
X132212529Y-117686242D02*
X132336338Y-117748147D01*
X132336338Y-117748147D02*
X132398243Y-117810052D01*
X132398243Y-117810052D02*
X132460148Y-117933861D01*
X132460148Y-117933861D02*
X132460148Y-118243385D01*
X132460148Y-118243385D02*
X132398243Y-118367195D01*
X132398243Y-118367195D02*
X132336338Y-118429100D01*
X132336338Y-118429100D02*
X132212529Y-118491004D01*
X132212529Y-118491004D02*
X131841100Y-118491004D01*
X131841100Y-118491004D02*
X131717291Y-118429100D01*
X131717291Y-118429100D02*
X131655386Y-118367195D01*
X112572409Y-70625445D02*
X112510504Y-70749255D01*
X112510504Y-70749255D02*
X112510504Y-70934969D01*
X112510504Y-70934969D02*
X112572409Y-71120683D01*
X112572409Y-71120683D02*
X112696219Y-71244493D01*
X112696219Y-71244493D02*
X112820028Y-71306398D01*
X112820028Y-71306398D02*
X113067647Y-71368302D01*
X113067647Y-71368302D02*
X113253361Y-71368302D01*
X113253361Y-71368302D02*
X113500980Y-71306398D01*
X113500980Y-71306398D02*
X113624790Y-71244493D01*
X113624790Y-71244493D02*
X113748600Y-71120683D01*
X113748600Y-71120683D02*
X113810504Y-70934969D01*
X113810504Y-70934969D02*
X113810504Y-70811160D01*
X113810504Y-70811160D02*
X113748600Y-70625445D01*
X113748600Y-70625445D02*
X113686695Y-70563541D01*
X113686695Y-70563541D02*
X113253361Y-70563541D01*
X113253361Y-70563541D02*
X113253361Y-70811160D01*
X113810504Y-70006398D02*
X112510504Y-70006398D01*
X112510504Y-70006398D02*
X113810504Y-69263541D01*
X113810504Y-69263541D02*
X112510504Y-69263541D01*
X113810504Y-68644493D02*
X112510504Y-68644493D01*
X112510504Y-68644493D02*
X112510504Y-68334969D01*
X112510504Y-68334969D02*
X112572409Y-68149255D01*
X112572409Y-68149255D02*
X112696219Y-68025445D01*
X112696219Y-68025445D02*
X112820028Y-67963540D01*
X112820028Y-67963540D02*
X113067647Y-67901636D01*
X113067647Y-67901636D02*
X113253361Y-67901636D01*
X113253361Y-67901636D02*
X113500980Y-67963540D01*
X113500980Y-67963540D02*
X113624790Y-68025445D01*
X113624790Y-68025445D02*
X113748600Y-68149255D01*
X113748600Y-68149255D02*
X113810504Y-68334969D01*
X113810504Y-68334969D02*
X113810504Y-68644493D01*
X113287590Y-84269554D02*
X113349495Y-84145744D01*
X113349495Y-84145744D02*
X113349495Y-83960030D01*
X113349495Y-83960030D02*
X113287590Y-83774316D01*
X113287590Y-83774316D02*
X113163780Y-83650506D01*
X113163780Y-83650506D02*
X113039971Y-83588601D01*
X113039971Y-83588601D02*
X112792352Y-83526697D01*
X112792352Y-83526697D02*
X112606638Y-83526697D01*
X112606638Y-83526697D02*
X112359019Y-83588601D01*
X112359019Y-83588601D02*
X112235209Y-83650506D01*
X112235209Y-83650506D02*
X112111400Y-83774316D01*
X112111400Y-83774316D02*
X112049495Y-83960030D01*
X112049495Y-83960030D02*
X112049495Y-84083839D01*
X112049495Y-84083839D02*
X112111400Y-84269554D01*
X112111400Y-84269554D02*
X112173304Y-84331458D01*
X112173304Y-84331458D02*
X112606638Y-84331458D01*
X112606638Y-84331458D02*
X112606638Y-84083839D01*
X112049495Y-84888601D02*
X113349495Y-84888601D01*
X113349495Y-84888601D02*
X112049495Y-85631458D01*
X112049495Y-85631458D02*
X113349495Y-85631458D01*
X112049495Y-86250506D02*
X113349495Y-86250506D01*
X113349495Y-86250506D02*
X113349495Y-86560030D01*
X113349495Y-86560030D02*
X113287590Y-86745744D01*
X113287590Y-86745744D02*
X113163780Y-86869554D01*
X113163780Y-86869554D02*
X113039971Y-86931459D01*
X113039971Y-86931459D02*
X112792352Y-86993363D01*
X112792352Y-86993363D02*
X112606638Y-86993363D01*
X112606638Y-86993363D02*
X112359019Y-86931459D01*
X112359019Y-86931459D02*
X112235209Y-86869554D01*
X112235209Y-86869554D02*
X112111400Y-86745744D01*
X112111400Y-86745744D02*
X112049495Y-86560030D01*
X112049495Y-86560030D02*
X112049495Y-86250506D01*
X115147409Y-70625445D02*
X115085504Y-70749255D01*
X115085504Y-70749255D02*
X115085504Y-70934969D01*
X115085504Y-70934969D02*
X115147409Y-71120683D01*
X115147409Y-71120683D02*
X115271219Y-71244493D01*
X115271219Y-71244493D02*
X115395028Y-71306398D01*
X115395028Y-71306398D02*
X115642647Y-71368302D01*
X115642647Y-71368302D02*
X115828361Y-71368302D01*
X115828361Y-71368302D02*
X116075980Y-71306398D01*
X116075980Y-71306398D02*
X116199790Y-71244493D01*
X116199790Y-71244493D02*
X116323600Y-71120683D01*
X116323600Y-71120683D02*
X116385504Y-70934969D01*
X116385504Y-70934969D02*
X116385504Y-70811160D01*
X116385504Y-70811160D02*
X116323600Y-70625445D01*
X116323600Y-70625445D02*
X116261695Y-70563541D01*
X116261695Y-70563541D02*
X115828361Y-70563541D01*
X115828361Y-70563541D02*
X115828361Y-70811160D01*
X116385504Y-70006398D02*
X115085504Y-70006398D01*
X115085504Y-70006398D02*
X116385504Y-69263541D01*
X116385504Y-69263541D02*
X115085504Y-69263541D01*
X116385504Y-68644493D02*
X115085504Y-68644493D01*
X115085504Y-68644493D02*
X115085504Y-68334969D01*
X115085504Y-68334969D02*
X115147409Y-68149255D01*
X115147409Y-68149255D02*
X115271219Y-68025445D01*
X115271219Y-68025445D02*
X115395028Y-67963540D01*
X115395028Y-67963540D02*
X115642647Y-67901636D01*
X115642647Y-67901636D02*
X115828361Y-67901636D01*
X115828361Y-67901636D02*
X116075980Y-67963540D01*
X116075980Y-67963540D02*
X116199790Y-68025445D01*
X116199790Y-68025445D02*
X116323600Y-68149255D01*
X116323600Y-68149255D02*
X116385504Y-68334969D01*
X116385504Y-68334969D02*
X116385504Y-68644493D01*
X123041101Y-94375266D02*
X124031578Y-94375266D01*
X123536339Y-94870504D02*
X123536339Y-93880028D01*
X124526816Y-93570504D02*
X125331578Y-93570504D01*
X125331578Y-93570504D02*
X124898244Y-94065742D01*
X124898244Y-94065742D02*
X125083959Y-94065742D01*
X125083959Y-94065742D02*
X125207768Y-94127647D01*
X125207768Y-94127647D02*
X125269673Y-94189552D01*
X125269673Y-94189552D02*
X125331578Y-94313361D01*
X125331578Y-94313361D02*
X125331578Y-94622885D01*
X125331578Y-94622885D02*
X125269673Y-94746695D01*
X125269673Y-94746695D02*
X125207768Y-94808600D01*
X125207768Y-94808600D02*
X125083959Y-94870504D01*
X125083959Y-94870504D02*
X124712530Y-94870504D01*
X124712530Y-94870504D02*
X124588721Y-94808600D01*
X124588721Y-94808600D02*
X124526816Y-94746695D01*
X125703006Y-93570504D02*
X126136339Y-94870504D01*
X126136339Y-94870504D02*
X126569673Y-93570504D01*
X110741101Y-101070504D02*
X110741101Y-99770504D01*
X110741101Y-99770504D02*
X111483958Y-101070504D01*
X111483958Y-101070504D02*
X111483958Y-99770504D01*
X112845863Y-100946695D02*
X112783959Y-101008600D01*
X112783959Y-101008600D02*
X112598244Y-101070504D01*
X112598244Y-101070504D02*
X112474435Y-101070504D01*
X112474435Y-101070504D02*
X112288721Y-101008600D01*
X112288721Y-101008600D02*
X112164911Y-100884790D01*
X112164911Y-100884790D02*
X112103006Y-100760980D01*
X112103006Y-100760980D02*
X112041102Y-100513361D01*
X112041102Y-100513361D02*
X112041102Y-100327647D01*
X112041102Y-100327647D02*
X112103006Y-100080028D01*
X112103006Y-100080028D02*
X112164911Y-99956219D01*
X112164911Y-99956219D02*
X112288721Y-99832409D01*
X112288721Y-99832409D02*
X112474435Y-99770504D01*
X112474435Y-99770504D02*
X112598244Y-99770504D01*
X112598244Y-99770504D02*
X112783959Y-99832409D01*
X112783959Y-99832409D02*
X112845863Y-99894314D01*
D12*
X107625939Y-107433853D02*
X107949748Y-107433853D01*
X107949748Y-107433853D02*
X108111653Y-107514805D01*
X108111653Y-107514805D02*
X108273558Y-107676710D01*
X108273558Y-107676710D02*
X108354510Y-108000520D01*
X108354510Y-108000520D02*
X108354510Y-108567186D01*
X108354510Y-108567186D02*
X108273558Y-108890996D01*
X108273558Y-108890996D02*
X108111653Y-109052901D01*
X108111653Y-109052901D02*
X107949748Y-109133853D01*
X107949748Y-109133853D02*
X107625939Y-109133853D01*
X107625939Y-109133853D02*
X107464034Y-109052901D01*
X107464034Y-109052901D02*
X107302129Y-108890996D01*
X107302129Y-108890996D02*
X107221177Y-108567186D01*
X107221177Y-108567186D02*
X107221177Y-108000520D01*
X107221177Y-108000520D02*
X107302129Y-107676710D01*
X107302129Y-107676710D02*
X107464034Y-107514805D01*
X107464034Y-107514805D02*
X107625939Y-107433853D01*
X109083081Y-109133853D02*
X109083081Y-107433853D01*
X109083081Y-107433853D02*
X110054510Y-109133853D01*
X110054510Y-109133853D02*
X110054510Y-107433853D01*
X110864033Y-109133853D02*
X110864033Y-107433853D01*
X111511653Y-107433853D02*
X112644986Y-109133853D01*
X112644986Y-107433853D02*
X111511653Y-109133853D01*
X114587843Y-109133853D02*
X114587843Y-107433853D01*
X114587843Y-108243377D02*
X115559272Y-108243377D01*
X115559272Y-109133853D02*
X115559272Y-107433853D01*
X117016414Y-109052901D02*
X116854510Y-109133853D01*
X116854510Y-109133853D02*
X116530700Y-109133853D01*
X116530700Y-109133853D02*
X116368795Y-109052901D01*
X116368795Y-109052901D02*
X116287843Y-108890996D01*
X116287843Y-108890996D02*
X116287843Y-108243377D01*
X116287843Y-108243377D02*
X116368795Y-108081472D01*
X116368795Y-108081472D02*
X116530700Y-108000520D01*
X116530700Y-108000520D02*
X116854510Y-108000520D01*
X116854510Y-108000520D02*
X117016414Y-108081472D01*
X117016414Y-108081472D02*
X117097367Y-108243377D01*
X117097367Y-108243377D02*
X117097367Y-108405281D01*
X117097367Y-108405281D02*
X116287843Y-108567186D01*
X118554510Y-109133853D02*
X118554510Y-108243377D01*
X118554510Y-108243377D02*
X118473557Y-108081472D01*
X118473557Y-108081472D02*
X118311653Y-108000520D01*
X118311653Y-108000520D02*
X117987843Y-108000520D01*
X117987843Y-108000520D02*
X117825938Y-108081472D01*
X118554510Y-109052901D02*
X118392605Y-109133853D01*
X118392605Y-109133853D02*
X117987843Y-109133853D01*
X117987843Y-109133853D02*
X117825938Y-109052901D01*
X117825938Y-109052901D02*
X117744986Y-108890996D01*
X117744986Y-108890996D02*
X117744986Y-108729091D01*
X117744986Y-108729091D02*
X117825938Y-108567186D01*
X117825938Y-108567186D02*
X117987843Y-108486234D01*
X117987843Y-108486234D02*
X118392605Y-108486234D01*
X118392605Y-108486234D02*
X118554510Y-108405281D01*
X120092605Y-109133853D02*
X120092605Y-107433853D01*
X120092605Y-109052901D02*
X119930700Y-109133853D01*
X119930700Y-109133853D02*
X119606891Y-109133853D01*
X119606891Y-109133853D02*
X119444986Y-109052901D01*
X119444986Y-109052901D02*
X119364033Y-108971948D01*
X119364033Y-108971948D02*
X119283081Y-108810043D01*
X119283081Y-108810043D02*
X119283081Y-108324329D01*
X119283081Y-108324329D02*
X119364033Y-108162424D01*
X119364033Y-108162424D02*
X119444986Y-108081472D01*
X119444986Y-108081472D02*
X119606891Y-108000520D01*
X119606891Y-108000520D02*
X119930700Y-108000520D01*
X119930700Y-108000520D02*
X120092605Y-108081472D01*
X120821176Y-109052901D02*
X120983081Y-109133853D01*
X120983081Y-109133853D02*
X121306890Y-109133853D01*
X121306890Y-109133853D02*
X121468795Y-109052901D01*
X121468795Y-109052901D02*
X121549747Y-108890996D01*
X121549747Y-108890996D02*
X121549747Y-108810043D01*
X121549747Y-108810043D02*
X121468795Y-108648139D01*
X121468795Y-108648139D02*
X121306890Y-108567186D01*
X121306890Y-108567186D02*
X121064033Y-108567186D01*
X121064033Y-108567186D02*
X120902128Y-108486234D01*
X120902128Y-108486234D02*
X120821176Y-108324329D01*
X120821176Y-108324329D02*
X120821176Y-108243377D01*
X120821176Y-108243377D02*
X120902128Y-108081472D01*
X120902128Y-108081472D02*
X121064033Y-108000520D01*
X121064033Y-108000520D02*
X121306890Y-108000520D01*
X121306890Y-108000520D02*
X121468795Y-108081472D01*
X122035461Y-108000520D02*
X122683080Y-108000520D01*
X122278318Y-107433853D02*
X122278318Y-108890996D01*
X122278318Y-108890996D02*
X122359271Y-109052901D01*
X122359271Y-109052901D02*
X122521176Y-109133853D01*
X122521176Y-109133853D02*
X122683080Y-109133853D01*
X123978319Y-109133853D02*
X123978319Y-108243377D01*
X123978319Y-108243377D02*
X123897366Y-108081472D01*
X123897366Y-108081472D02*
X123735462Y-108000520D01*
X123735462Y-108000520D02*
X123411652Y-108000520D01*
X123411652Y-108000520D02*
X123249747Y-108081472D01*
X123978319Y-109052901D02*
X123816414Y-109133853D01*
X123816414Y-109133853D02*
X123411652Y-109133853D01*
X123411652Y-109133853D02*
X123249747Y-109052901D01*
X123249747Y-109052901D02*
X123168795Y-108890996D01*
X123168795Y-108890996D02*
X123168795Y-108729091D01*
X123168795Y-108729091D02*
X123249747Y-108567186D01*
X123249747Y-108567186D02*
X123411652Y-108486234D01*
X123411652Y-108486234D02*
X123816414Y-108486234D01*
X123816414Y-108486234D02*
X123978319Y-108405281D01*
X125516414Y-108000520D02*
X125516414Y-109376710D01*
X125516414Y-109376710D02*
X125435461Y-109538615D01*
X125435461Y-109538615D02*
X125354509Y-109619567D01*
X125354509Y-109619567D02*
X125192604Y-109700520D01*
X125192604Y-109700520D02*
X124949747Y-109700520D01*
X124949747Y-109700520D02*
X124787842Y-109619567D01*
X125516414Y-109052901D02*
X125354509Y-109133853D01*
X125354509Y-109133853D02*
X125030700Y-109133853D01*
X125030700Y-109133853D02*
X124868795Y-109052901D01*
X124868795Y-109052901D02*
X124787842Y-108971948D01*
X124787842Y-108971948D02*
X124706890Y-108810043D01*
X124706890Y-108810043D02*
X124706890Y-108324329D01*
X124706890Y-108324329D02*
X124787842Y-108162424D01*
X124787842Y-108162424D02*
X124868795Y-108081472D01*
X124868795Y-108081472D02*
X125030700Y-108000520D01*
X125030700Y-108000520D02*
X125354509Y-108000520D01*
X125354509Y-108000520D02*
X125516414Y-108081472D01*
X126973556Y-109052901D02*
X126811652Y-109133853D01*
X126811652Y-109133853D02*
X126487842Y-109133853D01*
X126487842Y-109133853D02*
X126325937Y-109052901D01*
X126325937Y-109052901D02*
X126244985Y-108890996D01*
X126244985Y-108890996D02*
X126244985Y-108243377D01*
X126244985Y-108243377D02*
X126325937Y-108081472D01*
X126325937Y-108081472D02*
X126487842Y-108000520D01*
X126487842Y-108000520D02*
X126811652Y-108000520D01*
X126811652Y-108000520D02*
X126973556Y-108081472D01*
X126973556Y-108081472D02*
X127054509Y-108243377D01*
X127054509Y-108243377D02*
X127054509Y-108405281D01*
X127054509Y-108405281D02*
X126244985Y-108567186D01*
X107302129Y-111870853D02*
X107302129Y-110170853D01*
X107302129Y-110170853D02*
X108273558Y-111870853D01*
X108273558Y-111870853D02*
X108273558Y-110170853D01*
X109730700Y-111789901D02*
X109568796Y-111870853D01*
X109568796Y-111870853D02*
X109244986Y-111870853D01*
X109244986Y-111870853D02*
X109083081Y-111789901D01*
X109083081Y-111789901D02*
X109002129Y-111627996D01*
X109002129Y-111627996D02*
X109002129Y-110980377D01*
X109002129Y-110980377D02*
X109083081Y-110818472D01*
X109083081Y-110818472D02*
X109244986Y-110737520D01*
X109244986Y-110737520D02*
X109568796Y-110737520D01*
X109568796Y-110737520D02*
X109730700Y-110818472D01*
X109730700Y-110818472D02*
X109811653Y-110980377D01*
X109811653Y-110980377D02*
X109811653Y-111142281D01*
X109811653Y-111142281D02*
X109002129Y-111304186D01*
X111268796Y-110737520D02*
X111268796Y-111870853D01*
X110540224Y-110737520D02*
X110540224Y-111627996D01*
X110540224Y-111627996D02*
X110621177Y-111789901D01*
X110621177Y-111789901D02*
X110783082Y-111870853D01*
X110783082Y-111870853D02*
X111025939Y-111870853D01*
X111025939Y-111870853D02*
X111187843Y-111789901D01*
X111187843Y-111789901D02*
X111268796Y-111708948D01*
X112078319Y-111870853D02*
X112078319Y-110737520D01*
X112078319Y-111061329D02*
X112159272Y-110899424D01*
X112159272Y-110899424D02*
X112240224Y-110818472D01*
X112240224Y-110818472D02*
X112402129Y-110737520D01*
X112402129Y-110737520D02*
X112564034Y-110737520D01*
X113373558Y-111870853D02*
X113211653Y-111789901D01*
X113211653Y-111789901D02*
X113130700Y-111708948D01*
X113130700Y-111708948D02*
X113049748Y-111547043D01*
X113049748Y-111547043D02*
X113049748Y-111061329D01*
X113049748Y-111061329D02*
X113130700Y-110899424D01*
X113130700Y-110899424D02*
X113211653Y-110818472D01*
X113211653Y-110818472D02*
X113373558Y-110737520D01*
X113373558Y-110737520D02*
X113616415Y-110737520D01*
X113616415Y-110737520D02*
X113778319Y-110818472D01*
X113778319Y-110818472D02*
X113859272Y-110899424D01*
X113859272Y-110899424D02*
X113940224Y-111061329D01*
X113940224Y-111061329D02*
X113940224Y-111547043D01*
X113940224Y-111547043D02*
X113859272Y-111708948D01*
X113859272Y-111708948D02*
X113778319Y-111789901D01*
X113778319Y-111789901D02*
X113616415Y-111870853D01*
X113616415Y-111870853D02*
X113373558Y-111870853D01*
X114668795Y-110737520D02*
X114668795Y-112437520D01*
X114668795Y-110818472D02*
X114830700Y-110737520D01*
X114830700Y-110737520D02*
X115154510Y-110737520D01*
X115154510Y-110737520D02*
X115316414Y-110818472D01*
X115316414Y-110818472D02*
X115397367Y-110899424D01*
X115397367Y-110899424D02*
X115478319Y-111061329D01*
X115478319Y-111061329D02*
X115478319Y-111547043D01*
X115478319Y-111547043D02*
X115397367Y-111708948D01*
X115397367Y-111708948D02*
X115316414Y-111789901D01*
X115316414Y-111789901D02*
X115154510Y-111870853D01*
X115154510Y-111870853D02*
X114830700Y-111870853D01*
X114830700Y-111870853D02*
X114668795Y-111789901D01*
X116206890Y-111870853D02*
X116206890Y-110737520D01*
X116206890Y-110170853D02*
X116125938Y-110251805D01*
X116125938Y-110251805D02*
X116206890Y-110332758D01*
X116206890Y-110332758D02*
X116287843Y-110251805D01*
X116287843Y-110251805D02*
X116206890Y-110170853D01*
X116206890Y-110170853D02*
X116206890Y-110332758D01*
X116854510Y-111870853D02*
X117744986Y-110737520D01*
X116854510Y-110737520D02*
X117744986Y-111870853D01*
X118392604Y-111223234D02*
X119687843Y-111223234D01*
X121387843Y-111870853D02*
X120416414Y-111870853D01*
X120902128Y-111870853D02*
X120902128Y-110170853D01*
X120902128Y-110170853D02*
X120740224Y-110413710D01*
X120740224Y-110413710D02*
X120578319Y-110575615D01*
X120578319Y-110575615D02*
X120416414Y-110656567D01*
X122116414Y-111708948D02*
X122197367Y-111789901D01*
X122197367Y-111789901D02*
X122116414Y-111870853D01*
X122116414Y-111870853D02*
X122035462Y-111789901D01*
X122035462Y-111789901D02*
X122116414Y-111708948D01*
X122116414Y-111708948D02*
X122116414Y-111870853D01*
X123249748Y-110170853D02*
X123411653Y-110170853D01*
X123411653Y-110170853D02*
X123573557Y-110251805D01*
X123573557Y-110251805D02*
X123654510Y-110332758D01*
X123654510Y-110332758D02*
X123735462Y-110494662D01*
X123735462Y-110494662D02*
X123816415Y-110818472D01*
X123816415Y-110818472D02*
X123816415Y-111223234D01*
X123816415Y-111223234D02*
X123735462Y-111547043D01*
X123735462Y-111547043D02*
X123654510Y-111708948D01*
X123654510Y-111708948D02*
X123573557Y-111789901D01*
X123573557Y-111789901D02*
X123411653Y-111870853D01*
X123411653Y-111870853D02*
X123249748Y-111870853D01*
X123249748Y-111870853D02*
X123087843Y-111789901D01*
X123087843Y-111789901D02*
X123006891Y-111708948D01*
X123006891Y-111708948D02*
X122925938Y-111547043D01*
X122925938Y-111547043D02*
X122844986Y-111223234D01*
X122844986Y-111223234D02*
X122844986Y-110818472D01*
X122844986Y-110818472D02*
X122925938Y-110494662D01*
X122925938Y-110494662D02*
X123006891Y-110332758D01*
X123006891Y-110332758D02*
X123087843Y-110251805D01*
X123087843Y-110251805D02*
X123249748Y-110170853D01*
X125192605Y-111789901D02*
X125030701Y-111870853D01*
X125030701Y-111870853D02*
X124706891Y-111870853D01*
X124706891Y-111870853D02*
X124544986Y-111789901D01*
X124544986Y-111789901D02*
X124464034Y-111627996D01*
X124464034Y-111627996D02*
X124464034Y-110980377D01*
X124464034Y-110980377D02*
X124544986Y-110818472D01*
X124544986Y-110818472D02*
X124706891Y-110737520D01*
X124706891Y-110737520D02*
X125030701Y-110737520D01*
X125030701Y-110737520D02*
X125192605Y-110818472D01*
X125192605Y-110818472D02*
X125273558Y-110980377D01*
X125273558Y-110980377D02*
X125273558Y-111142281D01*
X125273558Y-111142281D02*
X124464034Y-111304186D01*
X107868796Y-113717377D02*
X108111653Y-113798329D01*
X108111653Y-113798329D02*
X108192606Y-113879281D01*
X108192606Y-113879281D02*
X108273558Y-114041186D01*
X108273558Y-114041186D02*
X108273558Y-114284043D01*
X108273558Y-114284043D02*
X108192606Y-114445948D01*
X108192606Y-114445948D02*
X108111653Y-114526901D01*
X108111653Y-114526901D02*
X107949748Y-114607853D01*
X107949748Y-114607853D02*
X107302129Y-114607853D01*
X107302129Y-114607853D02*
X107302129Y-112907853D01*
X107302129Y-112907853D02*
X107868796Y-112907853D01*
X107868796Y-112907853D02*
X108030701Y-112988805D01*
X108030701Y-112988805D02*
X108111653Y-113069758D01*
X108111653Y-113069758D02*
X108192606Y-113231662D01*
X108192606Y-113231662D02*
X108192606Y-113393567D01*
X108192606Y-113393567D02*
X108111653Y-113555472D01*
X108111653Y-113555472D02*
X108030701Y-113636424D01*
X108030701Y-113636424D02*
X107868796Y-113717377D01*
X107868796Y-113717377D02*
X107302129Y-113717377D01*
X109244987Y-114607853D02*
X109083082Y-114526901D01*
X109083082Y-114526901D02*
X109002129Y-114445948D01*
X109002129Y-114445948D02*
X108921177Y-114284043D01*
X108921177Y-114284043D02*
X108921177Y-113798329D01*
X108921177Y-113798329D02*
X109002129Y-113636424D01*
X109002129Y-113636424D02*
X109083082Y-113555472D01*
X109083082Y-113555472D02*
X109244987Y-113474520D01*
X109244987Y-113474520D02*
X109487844Y-113474520D01*
X109487844Y-113474520D02*
X109649748Y-113555472D01*
X109649748Y-113555472D02*
X109730701Y-113636424D01*
X109730701Y-113636424D02*
X109811653Y-113798329D01*
X109811653Y-113798329D02*
X109811653Y-114284043D01*
X109811653Y-114284043D02*
X109730701Y-114445948D01*
X109730701Y-114445948D02*
X109649748Y-114526901D01*
X109649748Y-114526901D02*
X109487844Y-114607853D01*
X109487844Y-114607853D02*
X109244987Y-114607853D01*
X111268796Y-114607853D02*
X111268796Y-113717377D01*
X111268796Y-113717377D02*
X111187843Y-113555472D01*
X111187843Y-113555472D02*
X111025939Y-113474520D01*
X111025939Y-113474520D02*
X110702129Y-113474520D01*
X110702129Y-113474520D02*
X110540224Y-113555472D01*
X111268796Y-114526901D02*
X111106891Y-114607853D01*
X111106891Y-114607853D02*
X110702129Y-114607853D01*
X110702129Y-114607853D02*
X110540224Y-114526901D01*
X110540224Y-114526901D02*
X110459272Y-114364996D01*
X110459272Y-114364996D02*
X110459272Y-114203091D01*
X110459272Y-114203091D02*
X110540224Y-114041186D01*
X110540224Y-114041186D02*
X110702129Y-113960234D01*
X110702129Y-113960234D02*
X111106891Y-113960234D01*
X111106891Y-113960234D02*
X111268796Y-113879281D01*
X112078319Y-114607853D02*
X112078319Y-113474520D01*
X112078319Y-113798329D02*
X112159272Y-113636424D01*
X112159272Y-113636424D02*
X112240224Y-113555472D01*
X112240224Y-113555472D02*
X112402129Y-113474520D01*
X112402129Y-113474520D02*
X112564034Y-113474520D01*
X113859272Y-114607853D02*
X113859272Y-112907853D01*
X113859272Y-114526901D02*
X113697367Y-114607853D01*
X113697367Y-114607853D02*
X113373558Y-114607853D01*
X113373558Y-114607853D02*
X113211653Y-114526901D01*
X113211653Y-114526901D02*
X113130700Y-114445948D01*
X113130700Y-114445948D02*
X113049748Y-114284043D01*
X113049748Y-114284043D02*
X113049748Y-113798329D01*
X113049748Y-113798329D02*
X113130700Y-113636424D01*
X113130700Y-113636424D02*
X113211653Y-113555472D01*
X113211653Y-113555472D02*
X113373558Y-113474520D01*
X113373558Y-113474520D02*
X113697367Y-113474520D01*
X113697367Y-113474520D02*
X113859272Y-113555472D01*
X116935462Y-114607853D02*
X116368795Y-113798329D01*
X115964033Y-114607853D02*
X115964033Y-112907853D01*
X115964033Y-112907853D02*
X116611652Y-112907853D01*
X116611652Y-112907853D02*
X116773557Y-112988805D01*
X116773557Y-112988805D02*
X116854510Y-113069758D01*
X116854510Y-113069758D02*
X116935462Y-113231662D01*
X116935462Y-113231662D02*
X116935462Y-113474520D01*
X116935462Y-113474520D02*
X116854510Y-113636424D01*
X116854510Y-113636424D02*
X116773557Y-113717377D01*
X116773557Y-113717377D02*
X116611652Y-113798329D01*
X116611652Y-113798329D02*
X115964033Y-113798329D01*
X118311652Y-114526901D02*
X118149748Y-114607853D01*
X118149748Y-114607853D02*
X117825938Y-114607853D01*
X117825938Y-114607853D02*
X117664033Y-114526901D01*
X117664033Y-114526901D02*
X117583081Y-114364996D01*
X117583081Y-114364996D02*
X117583081Y-113717377D01*
X117583081Y-113717377D02*
X117664033Y-113555472D01*
X117664033Y-113555472D02*
X117825938Y-113474520D01*
X117825938Y-113474520D02*
X118149748Y-113474520D01*
X118149748Y-113474520D02*
X118311652Y-113555472D01*
X118311652Y-113555472D02*
X118392605Y-113717377D01*
X118392605Y-113717377D02*
X118392605Y-113879281D01*
X118392605Y-113879281D02*
X117583081Y-114041186D01*
X118959272Y-113474520D02*
X119364034Y-114607853D01*
X119364034Y-114607853D02*
X119768795Y-113474520D01*
X120416414Y-114445948D02*
X120497367Y-114526901D01*
X120497367Y-114526901D02*
X120416414Y-114607853D01*
X120416414Y-114607853D02*
X120335462Y-114526901D01*
X120335462Y-114526901D02*
X120416414Y-114445948D01*
X120416414Y-114445948D02*
X120416414Y-114607853D01*
X123087843Y-113717377D02*
X123330700Y-113798329D01*
X123330700Y-113798329D02*
X123411653Y-113879281D01*
X123411653Y-113879281D02*
X123492605Y-114041186D01*
X123492605Y-114041186D02*
X123492605Y-114284043D01*
X123492605Y-114284043D02*
X123411653Y-114445948D01*
X123411653Y-114445948D02*
X123330700Y-114526901D01*
X123330700Y-114526901D02*
X123168795Y-114607853D01*
X123168795Y-114607853D02*
X122521176Y-114607853D01*
X122521176Y-114607853D02*
X122521176Y-112907853D01*
X122521176Y-112907853D02*
X123087843Y-112907853D01*
X123087843Y-112907853D02*
X123249748Y-112988805D01*
X123249748Y-112988805D02*
X123330700Y-113069758D01*
X123330700Y-113069758D02*
X123411653Y-113231662D01*
X123411653Y-113231662D02*
X123411653Y-113393567D01*
X123411653Y-113393567D02*
X123330700Y-113555472D01*
X123330700Y-113555472D02*
X123249748Y-113636424D01*
X123249748Y-113636424D02*
X123087843Y-113717377D01*
X123087843Y-113717377D02*
X122521176Y-113717377D01*
X124706891Y-115255472D02*
X124625938Y-115174520D01*
X124625938Y-115174520D02*
X124464034Y-114931662D01*
X124464034Y-114931662D02*
X124383081Y-114769758D01*
X124383081Y-114769758D02*
X124302129Y-114526901D01*
X124302129Y-114526901D02*
X124221176Y-114122139D01*
X124221176Y-114122139D02*
X124221176Y-113798329D01*
X124221176Y-113798329D02*
X124302129Y-113393567D01*
X124302129Y-113393567D02*
X124383081Y-113150710D01*
X124383081Y-113150710D02*
X124464034Y-112988805D01*
X124464034Y-112988805D02*
X124625938Y-112745948D01*
X124625938Y-112745948D02*
X124706891Y-112664996D01*
X125111652Y-112907853D02*
X126083081Y-112907853D01*
X125597367Y-114607853D02*
X125597367Y-112907853D01*
X126649747Y-113717377D02*
X127216414Y-113717377D01*
X127459271Y-114607853D02*
X126649747Y-114607853D01*
X126649747Y-114607853D02*
X126649747Y-112907853D01*
X126649747Y-112907853D02*
X127459271Y-112907853D01*
X128025938Y-115255472D02*
X128106890Y-115174520D01*
X128106890Y-115174520D02*
X128268795Y-114931662D01*
X128268795Y-114931662D02*
X128349747Y-114769758D01*
X128349747Y-114769758D02*
X128430700Y-114526901D01*
X128430700Y-114526901D02*
X128511652Y-114122139D01*
X128511652Y-114122139D02*
X128511652Y-113798329D01*
X128511652Y-113798329D02*
X128430700Y-113393567D01*
X128430700Y-113393567D02*
X128349747Y-113150710D01*
X128349747Y-113150710D02*
X128268795Y-112988805D01*
X128268795Y-112988805D02*
X128106890Y-112745948D01*
X128106890Y-112745948D02*
X128025938Y-112664996D01*
D11*
X117379197Y-102408600D02*
X117564911Y-102470504D01*
X117564911Y-102470504D02*
X117874435Y-102470504D01*
X117874435Y-102470504D02*
X117998244Y-102408600D01*
X117998244Y-102408600D02*
X118060149Y-102346695D01*
X118060149Y-102346695D02*
X118122054Y-102222885D01*
X118122054Y-102222885D02*
X118122054Y-102099076D01*
X118122054Y-102099076D02*
X118060149Y-101975266D01*
X118060149Y-101975266D02*
X117998244Y-101913361D01*
X117998244Y-101913361D02*
X117874435Y-101851457D01*
X117874435Y-101851457D02*
X117626816Y-101789552D01*
X117626816Y-101789552D02*
X117503006Y-101727647D01*
X117503006Y-101727647D02*
X117441101Y-101665742D01*
X117441101Y-101665742D02*
X117379197Y-101541933D01*
X117379197Y-101541933D02*
X117379197Y-101418123D01*
X117379197Y-101418123D02*
X117441101Y-101294314D01*
X117441101Y-101294314D02*
X117503006Y-101232409D01*
X117503006Y-101232409D02*
X117626816Y-101170504D01*
X117626816Y-101170504D02*
X117936339Y-101170504D01*
X117936339Y-101170504D02*
X118122054Y-101232409D01*
X119422053Y-102346695D02*
X119360149Y-102408600D01*
X119360149Y-102408600D02*
X119174434Y-102470504D01*
X119174434Y-102470504D02*
X119050625Y-102470504D01*
X119050625Y-102470504D02*
X118864911Y-102408600D01*
X118864911Y-102408600D02*
X118741101Y-102284790D01*
X118741101Y-102284790D02*
X118679196Y-102160980D01*
X118679196Y-102160980D02*
X118617292Y-101913361D01*
X118617292Y-101913361D02*
X118617292Y-101727647D01*
X118617292Y-101727647D02*
X118679196Y-101480028D01*
X118679196Y-101480028D02*
X118741101Y-101356219D01*
X118741101Y-101356219D02*
X118864911Y-101232409D01*
X118864911Y-101232409D02*
X119050625Y-101170504D01*
X119050625Y-101170504D02*
X119174434Y-101170504D01*
X119174434Y-101170504D02*
X119360149Y-101232409D01*
X119360149Y-101232409D02*
X119422053Y-101294314D01*
X120598244Y-102470504D02*
X119979196Y-102470504D01*
X119979196Y-102470504D02*
X119979196Y-101170504D01*
X118898600Y-71368302D02*
X118960504Y-71182588D01*
X118960504Y-71182588D02*
X118960504Y-70873064D01*
X118960504Y-70873064D02*
X118898600Y-70749255D01*
X118898600Y-70749255D02*
X118836695Y-70687350D01*
X118836695Y-70687350D02*
X118712885Y-70625445D01*
X118712885Y-70625445D02*
X118589076Y-70625445D01*
X118589076Y-70625445D02*
X118465266Y-70687350D01*
X118465266Y-70687350D02*
X118403361Y-70749255D01*
X118403361Y-70749255D02*
X118341457Y-70873064D01*
X118341457Y-70873064D02*
X118279552Y-71120683D01*
X118279552Y-71120683D02*
X118217647Y-71244493D01*
X118217647Y-71244493D02*
X118155742Y-71306398D01*
X118155742Y-71306398D02*
X118031933Y-71368302D01*
X118031933Y-71368302D02*
X117908123Y-71368302D01*
X117908123Y-71368302D02*
X117784314Y-71306398D01*
X117784314Y-71306398D02*
X117722409Y-71244493D01*
X117722409Y-71244493D02*
X117660504Y-71120683D01*
X117660504Y-71120683D02*
X117660504Y-70811160D01*
X117660504Y-70811160D02*
X117722409Y-70625445D01*
X118960504Y-70068303D02*
X117660504Y-70068303D01*
X117660504Y-70068303D02*
X117660504Y-69758779D01*
X117660504Y-69758779D02*
X117722409Y-69573065D01*
X117722409Y-69573065D02*
X117846219Y-69449255D01*
X117846219Y-69449255D02*
X117970028Y-69387350D01*
X117970028Y-69387350D02*
X118217647Y-69325446D01*
X118217647Y-69325446D02*
X118403361Y-69325446D01*
X118403361Y-69325446D02*
X118650980Y-69387350D01*
X118650980Y-69387350D02*
X118774790Y-69449255D01*
X118774790Y-69449255D02*
X118898600Y-69573065D01*
X118898600Y-69573065D02*
X118960504Y-69758779D01*
X118960504Y-69758779D02*
X118960504Y-70068303D01*
X118589076Y-68830207D02*
X118589076Y-68211160D01*
X118960504Y-68954017D02*
X117660504Y-68520684D01*
X117660504Y-68520684D02*
X118960504Y-68087350D01*
X123179197Y-98008600D02*
X123364911Y-98070504D01*
X123364911Y-98070504D02*
X123674435Y-98070504D01*
X123674435Y-98070504D02*
X123798244Y-98008600D01*
X123798244Y-98008600D02*
X123860149Y-97946695D01*
X123860149Y-97946695D02*
X123922054Y-97822885D01*
X123922054Y-97822885D02*
X123922054Y-97699076D01*
X123922054Y-97699076D02*
X123860149Y-97575266D01*
X123860149Y-97575266D02*
X123798244Y-97513361D01*
X123798244Y-97513361D02*
X123674435Y-97451457D01*
X123674435Y-97451457D02*
X123426816Y-97389552D01*
X123426816Y-97389552D02*
X123303006Y-97327647D01*
X123303006Y-97327647D02*
X123241101Y-97265742D01*
X123241101Y-97265742D02*
X123179197Y-97141933D01*
X123179197Y-97141933D02*
X123179197Y-97018123D01*
X123179197Y-97018123D02*
X123241101Y-96894314D01*
X123241101Y-96894314D02*
X123303006Y-96832409D01*
X123303006Y-96832409D02*
X123426816Y-96770504D01*
X123426816Y-96770504D02*
X123736339Y-96770504D01*
X123736339Y-96770504D02*
X123922054Y-96832409D01*
X124479196Y-98070504D02*
X124479196Y-96770504D01*
X124479196Y-96770504D02*
X124788720Y-96770504D01*
X124788720Y-96770504D02*
X124974434Y-96832409D01*
X124974434Y-96832409D02*
X125098244Y-96956219D01*
X125098244Y-96956219D02*
X125160149Y-97080028D01*
X125160149Y-97080028D02*
X125222053Y-97327647D01*
X125222053Y-97327647D02*
X125222053Y-97513361D01*
X125222053Y-97513361D02*
X125160149Y-97760980D01*
X125160149Y-97760980D02*
X125098244Y-97884790D01*
X125098244Y-97884790D02*
X124974434Y-98008600D01*
X124974434Y-98008600D02*
X124788720Y-98070504D01*
X124788720Y-98070504D02*
X124479196Y-98070504D01*
X125717292Y-97699076D02*
X126336339Y-97699076D01*
X125593482Y-98070504D02*
X126026815Y-96770504D01*
X126026815Y-96770504D02*
X126460149Y-98070504D01*
X118041101Y-91370504D02*
X118041101Y-90070504D01*
X118041101Y-90070504D02*
X118783958Y-91370504D01*
X118783958Y-91370504D02*
X118783958Y-90070504D01*
X120145863Y-91246695D02*
X120083959Y-91308600D01*
X120083959Y-91308600D02*
X119898244Y-91370504D01*
X119898244Y-91370504D02*
X119774435Y-91370504D01*
X119774435Y-91370504D02*
X119588721Y-91308600D01*
X119588721Y-91308600D02*
X119464911Y-91184790D01*
X119464911Y-91184790D02*
X119403006Y-91060980D01*
X119403006Y-91060980D02*
X119341102Y-90813361D01*
X119341102Y-90813361D02*
X119341102Y-90627647D01*
X119341102Y-90627647D02*
X119403006Y-90380028D01*
X119403006Y-90380028D02*
X119464911Y-90256219D01*
X119464911Y-90256219D02*
X119588721Y-90132409D01*
X119588721Y-90132409D02*
X119774435Y-90070504D01*
X119774435Y-90070504D02*
X119898244Y-90070504D01*
X119898244Y-90070504D02*
X120083959Y-90132409D01*
X120083959Y-90132409D02*
X120145863Y-90194314D01*
X110522054Y-90732409D02*
X110398244Y-90670504D01*
X110398244Y-90670504D02*
X110212530Y-90670504D01*
X110212530Y-90670504D02*
X110026816Y-90732409D01*
X110026816Y-90732409D02*
X109903006Y-90856219D01*
X109903006Y-90856219D02*
X109841101Y-90980028D01*
X109841101Y-90980028D02*
X109779197Y-91227647D01*
X109779197Y-91227647D02*
X109779197Y-91413361D01*
X109779197Y-91413361D02*
X109841101Y-91660980D01*
X109841101Y-91660980D02*
X109903006Y-91784790D01*
X109903006Y-91784790D02*
X110026816Y-91908600D01*
X110026816Y-91908600D02*
X110212530Y-91970504D01*
X110212530Y-91970504D02*
X110336339Y-91970504D01*
X110336339Y-91970504D02*
X110522054Y-91908600D01*
X110522054Y-91908600D02*
X110583958Y-91846695D01*
X110583958Y-91846695D02*
X110583958Y-91413361D01*
X110583958Y-91413361D02*
X110336339Y-91413361D01*
X111141101Y-91970504D02*
X111141101Y-90670504D01*
X111141101Y-90670504D02*
X111883958Y-91970504D01*
X111883958Y-91970504D02*
X111883958Y-90670504D01*
X112503006Y-91970504D02*
X112503006Y-90670504D01*
X112503006Y-90670504D02*
X112812530Y-90670504D01*
X112812530Y-90670504D02*
X112998244Y-90732409D01*
X112998244Y-90732409D02*
X113122054Y-90856219D01*
X113122054Y-90856219D02*
X113183959Y-90980028D01*
X113183959Y-90980028D02*
X113245863Y-91227647D01*
X113245863Y-91227647D02*
X113245863Y-91413361D01*
X113245863Y-91413361D02*
X113183959Y-91660980D01*
X113183959Y-91660980D02*
X113122054Y-91784790D01*
X113122054Y-91784790D02*
X112998244Y-91908600D01*
X112998244Y-91908600D02*
X112812530Y-91970504D01*
X112812530Y-91970504D02*
X112503006Y-91970504D01*
X123615266Y-71306398D02*
X123615266Y-70315922D01*
X124110504Y-70811160D02*
X123120028Y-70811160D01*
X122810504Y-69820683D02*
X122810504Y-69015921D01*
X122810504Y-69015921D02*
X123305742Y-69449255D01*
X123305742Y-69449255D02*
X123305742Y-69263540D01*
X123305742Y-69263540D02*
X123367647Y-69139731D01*
X123367647Y-69139731D02*
X123429552Y-69077826D01*
X123429552Y-69077826D02*
X123553361Y-69015921D01*
X123553361Y-69015921D02*
X123862885Y-69015921D01*
X123862885Y-69015921D02*
X123986695Y-69077826D01*
X123986695Y-69077826D02*
X124048600Y-69139731D01*
X124048600Y-69139731D02*
X124110504Y-69263540D01*
X124110504Y-69263540D02*
X124110504Y-69634969D01*
X124110504Y-69634969D02*
X124048600Y-69758778D01*
X124048600Y-69758778D02*
X123986695Y-69820683D01*
X122810504Y-68644493D02*
X124110504Y-68211160D01*
X124110504Y-68211160D02*
X122810504Y-67777826D01*
X117211400Y-83526697D02*
X117149495Y-83712411D01*
X117149495Y-83712411D02*
X117149495Y-84021935D01*
X117149495Y-84021935D02*
X117211400Y-84145744D01*
X117211400Y-84145744D02*
X117273304Y-84207649D01*
X117273304Y-84207649D02*
X117397114Y-84269554D01*
X117397114Y-84269554D02*
X117520923Y-84269554D01*
X117520923Y-84269554D02*
X117644733Y-84207649D01*
X117644733Y-84207649D02*
X117706638Y-84145744D01*
X117706638Y-84145744D02*
X117768542Y-84021935D01*
X117768542Y-84021935D02*
X117830447Y-83774316D01*
X117830447Y-83774316D02*
X117892352Y-83650506D01*
X117892352Y-83650506D02*
X117954257Y-83588601D01*
X117954257Y-83588601D02*
X118078066Y-83526697D01*
X118078066Y-83526697D02*
X118201876Y-83526697D01*
X118201876Y-83526697D02*
X118325685Y-83588601D01*
X118325685Y-83588601D02*
X118387590Y-83650506D01*
X118387590Y-83650506D02*
X118449495Y-83774316D01*
X118449495Y-83774316D02*
X118449495Y-84083839D01*
X118449495Y-84083839D02*
X118387590Y-84269554D01*
X117149495Y-84826696D02*
X118449495Y-84826696D01*
X118449495Y-84826696D02*
X118449495Y-85136220D01*
X118449495Y-85136220D02*
X118387590Y-85321934D01*
X118387590Y-85321934D02*
X118263780Y-85445744D01*
X118263780Y-85445744D02*
X118139971Y-85507649D01*
X118139971Y-85507649D02*
X117892352Y-85569553D01*
X117892352Y-85569553D02*
X117706638Y-85569553D01*
X117706638Y-85569553D02*
X117459019Y-85507649D01*
X117459019Y-85507649D02*
X117335209Y-85445744D01*
X117335209Y-85445744D02*
X117211400Y-85321934D01*
X117211400Y-85321934D02*
X117149495Y-85136220D01*
X117149495Y-85136220D02*
X117149495Y-84826696D01*
X117520923Y-86064792D02*
X117520923Y-86683839D01*
X117149495Y-85940982D02*
X118449495Y-86374315D01*
X118449495Y-86374315D02*
X117149495Y-86807649D01*
X115837590Y-84169554D02*
X115899495Y-84045744D01*
X115899495Y-84045744D02*
X115899495Y-83860030D01*
X115899495Y-83860030D02*
X115837590Y-83674316D01*
X115837590Y-83674316D02*
X115713780Y-83550506D01*
X115713780Y-83550506D02*
X115589971Y-83488601D01*
X115589971Y-83488601D02*
X115342352Y-83426697D01*
X115342352Y-83426697D02*
X115156638Y-83426697D01*
X115156638Y-83426697D02*
X114909019Y-83488601D01*
X114909019Y-83488601D02*
X114785209Y-83550506D01*
X114785209Y-83550506D02*
X114661400Y-83674316D01*
X114661400Y-83674316D02*
X114599495Y-83860030D01*
X114599495Y-83860030D02*
X114599495Y-83983839D01*
X114599495Y-83983839D02*
X114661400Y-84169554D01*
X114661400Y-84169554D02*
X114723304Y-84231458D01*
X114723304Y-84231458D02*
X115156638Y-84231458D01*
X115156638Y-84231458D02*
X115156638Y-83983839D01*
X114599495Y-84788601D02*
X115899495Y-84788601D01*
X115899495Y-84788601D02*
X114599495Y-85531458D01*
X114599495Y-85531458D02*
X115899495Y-85531458D01*
X114599495Y-86150506D02*
X115899495Y-86150506D01*
X115899495Y-86150506D02*
X115899495Y-86460030D01*
X115899495Y-86460030D02*
X115837590Y-86645744D01*
X115837590Y-86645744D02*
X115713780Y-86769554D01*
X115713780Y-86769554D02*
X115589971Y-86831459D01*
X115589971Y-86831459D02*
X115342352Y-86893363D01*
X115342352Y-86893363D02*
X115156638Y-86893363D01*
X115156638Y-86893363D02*
X114909019Y-86831459D01*
X114909019Y-86831459D02*
X114785209Y-86769554D01*
X114785209Y-86769554D02*
X114661400Y-86645744D01*
X114661400Y-86645744D02*
X114599495Y-86460030D01*
X114599495Y-86460030D02*
X114599495Y-86150506D01*
X122744733Y-83488601D02*
X122744733Y-84479078D01*
X122249495Y-83983839D02*
X123239971Y-83983839D01*
X123549495Y-84974316D02*
X123549495Y-85779078D01*
X123549495Y-85779078D02*
X123054257Y-85345744D01*
X123054257Y-85345744D02*
X123054257Y-85531459D01*
X123054257Y-85531459D02*
X122992352Y-85655268D01*
X122992352Y-85655268D02*
X122930447Y-85717173D01*
X122930447Y-85717173D02*
X122806638Y-85779078D01*
X122806638Y-85779078D02*
X122497114Y-85779078D01*
X122497114Y-85779078D02*
X122373304Y-85717173D01*
X122373304Y-85717173D02*
X122311400Y-85655268D01*
X122311400Y-85655268D02*
X122249495Y-85531459D01*
X122249495Y-85531459D02*
X122249495Y-85160030D01*
X122249495Y-85160030D02*
X122311400Y-85036221D01*
X122311400Y-85036221D02*
X122373304Y-84974316D01*
X123549495Y-86150506D02*
X122249495Y-86583839D01*
X122249495Y-86583839D02*
X123549495Y-87017173D01*
X121473600Y-71368302D02*
X121535504Y-71182588D01*
X121535504Y-71182588D02*
X121535504Y-70873064D01*
X121535504Y-70873064D02*
X121473600Y-70749255D01*
X121473600Y-70749255D02*
X121411695Y-70687350D01*
X121411695Y-70687350D02*
X121287885Y-70625445D01*
X121287885Y-70625445D02*
X121164076Y-70625445D01*
X121164076Y-70625445D02*
X121040266Y-70687350D01*
X121040266Y-70687350D02*
X120978361Y-70749255D01*
X120978361Y-70749255D02*
X120916457Y-70873064D01*
X120916457Y-70873064D02*
X120854552Y-71120683D01*
X120854552Y-71120683D02*
X120792647Y-71244493D01*
X120792647Y-71244493D02*
X120730742Y-71306398D01*
X120730742Y-71306398D02*
X120606933Y-71368302D01*
X120606933Y-71368302D02*
X120483123Y-71368302D01*
X120483123Y-71368302D02*
X120359314Y-71306398D01*
X120359314Y-71306398D02*
X120297409Y-71244493D01*
X120297409Y-71244493D02*
X120235504Y-71120683D01*
X120235504Y-71120683D02*
X120235504Y-70811160D01*
X120235504Y-70811160D02*
X120297409Y-70625445D01*
X121411695Y-69325446D02*
X121473600Y-69387350D01*
X121473600Y-69387350D02*
X121535504Y-69573065D01*
X121535504Y-69573065D02*
X121535504Y-69696874D01*
X121535504Y-69696874D02*
X121473600Y-69882588D01*
X121473600Y-69882588D02*
X121349790Y-70006398D01*
X121349790Y-70006398D02*
X121225980Y-70068303D01*
X121225980Y-70068303D02*
X120978361Y-70130207D01*
X120978361Y-70130207D02*
X120792647Y-70130207D01*
X120792647Y-70130207D02*
X120545028Y-70068303D01*
X120545028Y-70068303D02*
X120421219Y-70006398D01*
X120421219Y-70006398D02*
X120297409Y-69882588D01*
X120297409Y-69882588D02*
X120235504Y-69696874D01*
X120235504Y-69696874D02*
X120235504Y-69573065D01*
X120235504Y-69573065D02*
X120297409Y-69387350D01*
X120297409Y-69387350D02*
X120359314Y-69325446D01*
X121535504Y-68149255D02*
X121535504Y-68768303D01*
X121535504Y-68768303D02*
X120235504Y-68768303D01*
D10*
X112066666Y-95294819D02*
X112066666Y-96009104D01*
X112066666Y-96009104D02*
X112019047Y-96151961D01*
X112019047Y-96151961D02*
X111923809Y-96247200D01*
X111923809Y-96247200D02*
X111780952Y-96294819D01*
X111780952Y-96294819D02*
X111685714Y-96294819D01*
X112971428Y-95628152D02*
X112971428Y-96294819D01*
X112733333Y-95247200D02*
X112495238Y-95961485D01*
X112495238Y-95961485D02*
X113114285Y-95961485D01*
X105846666Y-77002319D02*
X105846666Y-77716604D01*
X105846666Y-77716604D02*
X105799047Y-77859461D01*
X105799047Y-77859461D02*
X105703809Y-77954700D01*
X105703809Y-77954700D02*
X105560952Y-78002319D01*
X105560952Y-78002319D02*
X105465714Y-78002319D01*
X106227619Y-77002319D02*
X106846666Y-77002319D01*
X106846666Y-77002319D02*
X106513333Y-77383271D01*
X106513333Y-77383271D02*
X106656190Y-77383271D01*
X106656190Y-77383271D02*
X106751428Y-77430890D01*
X106751428Y-77430890D02*
X106799047Y-77478509D01*
X106799047Y-77478509D02*
X106846666Y-77573747D01*
X106846666Y-77573747D02*
X106846666Y-77811842D01*
X106846666Y-77811842D02*
X106799047Y-77907080D01*
X106799047Y-77907080D02*
X106751428Y-77954700D01*
X106751428Y-77954700D02*
X106656190Y-78002319D01*
X106656190Y-78002319D02*
X106370476Y-78002319D01*
X106370476Y-78002319D02*
X106275238Y-77954700D01*
X106275238Y-77954700D02*
X106227619Y-77907080D01*
D13*
%TO.C,J4*%
X119195000Y-94630000D02*
X119195000Y-95265000D01*
X118560000Y-94630000D02*
X119195000Y-94630000D01*
D14*
%TO.C,J1*%
X142600000Y-87500000D02*
X143200000Y-87500000D01*
X143195000Y-89600000D02*
X142605000Y-89600000D01*
X144200000Y-87500000D02*
X144800000Y-87500000D01*
D13*
%TO.C,C21*%
X145810000Y-91892164D02*
X145810000Y-92107836D01*
X145090000Y-91892164D02*
X145090000Y-92107836D01*
%TO.C,U2*%
X138440000Y-92170000D02*
X138440000Y-91070000D01*
X138440000Y-91070000D02*
X137240000Y-91070000D01*
X137240000Y-92770000D02*
X137840000Y-92770000D01*
X137240000Y-91070000D02*
X137240000Y-92770000D01*
%TO.C,U6*%
X141050000Y-92050000D02*
X140550000Y-92050000D01*
X140150000Y-91600000D02*
X140150000Y-90750000D01*
X140150000Y-90750000D02*
X141050000Y-90750000D01*
X141050000Y-90750000D02*
X141050000Y-92050000D01*
%TO.C,U4*%
X142770000Y-92560000D02*
X142770000Y-91400000D01*
X144030000Y-92400000D02*
X144030000Y-91400000D01*
%TO.C,U3*%
X137090000Y-92250000D02*
X137090000Y-91150000D01*
X137090000Y-91150000D02*
X135890000Y-91150000D01*
X135890000Y-92850000D02*
X136490000Y-92850000D01*
X135890000Y-91150000D02*
X135890000Y-92850000D01*
%TO.C,TP1*%
X138050000Y-88500000D02*
G75*
G03*
X138050000Y-88500000I-1450000J0D01*
G01*
%TO.C,C24*%
X149172164Y-90365000D02*
X149387836Y-90365000D01*
X149172164Y-91085000D02*
X149387836Y-91085000D01*
%TO.C,J3*%
X123580000Y-71767500D02*
X122580000Y-71767500D01*
X122580000Y-71767500D02*
X123080000Y-72767500D01*
X123080000Y-72767500D02*
X123580000Y-71767500D01*
X128290000Y-73157500D02*
X128290000Y-82277500D01*
X120050000Y-73157500D02*
X120050000Y-74467500D01*
X107710000Y-73157500D02*
X128290000Y-73157500D01*
X126990000Y-74467500D02*
X126990000Y-80967500D01*
X120050000Y-74467500D02*
X126990000Y-74467500D01*
X115950000Y-74467500D02*
X115950000Y-73157500D01*
X115950000Y-74467500D02*
X115950000Y-74467500D01*
X109010000Y-74467500D02*
X115950000Y-74467500D01*
X126990000Y-80967500D02*
X109010000Y-80967500D01*
X109010000Y-80967500D02*
X109010000Y-74467500D01*
X128290000Y-82277500D02*
X107710000Y-82277500D01*
X107710000Y-82277500D02*
X107710000Y-73157500D01*
%TO.C,D1*%
X150000000Y-91250000D02*
X149200000Y-91250000D01*
%TO.C,TP2*%
X150050000Y-88500000D02*
G75*
G03*
X150050000Y-88500000I-1450000J0D01*
G01*
%TD*%
M02*
