%TF.GenerationSoftware,KiCad,Pcbnew,7.0.6*%
%TF.CreationDate,2023-09-10T10:28:08-04:00*%
%TF.ProjectId,headstage-neuropix1e,68656164-7374-4616-9765-2d6e6575726f,B*%
%TF.SameCoordinates,Original*%
%TF.FileFunction,Legend,Bot*%
%TF.FilePolarity,Positive*%
%FSLAX46Y46*%
G04 Gerber Fmt 4.6, Leading zero omitted, Abs format (unit mm)*
G04 Created by KiCad (PCBNEW 7.0.6) date 2023-09-10 10:28:08*
%MOMM*%
%LPD*%
G01*
G04 APERTURE LIST*
%ADD10C,0.200000*%
%ADD11C,0.150000*%
%ADD12C,0.120000*%
G04 APERTURE END LIST*
D10*
X131100000Y-93000000D02*
X131100000Y-93400000D01*
D11*
X131007107Y-94700000D02*
G75*
G03*
X131007107Y-94700000I-707107J0D01*
G01*
X129407107Y-93307106D02*
G75*
G03*
X129407107Y-93307106I-707107J0D01*
G01*
X129407107Y-96500000D02*
G75*
G03*
X129407107Y-96500000I-707107J0D01*
G01*
D10*
X129900000Y-93200000D02*
X131400000Y-93200000D01*
X131000000Y-93600000D02*
X131400000Y-93200000D01*
X131400000Y-93200000D02*
X131000000Y-92800000D01*
X131000000Y-92800000D02*
X131000000Y-93600000D01*
D11*
X129407107Y-94900000D02*
G75*
G03*
X129407107Y-94900000I-707107J0D01*
G01*
D10*
X146666517Y-89154838D02*
X146761755Y-89107219D01*
X146761755Y-89107219D02*
X146904612Y-89107219D01*
X146904612Y-89107219D02*
X147047469Y-89154838D01*
X147047469Y-89154838D02*
X147142707Y-89250076D01*
X147142707Y-89250076D02*
X147190326Y-89345314D01*
X147190326Y-89345314D02*
X147237945Y-89535790D01*
X147237945Y-89535790D02*
X147237945Y-89678647D01*
X147237945Y-89678647D02*
X147190326Y-89869123D01*
X147190326Y-89869123D02*
X147142707Y-89964361D01*
X147142707Y-89964361D02*
X147047469Y-90059600D01*
X147047469Y-90059600D02*
X146904612Y-90107219D01*
X146904612Y-90107219D02*
X146809374Y-90107219D01*
X146809374Y-90107219D02*
X146666517Y-90059600D01*
X146666517Y-90059600D02*
X146618898Y-90011980D01*
X146618898Y-90011980D02*
X146618898Y-89678647D01*
X146618898Y-89678647D02*
X146809374Y-89678647D01*
X131130504Y-96722054D02*
X131130504Y-95979197D01*
X131130504Y-96350625D02*
X129830504Y-96350625D01*
X129830504Y-96350625D02*
X130016219Y-96226816D01*
X130016219Y-96226816D02*
X130140028Y-96103006D01*
X130140028Y-96103006D02*
X130201933Y-95979197D01*
X131006695Y-97279196D02*
X131068600Y-97341101D01*
X131068600Y-97341101D02*
X131130504Y-97279196D01*
X131130504Y-97279196D02*
X131068600Y-97217292D01*
X131068600Y-97217292D02*
X131006695Y-97279196D01*
X131006695Y-97279196D02*
X131130504Y-97279196D01*
X129954314Y-97836340D02*
X129892409Y-97898244D01*
X129892409Y-97898244D02*
X129830504Y-98022054D01*
X129830504Y-98022054D02*
X129830504Y-98331578D01*
X129830504Y-98331578D02*
X129892409Y-98455387D01*
X129892409Y-98455387D02*
X129954314Y-98517292D01*
X129954314Y-98517292D02*
X130078123Y-98579197D01*
X130078123Y-98579197D02*
X130201933Y-98579197D01*
X130201933Y-98579197D02*
X130387647Y-98517292D01*
X130387647Y-98517292D02*
X131130504Y-97774435D01*
X131130504Y-97774435D02*
X131130504Y-98579197D01*
X129830504Y-98950625D02*
X131130504Y-99383958D01*
X131130504Y-99383958D02*
X129830504Y-99817292D01*
X130759076Y-100188721D02*
X130759076Y-100807768D01*
X131130504Y-100064911D02*
X129830504Y-100498244D01*
X129830504Y-100498244D02*
X131130504Y-100931578D01*
X137466517Y-89654838D02*
X137561755Y-89607219D01*
X137561755Y-89607219D02*
X137704612Y-89607219D01*
X137704612Y-89607219D02*
X137847469Y-89654838D01*
X137847469Y-89654838D02*
X137942707Y-89750076D01*
X137942707Y-89750076D02*
X137990326Y-89845314D01*
X137990326Y-89845314D02*
X138037945Y-90035790D01*
X138037945Y-90035790D02*
X138037945Y-90178647D01*
X138037945Y-90178647D02*
X137990326Y-90369123D01*
X137990326Y-90369123D02*
X137942707Y-90464361D01*
X137942707Y-90464361D02*
X137847469Y-90559600D01*
X137847469Y-90559600D02*
X137704612Y-90607219D01*
X137704612Y-90607219D02*
X137609374Y-90607219D01*
X137609374Y-90607219D02*
X137466517Y-90559600D01*
X137466517Y-90559600D02*
X137418898Y-90511980D01*
X137418898Y-90511980D02*
X137418898Y-90178647D01*
X137418898Y-90178647D02*
X137609374Y-90178647D01*
X126577945Y-95530504D02*
X127320802Y-95530504D01*
X126949374Y-95530504D02*
X126949374Y-94230504D01*
X126949374Y-94230504D02*
X127073183Y-94416219D01*
X127073183Y-94416219D02*
X127196993Y-94540028D01*
X127196993Y-94540028D02*
X127320802Y-94601933D01*
X126020803Y-95406695D02*
X125958898Y-95468600D01*
X125958898Y-95468600D02*
X126020803Y-95530504D01*
X126020803Y-95530504D02*
X126082707Y-95468600D01*
X126082707Y-95468600D02*
X126020803Y-95406695D01*
X126020803Y-95406695D02*
X126020803Y-95530504D01*
X125463659Y-94354314D02*
X125401755Y-94292409D01*
X125401755Y-94292409D02*
X125277945Y-94230504D01*
X125277945Y-94230504D02*
X124968421Y-94230504D01*
X124968421Y-94230504D02*
X124844612Y-94292409D01*
X124844612Y-94292409D02*
X124782707Y-94354314D01*
X124782707Y-94354314D02*
X124720802Y-94478123D01*
X124720802Y-94478123D02*
X124720802Y-94601933D01*
X124720802Y-94601933D02*
X124782707Y-94787647D01*
X124782707Y-94787647D02*
X125525564Y-95530504D01*
X125525564Y-95530504D02*
X124720802Y-95530504D01*
X124349374Y-94230504D02*
X123916041Y-95530504D01*
X123916041Y-95530504D02*
X123482707Y-94230504D01*
X126577945Y-93630504D02*
X127320802Y-93630504D01*
X126949374Y-93630504D02*
X126949374Y-92330504D01*
X126949374Y-92330504D02*
X127073183Y-92516219D01*
X127073183Y-92516219D02*
X127196993Y-92640028D01*
X127196993Y-92640028D02*
X127320802Y-92701933D01*
X126020803Y-93506695D02*
X125958898Y-93568600D01*
X125958898Y-93568600D02*
X126020803Y-93630504D01*
X126020803Y-93630504D02*
X126082707Y-93568600D01*
X126082707Y-93568600D02*
X126020803Y-93506695D01*
X126020803Y-93506695D02*
X126020803Y-93630504D01*
X125216040Y-92887647D02*
X125339850Y-92825742D01*
X125339850Y-92825742D02*
X125401755Y-92763838D01*
X125401755Y-92763838D02*
X125463659Y-92640028D01*
X125463659Y-92640028D02*
X125463659Y-92578123D01*
X125463659Y-92578123D02*
X125401755Y-92454314D01*
X125401755Y-92454314D02*
X125339850Y-92392409D01*
X125339850Y-92392409D02*
X125216040Y-92330504D01*
X125216040Y-92330504D02*
X124968421Y-92330504D01*
X124968421Y-92330504D02*
X124844612Y-92392409D01*
X124844612Y-92392409D02*
X124782707Y-92454314D01*
X124782707Y-92454314D02*
X124720802Y-92578123D01*
X124720802Y-92578123D02*
X124720802Y-92640028D01*
X124720802Y-92640028D02*
X124782707Y-92763838D01*
X124782707Y-92763838D02*
X124844612Y-92825742D01*
X124844612Y-92825742D02*
X124968421Y-92887647D01*
X124968421Y-92887647D02*
X125216040Y-92887647D01*
X125216040Y-92887647D02*
X125339850Y-92949552D01*
X125339850Y-92949552D02*
X125401755Y-93011457D01*
X125401755Y-93011457D02*
X125463659Y-93135266D01*
X125463659Y-93135266D02*
X125463659Y-93382885D01*
X125463659Y-93382885D02*
X125401755Y-93506695D01*
X125401755Y-93506695D02*
X125339850Y-93568600D01*
X125339850Y-93568600D02*
X125216040Y-93630504D01*
X125216040Y-93630504D02*
X124968421Y-93630504D01*
X124968421Y-93630504D02*
X124844612Y-93568600D01*
X124844612Y-93568600D02*
X124782707Y-93506695D01*
X124782707Y-93506695D02*
X124720802Y-93382885D01*
X124720802Y-93382885D02*
X124720802Y-93135266D01*
X124720802Y-93135266D02*
X124782707Y-93011457D01*
X124782707Y-93011457D02*
X124844612Y-92949552D01*
X124844612Y-92949552D02*
X124968421Y-92887647D01*
X124349374Y-92330504D02*
X123916041Y-93630504D01*
X123916041Y-93630504D02*
X123482707Y-92330504D01*
X123111278Y-93259076D02*
X122492231Y-93259076D01*
X123235088Y-93630504D02*
X122801755Y-92330504D01*
X122801755Y-92330504D02*
X122368421Y-93630504D01*
X126577945Y-97430504D02*
X127320802Y-97430504D01*
X126949374Y-97430504D02*
X126949374Y-96130504D01*
X126949374Y-96130504D02*
X127073183Y-96316219D01*
X127073183Y-96316219D02*
X127196993Y-96440028D01*
X127196993Y-96440028D02*
X127320802Y-96501933D01*
X126020803Y-97306695D02*
X125958898Y-97368600D01*
X125958898Y-97368600D02*
X126020803Y-97430504D01*
X126020803Y-97430504D02*
X126082707Y-97368600D01*
X126082707Y-97368600D02*
X126020803Y-97306695D01*
X126020803Y-97306695D02*
X126020803Y-97430504D01*
X125216040Y-96687647D02*
X125339850Y-96625742D01*
X125339850Y-96625742D02*
X125401755Y-96563838D01*
X125401755Y-96563838D02*
X125463659Y-96440028D01*
X125463659Y-96440028D02*
X125463659Y-96378123D01*
X125463659Y-96378123D02*
X125401755Y-96254314D01*
X125401755Y-96254314D02*
X125339850Y-96192409D01*
X125339850Y-96192409D02*
X125216040Y-96130504D01*
X125216040Y-96130504D02*
X124968421Y-96130504D01*
X124968421Y-96130504D02*
X124844612Y-96192409D01*
X124844612Y-96192409D02*
X124782707Y-96254314D01*
X124782707Y-96254314D02*
X124720802Y-96378123D01*
X124720802Y-96378123D02*
X124720802Y-96440028D01*
X124720802Y-96440028D02*
X124782707Y-96563838D01*
X124782707Y-96563838D02*
X124844612Y-96625742D01*
X124844612Y-96625742D02*
X124968421Y-96687647D01*
X124968421Y-96687647D02*
X125216040Y-96687647D01*
X125216040Y-96687647D02*
X125339850Y-96749552D01*
X125339850Y-96749552D02*
X125401755Y-96811457D01*
X125401755Y-96811457D02*
X125463659Y-96935266D01*
X125463659Y-96935266D02*
X125463659Y-97182885D01*
X125463659Y-97182885D02*
X125401755Y-97306695D01*
X125401755Y-97306695D02*
X125339850Y-97368600D01*
X125339850Y-97368600D02*
X125216040Y-97430504D01*
X125216040Y-97430504D02*
X124968421Y-97430504D01*
X124968421Y-97430504D02*
X124844612Y-97368600D01*
X124844612Y-97368600D02*
X124782707Y-97306695D01*
X124782707Y-97306695D02*
X124720802Y-97182885D01*
X124720802Y-97182885D02*
X124720802Y-96935266D01*
X124720802Y-96935266D02*
X124782707Y-96811457D01*
X124782707Y-96811457D02*
X124844612Y-96749552D01*
X124844612Y-96749552D02*
X124968421Y-96687647D01*
X124349374Y-96130504D02*
X123916041Y-97430504D01*
X123916041Y-97430504D02*
X123482707Y-96130504D01*
D12*
%TO.C,L2*%
X145149622Y-89060000D02*
X144350378Y-89060000D01*
X145149622Y-87940000D02*
X144350378Y-87940000D01*
%TO.C,TP5*%
X135760000Y-92680000D02*
G75*
G03*
X135760000Y-92680000I-400000J0D01*
G01*
%TO.C,U1*%
X139750000Y-93230000D02*
X139750000Y-93230000D01*
%TO.C,U8*%
X141500000Y-92700000D02*
X141500000Y-92700000D01*
%TO.C,U9*%
X136390000Y-94290000D02*
X136390000Y-94550000D01*
X136390000Y-94290000D02*
X136650000Y-94290000D01*
X136390000Y-98310000D02*
X136650000Y-98310000D01*
X141810000Y-94290000D02*
X141550000Y-94290000D01*
X141810000Y-94290000D02*
X141810000Y-94550000D01*
X141810000Y-98310000D02*
X141550000Y-98310000D01*
X141810000Y-98310000D02*
X141810000Y-98050000D01*
%TO.C,C6*%
X139550000Y-91822164D02*
X139550000Y-92037836D01*
X138830000Y-91822164D02*
X138830000Y-92037836D01*
%TO.C,TP6*%
X136720000Y-93550000D02*
G75*
G03*
X136720000Y-93550000I-400000J0D01*
G01*
%TO.C,TP3*%
X135770000Y-94500000D02*
G75*
G03*
X135770000Y-94500000I-400000J0D01*
G01*
%TO.C,C18*%
X144540000Y-90707836D02*
X144540000Y-90492164D01*
X145260000Y-90707836D02*
X145260000Y-90492164D01*
%TO.C,TP4*%
X135770000Y-93600000D02*
G75*
G03*
X135770000Y-93600000I-400000J0D01*
G01*
%TO.C,C3*%
X140510000Y-92017836D02*
X140510000Y-91802164D01*
X141230000Y-92017836D02*
X141230000Y-91802164D01*
%TO.C,U5*%
X144650000Y-91800000D02*
X144650000Y-92000000D01*
X144650000Y-91800000D02*
X144850000Y-91800000D01*
X144650000Y-96650001D02*
X144650000Y-97200000D01*
X144650000Y-97200000D02*
X145225000Y-97200000D01*
X149850000Y-91800000D02*
X150050000Y-91800000D01*
X149850000Y-97200000D02*
X150050000Y-97200000D01*
X150050000Y-91800000D02*
X150050000Y-92000000D01*
X150050000Y-97000000D02*
X150050000Y-97200000D01*
%TO.C,L1*%
X139997936Y-87140000D02*
X141202064Y-87140000D01*
X139997936Y-89860000D02*
X141202064Y-89860000D01*
%TD*%
M02*
