%TF.GenerationSoftware,KiCad,Pcbnew,(7.0.0)*%
%TF.CreationDate,2023-07-09T20:13:22-04:00*%
%TF.ProjectId,headstage-neuropix1e,68656164-7374-4616-9765-2d6e6575726f,A*%
%TF.SameCoordinates,Original*%
%TF.FileFunction,Copper,L3,Inr*%
%TF.FilePolarity,Positive*%
%FSLAX46Y46*%
G04 Gerber Fmt 4.6, Leading zero omitted, Abs format (unit mm)*
G04 Created by KiCad (PCBNEW (7.0.0)) date 2023-07-09 20:13:22*
%MOMM*%
%LPD*%
G01*
G04 APERTURE LIST*
G04 Aperture macros list*
%AMRoundRect*
0 Rectangle with rounded corners*
0 $1 Rounding radius*
0 $2 $3 $4 $5 $6 $7 $8 $9 X,Y pos of 4 corners*
0 Add a 4 corners polygon primitive as box body*
4,1,4,$2,$3,$4,$5,$6,$7,$8,$9,$2,$3,0*
0 Add four circle primitives for the rounded corners*
1,1,$1+$1,$2,$3*
1,1,$1+$1,$4,$5*
1,1,$1+$1,$6,$7*
1,1,$1+$1,$8,$9*
0 Add four rect primitives between the rounded corners*
20,1,$1+$1,$2,$3,$4,$5,0*
20,1,$1+$1,$4,$5,$6,$7,0*
20,1,$1+$1,$6,$7,$8,$9,0*
20,1,$1+$1,$8,$9,$2,$3,0*%
G04 Aperture macros list end*
%TA.AperFunction,ComponentPad*%
%ADD10C,2.500000*%
%TD*%
%TA.AperFunction,ComponentPad*%
%ADD11RoundRect,0.250000X-0.600000X0.600000X-0.600000X-0.600000X0.600000X-0.600000X0.600000X0.600000X0*%
%TD*%
%TA.AperFunction,ComponentPad*%
%ADD12C,1.700000*%
%TD*%
%TA.AperFunction,ViaPad*%
%ADD13C,0.200000*%
%TD*%
%TA.AperFunction,ViaPad*%
%ADD14C,0.300000*%
%TD*%
%TA.AperFunction,ViaPad*%
%ADD15C,0.250000*%
%TD*%
%TA.AperFunction,Conductor*%
%ADD16C,0.100000*%
%TD*%
%TA.AperFunction,Conductor*%
%ADD17C,0.200000*%
%TD*%
G04 APERTURE END LIST*
D10*
%TO.N,GND*%
%TO.C,TP1*%
X136600000Y-88500000D03*
%TD*%
D11*
%TO.N,+4V*%
%TO.C,J3*%
X123080000Y-76447500D03*
D12*
X123080000Y-78987500D03*
%TO.N,/Neuropixels 1.0/SCL*%
X120540000Y-76447500D03*
X120540000Y-78987500D03*
%TO.N,/Neuropixels 1.0/SDA*%
X118000000Y-76447500D03*
X118000000Y-78987500D03*
%TO.N,GND*%
X115460000Y-76447500D03*
X115460000Y-78987500D03*
X112920000Y-76447500D03*
X112920000Y-78987500D03*
%TD*%
D10*
%TO.N,GND*%
%TO.C,TP2*%
X148600000Y-88500000D03*
%TD*%
D13*
%TO.N,GND*%
X147590000Y-94240000D03*
X147020000Y-96330000D03*
%TO.N,/Neuropixels 1.0/SYNC*%
X142000000Y-97300000D03*
X145427513Y-96049500D03*
D14*
%TO.N,GND*%
X146990000Y-95640000D03*
D13*
X138560000Y-97170000D03*
D14*
X104670000Y-77610000D03*
X152750000Y-106940000D03*
D13*
X140697383Y-92107850D03*
D14*
X144416061Y-81338202D03*
X130400000Y-83630000D03*
X135160000Y-95280000D03*
X156300000Y-121900000D03*
D13*
X141900000Y-94100000D03*
D14*
X140600000Y-95600000D03*
X144570000Y-97999000D03*
X140500000Y-96250000D03*
X129640000Y-110300000D03*
X135910000Y-93110000D03*
X144350000Y-92150000D03*
X144800000Y-92380500D03*
X137500000Y-95710000D03*
D13*
X148340000Y-95010000D03*
D14*
X135580000Y-98500000D03*
X106460000Y-93330000D03*
X137380000Y-106710000D03*
D13*
X144900000Y-90200000D03*
D14*
X144700000Y-87450000D03*
X135640000Y-73600000D03*
X135200000Y-97200000D03*
D13*
X146950000Y-89250000D03*
X140050000Y-92150000D03*
D14*
X141050000Y-87000000D03*
D13*
X136500000Y-91650000D03*
X137650000Y-91650000D03*
D14*
X146500000Y-93600000D03*
D13*
X142400000Y-95600000D03*
X149282373Y-93452308D03*
D14*
X150520000Y-80190000D03*
D13*
X145950000Y-94700000D03*
X146450000Y-89150000D03*
D14*
X138000000Y-89850000D03*
D13*
X140038769Y-92979457D03*
D14*
X150000000Y-96750000D03*
X155510000Y-95710000D03*
X106760000Y-112810000D03*
X149850000Y-98400000D03*
D13*
X147850000Y-96380000D03*
D14*
X147700000Y-93450000D03*
X147580000Y-95640000D03*
D13*
X142900000Y-95450000D03*
X141541598Y-92175102D03*
X142630000Y-97340000D03*
D14*
X136080000Y-94520000D03*
X126680000Y-71747500D03*
X135200000Y-89780000D03*
X156700000Y-69100000D03*
X155800000Y-87500000D03*
D13*
X148800000Y-92950500D03*
X137000000Y-91550000D03*
X146800000Y-90050000D03*
D14*
X139950000Y-97000000D03*
X143000000Y-87400000D03*
X146120000Y-95699500D03*
D13*
X142501424Y-92851424D03*
X145950000Y-90100000D03*
X145350000Y-89500000D03*
X145780000Y-96290000D03*
X143753672Y-96504673D03*
D14*
X135890000Y-90120000D03*
D13*
X148100000Y-90000000D03*
D14*
X139050000Y-96510000D03*
X107600000Y-104500000D03*
X148150000Y-97670000D03*
X146940000Y-87070000D03*
X103100000Y-122100000D03*
X145266637Y-78141210D03*
X149700000Y-89900000D03*
X143524500Y-93600000D03*
D13*
X146400000Y-90050000D03*
D14*
X137470000Y-97000000D03*
X136910000Y-80250000D03*
X144777996Y-96949500D03*
D13*
X141097653Y-92999500D03*
D14*
X145570000Y-87160000D03*
D13*
X144250000Y-90250000D03*
D14*
X105450000Y-70470000D03*
X137520000Y-96370000D03*
X143800000Y-86950000D03*
X117520000Y-69930000D03*
D13*
X141210000Y-94430000D03*
D14*
X145200000Y-72300000D03*
X154200000Y-101500000D03*
X135190000Y-96310000D03*
D13*
X141100000Y-91600000D03*
D14*
X103900000Y-84800000D03*
D13*
X147400000Y-89550000D03*
D14*
X128400000Y-101000000D03*
X143341779Y-96106321D03*
D13*
X136850000Y-94637500D03*
D14*
X139210000Y-95770000D03*
X114560000Y-86760000D03*
X137490000Y-94010000D03*
X138150000Y-87100000D03*
D13*
%TO.N,+1V8*%
X146700000Y-91550000D03*
D14*
X135150000Y-97900000D03*
X140387638Y-93000500D03*
D13*
X149899500Y-97550000D03*
D14*
X142662961Y-91089404D03*
D13*
X135150500Y-93600000D03*
X140250000Y-92550000D03*
D14*
%TO.N,+1.2VA*%
X137800000Y-93000000D03*
X138100000Y-97150000D03*
D13*
%TO.N,Net-(D1-K)*%
X149500500Y-92050000D03*
X148790466Y-90190500D03*
%TO.N,Net-(U2-EN2)*%
X137750000Y-90700000D03*
X135400000Y-91600000D03*
%TO.N,+4V*%
X141200000Y-91250000D03*
X139475700Y-87735000D03*
D14*
X120200000Y-94945000D03*
D13*
X139475700Y-89265000D03*
D14*
X137112184Y-92917916D03*
D13*
X139842554Y-91298776D03*
%TO.N,Net-(U5--)*%
X140800000Y-90799500D03*
%TO.N,/Neuropixels 1.0/MCLK*%
X146094334Y-98375018D03*
%TO.N,/Neuropixels 1.0/CAL_SIGNAL*%
X138750000Y-91900000D03*
X139000000Y-97150000D03*
%TO.N,/DC Tap & Regulation/RF+DC*%
X143800000Y-89575000D03*
D14*
X145812500Y-89600000D03*
D13*
%TO.N,/DC Tap & Regulation/VA_{EN}*%
X142793180Y-92745908D03*
X141500000Y-95223498D03*
X140473576Y-97223576D03*
%TO.N,/Neuropixels 1.0/NP_{~{MUXRST}}*%
X148391059Y-92750500D03*
X140600000Y-94100000D03*
%TO.N,/Neuropixels 1.0/SDA*%
X142476943Y-90250500D03*
X142350000Y-92243279D03*
X144050000Y-94250000D03*
X141250000Y-90099500D03*
D14*
X123200000Y-92000000D03*
D13*
X140850000Y-97200000D03*
X142050000Y-94400000D03*
D14*
X123210000Y-96120000D03*
%TO.N,/Neuropixels 1.0/SCL*%
X118000000Y-97340000D03*
D13*
X145550000Y-94700000D03*
X142200000Y-90025700D03*
X142249500Y-97050000D03*
X142450000Y-91850000D03*
X139300000Y-90050500D03*
%TO.N,/Neuropixels 1.0/D6*%
X149200000Y-95250001D03*
X142300000Y-94100000D03*
%TO.N,/Neuropixels 1.0/D5*%
X142900000Y-93600000D03*
X149200000Y-94750000D03*
%TO.N,/Neuropixels 1.0/D4*%
X143715371Y-95961576D03*
X149200000Y-95750000D03*
%TO.N,/Neuropixels 1.0/D3*%
X144216176Y-96759753D03*
X149200000Y-96250000D03*
%TO.N,/Neuropixels 1.0/D2*%
X144339602Y-94000500D03*
X149200000Y-94250000D03*
%TO.N,/Neuropixels 1.0/D1*%
X149249502Y-93750000D03*
X144506823Y-93513173D03*
%TO.N,/Neuropixels 1.0/D0*%
X148550000Y-96400000D03*
X144872987Y-97285846D03*
%TO.N,/Neuropixels 1.0/PCLK*%
X144300000Y-95550000D03*
X144507194Y-97170449D03*
%TO.N,/Perpherials/GPIO0*%
X139850000Y-87050000D03*
X149150000Y-92250000D03*
%TO.N,/Perpherials/GPIO1*%
X149290000Y-91150000D03*
X140200000Y-87050000D03*
%TO.N,Net-(R12-Pad1)*%
X140036779Y-90836779D03*
X141250000Y-90850000D03*
X138900000Y-92900000D03*
D14*
%TO.N,+1.8VA*%
X136450000Y-92950000D03*
X136509592Y-97495740D03*
X147500000Y-92700500D03*
X138300500Y-90750000D03*
D13*
X139850500Y-90599500D03*
D15*
%TO.N,/Serializer/Dout-*%
X146874500Y-90600000D03*
D13*
%TO.N,Net-(U4-GPIO3{slash}CLKIN)*%
X149151002Y-92950500D03*
X149312724Y-90439717D03*
%TO.N,/Neuropixels 1.0/DCLK*%
X144970177Y-96278055D03*
X145420000Y-97699500D03*
%TO.N,Net-(#FLG04-pwr)*%
X147950000Y-91976277D03*
%TD*%
D16*
%TO.N,/Neuropixels 1.0/SYNC*%
X143651779Y-96220000D02*
X143326779Y-96545000D01*
X142245000Y-96545000D02*
X142000000Y-96790000D01*
X144309057Y-96020000D02*
X144109057Y-96220000D01*
X145427513Y-96049500D02*
X145398013Y-96020000D01*
X145398013Y-96020000D02*
X144309057Y-96020000D01*
X142000000Y-96790000D02*
X142000000Y-97300000D01*
X144109057Y-96220000D02*
X143651779Y-96220000D01*
X143326779Y-96545000D02*
X142245000Y-96545000D01*
%TO.N,/Neuropixels 1.0/D4*%
X147700500Y-95999500D02*
X147950000Y-95750000D01*
X147950000Y-95750000D02*
X149200000Y-95750000D01*
X145796234Y-95800000D02*
X145995735Y-95999500D01*
X145995735Y-95999500D02*
X147700500Y-95999500D01*
X143876947Y-95800000D02*
X145796234Y-95800000D01*
X143715371Y-95961576D02*
X143876947Y-95800000D01*
D17*
%TO.N,+1V8*%
X138950000Y-97900000D02*
X139400000Y-97450000D01*
X139850000Y-93950000D02*
X140387638Y-93412362D01*
X135150000Y-97900000D02*
X138950000Y-97900000D01*
X139850000Y-96250000D02*
X139850000Y-93950000D01*
X142662961Y-91089404D02*
X142203031Y-91089404D01*
D16*
X135500000Y-97550000D02*
X135150000Y-97900000D01*
D17*
X140387638Y-93412362D02*
X140387638Y-93000500D01*
X142203031Y-91089404D02*
X140387638Y-92904797D01*
X139400000Y-97450000D02*
X139400000Y-96700000D01*
D16*
X135150500Y-93600000D02*
X135500000Y-93949500D01*
D17*
X139400000Y-96700000D02*
X139850000Y-96250000D01*
D16*
X135500000Y-93949500D02*
X135500000Y-97550000D01*
D17*
X140387638Y-92904797D02*
X140387638Y-93000500D01*
%TO.N,+1.2VA*%
X138100000Y-93300000D02*
X137800000Y-93000000D01*
X138100000Y-97150000D02*
X138100000Y-93300000D01*
D16*
%TO.N,Net-(D1-K)*%
X148790466Y-90270466D02*
X148790466Y-90190500D01*
X149570000Y-91980500D02*
X149570000Y-91050000D01*
X149500500Y-92050000D02*
X149570000Y-91980500D01*
X149570000Y-91050000D02*
X148790466Y-90270466D01*
%TO.N,Net-(U2-EN2)*%
X137750000Y-90950000D02*
X137500000Y-91200000D01*
X135800000Y-91200000D02*
X135400000Y-91600000D01*
X137750000Y-90700000D02*
X137750000Y-90950000D01*
X137500000Y-91200000D02*
X135800000Y-91200000D01*
%TO.N,+4V*%
X139842554Y-91298776D02*
X139891330Y-91250000D01*
X139891330Y-91250000D02*
X141200000Y-91250000D01*
%TO.N,/Neuropixels 1.0/CAL_SIGNAL*%
X138550000Y-93600000D02*
X138630000Y-93680000D01*
X138750000Y-91900000D02*
X138550000Y-92100000D01*
X138550000Y-92100000D02*
X138550000Y-93600000D01*
X138630000Y-96780000D02*
X139000000Y-97150000D01*
X138630000Y-93680000D02*
X138630000Y-96780000D01*
%TO.N,/DC Tap & Regulation/VA_{EN}*%
X141500000Y-94050000D02*
X142448576Y-93101424D01*
X142448576Y-93101424D02*
X142604978Y-93101424D01*
X141500000Y-95223498D02*
X141500000Y-94050000D01*
X141500000Y-96050000D02*
X141500000Y-95223498D01*
X140473576Y-97076424D02*
X141500000Y-96050000D01*
X140473576Y-97223576D02*
X140473576Y-97076424D01*
X142793180Y-92913222D02*
X142793180Y-92745908D01*
X142604978Y-93101424D02*
X142793180Y-92913222D01*
%TO.N,/Neuropixels 1.0/NP_{~{MUXRST}}*%
X143100000Y-91400000D02*
X142400000Y-91400000D01*
X148391059Y-92808941D02*
X148050000Y-93150000D01*
X148050000Y-93150000D02*
X147575735Y-93150000D01*
X148391059Y-92750500D02*
X148391059Y-92808941D01*
X147425735Y-93300000D02*
X146100000Y-93300000D01*
X146100000Y-93300000D02*
X145600000Y-92800000D01*
X147575735Y-93150000D02*
X147425735Y-93300000D01*
X142400000Y-91400000D02*
X142000000Y-91800000D01*
X142000000Y-91800000D02*
X142000000Y-92700000D01*
X144500000Y-92800000D02*
X143100000Y-91400000D01*
X142000000Y-92700000D02*
X140600000Y-94100000D01*
X145600000Y-92800000D02*
X144500000Y-92800000D01*
%TO.N,/Neuropixels 1.0/SDA*%
X140850000Y-97200000D02*
X142100000Y-95950000D01*
D17*
X118000000Y-76447500D02*
X118000000Y-78987500D01*
X123210000Y-96120000D02*
X123240000Y-96120000D01*
D16*
X131900000Y-91500000D02*
X132585995Y-91500000D01*
D17*
X118000000Y-78987500D02*
X123200000Y-84187500D01*
X123240000Y-96120000D02*
X127860000Y-91500000D01*
D16*
X137200000Y-90800000D02*
X137575000Y-90425000D01*
X142100000Y-95950000D02*
X142100000Y-94450000D01*
X132585995Y-91500000D02*
X132658167Y-91427828D01*
X134022396Y-91427828D02*
X134094568Y-91500000D01*
D17*
X123200000Y-84187500D02*
X123200000Y-92000000D01*
D16*
X132658167Y-91427828D02*
X134022396Y-91427828D01*
X137575000Y-90425000D02*
X139525000Y-90425000D01*
X135000000Y-91500000D02*
X135700000Y-90800000D01*
X141250000Y-90099500D02*
X139850500Y-90099500D01*
X142476943Y-90250500D02*
X142427443Y-90300000D01*
D17*
X127860000Y-91500000D02*
X131900000Y-91500000D01*
D16*
X142100000Y-94450000D02*
X142050000Y-94400000D01*
X142427443Y-90300000D02*
X141550000Y-90300000D01*
X134094568Y-91500000D02*
X135000000Y-91500000D01*
X139525000Y-90425000D02*
X139850500Y-90099500D01*
X141349500Y-90099500D02*
X141550000Y-90300000D01*
X141250000Y-90099500D02*
X141349500Y-90099500D01*
X135700000Y-90800000D02*
X137200000Y-90800000D01*
%TO.N,/Neuropixels 1.0/SCL*%
X137300000Y-90200000D02*
X139150500Y-90200000D01*
X133829071Y-90800000D02*
X135300000Y-90800000D01*
X142024300Y-89850000D02*
X142200000Y-90025700D01*
D17*
X131900000Y-90600000D02*
X127100000Y-90600000D01*
D16*
X139500500Y-89850000D02*
X142024300Y-89850000D01*
X133802348Y-90826723D02*
X133829071Y-90800000D01*
X143225000Y-92575000D02*
X142500000Y-91850000D01*
X135300000Y-90800000D02*
X135600000Y-90500000D01*
D17*
X127100000Y-85547500D02*
X127100000Y-90600000D01*
D16*
X137000000Y-90500000D02*
X137300000Y-90200000D01*
X145550000Y-94700000D02*
X145375000Y-94525000D01*
D17*
X127100000Y-90600000D02*
X120860000Y-96840000D01*
X120540000Y-78987500D02*
X127100000Y-85547500D01*
D16*
X143225000Y-93825000D02*
X143225000Y-92575000D01*
D17*
X119200000Y-96840000D02*
X118700000Y-97340000D01*
X120860000Y-96840000D02*
X119200000Y-96840000D01*
X120540000Y-76447500D02*
X120540000Y-78987500D01*
D16*
X139150500Y-90200000D02*
X139300000Y-90050500D01*
X143925000Y-94525000D02*
X143225000Y-93825000D01*
X139300000Y-90050500D02*
X139500500Y-89850000D01*
X131900000Y-90600000D02*
X132200000Y-90600000D01*
X132426723Y-90826723D02*
X133802348Y-90826723D01*
X135600000Y-90500000D02*
X137000000Y-90500000D01*
X142500000Y-91850000D02*
X142450000Y-91850000D01*
X145375000Y-94525000D02*
X143925000Y-94525000D01*
X132200000Y-90600000D02*
X132426723Y-90826723D01*
D17*
X118000000Y-97340000D02*
X118700000Y-97340000D01*
D16*
%TO.N,/Neuropixels 1.0/D6*%
X142300000Y-94190000D02*
X142300000Y-94100000D01*
X142640000Y-94530000D02*
X143410000Y-95300000D01*
X143410000Y-95300000D02*
X145890000Y-95300000D01*
X142640000Y-94530000D02*
X142300000Y-94190000D01*
X149150001Y-95300000D02*
X149200000Y-95250001D01*
X147950000Y-95300000D02*
X149150001Y-95300000D01*
X147950000Y-95300000D02*
X145890000Y-95300000D01*
%TO.N,/Neuropixels 1.0/D5*%
X143650000Y-95000000D02*
X142900000Y-94250000D01*
X149350000Y-94800000D02*
X149300000Y-94750000D01*
X149250000Y-95000000D02*
X149350000Y-94900000D01*
X148600000Y-94750000D02*
X148850000Y-95000000D01*
X144500000Y-95000000D02*
X143650000Y-95000000D01*
X148000000Y-94750000D02*
X148600000Y-94750000D01*
X142900000Y-94250000D02*
X142900000Y-93600000D01*
X149300000Y-94750000D02*
X149200000Y-94750000D01*
X144500000Y-95000000D02*
X146225000Y-95000000D01*
X148000000Y-94750000D02*
X147680000Y-95070000D01*
X147680000Y-95070000D02*
X146295000Y-95070000D01*
X149350000Y-94900000D02*
X149350000Y-94800000D01*
X146295000Y-95070000D02*
X146225000Y-95000000D01*
X148850000Y-95000000D02*
X149250000Y-95000000D01*
%TO.N,/Neuropixels 1.0/D3*%
X147850000Y-97500000D02*
X146900000Y-97500000D01*
X148150000Y-97200000D02*
X147850000Y-97500000D01*
X148150000Y-96300000D02*
X148150000Y-97200000D01*
X144345929Y-96630000D02*
X144216176Y-96759753D01*
X148350000Y-96100000D02*
X148150000Y-96300000D01*
X145150000Y-96630000D02*
X144345929Y-96630000D01*
X146900000Y-97500000D02*
X146030000Y-96630000D01*
X146030000Y-96630000D02*
X145150000Y-96630000D01*
X149200000Y-96250000D02*
X149050000Y-96100000D01*
X149050000Y-96100000D02*
X148350000Y-96100000D01*
%TO.N,/Neuropixels 1.0/D2*%
X146575000Y-94800000D02*
X145775500Y-94000500D01*
X148700000Y-94250000D02*
X148600000Y-94150000D01*
X149500000Y-94500000D02*
X148950000Y-94500000D01*
X149850000Y-94600000D02*
X149600000Y-94600000D01*
X147400000Y-94800000D02*
X146575000Y-94800000D01*
X149950000Y-94500000D02*
X149950000Y-94350000D01*
X149300000Y-94150000D02*
X149750000Y-94150000D01*
X148050000Y-94150000D02*
X147950000Y-94250000D01*
X149750000Y-94150000D02*
X149925000Y-94325000D01*
X149950000Y-94500000D02*
X149850000Y-94600000D01*
X149600000Y-94600000D02*
X149500000Y-94500000D01*
X145775500Y-94000500D02*
X144339602Y-94000500D01*
X148950000Y-94500000D02*
X148700000Y-94250000D01*
X148600000Y-94150000D02*
X148050000Y-94150000D01*
X147950000Y-94250000D02*
X147400000Y-94800000D01*
X149950000Y-94350000D02*
X149925000Y-94325000D01*
X149200000Y-94250000D02*
X149300000Y-94150000D01*
%TO.N,/Neuropixels 1.0/D1*%
X149725000Y-93325000D02*
X149600000Y-93200000D01*
X149600000Y-93750000D02*
X149725000Y-93625000D01*
X144250000Y-93150000D02*
X144150000Y-93250000D01*
X148750000Y-93200000D02*
X149600000Y-93200000D01*
X145450000Y-93150000D02*
X144250000Y-93150000D01*
X144150000Y-93250000D02*
X144150000Y-93400000D01*
X144250000Y-93500000D02*
X144493650Y-93500000D01*
X149725000Y-93625000D02*
X149725000Y-93325000D01*
X148100000Y-93850000D02*
X148750000Y-93200000D01*
X149249502Y-93750000D02*
X149600000Y-93750000D01*
X147600000Y-93850000D02*
X147100000Y-94350000D01*
X146650000Y-94350000D02*
X145450000Y-93150000D01*
X147600000Y-93850000D02*
X148100000Y-93850000D01*
X144150000Y-93400000D02*
X144250000Y-93500000D01*
X144493650Y-93500000D02*
X144506823Y-93513173D01*
X147100000Y-94350000D02*
X146650000Y-94350000D01*
%TO.N,/Neuropixels 1.0/D0*%
X146035346Y-97285846D02*
X144872987Y-97285846D01*
X148850000Y-96700000D02*
X149400000Y-96700000D01*
X148550000Y-96400000D02*
X148850000Y-96700000D01*
X149400000Y-96700000D02*
X149540000Y-96840000D01*
X149230000Y-98050000D02*
X146799500Y-98050000D01*
X149540000Y-96840000D02*
X149540000Y-97740000D01*
X146799500Y-98050000D02*
X146035346Y-97285846D01*
X149540000Y-97740000D02*
X149230000Y-98050000D01*
%TO.N,/Perpherials/GPIO0*%
X144603554Y-91000000D02*
X143900000Y-91000000D01*
X140300000Y-89550000D02*
X139850000Y-89100000D01*
X143900000Y-91000000D02*
X142950000Y-90050000D01*
X147349500Y-92400500D02*
X147150000Y-92600000D01*
X139850000Y-89100000D02*
X139850000Y-87050000D01*
X147774265Y-92500000D02*
X147674765Y-92400500D01*
X142950000Y-90050000D02*
X142650000Y-90050000D01*
X148900000Y-92500000D02*
X147774265Y-92500000D01*
X142650000Y-90050000D02*
X142150000Y-89550000D01*
X146203554Y-92600000D02*
X144603554Y-91000000D01*
X147150000Y-92600000D02*
X146203554Y-92600000D01*
X142150000Y-89550000D02*
X140300000Y-89550000D01*
X147674765Y-92400500D02*
X147349500Y-92400500D01*
X149150000Y-92250000D02*
X148900000Y-92500000D01*
%TO.N,/Perpherials/GPIO1*%
X148998223Y-92048223D02*
X148796446Y-92250000D01*
X147199500Y-92200500D02*
X147050000Y-92350000D01*
X149290000Y-91760000D02*
X149000000Y-92050000D01*
X148796446Y-92250000D02*
X147807108Y-92250000D01*
X146450000Y-92350000D02*
X144850000Y-90750000D01*
X147807108Y-92250000D02*
X147757608Y-92200500D01*
X142300000Y-89350000D02*
X140650000Y-89350000D01*
X144850000Y-90750000D02*
X144050000Y-90750000D01*
X142750000Y-89800000D02*
X142300000Y-89350000D01*
X147050000Y-92350000D02*
X146450000Y-92350000D01*
X149290000Y-91150000D02*
X149290000Y-91760000D01*
X140200000Y-88900000D02*
X140200000Y-87050000D01*
X144050000Y-90750000D02*
X143100000Y-89800000D01*
X143100000Y-89800000D02*
X142750000Y-89800000D01*
X147757608Y-92200500D02*
X147199500Y-92200500D01*
X140650000Y-89350000D02*
X140200000Y-88900000D01*
%TO.N,Net-(R12-Pad1)*%
X138900000Y-92150000D02*
X139000000Y-92050000D01*
X139000000Y-92050000D02*
X139000000Y-91400000D01*
X138900000Y-92600000D02*
X138900000Y-92150000D01*
X138900000Y-92600000D02*
X138900000Y-92900000D01*
X139350000Y-91050000D02*
X139650000Y-91050000D01*
X139000000Y-91400000D02*
X139350000Y-91050000D01*
X139823558Y-91050000D02*
X139650000Y-91050000D01*
X140036779Y-90836779D02*
X139823558Y-91050000D01*
D17*
%TO.N,+1.8VA*%
X136450000Y-93290000D02*
X136200000Y-93540000D01*
X139950000Y-90500000D02*
X139850500Y-90599500D01*
X137675000Y-92225000D02*
X137175000Y-92225000D01*
X141546447Y-90650000D02*
X141396447Y-90500000D01*
X146300000Y-93050000D02*
X144644779Y-91394779D01*
X141396447Y-90500000D02*
X139950000Y-90500000D01*
X138300500Y-90750000D02*
X138300500Y-91599500D01*
X139850500Y-90599500D02*
X139700000Y-90750000D01*
X143100000Y-90650000D02*
X141546447Y-90650000D01*
X139700000Y-90750000D02*
X138300500Y-90750000D01*
X137175000Y-92225000D02*
X136450000Y-92950000D01*
X147150500Y-93050000D02*
X146300000Y-93050000D01*
X136509592Y-94249592D02*
X136509592Y-97495740D01*
X144644779Y-91394779D02*
X143844779Y-91394779D01*
X147500000Y-92700500D02*
X147150500Y-93050000D01*
X136200000Y-93940000D02*
X136509592Y-94249592D01*
X138300500Y-91599500D02*
X137675000Y-92225000D01*
X143844779Y-91394779D02*
X143100000Y-90650000D01*
X136450000Y-92950000D02*
X136450000Y-93290000D01*
X136200000Y-93540000D02*
X136200000Y-93940000D01*
D16*
%TO.N,Net-(U4-GPIO3{slash}CLKIN)*%
X149900000Y-91026993D02*
X149312724Y-90439717D01*
X149900000Y-92201502D02*
X149900000Y-91026993D01*
X149151002Y-92950500D02*
X149900000Y-92201502D01*
%TO.N,/Neuropixels 1.0/DCLK*%
X142745000Y-97705000D02*
X142050000Y-97705000D01*
X141810000Y-98240000D02*
X141970000Y-98400000D01*
X142610000Y-98400000D02*
X143310500Y-97699500D01*
X144231900Y-96380000D02*
X143857226Y-96754673D01*
X143310500Y-97699500D02*
X145420000Y-97699500D01*
X143857226Y-96754673D02*
X143760000Y-96754673D01*
X144868232Y-96380000D02*
X144970177Y-96278055D01*
X143695827Y-96754173D02*
X142745000Y-97705000D01*
X141970000Y-98400000D02*
X142610000Y-98400000D01*
X142050000Y-97705000D02*
X141810000Y-97945000D01*
X141810000Y-97945000D02*
X141810000Y-98240000D01*
X144231900Y-96380000D02*
X144868232Y-96380000D01*
X143740000Y-96754173D02*
X143695827Y-96754173D01*
%TD*%
%TA.AperFunction,Conductor*%
%TO.N,GND*%
G36*
X144230948Y-86601669D02*
G01*
X144301223Y-86620500D01*
X144314618Y-86620500D01*
X144350000Y-86620500D01*
X144382288Y-86620500D01*
X148567712Y-86620500D01*
X148598397Y-86620500D01*
X148601602Y-86620605D01*
X148842126Y-86636369D01*
X148848474Y-86637205D01*
X149083293Y-86683914D01*
X149089485Y-86685572D01*
X149316217Y-86762537D01*
X149322130Y-86764986D01*
X149536878Y-86870889D01*
X149542413Y-86874084D01*
X149665682Y-86956450D01*
X149741497Y-87007108D01*
X149746582Y-87011010D01*
X149926592Y-87168875D01*
X149931124Y-87173407D01*
X150088989Y-87353417D01*
X150092891Y-87358502D01*
X150210489Y-87534500D01*
X150225910Y-87557578D01*
X150229113Y-87563126D01*
X150272523Y-87651152D01*
X150335011Y-87777865D01*
X150337464Y-87783787D01*
X150414427Y-88010515D01*
X150416085Y-88016706D01*
X150462793Y-88251522D01*
X150463630Y-88257876D01*
X150479395Y-88498398D01*
X150479500Y-88501603D01*
X150479500Y-90267712D01*
X150479500Y-90300000D01*
X150479500Y-90398031D01*
X150479870Y-90400134D01*
X150479871Y-90400136D01*
X150489256Y-90453360D01*
X150490000Y-90461869D01*
X150490000Y-92958131D01*
X150489256Y-92966640D01*
X150480129Y-93018403D01*
X150479500Y-93021969D01*
X150479500Y-93024110D01*
X150479500Y-98830500D01*
X150465148Y-98865148D01*
X150430500Y-98879500D01*
X144052288Y-98879500D01*
X144020000Y-98879500D01*
X143921969Y-98879500D01*
X143919866Y-98879870D01*
X143919863Y-98879871D01*
X143809928Y-98899256D01*
X143801419Y-98900000D01*
X140218581Y-98900000D01*
X140210072Y-98899256D01*
X140100136Y-98879871D01*
X140100134Y-98879870D01*
X140098031Y-98879500D01*
X140095890Y-98879500D01*
X134769500Y-98879500D01*
X134734852Y-98865148D01*
X134720500Y-98830500D01*
X134720500Y-92504110D01*
X134720500Y-92501969D01*
X134720166Y-92500079D01*
X134720000Y-92496251D01*
X134720000Y-91699500D01*
X134734352Y-91664852D01*
X134769000Y-91650500D01*
X135033876Y-91650500D01*
X135040327Y-91650500D01*
X135052505Y-91643467D01*
X135064321Y-91638573D01*
X135077904Y-91634935D01*
X135116508Y-91596331D01*
X135147492Y-91582118D01*
X135180251Y-91591556D01*
X135198925Y-91620077D01*
X135213479Y-91683844D01*
X135213481Y-91683849D01*
X135214710Y-91689231D01*
X135235822Y-91715704D01*
X135261660Y-91748104D01*
X135271776Y-91760788D01*
X135354237Y-91800500D01*
X135440243Y-91800500D01*
X135445763Y-91800500D01*
X135528224Y-91760788D01*
X135585290Y-91689231D01*
X135600390Y-91623066D01*
X135613512Y-91599325D01*
X135847986Y-91364852D01*
X135882635Y-91350500D01*
X137533876Y-91350500D01*
X137540327Y-91350500D01*
X137552505Y-91343467D01*
X137564321Y-91338573D01*
X137577904Y-91334935D01*
X137634935Y-91277905D01*
X137634935Y-91277903D01*
X137870430Y-91042409D01*
X137870429Y-91042409D01*
X137884935Y-91027904D01*
X137888573Y-91014321D01*
X137893467Y-91002505D01*
X137900500Y-90990327D01*
X137900500Y-90909674D01*
X137900500Y-90850000D01*
X137911191Y-90819449D01*
X137914857Y-90814852D01*
X137935290Y-90789231D01*
X137951619Y-90717685D01*
X137955774Y-90711786D01*
X137954428Y-90708296D01*
X137954428Y-90705380D01*
X137955656Y-90700000D01*
X137954428Y-90694620D01*
X137954428Y-90694616D01*
X137940913Y-90635404D01*
X137943071Y-90606598D01*
X137961081Y-90584014D01*
X137988684Y-90575500D01*
X138024151Y-90575500D01*
X138056462Y-90587662D01*
X138072733Y-90618112D01*
X138066944Y-90642911D01*
X138069062Y-90643788D01*
X138067213Y-90648249D01*
X138064534Y-90652260D01*
X138063593Y-90656988D01*
X138063592Y-90656992D01*
X138051486Y-90717856D01*
X138045372Y-90727510D01*
X138047449Y-90738146D01*
X138045092Y-90750000D01*
X138064534Y-90847740D01*
X138067216Y-90851754D01*
X138091742Y-90888461D01*
X138100000Y-90915683D01*
X138100000Y-91496154D01*
X138085648Y-91530802D01*
X137606303Y-92010148D01*
X137590407Y-92020770D01*
X137571655Y-92024500D01*
X137217388Y-92024500D01*
X137208728Y-92023028D01*
X137208723Y-92023080D01*
X137203238Y-92022461D01*
X137198026Y-92020638D01*
X137192539Y-92021256D01*
X137166478Y-92024192D01*
X137160993Y-92024500D01*
X137152410Y-92024500D01*
X137149734Y-92025110D01*
X137149721Y-92025112D01*
X137144038Y-92026409D01*
X137138631Y-92027328D01*
X137112561Y-92030265D01*
X137112556Y-92030266D01*
X137107076Y-92030884D01*
X137102402Y-92033820D01*
X137097191Y-92035644D01*
X137097174Y-92035597D01*
X137096103Y-92036041D01*
X137096125Y-92036086D01*
X137091150Y-92038481D01*
X137085769Y-92039710D01*
X137081453Y-92043151D01*
X137081450Y-92043153D01*
X137060947Y-92059503D01*
X137056476Y-92062676D01*
X137051529Y-92065785D01*
X137051519Y-92065792D01*
X137049199Y-92067251D01*
X137047260Y-92069189D01*
X137047257Y-92069192D01*
X137043126Y-92073323D01*
X137039036Y-92076977D01*
X137018528Y-92093333D01*
X137018526Y-92093335D01*
X137014212Y-92096776D01*
X137011817Y-92101747D01*
X137008375Y-92106064D01*
X137008335Y-92106032D01*
X137003250Y-92113198D01*
X136425381Y-92691068D01*
X136400294Y-92704478D01*
X136356992Y-92713092D01*
X136356988Y-92713093D01*
X136352260Y-92714034D01*
X136348250Y-92716712D01*
X136348248Y-92716714D01*
X136273410Y-92766718D01*
X136273407Y-92766720D01*
X136269399Y-92769399D01*
X136266720Y-92773407D01*
X136266718Y-92773410D01*
X136216714Y-92848248D01*
X136216712Y-92848250D01*
X136214034Y-92852260D01*
X136213093Y-92856988D01*
X136213092Y-92856992D01*
X136197845Y-92933648D01*
X136194592Y-92950000D01*
X136195534Y-92954736D01*
X136201583Y-92985148D01*
X136214034Y-93047740D01*
X136216715Y-93051752D01*
X136216716Y-93051754D01*
X136241242Y-93088461D01*
X136249500Y-93115683D01*
X136249500Y-93186654D01*
X136245770Y-93205406D01*
X136235148Y-93221302D01*
X136088199Y-93368250D01*
X136081033Y-93373336D01*
X136081064Y-93373375D01*
X136076745Y-93376818D01*
X136071776Y-93379212D01*
X136068338Y-93383522D01*
X136068334Y-93383526D01*
X136051973Y-93404041D01*
X136048319Y-93408131D01*
X136044197Y-93412253D01*
X136044194Y-93412256D01*
X136042252Y-93414199D01*
X136040787Y-93416529D01*
X136040786Y-93416531D01*
X136037685Y-93421465D01*
X136034512Y-93425936D01*
X136018153Y-93446451D01*
X136014710Y-93450769D01*
X136013481Y-93456151D01*
X136011086Y-93461125D01*
X136011041Y-93461103D01*
X136010597Y-93462174D01*
X136010644Y-93462191D01*
X136008820Y-93467402D01*
X136005884Y-93472076D01*
X136005266Y-93477556D01*
X136005265Y-93477561D01*
X136002328Y-93503631D01*
X136001409Y-93509038D01*
X136000112Y-93514721D01*
X136000110Y-93514734D01*
X135999500Y-93517410D01*
X135999500Y-93520161D01*
X135999500Y-93525993D01*
X135999192Y-93531478D01*
X135997537Y-93546173D01*
X135995638Y-93563026D01*
X135997461Y-93568238D01*
X135998080Y-93573723D01*
X135998028Y-93573728D01*
X135999500Y-93582388D01*
X135999500Y-93897612D01*
X135998028Y-93906271D01*
X135998080Y-93906277D01*
X135997461Y-93911762D01*
X135995638Y-93916974D01*
X135998143Y-93939212D01*
X135999192Y-93948522D01*
X135999500Y-93954007D01*
X135999500Y-93962590D01*
X136000110Y-93965264D01*
X136000111Y-93965270D01*
X136001409Y-93970955D01*
X136002329Y-93976371D01*
X136005047Y-94000500D01*
X136005884Y-94007924D01*
X136008819Y-94012596D01*
X136010644Y-94017810D01*
X136010597Y-94017826D01*
X136011041Y-94018897D01*
X136011086Y-94018876D01*
X136013481Y-94023850D01*
X136014710Y-94029231D01*
X136019429Y-94035148D01*
X136034507Y-94054056D01*
X136037684Y-94058534D01*
X136040784Y-94063466D01*
X136040786Y-94063469D01*
X136042252Y-94065801D01*
X136044199Y-94067748D01*
X136048318Y-94071867D01*
X136051979Y-94075964D01*
X136068331Y-94096469D01*
X136068332Y-94096470D01*
X136071776Y-94100788D01*
X136076751Y-94103184D01*
X136081068Y-94106626D01*
X136081035Y-94106666D01*
X136088200Y-94111749D01*
X136294740Y-94318290D01*
X136309092Y-94352938D01*
X136309092Y-97330057D01*
X136300834Y-97357279D01*
X136276308Y-97393985D01*
X136276306Y-97393987D01*
X136273626Y-97398000D01*
X136272684Y-97402734D01*
X136272684Y-97402735D01*
X136256098Y-97486117D01*
X136254184Y-97495740D01*
X136255126Y-97500476D01*
X136272684Y-97588747D01*
X136272685Y-97588749D01*
X136273626Y-97593480D01*
X136276305Y-97597489D01*
X136276307Y-97597494D01*
X136293535Y-97623278D01*
X136301374Y-97656896D01*
X136285101Y-97687340D01*
X136252793Y-97699500D01*
X135676541Y-97699500D01*
X135645044Y-97688036D01*
X135628285Y-97659009D01*
X135633520Y-97629318D01*
X135634935Y-97627904D01*
X135638573Y-97614321D01*
X135643467Y-97602505D01*
X135650500Y-97590327D01*
X135650501Y-97509674D01*
X135650500Y-97509672D01*
X135650500Y-93929686D01*
X135650500Y-93909173D01*
X135643469Y-93896997D01*
X135638573Y-93885176D01*
X135634935Y-93871596D01*
X135630376Y-93867037D01*
X135630375Y-93867035D01*
X135577905Y-93814565D01*
X135577903Y-93814564D01*
X135364014Y-93600674D01*
X135350890Y-93576930D01*
X135350027Y-93573150D01*
X135335790Y-93510769D01*
X135286321Y-93448738D01*
X135282167Y-93443529D01*
X135282166Y-93443528D01*
X135278724Y-93439212D01*
X135273304Y-93436602D01*
X135210150Y-93406188D01*
X135196263Y-93399500D01*
X135104737Y-93399500D01*
X135099764Y-93401894D01*
X135099763Y-93401895D01*
X135027250Y-93436816D01*
X135027248Y-93436817D01*
X135022276Y-93439212D01*
X135018835Y-93443526D01*
X135018832Y-93443529D01*
X134968654Y-93506450D01*
X134965210Y-93510769D01*
X134963981Y-93516150D01*
X134963981Y-93516152D01*
X134957382Y-93545065D01*
X134944844Y-93600000D01*
X134950105Y-93623049D01*
X134962532Y-93677500D01*
X134965210Y-93689231D01*
X134984702Y-93713673D01*
X135013735Y-93750079D01*
X135022276Y-93760788D01*
X135104737Y-93800500D01*
X135117865Y-93800500D01*
X135152513Y-93814852D01*
X135335148Y-93997487D01*
X135349500Y-94032135D01*
X135349500Y-97467365D01*
X135345770Y-97486117D01*
X135335148Y-97502013D01*
X135204026Y-97633133D01*
X135183604Y-97645374D01*
X135159824Y-97646545D01*
X135154734Y-97645533D01*
X135154731Y-97645533D01*
X135150000Y-97644592D01*
X135145269Y-97645533D01*
X135145265Y-97645533D01*
X135056992Y-97663092D01*
X135056988Y-97663093D01*
X135052260Y-97664034D01*
X135048250Y-97666712D01*
X135048248Y-97666714D01*
X134973410Y-97716718D01*
X134973407Y-97716720D01*
X134969399Y-97719399D01*
X134966720Y-97723407D01*
X134966718Y-97723410D01*
X134916714Y-97798248D01*
X134916712Y-97798250D01*
X134914034Y-97802260D01*
X134913093Y-97806988D01*
X134913092Y-97806992D01*
X134902015Y-97862683D01*
X134894592Y-97900000D01*
X134895534Y-97904736D01*
X134913092Y-97993007D01*
X134913093Y-97993009D01*
X134914034Y-97997740D01*
X134916713Y-98001750D01*
X134916714Y-98001751D01*
X134959303Y-98065492D01*
X134969399Y-98080601D01*
X135052260Y-98135966D01*
X135150000Y-98155408D01*
X135247740Y-98135966D01*
X135288460Y-98108758D01*
X135315683Y-98100500D01*
X138907612Y-98100500D01*
X138916271Y-98101971D01*
X138916277Y-98101920D01*
X138921760Y-98102537D01*
X138926974Y-98104362D01*
X138958521Y-98100808D01*
X138964007Y-98100500D01*
X138969836Y-98100500D01*
X138972590Y-98100500D01*
X138980960Y-98098589D01*
X138986367Y-98097670D01*
X139017924Y-98094116D01*
X139022598Y-98091178D01*
X139027812Y-98089354D01*
X139027829Y-98089402D01*
X139028894Y-98088961D01*
X139028872Y-98088914D01*
X139033844Y-98086519D01*
X139039231Y-98085290D01*
X139064064Y-98065485D01*
X139068537Y-98062312D01*
X139075801Y-98057748D01*
X139081877Y-98051671D01*
X139085946Y-98048033D01*
X139110788Y-98028224D01*
X139113183Y-98023249D01*
X139116626Y-98018932D01*
X139116665Y-98018963D01*
X139121747Y-98011800D01*
X139511800Y-97621747D01*
X139518963Y-97616665D01*
X139518932Y-97616626D01*
X139523249Y-97613183D01*
X139528224Y-97610788D01*
X139548033Y-97585946D01*
X139551671Y-97581877D01*
X139557748Y-97575801D01*
X139562312Y-97568537D01*
X139565485Y-97564064D01*
X139585290Y-97539231D01*
X139586519Y-97533844D01*
X139588914Y-97528872D01*
X139588961Y-97528894D01*
X139589402Y-97527829D01*
X139589354Y-97527812D01*
X139591178Y-97522598D01*
X139594116Y-97517924D01*
X139597670Y-97486367D01*
X139598589Y-97480960D01*
X139600500Y-97472590D01*
X139600500Y-97464007D01*
X139600808Y-97458522D01*
X139603744Y-97432459D01*
X139604362Y-97426974D01*
X139602538Y-97421762D01*
X139601920Y-97416277D01*
X139601971Y-97416271D01*
X139600500Y-97407612D01*
X139600500Y-96803345D01*
X139614852Y-96768697D01*
X139701298Y-96682251D01*
X139961800Y-96421747D01*
X139968963Y-96416665D01*
X139968932Y-96416626D01*
X139973249Y-96413183D01*
X139978224Y-96410788D01*
X139998033Y-96385946D01*
X140001671Y-96381877D01*
X140007748Y-96375801D01*
X140012312Y-96368537D01*
X140015485Y-96364064D01*
X140035290Y-96339231D01*
X140036519Y-96333844D01*
X140038914Y-96328872D01*
X140038961Y-96328894D01*
X140039402Y-96327829D01*
X140039354Y-96327812D01*
X140041178Y-96322598D01*
X140044116Y-96317924D01*
X140047670Y-96286367D01*
X140048589Y-96280960D01*
X140050500Y-96272590D01*
X140050500Y-96264007D01*
X140050808Y-96258522D01*
X140052374Y-96244620D01*
X140054362Y-96226974D01*
X140052538Y-96221762D01*
X140051920Y-96216277D01*
X140051971Y-96216271D01*
X140050500Y-96207612D01*
X140050500Y-94053345D01*
X140064852Y-94018697D01*
X140172761Y-93910788D01*
X140499438Y-93584109D01*
X140506601Y-93579027D01*
X140506570Y-93578988D01*
X140510887Y-93575545D01*
X140515862Y-93573150D01*
X140535671Y-93548308D01*
X140539309Y-93544239D01*
X140545386Y-93538163D01*
X140549950Y-93530899D01*
X140553123Y-93526426D01*
X140572928Y-93501593D01*
X140574157Y-93496206D01*
X140576552Y-93491234D01*
X140576599Y-93491256D01*
X140577040Y-93490191D01*
X140576992Y-93490174D01*
X140578816Y-93484960D01*
X140581754Y-93480286D01*
X140585308Y-93448729D01*
X140586227Y-93443322D01*
X140588138Y-93434952D01*
X140588138Y-93426369D01*
X140588446Y-93420884D01*
X140588936Y-93416531D01*
X140592000Y-93389336D01*
X140590176Y-93384124D01*
X140589558Y-93378639D01*
X140589609Y-93378633D01*
X140588138Y-93369974D01*
X140588138Y-93166183D01*
X140596396Y-93138961D01*
X140607665Y-93122095D01*
X140623604Y-93098240D01*
X140643046Y-93000500D01*
X140636945Y-92969831D01*
X140638113Y-92946052D01*
X140650353Y-92925629D01*
X141765852Y-91810131D01*
X141800500Y-91795780D01*
X141835148Y-91810132D01*
X141849500Y-91844780D01*
X141849500Y-92617365D01*
X141835148Y-92652013D01*
X140602013Y-93885148D01*
X140567365Y-93899500D01*
X140554237Y-93899500D01*
X140549264Y-93901894D01*
X140549263Y-93901895D01*
X140476750Y-93936816D01*
X140476748Y-93936817D01*
X140471776Y-93939212D01*
X140468335Y-93943526D01*
X140468332Y-93943529D01*
X140422899Y-94000500D01*
X140414710Y-94010769D01*
X140413481Y-94016150D01*
X140413481Y-94016152D01*
X140401705Y-94067748D01*
X140394344Y-94100000D01*
X140398389Y-94117723D01*
X140410723Y-94171765D01*
X140414710Y-94189231D01*
X140433839Y-94213217D01*
X140463172Y-94250000D01*
X140471776Y-94260788D01*
X140554237Y-94300500D01*
X140640243Y-94300500D01*
X140645763Y-94300500D01*
X140728224Y-94260788D01*
X140785290Y-94189231D01*
X140800390Y-94123066D01*
X140813512Y-94099325D01*
X142120430Y-92792409D01*
X142134935Y-92777904D01*
X142138573Y-92764321D01*
X142143467Y-92752505D01*
X142150500Y-92740327D01*
X142150501Y-92659674D01*
X142150500Y-92659672D01*
X142150500Y-92447405D01*
X142163578Y-92414080D01*
X142195830Y-92398543D01*
X142220739Y-92406220D01*
X142221776Y-92404067D01*
X142304237Y-92443779D01*
X142390243Y-92443779D01*
X142395763Y-92443779D01*
X142478224Y-92404067D01*
X142535290Y-92332510D01*
X142555656Y-92243279D01*
X142554428Y-92237899D01*
X142554428Y-92235563D01*
X142568780Y-92200915D01*
X142603428Y-92186563D01*
X142638076Y-92200915D01*
X142912062Y-92474901D01*
X142926241Y-92505431D01*
X142917376Y-92537904D01*
X142889653Y-92556996D01*
X142856153Y-92553696D01*
X142843916Y-92547803D01*
X142838943Y-92545408D01*
X142747417Y-92545408D01*
X142742444Y-92547802D01*
X142742443Y-92547803D01*
X142669930Y-92582724D01*
X142669928Y-92582725D01*
X142664956Y-92585120D01*
X142661515Y-92589434D01*
X142661512Y-92589437D01*
X142612816Y-92650500D01*
X142607890Y-92656677D01*
X142606661Y-92662058D01*
X142606661Y-92662060D01*
X142596980Y-92704478D01*
X142587524Y-92745908D01*
X142588752Y-92751288D01*
X142606661Y-92829757D01*
X142606662Y-92829759D01*
X142607890Y-92835139D01*
X142610316Y-92838181D01*
X142614311Y-92866469D01*
X142600652Y-92892909D01*
X142556992Y-92936571D01*
X142541095Y-92947194D01*
X142522343Y-92950924D01*
X142488903Y-92950924D01*
X142408249Y-92950924D01*
X142402664Y-92954147D01*
X142402661Y-92954149D01*
X142396068Y-92957956D01*
X142384255Y-92962849D01*
X142370672Y-92966489D01*
X142366114Y-92971046D01*
X142366112Y-92971048D01*
X142313640Y-93023520D01*
X141422096Y-93915065D01*
X141369626Y-93967534D01*
X141369624Y-93967536D01*
X141365065Y-93972096D01*
X141363396Y-93978323D01*
X141363395Y-93978326D01*
X141361425Y-93985680D01*
X141356532Y-93997492D01*
X141352725Y-94004085D01*
X141352723Y-94004088D01*
X141349500Y-94009673D01*
X141349499Y-94016119D01*
X141349499Y-94016123D01*
X141349499Y-94051895D01*
X141349499Y-94090326D01*
X141349500Y-94090327D01*
X141349500Y-94090328D01*
X141349500Y-95073497D01*
X141338809Y-95104048D01*
X141314710Y-95134267D01*
X141313482Y-95139644D01*
X141313481Y-95139648D01*
X141299829Y-95199466D01*
X141294344Y-95223498D01*
X141295572Y-95228878D01*
X141313481Y-95307347D01*
X141313482Y-95307349D01*
X141314710Y-95312729D01*
X141335846Y-95339232D01*
X141338809Y-95342947D01*
X141349500Y-95373499D01*
X141349500Y-95967365D01*
X141335148Y-96002013D01*
X140343202Y-96993958D01*
X140343200Y-96993960D01*
X140338641Y-96998520D01*
X140336972Y-97004747D01*
X140336971Y-97004750D01*
X140335001Y-97012104D01*
X140330108Y-97023916D01*
X140326301Y-97030509D01*
X140326299Y-97030512D01*
X140323076Y-97036097D01*
X140323075Y-97042543D01*
X140323075Y-97042547D01*
X140323075Y-97073575D01*
X140312385Y-97104124D01*
X140291727Y-97130028D01*
X140291724Y-97130033D01*
X140288286Y-97134345D01*
X140287059Y-97139720D01*
X140287058Y-97139723D01*
X140275190Y-97191722D01*
X140267920Y-97223576D01*
X140270271Y-97233876D01*
X140286839Y-97306470D01*
X140288286Y-97312807D01*
X140306195Y-97335264D01*
X140337945Y-97375077D01*
X140345352Y-97384364D01*
X140427813Y-97424076D01*
X140513819Y-97424076D01*
X140519339Y-97424076D01*
X140601800Y-97384364D01*
X140632881Y-97345389D01*
X140656744Y-97329119D01*
X140685630Y-97329119D01*
X140709497Y-97345391D01*
X140715924Y-97353451D01*
X140721776Y-97360788D01*
X140804237Y-97400500D01*
X140890243Y-97400500D01*
X140895763Y-97400500D01*
X140978224Y-97360788D01*
X141035290Y-97289231D01*
X141050390Y-97223066D01*
X141063512Y-97199325D01*
X142220430Y-96042409D01*
X142234935Y-96027904D01*
X142238573Y-96014321D01*
X142243467Y-96002505D01*
X142250500Y-95990327D01*
X142250501Y-95909674D01*
X142250500Y-95909672D01*
X142250500Y-94471635D01*
X142264852Y-94436987D01*
X142299500Y-94422635D01*
X142334148Y-94436987D01*
X142519570Y-94622409D01*
X143275065Y-95377904D01*
X143332096Y-95434935D01*
X143345677Y-95438573D01*
X143357497Y-95443469D01*
X143369673Y-95450500D01*
X143390186Y-95450500D01*
X143450326Y-95450500D01*
X144055610Y-95450500D01*
X144083213Y-95459014D01*
X144101223Y-95481598D01*
X144103381Y-95510404D01*
X144095572Y-95544617D01*
X144095572Y-95544620D01*
X144094344Y-95550000D01*
X144095572Y-95555380D01*
X144095572Y-95555383D01*
X144103381Y-95589596D01*
X144101223Y-95618402D01*
X144083213Y-95640986D01*
X144055610Y-95649500D01*
X143917274Y-95649500D01*
X143836620Y-95649500D01*
X143831035Y-95652723D01*
X143831032Y-95652725D01*
X143824439Y-95656532D01*
X143812627Y-95661425D01*
X143808949Y-95662410D01*
X143799043Y-95665065D01*
X143794485Y-95669622D01*
X143794483Y-95669624D01*
X143742011Y-95722096D01*
X143717384Y-95746724D01*
X143701487Y-95757346D01*
X143682735Y-95761076D01*
X143669608Y-95761076D01*
X143664635Y-95763470D01*
X143664634Y-95763471D01*
X143592121Y-95798392D01*
X143592119Y-95798393D01*
X143587147Y-95800788D01*
X143583706Y-95805102D01*
X143583703Y-95805105D01*
X143533525Y-95868026D01*
X143530081Y-95872345D01*
X143528852Y-95877726D01*
X143528852Y-95877728D01*
X143521561Y-95909674D01*
X143509715Y-95961576D01*
X143510943Y-95966956D01*
X143528852Y-96045425D01*
X143528853Y-96045427D01*
X143530081Y-96050807D01*
X143533523Y-96055123D01*
X143533524Y-96055125D01*
X143537408Y-96059996D01*
X143548020Y-96093293D01*
X143533746Y-96125192D01*
X143524504Y-96134435D01*
X143516844Y-96142095D01*
X143516843Y-96142096D01*
X143392817Y-96266123D01*
X143278792Y-96380148D01*
X143262896Y-96390770D01*
X143244144Y-96394500D01*
X142285327Y-96394500D01*
X142204673Y-96394500D01*
X142199088Y-96397723D01*
X142199085Y-96397725D01*
X142192492Y-96401532D01*
X142180679Y-96406425D01*
X142167096Y-96410065D01*
X142162538Y-96414622D01*
X142162536Y-96414624D01*
X141922096Y-96655064D01*
X141922096Y-96655065D01*
X141869626Y-96707534D01*
X141869624Y-96707536D01*
X141865065Y-96712096D01*
X141863396Y-96718323D01*
X141863395Y-96718326D01*
X141861425Y-96725680D01*
X141856532Y-96737492D01*
X141852725Y-96744085D01*
X141852723Y-96744088D01*
X141849500Y-96749673D01*
X141849499Y-96756119D01*
X141849499Y-96756123D01*
X141849499Y-96791190D01*
X141849499Y-96830326D01*
X141849500Y-96830328D01*
X141849500Y-97149999D01*
X141838809Y-97180550D01*
X141814710Y-97210769D01*
X141813482Y-97216146D01*
X141813481Y-97216150D01*
X141799387Y-97277904D01*
X141794344Y-97300000D01*
X141795572Y-97305380D01*
X141812613Y-97380046D01*
X141814710Y-97389231D01*
X141833783Y-97413147D01*
X141864605Y-97451797D01*
X141871776Y-97460788D01*
X141901854Y-97475273D01*
X141951024Y-97498953D01*
X141973085Y-97520204D01*
X141978216Y-97550403D01*
X141964411Y-97577748D01*
X141915065Y-97627094D01*
X141915065Y-97627095D01*
X141915064Y-97627096D01*
X141732096Y-97810065D01*
X141679626Y-97862534D01*
X141679624Y-97862536D01*
X141675065Y-97867096D01*
X141673396Y-97873323D01*
X141673395Y-97873326D01*
X141671425Y-97880680D01*
X141666532Y-97892492D01*
X141662725Y-97899085D01*
X141662723Y-97899088D01*
X141659500Y-97904673D01*
X141659499Y-97911119D01*
X141659499Y-97911123D01*
X141659499Y-97985321D01*
X141659499Y-97985326D01*
X141659500Y-97985328D01*
X141659500Y-98199673D01*
X141659500Y-98280327D01*
X141662724Y-98285911D01*
X141662725Y-98285914D01*
X141666531Y-98292506D01*
X141671426Y-98304323D01*
X141673395Y-98311674D01*
X141673396Y-98311676D01*
X141675065Y-98317904D01*
X141679624Y-98322463D01*
X141732094Y-98374934D01*
X141732100Y-98374939D01*
X141835065Y-98477903D01*
X141835065Y-98477904D01*
X141892096Y-98534935D01*
X141905677Y-98538573D01*
X141917497Y-98543469D01*
X141929673Y-98550500D01*
X141950186Y-98550500D01*
X142010326Y-98550500D01*
X142569673Y-98550500D01*
X142629814Y-98550500D01*
X142643876Y-98550500D01*
X142650327Y-98550500D01*
X142662505Y-98543467D01*
X142674321Y-98538573D01*
X142687904Y-98534935D01*
X142744935Y-98477905D01*
X142744935Y-98477903D01*
X142847820Y-98375018D01*
X145888678Y-98375018D01*
X145909044Y-98464249D01*
X145919933Y-98477903D01*
X145961778Y-98530375D01*
X145966110Y-98535806D01*
X146048571Y-98575518D01*
X146134577Y-98575518D01*
X146140097Y-98575518D01*
X146222558Y-98535806D01*
X146279624Y-98464249D01*
X146299990Y-98375018D01*
X146279624Y-98285787D01*
X146222558Y-98214230D01*
X146140097Y-98174518D01*
X146048571Y-98174518D01*
X146043598Y-98176912D01*
X146043597Y-98176913D01*
X145971084Y-98211834D01*
X145971082Y-98211835D01*
X145966110Y-98214230D01*
X145962669Y-98218544D01*
X145962666Y-98218547D01*
X145920183Y-98271819D01*
X145909044Y-98285787D01*
X145907815Y-98291168D01*
X145907815Y-98291170D01*
X145900673Y-98322463D01*
X145888678Y-98375018D01*
X142847820Y-98375018D01*
X143358486Y-97864352D01*
X143393135Y-97850000D01*
X145263700Y-97850000D01*
X145291263Y-97859645D01*
X145291776Y-97860288D01*
X145374237Y-97900000D01*
X145460243Y-97900000D01*
X145465763Y-97900000D01*
X145548224Y-97860288D01*
X145605290Y-97788731D01*
X145625656Y-97699500D01*
X145605290Y-97610269D01*
X145560344Y-97553910D01*
X145551667Y-97543029D01*
X145551666Y-97543028D01*
X145548224Y-97538712D01*
X145529081Y-97529493D01*
X145506194Y-97506606D01*
X145502571Y-97474442D01*
X145519791Y-97447036D01*
X145550342Y-97436346D01*
X145952711Y-97436346D01*
X145987359Y-97450698D01*
X146664565Y-98127904D01*
X146721596Y-98184935D01*
X146735177Y-98188573D01*
X146746997Y-98193469D01*
X146759173Y-98200500D01*
X146839826Y-98200501D01*
X146839828Y-98200500D01*
X149189673Y-98200500D01*
X149249814Y-98200500D01*
X149270327Y-98200500D01*
X149282505Y-98193467D01*
X149294321Y-98188573D01*
X149307904Y-98184935D01*
X149364935Y-98127905D01*
X149364935Y-98127903D01*
X149660430Y-97832409D01*
X149674935Y-97817904D01*
X149678573Y-97804321D01*
X149683467Y-97792505D01*
X149690500Y-97780327D01*
X149690500Y-97746549D01*
X149703581Y-97713220D01*
X149735839Y-97697686D01*
X149768980Y-97707909D01*
X149771276Y-97710788D01*
X149853737Y-97750500D01*
X149939743Y-97750500D01*
X149945263Y-97750500D01*
X150027724Y-97710788D01*
X150084790Y-97639231D01*
X150105156Y-97550000D01*
X150084790Y-97460769D01*
X150039889Y-97404466D01*
X150031167Y-97393529D01*
X150031166Y-97393528D01*
X150027724Y-97389212D01*
X150022630Y-97386759D01*
X149950236Y-97351895D01*
X149945263Y-97349500D01*
X149853737Y-97349500D01*
X149848764Y-97351894D01*
X149848763Y-97351895D01*
X149776326Y-97386780D01*
X149771276Y-97389212D01*
X149768980Y-97392090D01*
X149735839Y-97402314D01*
X149703581Y-97386780D01*
X149690500Y-97353451D01*
X149690500Y-96806124D01*
X149690500Y-96799673D01*
X149683469Y-96787497D01*
X149678573Y-96775676D01*
X149674935Y-96762096D01*
X149670376Y-96757537D01*
X149670375Y-96757535D01*
X149617905Y-96705065D01*
X149617903Y-96705064D01*
X149492409Y-96579570D01*
X149492409Y-96579569D01*
X149477904Y-96565065D01*
X149464323Y-96561426D01*
X149452506Y-96556531D01*
X149445914Y-96552725D01*
X149445911Y-96552724D01*
X149440327Y-96549500D01*
X149433879Y-96549499D01*
X149433876Y-96549499D01*
X149359679Y-96549499D01*
X149359678Y-96549499D01*
X149359674Y-96549499D01*
X149359672Y-96549499D01*
X149359671Y-96549500D01*
X148932635Y-96549500D01*
X148897987Y-96535148D01*
X148763514Y-96400675D01*
X148750390Y-96376930D01*
X148748922Y-96370500D01*
X148735290Y-96310769D01*
X148735290Y-96310768D01*
X148737550Y-96310253D01*
X148735119Y-96288578D01*
X148752342Y-96261184D01*
X148782886Y-96250500D01*
X148955382Y-96250500D01*
X148985933Y-96261190D01*
X149003153Y-96288596D01*
X149012350Y-96328894D01*
X149014710Y-96339231D01*
X149018152Y-96343547D01*
X149068296Y-96406425D01*
X149071776Y-96410788D01*
X149154237Y-96450500D01*
X149240243Y-96450500D01*
X149245763Y-96450500D01*
X149328224Y-96410788D01*
X149385290Y-96339231D01*
X149405656Y-96250000D01*
X149385290Y-96160769D01*
X149328224Y-96089212D01*
X149245763Y-96049500D01*
X149240243Y-96049500D01*
X149232635Y-96049500D01*
X149197987Y-96035148D01*
X149196987Y-96034148D01*
X149182635Y-95999500D01*
X149196987Y-95964852D01*
X149231635Y-95950500D01*
X149240243Y-95950500D01*
X149245763Y-95950500D01*
X149328224Y-95910788D01*
X149385290Y-95839231D01*
X149405656Y-95750000D01*
X149385290Y-95660769D01*
X149342037Y-95606532D01*
X149331667Y-95593529D01*
X149331666Y-95593528D01*
X149328224Y-95589212D01*
X149245763Y-95549500D01*
X149154237Y-95549500D01*
X149149264Y-95551894D01*
X149149263Y-95551895D01*
X149076750Y-95586816D01*
X149076748Y-95586817D01*
X149071776Y-95589212D01*
X149071263Y-95589854D01*
X149043700Y-95599500D01*
X147990327Y-95599500D01*
X147909673Y-95599500D01*
X147904088Y-95602723D01*
X147904085Y-95602725D01*
X147897492Y-95606532D01*
X147885679Y-95611425D01*
X147872096Y-95615065D01*
X147867538Y-95619622D01*
X147867536Y-95619624D01*
X147837661Y-95649499D01*
X147815065Y-95672095D01*
X147815064Y-95672096D01*
X147729815Y-95757346D01*
X147652513Y-95834648D01*
X147636617Y-95845270D01*
X147617865Y-95849000D01*
X146078370Y-95849000D01*
X146043722Y-95834648D01*
X145888643Y-95679570D01*
X145878699Y-95669626D01*
X145874138Y-95665065D01*
X145867906Y-95663395D01*
X145860557Y-95661426D01*
X145848740Y-95656531D01*
X145842148Y-95652725D01*
X145842145Y-95652724D01*
X145836561Y-95649500D01*
X145830113Y-95649499D01*
X145830110Y-95649499D01*
X145755912Y-95649499D01*
X145755911Y-95649499D01*
X145755907Y-95649499D01*
X145755905Y-95649499D01*
X145755904Y-95649500D01*
X144544390Y-95649500D01*
X144516787Y-95640986D01*
X144498777Y-95618402D01*
X144496619Y-95589596D01*
X144504428Y-95555383D01*
X144504428Y-95555380D01*
X144505656Y-95550000D01*
X144504428Y-95544620D01*
X144504428Y-95544617D01*
X144496619Y-95510404D01*
X144498777Y-95481598D01*
X144516787Y-95459014D01*
X144544390Y-95450500D01*
X145870186Y-95450500D01*
X145909814Y-95450500D01*
X147930186Y-95450500D01*
X147969814Y-95450500D01*
X149109674Y-95450500D01*
X149154233Y-95450500D01*
X149154235Y-95450500D01*
X149154237Y-95450501D01*
X149240243Y-95450501D01*
X149245763Y-95450501D01*
X149328224Y-95410789D01*
X149385290Y-95339232D01*
X149405656Y-95250001D01*
X149385290Y-95160770D01*
X149375668Y-95148705D01*
X149365056Y-95115406D01*
X149377177Y-95088322D01*
X149377038Y-95088243D01*
X149377042Y-95088236D01*
X149377463Y-95087684D01*
X149379333Y-95083506D01*
X149384935Y-95077905D01*
X149384935Y-95077903D01*
X149470430Y-94992409D01*
X149484935Y-94977904D01*
X149488573Y-94964321D01*
X149493467Y-94952505D01*
X149500500Y-94940327D01*
X149500500Y-94859674D01*
X149500500Y-94796774D01*
X149509362Y-94768669D01*
X149532741Y-94750729D01*
X149558149Y-94749620D01*
X149559673Y-94750500D01*
X149580186Y-94750500D01*
X149640326Y-94750500D01*
X149809673Y-94750500D01*
X149869814Y-94750500D01*
X149883876Y-94750500D01*
X149890327Y-94750500D01*
X149902505Y-94743467D01*
X149914321Y-94738573D01*
X149927904Y-94734935D01*
X149984935Y-94677905D01*
X149984935Y-94677903D01*
X150070430Y-94592409D01*
X150070429Y-94592409D01*
X150084935Y-94577904D01*
X150088573Y-94564321D01*
X150093467Y-94552505D01*
X150100500Y-94540327D01*
X150100500Y-94459674D01*
X150100500Y-94330186D01*
X150100500Y-94309673D01*
X150093469Y-94297497D01*
X150088573Y-94285676D01*
X150088091Y-94283878D01*
X150084935Y-94272096D01*
X150080376Y-94267537D01*
X150080375Y-94267535D01*
X150027905Y-94215065D01*
X150027903Y-94215064D01*
X150017411Y-94204571D01*
X150017409Y-94204569D01*
X149842409Y-94029570D01*
X149832465Y-94019626D01*
X149832465Y-94019625D01*
X149827904Y-94015065D01*
X149821672Y-94013395D01*
X149814323Y-94011426D01*
X149802506Y-94006531D01*
X149795914Y-94002725D01*
X149795911Y-94002724D01*
X149790327Y-93999500D01*
X149783879Y-93999499D01*
X149783876Y-93999499D01*
X149709679Y-93999499D01*
X149709678Y-93999499D01*
X149709674Y-93999499D01*
X149709672Y-93999499D01*
X149709671Y-93999500D01*
X149404548Y-93999500D01*
X149376193Y-93990462D01*
X149358298Y-93966683D01*
X149357463Y-93936935D01*
X149373610Y-93912769D01*
X149377726Y-93910788D01*
X149378238Y-93910144D01*
X149405802Y-93900500D01*
X149633876Y-93900500D01*
X149640327Y-93900500D01*
X149652505Y-93893467D01*
X149664321Y-93888573D01*
X149677904Y-93884935D01*
X149734935Y-93827905D01*
X149734935Y-93827903D01*
X149845430Y-93717409D01*
X149845430Y-93717408D01*
X149859935Y-93702904D01*
X149863573Y-93689321D01*
X149868467Y-93677505D01*
X149875500Y-93665327D01*
X149875501Y-93584673D01*
X149875500Y-93584671D01*
X149875500Y-93305186D01*
X149875500Y-93284673D01*
X149868469Y-93272497D01*
X149863573Y-93260676D01*
X149863105Y-93258930D01*
X149859935Y-93247096D01*
X149855376Y-93242537D01*
X149855375Y-93242535D01*
X149802905Y-93190065D01*
X149802903Y-93190064D01*
X149692409Y-93079570D01*
X149677904Y-93065065D01*
X149671672Y-93063395D01*
X149664323Y-93061426D01*
X149652506Y-93056531D01*
X149645914Y-93052725D01*
X149645911Y-93052724D01*
X149640327Y-93049500D01*
X149633879Y-93049499D01*
X149633876Y-93049499D01*
X149559679Y-93049499D01*
X149559678Y-93049499D01*
X149559674Y-93049499D01*
X149559672Y-93049499D01*
X149559671Y-93049500D01*
X149395506Y-93049500D01*
X149367904Y-93040986D01*
X149349894Y-93018403D01*
X149347734Y-92989598D01*
X149350017Y-92979592D01*
X149351392Y-92973568D01*
X149364514Y-92949825D01*
X150020430Y-92293911D01*
X150034935Y-92279406D01*
X150038573Y-92265823D01*
X150043467Y-92254007D01*
X150050500Y-92241829D01*
X150050501Y-92161176D01*
X150050500Y-92161174D01*
X150050500Y-91007179D01*
X150050500Y-90986666D01*
X150043469Y-90974490D01*
X150038573Y-90962669D01*
X150037935Y-90960288D01*
X150034935Y-90949089D01*
X150030376Y-90944530D01*
X150030375Y-90944528D01*
X149977905Y-90892058D01*
X149977903Y-90892057D01*
X149526238Y-90440392D01*
X149513114Y-90416647D01*
X149509340Y-90400112D01*
X149498014Y-90350486D01*
X149440948Y-90278929D01*
X149431751Y-90274500D01*
X149363460Y-90241612D01*
X149358487Y-90239217D01*
X149266961Y-90239217D01*
X149261988Y-90241611D01*
X149261987Y-90241612D01*
X149189474Y-90276533D01*
X149189472Y-90276534D01*
X149184500Y-90278929D01*
X149181058Y-90283244D01*
X149181058Y-90283245D01*
X149142050Y-90332158D01*
X149119924Y-90347857D01*
X149092837Y-90349377D01*
X149069093Y-90336254D01*
X149001746Y-90268907D01*
X148989309Y-90247823D01*
X148988623Y-90223354D01*
X148994894Y-90195882D01*
X148994894Y-90195880D01*
X148996122Y-90190500D01*
X148975756Y-90101269D01*
X148918690Y-90029712D01*
X148887831Y-90014851D01*
X148841202Y-89992395D01*
X148836229Y-89990000D01*
X148744703Y-89990000D01*
X148739730Y-89992394D01*
X148739729Y-89992395D01*
X148667216Y-90027316D01*
X148667214Y-90027317D01*
X148662242Y-90029712D01*
X148658801Y-90034026D01*
X148658798Y-90034029D01*
X148614485Y-90089596D01*
X148605176Y-90101269D01*
X148603947Y-90106650D01*
X148603947Y-90106652D01*
X148600422Y-90122096D01*
X148584810Y-90190500D01*
X148586038Y-90195880D01*
X148602705Y-90268907D01*
X148605176Y-90279731D01*
X148621340Y-90300000D01*
X148648727Y-90334342D01*
X148652852Y-90340392D01*
X148653861Y-90342139D01*
X148655531Y-90348370D01*
X148660091Y-90352930D01*
X148712560Y-90405400D01*
X148712566Y-90405405D01*
X149203791Y-90896630D01*
X149217596Y-90923975D01*
X149212465Y-90954174D01*
X149190404Y-90975425D01*
X149166750Y-90986816D01*
X149166748Y-90986817D01*
X149161776Y-90989212D01*
X149158335Y-90993526D01*
X149158332Y-90993529D01*
X149108154Y-91056450D01*
X149104710Y-91060769D01*
X149103481Y-91066150D01*
X149103481Y-91066152D01*
X149095870Y-91099500D01*
X149084344Y-91150000D01*
X149085572Y-91155380D01*
X149103481Y-91233849D01*
X149103482Y-91233851D01*
X149104710Y-91239231D01*
X149125313Y-91265065D01*
X149128809Y-91269449D01*
X149139500Y-91300001D01*
X149139500Y-91677365D01*
X149135770Y-91696117D01*
X149125148Y-91712013D01*
X148918783Y-91918376D01*
X148908646Y-91926157D01*
X148908596Y-91926185D01*
X148908588Y-91926190D01*
X148905814Y-91927793D01*
X148903547Y-91930059D01*
X148903543Y-91930063D01*
X148748459Y-92085148D01*
X148713811Y-92099500D01*
X148188976Y-92099500D01*
X148161373Y-92090986D01*
X148143363Y-92068402D01*
X148141204Y-92039597D01*
X148151322Y-91995264D01*
X148155656Y-91976277D01*
X148135290Y-91887046D01*
X148093239Y-91834317D01*
X148081667Y-91819806D01*
X148081666Y-91819805D01*
X148078224Y-91815489D01*
X148067100Y-91810132D01*
X148000736Y-91778172D01*
X147995763Y-91775777D01*
X147904237Y-91775777D01*
X147899264Y-91778171D01*
X147899263Y-91778172D01*
X147826750Y-91813093D01*
X147826748Y-91813094D01*
X147821776Y-91815489D01*
X147818335Y-91819803D01*
X147818332Y-91819806D01*
X147768154Y-91882727D01*
X147764710Y-91887046D01*
X147763481Y-91892427D01*
X147763481Y-91892429D01*
X147752584Y-91940174D01*
X147744344Y-91976277D01*
X147745572Y-91981657D01*
X147745572Y-91981659D01*
X147747498Y-91990098D01*
X147745339Y-92018902D01*
X147727328Y-92041486D01*
X147699726Y-92050000D01*
X147239827Y-92050000D01*
X147159173Y-92050000D01*
X147153588Y-92053223D01*
X147153585Y-92053225D01*
X147146992Y-92057032D01*
X147135179Y-92061925D01*
X147121596Y-92065565D01*
X147117038Y-92070122D01*
X147117036Y-92070124D01*
X147091310Y-92095850D01*
X147064565Y-92122595D01*
X147064564Y-92122596D01*
X147002010Y-92185150D01*
X146986117Y-92195770D01*
X146967365Y-92199500D01*
X146532635Y-92199500D01*
X146497987Y-92185148D01*
X145862839Y-91550000D01*
X146494344Y-91550000D01*
X146514710Y-91639231D01*
X146535312Y-91665065D01*
X146563082Y-91699887D01*
X146571776Y-91710788D01*
X146654237Y-91750500D01*
X146740243Y-91750500D01*
X146745763Y-91750500D01*
X146828224Y-91710788D01*
X146885290Y-91639231D01*
X146905656Y-91550000D01*
X146885290Y-91460769D01*
X146841987Y-91406470D01*
X146831667Y-91393529D01*
X146831666Y-91393528D01*
X146828224Y-91389212D01*
X146811238Y-91381032D01*
X146750736Y-91351895D01*
X146745763Y-91349500D01*
X146654237Y-91349500D01*
X146649264Y-91351894D01*
X146649263Y-91351895D01*
X146576750Y-91386816D01*
X146576748Y-91386817D01*
X146571776Y-91389212D01*
X146568335Y-91393526D01*
X146568332Y-91393529D01*
X146518154Y-91456450D01*
X146514710Y-91460769D01*
X146494344Y-91550000D01*
X145862839Y-91550000D01*
X144932465Y-90619626D01*
X144927904Y-90615065D01*
X144921672Y-90613395D01*
X144914323Y-90611426D01*
X144902506Y-90606531D01*
X144895914Y-90602725D01*
X144895911Y-90602724D01*
X144891193Y-90600000D01*
X146644582Y-90600000D01*
X146645523Y-90604731D01*
X146661141Y-90683253D01*
X146661142Y-90683255D01*
X146662083Y-90687986D01*
X146685362Y-90722825D01*
X146691223Y-90731598D01*
X146711923Y-90762577D01*
X146786514Y-90812417D01*
X146874500Y-90829918D01*
X146962486Y-90812417D01*
X147037077Y-90762577D01*
X147086917Y-90687986D01*
X147104418Y-90600000D01*
X147086917Y-90512014D01*
X147037077Y-90437423D01*
X147015937Y-90423298D01*
X146997963Y-90411288D01*
X146962486Y-90387583D01*
X146957755Y-90386642D01*
X146957753Y-90386641D01*
X146879231Y-90371023D01*
X146874500Y-90370082D01*
X146869769Y-90371023D01*
X146791246Y-90386641D01*
X146791242Y-90386642D01*
X146786514Y-90387583D01*
X146782502Y-90390263D01*
X146782501Y-90390264D01*
X146715934Y-90434742D01*
X146715931Y-90434744D01*
X146711923Y-90437423D01*
X146709244Y-90441431D01*
X146709242Y-90441434D01*
X146668169Y-90502905D01*
X146662083Y-90512014D01*
X146661142Y-90516742D01*
X146661141Y-90516746D01*
X146649455Y-90575500D01*
X146644582Y-90600000D01*
X144891193Y-90600000D01*
X144890327Y-90599500D01*
X144883879Y-90599499D01*
X144883876Y-90599499D01*
X144809679Y-90599499D01*
X144809678Y-90599499D01*
X144809674Y-90599499D01*
X144809672Y-90599499D01*
X144809671Y-90599500D01*
X144132635Y-90599500D01*
X144097987Y-90585148D01*
X143182465Y-89669626D01*
X143177904Y-89665065D01*
X143171672Y-89663395D01*
X143164323Y-89661426D01*
X143152506Y-89656531D01*
X143145914Y-89652725D01*
X143145911Y-89652724D01*
X143140327Y-89649500D01*
X143133879Y-89649499D01*
X143133876Y-89649499D01*
X143059679Y-89649499D01*
X143059678Y-89649499D01*
X143059674Y-89649499D01*
X143059672Y-89649499D01*
X143059671Y-89649500D01*
X142832635Y-89649500D01*
X142797987Y-89635148D01*
X142737839Y-89575000D01*
X143594344Y-89575000D01*
X143595572Y-89580380D01*
X143612952Y-89656531D01*
X143614710Y-89664231D01*
X143622901Y-89674502D01*
X143655249Y-89715065D01*
X143671776Y-89735788D01*
X143754237Y-89775500D01*
X143840243Y-89775500D01*
X143845763Y-89775500D01*
X143928224Y-89735788D01*
X143985290Y-89664231D01*
X143999950Y-89600000D01*
X145557092Y-89600000D01*
X145558034Y-89604736D01*
X145575592Y-89693007D01*
X145575593Y-89693009D01*
X145576534Y-89697740D01*
X145579213Y-89701750D01*
X145579214Y-89701751D01*
X145628490Y-89775500D01*
X145631899Y-89780601D01*
X145714760Y-89835966D01*
X145812500Y-89855408D01*
X145910240Y-89835966D01*
X145993101Y-89780601D01*
X146048466Y-89697740D01*
X146067908Y-89600000D01*
X146048466Y-89502260D01*
X146044965Y-89497020D01*
X147689760Y-89497020D01*
X147692393Y-89501581D01*
X147727404Y-89536592D01*
X147730681Y-89539341D01*
X147920669Y-89672373D01*
X147924356Y-89674502D01*
X148134570Y-89772527D01*
X148138576Y-89773984D01*
X148362607Y-89834013D01*
X148366810Y-89834755D01*
X148597874Y-89854971D01*
X148602126Y-89854971D01*
X148833189Y-89834755D01*
X148837392Y-89834013D01*
X149061423Y-89773984D01*
X149065429Y-89772527D01*
X149275643Y-89674502D01*
X149279330Y-89672373D01*
X149469324Y-89539338D01*
X149472588Y-89536599D01*
X149505276Y-89503910D01*
X149508129Y-89497021D01*
X149505274Y-89490127D01*
X148606892Y-88591745D01*
X148600000Y-88588890D01*
X148593107Y-88591745D01*
X147692393Y-89492458D01*
X147689760Y-89497020D01*
X146044965Y-89497020D01*
X145993101Y-89419399D01*
X145910240Y-89364034D01*
X145905509Y-89363093D01*
X145905507Y-89363092D01*
X145817236Y-89345534D01*
X145812500Y-89344592D01*
X145807764Y-89345534D01*
X145719492Y-89363092D01*
X145719488Y-89363093D01*
X145714760Y-89364034D01*
X145710750Y-89366712D01*
X145710748Y-89366714D01*
X145635910Y-89416718D01*
X145635907Y-89416720D01*
X145631899Y-89419399D01*
X145629220Y-89423407D01*
X145629218Y-89423410D01*
X145579214Y-89498248D01*
X145579212Y-89498250D01*
X145576534Y-89502260D01*
X145575593Y-89506988D01*
X145575592Y-89506992D01*
X145569158Y-89539341D01*
X145557092Y-89600000D01*
X143999950Y-89600000D01*
X144005656Y-89575000D01*
X143985290Y-89485769D01*
X143928224Y-89414212D01*
X143909664Y-89405274D01*
X143850736Y-89376895D01*
X143845763Y-89374500D01*
X143754237Y-89374500D01*
X143749264Y-89376894D01*
X143749263Y-89376895D01*
X143676750Y-89411816D01*
X143676748Y-89411817D01*
X143671776Y-89414212D01*
X143668335Y-89418526D01*
X143668332Y-89418529D01*
X143630874Y-89465500D01*
X143614710Y-89485769D01*
X143613481Y-89491150D01*
X143613481Y-89491152D01*
X143602483Y-89539338D01*
X143594344Y-89575000D01*
X142737839Y-89575000D01*
X142392409Y-89229570D01*
X142392409Y-89229569D01*
X142377904Y-89215065D01*
X142364323Y-89211426D01*
X142352506Y-89206531D01*
X142345914Y-89202725D01*
X142345911Y-89202724D01*
X142340327Y-89199500D01*
X142333879Y-89199499D01*
X142333876Y-89199499D01*
X142259679Y-89199499D01*
X142259678Y-89199499D01*
X142259674Y-89199499D01*
X142259672Y-89199499D01*
X142259671Y-89199500D01*
X140732635Y-89199500D01*
X140697987Y-89185148D01*
X140364852Y-88852013D01*
X140350500Y-88817365D01*
X140350500Y-88502126D01*
X147245029Y-88502126D01*
X147265244Y-88733189D01*
X147265986Y-88737392D01*
X147326015Y-88961423D01*
X147327472Y-88965429D01*
X147425497Y-89175643D01*
X147427626Y-89179330D01*
X147560658Y-89369318D01*
X147563407Y-89372595D01*
X147596086Y-89405274D01*
X147602979Y-89408129D01*
X147609871Y-89405274D01*
X148510585Y-88504561D01*
X148513218Y-88500000D01*
X148688890Y-88500000D01*
X148691745Y-88506892D01*
X149590127Y-89405274D01*
X149597021Y-89408129D01*
X149603910Y-89405276D01*
X149636599Y-89372588D01*
X149639338Y-89369324D01*
X149772373Y-89179330D01*
X149774502Y-89175643D01*
X149872527Y-88965429D01*
X149873984Y-88961423D01*
X149934013Y-88737392D01*
X149934755Y-88733189D01*
X149954971Y-88502126D01*
X149954971Y-88497874D01*
X149934755Y-88266810D01*
X149934013Y-88262607D01*
X149873984Y-88038576D01*
X149872527Y-88034570D01*
X149774502Y-87824358D01*
X149772373Y-87820670D01*
X149639341Y-87630681D01*
X149636592Y-87627404D01*
X149601581Y-87592393D01*
X149597020Y-87589760D01*
X149592458Y-87592393D01*
X148691745Y-88493107D01*
X148688890Y-88500000D01*
X148513218Y-88500000D01*
X148510585Y-88495438D01*
X147607540Y-87592393D01*
X147602978Y-87589759D01*
X147598418Y-87592392D01*
X147563401Y-87627410D01*
X147560661Y-87630676D01*
X147427626Y-87820670D01*
X147425497Y-87824358D01*
X147327472Y-88034570D01*
X147326015Y-88038576D01*
X147265986Y-88262607D01*
X147265244Y-88266810D01*
X147245029Y-88497874D01*
X147245029Y-88502126D01*
X140350500Y-88502126D01*
X140350500Y-87502978D01*
X147689759Y-87502978D01*
X147692393Y-87507540D01*
X148595438Y-88410585D01*
X148599999Y-88413218D01*
X148604561Y-88410585D01*
X149505274Y-87509871D01*
X149508129Y-87502979D01*
X149505274Y-87496086D01*
X149472595Y-87463407D01*
X149469318Y-87460658D01*
X149279330Y-87327626D01*
X149275643Y-87325497D01*
X149065429Y-87227472D01*
X149061423Y-87226015D01*
X148837392Y-87165986D01*
X148833189Y-87165244D01*
X148602126Y-87145029D01*
X148597874Y-87145029D01*
X148366810Y-87165244D01*
X148362607Y-87165986D01*
X148138576Y-87226015D01*
X148134570Y-87227472D01*
X147924358Y-87325497D01*
X147920670Y-87327626D01*
X147730676Y-87460661D01*
X147727410Y-87463401D01*
X147692392Y-87498418D01*
X147689759Y-87502978D01*
X140350500Y-87502978D01*
X140350500Y-87200001D01*
X140361191Y-87169449D01*
X140363953Y-87165986D01*
X140385290Y-87139231D01*
X140405656Y-87050000D01*
X140385290Y-86960769D01*
X140328224Y-86889212D01*
X140296821Y-86874089D01*
X140250736Y-86851895D01*
X140245763Y-86849500D01*
X140154237Y-86849500D01*
X140149264Y-86851894D01*
X140149263Y-86851895D01*
X140076750Y-86886816D01*
X140076748Y-86886817D01*
X140071776Y-86889212D01*
X140068335Y-86893526D01*
X140068332Y-86893529D01*
X140063309Y-86899829D01*
X140039443Y-86916101D01*
X140010557Y-86916101D01*
X139986691Y-86899829D01*
X139981667Y-86893529D01*
X139981666Y-86893528D01*
X139978224Y-86889212D01*
X139946821Y-86874089D01*
X139900736Y-86851895D01*
X139895763Y-86849500D01*
X139804237Y-86849500D01*
X139799264Y-86851894D01*
X139799263Y-86851895D01*
X139726750Y-86886816D01*
X139726748Y-86886817D01*
X139721776Y-86889212D01*
X139718335Y-86893526D01*
X139718332Y-86893529D01*
X139675000Y-86947866D01*
X139664710Y-86960769D01*
X139663481Y-86966150D01*
X139663481Y-86966152D01*
X139653726Y-87008892D01*
X139644344Y-87050000D01*
X139645572Y-87055380D01*
X139663481Y-87133849D01*
X139663482Y-87133851D01*
X139664710Y-87139231D01*
X139686047Y-87165986D01*
X139688809Y-87169449D01*
X139699500Y-87200001D01*
X139699500Y-87554027D01*
X139690463Y-87582382D01*
X139666684Y-87600277D01*
X139636936Y-87601112D01*
X139612192Y-87584579D01*
X139603924Y-87574212D01*
X139580910Y-87563129D01*
X139526436Y-87536895D01*
X139521463Y-87534500D01*
X139429937Y-87534500D01*
X139424964Y-87536894D01*
X139424963Y-87536895D01*
X139352450Y-87571816D01*
X139352448Y-87571817D01*
X139347476Y-87574212D01*
X139344035Y-87578526D01*
X139344032Y-87578529D01*
X139293854Y-87641450D01*
X139290410Y-87645769D01*
X139270044Y-87735000D01*
X139290410Y-87824231D01*
X139293854Y-87828549D01*
X139340960Y-87887618D01*
X139347476Y-87895788D01*
X139429937Y-87935500D01*
X139515943Y-87935500D01*
X139521463Y-87935500D01*
X139603924Y-87895788D01*
X139612192Y-87885420D01*
X139636936Y-87868888D01*
X139666684Y-87869723D01*
X139690463Y-87887618D01*
X139699500Y-87915973D01*
X139699500Y-89084027D01*
X139690463Y-89112382D01*
X139666684Y-89130277D01*
X139636936Y-89131112D01*
X139612192Y-89114579D01*
X139603924Y-89104212D01*
X139521463Y-89064500D01*
X139429937Y-89064500D01*
X139424964Y-89066894D01*
X139424963Y-89066895D01*
X139352450Y-89101816D01*
X139352448Y-89101817D01*
X139347476Y-89104212D01*
X139344035Y-89108526D01*
X139344032Y-89108529D01*
X139293854Y-89171450D01*
X139290410Y-89175769D01*
X139289181Y-89181150D01*
X139289181Y-89181152D01*
X139276907Y-89234929D01*
X139270044Y-89265000D01*
X139290410Y-89354231D01*
X139308484Y-89376895D01*
X139342380Y-89419399D01*
X139347476Y-89425788D01*
X139429937Y-89465500D01*
X139515943Y-89465500D01*
X139521463Y-89465500D01*
X139603924Y-89425788D01*
X139660990Y-89354231D01*
X139681356Y-89265000D01*
X139680370Y-89260680D01*
X139694480Y-89226617D01*
X139729128Y-89212265D01*
X139763776Y-89226617D01*
X139772088Y-89234929D01*
X139772100Y-89234939D01*
X139965344Y-89428183D01*
X140153014Y-89615852D01*
X140166424Y-89640941D01*
X140163636Y-89669251D01*
X140145589Y-89691242D01*
X140118366Y-89699500D01*
X139540827Y-89699500D01*
X139460173Y-89699500D01*
X139454588Y-89702723D01*
X139454585Y-89702725D01*
X139447992Y-89706532D01*
X139436179Y-89711425D01*
X139422596Y-89715065D01*
X139418038Y-89719622D01*
X139418036Y-89719624D01*
X139391770Y-89745890D01*
X139365565Y-89772095D01*
X139365564Y-89772096D01*
X139302010Y-89835650D01*
X139286117Y-89846270D01*
X139267365Y-89850000D01*
X139254237Y-89850000D01*
X139249264Y-89852394D01*
X139249263Y-89852395D01*
X139176750Y-89887316D01*
X139176748Y-89887317D01*
X139171776Y-89889712D01*
X139168335Y-89894026D01*
X139168332Y-89894029D01*
X139118153Y-89956951D01*
X139118152Y-89956952D01*
X139114710Y-89961269D01*
X139113481Y-89966650D01*
X139113481Y-89966652D01*
X139103267Y-90011404D01*
X139086047Y-90038810D01*
X139055496Y-90049500D01*
X137340327Y-90049500D01*
X137259673Y-90049500D01*
X137254088Y-90052723D01*
X137254085Y-90052725D01*
X137247492Y-90056532D01*
X137235679Y-90061425D01*
X137222096Y-90065065D01*
X137217538Y-90069622D01*
X137217536Y-90069624D01*
X137165064Y-90122096D01*
X136952013Y-90335148D01*
X136936117Y-90345770D01*
X136917365Y-90349500D01*
X135640327Y-90349500D01*
X135559673Y-90349500D01*
X135554088Y-90352723D01*
X135554085Y-90352725D01*
X135547492Y-90356532D01*
X135535679Y-90361425D01*
X135522096Y-90365065D01*
X135517538Y-90369622D01*
X135517536Y-90369624D01*
X135491270Y-90395890D01*
X135465065Y-90422095D01*
X135465064Y-90422096D01*
X135355859Y-90531302D01*
X135252013Y-90635148D01*
X135236117Y-90645770D01*
X135217365Y-90649500D01*
X134769000Y-90649500D01*
X134734352Y-90635148D01*
X134720000Y-90600500D01*
X134720000Y-89753749D01*
X134720166Y-89749920D01*
X134720500Y-89748031D01*
X134720500Y-89650000D01*
X134720500Y-89617712D01*
X134720500Y-89497020D01*
X135689760Y-89497020D01*
X135692393Y-89501581D01*
X135727404Y-89536592D01*
X135730681Y-89539341D01*
X135920669Y-89672373D01*
X135924356Y-89674502D01*
X136134570Y-89772527D01*
X136138576Y-89773984D01*
X136362607Y-89834013D01*
X136366810Y-89834755D01*
X136597874Y-89854971D01*
X136602126Y-89854971D01*
X136833189Y-89834755D01*
X136837392Y-89834013D01*
X137061423Y-89773984D01*
X137065429Y-89772527D01*
X137275643Y-89674502D01*
X137279330Y-89672373D01*
X137469324Y-89539338D01*
X137472588Y-89536599D01*
X137505276Y-89503910D01*
X137508129Y-89497021D01*
X137505274Y-89490127D01*
X136606892Y-88591745D01*
X136600000Y-88588890D01*
X136593107Y-88591745D01*
X135692393Y-89492458D01*
X135689760Y-89497020D01*
X134720500Y-89497020D01*
X134720500Y-88502126D01*
X135245029Y-88502126D01*
X135265244Y-88733189D01*
X135265986Y-88737392D01*
X135326015Y-88961423D01*
X135327472Y-88965429D01*
X135425497Y-89175643D01*
X135427626Y-89179330D01*
X135560658Y-89369318D01*
X135563407Y-89372595D01*
X135596086Y-89405274D01*
X135602979Y-89408129D01*
X135609871Y-89405274D01*
X136510585Y-88504561D01*
X136513218Y-88500000D01*
X136688890Y-88500000D01*
X136691745Y-88506892D01*
X137590127Y-89405274D01*
X137597021Y-89408129D01*
X137603910Y-89405276D01*
X137636599Y-89372588D01*
X137639338Y-89369324D01*
X137772373Y-89179330D01*
X137774502Y-89175643D01*
X137872527Y-88965429D01*
X137873984Y-88961423D01*
X137934013Y-88737392D01*
X137934755Y-88733189D01*
X137954971Y-88502126D01*
X137954971Y-88497874D01*
X137934755Y-88266810D01*
X137934013Y-88262607D01*
X137873984Y-88038576D01*
X137872527Y-88034570D01*
X137774502Y-87824358D01*
X137772373Y-87820670D01*
X137639341Y-87630681D01*
X137636592Y-87627404D01*
X137601581Y-87592393D01*
X137597020Y-87589760D01*
X137592458Y-87592393D01*
X136691745Y-88493107D01*
X136688890Y-88500000D01*
X136513218Y-88500000D01*
X136510585Y-88495438D01*
X135607540Y-87592393D01*
X135602978Y-87589759D01*
X135598418Y-87592392D01*
X135563401Y-87627410D01*
X135560661Y-87630676D01*
X135427626Y-87820670D01*
X135425497Y-87824358D01*
X135327472Y-88034570D01*
X135326015Y-88038576D01*
X135265986Y-88262607D01*
X135265244Y-88266810D01*
X135245029Y-88497874D01*
X135245029Y-88502126D01*
X134720500Y-88502126D01*
X134720500Y-88501603D01*
X134720605Y-88498398D01*
X134720952Y-88493107D01*
X134736369Y-88257871D01*
X134737206Y-88251522D01*
X134770246Y-88085423D01*
X134783914Y-88016702D01*
X134785572Y-88010515D01*
X134811036Y-87935500D01*
X134862539Y-87783777D01*
X134864984Y-87777874D01*
X134970892Y-87563114D01*
X134974080Y-87557593D01*
X135010572Y-87502978D01*
X135689759Y-87502978D01*
X135692393Y-87507540D01*
X136595438Y-88410585D01*
X136599999Y-88413218D01*
X136604561Y-88410585D01*
X137505274Y-87509871D01*
X137508129Y-87502979D01*
X137505274Y-87496086D01*
X137472595Y-87463407D01*
X137469318Y-87460658D01*
X137279330Y-87327626D01*
X137275643Y-87325497D01*
X137065429Y-87227472D01*
X137061423Y-87226015D01*
X136837392Y-87165986D01*
X136833189Y-87165244D01*
X136602126Y-87145029D01*
X136597874Y-87145029D01*
X136366810Y-87165244D01*
X136362607Y-87165986D01*
X136138576Y-87226015D01*
X136134570Y-87227472D01*
X135924358Y-87325497D01*
X135920670Y-87327626D01*
X135730676Y-87460661D01*
X135727410Y-87463401D01*
X135692392Y-87498418D01*
X135689759Y-87502978D01*
X135010572Y-87502978D01*
X135107112Y-87358495D01*
X135111004Y-87353424D01*
X135268882Y-87173399D01*
X135273399Y-87168882D01*
X135453424Y-87011004D01*
X135458495Y-87007112D01*
X135657593Y-86874080D01*
X135663114Y-86870892D01*
X135877874Y-86764984D01*
X135883777Y-86762539D01*
X136110518Y-86685571D01*
X136116702Y-86683914D01*
X136351527Y-86637205D01*
X136357871Y-86636369D01*
X136598397Y-86620605D01*
X136601603Y-86620500D01*
X143095562Y-86620500D01*
X143098777Y-86620500D01*
X143169051Y-86601669D01*
X143181733Y-86600000D01*
X144218267Y-86600000D01*
X144230948Y-86601669D01*
G37*
%TD.AperFunction*%
%TA.AperFunction,Conductor*%
G36*
X148387807Y-96518194D02*
G01*
X148421776Y-96560788D01*
X148504237Y-96600500D01*
X148517365Y-96600500D01*
X148552013Y-96614852D01*
X148715065Y-96777904D01*
X148772096Y-96834935D01*
X148785677Y-96838573D01*
X148797497Y-96843469D01*
X148809673Y-96850500D01*
X148890326Y-96850501D01*
X148890328Y-96850500D01*
X149317365Y-96850500D01*
X149352013Y-96864852D01*
X149375148Y-96887987D01*
X149389500Y-96922635D01*
X149389500Y-97657365D01*
X149375148Y-97692013D01*
X149182013Y-97885148D01*
X149147365Y-97899500D01*
X146882135Y-97899500D01*
X146847487Y-97885148D01*
X146127755Y-97165416D01*
X146127755Y-97165415D01*
X146113250Y-97150911D01*
X146099669Y-97147272D01*
X146087852Y-97142377D01*
X146081260Y-97138571D01*
X146081257Y-97138570D01*
X146075673Y-97135346D01*
X146069225Y-97135345D01*
X146069222Y-97135345D01*
X145995025Y-97135345D01*
X145995024Y-97135345D01*
X145995020Y-97135345D01*
X145995018Y-97135345D01*
X145995017Y-97135346D01*
X145029287Y-97135346D01*
X145001723Y-97125700D01*
X145001211Y-97125058D01*
X144918750Y-97085346D01*
X144827224Y-97085346D01*
X144822253Y-97087739D01*
X144822248Y-97087741D01*
X144762035Y-97116739D01*
X144733467Y-97121044D01*
X144707439Y-97108505D01*
X144697331Y-97090988D01*
X144696109Y-97091577D01*
X144693712Y-97086602D01*
X144692484Y-97081218D01*
X144635418Y-97009661D01*
X144625220Y-97004750D01*
X144557930Y-96972344D01*
X144552957Y-96969949D01*
X144461431Y-96969949D01*
X144456460Y-96972342D01*
X144456459Y-96972343D01*
X144396428Y-97001253D01*
X144384129Y-97002290D01*
X144380104Y-97009114D01*
X144378970Y-97009661D01*
X144375530Y-97013974D01*
X144375528Y-97013976D01*
X144332214Y-97068290D01*
X144321904Y-97081218D01*
X144320675Y-97086599D01*
X144320675Y-97086601D01*
X144308814Y-97138571D01*
X144301538Y-97170449D01*
X144302766Y-97175829D01*
X144318098Y-97243007D01*
X144321904Y-97259680D01*
X144340075Y-97282465D01*
X144374721Y-97325910D01*
X144378970Y-97331237D01*
X144461431Y-97370949D01*
X144547437Y-97370949D01*
X144552957Y-97370949D01*
X144618146Y-97339554D01*
X144646702Y-97335248D01*
X144672725Y-97347775D01*
X144682854Y-97365306D01*
X144684073Y-97364720D01*
X144686468Y-97369693D01*
X144687697Y-97375077D01*
X144691140Y-97379394D01*
X144740868Y-97441751D01*
X144744763Y-97446634D01*
X144753202Y-97450698D01*
X144763906Y-97455853D01*
X144786793Y-97478740D01*
X144790416Y-97510904D01*
X144773196Y-97538310D01*
X144742645Y-97549000D01*
X143350827Y-97549000D01*
X143270173Y-97549000D01*
X143264588Y-97552223D01*
X143264585Y-97552225D01*
X143257992Y-97556032D01*
X143246180Y-97560925D01*
X143238824Y-97562896D01*
X143238823Y-97562896D01*
X143232596Y-97564565D01*
X143230263Y-97566897D01*
X143198487Y-97572141D01*
X143169174Y-97553910D01*
X143159155Y-97520877D01*
X143173400Y-97489437D01*
X143743313Y-96919525D01*
X143777962Y-96905173D01*
X143891102Y-96905173D01*
X143897553Y-96905173D01*
X143909731Y-96898140D01*
X143921547Y-96893246D01*
X143935130Y-96889608D01*
X143967657Y-96857081D01*
X143991399Y-96843960D01*
X144018486Y-96845481D01*
X144040612Y-96861180D01*
X144084330Y-96916000D01*
X144087952Y-96920541D01*
X144170413Y-96960253D01*
X144256419Y-96960253D01*
X144261939Y-96960253D01*
X144326941Y-96928948D01*
X144339239Y-96927911D01*
X144343265Y-96921087D01*
X144344400Y-96920541D01*
X144401466Y-96848984D01*
X144408401Y-96818596D01*
X144425622Y-96791190D01*
X144456173Y-96780500D01*
X145130186Y-96780500D01*
X145169814Y-96780500D01*
X145947365Y-96780500D01*
X145982013Y-96794852D01*
X146378103Y-97190941D01*
X146765065Y-97577903D01*
X146765065Y-97577904D01*
X146822096Y-97634935D01*
X146835677Y-97638573D01*
X146847497Y-97643469D01*
X146859673Y-97650500D01*
X146940326Y-97650501D01*
X146940328Y-97650500D01*
X147809673Y-97650500D01*
X147869814Y-97650500D01*
X147890327Y-97650500D01*
X147902505Y-97643467D01*
X147914321Y-97638573D01*
X147927904Y-97634935D01*
X147984935Y-97577905D01*
X147984935Y-97577903D01*
X148270430Y-97292409D01*
X148284935Y-97277904D01*
X148288573Y-97264321D01*
X148293467Y-97252505D01*
X148300500Y-97240327D01*
X148300501Y-97159674D01*
X148300500Y-97159672D01*
X148300500Y-96548747D01*
X148309537Y-96520392D01*
X148333316Y-96502497D01*
X148363064Y-96501662D01*
X148387807Y-96518194D01*
G37*
%TD.AperFunction*%
%TA.AperFunction,Conductor*%
G36*
X139153012Y-90964852D02*
G01*
X139167364Y-90999500D01*
X139153012Y-91034148D01*
X138922096Y-91265065D01*
X138869626Y-91317534D01*
X138869624Y-91317536D01*
X138865065Y-91322096D01*
X138863396Y-91328323D01*
X138863395Y-91328326D01*
X138861425Y-91335680D01*
X138856532Y-91347492D01*
X138852725Y-91354085D01*
X138852723Y-91354088D01*
X138849500Y-91359673D01*
X138849499Y-91366119D01*
X138849499Y-91366123D01*
X138849499Y-91400000D01*
X138849499Y-91440326D01*
X138849500Y-91440330D01*
X138849500Y-91651581D01*
X138840986Y-91679183D01*
X138818403Y-91697193D01*
X138795763Y-91698891D01*
X138795763Y-91699500D01*
X138704237Y-91699500D01*
X138699264Y-91701894D01*
X138699263Y-91701895D01*
X138626750Y-91736816D01*
X138626748Y-91736817D01*
X138621776Y-91739212D01*
X138618335Y-91743526D01*
X138618332Y-91743529D01*
X138568153Y-91806451D01*
X138568152Y-91806452D01*
X138564710Y-91810769D01*
X138563481Y-91816150D01*
X138563481Y-91816152D01*
X138549609Y-91876930D01*
X138536488Y-91900672D01*
X138472096Y-91965065D01*
X138419626Y-92017534D01*
X138419624Y-92017536D01*
X138415065Y-92022096D01*
X138413396Y-92028323D01*
X138413395Y-92028326D01*
X138411425Y-92035680D01*
X138406532Y-92047492D01*
X138402725Y-92054085D01*
X138402723Y-92054088D01*
X138399500Y-92059673D01*
X138399499Y-92066119D01*
X138399499Y-92066123D01*
X138399499Y-92101751D01*
X138399499Y-92140326D01*
X138399500Y-92140328D01*
X138399500Y-93294870D01*
X138390989Y-93316259D01*
X138399500Y-93339530D01*
X138399500Y-93559673D01*
X138399500Y-93640327D01*
X138402724Y-93645911D01*
X138402725Y-93645914D01*
X138406531Y-93652506D01*
X138411426Y-93664323D01*
X138413395Y-93671674D01*
X138413396Y-93671676D01*
X138415065Y-93677904D01*
X138419624Y-93682463D01*
X138465149Y-93727989D01*
X138479500Y-93762637D01*
X138479500Y-96739673D01*
X138479500Y-96820327D01*
X138482724Y-96825911D01*
X138482725Y-96825914D01*
X138486531Y-96832506D01*
X138491426Y-96844323D01*
X138493395Y-96851674D01*
X138493396Y-96851676D01*
X138495065Y-96857904D01*
X138526372Y-96889212D01*
X138552094Y-96914934D01*
X138552100Y-96914939D01*
X138786486Y-97149325D01*
X138799609Y-97173069D01*
X138812364Y-97228956D01*
X138814710Y-97239231D01*
X138818152Y-97243547D01*
X138867464Y-97305382D01*
X138871776Y-97310788D01*
X138954237Y-97350500D01*
X139040243Y-97350500D01*
X139045763Y-97350500D01*
X139114212Y-97317535D01*
X139147709Y-97314236D01*
X139175433Y-97333328D01*
X139184298Y-97365801D01*
X139170119Y-97396331D01*
X138881303Y-97685148D01*
X138865407Y-97695770D01*
X138846655Y-97699500D01*
X136766391Y-97699500D01*
X136734083Y-97687340D01*
X136717810Y-97656896D01*
X136725649Y-97623278D01*
X136742876Y-97597494D01*
X136742876Y-97597493D01*
X136745558Y-97593480D01*
X136765000Y-97495740D01*
X136745558Y-97398000D01*
X136722295Y-97363183D01*
X136718350Y-97357279D01*
X136710092Y-97330057D01*
X136710092Y-94291980D01*
X136711563Y-94283320D01*
X136711512Y-94283315D01*
X136712129Y-94277831D01*
X136713954Y-94272618D01*
X136710400Y-94241070D01*
X136710092Y-94235585D01*
X136710092Y-94229757D01*
X136710092Y-94227002D01*
X136708179Y-94218625D01*
X136707263Y-94213229D01*
X136703708Y-94181668D01*
X136700770Y-94176993D01*
X136698947Y-94171782D01*
X136698995Y-94171765D01*
X136698553Y-94170696D01*
X136698507Y-94170719D01*
X136696110Y-94165742D01*
X136694882Y-94160361D01*
X136675088Y-94135541D01*
X136671907Y-94131058D01*
X136668804Y-94126120D01*
X136668803Y-94126119D01*
X136667340Y-94123790D01*
X136661273Y-94117723D01*
X136657611Y-94113626D01*
X136651419Y-94105862D01*
X136637816Y-94088804D01*
X136632842Y-94086408D01*
X136628527Y-94082967D01*
X136628558Y-94082927D01*
X136621392Y-94077842D01*
X136519921Y-93976371D01*
X136414851Y-93871302D01*
X136404230Y-93855407D01*
X136400500Y-93836655D01*
X136400500Y-93643345D01*
X136414852Y-93608697D01*
X136487718Y-93535831D01*
X136561802Y-93461746D01*
X136568965Y-93456665D01*
X136568933Y-93456625D01*
X136573246Y-93453184D01*
X136578224Y-93450788D01*
X136598029Y-93425951D01*
X136601667Y-93421882D01*
X136607748Y-93415802D01*
X136609978Y-93412253D01*
X136612312Y-93408537D01*
X136615485Y-93404062D01*
X136635290Y-93379231D01*
X136636518Y-93373844D01*
X136638914Y-93368871D01*
X136638961Y-93368893D01*
X136639402Y-93367828D01*
X136639352Y-93367811D01*
X136641174Y-93362603D01*
X136644115Y-93357924D01*
X136647670Y-93326364D01*
X136648586Y-93320973D01*
X136650500Y-93312590D01*
X136650500Y-93304004D01*
X136650808Y-93298518D01*
X136653744Y-93272460D01*
X136653743Y-93272459D01*
X136654362Y-93266974D01*
X136652538Y-93261761D01*
X136651920Y-93256277D01*
X136651971Y-93256271D01*
X136650500Y-93247612D01*
X136650500Y-93115683D01*
X136658758Y-93088461D01*
X136669693Y-93072095D01*
X136685966Y-93047740D01*
X136695520Y-92999703D01*
X136708929Y-92974618D01*
X136776834Y-92906713D01*
X136808275Y-92892468D01*
X136841309Y-92902489D01*
X136859538Y-92931803D01*
X136875276Y-93010923D01*
X136875277Y-93010925D01*
X136876218Y-93015656D01*
X136878897Y-93019666D01*
X136878898Y-93019667D01*
X136913928Y-93072095D01*
X136931583Y-93098517D01*
X137014444Y-93153882D01*
X137090488Y-93169008D01*
X137106779Y-93172249D01*
X137112184Y-93173324D01*
X137117589Y-93172249D01*
X137127523Y-93170272D01*
X137209924Y-93153882D01*
X137292785Y-93098517D01*
X137348150Y-93015656D01*
X137351264Y-93000000D01*
X137544592Y-93000000D01*
X137545534Y-93004736D01*
X137563092Y-93093007D01*
X137563093Y-93093009D01*
X137564034Y-93097740D01*
X137566713Y-93101750D01*
X137566714Y-93101751D01*
X137614536Y-93173324D01*
X137619399Y-93180601D01*
X137702260Y-93235966D01*
X137750295Y-93245520D01*
X137775381Y-93258930D01*
X137885148Y-93368697D01*
X137899500Y-93403345D01*
X137899500Y-96984317D01*
X137891242Y-97011539D01*
X137866716Y-97048245D01*
X137866714Y-97048247D01*
X137864034Y-97052260D01*
X137863092Y-97056994D01*
X137863092Y-97056995D01*
X137847046Y-97137661D01*
X137844592Y-97150000D01*
X137845534Y-97154736D01*
X137863092Y-97243007D01*
X137863093Y-97243009D01*
X137864034Y-97247740D01*
X137866713Y-97251750D01*
X137866714Y-97251751D01*
X137916264Y-97325910D01*
X137919399Y-97330601D01*
X138002260Y-97385966D01*
X138100000Y-97405408D01*
X138197740Y-97385966D01*
X138280601Y-97330601D01*
X138335966Y-97247740D01*
X138355408Y-97150000D01*
X138335966Y-97052260D01*
X138313297Y-97018333D01*
X138308758Y-97011539D01*
X138300500Y-96984317D01*
X138300500Y-93342388D01*
X138303248Y-93326208D01*
X138304250Y-93323345D01*
X138310212Y-93316080D01*
X138301808Y-93300355D01*
X138300808Y-93291478D01*
X138300500Y-93285993D01*
X138300500Y-93280165D01*
X138300500Y-93277410D01*
X138298587Y-93269033D01*
X138297671Y-93263637D01*
X138294116Y-93232076D01*
X138291178Y-93227401D01*
X138289355Y-93222190D01*
X138289403Y-93222173D01*
X138288960Y-93221103D01*
X138288914Y-93221126D01*
X138286518Y-93216150D01*
X138285290Y-93210769D01*
X138268779Y-93190065D01*
X138265486Y-93185935D01*
X138262316Y-93181468D01*
X138257748Y-93174199D01*
X138251681Y-93168132D01*
X138248028Y-93164045D01*
X138228224Y-93139212D01*
X138223249Y-93136816D01*
X138218933Y-93133374D01*
X138218964Y-93133334D01*
X138211798Y-93128249D01*
X138058930Y-92975381D01*
X138045520Y-92950295D01*
X138035966Y-92902260D01*
X137980601Y-92819399D01*
X137975759Y-92816164D01*
X137901751Y-92766714D01*
X137901750Y-92766713D01*
X137897740Y-92764034D01*
X137893009Y-92763093D01*
X137893007Y-92763092D01*
X137804736Y-92745534D01*
X137800000Y-92744592D01*
X137795264Y-92745534D01*
X137706992Y-92763092D01*
X137706988Y-92763093D01*
X137702260Y-92764034D01*
X137698250Y-92766712D01*
X137698248Y-92766714D01*
X137623410Y-92816718D01*
X137623407Y-92816720D01*
X137619399Y-92819399D01*
X137616720Y-92823407D01*
X137616718Y-92823410D01*
X137566714Y-92898248D01*
X137566712Y-92898250D01*
X137564034Y-92902260D01*
X137563093Y-92906988D01*
X137563092Y-92906992D01*
X137546357Y-92991126D01*
X137544592Y-93000000D01*
X137351264Y-93000000D01*
X137367592Y-92917916D01*
X137364310Y-92901419D01*
X137353734Y-92848248D01*
X137348150Y-92820176D01*
X137292785Y-92737315D01*
X137287638Y-92733876D01*
X137213935Y-92684630D01*
X137213934Y-92684629D01*
X137209924Y-92681950D01*
X137205193Y-92681009D01*
X137205191Y-92681008D01*
X137126072Y-92665270D01*
X137096757Y-92647041D01*
X137086737Y-92614007D01*
X137100982Y-92582566D01*
X137243697Y-92439852D01*
X137278346Y-92425500D01*
X137632612Y-92425500D01*
X137641271Y-92426971D01*
X137641277Y-92426920D01*
X137646760Y-92427537D01*
X137651974Y-92429362D01*
X137683521Y-92425808D01*
X137689007Y-92425500D01*
X137694836Y-92425500D01*
X137697590Y-92425500D01*
X137705960Y-92423589D01*
X137711367Y-92422670D01*
X137742924Y-92419116D01*
X137747598Y-92416178D01*
X137752812Y-92414354D01*
X137752829Y-92414402D01*
X137753894Y-92413961D01*
X137753872Y-92413914D01*
X137758844Y-92411519D01*
X137764231Y-92410290D01*
X137789064Y-92390485D01*
X137793537Y-92387312D01*
X137800801Y-92382748D01*
X137806877Y-92376671D01*
X137810946Y-92373033D01*
X137835788Y-92353224D01*
X137838183Y-92348249D01*
X137841626Y-92343932D01*
X137841665Y-92343963D01*
X137846747Y-92336800D01*
X138412302Y-91771246D01*
X138419465Y-91766165D01*
X138419433Y-91766125D01*
X138423746Y-91762684D01*
X138428724Y-91760288D01*
X138448529Y-91735451D01*
X138452167Y-91731382D01*
X138458249Y-91725301D01*
X138462816Y-91718031D01*
X138465989Y-91713559D01*
X138485790Y-91688731D01*
X138487019Y-91683344D01*
X138489414Y-91678372D01*
X138489461Y-91678394D01*
X138489902Y-91677329D01*
X138489854Y-91677312D01*
X138491678Y-91672098D01*
X138494616Y-91667424D01*
X138498172Y-91635856D01*
X138499088Y-91630461D01*
X138501000Y-91622090D01*
X138501000Y-91613512D01*
X138501308Y-91608026D01*
X138504245Y-91581959D01*
X138504244Y-91581958D01*
X138504863Y-91576473D01*
X138503039Y-91571260D01*
X138502421Y-91565777D01*
X138502471Y-91565771D01*
X138501000Y-91557109D01*
X138501000Y-90999500D01*
X138515352Y-90964852D01*
X138550000Y-90950500D01*
X139118364Y-90950500D01*
X139153012Y-90964852D01*
G37*
%TD.AperFunction*%
%TA.AperFunction,Conductor*%
G36*
X143937488Y-96378758D02*
G01*
X143955535Y-96400749D01*
X143958323Y-96429060D01*
X143944913Y-96454147D01*
X143870810Y-96528250D01*
X143809239Y-96589821D01*
X143774591Y-96604173D01*
X143763611Y-96604173D01*
X143761055Y-96604005D01*
X143759814Y-96603673D01*
X143736154Y-96603673D01*
X143655500Y-96603673D01*
X143649915Y-96606896D01*
X143649912Y-96606898D01*
X143643319Y-96610705D01*
X143631506Y-96615598D01*
X143617923Y-96619238D01*
X143613365Y-96623795D01*
X143613363Y-96623797D01*
X143586563Y-96650597D01*
X143560892Y-96676268D01*
X143560891Y-96676269D01*
X143126392Y-97110769D01*
X142697013Y-97540148D01*
X142681117Y-97550770D01*
X142662365Y-97554500D01*
X142148312Y-97554500D01*
X142117762Y-97543810D01*
X142100541Y-97516405D01*
X142104163Y-97484242D01*
X142120194Y-97468208D01*
X142118933Y-97466626D01*
X142123248Y-97463184D01*
X142128224Y-97460788D01*
X142185290Y-97389231D01*
X142205656Y-97300000D01*
X142205029Y-97297254D01*
X142210990Y-97275002D01*
X142228926Y-97257065D01*
X142253427Y-97250500D01*
X142289743Y-97250500D01*
X142295263Y-97250500D01*
X142377724Y-97210788D01*
X142434790Y-97139231D01*
X142455156Y-97050000D01*
X142434790Y-96960769D01*
X142387880Y-96901947D01*
X142381167Y-96893529D01*
X142381166Y-96893528D01*
X142377724Y-96889212D01*
X142295263Y-96849500D01*
X142271635Y-96849500D01*
X142236987Y-96835148D01*
X142222635Y-96800500D01*
X142236987Y-96765852D01*
X142292987Y-96709852D01*
X142327635Y-96695500D01*
X143360655Y-96695500D01*
X143367106Y-96695500D01*
X143379284Y-96688467D01*
X143391100Y-96683573D01*
X143404683Y-96679935D01*
X143461714Y-96622905D01*
X143461714Y-96622903D01*
X143699765Y-96384852D01*
X143734414Y-96370500D01*
X143910265Y-96370500D01*
X143937488Y-96378758D01*
G37*
%TD.AperFunction*%
%TA.AperFunction,Conductor*%
G36*
X148245587Y-95908758D02*
G01*
X148263634Y-95930749D01*
X148266422Y-95959060D01*
X148253012Y-95984148D01*
X148229070Y-96008090D01*
X148215065Y-96022095D01*
X148215064Y-96022096D01*
X148072096Y-96165065D01*
X148019626Y-96217534D01*
X148019624Y-96217536D01*
X148015065Y-96222096D01*
X148013396Y-96228323D01*
X148013395Y-96228326D01*
X148011425Y-96235680D01*
X148006532Y-96247492D01*
X148002725Y-96254085D01*
X148002723Y-96254088D01*
X147999500Y-96259673D01*
X147999499Y-96266119D01*
X147999499Y-96266123D01*
X147999499Y-96300601D01*
X147999499Y-96340326D01*
X147999500Y-96340328D01*
X147999500Y-97117365D01*
X147985148Y-97152013D01*
X147802013Y-97335148D01*
X147767365Y-97349500D01*
X146982635Y-97349500D01*
X146947987Y-97335148D01*
X146112465Y-96499626D01*
X146107904Y-96495065D01*
X146101672Y-96493395D01*
X146094323Y-96491426D01*
X146082506Y-96486531D01*
X146075914Y-96482725D01*
X146075911Y-96482724D01*
X146070327Y-96479500D01*
X146063879Y-96479499D01*
X146063876Y-96479499D01*
X145989679Y-96479499D01*
X145989678Y-96479499D01*
X145989674Y-96479499D01*
X145989672Y-96479499D01*
X145989671Y-96479500D01*
X145169814Y-96479500D01*
X145167728Y-96479500D01*
X145134400Y-96466420D01*
X145118865Y-96434162D01*
X145129417Y-96399950D01*
X145155467Y-96367286D01*
X145175833Y-96278055D01*
X145164956Y-96230403D01*
X145167116Y-96201598D01*
X145185126Y-96179014D01*
X145212729Y-96170500D01*
X145243961Y-96170500D01*
X145265221Y-96175352D01*
X145282270Y-96188948D01*
X145295845Y-96205970D01*
X145299289Y-96210288D01*
X145381750Y-96250000D01*
X145467756Y-96250000D01*
X145473276Y-96250000D01*
X145555737Y-96210288D01*
X145612803Y-96138731D01*
X145633169Y-96049500D01*
X145630636Y-96038402D01*
X145624246Y-96010403D01*
X145626405Y-95981598D01*
X145644416Y-95959014D01*
X145672018Y-95950500D01*
X145713599Y-95950500D01*
X145748247Y-95964852D01*
X145805070Y-96021674D01*
X145860800Y-96077404D01*
X145917831Y-96134435D01*
X145931412Y-96138073D01*
X145943232Y-96142969D01*
X145955408Y-96150000D01*
X145975921Y-96150000D01*
X146036061Y-96150000D01*
X147660173Y-96150000D01*
X147720314Y-96150000D01*
X147734376Y-96150000D01*
X147740827Y-96150000D01*
X147753005Y-96142967D01*
X147764821Y-96138073D01*
X147778404Y-96134435D01*
X147835435Y-96077405D01*
X147835435Y-96077403D01*
X147997986Y-95914852D01*
X148032635Y-95900500D01*
X148218364Y-95900500D01*
X148245587Y-95908758D01*
G37*
%TD.AperFunction*%
%TA.AperFunction,Conductor*%
G36*
X141510084Y-90847671D02*
G01*
X141515480Y-90848587D01*
X141523857Y-90850500D01*
X141532440Y-90850500D01*
X141537925Y-90850808D01*
X141569473Y-90854362D01*
X141574686Y-90852537D01*
X141580170Y-90851920D01*
X141580175Y-90851971D01*
X141588835Y-90850500D01*
X142040089Y-90850500D01*
X142067315Y-90858760D01*
X142085362Y-90880755D01*
X142088145Y-90909070D01*
X142074729Y-90934155D01*
X142071709Y-90937174D01*
X142071153Y-90937731D01*
X142067067Y-90941381D01*
X142046560Y-90957736D01*
X142046557Y-90957738D01*
X142042243Y-90961180D01*
X142039847Y-90966153D01*
X142036406Y-90970470D01*
X142036366Y-90970438D01*
X142031281Y-90977603D01*
X140518947Y-92489937D01*
X140487959Y-92504152D01*
X140455198Y-92494712D01*
X140439558Y-92470818D01*
X140438915Y-92471128D01*
X140436559Y-92466236D01*
X140436526Y-92466186D01*
X140435290Y-92460769D01*
X140391411Y-92405748D01*
X140381667Y-92393529D01*
X140381666Y-92393528D01*
X140378224Y-92389212D01*
X140295763Y-92349500D01*
X140204237Y-92349500D01*
X140199264Y-92351894D01*
X140199263Y-92351895D01*
X140126750Y-92386816D01*
X140126748Y-92386817D01*
X140121776Y-92389212D01*
X140118335Y-92393526D01*
X140118332Y-92393529D01*
X140072899Y-92450500D01*
X140064710Y-92460769D01*
X140063481Y-92466150D01*
X140063481Y-92466152D01*
X140054997Y-92503325D01*
X140044344Y-92550000D01*
X140064710Y-92639231D01*
X140085476Y-92665270D01*
X140116743Y-92704478D01*
X140121776Y-92710788D01*
X140169718Y-92733876D01*
X140185098Y-92741283D01*
X140204324Y-92757828D01*
X140212701Y-92781769D01*
X140207985Y-92806691D01*
X140205788Y-92811250D01*
X140202348Y-92815566D01*
X140201119Y-92820946D01*
X140198724Y-92825921D01*
X140198679Y-92825899D01*
X140198232Y-92826979D01*
X140198279Y-92826996D01*
X140196456Y-92832202D01*
X140193522Y-92836873D01*
X140193278Y-92839033D01*
X140190408Y-92844784D01*
X140151672Y-92902760D01*
X140150730Y-92907494D01*
X140150730Y-92907495D01*
X140133187Y-92995687D01*
X140132230Y-93000500D01*
X140133172Y-93005236D01*
X140136809Y-93023519D01*
X140151672Y-93098240D01*
X140154354Y-93102254D01*
X140178880Y-93138961D01*
X140187138Y-93166183D01*
X140187138Y-93309017D01*
X140183408Y-93327769D01*
X140172786Y-93343665D01*
X139738199Y-93778250D01*
X139731033Y-93783336D01*
X139731064Y-93783375D01*
X139726745Y-93786818D01*
X139721776Y-93789212D01*
X139718338Y-93793522D01*
X139718334Y-93793526D01*
X139701973Y-93814041D01*
X139698319Y-93818131D01*
X139694197Y-93822253D01*
X139694194Y-93822256D01*
X139692252Y-93824199D01*
X139690787Y-93826529D01*
X139690786Y-93826531D01*
X139687685Y-93831465D01*
X139684512Y-93835936D01*
X139668986Y-93855407D01*
X139664710Y-93860769D01*
X139663481Y-93866151D01*
X139661086Y-93871125D01*
X139661041Y-93871103D01*
X139660597Y-93872174D01*
X139660644Y-93872191D01*
X139658820Y-93877402D01*
X139655884Y-93882076D01*
X139655266Y-93887556D01*
X139655265Y-93887561D01*
X139652328Y-93913631D01*
X139651409Y-93919038D01*
X139650112Y-93924721D01*
X139650110Y-93924734D01*
X139649500Y-93927410D01*
X139649500Y-93930161D01*
X139649500Y-93935993D01*
X139649192Y-93941478D01*
X139646257Y-93967534D01*
X139645638Y-93973026D01*
X139647461Y-93978238D01*
X139648080Y-93983723D01*
X139648028Y-93983728D01*
X139649500Y-93992388D01*
X139649500Y-96146655D01*
X139645770Y-96165407D01*
X139635148Y-96181303D01*
X139288199Y-96528250D01*
X139281033Y-96533336D01*
X139281064Y-96533375D01*
X139276745Y-96536818D01*
X139271776Y-96539212D01*
X139268338Y-96543522D01*
X139268334Y-96543526D01*
X139251973Y-96564041D01*
X139248319Y-96568131D01*
X139244197Y-96572253D01*
X139244194Y-96572256D01*
X139242252Y-96574199D01*
X139240787Y-96576529D01*
X139240786Y-96576531D01*
X139237685Y-96581465D01*
X139234512Y-96585936D01*
X139220304Y-96603754D01*
X139214710Y-96610769D01*
X139213481Y-96616151D01*
X139211086Y-96621125D01*
X139211041Y-96621103D01*
X139210597Y-96622174D01*
X139210644Y-96622191D01*
X139208820Y-96627402D01*
X139205884Y-96632076D01*
X139205266Y-96637556D01*
X139205265Y-96637561D01*
X139202328Y-96663631D01*
X139201409Y-96669038D01*
X139200112Y-96674721D01*
X139200110Y-96674734D01*
X139199500Y-96677410D01*
X139199500Y-96680161D01*
X139199500Y-96685993D01*
X139199191Y-96691478D01*
X139195638Y-96723026D01*
X139197461Y-96728238D01*
X139198080Y-96733723D01*
X139198028Y-96733728D01*
X139199500Y-96742388D01*
X139199500Y-96945874D01*
X139186422Y-96979199D01*
X139154170Y-96994736D01*
X139129260Y-96987058D01*
X139128224Y-96989212D01*
X139045763Y-96949500D01*
X139040243Y-96949500D01*
X139032635Y-96949500D01*
X138997987Y-96935148D01*
X138794852Y-96732013D01*
X138780500Y-96697365D01*
X138780500Y-93646124D01*
X138780500Y-93639673D01*
X138773469Y-93627497D01*
X138768573Y-93615676D01*
X138766703Y-93608697D01*
X138764935Y-93602096D01*
X138760376Y-93597537D01*
X138760375Y-93597535D01*
X138714851Y-93552011D01*
X138700500Y-93517363D01*
X138700500Y-93104126D01*
X138713578Y-93070801D01*
X138745830Y-93055264D01*
X138770739Y-93062941D01*
X138771776Y-93060788D01*
X138854237Y-93100500D01*
X138940243Y-93100500D01*
X138945763Y-93100500D01*
X139028224Y-93060788D01*
X139085290Y-92989231D01*
X139105656Y-92900000D01*
X139085290Y-92810769D01*
X139061190Y-92780550D01*
X139050500Y-92749999D01*
X139050500Y-92232635D01*
X139064852Y-92197987D01*
X139091749Y-92171090D01*
X139120430Y-92142409D01*
X139120430Y-92142408D01*
X139134935Y-92127904D01*
X139138573Y-92114321D01*
X139143467Y-92102505D01*
X139150500Y-92090327D01*
X139150500Y-92009674D01*
X139150500Y-91482635D01*
X139164852Y-91447987D01*
X139397987Y-91214852D01*
X139432635Y-91200500D01*
X139597884Y-91200500D01*
X139625487Y-91209014D01*
X139643497Y-91231598D01*
X139645656Y-91260403D01*
X139643551Y-91269626D01*
X139636898Y-91298776D01*
X139638126Y-91304156D01*
X139649040Y-91351977D01*
X139657264Y-91388007D01*
X139671988Y-91406470D01*
X139707101Y-91450500D01*
X139714330Y-91459564D01*
X139796791Y-91499276D01*
X139882797Y-91499276D01*
X139888317Y-91499276D01*
X139970778Y-91459564D01*
X140003168Y-91418948D01*
X140020217Y-91405352D01*
X140041477Y-91400500D01*
X141043700Y-91400500D01*
X141071263Y-91410145D01*
X141071776Y-91410788D01*
X141154237Y-91450500D01*
X141240243Y-91450500D01*
X141245763Y-91450500D01*
X141328224Y-91410788D01*
X141385290Y-91339231D01*
X141405656Y-91250000D01*
X141385290Y-91160769D01*
X141335218Y-91097983D01*
X141324666Y-91071096D01*
X141331094Y-91042934D01*
X141352267Y-91023288D01*
X141378224Y-91010788D01*
X141435290Y-90939231D01*
X141447795Y-90884439D01*
X141467209Y-90855384D01*
X141501048Y-90846653D01*
X141510084Y-90847671D01*
G37*
%TD.AperFunction*%
%TA.AperFunction,Conductor*%
G36*
X143063810Y-92817032D02*
G01*
X143074500Y-92847583D01*
X143074500Y-93383514D01*
X143063810Y-93414065D01*
X143036403Y-93431286D01*
X143004239Y-93427661D01*
X142959650Y-93406188D01*
X142945763Y-93399500D01*
X142854237Y-93399500D01*
X142849264Y-93401894D01*
X142849263Y-93401895D01*
X142776750Y-93436816D01*
X142776748Y-93436817D01*
X142771776Y-93439212D01*
X142768335Y-93443526D01*
X142768332Y-93443529D01*
X142718154Y-93506450D01*
X142714710Y-93510769D01*
X142713481Y-93516150D01*
X142713481Y-93516152D01*
X142706882Y-93545065D01*
X142694344Y-93600000D01*
X142695572Y-93605380D01*
X142713481Y-93683849D01*
X142713482Y-93683851D01*
X142714710Y-93689231D01*
X142737181Y-93717408D01*
X142738809Y-93719449D01*
X142749500Y-93750000D01*
X142749500Y-94209673D01*
X142749500Y-94290327D01*
X142752724Y-94295911D01*
X142754395Y-94302146D01*
X142751673Y-94302875D01*
X142755259Y-94324644D01*
X142737025Y-94353950D01*
X142703994Y-94363964D01*
X142672556Y-94349717D01*
X142509415Y-94186576D01*
X142496978Y-94165493D01*
X142496292Y-94141024D01*
X142497544Y-94135541D01*
X142505656Y-94100000D01*
X142485290Y-94010769D01*
X142428224Y-93939212D01*
X142408443Y-93929686D01*
X142350736Y-93901895D01*
X142345763Y-93899500D01*
X142254237Y-93899500D01*
X142249264Y-93901894D01*
X142249263Y-93901895D01*
X142176750Y-93936816D01*
X142176748Y-93936817D01*
X142171776Y-93939212D01*
X142168335Y-93943526D01*
X142168332Y-93943529D01*
X142122899Y-94000500D01*
X142114710Y-94010769D01*
X142113481Y-94016150D01*
X142113481Y-94016152D01*
X142101705Y-94067748D01*
X142094344Y-94100000D01*
X142095572Y-94105380D01*
X142095572Y-94105383D01*
X142103381Y-94139596D01*
X142101223Y-94168402D01*
X142083213Y-94190986D01*
X142055610Y-94199500D01*
X142004237Y-94199500D01*
X141999264Y-94201894D01*
X141999263Y-94201895D01*
X141926750Y-94236816D01*
X141926748Y-94236817D01*
X141921776Y-94239212D01*
X141918335Y-94243526D01*
X141918332Y-94243529D01*
X141868154Y-94306450D01*
X141864710Y-94310769D01*
X141863481Y-94316150D01*
X141863481Y-94316152D01*
X141852138Y-94365852D01*
X141844344Y-94400000D01*
X141845572Y-94405380D01*
X141855663Y-94449595D01*
X141864710Y-94489231D01*
X141876758Y-94504338D01*
X141912302Y-94548909D01*
X141921776Y-94560788D01*
X141926750Y-94563183D01*
X141931052Y-94566614D01*
X141944648Y-94583663D01*
X141949500Y-94604923D01*
X141949500Y-95867365D01*
X141945770Y-95886117D01*
X141935148Y-95902013D01*
X141734148Y-96103012D01*
X141709059Y-96116423D01*
X141680748Y-96113634D01*
X141658758Y-96095586D01*
X141650500Y-96068363D01*
X141650500Y-96050807D01*
X141650501Y-96009674D01*
X141650500Y-96009672D01*
X141650500Y-95373499D01*
X141661191Y-95342947D01*
X141661705Y-95342303D01*
X141685290Y-95312729D01*
X141705656Y-95223498D01*
X141685290Y-95134267D01*
X141661190Y-95104048D01*
X141650500Y-95073497D01*
X141650500Y-94132635D01*
X141664852Y-94097987D01*
X142496563Y-93266276D01*
X142531211Y-93251924D01*
X142638854Y-93251924D01*
X142645305Y-93251924D01*
X142657483Y-93244891D01*
X142669299Y-93239997D01*
X142682882Y-93236359D01*
X142739913Y-93179329D01*
X142739913Y-93179327D01*
X142913610Y-93005631D01*
X142928115Y-92991126D01*
X142931753Y-92977543D01*
X142936647Y-92965727D01*
X142943680Y-92953549D01*
X142943680Y-92895909D01*
X142954371Y-92865357D01*
X142961075Y-92856950D01*
X142978470Y-92835139D01*
X142979698Y-92829755D01*
X142981353Y-92826321D01*
X143004241Y-92803435D01*
X143036404Y-92799812D01*
X143063810Y-92817032D01*
G37*
%TD.AperFunction*%
%TA.AperFunction,Conductor*%
G36*
X148552013Y-94914852D02*
G01*
X148703013Y-95065852D01*
X148717365Y-95100500D01*
X148703013Y-95135148D01*
X148668365Y-95149500D01*
X147969814Y-95149500D01*
X147931634Y-95149500D01*
X147904411Y-95141242D01*
X147886364Y-95119251D01*
X147883576Y-95090940D01*
X147896986Y-95065852D01*
X147970430Y-94992409D01*
X148047986Y-94914852D01*
X148082635Y-94900500D01*
X148517365Y-94900500D01*
X148552013Y-94914852D01*
G37*
%TD.AperFunction*%
%TA.AperFunction,Conductor*%
G36*
X145727513Y-94165352D02*
G01*
X146066499Y-94504338D01*
X146343424Y-94781262D01*
X146357357Y-94809514D01*
X146351211Y-94840410D01*
X146327528Y-94861180D01*
X146296094Y-94863240D01*
X146289324Y-94861426D01*
X146277506Y-94856531D01*
X146270914Y-94852725D01*
X146270911Y-94852724D01*
X146265327Y-94849500D01*
X146258879Y-94849499D01*
X146258876Y-94849499D01*
X146184679Y-94849499D01*
X146184678Y-94849499D01*
X146184674Y-94849499D01*
X146184672Y-94849499D01*
X146184671Y-94849500D01*
X145782886Y-94849500D01*
X145752342Y-94838816D01*
X145735119Y-94811422D01*
X145737550Y-94789746D01*
X145735290Y-94789231D01*
X145754428Y-94705380D01*
X145755656Y-94700000D01*
X145735290Y-94610769D01*
X145684732Y-94547373D01*
X145681667Y-94543529D01*
X145681666Y-94543528D01*
X145678224Y-94539212D01*
X145595763Y-94499500D01*
X145590243Y-94499500D01*
X145582635Y-94499500D01*
X145547987Y-94485148D01*
X145457465Y-94394626D01*
X145452904Y-94390065D01*
X145446672Y-94388395D01*
X145439323Y-94386426D01*
X145427506Y-94381531D01*
X145420914Y-94377725D01*
X145420911Y-94377724D01*
X145415327Y-94374500D01*
X145408879Y-94374499D01*
X145408876Y-94374499D01*
X145334679Y-94374499D01*
X145334678Y-94374499D01*
X145334674Y-94374499D01*
X145334672Y-94374499D01*
X145334671Y-94374500D01*
X144288684Y-94374500D01*
X144261081Y-94365986D01*
X144243071Y-94343402D01*
X144240913Y-94314596D01*
X144254428Y-94255384D01*
X144254428Y-94255380D01*
X144255656Y-94250000D01*
X144255219Y-94248088D01*
X144268780Y-94215352D01*
X144303428Y-94201000D01*
X144379845Y-94201000D01*
X144385365Y-94201000D01*
X144467826Y-94161288D01*
X144468338Y-94160645D01*
X144495902Y-94151000D01*
X145692865Y-94151000D01*
X145727513Y-94165352D01*
G37*
%TD.AperFunction*%
%TA.AperFunction,Conductor*%
G36*
X147903012Y-94014852D02*
G01*
X147917364Y-94049500D01*
X147903012Y-94084148D01*
X147857591Y-94129569D01*
X147857591Y-94129570D01*
X147352013Y-94635148D01*
X147317365Y-94649500D01*
X146657635Y-94649500D01*
X146622987Y-94635148D01*
X146570874Y-94583035D01*
X146556941Y-94554781D01*
X146563089Y-94523883D01*
X146586776Y-94503115D01*
X146609673Y-94501617D01*
X146609673Y-94500500D01*
X147133876Y-94500500D01*
X147140327Y-94500500D01*
X147152505Y-94493467D01*
X147164321Y-94488573D01*
X147177904Y-94484935D01*
X147234935Y-94427905D01*
X147234935Y-94427903D01*
X147647986Y-94014852D01*
X147682635Y-94000500D01*
X147868364Y-94000500D01*
X147903012Y-94014852D01*
G37*
%TD.AperFunction*%
%TA.AperFunction,Conductor*%
G36*
X149552013Y-93364852D02*
G01*
X149560148Y-93372987D01*
X149574500Y-93407635D01*
X149574500Y-93542365D01*
X149560148Y-93577013D01*
X149552013Y-93585148D01*
X149517365Y-93599500D01*
X149405802Y-93599500D01*
X149378238Y-93589854D01*
X149377726Y-93589212D01*
X149346269Y-93574063D01*
X149300238Y-93551895D01*
X149295265Y-93549500D01*
X149203739Y-93549500D01*
X149198766Y-93551894D01*
X149198765Y-93551895D01*
X149126252Y-93586816D01*
X149126250Y-93586817D01*
X149121278Y-93589212D01*
X149117837Y-93593526D01*
X149117834Y-93593529D01*
X149068532Y-93655352D01*
X149064212Y-93660769D01*
X149062983Y-93666150D01*
X149062983Y-93666152D01*
X149050819Y-93719449D01*
X149043846Y-93750000D01*
X149045074Y-93755380D01*
X149061626Y-93827903D01*
X149064212Y-93839231D01*
X149089630Y-93871103D01*
X149117680Y-93906277D01*
X149121278Y-93910788D01*
X149197487Y-93947489D01*
X149219549Y-93968740D01*
X149224680Y-93998939D01*
X149210875Y-94026284D01*
X149202011Y-94035148D01*
X149167363Y-94049500D01*
X149154237Y-94049500D01*
X149149264Y-94051894D01*
X149149263Y-94051895D01*
X149076750Y-94086816D01*
X149076748Y-94086817D01*
X149071776Y-94089212D01*
X149068335Y-94093526D01*
X149068332Y-94093529D01*
X149018154Y-94156450D01*
X149014710Y-94160769D01*
X149013482Y-94166148D01*
X149013479Y-94166155D01*
X148998925Y-94229923D01*
X148980251Y-94258444D01*
X148947492Y-94267882D01*
X148916506Y-94253667D01*
X148792411Y-94129572D01*
X148792409Y-94129569D01*
X148692409Y-94029570D01*
X148682465Y-94019626D01*
X148682465Y-94019625D01*
X148677904Y-94015065D01*
X148671672Y-94013395D01*
X148664323Y-94011426D01*
X148652506Y-94006531D01*
X148645914Y-94002725D01*
X148645911Y-94002724D01*
X148640327Y-93999500D01*
X148633879Y-93999499D01*
X148633876Y-93999499D01*
X148559679Y-93999499D01*
X148559678Y-93999499D01*
X148559674Y-93999499D01*
X148559672Y-93999499D01*
X148559671Y-93999500D01*
X148281634Y-93999500D01*
X148254411Y-93991242D01*
X148236364Y-93969251D01*
X148233576Y-93940941D01*
X148246986Y-93915852D01*
X148797987Y-93364852D01*
X148832635Y-93350500D01*
X149517365Y-93350500D01*
X149552013Y-93364852D01*
G37*
%TD.AperFunction*%
%TA.AperFunction,Conductor*%
G36*
X149420724Y-92234119D02*
G01*
X149454737Y-92250500D01*
X149460257Y-92250500D01*
X149519867Y-92250500D01*
X149554515Y-92264852D01*
X149568867Y-92299500D01*
X149554515Y-92334148D01*
X149153015Y-92735648D01*
X149118367Y-92750000D01*
X149105239Y-92750000D01*
X149100266Y-92752394D01*
X149100265Y-92752395D01*
X149027752Y-92787316D01*
X149027750Y-92787317D01*
X149022778Y-92789712D01*
X149019337Y-92794026D01*
X149019334Y-92794029D01*
X148969156Y-92856950D01*
X148965712Y-92861269D01*
X148964483Y-92866650D01*
X148964483Y-92866652D01*
X148957272Y-92898248D01*
X148945346Y-92950500D01*
X148946574Y-92955880D01*
X148946574Y-92955881D01*
X148954269Y-92989597D01*
X148952110Y-93018402D01*
X148934099Y-93040986D01*
X148906497Y-93049500D01*
X148790327Y-93049500D01*
X148709673Y-93049500D01*
X148704088Y-93052723D01*
X148704085Y-93052725D01*
X148697492Y-93056532D01*
X148685680Y-93061425D01*
X148682002Y-93062410D01*
X148672096Y-93065065D01*
X148667538Y-93069622D01*
X148667536Y-93069624D01*
X148642655Y-93094505D01*
X148615065Y-93122095D01*
X148615064Y-93122096D01*
X148328624Y-93408537D01*
X148052013Y-93685148D01*
X148036117Y-93695770D01*
X148017365Y-93699500D01*
X147640327Y-93699500D01*
X147559673Y-93699500D01*
X147554088Y-93702723D01*
X147554085Y-93702725D01*
X147547492Y-93706532D01*
X147535679Y-93711425D01*
X147522096Y-93715065D01*
X147517538Y-93719622D01*
X147517536Y-93719624D01*
X147492540Y-93744620D01*
X147465065Y-93772095D01*
X147465064Y-93772096D01*
X147251481Y-93985680D01*
X147052013Y-94185148D01*
X147036117Y-94195770D01*
X147017365Y-94199500D01*
X146732635Y-94199500D01*
X146697987Y-94185148D01*
X146046987Y-93534148D01*
X146033576Y-93509059D01*
X146036365Y-93480748D01*
X146054413Y-93458758D01*
X146081635Y-93450500D01*
X146140326Y-93450501D01*
X146140328Y-93450500D01*
X147385408Y-93450500D01*
X147445549Y-93450500D01*
X147466062Y-93450500D01*
X147478240Y-93443467D01*
X147490056Y-93438573D01*
X147503639Y-93434935D01*
X147560670Y-93377905D01*
X147560670Y-93377903D01*
X147623723Y-93314850D01*
X147658370Y-93300500D01*
X148083876Y-93300500D01*
X148090327Y-93300500D01*
X148102505Y-93293467D01*
X148114321Y-93288573D01*
X148127904Y-93284935D01*
X148184935Y-93227905D01*
X148184935Y-93227903D01*
X148479192Y-92933645D01*
X148492576Y-92924148D01*
X148519283Y-92911288D01*
X148576349Y-92839731D01*
X148596715Y-92750500D01*
X148595487Y-92745120D01*
X148595487Y-92745116D01*
X148587564Y-92710404D01*
X148589722Y-92681598D01*
X148607732Y-92659014D01*
X148635335Y-92650500D01*
X148933876Y-92650500D01*
X148940327Y-92650500D01*
X148952505Y-92643467D01*
X148964321Y-92638573D01*
X148977904Y-92634935D01*
X149034935Y-92577905D01*
X149034935Y-92577903D01*
X149147988Y-92464850D01*
X149182635Y-92450500D01*
X149190243Y-92450500D01*
X149195763Y-92450500D01*
X149278224Y-92410788D01*
X149335290Y-92339231D01*
X149351693Y-92267361D01*
X149366135Y-92242348D01*
X149392161Y-92229814D01*
X149420724Y-92234119D01*
G37*
%TD.AperFunction*%
%TA.AperFunction,Conductor*%
G36*
X143052013Y-91564852D02*
G01*
X143716976Y-92229814D01*
X144365065Y-92877903D01*
X144365065Y-92877904D01*
X144365067Y-92877905D01*
X144365067Y-92877906D01*
X144403013Y-92915852D01*
X144417365Y-92950500D01*
X144403013Y-92985148D01*
X144368365Y-92999500D01*
X144290327Y-92999500D01*
X144209673Y-92999500D01*
X144204088Y-93002723D01*
X144204085Y-93002725D01*
X144197492Y-93006532D01*
X144185679Y-93011425D01*
X144172096Y-93015065D01*
X144167538Y-93019622D01*
X144167536Y-93019624D01*
X144115064Y-93072096D01*
X144072096Y-93115065D01*
X144019626Y-93167534D01*
X144019624Y-93167536D01*
X144015065Y-93172096D01*
X144013396Y-93178323D01*
X144013395Y-93178326D01*
X144011425Y-93185680D01*
X144006532Y-93197492D01*
X144002725Y-93204085D01*
X144002723Y-93204088D01*
X143999500Y-93209673D01*
X143999499Y-93216119D01*
X143999499Y-93216123D01*
X143999499Y-93251924D01*
X143999499Y-93290326D01*
X143999500Y-93290328D01*
X143999500Y-93359673D01*
X143999500Y-93440327D01*
X144002724Y-93445911D01*
X144002725Y-93445914D01*
X144006531Y-93452506D01*
X144011426Y-93464323D01*
X144013395Y-93471674D01*
X144013396Y-93471676D01*
X144015065Y-93477904D01*
X144046198Y-93509038D01*
X144072094Y-93534934D01*
X144072100Y-93534939D01*
X144115065Y-93577904D01*
X144172096Y-93634935D01*
X144185677Y-93638573D01*
X144197497Y-93643469D01*
X144209673Y-93650500D01*
X144230186Y-93650500D01*
X144290326Y-93650500D01*
X144336293Y-93650500D01*
X144357553Y-93655352D01*
X144374600Y-93668946D01*
X144378599Y-93673961D01*
X144461060Y-93713673D01*
X144547066Y-93713673D01*
X144552586Y-93713673D01*
X144635047Y-93673961D01*
X144692113Y-93602404D01*
X144712479Y-93513173D01*
X144692113Y-93423942D01*
X144657109Y-93380049D01*
X144646556Y-93345839D01*
X144662090Y-93313581D01*
X144695419Y-93300500D01*
X145367365Y-93300500D01*
X145402013Y-93314852D01*
X145854625Y-93767464D01*
X145868558Y-93795713D01*
X145862414Y-93826608D01*
X145838734Y-93847379D01*
X145815827Y-93848883D01*
X145815827Y-93850000D01*
X145735178Y-93849999D01*
X145735174Y-93849999D01*
X145735172Y-93849999D01*
X145735171Y-93850000D01*
X144495902Y-93850000D01*
X144468338Y-93840354D01*
X144467826Y-93839712D01*
X144455647Y-93833847D01*
X144390338Y-93802395D01*
X144385365Y-93800000D01*
X144293839Y-93800000D01*
X144288866Y-93802394D01*
X144288865Y-93802395D01*
X144216352Y-93837316D01*
X144216350Y-93837317D01*
X144211378Y-93839712D01*
X144207937Y-93844026D01*
X144207934Y-93844029D01*
X144158293Y-93906277D01*
X144154312Y-93911269D01*
X144153083Y-93916650D01*
X144153083Y-93916652D01*
X144142436Y-93963300D01*
X144133946Y-94000500D01*
X144134382Y-94002411D01*
X144120822Y-94035148D01*
X144086174Y-94049500D01*
X144004237Y-94049500D01*
X143999264Y-94051894D01*
X143999263Y-94051895D01*
X143926750Y-94086816D01*
X143926748Y-94086817D01*
X143921776Y-94089212D01*
X143918335Y-94093526D01*
X143918332Y-94093529D01*
X143868151Y-94156453D01*
X143868149Y-94156456D01*
X143864710Y-94160769D01*
X143864257Y-94162750D01*
X143844727Y-94183022D01*
X143814529Y-94188151D01*
X143787186Y-94174347D01*
X143389852Y-93777013D01*
X143375500Y-93742365D01*
X143375500Y-92541124D01*
X143375500Y-92534673D01*
X143368469Y-92522497D01*
X143363573Y-92510676D01*
X143359935Y-92497096D01*
X143355376Y-92492537D01*
X143355375Y-92492535D01*
X143302905Y-92440065D01*
X143302903Y-92440064D01*
X142648727Y-91785888D01*
X142640221Y-91770498D01*
X142638915Y-91771128D01*
X142636518Y-91766151D01*
X142635290Y-91760769D01*
X142604449Y-91722096D01*
X142581667Y-91693529D01*
X142581666Y-91693528D01*
X142578224Y-91689212D01*
X142567077Y-91683844D01*
X142500736Y-91651895D01*
X142495763Y-91649500D01*
X142481635Y-91649500D01*
X142446987Y-91635148D01*
X142432635Y-91600500D01*
X142446987Y-91565852D01*
X142447987Y-91564852D01*
X142482635Y-91550500D01*
X143017365Y-91550500D01*
X143052013Y-91564852D01*
G37*
%TD.AperFunction*%
%TA.AperFunction,Conductor*%
G36*
X143015407Y-90854230D02*
G01*
X143031303Y-90864852D01*
X143673029Y-91506579D01*
X143678114Y-91513745D01*
X143678154Y-91513714D01*
X143681595Y-91518029D01*
X143683991Y-91523003D01*
X143693770Y-91530802D01*
X143708813Y-91542798D01*
X143712910Y-91546460D01*
X143718978Y-91552528D01*
X143721301Y-91553988D01*
X143721304Y-91553990D01*
X143726243Y-91557093D01*
X143730720Y-91560270D01*
X143755548Y-91580069D01*
X143760929Y-91581297D01*
X143765905Y-91583693D01*
X143765882Y-91583739D01*
X143766952Y-91584182D01*
X143766969Y-91584134D01*
X143772180Y-91585957D01*
X143776855Y-91588895D01*
X143782339Y-91589512D01*
X143782340Y-91589513D01*
X143788052Y-91590156D01*
X143808415Y-91592450D01*
X143813822Y-91593369D01*
X143822189Y-91595279D01*
X143830767Y-91595279D01*
X143836252Y-91595586D01*
X143867806Y-91599142D01*
X143873020Y-91597317D01*
X143878502Y-91596700D01*
X143878507Y-91596750D01*
X143887170Y-91595279D01*
X144541434Y-91595279D01*
X144576082Y-91609631D01*
X145532303Y-92565852D01*
X145546655Y-92600500D01*
X145532303Y-92635148D01*
X145497655Y-92649500D01*
X144582635Y-92649500D01*
X144547987Y-92635148D01*
X143182465Y-91269626D01*
X143177904Y-91265065D01*
X143171672Y-91263395D01*
X143164323Y-91261426D01*
X143152506Y-91256531D01*
X143145914Y-91252725D01*
X143145911Y-91252724D01*
X143140327Y-91249500D01*
X143133879Y-91249499D01*
X143133876Y-91249499D01*
X143059679Y-91249499D01*
X143059678Y-91249499D01*
X143059674Y-91249499D01*
X143059672Y-91249499D01*
X143059671Y-91249500D01*
X142945413Y-91249500D01*
X142915585Y-91239375D01*
X142898083Y-91213185D01*
X142899776Y-91187313D01*
X142898927Y-91187144D01*
X142917427Y-91094140D01*
X142918369Y-91089404D01*
X142898927Y-90991664D01*
X142896246Y-90987651D01*
X142896245Y-90987649D01*
X142855536Y-90926722D01*
X142847697Y-90893104D01*
X142863970Y-90862660D01*
X142896278Y-90850500D01*
X142996655Y-90850500D01*
X143015407Y-90854230D01*
G37*
%TD.AperFunction*%
%TA.AperFunction,Conductor*%
G36*
X159865148Y-65134852D02*
G01*
X159879500Y-65169500D01*
X159879500Y-124830500D01*
X159865148Y-124865148D01*
X159830500Y-124879500D01*
X100169500Y-124879500D01*
X100134852Y-124865148D01*
X100120500Y-124830500D01*
X100120500Y-98496945D01*
X115387018Y-98496945D01*
X115387312Y-98499122D01*
X115387313Y-98499124D01*
X115417268Y-98720263D01*
X115417269Y-98720268D01*
X115417563Y-98722437D01*
X115418238Y-98724514D01*
X115418240Y-98724523D01*
X115468596Y-98879500D01*
X115487880Y-98938851D01*
X115488917Y-98940779D01*
X115488921Y-98940787D01*
X115594670Y-99137301D01*
X115594674Y-99137308D01*
X115595710Y-99139232D01*
X115737585Y-99317138D01*
X115908948Y-99466853D01*
X116104289Y-99583564D01*
X116317330Y-99663520D01*
X116541224Y-99704150D01*
X116710671Y-99704150D01*
X116711775Y-99704150D01*
X116881635Y-99688862D01*
X117100986Y-99628325D01*
X117306003Y-99529595D01*
X117490095Y-99395843D01*
X117647347Y-99231371D01*
X117772705Y-99041463D01*
X117862138Y-98832223D01*
X117912773Y-98610377D01*
X117917867Y-98496945D01*
X118562018Y-98496945D01*
X118562312Y-98499122D01*
X118562313Y-98499124D01*
X118592268Y-98720263D01*
X118592269Y-98720268D01*
X118592563Y-98722437D01*
X118593238Y-98724514D01*
X118593240Y-98724523D01*
X118643596Y-98879500D01*
X118662880Y-98938851D01*
X118663917Y-98940779D01*
X118663921Y-98940787D01*
X118769670Y-99137301D01*
X118769674Y-99137308D01*
X118770710Y-99139232D01*
X118912585Y-99317138D01*
X119083948Y-99466853D01*
X119279289Y-99583564D01*
X119492330Y-99663520D01*
X119716224Y-99704150D01*
X119885671Y-99704150D01*
X119886775Y-99704150D01*
X120056635Y-99688862D01*
X120275986Y-99628325D01*
X120481003Y-99529595D01*
X120665095Y-99395843D01*
X120822347Y-99231371D01*
X120947705Y-99041463D01*
X121037138Y-98832223D01*
X121087773Y-98610377D01*
X121097982Y-98383055D01*
X121067437Y-98157563D01*
X121060725Y-98136907D01*
X121049374Y-98101971D01*
X120997120Y-97941149D01*
X120983084Y-97915065D01*
X120890329Y-97742698D01*
X120890326Y-97742694D01*
X120889290Y-97740768D01*
X120747415Y-97562862D01*
X120733154Y-97550403D01*
X120580313Y-97416870D01*
X120576052Y-97413147D01*
X120461859Y-97344920D01*
X120382601Y-97297565D01*
X120382599Y-97297564D01*
X120380711Y-97296436D01*
X120294281Y-97263998D01*
X120169736Y-97217255D01*
X120169732Y-97217253D01*
X120167670Y-97216480D01*
X120165510Y-97216088D01*
X120165503Y-97216086D01*
X119945938Y-97176242D01*
X119945934Y-97176241D01*
X119943776Y-97175850D01*
X119773225Y-97175850D01*
X119772144Y-97175947D01*
X119772128Y-97175948D01*
X119605552Y-97190941D01*
X119605550Y-97190941D01*
X119603365Y-97191138D01*
X119601256Y-97191719D01*
X119601245Y-97191722D01*
X119386131Y-97251090D01*
X119386123Y-97251092D01*
X119384014Y-97251675D01*
X119382046Y-97252622D01*
X119382037Y-97252626D01*
X119180976Y-97349451D01*
X119180967Y-97349456D01*
X119178997Y-97350405D01*
X119177228Y-97351690D01*
X119177220Y-97351695D01*
X118996683Y-97482864D01*
X118996674Y-97482871D01*
X118994905Y-97484157D01*
X118993388Y-97485743D01*
X118993383Y-97485748D01*
X118839175Y-97647036D01*
X118839169Y-97647042D01*
X118837653Y-97648629D01*
X118836443Y-97650461D01*
X118836439Y-97650467D01*
X118713507Y-97836699D01*
X118713501Y-97836709D01*
X118712295Y-97838537D01*
X118711435Y-97840547D01*
X118711429Y-97840560D01*
X118623725Y-98045756D01*
X118623722Y-98045763D01*
X118622862Y-98047777D01*
X118622374Y-98049910D01*
X118622372Y-98049920D01*
X118577671Y-98245770D01*
X118572227Y-98269623D01*
X118572128Y-98271814D01*
X118572128Y-98271819D01*
X118562116Y-98494747D01*
X118562116Y-98494754D01*
X118562018Y-98496945D01*
X117917867Y-98496945D01*
X117922982Y-98383055D01*
X117892437Y-98157563D01*
X117885725Y-98136907D01*
X117874374Y-98101971D01*
X117822120Y-97941149D01*
X117808084Y-97915065D01*
X117715329Y-97742698D01*
X117715326Y-97742694D01*
X117714290Y-97740768D01*
X117572415Y-97562862D01*
X117558154Y-97550403D01*
X117405313Y-97416870D01*
X117401052Y-97413147D01*
X117286859Y-97344920D01*
X117278624Y-97340000D01*
X117744592Y-97340000D01*
X117745534Y-97344736D01*
X117763092Y-97433007D01*
X117763093Y-97433009D01*
X117764034Y-97437740D01*
X117766713Y-97441750D01*
X117766714Y-97441751D01*
X117812919Y-97510904D01*
X117819399Y-97520601D01*
X117902260Y-97575966D01*
X118000000Y-97595408D01*
X118097740Y-97575966D01*
X118133272Y-97552225D01*
X118138461Y-97548758D01*
X118165683Y-97540500D01*
X118657612Y-97540500D01*
X118666271Y-97541971D01*
X118666277Y-97541920D01*
X118671760Y-97542537D01*
X118676974Y-97544362D01*
X118708521Y-97540808D01*
X118714007Y-97540500D01*
X118719836Y-97540500D01*
X118722590Y-97540500D01*
X118730960Y-97538589D01*
X118736367Y-97537670D01*
X118767924Y-97534116D01*
X118772598Y-97531178D01*
X118777812Y-97529354D01*
X118777829Y-97529402D01*
X118778894Y-97528961D01*
X118778872Y-97528914D01*
X118783844Y-97526519D01*
X118789231Y-97525290D01*
X118814064Y-97505485D01*
X118818537Y-97502312D01*
X118825801Y-97497748D01*
X118831877Y-97491671D01*
X118835946Y-97488033D01*
X118860788Y-97468224D01*
X118863183Y-97463249D01*
X118866626Y-97458932D01*
X118866665Y-97458963D01*
X118871747Y-97451800D01*
X119268697Y-97054852D01*
X119303346Y-97040500D01*
X120817612Y-97040500D01*
X120826271Y-97041971D01*
X120826277Y-97041920D01*
X120831760Y-97042537D01*
X120836974Y-97044362D01*
X120868521Y-97040808D01*
X120874007Y-97040500D01*
X120879836Y-97040500D01*
X120882590Y-97040500D01*
X120890960Y-97038589D01*
X120896367Y-97037670D01*
X120927924Y-97034116D01*
X120932598Y-97031178D01*
X120937812Y-97029354D01*
X120937829Y-97029402D01*
X120938894Y-97028961D01*
X120938872Y-97028914D01*
X120943844Y-97026519D01*
X120949231Y-97025290D01*
X120974064Y-97005485D01*
X120978537Y-97002312D01*
X120985801Y-96997748D01*
X120991877Y-96991671D01*
X120995946Y-96988033D01*
X121020788Y-96968224D01*
X121023183Y-96963249D01*
X121026626Y-96958932D01*
X121026665Y-96958963D01*
X121031747Y-96951800D01*
X127168697Y-90814852D01*
X127203346Y-90800500D01*
X131919841Y-90800500D01*
X131922590Y-90800500D01*
X131931719Y-90798416D01*
X131940096Y-90796505D01*
X131968901Y-90798663D01*
X131991486Y-90816673D01*
X132000000Y-90844276D01*
X132000000Y-91022185D01*
X131995439Y-91039195D01*
X131996646Y-91039635D01*
X131995179Y-91043662D01*
X131993037Y-91047374D01*
X131974941Y-91150000D01*
X131990700Y-91239375D01*
X131991782Y-91245508D01*
X131986943Y-91276732D01*
X131964052Y-91298510D01*
X131932627Y-91301789D01*
X131925278Y-91300112D01*
X131925265Y-91300110D01*
X131922590Y-91299500D01*
X131919841Y-91299500D01*
X127902390Y-91299500D01*
X127893727Y-91298028D01*
X127893722Y-91298079D01*
X127888238Y-91297461D01*
X127883026Y-91295637D01*
X127877539Y-91296255D01*
X127851473Y-91299192D01*
X127845987Y-91299500D01*
X127837410Y-91299500D01*
X127834731Y-91300111D01*
X127834724Y-91300112D01*
X127829045Y-91301408D01*
X127823637Y-91302327D01*
X127797558Y-91305266D01*
X127797556Y-91305266D01*
X127792076Y-91305884D01*
X127787404Y-91308819D01*
X127782192Y-91310643D01*
X127782175Y-91310597D01*
X127781103Y-91311041D01*
X127781125Y-91311086D01*
X127776150Y-91313481D01*
X127770769Y-91314710D01*
X127766453Y-91318151D01*
X127766450Y-91318153D01*
X127745947Y-91334503D01*
X127741476Y-91337676D01*
X127736529Y-91340785D01*
X127736519Y-91340792D01*
X127734199Y-91342251D01*
X127732260Y-91344189D01*
X127732257Y-91344192D01*
X127728126Y-91348323D01*
X127724036Y-91351977D01*
X127703527Y-91368333D01*
X127703523Y-91368337D01*
X127699212Y-91371776D01*
X127696817Y-91376748D01*
X127693376Y-91381064D01*
X127693336Y-91381032D01*
X127688252Y-91388196D01*
X123222829Y-95853620D01*
X123197741Y-95867030D01*
X123116992Y-95883092D01*
X123116988Y-95883093D01*
X123112260Y-95884034D01*
X123108250Y-95886712D01*
X123108248Y-95886714D01*
X123033410Y-95936718D01*
X123033407Y-95936720D01*
X123029399Y-95939399D01*
X123026720Y-95943407D01*
X123026718Y-95943410D01*
X122976714Y-96018248D01*
X122976712Y-96018250D01*
X122974034Y-96022260D01*
X122973093Y-96026988D01*
X122973092Y-96026992D01*
X122963064Y-96077409D01*
X122954592Y-96120000D01*
X122955534Y-96124736D01*
X122973092Y-96213007D01*
X122973093Y-96213009D01*
X122974034Y-96217740D01*
X122976713Y-96221750D01*
X122976714Y-96221751D01*
X123021377Y-96288596D01*
X123029399Y-96300601D01*
X123112260Y-96355966D01*
X123210000Y-96375408D01*
X123307740Y-96355966D01*
X123390601Y-96300601D01*
X123445966Y-96217740D01*
X123448070Y-96207157D01*
X123461480Y-96182067D01*
X127928697Y-91714852D01*
X127963346Y-91700500D01*
X131919841Y-91700500D01*
X131922590Y-91700500D01*
X131932001Y-91698352D01*
X131940096Y-91696505D01*
X131968901Y-91698663D01*
X131991486Y-91716673D01*
X132000000Y-91744276D01*
X132000000Y-92381419D01*
X131999256Y-92389928D01*
X131980780Y-92494712D01*
X131979500Y-92501969D01*
X131979500Y-92564618D01*
X131979500Y-99467712D01*
X131979500Y-99500000D01*
X131979500Y-99638985D01*
X131979707Y-99640560D01*
X131979708Y-99640569D01*
X132015571Y-99912981D01*
X132015573Y-99912994D01*
X132015782Y-99914577D01*
X132016196Y-99916125D01*
X132016199Y-99916136D01*
X132087308Y-100181518D01*
X132087311Y-100181529D01*
X132087726Y-100183075D01*
X132194101Y-100439886D01*
X132194907Y-100441282D01*
X132194908Y-100441284D01*
X132312042Y-100644167D01*
X132333086Y-100680615D01*
X132334059Y-100681883D01*
X132334063Y-100681889D01*
X132446951Y-100829007D01*
X132502303Y-100901143D01*
X132698857Y-101097697D01*
X132919385Y-101266914D01*
X133160114Y-101405899D01*
X133416925Y-101512274D01*
X133685423Y-101584218D01*
X133961015Y-101620500D01*
X134064618Y-101620500D01*
X134100000Y-101620500D01*
X134132288Y-101620500D01*
X139967712Y-101620500D01*
X140017325Y-101620500D01*
X140095890Y-101620500D01*
X140098031Y-101620500D01*
X140099920Y-101620166D01*
X140103749Y-101620000D01*
X143916251Y-101620000D01*
X143920079Y-101620166D01*
X143921969Y-101620500D01*
X143984618Y-101620500D01*
X144020000Y-101620500D01*
X144052288Y-101620500D01*
X151067712Y-101620500D01*
X151117325Y-101620500D01*
X151237385Y-101620500D01*
X151238985Y-101620500D01*
X151514577Y-101584218D01*
X151783075Y-101512274D01*
X152039886Y-101405899D01*
X152280615Y-101266914D01*
X152501143Y-101097697D01*
X152697697Y-100901143D01*
X152866914Y-100680615D01*
X153005899Y-100439886D01*
X153112274Y-100183075D01*
X153184218Y-99914577D01*
X153220500Y-99638985D01*
X153220500Y-99500000D01*
X153220500Y-99467712D01*
X153220500Y-93102675D01*
X153220500Y-93021969D01*
X153200744Y-92909928D01*
X153200000Y-92901419D01*
X153200000Y-92021986D01*
X153200000Y-92020335D01*
X153200059Y-92020000D01*
X153200000Y-92019665D01*
X153200000Y-91400335D01*
X153200059Y-91400000D01*
X153200000Y-91399665D01*
X153200000Y-90518581D01*
X153200744Y-90510072D01*
X153208570Y-90465688D01*
X153220500Y-90398031D01*
X153220500Y-90300000D01*
X153220500Y-90267712D01*
X153220500Y-85652675D01*
X153220500Y-85531015D01*
X153184218Y-85255423D01*
X153112274Y-84986925D01*
X153005899Y-84730114D01*
X152866914Y-84489385D01*
X152697697Y-84268857D01*
X152501143Y-84072303D01*
X152499865Y-84071322D01*
X152281889Y-83904063D01*
X152281883Y-83904059D01*
X152280615Y-83903086D01*
X152279230Y-83902286D01*
X152279225Y-83902283D01*
X152041284Y-83764908D01*
X152041282Y-83764907D01*
X152039886Y-83764101D01*
X151783075Y-83657726D01*
X151781529Y-83657311D01*
X151781518Y-83657308D01*
X151516136Y-83586199D01*
X151516125Y-83586196D01*
X151514577Y-83585782D01*
X151512994Y-83585573D01*
X151512981Y-83585571D01*
X151240569Y-83549708D01*
X151240560Y-83549707D01*
X151238985Y-83549500D01*
X151237385Y-83549500D01*
X151135345Y-83549500D01*
X151135330Y-83549497D01*
X151135295Y-83549475D01*
X151135172Y-83549475D01*
X151100546Y-83549500D01*
X151100000Y-83549500D01*
X151067712Y-83549500D01*
X151067674Y-83549520D01*
X151067658Y-83549523D01*
X144167134Y-83554487D01*
X144157282Y-83553493D01*
X144142525Y-83550474D01*
X144136408Y-83552512D01*
X144136404Y-83552513D01*
X144114745Y-83559733D01*
X144113092Y-83560252D01*
X144086660Y-83568034D01*
X144086655Y-83568036D01*
X144082027Y-83569399D01*
X144080775Y-83570843D01*
X144079969Y-83571229D01*
X144059645Y-83577943D01*
X144026598Y-83577116D01*
X144001596Y-83555489D01*
X143996020Y-83522905D01*
X143999315Y-83504222D01*
X143999315Y-83504219D01*
X144000059Y-83500000D01*
X143981963Y-83397374D01*
X143929859Y-83307126D01*
X143926575Y-83304370D01*
X143926574Y-83304369D01*
X143853312Y-83242895D01*
X143850030Y-83240141D01*
X143846004Y-83238675D01*
X143846003Y-83238675D01*
X143793648Y-83219620D01*
X143752105Y-83204500D01*
X143647895Y-83204500D01*
X143643864Y-83205966D01*
X143643864Y-83205967D01*
X143553997Y-83238675D01*
X143553993Y-83238676D01*
X143549971Y-83240141D01*
X143546690Y-83242893D01*
X143546688Y-83242895D01*
X143473425Y-83304369D01*
X143473421Y-83304373D01*
X143470141Y-83307126D01*
X143467998Y-83310837D01*
X143467996Y-83310840D01*
X143420180Y-83393661D01*
X143420178Y-83393664D01*
X143418037Y-83397374D01*
X143399941Y-83500000D01*
X143400685Y-83504219D01*
X143400685Y-83504221D01*
X143403980Y-83522910D01*
X143398402Y-83555493D01*
X143373400Y-83577119D01*
X143340354Y-83577945D01*
X143308243Y-83567337D01*
X143297100Y-83562017D01*
X143291372Y-83558331D01*
X143291368Y-83558329D01*
X143285447Y-83554520D01*
X143278405Y-83554516D01*
X143278402Y-83554515D01*
X143277518Y-83554515D01*
X143266162Y-83552668D01*
X143263594Y-83552513D01*
X143257475Y-83550474D01*
X143251158Y-83551766D01*
X143251153Y-83551766D01*
X143242700Y-83553496D01*
X143232853Y-83554490D01*
X134132327Y-83549518D01*
X134132316Y-83549516D01*
X134132288Y-83549500D01*
X134132193Y-83549500D01*
X134099210Y-83549500D01*
X134082830Y-83549491D01*
X134082741Y-83549491D01*
X134082711Y-83549499D01*
X134082705Y-83549500D01*
X133961015Y-83549500D01*
X133959440Y-83549707D01*
X133959430Y-83549708D01*
X133687018Y-83585571D01*
X133687002Y-83585574D01*
X133685423Y-83585782D01*
X133683877Y-83586196D01*
X133683863Y-83586199D01*
X133418481Y-83657308D01*
X133418466Y-83657313D01*
X133416925Y-83657726D01*
X133415446Y-83658338D01*
X133415439Y-83658341D01*
X133161603Y-83763484D01*
X133161600Y-83763485D01*
X133160114Y-83764101D01*
X133158723Y-83764903D01*
X133158715Y-83764908D01*
X132920774Y-83902283D01*
X132920762Y-83902290D01*
X132919385Y-83903086D01*
X132918123Y-83904053D01*
X132918110Y-83904063D01*
X132700134Y-84071322D01*
X132700123Y-84071330D01*
X132698857Y-84072303D01*
X132697726Y-84073433D01*
X132697718Y-84073441D01*
X132503441Y-84267718D01*
X132503433Y-84267726D01*
X132502303Y-84268857D01*
X132501330Y-84270123D01*
X132501322Y-84270134D01*
X132334063Y-84488110D01*
X132334053Y-84488123D01*
X132333086Y-84489385D01*
X132332290Y-84490762D01*
X132332283Y-84490774D01*
X132194908Y-84728715D01*
X132194903Y-84728723D01*
X132194101Y-84730114D01*
X132193485Y-84731600D01*
X132193484Y-84731603D01*
X132088341Y-84985439D01*
X132088338Y-84985446D01*
X132087726Y-84986925D01*
X132087313Y-84988466D01*
X132087308Y-84988481D01*
X132016199Y-85253863D01*
X132016196Y-85253877D01*
X132015782Y-85255423D01*
X132015574Y-85257002D01*
X132015571Y-85257018D01*
X131979708Y-85529430D01*
X131979707Y-85529440D01*
X131979500Y-85531015D01*
X131979500Y-85634618D01*
X131979500Y-89617712D01*
X131979500Y-89650000D01*
X131979500Y-89748031D01*
X131979870Y-89750134D01*
X131979871Y-89750136D01*
X131999256Y-89860072D01*
X132000000Y-89868581D01*
X132000000Y-90355724D01*
X131991486Y-90383327D01*
X131968901Y-90401337D01*
X131940096Y-90403495D01*
X131925274Y-90400112D01*
X131925268Y-90400111D01*
X131922590Y-90399500D01*
X131919841Y-90399500D01*
X127349500Y-90399500D01*
X127314852Y-90385148D01*
X127300500Y-90350500D01*
X127300500Y-85589888D01*
X127301971Y-85581228D01*
X127301920Y-85581223D01*
X127302537Y-85575739D01*
X127304362Y-85570526D01*
X127300808Y-85538978D01*
X127300500Y-85533493D01*
X127300500Y-85527665D01*
X127300500Y-85524910D01*
X127298587Y-85516533D01*
X127297671Y-85511137D01*
X127294116Y-85479576D01*
X127291178Y-85474901D01*
X127289355Y-85469690D01*
X127289403Y-85469673D01*
X127288960Y-85468603D01*
X127288914Y-85468626D01*
X127286518Y-85463650D01*
X127285290Y-85458269D01*
X127265486Y-85433435D01*
X127262316Y-85428968D01*
X127257748Y-85421699D01*
X127251680Y-85415631D01*
X127248028Y-85411545D01*
X127228224Y-85386712D01*
X127223249Y-85384316D01*
X127218933Y-85380874D01*
X127218964Y-85380834D01*
X127211798Y-85375749D01*
X121366812Y-79530763D01*
X121352990Y-79503305D01*
X121358246Y-79473016D01*
X121422396Y-79353001D01*
X121476747Y-79173831D01*
X121495099Y-78987500D01*
X122124901Y-78987500D01*
X122125137Y-78989896D01*
X122143007Y-79171340D01*
X122143253Y-79173831D01*
X122143948Y-79176124D01*
X122143950Y-79176131D01*
X122196847Y-79350506D01*
X122197604Y-79353001D01*
X122198742Y-79355130D01*
X122284579Y-79515722D01*
X122285864Y-79518125D01*
X122404643Y-79662857D01*
X122549375Y-79781636D01*
X122714499Y-79869896D01*
X122893669Y-79924247D01*
X123080000Y-79942599D01*
X123266331Y-79924247D01*
X123445501Y-79869896D01*
X123610625Y-79781636D01*
X123755357Y-79662857D01*
X123874136Y-79518125D01*
X123962396Y-79353001D01*
X124016747Y-79173831D01*
X124035099Y-78987500D01*
X124016747Y-78801169D01*
X123962396Y-78621999D01*
X123874136Y-78456875D01*
X123755357Y-78312143D01*
X123703879Y-78269896D01*
X123612487Y-78194892D01*
X123612486Y-78194891D01*
X123610625Y-78193364D01*
X123445501Y-78105104D01*
X123443193Y-78104403D01*
X123443191Y-78104403D01*
X123268631Y-78051450D01*
X123268624Y-78051448D01*
X123266331Y-78050753D01*
X123263941Y-78050517D01*
X123263938Y-78050517D01*
X123082396Y-78032637D01*
X123080000Y-78032401D01*
X123077604Y-78032637D01*
X122896061Y-78050517D01*
X122896056Y-78050517D01*
X122893669Y-78050753D01*
X122891377Y-78051448D01*
X122891368Y-78051450D01*
X122716808Y-78104403D01*
X122716802Y-78104405D01*
X122714499Y-78105104D01*
X122712373Y-78106240D01*
X122712369Y-78106242D01*
X122551499Y-78192228D01*
X122551493Y-78192231D01*
X122549375Y-78193364D01*
X122547518Y-78194887D01*
X122547512Y-78194892D01*
X122406505Y-78310614D01*
X122406500Y-78310618D01*
X122404643Y-78312143D01*
X122403118Y-78314000D01*
X122403114Y-78314005D01*
X122287392Y-78455012D01*
X122287387Y-78455018D01*
X122285864Y-78456875D01*
X122284731Y-78458993D01*
X122284728Y-78458999D01*
X122198742Y-78619869D01*
X122198740Y-78619873D01*
X122197604Y-78621999D01*
X122196905Y-78624302D01*
X122196903Y-78624308D01*
X122143950Y-78798868D01*
X122143948Y-78798877D01*
X122143253Y-78801169D01*
X122143017Y-78803556D01*
X122143017Y-78803561D01*
X122133448Y-78900718D01*
X122124901Y-78987500D01*
X121495099Y-78987500D01*
X121476747Y-78801169D01*
X121422396Y-78621999D01*
X121334136Y-78456875D01*
X121215357Y-78312143D01*
X121163879Y-78269896D01*
X121072487Y-78194892D01*
X121072486Y-78194891D01*
X121070625Y-78193364D01*
X120905501Y-78105104D01*
X120903193Y-78104403D01*
X120903191Y-78104403D01*
X120775276Y-78065600D01*
X120750143Y-78047899D01*
X120740500Y-78018710D01*
X120740500Y-77416290D01*
X120750143Y-77387101D01*
X120775276Y-77369400D01*
X120811222Y-77358495D01*
X120905501Y-77329896D01*
X121070625Y-77241636D01*
X121215357Y-77122857D01*
X121249905Y-77080760D01*
X122129500Y-77080760D01*
X122129756Y-77082517D01*
X122135633Y-77122857D01*
X122139427Y-77148893D01*
X122141097Y-77152309D01*
X122141098Y-77152312D01*
X122147351Y-77165102D01*
X122190802Y-77253983D01*
X122273517Y-77336698D01*
X122378607Y-77388073D01*
X122446740Y-77398000D01*
X123711484Y-77398000D01*
X123713260Y-77398000D01*
X123781393Y-77388073D01*
X123886483Y-77336698D01*
X123969198Y-77253983D01*
X124020573Y-77148893D01*
X124030500Y-77080760D01*
X124030500Y-75814240D01*
X124020573Y-75746107D01*
X123969198Y-75641017D01*
X123886483Y-75558302D01*
X123838228Y-75534712D01*
X123784812Y-75508598D01*
X123784809Y-75508597D01*
X123781393Y-75506927D01*
X123777628Y-75506378D01*
X123777627Y-75506378D01*
X123715017Y-75497256D01*
X123713260Y-75497000D01*
X122446740Y-75497000D01*
X122444983Y-75497255D01*
X122444982Y-75497256D01*
X122382372Y-75506378D01*
X122382369Y-75506378D01*
X122378607Y-75506927D01*
X122375192Y-75508596D01*
X122375187Y-75508598D01*
X122277166Y-75556518D01*
X122273517Y-75558302D01*
X122270646Y-75561172D01*
X122270643Y-75561175D01*
X122193675Y-75638143D01*
X122193672Y-75638146D01*
X122190802Y-75641017D01*
X122189018Y-75644665D01*
X122189018Y-75644666D01*
X122141098Y-75742687D01*
X122141096Y-75742692D01*
X122139427Y-75746107D01*
X122138878Y-75749869D01*
X122138878Y-75749872D01*
X122135362Y-75774005D01*
X122129500Y-75814240D01*
X122129500Y-77080760D01*
X121249905Y-77080760D01*
X121334136Y-76978125D01*
X121422396Y-76813001D01*
X121476747Y-76633831D01*
X121495099Y-76447500D01*
X121476747Y-76261169D01*
X121422396Y-76081999D01*
X121334136Y-75916875D01*
X121215357Y-75772143D01*
X121163879Y-75729896D01*
X121072487Y-75654892D01*
X121072486Y-75654891D01*
X121070625Y-75653364D01*
X121042148Y-75638143D01*
X120907630Y-75566242D01*
X120905501Y-75565104D01*
X120903193Y-75564403D01*
X120903191Y-75564403D01*
X120728631Y-75511450D01*
X120728624Y-75511448D01*
X120726331Y-75510753D01*
X120723941Y-75510517D01*
X120723938Y-75510517D01*
X120542396Y-75492637D01*
X120540000Y-75492401D01*
X120537604Y-75492637D01*
X120356061Y-75510517D01*
X120356056Y-75510517D01*
X120353669Y-75510753D01*
X120351377Y-75511448D01*
X120351368Y-75511450D01*
X120176808Y-75564403D01*
X120176802Y-75564405D01*
X120174499Y-75565104D01*
X120172373Y-75566240D01*
X120172369Y-75566242D01*
X120011499Y-75652228D01*
X120011493Y-75652231D01*
X120009375Y-75653364D01*
X120007518Y-75654887D01*
X120007512Y-75654892D01*
X119866505Y-75770614D01*
X119866500Y-75770618D01*
X119864643Y-75772143D01*
X119863118Y-75774000D01*
X119863114Y-75774005D01*
X119747392Y-75915012D01*
X119747387Y-75915018D01*
X119745864Y-75916875D01*
X119744731Y-75918993D01*
X119744728Y-75918999D01*
X119658742Y-76079869D01*
X119658740Y-76079873D01*
X119657604Y-76081999D01*
X119656905Y-76084302D01*
X119656903Y-76084308D01*
X119603950Y-76258868D01*
X119603948Y-76258877D01*
X119603253Y-76261169D01*
X119603017Y-76263556D01*
X119603017Y-76263561D01*
X119593448Y-76360718D01*
X119584901Y-76447500D01*
X119585137Y-76449896D01*
X119603007Y-76631340D01*
X119603253Y-76633831D01*
X119603948Y-76636124D01*
X119603950Y-76636131D01*
X119656847Y-76810506D01*
X119657604Y-76813001D01*
X119658742Y-76815130D01*
X119744579Y-76975722D01*
X119745864Y-76978125D01*
X119864643Y-77122857D01*
X120009375Y-77241636D01*
X120174499Y-77329896D01*
X120253689Y-77353918D01*
X120304724Y-77369400D01*
X120329857Y-77387101D01*
X120339500Y-77416290D01*
X120339500Y-78018710D01*
X120329857Y-78047899D01*
X120304724Y-78065600D01*
X120176808Y-78104403D01*
X120176802Y-78104405D01*
X120174499Y-78105104D01*
X120172373Y-78106240D01*
X120172369Y-78106242D01*
X120011499Y-78192228D01*
X120011493Y-78192231D01*
X120009375Y-78193364D01*
X120007518Y-78194887D01*
X120007512Y-78194892D01*
X119866505Y-78310614D01*
X119866500Y-78310618D01*
X119864643Y-78312143D01*
X119863118Y-78314000D01*
X119863114Y-78314005D01*
X119747392Y-78455012D01*
X119747387Y-78455018D01*
X119745864Y-78456875D01*
X119744731Y-78458993D01*
X119744728Y-78458999D01*
X119658742Y-78619869D01*
X119658740Y-78619873D01*
X119657604Y-78621999D01*
X119656905Y-78624302D01*
X119656903Y-78624308D01*
X119603950Y-78798868D01*
X119603948Y-78798877D01*
X119603253Y-78801169D01*
X119603017Y-78803556D01*
X119603017Y-78803561D01*
X119593448Y-78900718D01*
X119584901Y-78987500D01*
X119585137Y-78989896D01*
X119603007Y-79171340D01*
X119603253Y-79173831D01*
X119603948Y-79176124D01*
X119603950Y-79176131D01*
X119656847Y-79350506D01*
X119657604Y-79353001D01*
X119658742Y-79355130D01*
X119744579Y-79515722D01*
X119745864Y-79518125D01*
X119864643Y-79662857D01*
X120009375Y-79781636D01*
X120174499Y-79869896D01*
X120353669Y-79924247D01*
X120540000Y-79942599D01*
X120726331Y-79924247D01*
X120905501Y-79869896D01*
X121025516Y-79805745D01*
X121055805Y-79800490D01*
X121083263Y-79814312D01*
X126885148Y-85616197D01*
X126899500Y-85650845D01*
X126899500Y-90496654D01*
X126885148Y-90531302D01*
X120791303Y-96625148D01*
X120775406Y-96635770D01*
X120756655Y-96639500D01*
X119242388Y-96639500D01*
X119233728Y-96638028D01*
X119233723Y-96638080D01*
X119228238Y-96637461D01*
X119223026Y-96635638D01*
X119217539Y-96636256D01*
X119191478Y-96639192D01*
X119185993Y-96639500D01*
X119177410Y-96639500D01*
X119174734Y-96640110D01*
X119174721Y-96640112D01*
X119169038Y-96641409D01*
X119163631Y-96642328D01*
X119137561Y-96645265D01*
X119137556Y-96645266D01*
X119132076Y-96645884D01*
X119127402Y-96648820D01*
X119122191Y-96650644D01*
X119122174Y-96650597D01*
X119121103Y-96651041D01*
X119121125Y-96651086D01*
X119116150Y-96653481D01*
X119110769Y-96654710D01*
X119106453Y-96658151D01*
X119106450Y-96658153D01*
X119085947Y-96674503D01*
X119081476Y-96677676D01*
X119076529Y-96680785D01*
X119076519Y-96680792D01*
X119074199Y-96682251D01*
X119072260Y-96684189D01*
X119072257Y-96684192D01*
X119068126Y-96688323D01*
X119064036Y-96691977D01*
X119043528Y-96708333D01*
X119043526Y-96708335D01*
X119039212Y-96711776D01*
X119036817Y-96716747D01*
X119033375Y-96721064D01*
X119033335Y-96721032D01*
X119028250Y-96728198D01*
X118631303Y-97125148D01*
X118615407Y-97135770D01*
X118596655Y-97139500D01*
X118165683Y-97139500D01*
X118138461Y-97131242D01*
X118101754Y-97106716D01*
X118097740Y-97104034D01*
X118048870Y-97094313D01*
X118004736Y-97085534D01*
X118000000Y-97084592D01*
X117995264Y-97085534D01*
X117906992Y-97103092D01*
X117906988Y-97103093D01*
X117902260Y-97104034D01*
X117898250Y-97106712D01*
X117898248Y-97106714D01*
X117823410Y-97156718D01*
X117823407Y-97156720D01*
X117819399Y-97159399D01*
X117816720Y-97163407D01*
X117816718Y-97163410D01*
X117766714Y-97238248D01*
X117766712Y-97238250D01*
X117764034Y-97242260D01*
X117763093Y-97246988D01*
X117763092Y-97246992D01*
X117745919Y-97333328D01*
X117744592Y-97340000D01*
X117278624Y-97340000D01*
X117207601Y-97297565D01*
X117207599Y-97297564D01*
X117205711Y-97296436D01*
X117119281Y-97263998D01*
X116994736Y-97217255D01*
X116994732Y-97217253D01*
X116992670Y-97216480D01*
X116990510Y-97216088D01*
X116990503Y-97216086D01*
X116770938Y-97176242D01*
X116770934Y-97176241D01*
X116768776Y-97175850D01*
X116598225Y-97175850D01*
X116597144Y-97175947D01*
X116597128Y-97175948D01*
X116430552Y-97190941D01*
X116430550Y-97190941D01*
X116428365Y-97191138D01*
X116426256Y-97191719D01*
X116426245Y-97191722D01*
X116211131Y-97251090D01*
X116211123Y-97251092D01*
X116209014Y-97251675D01*
X116207046Y-97252622D01*
X116207037Y-97252626D01*
X116005976Y-97349451D01*
X116005967Y-97349456D01*
X116003997Y-97350405D01*
X116002228Y-97351690D01*
X116002220Y-97351695D01*
X115821683Y-97482864D01*
X115821674Y-97482871D01*
X115819905Y-97484157D01*
X115818388Y-97485743D01*
X115818383Y-97485748D01*
X115664175Y-97647036D01*
X115664169Y-97647042D01*
X115662653Y-97648629D01*
X115661443Y-97650461D01*
X115661439Y-97650467D01*
X115538507Y-97836699D01*
X115538501Y-97836709D01*
X115537295Y-97838537D01*
X115536435Y-97840547D01*
X115536429Y-97840560D01*
X115448725Y-98045756D01*
X115448722Y-98045763D01*
X115447862Y-98047777D01*
X115447374Y-98049910D01*
X115447372Y-98049920D01*
X115402671Y-98245770D01*
X115397227Y-98269623D01*
X115397128Y-98271814D01*
X115397128Y-98271819D01*
X115387116Y-98494747D01*
X115387116Y-98494754D01*
X115387018Y-98496945D01*
X100120500Y-98496945D01*
X100120500Y-96916000D01*
X114173064Y-96916000D01*
X114173483Y-96919183D01*
X114192303Y-97062137D01*
X114192304Y-97062141D01*
X114192723Y-97065322D01*
X114193951Y-97068287D01*
X114193952Y-97068290D01*
X114245079Y-97191722D01*
X114250359Y-97204468D01*
X114252311Y-97207012D01*
X114252314Y-97207017D01*
X114340089Y-97321406D01*
X114342045Y-97323955D01*
X114344593Y-97325910D01*
X114458982Y-97413685D01*
X114458985Y-97413687D01*
X114461532Y-97415641D01*
X114600678Y-97473277D01*
X114712508Y-97488000D01*
X114785892Y-97488000D01*
X114787492Y-97488000D01*
X114899322Y-97473277D01*
X115038468Y-97415641D01*
X115157955Y-97323955D01*
X115249641Y-97204468D01*
X115307277Y-97065322D01*
X115326023Y-96922936D01*
X115326517Y-96919183D01*
X115326936Y-96916000D01*
X115307277Y-96766678D01*
X115249641Y-96627532D01*
X115247687Y-96624985D01*
X115247685Y-96624982D01*
X115159910Y-96510593D01*
X115157955Y-96508045D01*
X115136297Y-96491426D01*
X115041017Y-96418314D01*
X115041012Y-96418311D01*
X115038468Y-96416359D01*
X115035499Y-96415129D01*
X114902290Y-96359952D01*
X114902287Y-96359951D01*
X114899322Y-96358723D01*
X114896141Y-96358304D01*
X114896137Y-96358303D01*
X114789076Y-96344208D01*
X114789067Y-96344207D01*
X114787492Y-96344000D01*
X114712508Y-96344000D01*
X114710933Y-96344207D01*
X114710923Y-96344208D01*
X114603862Y-96358303D01*
X114603856Y-96358304D01*
X114600678Y-96358723D01*
X114597714Y-96359950D01*
X114597709Y-96359952D01*
X114464500Y-96415129D01*
X114464496Y-96415131D01*
X114461532Y-96416359D01*
X114458990Y-96418308D01*
X114458982Y-96418314D01*
X114344593Y-96506089D01*
X114344589Y-96506092D01*
X114342045Y-96508045D01*
X114340092Y-96510589D01*
X114340089Y-96510593D01*
X114252314Y-96624982D01*
X114252308Y-96624990D01*
X114250359Y-96627532D01*
X114249131Y-96630496D01*
X114249129Y-96630500D01*
X114193952Y-96763709D01*
X114193950Y-96763714D01*
X114192723Y-96766678D01*
X114192304Y-96769856D01*
X114192303Y-96769862D01*
X114174489Y-96905173D01*
X114173064Y-96916000D01*
X100120500Y-96916000D01*
X100120500Y-95900000D01*
X119253064Y-95900000D01*
X119253483Y-95903183D01*
X119272303Y-96046137D01*
X119272304Y-96046141D01*
X119272723Y-96049322D01*
X119273951Y-96052287D01*
X119273952Y-96052290D01*
X119320665Y-96165065D01*
X119330359Y-96188468D01*
X119332311Y-96191012D01*
X119332314Y-96191017D01*
X119416402Y-96300601D01*
X119422045Y-96307955D01*
X119424593Y-96309910D01*
X119538982Y-96397685D01*
X119538985Y-96397687D01*
X119541532Y-96399641D01*
X119680678Y-96457277D01*
X119792508Y-96472000D01*
X119865892Y-96472000D01*
X119867492Y-96472000D01*
X119979322Y-96457277D01*
X120118468Y-96399641D01*
X120237955Y-96307955D01*
X120329641Y-96188468D01*
X120387277Y-96049322D01*
X120406936Y-95900000D01*
X120387277Y-95750678D01*
X120329641Y-95611532D01*
X120327687Y-95608985D01*
X120327685Y-95608982D01*
X120239910Y-95494593D01*
X120237955Y-95492045D01*
X120197196Y-95460769D01*
X120121017Y-95402314D01*
X120121012Y-95402311D01*
X120118468Y-95400359D01*
X120115499Y-95399129D01*
X119982290Y-95343952D01*
X119982287Y-95343951D01*
X119979322Y-95342723D01*
X119976141Y-95342304D01*
X119976137Y-95342303D01*
X119869076Y-95328208D01*
X119869067Y-95328207D01*
X119867492Y-95328000D01*
X119792508Y-95328000D01*
X119790933Y-95328207D01*
X119790923Y-95328208D01*
X119683862Y-95342303D01*
X119683856Y-95342304D01*
X119680678Y-95342723D01*
X119677714Y-95343950D01*
X119677709Y-95343952D01*
X119544500Y-95399129D01*
X119544496Y-95399131D01*
X119541532Y-95400359D01*
X119538990Y-95402308D01*
X119538982Y-95402314D01*
X119424593Y-95490089D01*
X119424589Y-95490092D01*
X119422045Y-95492045D01*
X119420092Y-95494589D01*
X119420089Y-95494593D01*
X119332314Y-95608982D01*
X119332308Y-95608990D01*
X119330359Y-95611532D01*
X119329131Y-95614496D01*
X119329129Y-95614500D01*
X119273952Y-95747709D01*
X119273950Y-95747714D01*
X119272723Y-95750678D01*
X119272304Y-95753856D01*
X119272303Y-95753862D01*
X119256705Y-95872345D01*
X119253064Y-95900000D01*
X100120500Y-95900000D01*
X100120500Y-94884000D01*
X114173064Y-94884000D01*
X114173483Y-94887183D01*
X114192303Y-95030137D01*
X114192304Y-95030141D01*
X114192723Y-95033322D01*
X114193951Y-95036287D01*
X114193952Y-95036290D01*
X114247743Y-95166153D01*
X114250359Y-95172468D01*
X114252311Y-95175012D01*
X114252314Y-95175017D01*
X114340089Y-95289406D01*
X114342045Y-95291955D01*
X114344593Y-95293910D01*
X114458982Y-95381685D01*
X114458985Y-95381687D01*
X114461532Y-95383641D01*
X114600678Y-95441277D01*
X114712508Y-95456000D01*
X114785892Y-95456000D01*
X114787492Y-95456000D01*
X114899322Y-95441277D01*
X115038468Y-95383641D01*
X115157955Y-95291955D01*
X115249641Y-95172468D01*
X115307277Y-95033322D01*
X115318905Y-94945000D01*
X119944592Y-94945000D01*
X119945534Y-94949736D01*
X119963092Y-95038007D01*
X119963093Y-95038009D01*
X119964034Y-95042740D01*
X119966713Y-95046750D01*
X119966714Y-95046751D01*
X120004998Y-95104049D01*
X120019399Y-95125601D01*
X120102260Y-95180966D01*
X120200000Y-95200408D01*
X120297740Y-95180966D01*
X120380601Y-95125601D01*
X120435966Y-95042740D01*
X120455408Y-94945000D01*
X120435966Y-94847260D01*
X120380601Y-94764399D01*
X120367107Y-94755383D01*
X120301751Y-94711714D01*
X120301750Y-94711713D01*
X120297740Y-94709034D01*
X120293009Y-94708093D01*
X120293007Y-94708092D01*
X120204736Y-94690534D01*
X120200000Y-94689592D01*
X120195264Y-94690534D01*
X120106992Y-94708092D01*
X120106988Y-94708093D01*
X120102260Y-94709034D01*
X120098250Y-94711712D01*
X120098248Y-94711714D01*
X120023410Y-94761718D01*
X120023407Y-94761720D01*
X120019399Y-94764399D01*
X120016720Y-94768407D01*
X120016718Y-94768410D01*
X119966714Y-94843248D01*
X119966712Y-94843250D01*
X119964034Y-94847260D01*
X119963093Y-94851988D01*
X119963092Y-94851992D01*
X119950589Y-94914852D01*
X119944592Y-94945000D01*
X115318905Y-94945000D01*
X115326936Y-94884000D01*
X115307277Y-94734678D01*
X115249641Y-94595532D01*
X115247687Y-94592985D01*
X115247685Y-94592982D01*
X115171326Y-94493470D01*
X115157955Y-94476045D01*
X115123361Y-94449500D01*
X115041017Y-94386314D01*
X115041012Y-94386311D01*
X115038468Y-94384359D01*
X115031641Y-94381531D01*
X114902290Y-94327952D01*
X114902287Y-94327951D01*
X114899322Y-94326723D01*
X114896141Y-94326304D01*
X114896137Y-94326303D01*
X114789076Y-94312208D01*
X114789067Y-94312207D01*
X114787492Y-94312000D01*
X114712508Y-94312000D01*
X114710933Y-94312207D01*
X114710923Y-94312208D01*
X114603862Y-94326303D01*
X114603856Y-94326304D01*
X114600678Y-94326723D01*
X114597714Y-94327950D01*
X114597709Y-94327952D01*
X114464500Y-94383129D01*
X114464496Y-94383131D01*
X114461532Y-94384359D01*
X114458990Y-94386308D01*
X114458982Y-94386314D01*
X114344593Y-94474089D01*
X114344589Y-94474092D01*
X114342045Y-94476045D01*
X114340092Y-94478589D01*
X114340089Y-94478593D01*
X114252314Y-94592982D01*
X114252308Y-94592990D01*
X114250359Y-94595532D01*
X114249131Y-94598496D01*
X114249129Y-94598500D01*
X114193952Y-94731709D01*
X114193950Y-94731714D01*
X114192723Y-94734678D01*
X114192304Y-94737856D01*
X114192303Y-94737862D01*
X114173866Y-94877905D01*
X114173064Y-94884000D01*
X100120500Y-94884000D01*
X100120500Y-93416945D01*
X115387018Y-93416945D01*
X115387312Y-93419122D01*
X115387313Y-93419124D01*
X115417268Y-93640263D01*
X115417269Y-93640268D01*
X115417563Y-93642437D01*
X115418238Y-93644514D01*
X115418240Y-93644523D01*
X115467365Y-93795713D01*
X115487880Y-93858851D01*
X115488917Y-93860779D01*
X115488921Y-93860787D01*
X115594670Y-94057301D01*
X115594674Y-94057308D01*
X115595710Y-94059232D01*
X115597075Y-94060944D01*
X115597076Y-94060945D01*
X115722836Y-94218644D01*
X115737585Y-94237138D01*
X115908948Y-94386853D01*
X116104289Y-94503564D01*
X116317330Y-94583520D01*
X116541224Y-94624150D01*
X116710671Y-94624150D01*
X116711775Y-94624150D01*
X116881635Y-94608862D01*
X117100986Y-94548325D01*
X117306003Y-94449595D01*
X117490095Y-94315843D01*
X117647347Y-94151371D01*
X117772705Y-93961463D01*
X117862138Y-93752223D01*
X117912773Y-93530377D01*
X117917867Y-93416945D01*
X118562018Y-93416945D01*
X118562312Y-93419122D01*
X118562313Y-93419124D01*
X118592268Y-93640263D01*
X118592269Y-93640268D01*
X118592563Y-93642437D01*
X118593238Y-93644514D01*
X118593240Y-93644523D01*
X118642365Y-93795713D01*
X118662880Y-93858851D01*
X118663917Y-93860779D01*
X118663921Y-93860787D01*
X118769670Y-94057301D01*
X118769674Y-94057308D01*
X118770710Y-94059232D01*
X118772075Y-94060944D01*
X118772076Y-94060945D01*
X118897836Y-94218644D01*
X118912585Y-94237138D01*
X119083948Y-94386853D01*
X119279289Y-94503564D01*
X119492330Y-94583520D01*
X119716224Y-94624150D01*
X119885671Y-94624150D01*
X119886775Y-94624150D01*
X120056635Y-94608862D01*
X120275986Y-94548325D01*
X120481003Y-94449595D01*
X120665095Y-94315843D01*
X120822347Y-94151371D01*
X120947705Y-93961463D01*
X121037138Y-93752223D01*
X121087773Y-93530377D01*
X121097982Y-93303055D01*
X121067437Y-93077563D01*
X121064857Y-93069624D01*
X121048625Y-93019667D01*
X120997120Y-92861149D01*
X120994883Y-92856992D01*
X120890329Y-92662698D01*
X120890326Y-92662694D01*
X120889290Y-92660768D01*
X120747415Y-92482862D01*
X120722127Y-92460769D01*
X120640224Y-92389212D01*
X120576052Y-92333147D01*
X120465950Y-92267364D01*
X120382601Y-92217565D01*
X120382599Y-92217564D01*
X120380711Y-92216436D01*
X120339356Y-92200915D01*
X120169736Y-92137255D01*
X120169732Y-92137253D01*
X120167670Y-92136480D01*
X120165510Y-92136088D01*
X120165503Y-92136086D01*
X119945938Y-92096242D01*
X119945934Y-92096241D01*
X119943776Y-92095850D01*
X119773225Y-92095850D01*
X119772144Y-92095947D01*
X119772128Y-92095948D01*
X119605552Y-92110941D01*
X119605550Y-92110941D01*
X119603365Y-92111138D01*
X119601256Y-92111719D01*
X119601245Y-92111722D01*
X119386131Y-92171090D01*
X119386123Y-92171092D01*
X119384014Y-92171675D01*
X119382046Y-92172622D01*
X119382037Y-92172626D01*
X119180976Y-92269451D01*
X119180967Y-92269456D01*
X119178997Y-92270405D01*
X119177228Y-92271690D01*
X119177220Y-92271695D01*
X118996683Y-92402864D01*
X118996674Y-92402871D01*
X118994905Y-92404157D01*
X118993388Y-92405743D01*
X118993383Y-92405748D01*
X118839175Y-92567036D01*
X118839169Y-92567042D01*
X118837653Y-92568629D01*
X118836443Y-92570461D01*
X118836439Y-92570467D01*
X118713507Y-92756699D01*
X118713501Y-92756709D01*
X118712295Y-92758537D01*
X118711435Y-92760547D01*
X118711429Y-92760560D01*
X118623725Y-92965756D01*
X118623722Y-92965763D01*
X118622862Y-92967777D01*
X118622374Y-92969910D01*
X118622372Y-92969920D01*
X118572717Y-93187475D01*
X118572227Y-93189623D01*
X118572128Y-93191814D01*
X118572128Y-93191819D01*
X118562116Y-93414747D01*
X118562116Y-93414754D01*
X118562018Y-93416945D01*
X117917867Y-93416945D01*
X117922982Y-93303055D01*
X117892437Y-93077563D01*
X117889857Y-93069624D01*
X117873625Y-93019667D01*
X117822120Y-92861149D01*
X117819883Y-92856992D01*
X117715329Y-92662698D01*
X117715326Y-92662694D01*
X117714290Y-92660768D01*
X117572415Y-92482862D01*
X117547127Y-92460769D01*
X117465224Y-92389212D01*
X117401052Y-92333147D01*
X117290950Y-92267364D01*
X117207601Y-92217565D01*
X117207599Y-92217564D01*
X117205711Y-92216436D01*
X117164356Y-92200915D01*
X116994736Y-92137255D01*
X116994732Y-92137253D01*
X116992670Y-92136480D01*
X116990510Y-92136088D01*
X116990503Y-92136086D01*
X116770938Y-92096242D01*
X116770934Y-92096241D01*
X116768776Y-92095850D01*
X116598225Y-92095850D01*
X116597144Y-92095947D01*
X116597128Y-92095948D01*
X116430552Y-92110941D01*
X116430550Y-92110941D01*
X116428365Y-92111138D01*
X116426256Y-92111719D01*
X116426245Y-92111722D01*
X116211131Y-92171090D01*
X116211123Y-92171092D01*
X116209014Y-92171675D01*
X116207046Y-92172622D01*
X116207037Y-92172626D01*
X116005976Y-92269451D01*
X116005967Y-92269456D01*
X116003997Y-92270405D01*
X116002228Y-92271690D01*
X116002220Y-92271695D01*
X115821683Y-92402864D01*
X115821674Y-92402871D01*
X115819905Y-92404157D01*
X115818388Y-92405743D01*
X115818383Y-92405748D01*
X115664175Y-92567036D01*
X115664169Y-92567042D01*
X115662653Y-92568629D01*
X115661443Y-92570461D01*
X115661439Y-92570467D01*
X115538507Y-92756699D01*
X115538501Y-92756709D01*
X115537295Y-92758537D01*
X115536435Y-92760547D01*
X115536429Y-92760560D01*
X115448725Y-92965756D01*
X115448722Y-92965763D01*
X115447862Y-92967777D01*
X115447374Y-92969910D01*
X115447372Y-92969920D01*
X115397717Y-93187475D01*
X115397227Y-93189623D01*
X115397128Y-93191814D01*
X115397128Y-93191819D01*
X115387116Y-93414747D01*
X115387116Y-93414754D01*
X115387018Y-93416945D01*
X100120500Y-93416945D01*
X100120500Y-79700639D01*
X112293818Y-79700639D01*
X112296907Y-79705102D01*
X112387790Y-79779688D01*
X112391777Y-79782352D01*
X112552571Y-79868299D01*
X112556993Y-79870131D01*
X112731466Y-79923057D01*
X112736159Y-79923990D01*
X112917604Y-79941861D01*
X112922396Y-79941861D01*
X113103840Y-79923990D01*
X113108533Y-79923057D01*
X113283006Y-79870131D01*
X113287428Y-79868299D01*
X113448226Y-79782350D01*
X113452204Y-79779692D01*
X113543094Y-79705099D01*
X113546180Y-79700640D01*
X113546179Y-79700639D01*
X114833818Y-79700639D01*
X114836907Y-79705102D01*
X114927790Y-79779688D01*
X114931777Y-79782352D01*
X115092571Y-79868299D01*
X115096993Y-79870131D01*
X115271466Y-79923057D01*
X115276159Y-79923990D01*
X115457604Y-79941861D01*
X115462396Y-79941861D01*
X115643840Y-79923990D01*
X115648533Y-79923057D01*
X115823006Y-79870131D01*
X115827428Y-79868299D01*
X115988226Y-79782350D01*
X115992204Y-79779692D01*
X116083094Y-79705099D01*
X116086180Y-79700640D01*
X116083545Y-79695898D01*
X115466892Y-79079245D01*
X115460000Y-79076390D01*
X115453107Y-79079245D01*
X114836453Y-79695898D01*
X114833818Y-79700639D01*
X113546179Y-79700639D01*
X113543545Y-79695898D01*
X112926892Y-79079245D01*
X112920000Y-79076390D01*
X112913107Y-79079245D01*
X112296453Y-79695898D01*
X112293818Y-79700639D01*
X100120500Y-79700639D01*
X100120500Y-78989896D01*
X111965639Y-78989896D01*
X111983509Y-79171340D01*
X111984442Y-79176033D01*
X112037368Y-79350506D01*
X112039200Y-79354928D01*
X112125147Y-79515722D01*
X112127811Y-79519709D01*
X112202396Y-79610591D01*
X112206859Y-79613680D01*
X112211600Y-79611045D01*
X112830585Y-78992061D01*
X112833218Y-78987500D01*
X112833217Y-78987499D01*
X113008890Y-78987499D01*
X113011745Y-78994392D01*
X113628398Y-79611045D01*
X113633140Y-79613680D01*
X113637599Y-79610594D01*
X113712192Y-79519704D01*
X113714850Y-79515726D01*
X113800799Y-79354928D01*
X113802631Y-79350506D01*
X113855557Y-79176033D01*
X113856490Y-79171340D01*
X113874361Y-78989896D01*
X114505639Y-78989896D01*
X114523509Y-79171340D01*
X114524442Y-79176033D01*
X114577368Y-79350506D01*
X114579200Y-79354928D01*
X114665147Y-79515722D01*
X114667811Y-79519709D01*
X114742396Y-79610591D01*
X114746859Y-79613680D01*
X114751600Y-79611045D01*
X115370585Y-78992061D01*
X115373218Y-78987500D01*
X115373217Y-78987499D01*
X115548890Y-78987499D01*
X115551745Y-78994392D01*
X116168398Y-79611045D01*
X116173140Y-79613680D01*
X116177599Y-79610594D01*
X116252192Y-79519704D01*
X116254850Y-79515726D01*
X116340799Y-79354928D01*
X116342631Y-79350506D01*
X116395557Y-79176033D01*
X116396490Y-79171340D01*
X116414361Y-78989896D01*
X116414361Y-78987500D01*
X117044901Y-78987500D01*
X117045137Y-78989896D01*
X117063007Y-79171340D01*
X117063253Y-79173831D01*
X117063948Y-79176124D01*
X117063950Y-79176131D01*
X117116847Y-79350506D01*
X117117604Y-79353001D01*
X117118742Y-79355130D01*
X117204579Y-79515722D01*
X117205864Y-79518125D01*
X117324643Y-79662857D01*
X117469375Y-79781636D01*
X117634499Y-79869896D01*
X117813669Y-79924247D01*
X118000000Y-79942599D01*
X118186331Y-79924247D01*
X118365501Y-79869896D01*
X118485516Y-79805745D01*
X118515805Y-79800490D01*
X118543263Y-79814312D01*
X122985148Y-84256198D01*
X122999500Y-84290846D01*
X122999500Y-91834317D01*
X122991242Y-91861539D01*
X122966716Y-91898245D01*
X122966714Y-91898247D01*
X122964034Y-91902260D01*
X122963092Y-91906994D01*
X122963092Y-91906995D01*
X122957751Y-91933844D01*
X122944592Y-92000000D01*
X122945534Y-92004736D01*
X122963092Y-92093007D01*
X122963093Y-92093009D01*
X122964034Y-92097740D01*
X122966713Y-92101750D01*
X122966714Y-92101751D01*
X123009555Y-92165869D01*
X123019399Y-92180601D01*
X123102260Y-92235966D01*
X123159807Y-92247413D01*
X123192931Y-92254002D01*
X123200000Y-92255408D01*
X123207069Y-92254002D01*
X123227187Y-92250000D01*
X123297740Y-92235966D01*
X123380601Y-92180601D01*
X123435966Y-92097740D01*
X123455408Y-92000000D01*
X123435966Y-91902260D01*
X123412053Y-91866470D01*
X123408758Y-91861539D01*
X123400500Y-91834317D01*
X123400500Y-84229891D01*
X123401971Y-84221228D01*
X123401921Y-84221223D01*
X123402538Y-84215741D01*
X123404363Y-84210527D01*
X123400807Y-84178973D01*
X123400500Y-84173488D01*
X123400500Y-84167665D01*
X123400500Y-84164910D01*
X123398590Y-84156543D01*
X123397671Y-84151133D01*
X123394734Y-84125061D01*
X123394733Y-84125060D01*
X123394116Y-84119576D01*
X123391178Y-84114901D01*
X123389355Y-84109690D01*
X123389403Y-84109673D01*
X123388960Y-84108603D01*
X123388914Y-84108626D01*
X123386518Y-84103650D01*
X123385290Y-84098269D01*
X123365491Y-84073441D01*
X123362314Y-84068964D01*
X123359211Y-84064025D01*
X123359209Y-84064022D01*
X123357749Y-84061699D01*
X123351680Y-84055630D01*
X123348019Y-84051534D01*
X123331666Y-84031028D01*
X123331665Y-84031027D01*
X123328224Y-84026712D01*
X123323249Y-84024316D01*
X123318934Y-84020875D01*
X123318965Y-84020835D01*
X123311800Y-84015750D01*
X118826812Y-79530763D01*
X118812990Y-79503305D01*
X118818246Y-79473016D01*
X118882396Y-79353001D01*
X118936747Y-79173831D01*
X118955099Y-78987500D01*
X118936747Y-78801169D01*
X118882396Y-78621999D01*
X118794136Y-78456875D01*
X118675357Y-78312143D01*
X118623879Y-78269896D01*
X118532487Y-78194892D01*
X118532486Y-78194891D01*
X118530625Y-78193364D01*
X118365501Y-78105104D01*
X118363193Y-78104403D01*
X118363191Y-78104403D01*
X118235276Y-78065600D01*
X118210143Y-78047899D01*
X118200500Y-78018710D01*
X118200500Y-77416290D01*
X118210143Y-77387101D01*
X118235276Y-77369400D01*
X118271222Y-77358495D01*
X118365501Y-77329896D01*
X118530625Y-77241636D01*
X118675357Y-77122857D01*
X118794136Y-76978125D01*
X118882396Y-76813001D01*
X118936747Y-76633831D01*
X118955099Y-76447500D01*
X118936747Y-76261169D01*
X118882396Y-76081999D01*
X118794136Y-75916875D01*
X118675357Y-75772143D01*
X118623879Y-75729896D01*
X118532487Y-75654892D01*
X118532486Y-75654891D01*
X118530625Y-75653364D01*
X118502148Y-75638143D01*
X118367630Y-75566242D01*
X118365501Y-75565104D01*
X118363193Y-75564403D01*
X118363191Y-75564403D01*
X118188631Y-75511450D01*
X118188624Y-75511448D01*
X118186331Y-75510753D01*
X118183941Y-75510517D01*
X118183938Y-75510517D01*
X118002396Y-75492637D01*
X118000000Y-75492401D01*
X117997604Y-75492637D01*
X117816061Y-75510517D01*
X117816056Y-75510517D01*
X117813669Y-75510753D01*
X117811377Y-75511448D01*
X117811368Y-75511450D01*
X117636808Y-75564403D01*
X117636802Y-75564405D01*
X117634499Y-75565104D01*
X117632373Y-75566240D01*
X117632369Y-75566242D01*
X117471499Y-75652228D01*
X117471493Y-75652231D01*
X117469375Y-75653364D01*
X117467518Y-75654887D01*
X117467512Y-75654892D01*
X117326505Y-75770614D01*
X117326500Y-75770618D01*
X117324643Y-75772143D01*
X117323118Y-75774000D01*
X117323114Y-75774005D01*
X117207392Y-75915012D01*
X117207387Y-75915018D01*
X117205864Y-75916875D01*
X117204731Y-75918993D01*
X117204728Y-75918999D01*
X117118742Y-76079869D01*
X117118740Y-76079873D01*
X117117604Y-76081999D01*
X117116905Y-76084302D01*
X117116903Y-76084308D01*
X117063950Y-76258868D01*
X117063948Y-76258877D01*
X117063253Y-76261169D01*
X117063017Y-76263556D01*
X117063017Y-76263561D01*
X117053448Y-76360718D01*
X117044901Y-76447500D01*
X117045137Y-76449896D01*
X117063007Y-76631340D01*
X117063253Y-76633831D01*
X117063948Y-76636124D01*
X117063950Y-76636131D01*
X117116847Y-76810506D01*
X117117604Y-76813001D01*
X117118742Y-76815130D01*
X117204579Y-76975722D01*
X117205864Y-76978125D01*
X117324643Y-77122857D01*
X117469375Y-77241636D01*
X117634499Y-77329896D01*
X117713689Y-77353918D01*
X117764724Y-77369400D01*
X117789857Y-77387101D01*
X117799500Y-77416290D01*
X117799500Y-78018710D01*
X117789857Y-78047899D01*
X117764724Y-78065600D01*
X117636808Y-78104403D01*
X117636802Y-78104405D01*
X117634499Y-78105104D01*
X117632373Y-78106240D01*
X117632369Y-78106242D01*
X117471499Y-78192228D01*
X117471493Y-78192231D01*
X117469375Y-78193364D01*
X117467518Y-78194887D01*
X117467512Y-78194892D01*
X117326505Y-78310614D01*
X117326500Y-78310618D01*
X117324643Y-78312143D01*
X117323118Y-78314000D01*
X117323114Y-78314005D01*
X117207392Y-78455012D01*
X117207387Y-78455018D01*
X117205864Y-78456875D01*
X117204731Y-78458993D01*
X117204728Y-78458999D01*
X117118742Y-78619869D01*
X117118740Y-78619873D01*
X117117604Y-78621999D01*
X117116905Y-78624302D01*
X117116903Y-78624308D01*
X117063950Y-78798868D01*
X117063948Y-78798877D01*
X117063253Y-78801169D01*
X117063017Y-78803556D01*
X117063017Y-78803561D01*
X117053448Y-78900718D01*
X117044901Y-78987500D01*
X116414361Y-78987500D01*
X116414361Y-78985104D01*
X116396490Y-78803659D01*
X116395557Y-78798966D01*
X116342631Y-78624493D01*
X116340799Y-78620071D01*
X116254852Y-78459277D01*
X116252188Y-78455290D01*
X116177602Y-78364407D01*
X116173139Y-78361318D01*
X116168398Y-78363953D01*
X115551745Y-78980607D01*
X115548890Y-78987499D01*
X115373217Y-78987499D01*
X115370585Y-78982938D01*
X114751600Y-78363953D01*
X114746859Y-78361318D01*
X114742397Y-78364406D01*
X114667807Y-78455294D01*
X114665148Y-78459275D01*
X114579200Y-78620071D01*
X114577368Y-78624493D01*
X114524442Y-78798966D01*
X114523509Y-78803659D01*
X114505639Y-78985104D01*
X114505639Y-78989896D01*
X113874361Y-78989896D01*
X113874361Y-78985104D01*
X113856490Y-78803659D01*
X113855557Y-78798966D01*
X113802631Y-78624493D01*
X113800799Y-78620071D01*
X113714852Y-78459277D01*
X113712188Y-78455290D01*
X113637602Y-78364407D01*
X113633139Y-78361318D01*
X113628398Y-78363953D01*
X113011745Y-78980607D01*
X113008890Y-78987499D01*
X112833217Y-78987499D01*
X112830585Y-78982938D01*
X112211600Y-78363953D01*
X112206859Y-78361318D01*
X112202397Y-78364406D01*
X112127807Y-78455294D01*
X112125148Y-78459275D01*
X112039200Y-78620071D01*
X112037368Y-78624493D01*
X111984442Y-78798966D01*
X111983509Y-78803659D01*
X111965639Y-78985104D01*
X111965639Y-78989896D01*
X100120500Y-78989896D01*
X100120500Y-78274359D01*
X112293818Y-78274359D01*
X112296453Y-78279100D01*
X112915438Y-78898085D01*
X112920000Y-78900718D01*
X112924561Y-78898085D01*
X113543545Y-78279100D01*
X113546180Y-78274359D01*
X114833818Y-78274359D01*
X114836453Y-78279100D01*
X115455438Y-78898085D01*
X115460000Y-78900718D01*
X115464561Y-78898085D01*
X116083545Y-78279100D01*
X116086180Y-78274359D01*
X116083091Y-78269896D01*
X115992209Y-78195311D01*
X115988222Y-78192647D01*
X115827428Y-78106700D01*
X115823006Y-78104868D01*
X115648533Y-78051942D01*
X115643840Y-78051009D01*
X115462396Y-78033139D01*
X115457604Y-78033139D01*
X115276159Y-78051009D01*
X115271466Y-78051942D01*
X115096993Y-78104868D01*
X115092571Y-78106700D01*
X114931775Y-78192648D01*
X114927794Y-78195307D01*
X114836906Y-78269897D01*
X114833818Y-78274359D01*
X113546180Y-78274359D01*
X113543091Y-78269896D01*
X113452209Y-78195311D01*
X113448222Y-78192647D01*
X113287428Y-78106700D01*
X113283006Y-78104868D01*
X113108533Y-78051942D01*
X113103840Y-78051009D01*
X112922396Y-78033139D01*
X112917604Y-78033139D01*
X112736159Y-78051009D01*
X112731466Y-78051942D01*
X112556993Y-78104868D01*
X112552571Y-78106700D01*
X112391775Y-78192648D01*
X112387794Y-78195307D01*
X112296906Y-78269897D01*
X112293818Y-78274359D01*
X100120500Y-78274359D01*
X100120500Y-77160639D01*
X112293818Y-77160639D01*
X112296907Y-77165102D01*
X112387790Y-77239688D01*
X112391777Y-77242352D01*
X112552571Y-77328299D01*
X112556993Y-77330131D01*
X112731466Y-77383057D01*
X112736159Y-77383990D01*
X112917604Y-77401861D01*
X112922396Y-77401861D01*
X113103840Y-77383990D01*
X113108533Y-77383057D01*
X113283006Y-77330131D01*
X113287428Y-77328299D01*
X113448226Y-77242350D01*
X113452204Y-77239692D01*
X113543094Y-77165099D01*
X113546180Y-77160640D01*
X113546179Y-77160639D01*
X114833818Y-77160639D01*
X114836907Y-77165102D01*
X114927790Y-77239688D01*
X114931777Y-77242352D01*
X115092571Y-77328299D01*
X115096993Y-77330131D01*
X115271466Y-77383057D01*
X115276159Y-77383990D01*
X115457604Y-77401861D01*
X115462396Y-77401861D01*
X115643840Y-77383990D01*
X115648533Y-77383057D01*
X115823006Y-77330131D01*
X115827428Y-77328299D01*
X115988226Y-77242350D01*
X115992204Y-77239692D01*
X116083094Y-77165099D01*
X116086180Y-77160640D01*
X116083545Y-77155898D01*
X115466892Y-76539245D01*
X115460000Y-76536390D01*
X115453107Y-76539245D01*
X114836453Y-77155898D01*
X114833818Y-77160639D01*
X113546179Y-77160639D01*
X113543545Y-77155898D01*
X112926892Y-76539245D01*
X112920000Y-76536390D01*
X112913107Y-76539245D01*
X112296453Y-77155898D01*
X112293818Y-77160639D01*
X100120500Y-77160639D01*
X100120500Y-76449896D01*
X111965639Y-76449896D01*
X111983509Y-76631340D01*
X111984442Y-76636033D01*
X112037368Y-76810506D01*
X112039200Y-76814928D01*
X112125147Y-76975722D01*
X112127811Y-76979709D01*
X112202396Y-77070591D01*
X112206859Y-77073680D01*
X112211600Y-77071045D01*
X112830585Y-76452061D01*
X112833218Y-76447500D01*
X112833217Y-76447499D01*
X113008890Y-76447499D01*
X113011745Y-76454392D01*
X113628398Y-77071045D01*
X113633140Y-77073680D01*
X113637599Y-77070594D01*
X113712192Y-76979704D01*
X113714850Y-76975726D01*
X113800799Y-76814928D01*
X113802631Y-76810506D01*
X113855557Y-76636033D01*
X113856490Y-76631340D01*
X113874361Y-76449896D01*
X114505639Y-76449896D01*
X114523509Y-76631340D01*
X114524442Y-76636033D01*
X114577368Y-76810506D01*
X114579200Y-76814928D01*
X114665147Y-76975722D01*
X114667811Y-76979709D01*
X114742396Y-77070591D01*
X114746859Y-77073680D01*
X114751600Y-77071045D01*
X115370585Y-76452061D01*
X115373218Y-76447500D01*
X115373217Y-76447499D01*
X115548890Y-76447499D01*
X115551745Y-76454392D01*
X116168398Y-77071045D01*
X116173140Y-77073680D01*
X116177599Y-77070594D01*
X116252192Y-76979704D01*
X116254850Y-76975726D01*
X116340799Y-76814928D01*
X116342631Y-76810506D01*
X116395557Y-76636033D01*
X116396490Y-76631340D01*
X116414361Y-76449896D01*
X116414361Y-76445104D01*
X116396490Y-76263659D01*
X116395557Y-76258966D01*
X116342631Y-76084493D01*
X116340799Y-76080071D01*
X116254852Y-75919277D01*
X116252188Y-75915290D01*
X116177602Y-75824407D01*
X116173139Y-75821318D01*
X116168398Y-75823953D01*
X115551745Y-76440607D01*
X115548890Y-76447499D01*
X115373217Y-76447499D01*
X115370585Y-76442938D01*
X114751600Y-75823953D01*
X114746859Y-75821318D01*
X114742397Y-75824406D01*
X114667807Y-75915294D01*
X114665148Y-75919275D01*
X114579200Y-76080071D01*
X114577368Y-76084493D01*
X114524442Y-76258966D01*
X114523509Y-76263659D01*
X114505639Y-76445104D01*
X114505639Y-76449896D01*
X113874361Y-76449896D01*
X113874361Y-76445104D01*
X113856490Y-76263659D01*
X113855557Y-76258966D01*
X113802631Y-76084493D01*
X113800799Y-76080071D01*
X113714852Y-75919277D01*
X113712188Y-75915290D01*
X113637602Y-75824407D01*
X113633139Y-75821318D01*
X113628398Y-75823953D01*
X113011745Y-76440607D01*
X113008890Y-76447499D01*
X112833217Y-76447499D01*
X112830585Y-76442938D01*
X112211600Y-75823953D01*
X112206859Y-75821318D01*
X112202397Y-75824406D01*
X112127807Y-75915294D01*
X112125148Y-75919275D01*
X112039200Y-76080071D01*
X112037368Y-76084493D01*
X111984442Y-76258966D01*
X111983509Y-76263659D01*
X111965639Y-76445104D01*
X111965639Y-76449896D01*
X100120500Y-76449896D01*
X100120500Y-75734359D01*
X112293818Y-75734359D01*
X112296453Y-75739100D01*
X112915438Y-76358085D01*
X112920000Y-76360718D01*
X112924561Y-76358085D01*
X113543545Y-75739100D01*
X113546180Y-75734359D01*
X114833818Y-75734359D01*
X114836453Y-75739100D01*
X115455438Y-76358085D01*
X115460000Y-76360718D01*
X115464561Y-76358085D01*
X116083545Y-75739100D01*
X116086180Y-75734359D01*
X116083091Y-75729896D01*
X115992209Y-75655311D01*
X115988222Y-75652647D01*
X115827428Y-75566700D01*
X115823006Y-75564868D01*
X115648533Y-75511942D01*
X115643840Y-75511009D01*
X115462396Y-75493139D01*
X115457604Y-75493139D01*
X115276159Y-75511009D01*
X115271466Y-75511942D01*
X115096993Y-75564868D01*
X115092571Y-75566700D01*
X114931775Y-75652648D01*
X114927794Y-75655307D01*
X114836906Y-75729897D01*
X114833818Y-75734359D01*
X113546180Y-75734359D01*
X113543091Y-75729896D01*
X113452209Y-75655311D01*
X113448222Y-75652647D01*
X113287428Y-75566700D01*
X113283006Y-75564868D01*
X113108533Y-75511942D01*
X113103840Y-75511009D01*
X112922396Y-75493139D01*
X112917604Y-75493139D01*
X112736159Y-75511009D01*
X112731466Y-75511942D01*
X112556993Y-75564868D01*
X112552571Y-75566700D01*
X112391775Y-75652648D01*
X112387794Y-75655307D01*
X112296906Y-75729897D01*
X112293818Y-75734359D01*
X100120500Y-75734359D01*
X100120500Y-65169500D01*
X100134852Y-65134852D01*
X100169500Y-65120500D01*
X159830500Y-65120500D01*
X159865148Y-65134852D01*
G37*
%TD.AperFunction*%
%TD*%
M02*
