%TF.GenerationSoftware,KiCad,Pcbnew,(7.0.0)*%
%TF.CreationDate,2023-07-09T20:13:22-04:00*%
%TF.ProjectId,headstage-neuropix1e,68656164-7374-4616-9765-2d6e6575726f,A*%
%TF.SameCoordinates,Original*%
%TF.FileFunction,AssemblyDrawing,Bot*%
%FSLAX46Y46*%
G04 Gerber Fmt 4.6, Leading zero omitted, Abs format (unit mm)*
G04 Created by KiCad (PCBNEW (7.0.0)) date 2023-07-09 20:13:22*
%MOMM*%
%LPD*%
G01*
G04 APERTURE LIST*
%ADD10C,0.040000*%
%ADD11C,0.100000*%
G04 APERTURE END LIST*
D10*
%TO.C,L2*%
X144791666Y-88591845D02*
X144910714Y-88591845D01*
X144910714Y-88591845D02*
X144910714Y-88341845D01*
X144720237Y-88365654D02*
X144708333Y-88353750D01*
X144708333Y-88353750D02*
X144684523Y-88341845D01*
X144684523Y-88341845D02*
X144624999Y-88341845D01*
X144624999Y-88341845D02*
X144601190Y-88353750D01*
X144601190Y-88353750D02*
X144589285Y-88365654D01*
X144589285Y-88365654D02*
X144577380Y-88389464D01*
X144577380Y-88389464D02*
X144577380Y-88413273D01*
X144577380Y-88413273D02*
X144589285Y-88448988D01*
X144589285Y-88448988D02*
X144732142Y-88591845D01*
X144732142Y-88591845D02*
X144577380Y-88591845D01*
%TO.C,C12*%
X145580714Y-97438035D02*
X145592618Y-97449940D01*
X145592618Y-97449940D02*
X145628333Y-97461845D01*
X145628333Y-97461845D02*
X145652142Y-97461845D01*
X145652142Y-97461845D02*
X145687856Y-97449940D01*
X145687856Y-97449940D02*
X145711666Y-97426130D01*
X145711666Y-97426130D02*
X145723571Y-97402321D01*
X145723571Y-97402321D02*
X145735475Y-97354702D01*
X145735475Y-97354702D02*
X145735475Y-97318988D01*
X145735475Y-97318988D02*
X145723571Y-97271369D01*
X145723571Y-97271369D02*
X145711666Y-97247559D01*
X145711666Y-97247559D02*
X145687856Y-97223750D01*
X145687856Y-97223750D02*
X145652142Y-97211845D01*
X145652142Y-97211845D02*
X145628333Y-97211845D01*
X145628333Y-97211845D02*
X145592618Y-97223750D01*
X145592618Y-97223750D02*
X145580714Y-97235654D01*
X145342618Y-97461845D02*
X145485475Y-97461845D01*
X145414047Y-97461845D02*
X145414047Y-97211845D01*
X145414047Y-97211845D02*
X145437856Y-97247559D01*
X145437856Y-97247559D02*
X145461666Y-97271369D01*
X145461666Y-97271369D02*
X145485475Y-97283273D01*
X145247380Y-97235654D02*
X145235476Y-97223750D01*
X145235476Y-97223750D02*
X145211666Y-97211845D01*
X145211666Y-97211845D02*
X145152142Y-97211845D01*
X145152142Y-97211845D02*
X145128333Y-97223750D01*
X145128333Y-97223750D02*
X145116428Y-97235654D01*
X145116428Y-97235654D02*
X145104523Y-97259464D01*
X145104523Y-97259464D02*
X145104523Y-97283273D01*
X145104523Y-97283273D02*
X145116428Y-97318988D01*
X145116428Y-97318988D02*
X145259285Y-97461845D01*
X145259285Y-97461845D02*
X145104523Y-97461845D01*
%TO.C,R9*%
X144141666Y-93091845D02*
X144224999Y-92972797D01*
X144284523Y-93091845D02*
X144284523Y-92841845D01*
X144284523Y-92841845D02*
X144189285Y-92841845D01*
X144189285Y-92841845D02*
X144165475Y-92853750D01*
X144165475Y-92853750D02*
X144153570Y-92865654D01*
X144153570Y-92865654D02*
X144141666Y-92889464D01*
X144141666Y-92889464D02*
X144141666Y-92925178D01*
X144141666Y-92925178D02*
X144153570Y-92948988D01*
X144153570Y-92948988D02*
X144165475Y-92960892D01*
X144165475Y-92960892D02*
X144189285Y-92972797D01*
X144189285Y-92972797D02*
X144284523Y-92972797D01*
X144022618Y-93091845D02*
X143974999Y-93091845D01*
X143974999Y-93091845D02*
X143951189Y-93079940D01*
X143951189Y-93079940D02*
X143939285Y-93068035D01*
X143939285Y-93068035D02*
X143915475Y-93032321D01*
X143915475Y-93032321D02*
X143903570Y-92984702D01*
X143903570Y-92984702D02*
X143903570Y-92889464D01*
X143903570Y-92889464D02*
X143915475Y-92865654D01*
X143915475Y-92865654D02*
X143927380Y-92853750D01*
X143927380Y-92853750D02*
X143951189Y-92841845D01*
X143951189Y-92841845D02*
X143998808Y-92841845D01*
X143998808Y-92841845D02*
X144022618Y-92853750D01*
X144022618Y-92853750D02*
X144034523Y-92865654D01*
X144034523Y-92865654D02*
X144046427Y-92889464D01*
X144046427Y-92889464D02*
X144046427Y-92948988D01*
X144046427Y-92948988D02*
X144034523Y-92972797D01*
X144034523Y-92972797D02*
X144022618Y-92984702D01*
X144022618Y-92984702D02*
X143998808Y-92996607D01*
X143998808Y-92996607D02*
X143951189Y-92996607D01*
X143951189Y-92996607D02*
X143927380Y-92984702D01*
X143927380Y-92984702D02*
X143915475Y-92972797D01*
X143915475Y-92972797D02*
X143903570Y-92948988D01*
%TO.C,R6*%
X149141666Y-90991845D02*
X149224999Y-90872797D01*
X149284523Y-90991845D02*
X149284523Y-90741845D01*
X149284523Y-90741845D02*
X149189285Y-90741845D01*
X149189285Y-90741845D02*
X149165475Y-90753750D01*
X149165475Y-90753750D02*
X149153570Y-90765654D01*
X149153570Y-90765654D02*
X149141666Y-90789464D01*
X149141666Y-90789464D02*
X149141666Y-90825178D01*
X149141666Y-90825178D02*
X149153570Y-90848988D01*
X149153570Y-90848988D02*
X149165475Y-90860892D01*
X149165475Y-90860892D02*
X149189285Y-90872797D01*
X149189285Y-90872797D02*
X149284523Y-90872797D01*
X148927380Y-90741845D02*
X148974999Y-90741845D01*
X148974999Y-90741845D02*
X148998808Y-90753750D01*
X148998808Y-90753750D02*
X149010713Y-90765654D01*
X149010713Y-90765654D02*
X149034523Y-90801369D01*
X149034523Y-90801369D02*
X149046427Y-90848988D01*
X149046427Y-90848988D02*
X149046427Y-90944226D01*
X149046427Y-90944226D02*
X149034523Y-90968035D01*
X149034523Y-90968035D02*
X149022618Y-90979940D01*
X149022618Y-90979940D02*
X148998808Y-90991845D01*
X148998808Y-90991845D02*
X148951189Y-90991845D01*
X148951189Y-90991845D02*
X148927380Y-90979940D01*
X148927380Y-90979940D02*
X148915475Y-90968035D01*
X148915475Y-90968035D02*
X148903570Y-90944226D01*
X148903570Y-90944226D02*
X148903570Y-90884702D01*
X148903570Y-90884702D02*
X148915475Y-90860892D01*
X148915475Y-90860892D02*
X148927380Y-90848988D01*
X148927380Y-90848988D02*
X148951189Y-90837083D01*
X148951189Y-90837083D02*
X148998808Y-90837083D01*
X148998808Y-90837083D02*
X149022618Y-90848988D01*
X149022618Y-90848988D02*
X149034523Y-90860892D01*
X149034523Y-90860892D02*
X149046427Y-90884702D01*
%TO.C,U7*%
X142190476Y-92041845D02*
X142190476Y-92244226D01*
X142190476Y-92244226D02*
X142178571Y-92268035D01*
X142178571Y-92268035D02*
X142166666Y-92279940D01*
X142166666Y-92279940D02*
X142142857Y-92291845D01*
X142142857Y-92291845D02*
X142095238Y-92291845D01*
X142095238Y-92291845D02*
X142071428Y-92279940D01*
X142071428Y-92279940D02*
X142059523Y-92268035D01*
X142059523Y-92268035D02*
X142047619Y-92244226D01*
X142047619Y-92244226D02*
X142047619Y-92041845D01*
X141952380Y-92041845D02*
X141785714Y-92041845D01*
X141785714Y-92041845D02*
X141892856Y-92291845D01*
%TO.C,C29*%
X142175714Y-93868035D02*
X142187618Y-93879940D01*
X142187618Y-93879940D02*
X142223333Y-93891845D01*
X142223333Y-93891845D02*
X142247142Y-93891845D01*
X142247142Y-93891845D02*
X142282856Y-93879940D01*
X142282856Y-93879940D02*
X142306666Y-93856130D01*
X142306666Y-93856130D02*
X142318571Y-93832321D01*
X142318571Y-93832321D02*
X142330475Y-93784702D01*
X142330475Y-93784702D02*
X142330475Y-93748988D01*
X142330475Y-93748988D02*
X142318571Y-93701369D01*
X142318571Y-93701369D02*
X142306666Y-93677559D01*
X142306666Y-93677559D02*
X142282856Y-93653750D01*
X142282856Y-93653750D02*
X142247142Y-93641845D01*
X142247142Y-93641845D02*
X142223333Y-93641845D01*
X142223333Y-93641845D02*
X142187618Y-93653750D01*
X142187618Y-93653750D02*
X142175714Y-93665654D01*
X142080475Y-93665654D02*
X142068571Y-93653750D01*
X142068571Y-93653750D02*
X142044761Y-93641845D01*
X142044761Y-93641845D02*
X141985237Y-93641845D01*
X141985237Y-93641845D02*
X141961428Y-93653750D01*
X141961428Y-93653750D02*
X141949523Y-93665654D01*
X141949523Y-93665654D02*
X141937618Y-93689464D01*
X141937618Y-93689464D02*
X141937618Y-93713273D01*
X141937618Y-93713273D02*
X141949523Y-93748988D01*
X141949523Y-93748988D02*
X142092380Y-93891845D01*
X142092380Y-93891845D02*
X141937618Y-93891845D01*
X141818571Y-93891845D02*
X141770952Y-93891845D01*
X141770952Y-93891845D02*
X141747142Y-93879940D01*
X141747142Y-93879940D02*
X141735238Y-93868035D01*
X141735238Y-93868035D02*
X141711428Y-93832321D01*
X141711428Y-93832321D02*
X141699523Y-93784702D01*
X141699523Y-93784702D02*
X141699523Y-93689464D01*
X141699523Y-93689464D02*
X141711428Y-93665654D01*
X141711428Y-93665654D02*
X141723333Y-93653750D01*
X141723333Y-93653750D02*
X141747142Y-93641845D01*
X141747142Y-93641845D02*
X141794761Y-93641845D01*
X141794761Y-93641845D02*
X141818571Y-93653750D01*
X141818571Y-93653750D02*
X141830476Y-93665654D01*
X141830476Y-93665654D02*
X141842380Y-93689464D01*
X141842380Y-93689464D02*
X141842380Y-93748988D01*
X141842380Y-93748988D02*
X141830476Y-93772797D01*
X141830476Y-93772797D02*
X141818571Y-93784702D01*
X141818571Y-93784702D02*
X141794761Y-93796607D01*
X141794761Y-93796607D02*
X141747142Y-93796607D01*
X141747142Y-93796607D02*
X141723333Y-93784702D01*
X141723333Y-93784702D02*
X141711428Y-93772797D01*
X141711428Y-93772797D02*
X141699523Y-93748988D01*
%TO.C,U8*%
X139290476Y-96141845D02*
X139290476Y-96344226D01*
X139290476Y-96344226D02*
X139278571Y-96368035D01*
X139278571Y-96368035D02*
X139266666Y-96379940D01*
X139266666Y-96379940D02*
X139242857Y-96391845D01*
X139242857Y-96391845D02*
X139195238Y-96391845D01*
X139195238Y-96391845D02*
X139171428Y-96379940D01*
X139171428Y-96379940D02*
X139159523Y-96368035D01*
X139159523Y-96368035D02*
X139147619Y-96344226D01*
X139147619Y-96344226D02*
X139147619Y-96141845D01*
X138992856Y-96248988D02*
X139016666Y-96237083D01*
X139016666Y-96237083D02*
X139028571Y-96225178D01*
X139028571Y-96225178D02*
X139040475Y-96201369D01*
X139040475Y-96201369D02*
X139040475Y-96189464D01*
X139040475Y-96189464D02*
X139028571Y-96165654D01*
X139028571Y-96165654D02*
X139016666Y-96153750D01*
X139016666Y-96153750D02*
X138992856Y-96141845D01*
X138992856Y-96141845D02*
X138945237Y-96141845D01*
X138945237Y-96141845D02*
X138921428Y-96153750D01*
X138921428Y-96153750D02*
X138909523Y-96165654D01*
X138909523Y-96165654D02*
X138897618Y-96189464D01*
X138897618Y-96189464D02*
X138897618Y-96201369D01*
X138897618Y-96201369D02*
X138909523Y-96225178D01*
X138909523Y-96225178D02*
X138921428Y-96237083D01*
X138921428Y-96237083D02*
X138945237Y-96248988D01*
X138945237Y-96248988D02*
X138992856Y-96248988D01*
X138992856Y-96248988D02*
X139016666Y-96260892D01*
X139016666Y-96260892D02*
X139028571Y-96272797D01*
X139028571Y-96272797D02*
X139040475Y-96296607D01*
X139040475Y-96296607D02*
X139040475Y-96344226D01*
X139040475Y-96344226D02*
X139028571Y-96368035D01*
X139028571Y-96368035D02*
X139016666Y-96379940D01*
X139016666Y-96379940D02*
X138992856Y-96391845D01*
X138992856Y-96391845D02*
X138945237Y-96391845D01*
X138945237Y-96391845D02*
X138921428Y-96379940D01*
X138921428Y-96379940D02*
X138909523Y-96368035D01*
X138909523Y-96368035D02*
X138897618Y-96344226D01*
X138897618Y-96344226D02*
X138897618Y-96296607D01*
X138897618Y-96296607D02*
X138909523Y-96272797D01*
X138909523Y-96272797D02*
X138921428Y-96260892D01*
X138921428Y-96260892D02*
X138945237Y-96248988D01*
%TO.C,R16*%
X141860714Y-91491845D02*
X141944047Y-91372797D01*
X142003571Y-91491845D02*
X142003571Y-91241845D01*
X142003571Y-91241845D02*
X141908333Y-91241845D01*
X141908333Y-91241845D02*
X141884523Y-91253750D01*
X141884523Y-91253750D02*
X141872618Y-91265654D01*
X141872618Y-91265654D02*
X141860714Y-91289464D01*
X141860714Y-91289464D02*
X141860714Y-91325178D01*
X141860714Y-91325178D02*
X141872618Y-91348988D01*
X141872618Y-91348988D02*
X141884523Y-91360892D01*
X141884523Y-91360892D02*
X141908333Y-91372797D01*
X141908333Y-91372797D02*
X142003571Y-91372797D01*
X141622618Y-91491845D02*
X141765475Y-91491845D01*
X141694047Y-91491845D02*
X141694047Y-91241845D01*
X141694047Y-91241845D02*
X141717856Y-91277559D01*
X141717856Y-91277559D02*
X141741666Y-91301369D01*
X141741666Y-91301369D02*
X141765475Y-91313273D01*
X141408333Y-91241845D02*
X141455952Y-91241845D01*
X141455952Y-91241845D02*
X141479761Y-91253750D01*
X141479761Y-91253750D02*
X141491666Y-91265654D01*
X141491666Y-91265654D02*
X141515476Y-91301369D01*
X141515476Y-91301369D02*
X141527380Y-91348988D01*
X141527380Y-91348988D02*
X141527380Y-91444226D01*
X141527380Y-91444226D02*
X141515476Y-91468035D01*
X141515476Y-91468035D02*
X141503571Y-91479940D01*
X141503571Y-91479940D02*
X141479761Y-91491845D01*
X141479761Y-91491845D02*
X141432142Y-91491845D01*
X141432142Y-91491845D02*
X141408333Y-91479940D01*
X141408333Y-91479940D02*
X141396428Y-91468035D01*
X141396428Y-91468035D02*
X141384523Y-91444226D01*
X141384523Y-91444226D02*
X141384523Y-91384702D01*
X141384523Y-91384702D02*
X141396428Y-91360892D01*
X141396428Y-91360892D02*
X141408333Y-91348988D01*
X141408333Y-91348988D02*
X141432142Y-91337083D01*
X141432142Y-91337083D02*
X141479761Y-91337083D01*
X141479761Y-91337083D02*
X141503571Y-91348988D01*
X141503571Y-91348988D02*
X141515476Y-91360892D01*
X141515476Y-91360892D02*
X141527380Y-91384702D01*
%TO.C,R8*%
X144141666Y-91491845D02*
X144224999Y-91372797D01*
X144284523Y-91491845D02*
X144284523Y-91241845D01*
X144284523Y-91241845D02*
X144189285Y-91241845D01*
X144189285Y-91241845D02*
X144165475Y-91253750D01*
X144165475Y-91253750D02*
X144153570Y-91265654D01*
X144153570Y-91265654D02*
X144141666Y-91289464D01*
X144141666Y-91289464D02*
X144141666Y-91325178D01*
X144141666Y-91325178D02*
X144153570Y-91348988D01*
X144153570Y-91348988D02*
X144165475Y-91360892D01*
X144165475Y-91360892D02*
X144189285Y-91372797D01*
X144189285Y-91372797D02*
X144284523Y-91372797D01*
X143998808Y-91348988D02*
X144022618Y-91337083D01*
X144022618Y-91337083D02*
X144034523Y-91325178D01*
X144034523Y-91325178D02*
X144046427Y-91301369D01*
X144046427Y-91301369D02*
X144046427Y-91289464D01*
X144046427Y-91289464D02*
X144034523Y-91265654D01*
X144034523Y-91265654D02*
X144022618Y-91253750D01*
X144022618Y-91253750D02*
X143998808Y-91241845D01*
X143998808Y-91241845D02*
X143951189Y-91241845D01*
X143951189Y-91241845D02*
X143927380Y-91253750D01*
X143927380Y-91253750D02*
X143915475Y-91265654D01*
X143915475Y-91265654D02*
X143903570Y-91289464D01*
X143903570Y-91289464D02*
X143903570Y-91301369D01*
X143903570Y-91301369D02*
X143915475Y-91325178D01*
X143915475Y-91325178D02*
X143927380Y-91337083D01*
X143927380Y-91337083D02*
X143951189Y-91348988D01*
X143951189Y-91348988D02*
X143998808Y-91348988D01*
X143998808Y-91348988D02*
X144022618Y-91360892D01*
X144022618Y-91360892D02*
X144034523Y-91372797D01*
X144034523Y-91372797D02*
X144046427Y-91396607D01*
X144046427Y-91396607D02*
X144046427Y-91444226D01*
X144046427Y-91444226D02*
X144034523Y-91468035D01*
X144034523Y-91468035D02*
X144022618Y-91479940D01*
X144022618Y-91479940D02*
X143998808Y-91491845D01*
X143998808Y-91491845D02*
X143951189Y-91491845D01*
X143951189Y-91491845D02*
X143927380Y-91479940D01*
X143927380Y-91479940D02*
X143915475Y-91468035D01*
X143915475Y-91468035D02*
X143903570Y-91444226D01*
X143903570Y-91444226D02*
X143903570Y-91396607D01*
X143903570Y-91396607D02*
X143915475Y-91372797D01*
X143915475Y-91372797D02*
X143927380Y-91360892D01*
X143927380Y-91360892D02*
X143951189Y-91348988D01*
%TO.C,C32*%
X137660714Y-94068035D02*
X137672618Y-94079940D01*
X137672618Y-94079940D02*
X137708333Y-94091845D01*
X137708333Y-94091845D02*
X137732142Y-94091845D01*
X137732142Y-94091845D02*
X137767856Y-94079940D01*
X137767856Y-94079940D02*
X137791666Y-94056130D01*
X137791666Y-94056130D02*
X137803571Y-94032321D01*
X137803571Y-94032321D02*
X137815475Y-93984702D01*
X137815475Y-93984702D02*
X137815475Y-93948988D01*
X137815475Y-93948988D02*
X137803571Y-93901369D01*
X137803571Y-93901369D02*
X137791666Y-93877559D01*
X137791666Y-93877559D02*
X137767856Y-93853750D01*
X137767856Y-93853750D02*
X137732142Y-93841845D01*
X137732142Y-93841845D02*
X137708333Y-93841845D01*
X137708333Y-93841845D02*
X137672618Y-93853750D01*
X137672618Y-93853750D02*
X137660714Y-93865654D01*
X137577380Y-93841845D02*
X137422618Y-93841845D01*
X137422618Y-93841845D02*
X137505952Y-93937083D01*
X137505952Y-93937083D02*
X137470237Y-93937083D01*
X137470237Y-93937083D02*
X137446428Y-93948988D01*
X137446428Y-93948988D02*
X137434523Y-93960892D01*
X137434523Y-93960892D02*
X137422618Y-93984702D01*
X137422618Y-93984702D02*
X137422618Y-94044226D01*
X137422618Y-94044226D02*
X137434523Y-94068035D01*
X137434523Y-94068035D02*
X137446428Y-94079940D01*
X137446428Y-94079940D02*
X137470237Y-94091845D01*
X137470237Y-94091845D02*
X137541666Y-94091845D01*
X137541666Y-94091845D02*
X137565475Y-94079940D01*
X137565475Y-94079940D02*
X137577380Y-94068035D01*
X137327380Y-93865654D02*
X137315476Y-93853750D01*
X137315476Y-93853750D02*
X137291666Y-93841845D01*
X137291666Y-93841845D02*
X137232142Y-93841845D01*
X137232142Y-93841845D02*
X137208333Y-93853750D01*
X137208333Y-93853750D02*
X137196428Y-93865654D01*
X137196428Y-93865654D02*
X137184523Y-93889464D01*
X137184523Y-93889464D02*
X137184523Y-93913273D01*
X137184523Y-93913273D02*
X137196428Y-93948988D01*
X137196428Y-93948988D02*
X137339285Y-94091845D01*
X137339285Y-94091845D02*
X137184523Y-94091845D01*
%TO.C,C15*%
X144983035Y-90449285D02*
X144994940Y-90437381D01*
X144994940Y-90437381D02*
X145006845Y-90401666D01*
X145006845Y-90401666D02*
X145006845Y-90377857D01*
X145006845Y-90377857D02*
X144994940Y-90342143D01*
X144994940Y-90342143D02*
X144971130Y-90318333D01*
X144971130Y-90318333D02*
X144947321Y-90306428D01*
X144947321Y-90306428D02*
X144899702Y-90294524D01*
X144899702Y-90294524D02*
X144863988Y-90294524D01*
X144863988Y-90294524D02*
X144816369Y-90306428D01*
X144816369Y-90306428D02*
X144792559Y-90318333D01*
X144792559Y-90318333D02*
X144768750Y-90342143D01*
X144768750Y-90342143D02*
X144756845Y-90377857D01*
X144756845Y-90377857D02*
X144756845Y-90401666D01*
X144756845Y-90401666D02*
X144768750Y-90437381D01*
X144768750Y-90437381D02*
X144780654Y-90449285D01*
X145006845Y-90687381D02*
X145006845Y-90544524D01*
X145006845Y-90615952D02*
X144756845Y-90615952D01*
X144756845Y-90615952D02*
X144792559Y-90592143D01*
X144792559Y-90592143D02*
X144816369Y-90568333D01*
X144816369Y-90568333D02*
X144828273Y-90544524D01*
X144756845Y-90913571D02*
X144756845Y-90794523D01*
X144756845Y-90794523D02*
X144875892Y-90782619D01*
X144875892Y-90782619D02*
X144863988Y-90794523D01*
X144863988Y-90794523D02*
X144852083Y-90818333D01*
X144852083Y-90818333D02*
X144852083Y-90877857D01*
X144852083Y-90877857D02*
X144863988Y-90901666D01*
X144863988Y-90901666D02*
X144875892Y-90913571D01*
X144875892Y-90913571D02*
X144899702Y-90925476D01*
X144899702Y-90925476D02*
X144959226Y-90925476D01*
X144959226Y-90925476D02*
X144983035Y-90913571D01*
X144983035Y-90913571D02*
X144994940Y-90901666D01*
X144994940Y-90901666D02*
X145006845Y-90877857D01*
X145006845Y-90877857D02*
X145006845Y-90818333D01*
X145006845Y-90818333D02*
X144994940Y-90794523D01*
X144994940Y-90794523D02*
X144983035Y-90782619D01*
%TO.C,R3*%
X139146666Y-90991845D02*
X139229999Y-90872797D01*
X139289523Y-90991845D02*
X139289523Y-90741845D01*
X139289523Y-90741845D02*
X139194285Y-90741845D01*
X139194285Y-90741845D02*
X139170475Y-90753750D01*
X139170475Y-90753750D02*
X139158570Y-90765654D01*
X139158570Y-90765654D02*
X139146666Y-90789464D01*
X139146666Y-90789464D02*
X139146666Y-90825178D01*
X139146666Y-90825178D02*
X139158570Y-90848988D01*
X139158570Y-90848988D02*
X139170475Y-90860892D01*
X139170475Y-90860892D02*
X139194285Y-90872797D01*
X139194285Y-90872797D02*
X139289523Y-90872797D01*
X139063332Y-90741845D02*
X138908570Y-90741845D01*
X138908570Y-90741845D02*
X138991904Y-90837083D01*
X138991904Y-90837083D02*
X138956189Y-90837083D01*
X138956189Y-90837083D02*
X138932380Y-90848988D01*
X138932380Y-90848988D02*
X138920475Y-90860892D01*
X138920475Y-90860892D02*
X138908570Y-90884702D01*
X138908570Y-90884702D02*
X138908570Y-90944226D01*
X138908570Y-90944226D02*
X138920475Y-90968035D01*
X138920475Y-90968035D02*
X138932380Y-90979940D01*
X138932380Y-90979940D02*
X138956189Y-90991845D01*
X138956189Y-90991845D02*
X139027618Y-90991845D01*
X139027618Y-90991845D02*
X139051427Y-90979940D01*
X139051427Y-90979940D02*
X139063332Y-90968035D01*
%TO.C,C14*%
X146513035Y-89899285D02*
X146524940Y-89887381D01*
X146524940Y-89887381D02*
X146536845Y-89851666D01*
X146536845Y-89851666D02*
X146536845Y-89827857D01*
X146536845Y-89827857D02*
X146524940Y-89792143D01*
X146524940Y-89792143D02*
X146501130Y-89768333D01*
X146501130Y-89768333D02*
X146477321Y-89756428D01*
X146477321Y-89756428D02*
X146429702Y-89744524D01*
X146429702Y-89744524D02*
X146393988Y-89744524D01*
X146393988Y-89744524D02*
X146346369Y-89756428D01*
X146346369Y-89756428D02*
X146322559Y-89768333D01*
X146322559Y-89768333D02*
X146298750Y-89792143D01*
X146298750Y-89792143D02*
X146286845Y-89827857D01*
X146286845Y-89827857D02*
X146286845Y-89851666D01*
X146286845Y-89851666D02*
X146298750Y-89887381D01*
X146298750Y-89887381D02*
X146310654Y-89899285D01*
X146536845Y-90137381D02*
X146536845Y-89994524D01*
X146536845Y-90065952D02*
X146286845Y-90065952D01*
X146286845Y-90065952D02*
X146322559Y-90042143D01*
X146322559Y-90042143D02*
X146346369Y-90018333D01*
X146346369Y-90018333D02*
X146358273Y-89994524D01*
X146370178Y-90351666D02*
X146536845Y-90351666D01*
X146274940Y-90292142D02*
X146453511Y-90232619D01*
X146453511Y-90232619D02*
X146453511Y-90387380D01*
%TO.C,U6*%
X143390476Y-95541845D02*
X143390476Y-95744226D01*
X143390476Y-95744226D02*
X143378571Y-95768035D01*
X143378571Y-95768035D02*
X143366666Y-95779940D01*
X143366666Y-95779940D02*
X143342857Y-95791845D01*
X143342857Y-95791845D02*
X143295238Y-95791845D01*
X143295238Y-95791845D02*
X143271428Y-95779940D01*
X143271428Y-95779940D02*
X143259523Y-95768035D01*
X143259523Y-95768035D02*
X143247619Y-95744226D01*
X143247619Y-95744226D02*
X143247619Y-95541845D01*
X143021428Y-95541845D02*
X143069047Y-95541845D01*
X143069047Y-95541845D02*
X143092856Y-95553750D01*
X143092856Y-95553750D02*
X143104761Y-95565654D01*
X143104761Y-95565654D02*
X143128571Y-95601369D01*
X143128571Y-95601369D02*
X143140475Y-95648988D01*
X143140475Y-95648988D02*
X143140475Y-95744226D01*
X143140475Y-95744226D02*
X143128571Y-95768035D01*
X143128571Y-95768035D02*
X143116666Y-95779940D01*
X143116666Y-95779940D02*
X143092856Y-95791845D01*
X143092856Y-95791845D02*
X143045237Y-95791845D01*
X143045237Y-95791845D02*
X143021428Y-95779940D01*
X143021428Y-95779940D02*
X143009523Y-95768035D01*
X143009523Y-95768035D02*
X142997618Y-95744226D01*
X142997618Y-95744226D02*
X142997618Y-95684702D01*
X142997618Y-95684702D02*
X143009523Y-95660892D01*
X143009523Y-95660892D02*
X143021428Y-95648988D01*
X143021428Y-95648988D02*
X143045237Y-95637083D01*
X143045237Y-95637083D02*
X143092856Y-95637083D01*
X143092856Y-95637083D02*
X143116666Y-95648988D01*
X143116666Y-95648988D02*
X143128571Y-95660892D01*
X143128571Y-95660892D02*
X143140475Y-95684702D01*
%TO.C,JP1*%
X143931845Y-97511667D02*
X144110416Y-97511667D01*
X144110416Y-97511667D02*
X144146130Y-97499762D01*
X144146130Y-97499762D02*
X144169940Y-97475953D01*
X144169940Y-97475953D02*
X144181845Y-97440238D01*
X144181845Y-97440238D02*
X144181845Y-97416429D01*
X144181845Y-97630714D02*
X143931845Y-97630714D01*
X143931845Y-97630714D02*
X143931845Y-97725952D01*
X143931845Y-97725952D02*
X143943750Y-97749762D01*
X143943750Y-97749762D02*
X143955654Y-97761667D01*
X143955654Y-97761667D02*
X143979464Y-97773571D01*
X143979464Y-97773571D02*
X144015178Y-97773571D01*
X144015178Y-97773571D02*
X144038988Y-97761667D01*
X144038988Y-97761667D02*
X144050892Y-97749762D01*
X144050892Y-97749762D02*
X144062797Y-97725952D01*
X144062797Y-97725952D02*
X144062797Y-97630714D01*
X144181845Y-98011667D02*
X144181845Y-97868810D01*
X144181845Y-97940238D02*
X143931845Y-97940238D01*
X143931845Y-97940238D02*
X143967559Y-97916429D01*
X143967559Y-97916429D02*
X143991369Y-97892619D01*
X143991369Y-97892619D02*
X144003273Y-97868810D01*
%TO.C,L3*%
X144241666Y-90691845D02*
X144360714Y-90691845D01*
X144360714Y-90691845D02*
X144360714Y-90441845D01*
X144182142Y-90441845D02*
X144027380Y-90441845D01*
X144027380Y-90441845D02*
X144110714Y-90537083D01*
X144110714Y-90537083D02*
X144074999Y-90537083D01*
X144074999Y-90537083D02*
X144051190Y-90548988D01*
X144051190Y-90548988D02*
X144039285Y-90560892D01*
X144039285Y-90560892D02*
X144027380Y-90584702D01*
X144027380Y-90584702D02*
X144027380Y-90644226D01*
X144027380Y-90644226D02*
X144039285Y-90668035D01*
X144039285Y-90668035D02*
X144051190Y-90679940D01*
X144051190Y-90679940D02*
X144074999Y-90691845D01*
X144074999Y-90691845D02*
X144146428Y-90691845D01*
X144146428Y-90691845D02*
X144170237Y-90679940D01*
X144170237Y-90679940D02*
X144182142Y-90668035D01*
%TO.C,C6*%
X136141666Y-92768035D02*
X136153570Y-92779940D01*
X136153570Y-92779940D02*
X136189285Y-92791845D01*
X136189285Y-92791845D02*
X136213094Y-92791845D01*
X136213094Y-92791845D02*
X136248808Y-92779940D01*
X136248808Y-92779940D02*
X136272618Y-92756130D01*
X136272618Y-92756130D02*
X136284523Y-92732321D01*
X136284523Y-92732321D02*
X136296427Y-92684702D01*
X136296427Y-92684702D02*
X136296427Y-92648988D01*
X136296427Y-92648988D02*
X136284523Y-92601369D01*
X136284523Y-92601369D02*
X136272618Y-92577559D01*
X136272618Y-92577559D02*
X136248808Y-92553750D01*
X136248808Y-92553750D02*
X136213094Y-92541845D01*
X136213094Y-92541845D02*
X136189285Y-92541845D01*
X136189285Y-92541845D02*
X136153570Y-92553750D01*
X136153570Y-92553750D02*
X136141666Y-92565654D01*
X135927380Y-92541845D02*
X135974999Y-92541845D01*
X135974999Y-92541845D02*
X135998808Y-92553750D01*
X135998808Y-92553750D02*
X136010713Y-92565654D01*
X136010713Y-92565654D02*
X136034523Y-92601369D01*
X136034523Y-92601369D02*
X136046427Y-92648988D01*
X136046427Y-92648988D02*
X136046427Y-92744226D01*
X136046427Y-92744226D02*
X136034523Y-92768035D01*
X136034523Y-92768035D02*
X136022618Y-92779940D01*
X136022618Y-92779940D02*
X135998808Y-92791845D01*
X135998808Y-92791845D02*
X135951189Y-92791845D01*
X135951189Y-92791845D02*
X135927380Y-92779940D01*
X135927380Y-92779940D02*
X135915475Y-92768035D01*
X135915475Y-92768035D02*
X135903570Y-92744226D01*
X135903570Y-92744226D02*
X135903570Y-92684702D01*
X135903570Y-92684702D02*
X135915475Y-92660892D01*
X135915475Y-92660892D02*
X135927380Y-92648988D01*
X135927380Y-92648988D02*
X135951189Y-92637083D01*
X135951189Y-92637083D02*
X135998808Y-92637083D01*
X135998808Y-92637083D02*
X136022618Y-92648988D01*
X136022618Y-92648988D02*
X136034523Y-92660892D01*
X136034523Y-92660892D02*
X136046427Y-92684702D01*
%TO.C,C10*%
X149860714Y-97668035D02*
X149872618Y-97679940D01*
X149872618Y-97679940D02*
X149908333Y-97691845D01*
X149908333Y-97691845D02*
X149932142Y-97691845D01*
X149932142Y-97691845D02*
X149967856Y-97679940D01*
X149967856Y-97679940D02*
X149991666Y-97656130D01*
X149991666Y-97656130D02*
X150003571Y-97632321D01*
X150003571Y-97632321D02*
X150015475Y-97584702D01*
X150015475Y-97584702D02*
X150015475Y-97548988D01*
X150015475Y-97548988D02*
X150003571Y-97501369D01*
X150003571Y-97501369D02*
X149991666Y-97477559D01*
X149991666Y-97477559D02*
X149967856Y-97453750D01*
X149967856Y-97453750D02*
X149932142Y-97441845D01*
X149932142Y-97441845D02*
X149908333Y-97441845D01*
X149908333Y-97441845D02*
X149872618Y-97453750D01*
X149872618Y-97453750D02*
X149860714Y-97465654D01*
X149622618Y-97691845D02*
X149765475Y-97691845D01*
X149694047Y-97691845D02*
X149694047Y-97441845D01*
X149694047Y-97441845D02*
X149717856Y-97477559D01*
X149717856Y-97477559D02*
X149741666Y-97501369D01*
X149741666Y-97501369D02*
X149765475Y-97513273D01*
X149467857Y-97441845D02*
X149444047Y-97441845D01*
X149444047Y-97441845D02*
X149420238Y-97453750D01*
X149420238Y-97453750D02*
X149408333Y-97465654D01*
X149408333Y-97465654D02*
X149396428Y-97489464D01*
X149396428Y-97489464D02*
X149384523Y-97537083D01*
X149384523Y-97537083D02*
X149384523Y-97596607D01*
X149384523Y-97596607D02*
X149396428Y-97644226D01*
X149396428Y-97644226D02*
X149408333Y-97668035D01*
X149408333Y-97668035D02*
X149420238Y-97679940D01*
X149420238Y-97679940D02*
X149444047Y-97691845D01*
X149444047Y-97691845D02*
X149467857Y-97691845D01*
X149467857Y-97691845D02*
X149491666Y-97679940D01*
X149491666Y-97679940D02*
X149503571Y-97668035D01*
X149503571Y-97668035D02*
X149515476Y-97644226D01*
X149515476Y-97644226D02*
X149527380Y-97596607D01*
X149527380Y-97596607D02*
X149527380Y-97537083D01*
X149527380Y-97537083D02*
X149515476Y-97489464D01*
X149515476Y-97489464D02*
X149503571Y-97465654D01*
X149503571Y-97465654D02*
X149491666Y-97453750D01*
X149491666Y-97453750D02*
X149467857Y-97441845D01*
%TO.C,C2*%
X139141666Y-93868035D02*
X139153570Y-93879940D01*
X139153570Y-93879940D02*
X139189285Y-93891845D01*
X139189285Y-93891845D02*
X139213094Y-93891845D01*
X139213094Y-93891845D02*
X139248808Y-93879940D01*
X139248808Y-93879940D02*
X139272618Y-93856130D01*
X139272618Y-93856130D02*
X139284523Y-93832321D01*
X139284523Y-93832321D02*
X139296427Y-93784702D01*
X139296427Y-93784702D02*
X139296427Y-93748988D01*
X139296427Y-93748988D02*
X139284523Y-93701369D01*
X139284523Y-93701369D02*
X139272618Y-93677559D01*
X139272618Y-93677559D02*
X139248808Y-93653750D01*
X139248808Y-93653750D02*
X139213094Y-93641845D01*
X139213094Y-93641845D02*
X139189285Y-93641845D01*
X139189285Y-93641845D02*
X139153570Y-93653750D01*
X139153570Y-93653750D02*
X139141666Y-93665654D01*
X139046427Y-93665654D02*
X139034523Y-93653750D01*
X139034523Y-93653750D02*
X139010713Y-93641845D01*
X139010713Y-93641845D02*
X138951189Y-93641845D01*
X138951189Y-93641845D02*
X138927380Y-93653750D01*
X138927380Y-93653750D02*
X138915475Y-93665654D01*
X138915475Y-93665654D02*
X138903570Y-93689464D01*
X138903570Y-93689464D02*
X138903570Y-93713273D01*
X138903570Y-93713273D02*
X138915475Y-93748988D01*
X138915475Y-93748988D02*
X139058332Y-93891845D01*
X139058332Y-93891845D02*
X138903570Y-93891845D01*
%TO.C,R17*%
X143441845Y-96774285D02*
X143322797Y-96690952D01*
X143441845Y-96631428D02*
X143191845Y-96631428D01*
X143191845Y-96631428D02*
X143191845Y-96726666D01*
X143191845Y-96726666D02*
X143203750Y-96750476D01*
X143203750Y-96750476D02*
X143215654Y-96762381D01*
X143215654Y-96762381D02*
X143239464Y-96774285D01*
X143239464Y-96774285D02*
X143275178Y-96774285D01*
X143275178Y-96774285D02*
X143298988Y-96762381D01*
X143298988Y-96762381D02*
X143310892Y-96750476D01*
X143310892Y-96750476D02*
X143322797Y-96726666D01*
X143322797Y-96726666D02*
X143322797Y-96631428D01*
X143441845Y-97012381D02*
X143441845Y-96869524D01*
X143441845Y-96940952D02*
X143191845Y-96940952D01*
X143191845Y-96940952D02*
X143227559Y-96917143D01*
X143227559Y-96917143D02*
X143251369Y-96893333D01*
X143251369Y-96893333D02*
X143263273Y-96869524D01*
X143191845Y-97095714D02*
X143191845Y-97262380D01*
X143191845Y-97262380D02*
X143441845Y-97155238D01*
%TO.C,C24*%
X144460714Y-92268035D02*
X144472618Y-92279940D01*
X144472618Y-92279940D02*
X144508333Y-92291845D01*
X144508333Y-92291845D02*
X144532142Y-92291845D01*
X144532142Y-92291845D02*
X144567856Y-92279940D01*
X144567856Y-92279940D02*
X144591666Y-92256130D01*
X144591666Y-92256130D02*
X144603571Y-92232321D01*
X144603571Y-92232321D02*
X144615475Y-92184702D01*
X144615475Y-92184702D02*
X144615475Y-92148988D01*
X144615475Y-92148988D02*
X144603571Y-92101369D01*
X144603571Y-92101369D02*
X144591666Y-92077559D01*
X144591666Y-92077559D02*
X144567856Y-92053750D01*
X144567856Y-92053750D02*
X144532142Y-92041845D01*
X144532142Y-92041845D02*
X144508333Y-92041845D01*
X144508333Y-92041845D02*
X144472618Y-92053750D01*
X144472618Y-92053750D02*
X144460714Y-92065654D01*
X144365475Y-92065654D02*
X144353571Y-92053750D01*
X144353571Y-92053750D02*
X144329761Y-92041845D01*
X144329761Y-92041845D02*
X144270237Y-92041845D01*
X144270237Y-92041845D02*
X144246428Y-92053750D01*
X144246428Y-92053750D02*
X144234523Y-92065654D01*
X144234523Y-92065654D02*
X144222618Y-92089464D01*
X144222618Y-92089464D02*
X144222618Y-92113273D01*
X144222618Y-92113273D02*
X144234523Y-92148988D01*
X144234523Y-92148988D02*
X144377380Y-92291845D01*
X144377380Y-92291845D02*
X144222618Y-92291845D01*
X144008333Y-92125178D02*
X144008333Y-92291845D01*
X144067857Y-92029940D02*
X144127380Y-92208511D01*
X144127380Y-92208511D02*
X143972619Y-92208511D01*
%TO.C,U1*%
X140440476Y-91741845D02*
X140440476Y-91944226D01*
X140440476Y-91944226D02*
X140428571Y-91968035D01*
X140428571Y-91968035D02*
X140416666Y-91979940D01*
X140416666Y-91979940D02*
X140392857Y-91991845D01*
X140392857Y-91991845D02*
X140345238Y-91991845D01*
X140345238Y-91991845D02*
X140321428Y-91979940D01*
X140321428Y-91979940D02*
X140309523Y-91968035D01*
X140309523Y-91968035D02*
X140297619Y-91944226D01*
X140297619Y-91944226D02*
X140297619Y-91741845D01*
X140047618Y-91991845D02*
X140190475Y-91991845D01*
X140119047Y-91991845D02*
X140119047Y-91741845D01*
X140119047Y-91741845D02*
X140142856Y-91777559D01*
X140142856Y-91777559D02*
X140166666Y-91801369D01*
X140166666Y-91801369D02*
X140190475Y-91813273D01*
%TO.C,C31*%
X135815714Y-97068035D02*
X135827618Y-97079940D01*
X135827618Y-97079940D02*
X135863333Y-97091845D01*
X135863333Y-97091845D02*
X135887142Y-97091845D01*
X135887142Y-97091845D02*
X135922856Y-97079940D01*
X135922856Y-97079940D02*
X135946666Y-97056130D01*
X135946666Y-97056130D02*
X135958571Y-97032321D01*
X135958571Y-97032321D02*
X135970475Y-96984702D01*
X135970475Y-96984702D02*
X135970475Y-96948988D01*
X135970475Y-96948988D02*
X135958571Y-96901369D01*
X135958571Y-96901369D02*
X135946666Y-96877559D01*
X135946666Y-96877559D02*
X135922856Y-96853750D01*
X135922856Y-96853750D02*
X135887142Y-96841845D01*
X135887142Y-96841845D02*
X135863333Y-96841845D01*
X135863333Y-96841845D02*
X135827618Y-96853750D01*
X135827618Y-96853750D02*
X135815714Y-96865654D01*
X135732380Y-96841845D02*
X135577618Y-96841845D01*
X135577618Y-96841845D02*
X135660952Y-96937083D01*
X135660952Y-96937083D02*
X135625237Y-96937083D01*
X135625237Y-96937083D02*
X135601428Y-96948988D01*
X135601428Y-96948988D02*
X135589523Y-96960892D01*
X135589523Y-96960892D02*
X135577618Y-96984702D01*
X135577618Y-96984702D02*
X135577618Y-97044226D01*
X135577618Y-97044226D02*
X135589523Y-97068035D01*
X135589523Y-97068035D02*
X135601428Y-97079940D01*
X135601428Y-97079940D02*
X135625237Y-97091845D01*
X135625237Y-97091845D02*
X135696666Y-97091845D01*
X135696666Y-97091845D02*
X135720475Y-97079940D01*
X135720475Y-97079940D02*
X135732380Y-97068035D01*
X135339523Y-97091845D02*
X135482380Y-97091845D01*
X135410952Y-97091845D02*
X135410952Y-96841845D01*
X135410952Y-96841845D02*
X135434761Y-96877559D01*
X135434761Y-96877559D02*
X135458571Y-96901369D01*
X135458571Y-96901369D02*
X135482380Y-96913273D01*
%TO.C,C28*%
X142698035Y-96779285D02*
X142709940Y-96767381D01*
X142709940Y-96767381D02*
X142721845Y-96731666D01*
X142721845Y-96731666D02*
X142721845Y-96707857D01*
X142721845Y-96707857D02*
X142709940Y-96672143D01*
X142709940Y-96672143D02*
X142686130Y-96648333D01*
X142686130Y-96648333D02*
X142662321Y-96636428D01*
X142662321Y-96636428D02*
X142614702Y-96624524D01*
X142614702Y-96624524D02*
X142578988Y-96624524D01*
X142578988Y-96624524D02*
X142531369Y-96636428D01*
X142531369Y-96636428D02*
X142507559Y-96648333D01*
X142507559Y-96648333D02*
X142483750Y-96672143D01*
X142483750Y-96672143D02*
X142471845Y-96707857D01*
X142471845Y-96707857D02*
X142471845Y-96731666D01*
X142471845Y-96731666D02*
X142483750Y-96767381D01*
X142483750Y-96767381D02*
X142495654Y-96779285D01*
X142495654Y-96874524D02*
X142483750Y-96886428D01*
X142483750Y-96886428D02*
X142471845Y-96910238D01*
X142471845Y-96910238D02*
X142471845Y-96969762D01*
X142471845Y-96969762D02*
X142483750Y-96993571D01*
X142483750Y-96993571D02*
X142495654Y-97005476D01*
X142495654Y-97005476D02*
X142519464Y-97017381D01*
X142519464Y-97017381D02*
X142543273Y-97017381D01*
X142543273Y-97017381D02*
X142578988Y-97005476D01*
X142578988Y-97005476D02*
X142721845Y-96862619D01*
X142721845Y-96862619D02*
X142721845Y-97017381D01*
X142578988Y-97160238D02*
X142567083Y-97136428D01*
X142567083Y-97136428D02*
X142555178Y-97124523D01*
X142555178Y-97124523D02*
X142531369Y-97112619D01*
X142531369Y-97112619D02*
X142519464Y-97112619D01*
X142519464Y-97112619D02*
X142495654Y-97124523D01*
X142495654Y-97124523D02*
X142483750Y-97136428D01*
X142483750Y-97136428D02*
X142471845Y-97160238D01*
X142471845Y-97160238D02*
X142471845Y-97207857D01*
X142471845Y-97207857D02*
X142483750Y-97231666D01*
X142483750Y-97231666D02*
X142495654Y-97243571D01*
X142495654Y-97243571D02*
X142519464Y-97255476D01*
X142519464Y-97255476D02*
X142531369Y-97255476D01*
X142531369Y-97255476D02*
X142555178Y-97243571D01*
X142555178Y-97243571D02*
X142567083Y-97231666D01*
X142567083Y-97231666D02*
X142578988Y-97207857D01*
X142578988Y-97207857D02*
X142578988Y-97160238D01*
X142578988Y-97160238D02*
X142590892Y-97136428D01*
X142590892Y-97136428D02*
X142602797Y-97124523D01*
X142602797Y-97124523D02*
X142626607Y-97112619D01*
X142626607Y-97112619D02*
X142674226Y-97112619D01*
X142674226Y-97112619D02*
X142698035Y-97124523D01*
X142698035Y-97124523D02*
X142709940Y-97136428D01*
X142709940Y-97136428D02*
X142721845Y-97160238D01*
X142721845Y-97160238D02*
X142721845Y-97207857D01*
X142721845Y-97207857D02*
X142709940Y-97231666D01*
X142709940Y-97231666D02*
X142698035Y-97243571D01*
X142698035Y-97243571D02*
X142674226Y-97255476D01*
X142674226Y-97255476D02*
X142626607Y-97255476D01*
X142626607Y-97255476D02*
X142602797Y-97243571D01*
X142602797Y-97243571D02*
X142590892Y-97231666D01*
X142590892Y-97231666D02*
X142578988Y-97207857D01*
%TO.C,C22*%
X147953035Y-90009285D02*
X147964940Y-89997381D01*
X147964940Y-89997381D02*
X147976845Y-89961666D01*
X147976845Y-89961666D02*
X147976845Y-89937857D01*
X147976845Y-89937857D02*
X147964940Y-89902143D01*
X147964940Y-89902143D02*
X147941130Y-89878333D01*
X147941130Y-89878333D02*
X147917321Y-89866428D01*
X147917321Y-89866428D02*
X147869702Y-89854524D01*
X147869702Y-89854524D02*
X147833988Y-89854524D01*
X147833988Y-89854524D02*
X147786369Y-89866428D01*
X147786369Y-89866428D02*
X147762559Y-89878333D01*
X147762559Y-89878333D02*
X147738750Y-89902143D01*
X147738750Y-89902143D02*
X147726845Y-89937857D01*
X147726845Y-89937857D02*
X147726845Y-89961666D01*
X147726845Y-89961666D02*
X147738750Y-89997381D01*
X147738750Y-89997381D02*
X147750654Y-90009285D01*
X147750654Y-90104524D02*
X147738750Y-90116428D01*
X147738750Y-90116428D02*
X147726845Y-90140238D01*
X147726845Y-90140238D02*
X147726845Y-90199762D01*
X147726845Y-90199762D02*
X147738750Y-90223571D01*
X147738750Y-90223571D02*
X147750654Y-90235476D01*
X147750654Y-90235476D02*
X147774464Y-90247381D01*
X147774464Y-90247381D02*
X147798273Y-90247381D01*
X147798273Y-90247381D02*
X147833988Y-90235476D01*
X147833988Y-90235476D02*
X147976845Y-90092619D01*
X147976845Y-90092619D02*
X147976845Y-90247381D01*
X147750654Y-90342619D02*
X147738750Y-90354523D01*
X147738750Y-90354523D02*
X147726845Y-90378333D01*
X147726845Y-90378333D02*
X147726845Y-90437857D01*
X147726845Y-90437857D02*
X147738750Y-90461666D01*
X147738750Y-90461666D02*
X147750654Y-90473571D01*
X147750654Y-90473571D02*
X147774464Y-90485476D01*
X147774464Y-90485476D02*
X147798273Y-90485476D01*
X147798273Y-90485476D02*
X147833988Y-90473571D01*
X147833988Y-90473571D02*
X147976845Y-90330714D01*
X147976845Y-90330714D02*
X147976845Y-90485476D01*
%TO.C,C9*%
X148306666Y-97668035D02*
X148318570Y-97679940D01*
X148318570Y-97679940D02*
X148354285Y-97691845D01*
X148354285Y-97691845D02*
X148378094Y-97691845D01*
X148378094Y-97691845D02*
X148413808Y-97679940D01*
X148413808Y-97679940D02*
X148437618Y-97656130D01*
X148437618Y-97656130D02*
X148449523Y-97632321D01*
X148449523Y-97632321D02*
X148461427Y-97584702D01*
X148461427Y-97584702D02*
X148461427Y-97548988D01*
X148461427Y-97548988D02*
X148449523Y-97501369D01*
X148449523Y-97501369D02*
X148437618Y-97477559D01*
X148437618Y-97477559D02*
X148413808Y-97453750D01*
X148413808Y-97453750D02*
X148378094Y-97441845D01*
X148378094Y-97441845D02*
X148354285Y-97441845D01*
X148354285Y-97441845D02*
X148318570Y-97453750D01*
X148318570Y-97453750D02*
X148306666Y-97465654D01*
X148187618Y-97691845D02*
X148139999Y-97691845D01*
X148139999Y-97691845D02*
X148116189Y-97679940D01*
X148116189Y-97679940D02*
X148104285Y-97668035D01*
X148104285Y-97668035D02*
X148080475Y-97632321D01*
X148080475Y-97632321D02*
X148068570Y-97584702D01*
X148068570Y-97584702D02*
X148068570Y-97489464D01*
X148068570Y-97489464D02*
X148080475Y-97465654D01*
X148080475Y-97465654D02*
X148092380Y-97453750D01*
X148092380Y-97453750D02*
X148116189Y-97441845D01*
X148116189Y-97441845D02*
X148163808Y-97441845D01*
X148163808Y-97441845D02*
X148187618Y-97453750D01*
X148187618Y-97453750D02*
X148199523Y-97465654D01*
X148199523Y-97465654D02*
X148211427Y-97489464D01*
X148211427Y-97489464D02*
X148211427Y-97548988D01*
X148211427Y-97548988D02*
X148199523Y-97572797D01*
X148199523Y-97572797D02*
X148187618Y-97584702D01*
X148187618Y-97584702D02*
X148163808Y-97596607D01*
X148163808Y-97596607D02*
X148116189Y-97596607D01*
X148116189Y-97596607D02*
X148092380Y-97584702D01*
X148092380Y-97584702D02*
X148080475Y-97572797D01*
X148080475Y-97572797D02*
X148068570Y-97548988D01*
%TO.C,C26*%
X140760714Y-90968035D02*
X140772618Y-90979940D01*
X140772618Y-90979940D02*
X140808333Y-90991845D01*
X140808333Y-90991845D02*
X140832142Y-90991845D01*
X140832142Y-90991845D02*
X140867856Y-90979940D01*
X140867856Y-90979940D02*
X140891666Y-90956130D01*
X140891666Y-90956130D02*
X140903571Y-90932321D01*
X140903571Y-90932321D02*
X140915475Y-90884702D01*
X140915475Y-90884702D02*
X140915475Y-90848988D01*
X140915475Y-90848988D02*
X140903571Y-90801369D01*
X140903571Y-90801369D02*
X140891666Y-90777559D01*
X140891666Y-90777559D02*
X140867856Y-90753750D01*
X140867856Y-90753750D02*
X140832142Y-90741845D01*
X140832142Y-90741845D02*
X140808333Y-90741845D01*
X140808333Y-90741845D02*
X140772618Y-90753750D01*
X140772618Y-90753750D02*
X140760714Y-90765654D01*
X140665475Y-90765654D02*
X140653571Y-90753750D01*
X140653571Y-90753750D02*
X140629761Y-90741845D01*
X140629761Y-90741845D02*
X140570237Y-90741845D01*
X140570237Y-90741845D02*
X140546428Y-90753750D01*
X140546428Y-90753750D02*
X140534523Y-90765654D01*
X140534523Y-90765654D02*
X140522618Y-90789464D01*
X140522618Y-90789464D02*
X140522618Y-90813273D01*
X140522618Y-90813273D02*
X140534523Y-90848988D01*
X140534523Y-90848988D02*
X140677380Y-90991845D01*
X140677380Y-90991845D02*
X140522618Y-90991845D01*
X140308333Y-90741845D02*
X140355952Y-90741845D01*
X140355952Y-90741845D02*
X140379761Y-90753750D01*
X140379761Y-90753750D02*
X140391666Y-90765654D01*
X140391666Y-90765654D02*
X140415476Y-90801369D01*
X140415476Y-90801369D02*
X140427380Y-90848988D01*
X140427380Y-90848988D02*
X140427380Y-90944226D01*
X140427380Y-90944226D02*
X140415476Y-90968035D01*
X140415476Y-90968035D02*
X140403571Y-90979940D01*
X140403571Y-90979940D02*
X140379761Y-90991845D01*
X140379761Y-90991845D02*
X140332142Y-90991845D01*
X140332142Y-90991845D02*
X140308333Y-90979940D01*
X140308333Y-90979940D02*
X140296428Y-90968035D01*
X140296428Y-90968035D02*
X140284523Y-90944226D01*
X140284523Y-90944226D02*
X140284523Y-90884702D01*
X140284523Y-90884702D02*
X140296428Y-90860892D01*
X140296428Y-90860892D02*
X140308333Y-90848988D01*
X140308333Y-90848988D02*
X140332142Y-90837083D01*
X140332142Y-90837083D02*
X140379761Y-90837083D01*
X140379761Y-90837083D02*
X140403571Y-90848988D01*
X140403571Y-90848988D02*
X140415476Y-90860892D01*
X140415476Y-90860892D02*
X140427380Y-90884702D01*
%TO.C,C3*%
X138868035Y-91858333D02*
X138879940Y-91846429D01*
X138879940Y-91846429D02*
X138891845Y-91810714D01*
X138891845Y-91810714D02*
X138891845Y-91786905D01*
X138891845Y-91786905D02*
X138879940Y-91751191D01*
X138879940Y-91751191D02*
X138856130Y-91727381D01*
X138856130Y-91727381D02*
X138832321Y-91715476D01*
X138832321Y-91715476D02*
X138784702Y-91703572D01*
X138784702Y-91703572D02*
X138748988Y-91703572D01*
X138748988Y-91703572D02*
X138701369Y-91715476D01*
X138701369Y-91715476D02*
X138677559Y-91727381D01*
X138677559Y-91727381D02*
X138653750Y-91751191D01*
X138653750Y-91751191D02*
X138641845Y-91786905D01*
X138641845Y-91786905D02*
X138641845Y-91810714D01*
X138641845Y-91810714D02*
X138653750Y-91846429D01*
X138653750Y-91846429D02*
X138665654Y-91858333D01*
X138641845Y-91941667D02*
X138641845Y-92096429D01*
X138641845Y-92096429D02*
X138737083Y-92013095D01*
X138737083Y-92013095D02*
X138737083Y-92048810D01*
X138737083Y-92048810D02*
X138748988Y-92072619D01*
X138748988Y-92072619D02*
X138760892Y-92084524D01*
X138760892Y-92084524D02*
X138784702Y-92096429D01*
X138784702Y-92096429D02*
X138844226Y-92096429D01*
X138844226Y-92096429D02*
X138868035Y-92084524D01*
X138868035Y-92084524D02*
X138879940Y-92072619D01*
X138879940Y-92072619D02*
X138891845Y-92048810D01*
X138891845Y-92048810D02*
X138891845Y-91977381D01*
X138891845Y-91977381D02*
X138879940Y-91953572D01*
X138879940Y-91953572D02*
X138868035Y-91941667D01*
%TO.C,C1*%
X140641666Y-93868035D02*
X140653570Y-93879940D01*
X140653570Y-93879940D02*
X140689285Y-93891845D01*
X140689285Y-93891845D02*
X140713094Y-93891845D01*
X140713094Y-93891845D02*
X140748808Y-93879940D01*
X140748808Y-93879940D02*
X140772618Y-93856130D01*
X140772618Y-93856130D02*
X140784523Y-93832321D01*
X140784523Y-93832321D02*
X140796427Y-93784702D01*
X140796427Y-93784702D02*
X140796427Y-93748988D01*
X140796427Y-93748988D02*
X140784523Y-93701369D01*
X140784523Y-93701369D02*
X140772618Y-93677559D01*
X140772618Y-93677559D02*
X140748808Y-93653750D01*
X140748808Y-93653750D02*
X140713094Y-93641845D01*
X140713094Y-93641845D02*
X140689285Y-93641845D01*
X140689285Y-93641845D02*
X140653570Y-93653750D01*
X140653570Y-93653750D02*
X140641666Y-93665654D01*
X140403570Y-93891845D02*
X140546427Y-93891845D01*
X140474999Y-93891845D02*
X140474999Y-93641845D01*
X140474999Y-93641845D02*
X140498808Y-93677559D01*
X140498808Y-93677559D02*
X140522618Y-93701369D01*
X140522618Y-93701369D02*
X140546427Y-93713273D01*
%TO.C,R4*%
X144241666Y-89891845D02*
X144324999Y-89772797D01*
X144384523Y-89891845D02*
X144384523Y-89641845D01*
X144384523Y-89641845D02*
X144289285Y-89641845D01*
X144289285Y-89641845D02*
X144265475Y-89653750D01*
X144265475Y-89653750D02*
X144253570Y-89665654D01*
X144253570Y-89665654D02*
X144241666Y-89689464D01*
X144241666Y-89689464D02*
X144241666Y-89725178D01*
X144241666Y-89725178D02*
X144253570Y-89748988D01*
X144253570Y-89748988D02*
X144265475Y-89760892D01*
X144265475Y-89760892D02*
X144289285Y-89772797D01*
X144289285Y-89772797D02*
X144384523Y-89772797D01*
X144027380Y-89725178D02*
X144027380Y-89891845D01*
X144086904Y-89629940D02*
X144146427Y-89808511D01*
X144146427Y-89808511D02*
X143991666Y-89808511D01*
%TO.C,C11*%
X147020714Y-97733035D02*
X147032618Y-97744940D01*
X147032618Y-97744940D02*
X147068333Y-97756845D01*
X147068333Y-97756845D02*
X147092142Y-97756845D01*
X147092142Y-97756845D02*
X147127856Y-97744940D01*
X147127856Y-97744940D02*
X147151666Y-97721130D01*
X147151666Y-97721130D02*
X147163571Y-97697321D01*
X147163571Y-97697321D02*
X147175475Y-97649702D01*
X147175475Y-97649702D02*
X147175475Y-97613988D01*
X147175475Y-97613988D02*
X147163571Y-97566369D01*
X147163571Y-97566369D02*
X147151666Y-97542559D01*
X147151666Y-97542559D02*
X147127856Y-97518750D01*
X147127856Y-97518750D02*
X147092142Y-97506845D01*
X147092142Y-97506845D02*
X147068333Y-97506845D01*
X147068333Y-97506845D02*
X147032618Y-97518750D01*
X147032618Y-97518750D02*
X147020714Y-97530654D01*
X146782618Y-97756845D02*
X146925475Y-97756845D01*
X146854047Y-97756845D02*
X146854047Y-97506845D01*
X146854047Y-97506845D02*
X146877856Y-97542559D01*
X146877856Y-97542559D02*
X146901666Y-97566369D01*
X146901666Y-97566369D02*
X146925475Y-97578273D01*
X146544523Y-97756845D02*
X146687380Y-97756845D01*
X146615952Y-97756845D02*
X146615952Y-97506845D01*
X146615952Y-97506845D02*
X146639761Y-97542559D01*
X146639761Y-97542559D02*
X146663571Y-97566369D01*
X146663571Y-97566369D02*
X146687380Y-97578273D01*
%TO.C,C8*%
X136941666Y-92768035D02*
X136953570Y-92779940D01*
X136953570Y-92779940D02*
X136989285Y-92791845D01*
X136989285Y-92791845D02*
X137013094Y-92791845D01*
X137013094Y-92791845D02*
X137048808Y-92779940D01*
X137048808Y-92779940D02*
X137072618Y-92756130D01*
X137072618Y-92756130D02*
X137084523Y-92732321D01*
X137084523Y-92732321D02*
X137096427Y-92684702D01*
X137096427Y-92684702D02*
X137096427Y-92648988D01*
X137096427Y-92648988D02*
X137084523Y-92601369D01*
X137084523Y-92601369D02*
X137072618Y-92577559D01*
X137072618Y-92577559D02*
X137048808Y-92553750D01*
X137048808Y-92553750D02*
X137013094Y-92541845D01*
X137013094Y-92541845D02*
X136989285Y-92541845D01*
X136989285Y-92541845D02*
X136953570Y-92553750D01*
X136953570Y-92553750D02*
X136941666Y-92565654D01*
X136798808Y-92648988D02*
X136822618Y-92637083D01*
X136822618Y-92637083D02*
X136834523Y-92625178D01*
X136834523Y-92625178D02*
X136846427Y-92601369D01*
X136846427Y-92601369D02*
X136846427Y-92589464D01*
X136846427Y-92589464D02*
X136834523Y-92565654D01*
X136834523Y-92565654D02*
X136822618Y-92553750D01*
X136822618Y-92553750D02*
X136798808Y-92541845D01*
X136798808Y-92541845D02*
X136751189Y-92541845D01*
X136751189Y-92541845D02*
X136727380Y-92553750D01*
X136727380Y-92553750D02*
X136715475Y-92565654D01*
X136715475Y-92565654D02*
X136703570Y-92589464D01*
X136703570Y-92589464D02*
X136703570Y-92601369D01*
X136703570Y-92601369D02*
X136715475Y-92625178D01*
X136715475Y-92625178D02*
X136727380Y-92637083D01*
X136727380Y-92637083D02*
X136751189Y-92648988D01*
X136751189Y-92648988D02*
X136798808Y-92648988D01*
X136798808Y-92648988D02*
X136822618Y-92660892D01*
X136822618Y-92660892D02*
X136834523Y-92672797D01*
X136834523Y-92672797D02*
X136846427Y-92696607D01*
X136846427Y-92696607D02*
X136846427Y-92744226D01*
X136846427Y-92744226D02*
X136834523Y-92768035D01*
X136834523Y-92768035D02*
X136822618Y-92779940D01*
X136822618Y-92779940D02*
X136798808Y-92791845D01*
X136798808Y-92791845D02*
X136751189Y-92791845D01*
X136751189Y-92791845D02*
X136727380Y-92779940D01*
X136727380Y-92779940D02*
X136715475Y-92768035D01*
X136715475Y-92768035D02*
X136703570Y-92744226D01*
X136703570Y-92744226D02*
X136703570Y-92696607D01*
X136703570Y-92696607D02*
X136715475Y-92672797D01*
X136715475Y-92672797D02*
X136727380Y-92660892D01*
X136727380Y-92660892D02*
X136751189Y-92648988D01*
%TO.C,C30*%
X135815714Y-95598035D02*
X135827618Y-95609940D01*
X135827618Y-95609940D02*
X135863333Y-95621845D01*
X135863333Y-95621845D02*
X135887142Y-95621845D01*
X135887142Y-95621845D02*
X135922856Y-95609940D01*
X135922856Y-95609940D02*
X135946666Y-95586130D01*
X135946666Y-95586130D02*
X135958571Y-95562321D01*
X135958571Y-95562321D02*
X135970475Y-95514702D01*
X135970475Y-95514702D02*
X135970475Y-95478988D01*
X135970475Y-95478988D02*
X135958571Y-95431369D01*
X135958571Y-95431369D02*
X135946666Y-95407559D01*
X135946666Y-95407559D02*
X135922856Y-95383750D01*
X135922856Y-95383750D02*
X135887142Y-95371845D01*
X135887142Y-95371845D02*
X135863333Y-95371845D01*
X135863333Y-95371845D02*
X135827618Y-95383750D01*
X135827618Y-95383750D02*
X135815714Y-95395654D01*
X135732380Y-95371845D02*
X135577618Y-95371845D01*
X135577618Y-95371845D02*
X135660952Y-95467083D01*
X135660952Y-95467083D02*
X135625237Y-95467083D01*
X135625237Y-95467083D02*
X135601428Y-95478988D01*
X135601428Y-95478988D02*
X135589523Y-95490892D01*
X135589523Y-95490892D02*
X135577618Y-95514702D01*
X135577618Y-95514702D02*
X135577618Y-95574226D01*
X135577618Y-95574226D02*
X135589523Y-95598035D01*
X135589523Y-95598035D02*
X135601428Y-95609940D01*
X135601428Y-95609940D02*
X135625237Y-95621845D01*
X135625237Y-95621845D02*
X135696666Y-95621845D01*
X135696666Y-95621845D02*
X135720475Y-95609940D01*
X135720475Y-95609940D02*
X135732380Y-95598035D01*
X135422857Y-95371845D02*
X135399047Y-95371845D01*
X135399047Y-95371845D02*
X135375238Y-95383750D01*
X135375238Y-95383750D02*
X135363333Y-95395654D01*
X135363333Y-95395654D02*
X135351428Y-95419464D01*
X135351428Y-95419464D02*
X135339523Y-95467083D01*
X135339523Y-95467083D02*
X135339523Y-95526607D01*
X135339523Y-95526607D02*
X135351428Y-95574226D01*
X135351428Y-95574226D02*
X135363333Y-95598035D01*
X135363333Y-95598035D02*
X135375238Y-95609940D01*
X135375238Y-95609940D02*
X135399047Y-95621845D01*
X135399047Y-95621845D02*
X135422857Y-95621845D01*
X135422857Y-95621845D02*
X135446666Y-95609940D01*
X135446666Y-95609940D02*
X135458571Y-95598035D01*
X135458571Y-95598035D02*
X135470476Y-95574226D01*
X135470476Y-95574226D02*
X135482380Y-95526607D01*
X135482380Y-95526607D02*
X135482380Y-95467083D01*
X135482380Y-95467083D02*
X135470476Y-95419464D01*
X135470476Y-95419464D02*
X135458571Y-95395654D01*
X135458571Y-95395654D02*
X135446666Y-95383750D01*
X135446666Y-95383750D02*
X135422857Y-95371845D01*
%TO.C,C13*%
X145813035Y-89899285D02*
X145824940Y-89887381D01*
X145824940Y-89887381D02*
X145836845Y-89851666D01*
X145836845Y-89851666D02*
X145836845Y-89827857D01*
X145836845Y-89827857D02*
X145824940Y-89792143D01*
X145824940Y-89792143D02*
X145801130Y-89768333D01*
X145801130Y-89768333D02*
X145777321Y-89756428D01*
X145777321Y-89756428D02*
X145729702Y-89744524D01*
X145729702Y-89744524D02*
X145693988Y-89744524D01*
X145693988Y-89744524D02*
X145646369Y-89756428D01*
X145646369Y-89756428D02*
X145622559Y-89768333D01*
X145622559Y-89768333D02*
X145598750Y-89792143D01*
X145598750Y-89792143D02*
X145586845Y-89827857D01*
X145586845Y-89827857D02*
X145586845Y-89851666D01*
X145586845Y-89851666D02*
X145598750Y-89887381D01*
X145598750Y-89887381D02*
X145610654Y-89899285D01*
X145836845Y-90137381D02*
X145836845Y-89994524D01*
X145836845Y-90065952D02*
X145586845Y-90065952D01*
X145586845Y-90065952D02*
X145622559Y-90042143D01*
X145622559Y-90042143D02*
X145646369Y-90018333D01*
X145646369Y-90018333D02*
X145658273Y-89994524D01*
X145586845Y-90220714D02*
X145586845Y-90375476D01*
X145586845Y-90375476D02*
X145682083Y-90292142D01*
X145682083Y-90292142D02*
X145682083Y-90327857D01*
X145682083Y-90327857D02*
X145693988Y-90351666D01*
X145693988Y-90351666D02*
X145705892Y-90363571D01*
X145705892Y-90363571D02*
X145729702Y-90375476D01*
X145729702Y-90375476D02*
X145789226Y-90375476D01*
X145789226Y-90375476D02*
X145813035Y-90363571D01*
X145813035Y-90363571D02*
X145824940Y-90351666D01*
X145824940Y-90351666D02*
X145836845Y-90327857D01*
X145836845Y-90327857D02*
X145836845Y-90256428D01*
X145836845Y-90256428D02*
X145824940Y-90232619D01*
X145824940Y-90232619D02*
X145813035Y-90220714D01*
%TO.C,U4*%
X147540476Y-94341845D02*
X147540476Y-94544226D01*
X147540476Y-94544226D02*
X147528571Y-94568035D01*
X147528571Y-94568035D02*
X147516666Y-94579940D01*
X147516666Y-94579940D02*
X147492857Y-94591845D01*
X147492857Y-94591845D02*
X147445238Y-94591845D01*
X147445238Y-94591845D02*
X147421428Y-94579940D01*
X147421428Y-94579940D02*
X147409523Y-94568035D01*
X147409523Y-94568035D02*
X147397619Y-94544226D01*
X147397619Y-94544226D02*
X147397619Y-94341845D01*
X147171428Y-94425178D02*
X147171428Y-94591845D01*
X147230952Y-94329940D02*
X147290475Y-94508511D01*
X147290475Y-94508511D02*
X147135714Y-94508511D01*
%TO.C,C5*%
X137841666Y-92768035D02*
X137853570Y-92779940D01*
X137853570Y-92779940D02*
X137889285Y-92791845D01*
X137889285Y-92791845D02*
X137913094Y-92791845D01*
X137913094Y-92791845D02*
X137948808Y-92779940D01*
X137948808Y-92779940D02*
X137972618Y-92756130D01*
X137972618Y-92756130D02*
X137984523Y-92732321D01*
X137984523Y-92732321D02*
X137996427Y-92684702D01*
X137996427Y-92684702D02*
X137996427Y-92648988D01*
X137996427Y-92648988D02*
X137984523Y-92601369D01*
X137984523Y-92601369D02*
X137972618Y-92577559D01*
X137972618Y-92577559D02*
X137948808Y-92553750D01*
X137948808Y-92553750D02*
X137913094Y-92541845D01*
X137913094Y-92541845D02*
X137889285Y-92541845D01*
X137889285Y-92541845D02*
X137853570Y-92553750D01*
X137853570Y-92553750D02*
X137841666Y-92565654D01*
X137615475Y-92541845D02*
X137734523Y-92541845D01*
X137734523Y-92541845D02*
X137746427Y-92660892D01*
X137746427Y-92660892D02*
X137734523Y-92648988D01*
X137734523Y-92648988D02*
X137710713Y-92637083D01*
X137710713Y-92637083D02*
X137651189Y-92637083D01*
X137651189Y-92637083D02*
X137627380Y-92648988D01*
X137627380Y-92648988D02*
X137615475Y-92660892D01*
X137615475Y-92660892D02*
X137603570Y-92684702D01*
X137603570Y-92684702D02*
X137603570Y-92744226D01*
X137603570Y-92744226D02*
X137615475Y-92768035D01*
X137615475Y-92768035D02*
X137627380Y-92779940D01*
X137627380Y-92779940D02*
X137651189Y-92791845D01*
X137651189Y-92791845D02*
X137710713Y-92791845D01*
X137710713Y-92791845D02*
X137734523Y-92779940D01*
X137734523Y-92779940D02*
X137746427Y-92768035D01*
%TO.C,L1*%
X140641666Y-88586845D02*
X140760714Y-88586845D01*
X140760714Y-88586845D02*
X140760714Y-88336845D01*
X140427380Y-88586845D02*
X140570237Y-88586845D01*
X140498809Y-88586845D02*
X140498809Y-88336845D01*
X140498809Y-88336845D02*
X140522618Y-88372559D01*
X140522618Y-88372559D02*
X140546428Y-88396369D01*
X140546428Y-88396369D02*
X140570237Y-88408273D01*
%TO.C,R7*%
X149156666Y-91791845D02*
X149239999Y-91672797D01*
X149299523Y-91791845D02*
X149299523Y-91541845D01*
X149299523Y-91541845D02*
X149204285Y-91541845D01*
X149204285Y-91541845D02*
X149180475Y-91553750D01*
X149180475Y-91553750D02*
X149168570Y-91565654D01*
X149168570Y-91565654D02*
X149156666Y-91589464D01*
X149156666Y-91589464D02*
X149156666Y-91625178D01*
X149156666Y-91625178D02*
X149168570Y-91648988D01*
X149168570Y-91648988D02*
X149180475Y-91660892D01*
X149180475Y-91660892D02*
X149204285Y-91672797D01*
X149204285Y-91672797D02*
X149299523Y-91672797D01*
X149073332Y-91541845D02*
X148906666Y-91541845D01*
X148906666Y-91541845D02*
X149013808Y-91791845D01*
%TO.C,C27*%
X144160714Y-94168035D02*
X144172618Y-94179940D01*
X144172618Y-94179940D02*
X144208333Y-94191845D01*
X144208333Y-94191845D02*
X144232142Y-94191845D01*
X144232142Y-94191845D02*
X144267856Y-94179940D01*
X144267856Y-94179940D02*
X144291666Y-94156130D01*
X144291666Y-94156130D02*
X144303571Y-94132321D01*
X144303571Y-94132321D02*
X144315475Y-94084702D01*
X144315475Y-94084702D02*
X144315475Y-94048988D01*
X144315475Y-94048988D02*
X144303571Y-94001369D01*
X144303571Y-94001369D02*
X144291666Y-93977559D01*
X144291666Y-93977559D02*
X144267856Y-93953750D01*
X144267856Y-93953750D02*
X144232142Y-93941845D01*
X144232142Y-93941845D02*
X144208333Y-93941845D01*
X144208333Y-93941845D02*
X144172618Y-93953750D01*
X144172618Y-93953750D02*
X144160714Y-93965654D01*
X144065475Y-93965654D02*
X144053571Y-93953750D01*
X144053571Y-93953750D02*
X144029761Y-93941845D01*
X144029761Y-93941845D02*
X143970237Y-93941845D01*
X143970237Y-93941845D02*
X143946428Y-93953750D01*
X143946428Y-93953750D02*
X143934523Y-93965654D01*
X143934523Y-93965654D02*
X143922618Y-93989464D01*
X143922618Y-93989464D02*
X143922618Y-94013273D01*
X143922618Y-94013273D02*
X143934523Y-94048988D01*
X143934523Y-94048988D02*
X144077380Y-94191845D01*
X144077380Y-94191845D02*
X143922618Y-94191845D01*
X143839285Y-93941845D02*
X143672619Y-93941845D01*
X143672619Y-93941845D02*
X143779761Y-94191845D01*
%TO.C,C23*%
X147263035Y-89999285D02*
X147274940Y-89987381D01*
X147274940Y-89987381D02*
X147286845Y-89951666D01*
X147286845Y-89951666D02*
X147286845Y-89927857D01*
X147286845Y-89927857D02*
X147274940Y-89892143D01*
X147274940Y-89892143D02*
X147251130Y-89868333D01*
X147251130Y-89868333D02*
X147227321Y-89856428D01*
X147227321Y-89856428D02*
X147179702Y-89844524D01*
X147179702Y-89844524D02*
X147143988Y-89844524D01*
X147143988Y-89844524D02*
X147096369Y-89856428D01*
X147096369Y-89856428D02*
X147072559Y-89868333D01*
X147072559Y-89868333D02*
X147048750Y-89892143D01*
X147048750Y-89892143D02*
X147036845Y-89927857D01*
X147036845Y-89927857D02*
X147036845Y-89951666D01*
X147036845Y-89951666D02*
X147048750Y-89987381D01*
X147048750Y-89987381D02*
X147060654Y-89999285D01*
X147060654Y-90094524D02*
X147048750Y-90106428D01*
X147048750Y-90106428D02*
X147036845Y-90130238D01*
X147036845Y-90130238D02*
X147036845Y-90189762D01*
X147036845Y-90189762D02*
X147048750Y-90213571D01*
X147048750Y-90213571D02*
X147060654Y-90225476D01*
X147060654Y-90225476D02*
X147084464Y-90237381D01*
X147084464Y-90237381D02*
X147108273Y-90237381D01*
X147108273Y-90237381D02*
X147143988Y-90225476D01*
X147143988Y-90225476D02*
X147286845Y-90082619D01*
X147286845Y-90082619D02*
X147286845Y-90237381D01*
X147036845Y-90320714D02*
X147036845Y-90475476D01*
X147036845Y-90475476D02*
X147132083Y-90392142D01*
X147132083Y-90392142D02*
X147132083Y-90427857D01*
X147132083Y-90427857D02*
X147143988Y-90451666D01*
X147143988Y-90451666D02*
X147155892Y-90463571D01*
X147155892Y-90463571D02*
X147179702Y-90475476D01*
X147179702Y-90475476D02*
X147239226Y-90475476D01*
X147239226Y-90475476D02*
X147263035Y-90463571D01*
X147263035Y-90463571D02*
X147274940Y-90451666D01*
X147274940Y-90451666D02*
X147286845Y-90427857D01*
X147286845Y-90427857D02*
X147286845Y-90356428D01*
X147286845Y-90356428D02*
X147274940Y-90332619D01*
X147274940Y-90332619D02*
X147263035Y-90320714D01*
D11*
%TO.C,L2*%
X145750000Y-88950000D02*
X145750000Y-88050000D01*
X145750000Y-88050000D02*
X143750000Y-88050000D01*
X143750000Y-88950000D02*
X145750000Y-88950000D01*
X143750000Y-88050000D02*
X143750000Y-88950000D01*
%TO.C,C12*%
X145720000Y-98200000D02*
X145720000Y-97900000D01*
X145720000Y-97900000D02*
X145120000Y-97900000D01*
X145120000Y-98200000D02*
X145720000Y-98200000D01*
X145120000Y-97900000D02*
X145120000Y-98200000D01*
%TO.C,R9*%
X143200000Y-92850000D02*
X143200000Y-93150000D01*
X143200000Y-93150000D02*
X143800000Y-93150000D01*
X143800000Y-92850000D02*
X143200000Y-92850000D01*
X143800000Y-93150000D02*
X143800000Y-92850000D01*
%TO.C,R6*%
X148800000Y-90400000D02*
X148800000Y-90700000D01*
X148800000Y-90700000D02*
X149400000Y-90700000D01*
X149400000Y-90400000D02*
X148800000Y-90400000D01*
X149400000Y-90700000D02*
X149400000Y-90400000D01*
%TO.C,U7*%
X141500000Y-91700000D02*
X141500000Y-92450000D01*
X141500000Y-92450000D02*
X141750000Y-92700000D01*
X141750000Y-92700000D02*
X142500000Y-92700000D01*
X142500000Y-91700000D02*
X141500000Y-91700000D01*
X142500000Y-92700000D02*
X142500000Y-91700000D01*
%TO.C,C29*%
X142300000Y-93450000D02*
X142300000Y-93150000D01*
X142300000Y-93150000D02*
X141700000Y-93150000D01*
X141700000Y-93450000D02*
X142300000Y-93450000D01*
X141700000Y-93150000D02*
X141700000Y-93450000D01*
%TO.C,U8*%
X136500000Y-94400000D02*
X141700000Y-94400000D01*
X136500000Y-97700000D02*
X136500000Y-94400000D01*
X136500000Y-97700000D02*
X137000000Y-98200000D01*
X141700000Y-94400000D02*
X141700000Y-98200000D01*
X141700000Y-98200000D02*
X137000000Y-98200000D01*
%TO.C,R16*%
X141550000Y-91100000D02*
X141850000Y-91100000D01*
X141850000Y-91100000D02*
X141850000Y-90500000D01*
X141550000Y-90500000D02*
X141550000Y-91100000D01*
X141850000Y-90500000D02*
X141550000Y-90500000D01*
%TO.C,R8*%
X143200000Y-91250000D02*
X143200000Y-91550000D01*
X143200000Y-91550000D02*
X143800000Y-91550000D01*
X143800000Y-91250000D02*
X143200000Y-91250000D01*
X143800000Y-91550000D02*
X143800000Y-91250000D01*
%TO.C,C32*%
X137200000Y-93450000D02*
X137200000Y-93750000D01*
X137200000Y-93750000D02*
X137800000Y-93750000D01*
X137800000Y-93450000D02*
X137200000Y-93450000D01*
X137800000Y-93750000D02*
X137800000Y-93450000D01*
%TO.C,C15*%
X144650000Y-91100000D02*
X145150000Y-91100000D01*
X145150000Y-91100000D02*
X145150000Y-90100000D01*
X144650000Y-90100000D02*
X144650000Y-91100000D01*
X145150000Y-90100000D02*
X144650000Y-90100000D01*
%TO.C,R3*%
X138800000Y-90300000D02*
X138800000Y-90600000D01*
X138800000Y-90600000D02*
X139400000Y-90600000D01*
X139400000Y-90300000D02*
X138800000Y-90300000D01*
X139400000Y-90600000D02*
X139400000Y-90300000D01*
%TO.C,C14*%
X146300000Y-91100000D02*
X146600000Y-91100000D01*
X146600000Y-91100000D02*
X146600000Y-90500000D01*
X146300000Y-90500000D02*
X146300000Y-91100000D01*
X146600000Y-90500000D02*
X146300000Y-90500000D01*
%TO.C,U6*%
X144000000Y-96700000D02*
X144000000Y-95225000D01*
X143475000Y-94700000D02*
X144000000Y-95225000D01*
X143475000Y-94700000D02*
X142400000Y-94700000D01*
X142400000Y-96700000D02*
X144000000Y-96700000D01*
X142400000Y-94700000D02*
X142400000Y-96700000D01*
%TO.C,L3*%
X143900000Y-90750000D02*
X143900000Y-90450000D01*
X143900000Y-90450000D02*
X143300000Y-90450000D01*
X143300000Y-90750000D02*
X143900000Y-90750000D01*
X143300000Y-90450000D02*
X143300000Y-90750000D01*
%TO.C,C6*%
X136000000Y-92400000D02*
X136300000Y-92400000D01*
X136300000Y-92400000D02*
X136300000Y-91800000D01*
X136000000Y-91800000D02*
X136000000Y-92400000D01*
X136300000Y-91800000D02*
X136000000Y-91800000D01*
%TO.C,C10*%
X149380000Y-97850000D02*
X149380000Y-98150000D01*
X149380000Y-98150000D02*
X149980000Y-98150000D01*
X149980000Y-97850000D02*
X149380000Y-97850000D01*
X149980000Y-98150000D02*
X149980000Y-97850000D01*
%TO.C,C2*%
X139400000Y-93550000D02*
X139400000Y-93250000D01*
X139400000Y-93250000D02*
X138800000Y-93250000D01*
X138800000Y-93550000D02*
X139400000Y-93550000D01*
X138800000Y-93250000D02*
X138800000Y-93550000D01*
%TO.C,R17*%
X143500000Y-97350000D02*
X143200000Y-97350000D01*
X143200000Y-97350000D02*
X143200000Y-97950000D01*
X143500000Y-97950000D02*
X143500000Y-97350000D01*
X143200000Y-97950000D02*
X143500000Y-97950000D01*
%TO.C,C24*%
X143800000Y-92350000D02*
X143800000Y-92050000D01*
X143800000Y-92050000D02*
X143200000Y-92050000D01*
X143200000Y-92350000D02*
X143800000Y-92350000D01*
X143200000Y-92050000D02*
X143200000Y-92350000D01*
%TO.C,U1*%
X141050000Y-91100000D02*
X139850000Y-91100000D01*
X139850000Y-91100000D02*
X139450000Y-91500000D01*
X139450000Y-91500000D02*
X139450000Y-92700000D01*
X141050000Y-92700000D02*
X141050000Y-91100000D01*
X139450000Y-92700000D02*
X141050000Y-92700000D01*
%TO.C,C31*%
X135800000Y-97250000D02*
X135500000Y-97250000D01*
X135500000Y-97250000D02*
X135500000Y-97850000D01*
X135800000Y-97850000D02*
X135800000Y-97250000D01*
X135500000Y-97850000D02*
X135800000Y-97850000D01*
%TO.C,C28*%
X142470000Y-97940000D02*
X142770000Y-97940000D01*
X142770000Y-97940000D02*
X142770000Y-97340000D01*
X142470000Y-97340000D02*
X142470000Y-97940000D01*
X142770000Y-97340000D02*
X142470000Y-97340000D01*
%TO.C,C22*%
X147750000Y-91200000D02*
X148050000Y-91200000D01*
X148050000Y-91200000D02*
X148050000Y-90600000D01*
X147750000Y-90600000D02*
X147750000Y-91200000D01*
X148050000Y-90600000D02*
X147750000Y-90600000D01*
%TO.C,C9*%
X148580000Y-98150000D02*
X148580000Y-97850000D01*
X148580000Y-97850000D02*
X147980000Y-97850000D01*
X147980000Y-98150000D02*
X148580000Y-98150000D01*
X147980000Y-97850000D02*
X147980000Y-98150000D01*
%TO.C,C26*%
X140300000Y-90300000D02*
X140300000Y-90600000D01*
X140300000Y-90600000D02*
X140900000Y-90600000D01*
X140900000Y-90300000D02*
X140300000Y-90300000D01*
X140900000Y-90600000D02*
X140900000Y-90300000D01*
%TO.C,C3*%
X139000000Y-91400000D02*
X138500000Y-91400000D01*
X138500000Y-91400000D02*
X138500000Y-92400000D01*
X139000000Y-92400000D02*
X139000000Y-91400000D01*
X138500000Y-92400000D02*
X139000000Y-92400000D01*
%TO.C,C1*%
X140300000Y-93250000D02*
X140300000Y-93550000D01*
X140300000Y-93550000D02*
X140900000Y-93550000D01*
X140900000Y-93250000D02*
X140300000Y-93250000D01*
X140900000Y-93550000D02*
X140900000Y-93250000D01*
%TO.C,R4*%
X143350000Y-89650000D02*
X143350000Y-89950000D01*
X143350000Y-89950000D02*
X143950000Y-89950000D01*
X143950000Y-89650000D02*
X143350000Y-89650000D01*
X143950000Y-89950000D02*
X143950000Y-89650000D01*
%TO.C,C11*%
X146550000Y-97850000D02*
X146550000Y-98150000D01*
X146550000Y-98150000D02*
X147150000Y-98150000D01*
X147150000Y-97850000D02*
X146550000Y-97850000D01*
X147150000Y-98150000D02*
X147150000Y-97850000D01*
%TO.C,C8*%
X136750000Y-92400000D02*
X137050000Y-92400000D01*
X137050000Y-92400000D02*
X137050000Y-91800000D01*
X136750000Y-91800000D02*
X136750000Y-92400000D01*
X137050000Y-91800000D02*
X136750000Y-91800000D01*
%TO.C,C30*%
X135800000Y-95750000D02*
X135500000Y-95750000D01*
X135500000Y-95750000D02*
X135500000Y-96350000D01*
X135800000Y-96350000D02*
X135800000Y-95750000D01*
X135500000Y-96350000D02*
X135800000Y-96350000D01*
%TO.C,C13*%
X145600000Y-91100000D02*
X145900000Y-91100000D01*
X145900000Y-91100000D02*
X145900000Y-90500000D01*
X145600000Y-90500000D02*
X145600000Y-91100000D01*
X145900000Y-90500000D02*
X145600000Y-90500000D01*
%TO.C,U4*%
X144800000Y-91950000D02*
X144800000Y-96000000D01*
X144800000Y-91950000D02*
X149900000Y-91950000D01*
X144800000Y-96000000D02*
X145850000Y-97050000D01*
X145850000Y-97050000D02*
X149900000Y-97050000D01*
X149900000Y-91950000D02*
X149900000Y-97050000D01*
%TO.C,C5*%
X137600000Y-92400000D02*
X137900000Y-92400000D01*
X137900000Y-92400000D02*
X137900000Y-91800000D01*
X137600000Y-91800000D02*
X137600000Y-92400000D01*
X137900000Y-91800000D02*
X137600000Y-91800000D01*
%TO.C,L1*%
X139000000Y-87250000D02*
X139000000Y-89750000D01*
X139000000Y-89750000D02*
X142200000Y-89750000D01*
X142200000Y-87250000D02*
X139000000Y-87250000D01*
X142200000Y-89750000D02*
X142200000Y-87250000D01*
%TO.C,R7*%
X149400000Y-91400000D02*
X149400000Y-91100000D01*
X149400000Y-91100000D02*
X148800000Y-91100000D01*
X148800000Y-91400000D02*
X149400000Y-91400000D01*
X148800000Y-91100000D02*
X148800000Y-91400000D01*
%TO.C,C27*%
X142900000Y-93950000D02*
X142900000Y-94250000D01*
X142900000Y-94250000D02*
X143500000Y-94250000D01*
X143500000Y-93950000D02*
X142900000Y-93950000D01*
X143500000Y-94250000D02*
X143500000Y-93950000D01*
%TO.C,C23*%
X147050000Y-91200000D02*
X147350000Y-91200000D01*
X147350000Y-91200000D02*
X147350000Y-90600000D01*
X147050000Y-90600000D02*
X147050000Y-91200000D01*
X147350000Y-90600000D02*
X147050000Y-90600000D01*
%TD*%
M02*
