%TF.GenerationSoftware,KiCad,Pcbnew,(7.0.0)*%
%TF.CreationDate,2023-07-18T09:38:25-04:00*%
%TF.ProjectId,headstage-neuropix1e,68656164-7374-4616-9765-2d6e6575726f,A*%
%TF.SameCoordinates,Original*%
%TF.FileFunction,Paste,Top*%
%TF.FilePolarity,Positive*%
%FSLAX46Y46*%
G04 Gerber Fmt 4.6, Leading zero omitted, Abs format (unit mm)*
G04 Created by KiCad (PCBNEW (7.0.0)) date 2023-07-18 09:38:25*
%MOMM*%
%LPD*%
G01*
G04 APERTURE LIST*
G04 Aperture macros list*
%AMRoundRect*
0 Rectangle with rounded corners*
0 $1 Rounding radius*
0 $2 $3 $4 $5 $6 $7 $8 $9 X,Y pos of 4 corners*
0 Add a 4 corners polygon primitive as box body*
4,1,4,$2,$3,$4,$5,$6,$7,$8,$9,$2,$3,0*
0 Add four circle primitives for the rounded corners*
1,1,$1+$1,$2,$3*
1,1,$1+$1,$4,$5*
1,1,$1+$1,$6,$7*
1,1,$1+$1,$8,$9*
0 Add four rect primitives between the rounded corners*
20,1,$1+$1,$2,$3,$4,$5,0*
20,1,$1+$1,$4,$5,$6,$7,0*
20,1,$1+$1,$6,$7,$8,$9,0*
20,1,$1+$1,$8,$9,$2,$3,0*%
%AMRotRect*
0 Rectangle, with rotation*
0 The origin of the aperture is its center*
0 $1 length*
0 $2 width*
0 $3 Rotation angle, in degrees counterclockwise*
0 Add horizontal line*
21,1,$1,$2,0,0,$3*%
%AMFreePoly0*
4,1,6,0.180000,-0.075000,0.180000,-0.105000,-0.220000,-0.105000,-0.220000,0.105000,0.000000,0.105000,0.180000,-0.075000,0.180000,-0.075000,$1*%
%AMFreePoly1*
4,1,6,0.220000,-0.105000,0.000000,-0.105000,-0.180000,0.075000,-0.180000,0.105000,0.220000,0.105000,0.220000,-0.105000,0.220000,-0.105000,$1*%
%AMFreePoly2*
4,1,6,0.220000,-0.105000,-0.180000,-0.105000,-0.180000,-0.075000,0.000000,0.105000,0.220000,0.105000,0.220000,-0.105000,0.220000,-0.105000,$1*%
%AMFreePoly3*
4,1,6,0.180000,0.075000,0.000000,-0.105000,-0.220000,-0.105000,-0.220000,0.105000,0.180000,0.105000,0.180000,0.075000,0.180000,0.075000,$1*%
G04 Aperture macros list end*
%ADD10C,0.250000*%
%ADD11RoundRect,0.079500X-0.079500X-0.100500X0.079500X-0.100500X0.079500X0.100500X-0.079500X0.100500X0*%
%ADD12RoundRect,0.079500X-0.100500X0.079500X-0.100500X-0.079500X0.100500X-0.079500X0.100500X0.079500X0*%
%ADD13RoundRect,0.009000X-0.081000X-0.233500X0.081000X-0.233500X0.081000X0.233500X-0.081000X0.233500X0*%
%ADD14RoundRect,0.011500X-0.103500X-0.256000X0.103500X-0.256000X0.103500X0.256000X-0.103500X0.256000X0*%
%ADD15R,0.500000X0.650000*%
%ADD16R,0.600000X1.500000*%
%ADD17R,0.500000X0.550000*%
%ADD18RoundRect,0.079500X0.100500X-0.079500X0.100500X0.079500X-0.100500X0.079500X-0.100500X-0.079500X0*%
%ADD19RoundRect,0.140000X-0.170000X0.140000X-0.170000X-0.140000X0.170000X-0.140000X0.170000X0.140000X0*%
%ADD20FreePoly0,90.000000*%
%ADD21FreePoly1,90.000000*%
%ADD22FreePoly2,90.000000*%
%ADD23FreePoly3,90.000000*%
%ADD24RotRect,0.450000X0.450000X135.000000*%
%ADD25RoundRect,0.079500X0.079500X0.100500X-0.079500X0.100500X-0.079500X-0.100500X0.079500X-0.100500X0*%
%ADD26R,0.300000X1.250000*%
%ADD27R,0.300000X0.700000*%
%ADD28RoundRect,0.140000X-0.140000X-0.170000X0.140000X-0.170000X0.140000X0.170000X-0.140000X0.170000X0*%
%ADD29RoundRect,0.050000X-0.250000X0.200000X-0.250000X-0.200000X0.250000X-0.200000X0.250000X0.200000X0*%
G04 APERTURE END LIST*
D10*
%TO.C,U3*%
X136740000Y-92500000D03*
X136240000Y-92500000D03*
X136740000Y-92000000D03*
X136240000Y-92000000D03*
X136740000Y-91500000D03*
X136240000Y-91500000D03*
%TD*%
%TO.C,U2*%
X138090000Y-92420000D03*
X137590000Y-92420000D03*
X138090000Y-91920000D03*
X137590000Y-91920000D03*
X138090000Y-91420000D03*
X137590000Y-91420000D03*
%TD*%
D11*
%TO.C,R1*%
X137835000Y-90560000D03*
X138525000Y-90560000D03*
%TD*%
D12*
%TO.C,C18*%
X146350000Y-91855000D03*
X146350000Y-92545000D03*
%TD*%
D13*
%TO.C,J5*%
X139850000Y-89410000D03*
X139850000Y-87590000D03*
X140200000Y-89410000D03*
X140200000Y-87590000D03*
X140550000Y-89410000D03*
X140550000Y-87590000D03*
D14*
X139475000Y-89265000D03*
X139475000Y-87735000D03*
X140925000Y-89265000D03*
X140925000Y-87735000D03*
%TD*%
D15*
%TO.C,J1*%
X143699999Y-89574999D03*
D16*
X142699999Y-88599999D03*
D17*
X143699999Y-87574999D03*
D16*
X144699999Y-88599999D03*
%TD*%
D18*
%TO.C,R15*%
X139430000Y-91135000D03*
X139430000Y-90445000D03*
%TD*%
D12*
%TO.C,R12*%
X141850000Y-90305000D03*
X141850000Y-90995000D03*
%TD*%
D19*
%TO.C,C20*%
X145450000Y-91520000D03*
X145450000Y-92480000D03*
%TD*%
D18*
%TO.C,C9*%
X135400000Y-91190000D03*
X135400000Y-90500000D03*
%TD*%
D10*
%TO.C,U6*%
X140400000Y-91800000D03*
X140400000Y-91400000D03*
X140400000Y-91000000D03*
X140800000Y-91800000D03*
X140800000Y-91400000D03*
X140800000Y-91000000D03*
%TD*%
D20*
%TO.C,U4*%
X143725000Y-92330000D03*
D21*
X143075000Y-91470000D03*
D22*
X143725000Y-91470000D03*
D23*
X143075000Y-92330000D03*
D24*
X143399999Y-91899999D03*
%TD*%
D12*
%TO.C,C22*%
X148750000Y-91805000D03*
X148750000Y-92495000D03*
%TD*%
D18*
%TO.C,R5*%
X135400000Y-92590000D03*
X135400000Y-91900000D03*
%TD*%
D12*
%TO.C,C19*%
X147050000Y-91855000D03*
X147050000Y-92545000D03*
%TD*%
D25*
%TO.C,R11*%
X141145000Y-92600000D03*
X140455000Y-92600000D03*
%TD*%
D18*
%TO.C,C27*%
X139650000Y-92595000D03*
X139650000Y-91905000D03*
%TD*%
D12*
%TO.C,R14*%
X138840000Y-91855000D03*
X138840000Y-92545000D03*
%TD*%
D25*
%TO.C,L4*%
X147255000Y-91000000D03*
X147945000Y-91000000D03*
%TD*%
D12*
%TO.C,C21*%
X148000000Y-91805000D03*
X148000000Y-92495000D03*
%TD*%
D11*
%TO.C,C6*%
X143055000Y-90600000D03*
X143745000Y-90600000D03*
%TD*%
D26*
%TO.C,J2*%
X135999999Y-98024999D03*
D27*
X136299999Y-93599999D03*
D26*
X136599999Y-98024999D03*
D27*
X136899999Y-93599999D03*
D26*
X137199999Y-98024999D03*
D27*
X137499999Y-93599999D03*
D26*
X137799999Y-98024999D03*
D27*
X138099999Y-93599999D03*
D26*
X138399999Y-98024999D03*
D27*
X138699999Y-93599999D03*
D26*
X138999999Y-98024999D03*
D27*
X139299999Y-93599999D03*
D26*
X139599999Y-98024999D03*
D27*
X139899999Y-93599999D03*
D26*
X140199999Y-98024999D03*
D27*
X140499999Y-93599999D03*
D26*
X140799999Y-98024999D03*
D27*
X141099999Y-93599999D03*
D26*
X141399999Y-98024999D03*
D27*
X141699999Y-93599999D03*
D26*
X141999999Y-98024999D03*
D27*
X142299999Y-93599999D03*
D26*
X142599999Y-98024999D03*
D27*
X142899999Y-93599999D03*
D26*
X143199999Y-98024999D03*
D27*
X143499999Y-93599999D03*
D26*
X143799999Y-98024999D03*
D27*
X144099999Y-93599999D03*
D26*
X144399999Y-98024999D03*
D27*
X144699999Y-93599999D03*
D26*
X144999999Y-98024999D03*
D27*
X145299999Y-93599999D03*
D26*
X145599999Y-98024999D03*
D27*
X145899999Y-93599999D03*
D26*
X146199999Y-98024999D03*
D27*
X146499999Y-93599999D03*
D26*
X146799999Y-98024999D03*
D27*
X147099999Y-93599999D03*
D26*
X147399999Y-98024999D03*
D27*
X147699999Y-93599999D03*
D26*
X147999999Y-98024999D03*
D27*
X148299999Y-93599999D03*
D26*
X148599999Y-98024999D03*
D27*
X148899999Y-93599999D03*
D26*
X149199999Y-98024999D03*
%TD*%
D28*
%TO.C,C23*%
X148800000Y-90710000D03*
X149760000Y-90710000D03*
%TD*%
D25*
%TO.C,R10*%
X146345000Y-90600000D03*
X145655000Y-90600000D03*
%TD*%
D12*
%TO.C,R13*%
X141850000Y-91805000D03*
X141850000Y-92495000D03*
%TD*%
D25*
%TO.C,R2*%
X136825000Y-90620000D03*
X136135000Y-90620000D03*
%TD*%
D29*
%TO.C,D1*%
X149600000Y-91700000D03*
X149600000Y-92600000D03*
%TD*%
M02*
