%TF.GenerationSoftware,KiCad,Pcbnew,(7.0.0)*%
%TF.CreationDate,2023-07-18T09:38:26-04:00*%
%TF.ProjectId,headstage-neuropix1e,68656164-7374-4616-9765-2d6e6575726f,A*%
%TF.SameCoordinates,Original*%
%TF.FileFunction,AssemblyDrawing,Top*%
%FSLAX46Y46*%
G04 Gerber Fmt 4.6, Leading zero omitted, Abs format (unit mm)*
G04 Created by KiCad (PCBNEW (7.0.0)) date 2023-07-18 09:38:26*
%MOMM*%
%LPD*%
G01*
G04 APERTURE LIST*
%ADD10C,0.040000*%
%ADD11C,0.150000*%
%ADD12C,0.100000*%
G04 APERTURE END LIST*
D10*
%TO.C,U3*%
X136680476Y-92158154D02*
X136680476Y-91955773D01*
X136680476Y-91955773D02*
X136668571Y-91931964D01*
X136668571Y-91931964D02*
X136656666Y-91920059D01*
X136656666Y-91920059D02*
X136632857Y-91908154D01*
X136632857Y-91908154D02*
X136585238Y-91908154D01*
X136585238Y-91908154D02*
X136561428Y-91920059D01*
X136561428Y-91920059D02*
X136549523Y-91931964D01*
X136549523Y-91931964D02*
X136537619Y-91955773D01*
X136537619Y-91955773D02*
X136537619Y-92158154D01*
X136442380Y-92158154D02*
X136287618Y-92158154D01*
X136287618Y-92158154D02*
X136370952Y-92062916D01*
X136370952Y-92062916D02*
X136335237Y-92062916D01*
X136335237Y-92062916D02*
X136311428Y-92051011D01*
X136311428Y-92051011D02*
X136299523Y-92039107D01*
X136299523Y-92039107D02*
X136287618Y-92015297D01*
X136287618Y-92015297D02*
X136287618Y-91955773D01*
X136287618Y-91955773D02*
X136299523Y-91931964D01*
X136299523Y-91931964D02*
X136311428Y-91920059D01*
X136311428Y-91920059D02*
X136335237Y-91908154D01*
X136335237Y-91908154D02*
X136406666Y-91908154D01*
X136406666Y-91908154D02*
X136430475Y-91920059D01*
X136430475Y-91920059D02*
X136442380Y-91931964D01*
%TO.C,U2*%
X138030476Y-92078154D02*
X138030476Y-91875773D01*
X138030476Y-91875773D02*
X138018571Y-91851964D01*
X138018571Y-91851964D02*
X138006666Y-91840059D01*
X138006666Y-91840059D02*
X137982857Y-91828154D01*
X137982857Y-91828154D02*
X137935238Y-91828154D01*
X137935238Y-91828154D02*
X137911428Y-91840059D01*
X137911428Y-91840059D02*
X137899523Y-91851964D01*
X137899523Y-91851964D02*
X137887619Y-91875773D01*
X137887619Y-91875773D02*
X137887619Y-92078154D01*
X137780475Y-92054345D02*
X137768571Y-92066250D01*
X137768571Y-92066250D02*
X137744761Y-92078154D01*
X137744761Y-92078154D02*
X137685237Y-92078154D01*
X137685237Y-92078154D02*
X137661428Y-92066250D01*
X137661428Y-92066250D02*
X137649523Y-92054345D01*
X137649523Y-92054345D02*
X137637618Y-92030535D01*
X137637618Y-92030535D02*
X137637618Y-92006726D01*
X137637618Y-92006726D02*
X137649523Y-91971011D01*
X137649523Y-91971011D02*
X137792380Y-91828154D01*
X137792380Y-91828154D02*
X137637618Y-91828154D01*
D11*
%TO.C,J4*%
X116956666Y-95267380D02*
X116956666Y-95981666D01*
X116956666Y-95981666D02*
X116909047Y-96124523D01*
X116909047Y-96124523D02*
X116813809Y-96219761D01*
X116813809Y-96219761D02*
X116670952Y-96267380D01*
X116670952Y-96267380D02*
X116575714Y-96267380D01*
X117861428Y-95600714D02*
X117861428Y-96267380D01*
X117623333Y-95219761D02*
X117385238Y-95934047D01*
X117385238Y-95934047D02*
X118004285Y-95934047D01*
D10*
%TO.C,R1*%
X138138333Y-90251845D02*
X138055000Y-90132797D01*
X137995476Y-90251845D02*
X137995476Y-90001845D01*
X137995476Y-90001845D02*
X138090714Y-90001845D01*
X138090714Y-90001845D02*
X138114524Y-90013750D01*
X138114524Y-90013750D02*
X138126429Y-90025654D01*
X138126429Y-90025654D02*
X138138333Y-90049464D01*
X138138333Y-90049464D02*
X138138333Y-90085178D01*
X138138333Y-90085178D02*
X138126429Y-90108988D01*
X138126429Y-90108988D02*
X138114524Y-90120892D01*
X138114524Y-90120892D02*
X138090714Y-90132797D01*
X138090714Y-90132797D02*
X137995476Y-90132797D01*
X138376429Y-90251845D02*
X138233572Y-90251845D01*
X138305000Y-90251845D02*
X138305000Y-90001845D01*
X138305000Y-90001845D02*
X138281191Y-90037559D01*
X138281191Y-90037559D02*
X138257381Y-90061369D01*
X138257381Y-90061369D02*
X138233572Y-90073273D01*
%TO.C,C18*%
X146468035Y-93160714D02*
X146479940Y-93172618D01*
X146479940Y-93172618D02*
X146491845Y-93208333D01*
X146491845Y-93208333D02*
X146491845Y-93232142D01*
X146491845Y-93232142D02*
X146479940Y-93267856D01*
X146479940Y-93267856D02*
X146456130Y-93291666D01*
X146456130Y-93291666D02*
X146432321Y-93303571D01*
X146432321Y-93303571D02*
X146384702Y-93315475D01*
X146384702Y-93315475D02*
X146348988Y-93315475D01*
X146348988Y-93315475D02*
X146301369Y-93303571D01*
X146301369Y-93303571D02*
X146277559Y-93291666D01*
X146277559Y-93291666D02*
X146253750Y-93267856D01*
X146253750Y-93267856D02*
X146241845Y-93232142D01*
X146241845Y-93232142D02*
X146241845Y-93208333D01*
X146241845Y-93208333D02*
X146253750Y-93172618D01*
X146253750Y-93172618D02*
X146265654Y-93160714D01*
X146491845Y-92922618D02*
X146491845Y-93065475D01*
X146491845Y-92994047D02*
X146241845Y-92994047D01*
X146241845Y-92994047D02*
X146277559Y-93017856D01*
X146277559Y-93017856D02*
X146301369Y-93041666D01*
X146301369Y-93041666D02*
X146313273Y-93065475D01*
X146348988Y-92779761D02*
X146337083Y-92803571D01*
X146337083Y-92803571D02*
X146325178Y-92815476D01*
X146325178Y-92815476D02*
X146301369Y-92827380D01*
X146301369Y-92827380D02*
X146289464Y-92827380D01*
X146289464Y-92827380D02*
X146265654Y-92815476D01*
X146265654Y-92815476D02*
X146253750Y-92803571D01*
X146253750Y-92803571D02*
X146241845Y-92779761D01*
X146241845Y-92779761D02*
X146241845Y-92732142D01*
X146241845Y-92732142D02*
X146253750Y-92708333D01*
X146253750Y-92708333D02*
X146265654Y-92696428D01*
X146265654Y-92696428D02*
X146289464Y-92684523D01*
X146289464Y-92684523D02*
X146301369Y-92684523D01*
X146301369Y-92684523D02*
X146325178Y-92696428D01*
X146325178Y-92696428D02*
X146337083Y-92708333D01*
X146337083Y-92708333D02*
X146348988Y-92732142D01*
X146348988Y-92732142D02*
X146348988Y-92779761D01*
X146348988Y-92779761D02*
X146360892Y-92803571D01*
X146360892Y-92803571D02*
X146372797Y-92815476D01*
X146372797Y-92815476D02*
X146396607Y-92827380D01*
X146396607Y-92827380D02*
X146444226Y-92827380D01*
X146444226Y-92827380D02*
X146468035Y-92815476D01*
X146468035Y-92815476D02*
X146479940Y-92803571D01*
X146479940Y-92803571D02*
X146491845Y-92779761D01*
X146491845Y-92779761D02*
X146491845Y-92732142D01*
X146491845Y-92732142D02*
X146479940Y-92708333D01*
X146479940Y-92708333D02*
X146468035Y-92696428D01*
X146468035Y-92696428D02*
X146444226Y-92684523D01*
X146444226Y-92684523D02*
X146396607Y-92684523D01*
X146396607Y-92684523D02*
X146372797Y-92696428D01*
X146372797Y-92696428D02*
X146360892Y-92708333D01*
X146360892Y-92708333D02*
X146348988Y-92732142D01*
%TO.C,J5*%
X140111667Y-88341845D02*
X140111667Y-88520416D01*
X140111667Y-88520416D02*
X140099762Y-88556130D01*
X140099762Y-88556130D02*
X140075953Y-88579940D01*
X140075953Y-88579940D02*
X140040238Y-88591845D01*
X140040238Y-88591845D02*
X140016429Y-88591845D01*
X140349762Y-88341845D02*
X140230714Y-88341845D01*
X140230714Y-88341845D02*
X140218810Y-88460892D01*
X140218810Y-88460892D02*
X140230714Y-88448988D01*
X140230714Y-88448988D02*
X140254524Y-88437083D01*
X140254524Y-88437083D02*
X140314048Y-88437083D01*
X140314048Y-88437083D02*
X140337857Y-88448988D01*
X140337857Y-88448988D02*
X140349762Y-88460892D01*
X140349762Y-88460892D02*
X140361667Y-88484702D01*
X140361667Y-88484702D02*
X140361667Y-88544226D01*
X140361667Y-88544226D02*
X140349762Y-88568035D01*
X140349762Y-88568035D02*
X140337857Y-88579940D01*
X140337857Y-88579940D02*
X140314048Y-88591845D01*
X140314048Y-88591845D02*
X140254524Y-88591845D01*
X140254524Y-88591845D02*
X140230714Y-88579940D01*
X140230714Y-88579940D02*
X140218810Y-88568035D01*
%TO.C,J1*%
X143611667Y-88441845D02*
X143611667Y-88620416D01*
X143611667Y-88620416D02*
X143599762Y-88656130D01*
X143599762Y-88656130D02*
X143575953Y-88679940D01*
X143575953Y-88679940D02*
X143540238Y-88691845D01*
X143540238Y-88691845D02*
X143516429Y-88691845D01*
X143861667Y-88691845D02*
X143718810Y-88691845D01*
X143790238Y-88691845D02*
X143790238Y-88441845D01*
X143790238Y-88441845D02*
X143766429Y-88477559D01*
X143766429Y-88477559D02*
X143742619Y-88501369D01*
X143742619Y-88501369D02*
X143718810Y-88513273D01*
%TO.C,R15*%
X139121845Y-90950714D02*
X139002797Y-91034047D01*
X139121845Y-91093571D02*
X138871845Y-91093571D01*
X138871845Y-91093571D02*
X138871845Y-90998333D01*
X138871845Y-90998333D02*
X138883750Y-90974523D01*
X138883750Y-90974523D02*
X138895654Y-90962618D01*
X138895654Y-90962618D02*
X138919464Y-90950714D01*
X138919464Y-90950714D02*
X138955178Y-90950714D01*
X138955178Y-90950714D02*
X138978988Y-90962618D01*
X138978988Y-90962618D02*
X138990892Y-90974523D01*
X138990892Y-90974523D02*
X139002797Y-90998333D01*
X139002797Y-90998333D02*
X139002797Y-91093571D01*
X139121845Y-90712618D02*
X139121845Y-90855475D01*
X139121845Y-90784047D02*
X138871845Y-90784047D01*
X138871845Y-90784047D02*
X138907559Y-90807856D01*
X138907559Y-90807856D02*
X138931369Y-90831666D01*
X138931369Y-90831666D02*
X138943273Y-90855475D01*
X138871845Y-90486428D02*
X138871845Y-90605476D01*
X138871845Y-90605476D02*
X138990892Y-90617380D01*
X138990892Y-90617380D02*
X138978988Y-90605476D01*
X138978988Y-90605476D02*
X138967083Y-90581666D01*
X138967083Y-90581666D02*
X138967083Y-90522142D01*
X138967083Y-90522142D02*
X138978988Y-90498333D01*
X138978988Y-90498333D02*
X138990892Y-90486428D01*
X138990892Y-90486428D02*
X139014702Y-90474523D01*
X139014702Y-90474523D02*
X139074226Y-90474523D01*
X139074226Y-90474523D02*
X139098035Y-90486428D01*
X139098035Y-90486428D02*
X139109940Y-90498333D01*
X139109940Y-90498333D02*
X139121845Y-90522142D01*
X139121845Y-90522142D02*
X139121845Y-90581666D01*
X139121845Y-90581666D02*
X139109940Y-90605476D01*
X139109940Y-90605476D02*
X139098035Y-90617380D01*
%TO.C,R12*%
X142391845Y-90810714D02*
X142272797Y-90894047D01*
X142391845Y-90953571D02*
X142141845Y-90953571D01*
X142141845Y-90953571D02*
X142141845Y-90858333D01*
X142141845Y-90858333D02*
X142153750Y-90834523D01*
X142153750Y-90834523D02*
X142165654Y-90822618D01*
X142165654Y-90822618D02*
X142189464Y-90810714D01*
X142189464Y-90810714D02*
X142225178Y-90810714D01*
X142225178Y-90810714D02*
X142248988Y-90822618D01*
X142248988Y-90822618D02*
X142260892Y-90834523D01*
X142260892Y-90834523D02*
X142272797Y-90858333D01*
X142272797Y-90858333D02*
X142272797Y-90953571D01*
X142391845Y-90572618D02*
X142391845Y-90715475D01*
X142391845Y-90644047D02*
X142141845Y-90644047D01*
X142141845Y-90644047D02*
X142177559Y-90667856D01*
X142177559Y-90667856D02*
X142201369Y-90691666D01*
X142201369Y-90691666D02*
X142213273Y-90715475D01*
X142165654Y-90477380D02*
X142153750Y-90465476D01*
X142153750Y-90465476D02*
X142141845Y-90441666D01*
X142141845Y-90441666D02*
X142141845Y-90382142D01*
X142141845Y-90382142D02*
X142153750Y-90358333D01*
X142153750Y-90358333D02*
X142165654Y-90346428D01*
X142165654Y-90346428D02*
X142189464Y-90334523D01*
X142189464Y-90334523D02*
X142213273Y-90334523D01*
X142213273Y-90334523D02*
X142248988Y-90346428D01*
X142248988Y-90346428D02*
X142391845Y-90489285D01*
X142391845Y-90489285D02*
X142391845Y-90334523D01*
%TO.C,C20*%
X145568035Y-92160714D02*
X145579940Y-92172618D01*
X145579940Y-92172618D02*
X145591845Y-92208333D01*
X145591845Y-92208333D02*
X145591845Y-92232142D01*
X145591845Y-92232142D02*
X145579940Y-92267856D01*
X145579940Y-92267856D02*
X145556130Y-92291666D01*
X145556130Y-92291666D02*
X145532321Y-92303571D01*
X145532321Y-92303571D02*
X145484702Y-92315475D01*
X145484702Y-92315475D02*
X145448988Y-92315475D01*
X145448988Y-92315475D02*
X145401369Y-92303571D01*
X145401369Y-92303571D02*
X145377559Y-92291666D01*
X145377559Y-92291666D02*
X145353750Y-92267856D01*
X145353750Y-92267856D02*
X145341845Y-92232142D01*
X145341845Y-92232142D02*
X145341845Y-92208333D01*
X145341845Y-92208333D02*
X145353750Y-92172618D01*
X145353750Y-92172618D02*
X145365654Y-92160714D01*
X145365654Y-92065475D02*
X145353750Y-92053571D01*
X145353750Y-92053571D02*
X145341845Y-92029761D01*
X145341845Y-92029761D02*
X145341845Y-91970237D01*
X145341845Y-91970237D02*
X145353750Y-91946428D01*
X145353750Y-91946428D02*
X145365654Y-91934523D01*
X145365654Y-91934523D02*
X145389464Y-91922618D01*
X145389464Y-91922618D02*
X145413273Y-91922618D01*
X145413273Y-91922618D02*
X145448988Y-91934523D01*
X145448988Y-91934523D02*
X145591845Y-92077380D01*
X145591845Y-92077380D02*
X145591845Y-91922618D01*
X145341845Y-91767857D02*
X145341845Y-91744047D01*
X145341845Y-91744047D02*
X145353750Y-91720238D01*
X145353750Y-91720238D02*
X145365654Y-91708333D01*
X145365654Y-91708333D02*
X145389464Y-91696428D01*
X145389464Y-91696428D02*
X145437083Y-91684523D01*
X145437083Y-91684523D02*
X145496607Y-91684523D01*
X145496607Y-91684523D02*
X145544226Y-91696428D01*
X145544226Y-91696428D02*
X145568035Y-91708333D01*
X145568035Y-91708333D02*
X145579940Y-91720238D01*
X145579940Y-91720238D02*
X145591845Y-91744047D01*
X145591845Y-91744047D02*
X145591845Y-91767857D01*
X145591845Y-91767857D02*
X145579940Y-91791666D01*
X145579940Y-91791666D02*
X145568035Y-91803571D01*
X145568035Y-91803571D02*
X145544226Y-91815476D01*
X145544226Y-91815476D02*
X145496607Y-91827380D01*
X145496607Y-91827380D02*
X145437083Y-91827380D01*
X145437083Y-91827380D02*
X145389464Y-91815476D01*
X145389464Y-91815476D02*
X145365654Y-91803571D01*
X145365654Y-91803571D02*
X145353750Y-91791666D01*
X145353750Y-91791666D02*
X145341845Y-91767857D01*
%TO.C,C9*%
X135068035Y-90886666D02*
X135079940Y-90898570D01*
X135079940Y-90898570D02*
X135091845Y-90934285D01*
X135091845Y-90934285D02*
X135091845Y-90958094D01*
X135091845Y-90958094D02*
X135079940Y-90993808D01*
X135079940Y-90993808D02*
X135056130Y-91017618D01*
X135056130Y-91017618D02*
X135032321Y-91029523D01*
X135032321Y-91029523D02*
X134984702Y-91041427D01*
X134984702Y-91041427D02*
X134948988Y-91041427D01*
X134948988Y-91041427D02*
X134901369Y-91029523D01*
X134901369Y-91029523D02*
X134877559Y-91017618D01*
X134877559Y-91017618D02*
X134853750Y-90993808D01*
X134853750Y-90993808D02*
X134841845Y-90958094D01*
X134841845Y-90958094D02*
X134841845Y-90934285D01*
X134841845Y-90934285D02*
X134853750Y-90898570D01*
X134853750Y-90898570D02*
X134865654Y-90886666D01*
X135091845Y-90767618D02*
X135091845Y-90719999D01*
X135091845Y-90719999D02*
X135079940Y-90696189D01*
X135079940Y-90696189D02*
X135068035Y-90684285D01*
X135068035Y-90684285D02*
X135032321Y-90660475D01*
X135032321Y-90660475D02*
X134984702Y-90648570D01*
X134984702Y-90648570D02*
X134889464Y-90648570D01*
X134889464Y-90648570D02*
X134865654Y-90660475D01*
X134865654Y-90660475D02*
X134853750Y-90672380D01*
X134853750Y-90672380D02*
X134841845Y-90696189D01*
X134841845Y-90696189D02*
X134841845Y-90743808D01*
X134841845Y-90743808D02*
X134853750Y-90767618D01*
X134853750Y-90767618D02*
X134865654Y-90779523D01*
X134865654Y-90779523D02*
X134889464Y-90791427D01*
X134889464Y-90791427D02*
X134948988Y-90791427D01*
X134948988Y-90791427D02*
X134972797Y-90779523D01*
X134972797Y-90779523D02*
X134984702Y-90767618D01*
X134984702Y-90767618D02*
X134996607Y-90743808D01*
X134996607Y-90743808D02*
X134996607Y-90696189D01*
X134996607Y-90696189D02*
X134984702Y-90672380D01*
X134984702Y-90672380D02*
X134972797Y-90660475D01*
X134972797Y-90660475D02*
X134948988Y-90648570D01*
%TO.C,U6*%
X140409523Y-91241845D02*
X140409523Y-91444226D01*
X140409523Y-91444226D02*
X140421428Y-91468035D01*
X140421428Y-91468035D02*
X140433333Y-91479940D01*
X140433333Y-91479940D02*
X140457142Y-91491845D01*
X140457142Y-91491845D02*
X140504761Y-91491845D01*
X140504761Y-91491845D02*
X140528571Y-91479940D01*
X140528571Y-91479940D02*
X140540476Y-91468035D01*
X140540476Y-91468035D02*
X140552380Y-91444226D01*
X140552380Y-91444226D02*
X140552380Y-91241845D01*
X140778571Y-91241845D02*
X140730952Y-91241845D01*
X140730952Y-91241845D02*
X140707143Y-91253750D01*
X140707143Y-91253750D02*
X140695238Y-91265654D01*
X140695238Y-91265654D02*
X140671428Y-91301369D01*
X140671428Y-91301369D02*
X140659524Y-91348988D01*
X140659524Y-91348988D02*
X140659524Y-91444226D01*
X140659524Y-91444226D02*
X140671428Y-91468035D01*
X140671428Y-91468035D02*
X140683333Y-91479940D01*
X140683333Y-91479940D02*
X140707143Y-91491845D01*
X140707143Y-91491845D02*
X140754762Y-91491845D01*
X140754762Y-91491845D02*
X140778571Y-91479940D01*
X140778571Y-91479940D02*
X140790476Y-91468035D01*
X140790476Y-91468035D02*
X140802381Y-91444226D01*
X140802381Y-91444226D02*
X140802381Y-91384702D01*
X140802381Y-91384702D02*
X140790476Y-91360892D01*
X140790476Y-91360892D02*
X140778571Y-91348988D01*
X140778571Y-91348988D02*
X140754762Y-91337083D01*
X140754762Y-91337083D02*
X140707143Y-91337083D01*
X140707143Y-91337083D02*
X140683333Y-91348988D01*
X140683333Y-91348988D02*
X140671428Y-91360892D01*
X140671428Y-91360892D02*
X140659524Y-91384702D01*
%TO.C,U4*%
X143247619Y-91773476D02*
X143247619Y-91935380D01*
X143247619Y-91935380D02*
X143257142Y-91954428D01*
X143257142Y-91954428D02*
X143266666Y-91963952D01*
X143266666Y-91963952D02*
X143285714Y-91973476D01*
X143285714Y-91973476D02*
X143323809Y-91973476D01*
X143323809Y-91973476D02*
X143342857Y-91963952D01*
X143342857Y-91963952D02*
X143352380Y-91954428D01*
X143352380Y-91954428D02*
X143361904Y-91935380D01*
X143361904Y-91935380D02*
X143361904Y-91773476D01*
X143542857Y-91840142D02*
X143542857Y-91973476D01*
X143495238Y-91763952D02*
X143447619Y-91906809D01*
X143447619Y-91906809D02*
X143571428Y-91906809D01*
%TO.C,C22*%
X148868035Y-93060714D02*
X148879940Y-93072618D01*
X148879940Y-93072618D02*
X148891845Y-93108333D01*
X148891845Y-93108333D02*
X148891845Y-93132142D01*
X148891845Y-93132142D02*
X148879940Y-93167856D01*
X148879940Y-93167856D02*
X148856130Y-93191666D01*
X148856130Y-93191666D02*
X148832321Y-93203571D01*
X148832321Y-93203571D02*
X148784702Y-93215475D01*
X148784702Y-93215475D02*
X148748988Y-93215475D01*
X148748988Y-93215475D02*
X148701369Y-93203571D01*
X148701369Y-93203571D02*
X148677559Y-93191666D01*
X148677559Y-93191666D02*
X148653750Y-93167856D01*
X148653750Y-93167856D02*
X148641845Y-93132142D01*
X148641845Y-93132142D02*
X148641845Y-93108333D01*
X148641845Y-93108333D02*
X148653750Y-93072618D01*
X148653750Y-93072618D02*
X148665654Y-93060714D01*
X148665654Y-92965475D02*
X148653750Y-92953571D01*
X148653750Y-92953571D02*
X148641845Y-92929761D01*
X148641845Y-92929761D02*
X148641845Y-92870237D01*
X148641845Y-92870237D02*
X148653750Y-92846428D01*
X148653750Y-92846428D02*
X148665654Y-92834523D01*
X148665654Y-92834523D02*
X148689464Y-92822618D01*
X148689464Y-92822618D02*
X148713273Y-92822618D01*
X148713273Y-92822618D02*
X148748988Y-92834523D01*
X148748988Y-92834523D02*
X148891845Y-92977380D01*
X148891845Y-92977380D02*
X148891845Y-92822618D01*
X148665654Y-92727380D02*
X148653750Y-92715476D01*
X148653750Y-92715476D02*
X148641845Y-92691666D01*
X148641845Y-92691666D02*
X148641845Y-92632142D01*
X148641845Y-92632142D02*
X148653750Y-92608333D01*
X148653750Y-92608333D02*
X148665654Y-92596428D01*
X148665654Y-92596428D02*
X148689464Y-92584523D01*
X148689464Y-92584523D02*
X148713273Y-92584523D01*
X148713273Y-92584523D02*
X148748988Y-92596428D01*
X148748988Y-92596428D02*
X148891845Y-92739285D01*
X148891845Y-92739285D02*
X148891845Y-92584523D01*
%TO.C,R5*%
X135091845Y-92286666D02*
X134972797Y-92369999D01*
X135091845Y-92429523D02*
X134841845Y-92429523D01*
X134841845Y-92429523D02*
X134841845Y-92334285D01*
X134841845Y-92334285D02*
X134853750Y-92310475D01*
X134853750Y-92310475D02*
X134865654Y-92298570D01*
X134865654Y-92298570D02*
X134889464Y-92286666D01*
X134889464Y-92286666D02*
X134925178Y-92286666D01*
X134925178Y-92286666D02*
X134948988Y-92298570D01*
X134948988Y-92298570D02*
X134960892Y-92310475D01*
X134960892Y-92310475D02*
X134972797Y-92334285D01*
X134972797Y-92334285D02*
X134972797Y-92429523D01*
X134841845Y-92060475D02*
X134841845Y-92179523D01*
X134841845Y-92179523D02*
X134960892Y-92191427D01*
X134960892Y-92191427D02*
X134948988Y-92179523D01*
X134948988Y-92179523D02*
X134937083Y-92155713D01*
X134937083Y-92155713D02*
X134937083Y-92096189D01*
X134937083Y-92096189D02*
X134948988Y-92072380D01*
X134948988Y-92072380D02*
X134960892Y-92060475D01*
X134960892Y-92060475D02*
X134984702Y-92048570D01*
X134984702Y-92048570D02*
X135044226Y-92048570D01*
X135044226Y-92048570D02*
X135068035Y-92060475D01*
X135068035Y-92060475D02*
X135079940Y-92072380D01*
X135079940Y-92072380D02*
X135091845Y-92096189D01*
X135091845Y-92096189D02*
X135091845Y-92155713D01*
X135091845Y-92155713D02*
X135079940Y-92179523D01*
X135079940Y-92179523D02*
X135068035Y-92191427D01*
%TO.C,C19*%
X147168035Y-93160714D02*
X147179940Y-93172618D01*
X147179940Y-93172618D02*
X147191845Y-93208333D01*
X147191845Y-93208333D02*
X147191845Y-93232142D01*
X147191845Y-93232142D02*
X147179940Y-93267856D01*
X147179940Y-93267856D02*
X147156130Y-93291666D01*
X147156130Y-93291666D02*
X147132321Y-93303571D01*
X147132321Y-93303571D02*
X147084702Y-93315475D01*
X147084702Y-93315475D02*
X147048988Y-93315475D01*
X147048988Y-93315475D02*
X147001369Y-93303571D01*
X147001369Y-93303571D02*
X146977559Y-93291666D01*
X146977559Y-93291666D02*
X146953750Y-93267856D01*
X146953750Y-93267856D02*
X146941845Y-93232142D01*
X146941845Y-93232142D02*
X146941845Y-93208333D01*
X146941845Y-93208333D02*
X146953750Y-93172618D01*
X146953750Y-93172618D02*
X146965654Y-93160714D01*
X147191845Y-92922618D02*
X147191845Y-93065475D01*
X147191845Y-92994047D02*
X146941845Y-92994047D01*
X146941845Y-92994047D02*
X146977559Y-93017856D01*
X146977559Y-93017856D02*
X147001369Y-93041666D01*
X147001369Y-93041666D02*
X147013273Y-93065475D01*
X147191845Y-92803571D02*
X147191845Y-92755952D01*
X147191845Y-92755952D02*
X147179940Y-92732142D01*
X147179940Y-92732142D02*
X147168035Y-92720238D01*
X147168035Y-92720238D02*
X147132321Y-92696428D01*
X147132321Y-92696428D02*
X147084702Y-92684523D01*
X147084702Y-92684523D02*
X146989464Y-92684523D01*
X146989464Y-92684523D02*
X146965654Y-92696428D01*
X146965654Y-92696428D02*
X146953750Y-92708333D01*
X146953750Y-92708333D02*
X146941845Y-92732142D01*
X146941845Y-92732142D02*
X146941845Y-92779761D01*
X146941845Y-92779761D02*
X146953750Y-92803571D01*
X146953750Y-92803571D02*
X146965654Y-92815476D01*
X146965654Y-92815476D02*
X146989464Y-92827380D01*
X146989464Y-92827380D02*
X147048988Y-92827380D01*
X147048988Y-92827380D02*
X147072797Y-92815476D01*
X147072797Y-92815476D02*
X147084702Y-92803571D01*
X147084702Y-92803571D02*
X147096607Y-92779761D01*
X147096607Y-92779761D02*
X147096607Y-92732142D01*
X147096607Y-92732142D02*
X147084702Y-92708333D01*
X147084702Y-92708333D02*
X147072797Y-92696428D01*
X147072797Y-92696428D02*
X147048988Y-92684523D01*
%TO.C,R11*%
X140639285Y-93191845D02*
X140555952Y-93072797D01*
X140496428Y-93191845D02*
X140496428Y-92941845D01*
X140496428Y-92941845D02*
X140591666Y-92941845D01*
X140591666Y-92941845D02*
X140615476Y-92953750D01*
X140615476Y-92953750D02*
X140627381Y-92965654D01*
X140627381Y-92965654D02*
X140639285Y-92989464D01*
X140639285Y-92989464D02*
X140639285Y-93025178D01*
X140639285Y-93025178D02*
X140627381Y-93048988D01*
X140627381Y-93048988D02*
X140615476Y-93060892D01*
X140615476Y-93060892D02*
X140591666Y-93072797D01*
X140591666Y-93072797D02*
X140496428Y-93072797D01*
X140877381Y-93191845D02*
X140734524Y-93191845D01*
X140805952Y-93191845D02*
X140805952Y-92941845D01*
X140805952Y-92941845D02*
X140782143Y-92977559D01*
X140782143Y-92977559D02*
X140758333Y-93001369D01*
X140758333Y-93001369D02*
X140734524Y-93013273D01*
X141115476Y-93191845D02*
X140972619Y-93191845D01*
X141044047Y-93191845D02*
X141044047Y-92941845D01*
X141044047Y-92941845D02*
X141020238Y-92977559D01*
X141020238Y-92977559D02*
X140996428Y-93001369D01*
X140996428Y-93001369D02*
X140972619Y-93013273D01*
%TO.C,C27*%
X139768035Y-93160714D02*
X139779940Y-93172618D01*
X139779940Y-93172618D02*
X139791845Y-93208333D01*
X139791845Y-93208333D02*
X139791845Y-93232142D01*
X139791845Y-93232142D02*
X139779940Y-93267856D01*
X139779940Y-93267856D02*
X139756130Y-93291666D01*
X139756130Y-93291666D02*
X139732321Y-93303571D01*
X139732321Y-93303571D02*
X139684702Y-93315475D01*
X139684702Y-93315475D02*
X139648988Y-93315475D01*
X139648988Y-93315475D02*
X139601369Y-93303571D01*
X139601369Y-93303571D02*
X139577559Y-93291666D01*
X139577559Y-93291666D02*
X139553750Y-93267856D01*
X139553750Y-93267856D02*
X139541845Y-93232142D01*
X139541845Y-93232142D02*
X139541845Y-93208333D01*
X139541845Y-93208333D02*
X139553750Y-93172618D01*
X139553750Y-93172618D02*
X139565654Y-93160714D01*
X139565654Y-93065475D02*
X139553750Y-93053571D01*
X139553750Y-93053571D02*
X139541845Y-93029761D01*
X139541845Y-93029761D02*
X139541845Y-92970237D01*
X139541845Y-92970237D02*
X139553750Y-92946428D01*
X139553750Y-92946428D02*
X139565654Y-92934523D01*
X139565654Y-92934523D02*
X139589464Y-92922618D01*
X139589464Y-92922618D02*
X139613273Y-92922618D01*
X139613273Y-92922618D02*
X139648988Y-92934523D01*
X139648988Y-92934523D02*
X139791845Y-93077380D01*
X139791845Y-93077380D02*
X139791845Y-92922618D01*
X139541845Y-92839285D02*
X139541845Y-92672619D01*
X139541845Y-92672619D02*
X139791845Y-92779761D01*
%TO.C,R14*%
X138931845Y-93160714D02*
X138812797Y-93244047D01*
X138931845Y-93303571D02*
X138681845Y-93303571D01*
X138681845Y-93303571D02*
X138681845Y-93208333D01*
X138681845Y-93208333D02*
X138693750Y-93184523D01*
X138693750Y-93184523D02*
X138705654Y-93172618D01*
X138705654Y-93172618D02*
X138729464Y-93160714D01*
X138729464Y-93160714D02*
X138765178Y-93160714D01*
X138765178Y-93160714D02*
X138788988Y-93172618D01*
X138788988Y-93172618D02*
X138800892Y-93184523D01*
X138800892Y-93184523D02*
X138812797Y-93208333D01*
X138812797Y-93208333D02*
X138812797Y-93303571D01*
X138931845Y-92922618D02*
X138931845Y-93065475D01*
X138931845Y-92994047D02*
X138681845Y-92994047D01*
X138681845Y-92994047D02*
X138717559Y-93017856D01*
X138717559Y-93017856D02*
X138741369Y-93041666D01*
X138741369Y-93041666D02*
X138753273Y-93065475D01*
X138765178Y-92708333D02*
X138931845Y-92708333D01*
X138669940Y-92767857D02*
X138848511Y-92827380D01*
X138848511Y-92827380D02*
X138848511Y-92672619D01*
%TO.C,L4*%
X147558333Y-91491845D02*
X147439285Y-91491845D01*
X147439285Y-91491845D02*
X147439285Y-91241845D01*
X147748809Y-91325178D02*
X147748809Y-91491845D01*
X147689285Y-91229940D02*
X147629762Y-91408511D01*
X147629762Y-91408511D02*
X147784523Y-91408511D01*
%TO.C,C21*%
X148068035Y-93060714D02*
X148079940Y-93072618D01*
X148079940Y-93072618D02*
X148091845Y-93108333D01*
X148091845Y-93108333D02*
X148091845Y-93132142D01*
X148091845Y-93132142D02*
X148079940Y-93167856D01*
X148079940Y-93167856D02*
X148056130Y-93191666D01*
X148056130Y-93191666D02*
X148032321Y-93203571D01*
X148032321Y-93203571D02*
X147984702Y-93215475D01*
X147984702Y-93215475D02*
X147948988Y-93215475D01*
X147948988Y-93215475D02*
X147901369Y-93203571D01*
X147901369Y-93203571D02*
X147877559Y-93191666D01*
X147877559Y-93191666D02*
X147853750Y-93167856D01*
X147853750Y-93167856D02*
X147841845Y-93132142D01*
X147841845Y-93132142D02*
X147841845Y-93108333D01*
X147841845Y-93108333D02*
X147853750Y-93072618D01*
X147853750Y-93072618D02*
X147865654Y-93060714D01*
X147865654Y-92965475D02*
X147853750Y-92953571D01*
X147853750Y-92953571D02*
X147841845Y-92929761D01*
X147841845Y-92929761D02*
X147841845Y-92870237D01*
X147841845Y-92870237D02*
X147853750Y-92846428D01*
X147853750Y-92846428D02*
X147865654Y-92834523D01*
X147865654Y-92834523D02*
X147889464Y-92822618D01*
X147889464Y-92822618D02*
X147913273Y-92822618D01*
X147913273Y-92822618D02*
X147948988Y-92834523D01*
X147948988Y-92834523D02*
X148091845Y-92977380D01*
X148091845Y-92977380D02*
X148091845Y-92822618D01*
X148091845Y-92584523D02*
X148091845Y-92727380D01*
X148091845Y-92655952D02*
X147841845Y-92655952D01*
X147841845Y-92655952D02*
X147877559Y-92679761D01*
X147877559Y-92679761D02*
X147901369Y-92703571D01*
X147901369Y-92703571D02*
X147913273Y-92727380D01*
%TO.C,C6*%
X143358333Y-91068035D02*
X143346429Y-91079940D01*
X143346429Y-91079940D02*
X143310714Y-91091845D01*
X143310714Y-91091845D02*
X143286905Y-91091845D01*
X143286905Y-91091845D02*
X143251191Y-91079940D01*
X143251191Y-91079940D02*
X143227381Y-91056130D01*
X143227381Y-91056130D02*
X143215476Y-91032321D01*
X143215476Y-91032321D02*
X143203572Y-90984702D01*
X143203572Y-90984702D02*
X143203572Y-90948988D01*
X143203572Y-90948988D02*
X143215476Y-90901369D01*
X143215476Y-90901369D02*
X143227381Y-90877559D01*
X143227381Y-90877559D02*
X143251191Y-90853750D01*
X143251191Y-90853750D02*
X143286905Y-90841845D01*
X143286905Y-90841845D02*
X143310714Y-90841845D01*
X143310714Y-90841845D02*
X143346429Y-90853750D01*
X143346429Y-90853750D02*
X143358333Y-90865654D01*
X143572619Y-90841845D02*
X143525000Y-90841845D01*
X143525000Y-90841845D02*
X143501191Y-90853750D01*
X143501191Y-90853750D02*
X143489286Y-90865654D01*
X143489286Y-90865654D02*
X143465476Y-90901369D01*
X143465476Y-90901369D02*
X143453572Y-90948988D01*
X143453572Y-90948988D02*
X143453572Y-91044226D01*
X143453572Y-91044226D02*
X143465476Y-91068035D01*
X143465476Y-91068035D02*
X143477381Y-91079940D01*
X143477381Y-91079940D02*
X143501191Y-91091845D01*
X143501191Y-91091845D02*
X143548810Y-91091845D01*
X143548810Y-91091845D02*
X143572619Y-91079940D01*
X143572619Y-91079940D02*
X143584524Y-91068035D01*
X143584524Y-91068035D02*
X143596429Y-91044226D01*
X143596429Y-91044226D02*
X143596429Y-90984702D01*
X143596429Y-90984702D02*
X143584524Y-90960892D01*
X143584524Y-90960892D02*
X143572619Y-90948988D01*
X143572619Y-90948988D02*
X143548810Y-90937083D01*
X143548810Y-90937083D02*
X143501191Y-90937083D01*
X143501191Y-90937083D02*
X143477381Y-90948988D01*
X143477381Y-90948988D02*
X143465476Y-90960892D01*
X143465476Y-90960892D02*
X143453572Y-90984702D01*
%TO.C,J2*%
X142516667Y-96091845D02*
X142516667Y-96270416D01*
X142516667Y-96270416D02*
X142504762Y-96306130D01*
X142504762Y-96306130D02*
X142480953Y-96329940D01*
X142480953Y-96329940D02*
X142445238Y-96341845D01*
X142445238Y-96341845D02*
X142421429Y-96341845D01*
X142623810Y-96115654D02*
X142635714Y-96103750D01*
X142635714Y-96103750D02*
X142659524Y-96091845D01*
X142659524Y-96091845D02*
X142719048Y-96091845D01*
X142719048Y-96091845D02*
X142742857Y-96103750D01*
X142742857Y-96103750D02*
X142754762Y-96115654D01*
X142754762Y-96115654D02*
X142766667Y-96139464D01*
X142766667Y-96139464D02*
X142766667Y-96163273D01*
X142766667Y-96163273D02*
X142754762Y-96198988D01*
X142754762Y-96198988D02*
X142611905Y-96341845D01*
X142611905Y-96341845D02*
X142766667Y-96341845D01*
%TO.C,C23*%
X149119285Y-90778035D02*
X149107381Y-90789940D01*
X149107381Y-90789940D02*
X149071666Y-90801845D01*
X149071666Y-90801845D02*
X149047857Y-90801845D01*
X149047857Y-90801845D02*
X149012143Y-90789940D01*
X149012143Y-90789940D02*
X148988333Y-90766130D01*
X148988333Y-90766130D02*
X148976428Y-90742321D01*
X148976428Y-90742321D02*
X148964524Y-90694702D01*
X148964524Y-90694702D02*
X148964524Y-90658988D01*
X148964524Y-90658988D02*
X148976428Y-90611369D01*
X148976428Y-90611369D02*
X148988333Y-90587559D01*
X148988333Y-90587559D02*
X149012143Y-90563750D01*
X149012143Y-90563750D02*
X149047857Y-90551845D01*
X149047857Y-90551845D02*
X149071666Y-90551845D01*
X149071666Y-90551845D02*
X149107381Y-90563750D01*
X149107381Y-90563750D02*
X149119285Y-90575654D01*
X149214524Y-90575654D02*
X149226428Y-90563750D01*
X149226428Y-90563750D02*
X149250238Y-90551845D01*
X149250238Y-90551845D02*
X149309762Y-90551845D01*
X149309762Y-90551845D02*
X149333571Y-90563750D01*
X149333571Y-90563750D02*
X149345476Y-90575654D01*
X149345476Y-90575654D02*
X149357381Y-90599464D01*
X149357381Y-90599464D02*
X149357381Y-90623273D01*
X149357381Y-90623273D02*
X149345476Y-90658988D01*
X149345476Y-90658988D02*
X149202619Y-90801845D01*
X149202619Y-90801845D02*
X149357381Y-90801845D01*
X149440714Y-90551845D02*
X149595476Y-90551845D01*
X149595476Y-90551845D02*
X149512142Y-90647083D01*
X149512142Y-90647083D02*
X149547857Y-90647083D01*
X149547857Y-90647083D02*
X149571666Y-90658988D01*
X149571666Y-90658988D02*
X149583571Y-90670892D01*
X149583571Y-90670892D02*
X149595476Y-90694702D01*
X149595476Y-90694702D02*
X149595476Y-90754226D01*
X149595476Y-90754226D02*
X149583571Y-90778035D01*
X149583571Y-90778035D02*
X149571666Y-90789940D01*
X149571666Y-90789940D02*
X149547857Y-90801845D01*
X149547857Y-90801845D02*
X149476428Y-90801845D01*
X149476428Y-90801845D02*
X149452619Y-90789940D01*
X149452619Y-90789940D02*
X149440714Y-90778035D01*
%TO.C,R10*%
X145839285Y-91091845D02*
X145755952Y-90972797D01*
X145696428Y-91091845D02*
X145696428Y-90841845D01*
X145696428Y-90841845D02*
X145791666Y-90841845D01*
X145791666Y-90841845D02*
X145815476Y-90853750D01*
X145815476Y-90853750D02*
X145827381Y-90865654D01*
X145827381Y-90865654D02*
X145839285Y-90889464D01*
X145839285Y-90889464D02*
X145839285Y-90925178D01*
X145839285Y-90925178D02*
X145827381Y-90948988D01*
X145827381Y-90948988D02*
X145815476Y-90960892D01*
X145815476Y-90960892D02*
X145791666Y-90972797D01*
X145791666Y-90972797D02*
X145696428Y-90972797D01*
X146077381Y-91091845D02*
X145934524Y-91091845D01*
X146005952Y-91091845D02*
X146005952Y-90841845D01*
X146005952Y-90841845D02*
X145982143Y-90877559D01*
X145982143Y-90877559D02*
X145958333Y-90901369D01*
X145958333Y-90901369D02*
X145934524Y-90913273D01*
X146232142Y-90841845D02*
X146255952Y-90841845D01*
X146255952Y-90841845D02*
X146279761Y-90853750D01*
X146279761Y-90853750D02*
X146291666Y-90865654D01*
X146291666Y-90865654D02*
X146303571Y-90889464D01*
X146303571Y-90889464D02*
X146315476Y-90937083D01*
X146315476Y-90937083D02*
X146315476Y-90996607D01*
X146315476Y-90996607D02*
X146303571Y-91044226D01*
X146303571Y-91044226D02*
X146291666Y-91068035D01*
X146291666Y-91068035D02*
X146279761Y-91079940D01*
X146279761Y-91079940D02*
X146255952Y-91091845D01*
X146255952Y-91091845D02*
X146232142Y-91091845D01*
X146232142Y-91091845D02*
X146208333Y-91079940D01*
X146208333Y-91079940D02*
X146196428Y-91068035D01*
X146196428Y-91068035D02*
X146184523Y-91044226D01*
X146184523Y-91044226D02*
X146172619Y-90996607D01*
X146172619Y-90996607D02*
X146172619Y-90937083D01*
X146172619Y-90937083D02*
X146184523Y-90889464D01*
X146184523Y-90889464D02*
X146196428Y-90865654D01*
X146196428Y-90865654D02*
X146208333Y-90853750D01*
X146208333Y-90853750D02*
X146232142Y-90841845D01*
D11*
%TO.C,J3*%
X117546666Y-77234880D02*
X117546666Y-77949166D01*
X117546666Y-77949166D02*
X117499047Y-78092023D01*
X117499047Y-78092023D02*
X117403809Y-78187261D01*
X117403809Y-78187261D02*
X117260952Y-78234880D01*
X117260952Y-78234880D02*
X117165714Y-78234880D01*
X117927619Y-77234880D02*
X118546666Y-77234880D01*
X118546666Y-77234880D02*
X118213333Y-77615833D01*
X118213333Y-77615833D02*
X118356190Y-77615833D01*
X118356190Y-77615833D02*
X118451428Y-77663452D01*
X118451428Y-77663452D02*
X118499047Y-77711071D01*
X118499047Y-77711071D02*
X118546666Y-77806309D01*
X118546666Y-77806309D02*
X118546666Y-78044404D01*
X118546666Y-78044404D02*
X118499047Y-78139642D01*
X118499047Y-78139642D02*
X118451428Y-78187261D01*
X118451428Y-78187261D02*
X118356190Y-78234880D01*
X118356190Y-78234880D02*
X118070476Y-78234880D01*
X118070476Y-78234880D02*
X117975238Y-78187261D01*
X117975238Y-78187261D02*
X117927619Y-78139642D01*
D10*
%TO.C,R13*%
X142391845Y-92310714D02*
X142272797Y-92394047D01*
X142391845Y-92453571D02*
X142141845Y-92453571D01*
X142141845Y-92453571D02*
X142141845Y-92358333D01*
X142141845Y-92358333D02*
X142153750Y-92334523D01*
X142153750Y-92334523D02*
X142165654Y-92322618D01*
X142165654Y-92322618D02*
X142189464Y-92310714D01*
X142189464Y-92310714D02*
X142225178Y-92310714D01*
X142225178Y-92310714D02*
X142248988Y-92322618D01*
X142248988Y-92322618D02*
X142260892Y-92334523D01*
X142260892Y-92334523D02*
X142272797Y-92358333D01*
X142272797Y-92358333D02*
X142272797Y-92453571D01*
X142391845Y-92072618D02*
X142391845Y-92215475D01*
X142391845Y-92144047D02*
X142141845Y-92144047D01*
X142141845Y-92144047D02*
X142177559Y-92167856D01*
X142177559Y-92167856D02*
X142201369Y-92191666D01*
X142201369Y-92191666D02*
X142213273Y-92215475D01*
X142141845Y-91989285D02*
X142141845Y-91834523D01*
X142141845Y-91834523D02*
X142237083Y-91917857D01*
X142237083Y-91917857D02*
X142237083Y-91882142D01*
X142237083Y-91882142D02*
X142248988Y-91858333D01*
X142248988Y-91858333D02*
X142260892Y-91846428D01*
X142260892Y-91846428D02*
X142284702Y-91834523D01*
X142284702Y-91834523D02*
X142344226Y-91834523D01*
X142344226Y-91834523D02*
X142368035Y-91846428D01*
X142368035Y-91846428D02*
X142379940Y-91858333D01*
X142379940Y-91858333D02*
X142391845Y-91882142D01*
X142391845Y-91882142D02*
X142391845Y-91953571D01*
X142391845Y-91953571D02*
X142379940Y-91977380D01*
X142379940Y-91977380D02*
X142368035Y-91989285D01*
%TO.C,R2*%
X136438333Y-90311845D02*
X136355000Y-90192797D01*
X136295476Y-90311845D02*
X136295476Y-90061845D01*
X136295476Y-90061845D02*
X136390714Y-90061845D01*
X136390714Y-90061845D02*
X136414524Y-90073750D01*
X136414524Y-90073750D02*
X136426429Y-90085654D01*
X136426429Y-90085654D02*
X136438333Y-90109464D01*
X136438333Y-90109464D02*
X136438333Y-90145178D01*
X136438333Y-90145178D02*
X136426429Y-90168988D01*
X136426429Y-90168988D02*
X136414524Y-90180892D01*
X136414524Y-90180892D02*
X136390714Y-90192797D01*
X136390714Y-90192797D02*
X136295476Y-90192797D01*
X136533572Y-90085654D02*
X136545476Y-90073750D01*
X136545476Y-90073750D02*
X136569286Y-90061845D01*
X136569286Y-90061845D02*
X136628810Y-90061845D01*
X136628810Y-90061845D02*
X136652619Y-90073750D01*
X136652619Y-90073750D02*
X136664524Y-90085654D01*
X136664524Y-90085654D02*
X136676429Y-90109464D01*
X136676429Y-90109464D02*
X136676429Y-90133273D01*
X136676429Y-90133273D02*
X136664524Y-90168988D01*
X136664524Y-90168988D02*
X136521667Y-90311845D01*
X136521667Y-90311845D02*
X136676429Y-90311845D01*
%TO.C,D1*%
X149415476Y-92991845D02*
X149415476Y-92741845D01*
X149415476Y-92741845D02*
X149475000Y-92741845D01*
X149475000Y-92741845D02*
X149510714Y-92753750D01*
X149510714Y-92753750D02*
X149534524Y-92777559D01*
X149534524Y-92777559D02*
X149546429Y-92801369D01*
X149546429Y-92801369D02*
X149558333Y-92848988D01*
X149558333Y-92848988D02*
X149558333Y-92884702D01*
X149558333Y-92884702D02*
X149546429Y-92932321D01*
X149546429Y-92932321D02*
X149534524Y-92956130D01*
X149534524Y-92956130D02*
X149510714Y-92979940D01*
X149510714Y-92979940D02*
X149475000Y-92991845D01*
X149475000Y-92991845D02*
X149415476Y-92991845D01*
X149796429Y-92991845D02*
X149653572Y-92991845D01*
X149725000Y-92991845D02*
X149725000Y-92741845D01*
X149725000Y-92741845D02*
X149701191Y-92777559D01*
X149701191Y-92777559D02*
X149677381Y-92801369D01*
X149677381Y-92801369D02*
X149653572Y-92813273D01*
D12*
%TO.C,U3*%
X136990000Y-92250000D02*
X136990000Y-91250000D01*
X136990000Y-91250000D02*
X135990000Y-91250000D01*
X136490000Y-92750000D02*
X136990000Y-92250000D01*
X135990000Y-92750000D02*
X136490000Y-92750000D01*
X135990000Y-91250000D02*
X135990000Y-92750000D01*
%TO.C,U2*%
X138340000Y-92170000D02*
X138340000Y-91170000D01*
X138340000Y-91170000D02*
X137340000Y-91170000D01*
X137840000Y-92670000D02*
X138340000Y-92170000D01*
X137340000Y-92670000D02*
X137840000Y-92670000D01*
X137340000Y-91170000D02*
X137340000Y-92670000D01*
%TO.C,R1*%
X137880000Y-90710000D02*
X137880000Y-90410000D01*
X138480000Y-90410000D02*
X138480000Y-90710000D01*
X137880000Y-90410000D02*
X138480000Y-90410000D01*
X138480000Y-90710000D02*
X137880000Y-90710000D01*
%TO.C,C18*%
X146500000Y-91900000D02*
X146500000Y-92500000D01*
X146200000Y-92500000D02*
X146200000Y-91900000D01*
X146500000Y-92500000D02*
X146200000Y-92500000D01*
X146200000Y-91900000D02*
X146500000Y-91900000D01*
%TO.C,J5*%
X139000000Y-87900000D02*
X141300000Y-87900000D01*
X141300000Y-87900000D02*
X141300000Y-89100000D01*
X141300000Y-89100000D02*
X139000000Y-89100000D01*
X139000000Y-89100000D02*
X139000000Y-87900000D01*
%TO.C,J1*%
X142700000Y-87600000D02*
X144700000Y-87600000D01*
X144700000Y-87600000D02*
X144700000Y-89600000D01*
X144700000Y-89600000D02*
X142700000Y-89600000D01*
X142700000Y-89600000D02*
X142700000Y-87600000D01*
X143841421Y-89300000D02*
G75*
G03*
X143841421Y-89300000I-141421J0D01*
G01*
%TO.C,R15*%
X139580000Y-91090000D02*
X139280000Y-91090000D01*
X139280000Y-90490000D02*
X139580000Y-90490000D01*
X139280000Y-91090000D02*
X139280000Y-90490000D01*
X139580000Y-90490000D02*
X139580000Y-91090000D01*
%TO.C,R12*%
X141700000Y-90350000D02*
X142000000Y-90350000D01*
X142000000Y-90950000D02*
X141700000Y-90950000D01*
X142000000Y-90350000D02*
X142000000Y-90950000D01*
X141700000Y-90950000D02*
X141700000Y-90350000D01*
%TO.C,C20*%
X145700000Y-91500000D02*
X145700000Y-92500000D01*
X145700000Y-92500000D02*
X145200000Y-92500000D01*
X145200000Y-92500000D02*
X145200000Y-91500000D01*
X145200000Y-91500000D02*
X145700000Y-91500000D01*
%TO.C,C9*%
X135250000Y-91145000D02*
X135250000Y-90545000D01*
X135550000Y-90545000D02*
X135550000Y-91145000D01*
X135250000Y-90545000D02*
X135550000Y-90545000D01*
X135550000Y-91145000D02*
X135250000Y-91145000D01*
%TO.C,U6*%
X140150000Y-92050000D02*
X140150000Y-90750000D01*
X140500000Y-92050000D02*
X140150000Y-91700000D01*
X141050000Y-92050000D02*
X140150000Y-92050000D01*
X140150000Y-90750000D02*
X141050000Y-90750000D01*
X141050000Y-90750000D02*
X141050000Y-92050000D01*
%TO.C,U4*%
X142900000Y-91400000D02*
X143900000Y-91400000D01*
X143150000Y-92400000D02*
X142900000Y-92150000D01*
X143900000Y-92400000D02*
X143150000Y-92400000D01*
X143900000Y-91400000D02*
X143900000Y-92400000D01*
X142900000Y-92150000D02*
X142900000Y-91400000D01*
%TO.C,C22*%
X148900000Y-91850000D02*
X148900000Y-92450000D01*
X148600000Y-92450000D02*
X148600000Y-91850000D01*
X148900000Y-92450000D02*
X148600000Y-92450000D01*
X148600000Y-91850000D02*
X148900000Y-91850000D01*
%TO.C,R5*%
X135550000Y-92545000D02*
X135250000Y-92545000D01*
X135250000Y-91945000D02*
X135550000Y-91945000D01*
X135250000Y-92545000D02*
X135250000Y-91945000D01*
X135550000Y-91945000D02*
X135550000Y-92545000D01*
%TO.C,C19*%
X147200000Y-91900000D02*
X147200000Y-92500000D01*
X146900000Y-92500000D02*
X146900000Y-91900000D01*
X147200000Y-92500000D02*
X146900000Y-92500000D01*
X146900000Y-91900000D02*
X147200000Y-91900000D01*
%TO.C,R11*%
X141100000Y-92450000D02*
X141100000Y-92750000D01*
X140500000Y-92750000D02*
X140500000Y-92450000D01*
X141100000Y-92750000D02*
X140500000Y-92750000D01*
X140500000Y-92450000D02*
X141100000Y-92450000D01*
%TO.C,C27*%
X139500000Y-92550000D02*
X139500000Y-91950000D01*
X139800000Y-91950000D02*
X139800000Y-92550000D01*
X139500000Y-91950000D02*
X139800000Y-91950000D01*
X139800000Y-92550000D02*
X139500000Y-92550000D01*
%TO.C,R14*%
X138690000Y-91900000D02*
X138990000Y-91900000D01*
X138990000Y-92500000D02*
X138690000Y-92500000D01*
X138990000Y-91900000D02*
X138990000Y-92500000D01*
X138690000Y-92500000D02*
X138690000Y-91900000D01*
%TO.C,L4*%
X147300000Y-91150000D02*
X147300000Y-90850000D01*
X147300000Y-90850000D02*
X147900000Y-90850000D01*
X147900000Y-90850000D02*
X147900000Y-91150000D01*
X147900000Y-91150000D02*
X147300000Y-91150000D01*
%TO.C,C21*%
X148150000Y-91850000D02*
X148150000Y-92450000D01*
X147850000Y-92450000D02*
X147850000Y-91850000D01*
X148150000Y-92450000D02*
X147850000Y-92450000D01*
X147850000Y-91850000D02*
X148150000Y-91850000D01*
%TO.C,C6*%
X143100000Y-90450000D02*
X143700000Y-90450000D01*
X143700000Y-90750000D02*
X143100000Y-90750000D01*
X143700000Y-90450000D02*
X143700000Y-90750000D01*
X143100000Y-90750000D02*
X143100000Y-90450000D01*
%TO.C,J2*%
X134600000Y-93850000D02*
X134600000Y-98650000D01*
X134600000Y-98650000D02*
X150600000Y-98650000D01*
X150600000Y-93850000D02*
X134600000Y-93850000D01*
X150600000Y-98650000D02*
X150600000Y-93850000D01*
%TO.C,C23*%
X148780000Y-90460000D02*
X149780000Y-90460000D01*
X149780000Y-90460000D02*
X149780000Y-90960000D01*
X149780000Y-90960000D02*
X148780000Y-90960000D01*
X148780000Y-90960000D02*
X148780000Y-90460000D01*
%TO.C,R10*%
X146300000Y-90450000D02*
X146300000Y-90750000D01*
X145700000Y-90750000D02*
X145700000Y-90450000D01*
X146300000Y-90750000D02*
X145700000Y-90750000D01*
X145700000Y-90450000D02*
X146300000Y-90450000D01*
%TO.C,J3*%
X126990000Y-74467500D02*
X126990000Y-80967500D01*
X126990000Y-80967500D02*
X109010000Y-80967500D01*
X107820000Y-73267500D02*
X127180000Y-73267500D01*
X120050000Y-73267500D02*
X120050000Y-74467500D01*
X127180000Y-73267500D02*
X128180000Y-74267500D01*
X128180000Y-74267500D02*
X128180000Y-82167500D01*
X120050000Y-74467500D02*
X126990000Y-74467500D01*
X115950000Y-74467500D02*
X115950000Y-74467500D01*
X109010000Y-74467500D02*
X115950000Y-74467500D01*
X128180000Y-82167500D02*
X107820000Y-82167500D01*
X115950000Y-74467500D02*
X115950000Y-73267500D01*
X107820000Y-82167500D02*
X107820000Y-73267500D01*
X109010000Y-80967500D02*
X109010000Y-74467500D01*
%TO.C,R13*%
X141700000Y-91850000D02*
X142000000Y-91850000D01*
X142000000Y-92450000D02*
X141700000Y-92450000D01*
X142000000Y-91850000D02*
X142000000Y-92450000D01*
X141700000Y-92450000D02*
X141700000Y-91850000D01*
%TO.C,R2*%
X136780000Y-90470000D02*
X136780000Y-90770000D01*
X136180000Y-90770000D02*
X136180000Y-90470000D01*
X136780000Y-90770000D02*
X136180000Y-90770000D01*
X136180000Y-90470000D02*
X136780000Y-90470000D01*
%TO.C,D1*%
X149800000Y-91950000D02*
X149400000Y-91950000D01*
X149600000Y-91950000D02*
X149800000Y-92300000D01*
X149800000Y-92300000D02*
X149400000Y-92300000D01*
X149400000Y-92300000D02*
X149600000Y-91950000D01*
X149300000Y-91650000D02*
X149900000Y-91650000D01*
X149900000Y-91650000D02*
X149900000Y-92650000D01*
X149900000Y-92650000D02*
X149300000Y-92650000D01*
X149300000Y-92650000D02*
X149300000Y-91650000D01*
%TD*%
M02*
