%TF.GenerationSoftware,KiCad,Pcbnew,(7.0.0)*%
%TF.CreationDate,2023-07-20T12:08:20-04:00*%
%TF.ProjectId,headstage-neuropix1e,68656164-7374-4616-9765-2d6e6575726f,A*%
%TF.SameCoordinates,Original*%
%TF.FileFunction,Copper,L3,Inr*%
%TF.FilePolarity,Positive*%
%FSLAX46Y46*%
G04 Gerber Fmt 4.6, Leading zero omitted, Abs format (unit mm)*
G04 Created by KiCad (PCBNEW (7.0.0)) date 2023-07-20 12:08:20*
%MOMM*%
%LPD*%
G01*
G04 APERTURE LIST*
G04 Aperture macros list*
%AMRoundRect*
0 Rectangle with rounded corners*
0 $1 Rounding radius*
0 $2 $3 $4 $5 $6 $7 $8 $9 X,Y pos of 4 corners*
0 Add a 4 corners polygon primitive as box body*
4,1,4,$2,$3,$4,$5,$6,$7,$8,$9,$2,$3,0*
0 Add four circle primitives for the rounded corners*
1,1,$1+$1,$2,$3*
1,1,$1+$1,$4,$5*
1,1,$1+$1,$6,$7*
1,1,$1+$1,$8,$9*
0 Add four rect primitives between the rounded corners*
20,1,$1+$1,$2,$3,$4,$5,0*
20,1,$1+$1,$4,$5,$6,$7,0*
20,1,$1+$1,$6,$7,$8,$9,0*
20,1,$1+$1,$8,$9,$2,$3,0*%
G04 Aperture macros list end*
%TA.AperFunction,ComponentPad*%
%ADD10C,2.500000*%
%TD*%
%TA.AperFunction,ComponentPad*%
%ADD11RoundRect,0.250000X-0.600000X0.600000X-0.600000X-0.600000X0.600000X-0.600000X0.600000X0.600000X0*%
%TD*%
%TA.AperFunction,ComponentPad*%
%ADD12C,1.700000*%
%TD*%
%TA.AperFunction,ViaPad*%
%ADD13C,0.300000*%
%TD*%
%TA.AperFunction,ViaPad*%
%ADD14C,0.250000*%
%TD*%
%TA.AperFunction,Conductor*%
%ADD15C,0.200000*%
%TD*%
%TA.AperFunction,Conductor*%
%ADD16C,0.100000*%
%TD*%
G04 APERTURE END LIST*
D10*
%TO.N,GND*%
%TO.C,TP1*%
X136600000Y-88500000D03*
%TD*%
D11*
%TO.N,+4V*%
%TO.C,J3*%
X123080000Y-76447500D03*
D12*
X123080000Y-78987500D03*
%TO.N,/Neuropixels 1.0/SCL*%
X120540000Y-76447500D03*
X120540000Y-78987500D03*
%TO.N,/Neuropixels 1.0/SDA*%
X118000000Y-76447500D03*
X118000000Y-78987500D03*
%TO.N,GND*%
X115460000Y-76447500D03*
X115460000Y-78987500D03*
X112920000Y-76447500D03*
X112920000Y-78987500D03*
%TD*%
D10*
%TO.N,GND*%
%TO.C,TP2*%
X148600000Y-88500000D03*
%TD*%
D13*
%TO.N,GND*%
X146990000Y-95640000D03*
X104670000Y-77610000D03*
X152750000Y-106940000D03*
D14*
X146890000Y-88250000D03*
D13*
X144416061Y-81338202D03*
X130400000Y-83630000D03*
D14*
X150070000Y-89260000D03*
X134975500Y-91950000D03*
D13*
X135160000Y-95280000D03*
D14*
X147512132Y-94349665D03*
D13*
X156300000Y-121900000D03*
D14*
X141834896Y-94124533D03*
D13*
X140493550Y-95522998D03*
X144590000Y-98100500D03*
X140500000Y-96250000D03*
X129640000Y-110300000D03*
X135910000Y-93110000D03*
X144800000Y-92380500D03*
X137310000Y-95600000D03*
D14*
X148340000Y-95010000D03*
D13*
X135390000Y-98510000D03*
X106460000Y-93330000D03*
X137380000Y-106710000D03*
D14*
X144880000Y-90270000D03*
D13*
X144700000Y-87450000D03*
X135640000Y-73600000D03*
X135200000Y-97200000D03*
D14*
X146950000Y-89250000D03*
X147020000Y-96330000D03*
D13*
X138330000Y-96590000D03*
D14*
X140079116Y-91978997D03*
D13*
X141050000Y-87000000D03*
X146500000Y-93600000D03*
D14*
X142400000Y-95600000D03*
X148900000Y-93590000D03*
D13*
X150520000Y-80190000D03*
D14*
X145950000Y-94700000D03*
X146450000Y-89150000D03*
D13*
X138000000Y-89850000D03*
D14*
X139614453Y-93024500D03*
D13*
X150000000Y-96750000D03*
D14*
X138080000Y-87680000D03*
D13*
X155510000Y-95710000D03*
X138440000Y-97170000D03*
X106760000Y-112810000D03*
X149850000Y-98400000D03*
D14*
X147710000Y-96340000D03*
D13*
X145340000Y-93660000D03*
X147700000Y-93450000D03*
X147580000Y-95640000D03*
D14*
X142900000Y-95450000D03*
X136830000Y-91840000D03*
X141568020Y-92308292D03*
X142630000Y-97340000D03*
D13*
X136160092Y-94530000D03*
X126680000Y-71747500D03*
X135200000Y-89780000D03*
X156700000Y-69100000D03*
X155800000Y-87500000D03*
D14*
X148800000Y-92950500D03*
X146800000Y-90050000D03*
D13*
X140270000Y-96810000D03*
X143000000Y-87400000D03*
X146120000Y-95699500D03*
D14*
X142444101Y-92894101D03*
X145950000Y-90100000D03*
X145320000Y-89380000D03*
X145780000Y-96290000D03*
D13*
X135890000Y-90120000D03*
D14*
X148100000Y-90000000D03*
D13*
X138990000Y-96490000D03*
X107600000Y-104500000D03*
X148150000Y-97670000D03*
X146940000Y-87070000D03*
X103100000Y-122100000D03*
X145266637Y-78141210D03*
X149700000Y-89900000D03*
X144310000Y-91350000D03*
X143524500Y-93600000D03*
D14*
X146400000Y-90050000D03*
D13*
X137220000Y-97050000D03*
D14*
X138780000Y-94020000D03*
D13*
X136910000Y-80250000D03*
D14*
X138040500Y-91920000D03*
X141070000Y-93025498D03*
X143300899Y-91989101D03*
D13*
X145570000Y-87160000D03*
D14*
X144280000Y-90250000D03*
D13*
X105450000Y-70470000D03*
D14*
X144840000Y-96930000D03*
D13*
X137480000Y-96470000D03*
X143800000Y-86950000D03*
D14*
X143590000Y-96500000D03*
D13*
X117520000Y-69930000D03*
D14*
X141210000Y-94430000D03*
D13*
X145200000Y-72300000D03*
X154200000Y-101500000D03*
X135190000Y-96310000D03*
D14*
X141100000Y-91600000D03*
D13*
X103900000Y-84800000D03*
D14*
X147400000Y-89550000D03*
D13*
X128400000Y-101000000D03*
X143230000Y-96010000D03*
D14*
X136850000Y-94637500D03*
D13*
X139070000Y-86840000D03*
X139030000Y-95680000D03*
X114560000Y-86760000D03*
X137490000Y-94010000D03*
X137440000Y-86960000D03*
%TO.N,+1V8*%
X135150000Y-97900000D03*
X140474059Y-92959710D03*
X137471779Y-90951779D03*
X137590000Y-92420000D03*
X147500000Y-92700500D03*
X142662961Y-91089404D03*
D14*
X135505500Y-94637298D03*
D13*
%TO.N,+1.2VA*%
X137935000Y-93135000D03*
X136247871Y-91301612D03*
X137864351Y-97063949D03*
D14*
%TO.N,Net-(D1-K)*%
X149500500Y-92050000D03*
X148780000Y-90120000D03*
%TO.N,+1V2*%
X135617490Y-93803077D03*
D13*
X138460000Y-95710000D03*
X137590000Y-91420000D03*
D14*
%TO.N,+4V*%
X135711619Y-91548996D03*
D13*
X120200000Y-94945000D03*
X137590000Y-91920000D03*
X136930627Y-92829287D03*
X138730517Y-91170645D03*
D14*
%TO.N,/Neuropixels 1.0/CAL_SIGNAL*%
X138775500Y-91880000D03*
X139000000Y-97150000D03*
%TO.N,/DC Tap & Regulation/VA_{EN}*%
X142793180Y-92745908D03*
X141500000Y-95223498D03*
X140473576Y-97223576D03*
%TO.N,/Neuropixels 1.0/NP_{~{MUXRST}}*%
X148378692Y-92725500D03*
X140600000Y-94100000D03*
%TO.N,/Neuropixels 1.0/SDA*%
X138314130Y-90444500D03*
X142476943Y-90310000D03*
X141250000Y-90099500D03*
D13*
X123200000Y-92000000D03*
D14*
X140850000Y-97200000D03*
X142050000Y-94400000D03*
D13*
X123210000Y-96120000D03*
%TO.N,/Neuropixels 1.0/SCL*%
X118000000Y-97340000D03*
D14*
X145550000Y-94700000D03*
X142218903Y-90074274D03*
X137757636Y-90135500D03*
X142450000Y-91850000D03*
X139104500Y-90040000D03*
%TO.N,/Neuropixels 1.0/SYNC*%
X145490000Y-96044500D03*
X142000000Y-97300000D03*
%TO.N,/Neuropixels 1.0/D6*%
X149230000Y-95300000D03*
X142300000Y-94100000D03*
%TO.N,/Neuropixels 1.0/D5*%
X142900000Y-93600000D03*
X149200000Y-94750000D03*
%TO.N,/Neuropixels 1.0/D4*%
X143717370Y-95945500D03*
X149200000Y-95750000D03*
%TO.N,/Neuropixels 1.0/D3*%
X144193189Y-96808263D03*
X149200000Y-96250000D03*
%TO.N,/Neuropixels 1.0/D2*%
X144264551Y-93925449D03*
X149265000Y-94185000D03*
%TO.N,/Neuropixels 1.0/D1*%
X149249502Y-93750000D03*
X144474502Y-93500000D03*
%TO.N,/Neuropixels 1.0/D0*%
X148550000Y-96400000D03*
X144950000Y-97270000D03*
%TO.N,/Perpherials/GPIO0*%
X139850000Y-87050000D03*
X149150000Y-92250000D03*
%TO.N,/Perpherials/GPIO1*%
X149288276Y-91232529D03*
X140200000Y-87050000D03*
%TO.N,Net-(R12-Pad1)*%
X140026596Y-90901397D03*
X139025500Y-92994101D03*
%TO.N,Net-(U5-GPIO3{slash}CLKIN)*%
X149151002Y-92950500D03*
X149290000Y-90430000D03*
D13*
%TO.N,+1.8VA*%
X135950000Y-92390000D03*
X136579094Y-93019094D03*
X136509592Y-97426502D03*
D14*
%TO.N,/Neuropixels 1.0/DCLK*%
X144970177Y-96278055D03*
X145420000Y-97699500D03*
%TD*%
D15*
%TO.N,+1V8*%
X139850000Y-97000000D02*
X138950000Y-97900000D01*
X139629355Y-90820645D02*
X139927062Y-90522938D01*
D16*
X135500000Y-97880000D02*
X135520000Y-97900000D01*
D15*
X146110000Y-92940000D02*
X144890000Y-91720000D01*
X140419500Y-93000500D02*
X140400000Y-93000500D01*
X142660000Y-91086443D02*
X142662961Y-91089404D01*
X138950000Y-97900000D02*
X135520000Y-97900000D01*
D16*
X135500000Y-94642798D02*
X135500000Y-97880000D01*
D15*
X147260500Y-92940000D02*
X146110000Y-92940000D01*
X142660000Y-90650000D02*
X142660000Y-91086443D01*
X140400000Y-93000500D02*
X140400000Y-93400000D01*
X137602913Y-90820645D02*
X139629355Y-90820645D01*
X143100000Y-90650000D02*
X142660000Y-90650000D01*
X140400000Y-93400000D02*
X139850000Y-93950000D01*
X139927062Y-90522938D02*
X140480000Y-90522938D01*
X135520000Y-97900000D02*
X135150000Y-97900000D01*
X147500000Y-92700500D02*
X147260500Y-92940000D01*
D16*
X135505500Y-94637298D02*
X135500000Y-94642798D01*
D15*
X140474059Y-92959710D02*
X140474059Y-90528879D01*
X140474059Y-90528879D02*
X140480000Y-90522938D01*
X141450000Y-90650000D02*
X142660000Y-90650000D01*
X144170000Y-91720000D02*
X143100000Y-90650000D01*
X144890000Y-91720000D02*
X144170000Y-91720000D01*
X139850000Y-93950000D02*
X139850000Y-97000000D01*
X140480000Y-90522938D02*
X141322938Y-90522938D01*
X137471779Y-90951779D02*
X137602913Y-90820645D01*
X141322938Y-90522938D02*
X141450000Y-90650000D01*
%TO.N,+1.2VA*%
X137935000Y-94445000D02*
X137935000Y-93135000D01*
X136247871Y-91301612D02*
X136247871Y-91737871D01*
X136247871Y-91737871D02*
X136810500Y-92300500D01*
X137864351Y-97063949D02*
X137864351Y-94515649D01*
X136810500Y-92300500D02*
X136940500Y-92300500D01*
X137864351Y-94515649D02*
X137935000Y-94445000D01*
X136940500Y-92300500D02*
X137775000Y-93135000D01*
X137775000Y-93135000D02*
X137935000Y-93135000D01*
D16*
%TO.N,Net-(D1-K)*%
X148780000Y-90320000D02*
X149570000Y-91110000D01*
X149570000Y-91980500D02*
X149500500Y-92050000D01*
X149570000Y-91110000D02*
X149570000Y-91980500D01*
X148780000Y-90120000D02*
X148780000Y-90320000D01*
D15*
%TO.N,+1V2*%
X138365000Y-91575000D02*
X138365000Y-93140736D01*
X138450000Y-93225736D02*
X138450000Y-95700000D01*
X138365000Y-93140736D02*
X138450000Y-93225736D01*
X138210000Y-91420000D02*
X138365000Y-91575000D01*
X137590000Y-91420000D02*
X138210000Y-91420000D01*
X138450000Y-95700000D02*
X138460000Y-95710000D01*
%TO.N,+4V*%
X135711619Y-91656644D02*
X135711619Y-91548996D01*
X136655475Y-92600500D02*
X135711619Y-91656644D01*
X136701840Y-92600500D02*
X136655475Y-92600500D01*
X136930627Y-92829287D02*
X136701840Y-92600500D01*
D16*
%TO.N,/Neuropixels 1.0/CAL_SIGNAL*%
X139440000Y-96710000D02*
X139000000Y-97150000D01*
X138775500Y-91880000D02*
X138775500Y-92855192D01*
X139440000Y-93940000D02*
X139440000Y-96710000D01*
X138750500Y-92880192D02*
X138750500Y-93108010D01*
X138775500Y-93275500D02*
X139440000Y-93940000D01*
X138775500Y-92855192D02*
X138750500Y-92880192D01*
X138750500Y-93108010D02*
X138775500Y-93133010D01*
X138775500Y-93133010D02*
X138775500Y-93275500D01*
%TO.N,/DC Tap & Regulation/VA_{EN}*%
X142370000Y-93180000D02*
X142620000Y-93180000D01*
X141500000Y-96050000D02*
X141500000Y-95223498D01*
X140473576Y-97076424D02*
X141500000Y-96050000D01*
X141500000Y-94050000D02*
X142370000Y-93180000D01*
X142620000Y-93180000D02*
X142793180Y-93006820D01*
X142793180Y-93006820D02*
X142793180Y-92745908D01*
X141500000Y-95223498D02*
X141500000Y-94050000D01*
X140473576Y-97223576D02*
X140473576Y-97076424D01*
%TO.N,/Neuropixels 1.0/NP_{~{MUXRST}}*%
X146070000Y-93300000D02*
X145570000Y-92800000D01*
X142000000Y-92700000D02*
X140600000Y-94100000D01*
X148378692Y-92821308D02*
X148050000Y-93150000D01*
X148378692Y-92725500D02*
X148378692Y-92821308D01*
X142000000Y-91800000D02*
X142000000Y-92700000D01*
X145570000Y-92800000D02*
X144500000Y-92800000D01*
X147575735Y-93150000D02*
X147425735Y-93300000D01*
X144500000Y-92800000D02*
X143100000Y-91400000D01*
X148050000Y-93150000D02*
X147575735Y-93150000D01*
X142400000Y-91400000D02*
X142000000Y-91800000D01*
X147425735Y-93300000D02*
X146070000Y-93300000D01*
X143100000Y-91400000D02*
X142400000Y-91400000D01*
%TO.N,/Neuropixels 1.0/SDA*%
X140850000Y-97200000D02*
X142100000Y-95950000D01*
D15*
X118000000Y-76447500D02*
X118000000Y-78987500D01*
X123210000Y-96120000D02*
X123240000Y-96120000D01*
D16*
X138314130Y-90444500D02*
X139505500Y-90444500D01*
X137380000Y-90570000D02*
X138188630Y-90570000D01*
D15*
X118000000Y-78987500D02*
X123200000Y-84187500D01*
D16*
X138188630Y-90570000D02*
X138314130Y-90444500D01*
D15*
X123240000Y-96120000D02*
X127860000Y-91500000D01*
D16*
X135530000Y-90970000D02*
X136980000Y-90970000D01*
X131927995Y-91527995D02*
X132545524Y-91527995D01*
X142100000Y-95950000D02*
X142100000Y-94450000D01*
X134968494Y-91531506D02*
X135530000Y-90970000D01*
X134171506Y-91531506D02*
X134968494Y-91531506D01*
X142476943Y-90310000D02*
X142436943Y-90350000D01*
X142436943Y-90350000D02*
X141600000Y-90350000D01*
X132545524Y-91527995D02*
X132703519Y-91370000D01*
D15*
X123200000Y-84187500D02*
X123200000Y-92000000D01*
D16*
X131900000Y-91500000D02*
X131927995Y-91527995D01*
X141600000Y-90350000D02*
X141349500Y-90099500D01*
X141349500Y-90099500D02*
X141250000Y-90099500D01*
X139850500Y-90099500D02*
X141250000Y-90099500D01*
X132703519Y-91370000D02*
X134010000Y-91370000D01*
X139505500Y-90444500D02*
X139850500Y-90099500D01*
D15*
X127860000Y-91500000D02*
X131900000Y-91500000D01*
D16*
X142100000Y-94450000D02*
X142050000Y-94400000D01*
X136980000Y-90970000D02*
X137380000Y-90570000D01*
X134010000Y-91370000D02*
X134171506Y-91531506D01*
%TO.N,/Neuropixels 1.0/SCL*%
X136820000Y-90680000D02*
X135270000Y-90680000D01*
X138974500Y-90170000D02*
X137710000Y-90170000D01*
X135185918Y-90764082D02*
X135225000Y-90725000D01*
X139104500Y-90040000D02*
X139354500Y-89790000D01*
X139354500Y-89790000D02*
X141934629Y-89790000D01*
D15*
X131900000Y-90600000D02*
X127100000Y-90600000D01*
D16*
X143225000Y-92575000D02*
X142500000Y-91850000D01*
X135270000Y-90680000D02*
X135225000Y-90725000D01*
D15*
X127100000Y-85547500D02*
X127100000Y-90600000D01*
D16*
X145550000Y-94700000D02*
X145375000Y-94525000D01*
X137726193Y-90153807D02*
X137710000Y-90170000D01*
D15*
X127100000Y-90600000D02*
X120860000Y-96840000D01*
X120540000Y-78987500D02*
X127100000Y-85547500D01*
D16*
X143225000Y-93825000D02*
X143225000Y-92575000D01*
D15*
X119200000Y-96840000D02*
X118700000Y-97340000D01*
D16*
X137330000Y-90170000D02*
X136820000Y-90680000D01*
X131900000Y-90600000D02*
X132323277Y-90600000D01*
D15*
X120860000Y-96840000D02*
X119200000Y-96840000D01*
D16*
X132603277Y-90880000D02*
X134090000Y-90880000D01*
X134090000Y-90880000D02*
X134205918Y-90764082D01*
D15*
X120540000Y-76447500D02*
X120540000Y-78987500D01*
D16*
X143925000Y-94525000D02*
X143225000Y-93825000D01*
X132323277Y-90600000D02*
X132603277Y-90880000D01*
X142500000Y-91850000D02*
X142450000Y-91850000D01*
X139104500Y-90040000D02*
X138974500Y-90170000D01*
X145375000Y-94525000D02*
X143925000Y-94525000D01*
X141934629Y-89790000D02*
X142218903Y-90074274D01*
X137710000Y-90170000D02*
X137330000Y-90170000D01*
D15*
X118000000Y-97340000D02*
X118700000Y-97340000D01*
D16*
X134205918Y-90764082D02*
X135185918Y-90764082D01*
%TO.N,/Neuropixels 1.0/SYNC*%
X145445500Y-96000000D02*
X145490000Y-96044500D01*
X142000000Y-97300000D02*
X142000000Y-96790000D01*
X142245000Y-96545000D02*
X143125001Y-96545000D01*
X144300000Y-96220000D02*
X144490000Y-96030000D01*
X144490000Y-96030000D02*
X144820000Y-96030000D01*
X143125001Y-96545000D02*
X143450001Y-96220000D01*
X144820000Y-96030000D02*
X144850000Y-96000000D01*
X142000000Y-96790000D02*
X142245000Y-96545000D01*
X144850000Y-96000000D02*
X145445500Y-96000000D01*
X143450001Y-96220000D02*
X144300000Y-96220000D01*
%TO.N,/Neuropixels 1.0/D6*%
X142300000Y-94190000D02*
X142300000Y-94100000D01*
X142640000Y-94530000D02*
X143410000Y-95300000D01*
X143410000Y-95300000D02*
X145890000Y-95300000D01*
X142640000Y-94530000D02*
X142300000Y-94190000D01*
X147950000Y-95300000D02*
X149150001Y-95300000D01*
X149150001Y-95300000D02*
X149230000Y-95300000D01*
X147950000Y-95300000D02*
X145890000Y-95300000D01*
%TO.N,/Neuropixels 1.0/D5*%
X148850000Y-95000000D02*
X149250000Y-95000000D01*
X143650000Y-95000000D02*
X146225000Y-95000000D01*
X149250000Y-95000000D02*
X149305000Y-94945000D01*
X146225000Y-95000000D02*
X146295000Y-95070000D01*
X147680000Y-95070000D02*
X148070000Y-94680000D01*
X142900000Y-94250000D02*
X143650000Y-95000000D01*
X142900000Y-93600000D02*
X142900000Y-94250000D01*
X149305000Y-94855000D02*
X149305000Y-94945000D01*
X146295000Y-95070000D02*
X147680000Y-95070000D01*
X148070000Y-94680000D02*
X148530000Y-94680000D01*
X148530000Y-94680000D02*
X148850000Y-95000000D01*
X149200000Y-94750000D02*
X149305000Y-94855000D01*
%TO.N,/Neuropixels 1.0/D4*%
X144609500Y-95830000D02*
X144670000Y-95769500D01*
X144670000Y-95769500D02*
X145765736Y-95769500D01*
X143717370Y-95945500D02*
X143721870Y-95950000D01*
X147950000Y-95750000D02*
X149200000Y-95750000D01*
X143721870Y-95950000D02*
X144220000Y-95950000D01*
X144340000Y-95830000D02*
X144609500Y-95830000D01*
X145765736Y-95769500D02*
X145995735Y-95999500D01*
X147700500Y-95999500D02*
X147950000Y-95750000D01*
X144220000Y-95950000D02*
X144340000Y-95830000D01*
X145995735Y-95999500D02*
X147700500Y-95999500D01*
%TO.N,/Neuropixels 1.0/D3*%
X146030000Y-96630000D02*
X146900000Y-97500000D01*
X148150000Y-97200000D02*
X148150000Y-96300000D01*
X148150000Y-96300000D02*
X148350000Y-96100000D01*
X146900000Y-97500000D02*
X147850000Y-97500000D01*
X149050000Y-96100000D02*
X149200000Y-96250000D01*
X147850000Y-97500000D02*
X148150000Y-97200000D01*
X144193189Y-96808263D02*
X144371452Y-96630000D01*
X144371452Y-96630000D02*
X146030000Y-96630000D01*
X148350000Y-96100000D02*
X149050000Y-96100000D01*
%TO.N,/Neuropixels 1.0/D2*%
X149950000Y-94610000D02*
X149865000Y-94695000D01*
X149300000Y-94150000D02*
X149265000Y-94185000D01*
X148100000Y-94150000D02*
X148600000Y-94150000D01*
X149950000Y-94350000D02*
X149750000Y-94150000D01*
X144264551Y-93925449D02*
X144339602Y-94000500D01*
X148925000Y-94475000D02*
X149475000Y-94475000D01*
X149750000Y-94150000D02*
X149300000Y-94150000D01*
X145775500Y-94000500D02*
X146575000Y-94800000D01*
X149475000Y-94475000D02*
X149695000Y-94695000D01*
X146575000Y-94800000D02*
X147450000Y-94800000D01*
X149950000Y-94350000D02*
X149950000Y-94610000D01*
X149865000Y-94695000D02*
X149695000Y-94695000D01*
X148600000Y-94150000D02*
X148925000Y-94475000D01*
X147450000Y-94800000D02*
X148100000Y-94150000D01*
X144339602Y-94000500D02*
X145775500Y-94000500D01*
%TO.N,/Neuropixels 1.0/D1*%
X149725000Y-93625000D02*
X149600000Y-93750000D01*
X147600000Y-93850000D02*
X148100000Y-93850000D01*
X148690000Y-93260000D02*
X149660000Y-93260000D01*
X149725000Y-93325000D02*
X149725000Y-93625000D01*
X146495000Y-94195000D02*
X147255000Y-94195000D01*
X144150000Y-93250000D02*
X144250000Y-93150000D01*
X144150000Y-93400000D02*
X144150000Y-93250000D01*
X144450000Y-93500000D02*
X144250000Y-93500000D01*
X149600000Y-93750000D02*
X149249502Y-93750000D01*
X144250000Y-93500000D02*
X144150000Y-93400000D01*
X144250000Y-93150000D02*
X145450000Y-93150000D01*
X147255000Y-94195000D02*
X147600000Y-93850000D01*
X148100000Y-93850000D02*
X148690000Y-93260000D01*
X149660000Y-93260000D02*
X149725000Y-93325000D01*
X145450000Y-93150000D02*
X146495000Y-94195000D01*
%TO.N,/Neuropixels 1.0/D0*%
X146919750Y-98170250D02*
X145909500Y-97160000D01*
X149540000Y-96980000D02*
X149540000Y-97740000D01*
X149540000Y-97740000D02*
X149109750Y-98170250D01*
X148550000Y-96400000D02*
X148850000Y-96700000D01*
X149260000Y-96700000D02*
X149540000Y-96980000D01*
X149109750Y-98170250D02*
X146919750Y-98170250D01*
X145060000Y-97160000D02*
X144950000Y-97270000D01*
X145909500Y-97160000D02*
X145060000Y-97160000D01*
X148850000Y-96700000D02*
X149260000Y-96700000D01*
%TO.N,/Perpherials/GPIO0*%
X148999500Y-92400500D02*
X149150000Y-92250000D01*
X139850000Y-89100000D02*
X140320000Y-89570000D01*
X147150000Y-92600000D02*
X147349500Y-92400500D01*
X146203554Y-92600000D02*
X147150000Y-92600000D01*
X147349500Y-92400500D02*
X148999500Y-92400500D01*
X143850000Y-91000000D02*
X144603554Y-91000000D01*
X144603554Y-91000000D02*
X146203554Y-92600000D01*
X140320000Y-89570000D02*
X142150000Y-89570000D01*
X139850000Y-87050000D02*
X139850000Y-89100000D01*
X142900000Y-90050000D02*
X143850000Y-91000000D01*
X142150000Y-89570000D02*
X142630000Y-90050000D01*
X142630000Y-90050000D02*
X142900000Y-90050000D01*
%TO.N,/Perpherials/GPIO1*%
X140650000Y-89350000D02*
X140200000Y-88900000D01*
X142290000Y-89350000D02*
X140650000Y-89350000D01*
X144850000Y-90750000D02*
X143960000Y-90750000D01*
X140200000Y-88900000D02*
X140200000Y-87050000D01*
X148729500Y-92200500D02*
X147199500Y-92200500D01*
X143010000Y-89800000D02*
X142740000Y-89800000D01*
X142740000Y-89800000D02*
X142290000Y-89350000D01*
X147199500Y-92200500D02*
X147050000Y-92350000D01*
X143960000Y-90750000D02*
X143010000Y-89800000D01*
X147050000Y-92350000D02*
X146450000Y-92350000D01*
X146450000Y-92350000D02*
X144850000Y-90750000D01*
X149288276Y-91641724D02*
X148729500Y-92200500D01*
X149288276Y-91232529D02*
X149288276Y-91641724D01*
%TO.N,Net-(R12-Pad1)*%
X139025500Y-92994101D02*
X139050000Y-92969601D01*
X139050000Y-91490000D02*
X139411004Y-91128996D01*
X139411004Y-91128996D02*
X139798996Y-91128996D01*
X139798996Y-91128996D02*
X140026596Y-90901397D01*
X139050000Y-92969601D02*
X139050000Y-91490000D01*
%TO.N,Net-(U5-GPIO3{slash}CLKIN)*%
X149900000Y-91040000D02*
X149900000Y-92201502D01*
X149900000Y-92201502D02*
X149151002Y-92950500D01*
X149290000Y-90430000D02*
X149900000Y-91040000D01*
D15*
%TO.N,+1.8VA*%
X136509592Y-94249592D02*
X136509592Y-97426502D01*
X136579094Y-93019094D02*
X136579094Y-94180090D01*
X136579094Y-94180090D02*
X136509592Y-94249592D01*
D16*
%TO.N,/Neuropixels 1.0/DCLK*%
X143490000Y-97790000D02*
X142880000Y-98400000D01*
X142745000Y-97705000D02*
X142050000Y-97705000D01*
X141810000Y-98240000D02*
X141970000Y-98400000D01*
X143765327Y-96754673D02*
X143760000Y-96754673D01*
X145420000Y-97699500D02*
X145329500Y-97790000D01*
X145329500Y-97790000D02*
X143490000Y-97790000D01*
X142880000Y-98400000D02*
X142610000Y-98400000D01*
X144828232Y-96420000D02*
X144100000Y-96420000D01*
X143695827Y-96754173D02*
X142745000Y-97705000D01*
X141970000Y-98400000D02*
X142610000Y-98400000D01*
X142050000Y-97705000D02*
X141810000Y-97945000D01*
X144970177Y-96278055D02*
X144828232Y-96420000D01*
X141810000Y-97945000D02*
X141810000Y-98240000D01*
X143740000Y-96754173D02*
X143695827Y-96754173D01*
X144100000Y-96420000D02*
X143765327Y-96754673D01*
%TD*%
%TA.AperFunction,Conductor*%
%TO.N,GND*%
G36*
X144517752Y-86582952D02*
G01*
X144601918Y-86617816D01*
X144766233Y-86650500D01*
X144830186Y-86650500D01*
X144850000Y-86650500D01*
X144884351Y-86650500D01*
X148565649Y-86650500D01*
X148598397Y-86650500D01*
X148601601Y-86650604D01*
X148838209Y-86666113D01*
X148844543Y-86666946D01*
X149075550Y-86712896D01*
X149081711Y-86714546D01*
X149304739Y-86790255D01*
X149310651Y-86792704D01*
X149521878Y-86896870D01*
X149527413Y-86900065D01*
X149641936Y-86976587D01*
X149723234Y-87030909D01*
X149728319Y-87034811D01*
X149905379Y-87190088D01*
X149909911Y-87194620D01*
X150065188Y-87371680D01*
X150069090Y-87376765D01*
X150125146Y-87460658D01*
X150192790Y-87561895D01*
X150199929Y-87572578D01*
X150203132Y-87578126D01*
X150233829Y-87640372D01*
X150307293Y-87789344D01*
X150309746Y-87795265D01*
X150385450Y-88018280D01*
X150387105Y-88024459D01*
X150433050Y-88255438D01*
X150433886Y-88261792D01*
X150449395Y-88498398D01*
X150449500Y-88501603D01*
X150449500Y-90265649D01*
X150449500Y-90300000D01*
X150449500Y-90400656D01*
X150449833Y-90402545D01*
X150450000Y-90406374D01*
X150450000Y-93013626D01*
X150449833Y-93017454D01*
X150449500Y-93019344D01*
X150449500Y-93021485D01*
X150449500Y-98800500D01*
X150435148Y-98835148D01*
X150400500Y-98849500D01*
X144054351Y-98849500D01*
X144020000Y-98849500D01*
X143919344Y-98849500D01*
X143917454Y-98849833D01*
X143913626Y-98850000D01*
X140106374Y-98850000D01*
X140102545Y-98849833D01*
X140100656Y-98849500D01*
X140098515Y-98849500D01*
X134799500Y-98849500D01*
X134764852Y-98835148D01*
X134750500Y-98800500D01*
X134750500Y-93803077D01*
X135387572Y-93803077D01*
X135388513Y-93807808D01*
X135404131Y-93886330D01*
X135404132Y-93886332D01*
X135405073Y-93891063D01*
X135421977Y-93916362D01*
X135452112Y-93961463D01*
X135454913Y-93965654D01*
X135529504Y-94015494D01*
X135617490Y-94032995D01*
X135705476Y-94015494D01*
X135780067Y-93965654D01*
X135829907Y-93891063D01*
X135847408Y-93803077D01*
X135829907Y-93715091D01*
X135780067Y-93640500D01*
X135771738Y-93634935D01*
X135718706Y-93599500D01*
X135705476Y-93590660D01*
X135700745Y-93589719D01*
X135700743Y-93589718D01*
X135622221Y-93574100D01*
X135617490Y-93573159D01*
X135612759Y-93574100D01*
X135534236Y-93589718D01*
X135534232Y-93589719D01*
X135529504Y-93590660D01*
X135525492Y-93593340D01*
X135525491Y-93593341D01*
X135458924Y-93637819D01*
X135458921Y-93637821D01*
X135454913Y-93640500D01*
X135452234Y-93644508D01*
X135452232Y-93644511D01*
X135407754Y-93711078D01*
X135405073Y-93715091D01*
X135404132Y-93719819D01*
X135404131Y-93719823D01*
X135388513Y-93798346D01*
X135387572Y-93803077D01*
X134750500Y-93803077D01*
X134750500Y-92501485D01*
X134750500Y-92499344D01*
X134750166Y-92497454D01*
X134750000Y-92493626D01*
X134750000Y-91731006D01*
X134764352Y-91696358D01*
X134799000Y-91682006D01*
X135002370Y-91682006D01*
X135008821Y-91682006D01*
X135020999Y-91674973D01*
X135032815Y-91670079D01*
X135046398Y-91666441D01*
X135103429Y-91609411D01*
X135103429Y-91609409D01*
X135577986Y-91134852D01*
X135612635Y-91120500D01*
X135975940Y-91120500D01*
X136008248Y-91132660D01*
X136024521Y-91163105D01*
X136016682Y-91196721D01*
X136011905Y-91203872D01*
X136010964Y-91208600D01*
X136010963Y-91208604D01*
X135993529Y-91296255D01*
X135992463Y-91301612D01*
X135993405Y-91306348D01*
X135994551Y-91312107D01*
X136011905Y-91399352D01*
X136014587Y-91403366D01*
X136039113Y-91440073D01*
X136047371Y-91467295D01*
X136047371Y-91590551D01*
X136033019Y-91625199D01*
X135998371Y-91639551D01*
X135963723Y-91625199D01*
X135951094Y-91612570D01*
X135938852Y-91592145D01*
X135937684Y-91568365D01*
X135941537Y-91548996D01*
X135924036Y-91461010D01*
X135874196Y-91386419D01*
X135799605Y-91336579D01*
X135794874Y-91335638D01*
X135794872Y-91335637D01*
X135716350Y-91320019D01*
X135711619Y-91319078D01*
X135706888Y-91320019D01*
X135628365Y-91335637D01*
X135628361Y-91335638D01*
X135623633Y-91336579D01*
X135619621Y-91339259D01*
X135619620Y-91339260D01*
X135553053Y-91383738D01*
X135553050Y-91383740D01*
X135549042Y-91386419D01*
X135546363Y-91390427D01*
X135546361Y-91390430D01*
X135502244Y-91456457D01*
X135499202Y-91461010D01*
X135498261Y-91465738D01*
X135498260Y-91465742D01*
X135485414Y-91530328D01*
X135481701Y-91548996D01*
X135499202Y-91636982D01*
X135501882Y-91640993D01*
X135502730Y-91642262D01*
X135510678Y-91663985D01*
X135510810Y-91665154D01*
X135511119Y-91670652D01*
X135511119Y-91679234D01*
X135511729Y-91681908D01*
X135511730Y-91681914D01*
X135513028Y-91687599D01*
X135513948Y-91693015D01*
X135516710Y-91717534D01*
X135517503Y-91724568D01*
X135520438Y-91729240D01*
X135522263Y-91734454D01*
X135522216Y-91734470D01*
X135522660Y-91735541D01*
X135522705Y-91735520D01*
X135525100Y-91740494D01*
X135526329Y-91745875D01*
X135539199Y-91762014D01*
X135546126Y-91770700D01*
X135549303Y-91775178D01*
X135552403Y-91780110D01*
X135552405Y-91780113D01*
X135553871Y-91782445D01*
X135555818Y-91784392D01*
X135559937Y-91788511D01*
X135563598Y-91792608D01*
X135579950Y-91813113D01*
X135579951Y-91813114D01*
X135583395Y-91817432D01*
X135588370Y-91819828D01*
X135592687Y-91823270D01*
X135592654Y-91823310D01*
X135599819Y-91828393D01*
X135853921Y-92082495D01*
X135867331Y-92107584D01*
X135864543Y-92135895D01*
X135846496Y-92157885D01*
X135773410Y-92206718D01*
X135773407Y-92206720D01*
X135769399Y-92209399D01*
X135766720Y-92213407D01*
X135766718Y-92213410D01*
X135716714Y-92288248D01*
X135716712Y-92288250D01*
X135714034Y-92292260D01*
X135713093Y-92296988D01*
X135713092Y-92296992D01*
X135704938Y-92337986D01*
X135694592Y-92390000D01*
X135695534Y-92394736D01*
X135713092Y-92483007D01*
X135713093Y-92483009D01*
X135714034Y-92487740D01*
X135716713Y-92491750D01*
X135716714Y-92491751D01*
X135748331Y-92539071D01*
X135769399Y-92570601D01*
X135852260Y-92625966D01*
X135950000Y-92645408D01*
X136047740Y-92625966D01*
X136130601Y-92570601D01*
X136182116Y-92493500D01*
X136204104Y-92475456D01*
X136232415Y-92472667D01*
X136257504Y-92486078D01*
X136483015Y-92711589D01*
X136496425Y-92736678D01*
X136493637Y-92764989D01*
X136475590Y-92786979D01*
X136402504Y-92835812D01*
X136402501Y-92835814D01*
X136398493Y-92838493D01*
X136395814Y-92842501D01*
X136395812Y-92842504D01*
X136345808Y-92917342D01*
X136345806Y-92917344D01*
X136343128Y-92921354D01*
X136342187Y-92926082D01*
X136342186Y-92926086D01*
X136326942Y-93002725D01*
X136323686Y-93019094D01*
X136343128Y-93116834D01*
X136345809Y-93120846D01*
X136345810Y-93120848D01*
X136370336Y-93157555D01*
X136378594Y-93184777D01*
X136378594Y-94075135D01*
X136367901Y-94105689D01*
X136361564Y-94113634D01*
X136357911Y-94117723D01*
X136353789Y-94121845D01*
X136353786Y-94121848D01*
X136351844Y-94123791D01*
X136350379Y-94126121D01*
X136350378Y-94126123D01*
X136347277Y-94131057D01*
X136344104Y-94135528D01*
X136330733Y-94152296D01*
X136324302Y-94160361D01*
X136323073Y-94165743D01*
X136320678Y-94170717D01*
X136320633Y-94170695D01*
X136320189Y-94171766D01*
X136320236Y-94171783D01*
X136318412Y-94176994D01*
X136315476Y-94181668D01*
X136314858Y-94187148D01*
X136314857Y-94187153D01*
X136311920Y-94213223D01*
X136311001Y-94218630D01*
X136309704Y-94224313D01*
X136309702Y-94224326D01*
X136309092Y-94227002D01*
X136309092Y-94229753D01*
X136309092Y-94235585D01*
X136308784Y-94241070D01*
X136308385Y-94244616D01*
X136305230Y-94272618D01*
X136307053Y-94277830D01*
X136307672Y-94283315D01*
X136307620Y-94283320D01*
X136309092Y-94291980D01*
X136309092Y-97260819D01*
X136300834Y-97288041D01*
X136276308Y-97324747D01*
X136276306Y-97324749D01*
X136273626Y-97328762D01*
X136272684Y-97333496D01*
X136272684Y-97333497D01*
X136255126Y-97421766D01*
X136254184Y-97426502D01*
X136255126Y-97431238D01*
X136272684Y-97519509D01*
X136272685Y-97519511D01*
X136273626Y-97524242D01*
X136276305Y-97528252D01*
X136276306Y-97528253D01*
X136309484Y-97577909D01*
X136328991Y-97607103D01*
X136333002Y-97609783D01*
X136336416Y-97613197D01*
X136335984Y-97613628D01*
X136351877Y-97633990D01*
X136352632Y-97664723D01*
X136334932Y-97689857D01*
X136305742Y-97699500D01*
X135699500Y-97699500D01*
X135664852Y-97685148D01*
X135650500Y-97650500D01*
X135650500Y-94836418D01*
X135664701Y-94802130D01*
X135668077Y-94799875D01*
X135717917Y-94725284D01*
X135735418Y-94637298D01*
X135717917Y-94549312D01*
X135668077Y-94474721D01*
X135662213Y-94470803D01*
X135624871Y-94445852D01*
X135593486Y-94424881D01*
X135588755Y-94423940D01*
X135588753Y-94423939D01*
X135510231Y-94408321D01*
X135505500Y-94407380D01*
X135500769Y-94408321D01*
X135422246Y-94423939D01*
X135422242Y-94423940D01*
X135417514Y-94424881D01*
X135413502Y-94427561D01*
X135413501Y-94427562D01*
X135346934Y-94472040D01*
X135346931Y-94472042D01*
X135342923Y-94474721D01*
X135340244Y-94478729D01*
X135340242Y-94478732D01*
X135295764Y-94545299D01*
X135293083Y-94549312D01*
X135292142Y-94554040D01*
X135292141Y-94554044D01*
X135278275Y-94623757D01*
X135275582Y-94637298D01*
X135276523Y-94642029D01*
X135292141Y-94720551D01*
X135292142Y-94720553D01*
X135293083Y-94725284D01*
X135319116Y-94764245D01*
X135341242Y-94797359D01*
X135349500Y-94824582D01*
X135349500Y-97640356D01*
X135337340Y-97672664D01*
X135306896Y-97688937D01*
X135273279Y-97681098D01*
X135247740Y-97664034D01*
X135150000Y-97644592D01*
X135145264Y-97645534D01*
X135056992Y-97663092D01*
X135056988Y-97663093D01*
X135052260Y-97664034D01*
X135048250Y-97666712D01*
X135048248Y-97666714D01*
X134973410Y-97716718D01*
X134973407Y-97716720D01*
X134969399Y-97719399D01*
X134966720Y-97723407D01*
X134966718Y-97723410D01*
X134916714Y-97798248D01*
X134916712Y-97798250D01*
X134914034Y-97802260D01*
X134913093Y-97806988D01*
X134913092Y-97806992D01*
X134901602Y-97864757D01*
X134894592Y-97900000D01*
X134895534Y-97904736D01*
X134913092Y-97993007D01*
X134913093Y-97993009D01*
X134914034Y-97997740D01*
X134916713Y-98001750D01*
X134916714Y-98001751D01*
X134959303Y-98065492D01*
X134969399Y-98080601D01*
X135052260Y-98135966D01*
X135150000Y-98155408D01*
X135247740Y-98135966D01*
X135288460Y-98108758D01*
X135315683Y-98100500D01*
X135497410Y-98100500D01*
X135542590Y-98100500D01*
X138907612Y-98100500D01*
X138916271Y-98101971D01*
X138916277Y-98101920D01*
X138921760Y-98102537D01*
X138926974Y-98104362D01*
X138958521Y-98100808D01*
X138964007Y-98100500D01*
X138969836Y-98100500D01*
X138972590Y-98100500D01*
X138980960Y-98098589D01*
X138986367Y-98097670D01*
X139017924Y-98094116D01*
X139022598Y-98091178D01*
X139027812Y-98089354D01*
X139027829Y-98089402D01*
X139028894Y-98088961D01*
X139028872Y-98088914D01*
X139033844Y-98086519D01*
X139039231Y-98085290D01*
X139064064Y-98065485D01*
X139068537Y-98062312D01*
X139075801Y-98057748D01*
X139081877Y-98051671D01*
X139085946Y-98048033D01*
X139110788Y-98028224D01*
X139113183Y-98023249D01*
X139116626Y-98018932D01*
X139116665Y-98018963D01*
X139121747Y-98011800D01*
X139961802Y-97171746D01*
X139968965Y-97166665D01*
X139968933Y-97166625D01*
X139973246Y-97163184D01*
X139978224Y-97160788D01*
X139998029Y-97135951D01*
X140001667Y-97131882D01*
X140007748Y-97125802D01*
X140009215Y-97123467D01*
X140012313Y-97118536D01*
X140015497Y-97114048D01*
X140017581Y-97111435D01*
X140035290Y-97089231D01*
X140036518Y-97083847D01*
X140038915Y-97078872D01*
X140038961Y-97078894D01*
X140039402Y-97077829D01*
X140039354Y-97077812D01*
X140041178Y-97072598D01*
X140044116Y-97067924D01*
X140047670Y-97036367D01*
X140048589Y-97030960D01*
X140050500Y-97022590D01*
X140050500Y-97014007D01*
X140050808Y-97008522D01*
X140052022Y-96997748D01*
X140054362Y-96976974D01*
X140052538Y-96971762D01*
X140051920Y-96966277D01*
X140051971Y-96966271D01*
X140050500Y-96957612D01*
X140050500Y-94053345D01*
X140064852Y-94018697D01*
X140287835Y-93795714D01*
X140511802Y-93571746D01*
X140518965Y-93566665D01*
X140518933Y-93566625D01*
X140523246Y-93563184D01*
X140528224Y-93560788D01*
X140548029Y-93535951D01*
X140551667Y-93531882D01*
X140557748Y-93525802D01*
X140561342Y-93520082D01*
X140562312Y-93518537D01*
X140565485Y-93514062D01*
X140585290Y-93489231D01*
X140586518Y-93483844D01*
X140588914Y-93478871D01*
X140588961Y-93478893D01*
X140589402Y-93477828D01*
X140589352Y-93477811D01*
X140591174Y-93472603D01*
X140594115Y-93467924D01*
X140597670Y-93436364D01*
X140598586Y-93430973D01*
X140600500Y-93422590D01*
X140600500Y-93414004D01*
X140600808Y-93408518D01*
X140603744Y-93382460D01*
X140603743Y-93382459D01*
X140604362Y-93376974D01*
X140602538Y-93371761D01*
X140601920Y-93366277D01*
X140601971Y-93366271D01*
X140600500Y-93357612D01*
X140600500Y-93202690D01*
X140606286Y-93179591D01*
X140622278Y-93161948D01*
X140640907Y-93149500D01*
X140654660Y-93140311D01*
X140710025Y-93057450D01*
X140729467Y-92959710D01*
X140710025Y-92861970D01*
X140682817Y-92821249D01*
X140674559Y-92794027D01*
X140674559Y-91037864D01*
X140685249Y-91007313D01*
X140712656Y-90990092D01*
X140744819Y-90993716D01*
X140759943Y-91001000D01*
X140834537Y-91001000D01*
X140840057Y-91001000D01*
X140912236Y-90966240D01*
X140962186Y-90903605D01*
X140974444Y-90849895D01*
X140993861Y-90820837D01*
X141027702Y-90812107D01*
X141058752Y-90828148D01*
X141067325Y-90850607D01*
X141069987Y-90850000D01*
X141085801Y-90919289D01*
X141087814Y-90928105D01*
X141091254Y-90932419D01*
X141091255Y-90932420D01*
X141126129Y-90976151D01*
X141137764Y-90990740D01*
X141209943Y-91025500D01*
X141284537Y-91025500D01*
X141290057Y-91025500D01*
X141362236Y-90990740D01*
X141412186Y-90928105D01*
X141420409Y-90892075D01*
X141435529Y-90866444D01*
X141462695Y-90854289D01*
X141467536Y-90853743D01*
X141473026Y-90854362D01*
X141478238Y-90852538D01*
X141483725Y-90851920D01*
X141483730Y-90851971D01*
X141492388Y-90850500D01*
X142410500Y-90850500D01*
X142445148Y-90864852D01*
X142459500Y-90899500D01*
X142459500Y-90928152D01*
X142451242Y-90955375D01*
X142429675Y-90987652D01*
X142429673Y-90987654D01*
X142426995Y-90991664D01*
X142426054Y-90996392D01*
X142426053Y-90996396D01*
X142410624Y-91073963D01*
X142407553Y-91089404D01*
X142408495Y-91094140D01*
X142426995Y-91187144D01*
X142426145Y-91187313D01*
X142427839Y-91213185D01*
X142410337Y-91239375D01*
X142380509Y-91249500D01*
X142359673Y-91249500D01*
X142354088Y-91252723D01*
X142354085Y-91252725D01*
X142347492Y-91256532D01*
X142335680Y-91261425D01*
X142332594Y-91262252D01*
X142322096Y-91265065D01*
X142317538Y-91269622D01*
X142317536Y-91269624D01*
X142265064Y-91322096D01*
X141922096Y-91665065D01*
X141869626Y-91717534D01*
X141869624Y-91717536D01*
X141865065Y-91722096D01*
X141863396Y-91728323D01*
X141863395Y-91728326D01*
X141861425Y-91735680D01*
X141856532Y-91747492D01*
X141852725Y-91754085D01*
X141852723Y-91754088D01*
X141849500Y-91759673D01*
X141849499Y-91766119D01*
X141849499Y-91766123D01*
X141849499Y-91801895D01*
X141849499Y-91840326D01*
X141849500Y-91840328D01*
X141849500Y-92617365D01*
X141845770Y-92636116D01*
X141835148Y-92652013D01*
X140630489Y-93856671D01*
X140599856Y-93869359D01*
X140600000Y-93870082D01*
X140596369Y-93870804D01*
X140596367Y-93870804D01*
X140595269Y-93871023D01*
X140516746Y-93886641D01*
X140516742Y-93886642D01*
X140512014Y-93887583D01*
X140508002Y-93890263D01*
X140508001Y-93890264D01*
X140441434Y-93934742D01*
X140441431Y-93934744D01*
X140437423Y-93937423D01*
X140434744Y-93941431D01*
X140434742Y-93941434D01*
X140390264Y-94008001D01*
X140387583Y-94012014D01*
X140386642Y-94016742D01*
X140386641Y-94016746D01*
X140374678Y-94076895D01*
X140370082Y-94100000D01*
X140371023Y-94104731D01*
X140386641Y-94183253D01*
X140386642Y-94183255D01*
X140387583Y-94187986D01*
X140396956Y-94202013D01*
X140434310Y-94257919D01*
X140437423Y-94262577D01*
X140512014Y-94312417D01*
X140600000Y-94329918D01*
X140687986Y-94312417D01*
X140762577Y-94262577D01*
X140812417Y-94187986D01*
X140829918Y-94100000D01*
X140829860Y-94099713D01*
X140832704Y-94085410D01*
X140843325Y-94069512D01*
X142120430Y-92792409D01*
X142134935Y-92777904D01*
X142138573Y-92764321D01*
X142143467Y-92752505D01*
X142150500Y-92740327D01*
X142150501Y-92659674D01*
X142150500Y-92659672D01*
X142150500Y-92414607D01*
X142163580Y-92381279D01*
X142195838Y-92365744D01*
X142230050Y-92376297D01*
X142234324Y-92379705D01*
X142237764Y-92384019D01*
X142309943Y-92418779D01*
X142384537Y-92418779D01*
X142390057Y-92418779D01*
X142462236Y-92384019D01*
X142512186Y-92321384D01*
X142530013Y-92243279D01*
X142523371Y-92214179D01*
X142526415Y-92183264D01*
X142547439Y-92160391D01*
X142577992Y-92154758D01*
X142605790Y-92168629D01*
X142878651Y-92441490D01*
X142892473Y-92468948D01*
X142887217Y-92499236D01*
X142864954Y-92520433D01*
X142834445Y-92524197D01*
X142797912Y-92516931D01*
X142797911Y-92516931D01*
X142793180Y-92515990D01*
X142788449Y-92516931D01*
X142709926Y-92532549D01*
X142709922Y-92532550D01*
X142705194Y-92533491D01*
X142701182Y-92536171D01*
X142701181Y-92536172D01*
X142634614Y-92580650D01*
X142634611Y-92580652D01*
X142630603Y-92583331D01*
X142627924Y-92587339D01*
X142627922Y-92587342D01*
X142586391Y-92649499D01*
X142580763Y-92657922D01*
X142579822Y-92662650D01*
X142579821Y-92662654D01*
X142568262Y-92720769D01*
X142563262Y-92745908D01*
X142564203Y-92750639D01*
X142579821Y-92829161D01*
X142579822Y-92829163D01*
X142580763Y-92833894D01*
X142583444Y-92837906D01*
X142627516Y-92903866D01*
X142635538Y-92935892D01*
X142621422Y-92965737D01*
X142572010Y-93015150D01*
X142556117Y-93025770D01*
X142537365Y-93029500D01*
X142410327Y-93029500D01*
X142329673Y-93029500D01*
X142324088Y-93032723D01*
X142324085Y-93032725D01*
X142317492Y-93036532D01*
X142305679Y-93041425D01*
X142292096Y-93045065D01*
X142287538Y-93049622D01*
X142287536Y-93049624D01*
X142235064Y-93102096D01*
X141422096Y-93915065D01*
X141369626Y-93967534D01*
X141369624Y-93967536D01*
X141365065Y-93972096D01*
X141363396Y-93978323D01*
X141363395Y-93978326D01*
X141361425Y-93985680D01*
X141356532Y-93997492D01*
X141352725Y-94004085D01*
X141352723Y-94004088D01*
X141349500Y-94009673D01*
X141349499Y-94016119D01*
X141349499Y-94016123D01*
X141349499Y-94053345D01*
X141349499Y-94090326D01*
X141349500Y-94090327D01*
X141349500Y-94090328D01*
X141349500Y-95029879D01*
X141336811Y-95060512D01*
X141337423Y-95060921D01*
X141335367Y-95063997D01*
X141335365Y-95063999D01*
X141334744Y-95064929D01*
X141334742Y-95064932D01*
X141290264Y-95131499D01*
X141287583Y-95135512D01*
X141286642Y-95140240D01*
X141286641Y-95140244D01*
X141274862Y-95199466D01*
X141270082Y-95223498D01*
X141271023Y-95228229D01*
X141286641Y-95306751D01*
X141286642Y-95306753D01*
X141287583Y-95311484D01*
X141290264Y-95315496D01*
X141334489Y-95381685D01*
X141335366Y-95382997D01*
X141335367Y-95382998D01*
X141337423Y-95386075D01*
X141336811Y-95386483D01*
X141349500Y-95417117D01*
X141349500Y-95967365D01*
X141335148Y-96002013D01*
X140343202Y-96993958D01*
X140343200Y-96993960D01*
X140338641Y-96998520D01*
X140336972Y-97004747D01*
X140336971Y-97004750D01*
X140335001Y-97012104D01*
X140330108Y-97023916D01*
X140326300Y-97030511D01*
X140326299Y-97030514D01*
X140323076Y-97036097D01*
X140323075Y-97041392D01*
X140312231Y-97060175D01*
X140310999Y-97060999D01*
X140308322Y-97065004D01*
X140308319Y-97065008D01*
X140264064Y-97131242D01*
X140261159Y-97135590D01*
X140260218Y-97140318D01*
X140260217Y-97140322D01*
X140244915Y-97217255D01*
X140243658Y-97223576D01*
X140244599Y-97228307D01*
X140260217Y-97306829D01*
X140260218Y-97306831D01*
X140261159Y-97311562D01*
X140310999Y-97386153D01*
X140385590Y-97435993D01*
X140473576Y-97453494D01*
X140561562Y-97435993D01*
X140636153Y-97386153D01*
X140638838Y-97382133D01*
X140641585Y-97379387D01*
X140671431Y-97365269D01*
X140703456Y-97373290D01*
X140762014Y-97412417D01*
X140850000Y-97429918D01*
X140937986Y-97412417D01*
X141012577Y-97362577D01*
X141062417Y-97287986D01*
X141079918Y-97200000D01*
X141079860Y-97199713D01*
X141082704Y-97185410D01*
X141093325Y-97169512D01*
X142220430Y-96042409D01*
X142234935Y-96027904D01*
X142238573Y-96014321D01*
X142243467Y-96002505D01*
X142250500Y-95990327D01*
X142250501Y-95909674D01*
X142250500Y-95909672D01*
X142250500Y-94520685D01*
X142258758Y-94493462D01*
X142259027Y-94493059D01*
X142262417Y-94487986D01*
X142264894Y-94475531D01*
X142283122Y-94446215D01*
X142316157Y-94436193D01*
X142347601Y-94450439D01*
X142519570Y-94622409D01*
X143275065Y-95377904D01*
X143332096Y-95434935D01*
X143345677Y-95438573D01*
X143357497Y-95443469D01*
X143369673Y-95450500D01*
X143390186Y-95450500D01*
X143450326Y-95450500D01*
X144081254Y-95450500D01*
X144108857Y-95459014D01*
X144126867Y-95481599D01*
X144129024Y-95510402D01*
X144119987Y-95550000D01*
X144121216Y-95555385D01*
X144135735Y-95619000D01*
X144137814Y-95628105D01*
X144141254Y-95632419D01*
X144141255Y-95632420D01*
X144184322Y-95686425D01*
X144184324Y-95686426D01*
X144187764Y-95690740D01*
X144190620Y-95692115D01*
X144205227Y-95712700D01*
X144206749Y-95739787D01*
X144193627Y-95763532D01*
X144172014Y-95785147D01*
X144156117Y-95795770D01*
X144137364Y-95799500D01*
X143915488Y-95799500D01*
X143896735Y-95795770D01*
X143881911Y-95785863D01*
X143879947Y-95782923D01*
X143875935Y-95780242D01*
X143875934Y-95780241D01*
X143809368Y-95735764D01*
X143809369Y-95735764D01*
X143805356Y-95733083D01*
X143800625Y-95732142D01*
X143800623Y-95732141D01*
X143722101Y-95716523D01*
X143717370Y-95715582D01*
X143712639Y-95716523D01*
X143634116Y-95732141D01*
X143634112Y-95732142D01*
X143629384Y-95733083D01*
X143625372Y-95735763D01*
X143625371Y-95735764D01*
X143558804Y-95780242D01*
X143558801Y-95780244D01*
X143554793Y-95782923D01*
X143552114Y-95786931D01*
X143552112Y-95786934D01*
X143507634Y-95853501D01*
X143504953Y-95857514D01*
X143504012Y-95862242D01*
X143504011Y-95862246D01*
X143488393Y-95940769D01*
X143487452Y-95945500D01*
X143488393Y-95950231D01*
X143488393Y-95950236D01*
X143500468Y-96010941D01*
X143497680Y-96039251D01*
X143479633Y-96061242D01*
X143452410Y-96069500D01*
X143409674Y-96069500D01*
X143404089Y-96072723D01*
X143404086Y-96072725D01*
X143397493Y-96076532D01*
X143385680Y-96081425D01*
X143372097Y-96085065D01*
X143367539Y-96089622D01*
X143367537Y-96089624D01*
X143343527Y-96113634D01*
X143315066Y-96142095D01*
X143315065Y-96142096D01*
X143191039Y-96266123D01*
X143077014Y-96380148D01*
X143061118Y-96390770D01*
X143042366Y-96394500D01*
X142285327Y-96394500D01*
X142204673Y-96394500D01*
X142199088Y-96397723D01*
X142199085Y-96397725D01*
X142192492Y-96401532D01*
X142180679Y-96406425D01*
X142167096Y-96410065D01*
X142162538Y-96414622D01*
X142162536Y-96414624D01*
X141922096Y-96655064D01*
X141922096Y-96655065D01*
X141869626Y-96707534D01*
X141869624Y-96707536D01*
X141865065Y-96712096D01*
X141863396Y-96718323D01*
X141863395Y-96718326D01*
X141861425Y-96725680D01*
X141856532Y-96737492D01*
X141852725Y-96744085D01*
X141852723Y-96744088D01*
X141849500Y-96749673D01*
X141849499Y-96756119D01*
X141849499Y-96756123D01*
X141849499Y-96791623D01*
X141849499Y-96830326D01*
X141849500Y-96830328D01*
X141849500Y-97106381D01*
X141836811Y-97137014D01*
X141837423Y-97137423D01*
X141835367Y-97140499D01*
X141835365Y-97140501D01*
X141834744Y-97141431D01*
X141834742Y-97141434D01*
X141790264Y-97208001D01*
X141787583Y-97212014D01*
X141786642Y-97216742D01*
X141786641Y-97216746D01*
X141774477Y-97277904D01*
X141770082Y-97300000D01*
X141771023Y-97304731D01*
X141786641Y-97383253D01*
X141786642Y-97383255D01*
X141787583Y-97387986D01*
X141806883Y-97416870D01*
X141823507Y-97441751D01*
X141837423Y-97462577D01*
X141912014Y-97512417D01*
X141916746Y-97513358D01*
X141916748Y-97513359D01*
X141920294Y-97514064D01*
X141949611Y-97532291D01*
X141959634Y-97565326D01*
X141945388Y-97596771D01*
X141915066Y-97627094D01*
X141915065Y-97627093D01*
X141915065Y-97627095D01*
X141915064Y-97627096D01*
X141732096Y-97810065D01*
X141679626Y-97862534D01*
X141679624Y-97862536D01*
X141675065Y-97867096D01*
X141673396Y-97873323D01*
X141673395Y-97873326D01*
X141671425Y-97880680D01*
X141666532Y-97892492D01*
X141662725Y-97899085D01*
X141662723Y-97899088D01*
X141659500Y-97904673D01*
X141659499Y-97911119D01*
X141659499Y-97911123D01*
X141659499Y-97954852D01*
X141659499Y-97985326D01*
X141659500Y-97985328D01*
X141659500Y-98199673D01*
X141659500Y-98280327D01*
X141662724Y-98285911D01*
X141662725Y-98285914D01*
X141666531Y-98292506D01*
X141671426Y-98304323D01*
X141673395Y-98311674D01*
X141673396Y-98311676D01*
X141675065Y-98317904D01*
X141709917Y-98352757D01*
X141732094Y-98374934D01*
X141732100Y-98374939D01*
X141835065Y-98477903D01*
X141835065Y-98477904D01*
X141892096Y-98534935D01*
X141905677Y-98538573D01*
X141917497Y-98543469D01*
X141929673Y-98550500D01*
X141950186Y-98550500D01*
X142010326Y-98550500D01*
X142590186Y-98550500D01*
X142629814Y-98550500D01*
X142839673Y-98550500D01*
X142899814Y-98550500D01*
X142913876Y-98550500D01*
X142920327Y-98550500D01*
X142932505Y-98543467D01*
X142944321Y-98538573D01*
X142957904Y-98534935D01*
X143014935Y-98477905D01*
X143014935Y-98477903D01*
X143145466Y-98347372D01*
X146005740Y-98347372D01*
X146023567Y-98425477D01*
X146027007Y-98429791D01*
X146027008Y-98429792D01*
X146065375Y-98477903D01*
X146073517Y-98488112D01*
X146145696Y-98522872D01*
X146220290Y-98522872D01*
X146225810Y-98522872D01*
X146297989Y-98488112D01*
X146347939Y-98425477D01*
X146365766Y-98347372D01*
X146347939Y-98269267D01*
X146297989Y-98206632D01*
X146225810Y-98171872D01*
X146145696Y-98171872D01*
X146140723Y-98174266D01*
X146140722Y-98174267D01*
X146078491Y-98204236D01*
X146078489Y-98204237D01*
X146073517Y-98206632D01*
X146070076Y-98210945D01*
X146070074Y-98210948D01*
X146027008Y-98264951D01*
X146027006Y-98264953D01*
X146023567Y-98269267D01*
X146022339Y-98274646D01*
X146022338Y-98274649D01*
X146012466Y-98317904D01*
X146005740Y-98347372D01*
X143145466Y-98347372D01*
X143537986Y-97954852D01*
X143572635Y-97940500D01*
X145363376Y-97940500D01*
X145369827Y-97940500D01*
X145380982Y-97934058D01*
X145410441Y-97929194D01*
X145410441Y-97928477D01*
X145414783Y-97928477D01*
X145415048Y-97928433D01*
X145420000Y-97929418D01*
X145507986Y-97911917D01*
X145582577Y-97862077D01*
X145632417Y-97787486D01*
X145649918Y-97699500D01*
X145632417Y-97611514D01*
X145582577Y-97536923D01*
X145572093Y-97529918D01*
X145526138Y-97499212D01*
X145507986Y-97487083D01*
X145503255Y-97486142D01*
X145503253Y-97486141D01*
X145424731Y-97470523D01*
X145420000Y-97469582D01*
X145415269Y-97470523D01*
X145336746Y-97486141D01*
X145336742Y-97486142D01*
X145332014Y-97487083D01*
X145328002Y-97489763D01*
X145328001Y-97489764D01*
X145261434Y-97534242D01*
X145261431Y-97534244D01*
X145257423Y-97536923D01*
X145254744Y-97540931D01*
X145254742Y-97540934D01*
X145213211Y-97603091D01*
X145207583Y-97611514D01*
X145207551Y-97611674D01*
X145191492Y-97631242D01*
X145164269Y-97639500D01*
X143530327Y-97639500D01*
X143449673Y-97639500D01*
X143444088Y-97642723D01*
X143444085Y-97642725D01*
X143437492Y-97646532D01*
X143425679Y-97651425D01*
X143412096Y-97655065D01*
X143407538Y-97659622D01*
X143407536Y-97659624D01*
X143355064Y-97712096D01*
X142832013Y-98235148D01*
X142816117Y-98245770D01*
X142797365Y-98249500D01*
X142629814Y-98249500D01*
X142052635Y-98249500D01*
X142017987Y-98235148D01*
X141974852Y-98192013D01*
X141960500Y-98157365D01*
X141960500Y-98027635D01*
X141974852Y-97992987D01*
X142097987Y-97869852D01*
X142132635Y-97855500D01*
X142778876Y-97855500D01*
X142785327Y-97855500D01*
X142797505Y-97848467D01*
X142809321Y-97843573D01*
X142822904Y-97839935D01*
X142879935Y-97782905D01*
X142879935Y-97782903D01*
X143743313Y-96919525D01*
X143777962Y-96905173D01*
X143799203Y-96905173D01*
X143805654Y-96905173D01*
X143817832Y-96898140D01*
X143829648Y-96893246D01*
X143843231Y-96889608D01*
X143892027Y-96840812D01*
X143923471Y-96826565D01*
X143956505Y-96836585D01*
X143974734Y-96865900D01*
X143979828Y-96891512D01*
X143979831Y-96891520D01*
X143980772Y-96896249D01*
X143998590Y-96922915D01*
X144027517Y-96966209D01*
X144030612Y-96970840D01*
X144105203Y-97020680D01*
X144193189Y-97038181D01*
X144281175Y-97020680D01*
X144302428Y-97006478D01*
X144335478Y-96998569D01*
X144365726Y-97014061D01*
X144378621Y-97045503D01*
X144367961Y-97077772D01*
X144355755Y-97093077D01*
X144355753Y-97093079D01*
X144352314Y-97097393D01*
X144351086Y-97102772D01*
X144351085Y-97102775D01*
X144338099Y-97159672D01*
X144334487Y-97175498D01*
X144335716Y-97180883D01*
X144350247Y-97244550D01*
X144352314Y-97253603D01*
X144355754Y-97257917D01*
X144355755Y-97257918D01*
X144398819Y-97311919D01*
X144402264Y-97316238D01*
X144474443Y-97350998D01*
X144549037Y-97350998D01*
X144554557Y-97350998D01*
X144626736Y-97316238D01*
X144643022Y-97295815D01*
X144674483Y-97277846D01*
X144709688Y-97286402D01*
X144729392Y-97316806D01*
X144736641Y-97353253D01*
X144736642Y-97353255D01*
X144737583Y-97357986D01*
X144753723Y-97382141D01*
X144779262Y-97420364D01*
X144787423Y-97432577D01*
X144862014Y-97482417D01*
X144950000Y-97499918D01*
X145037986Y-97482417D01*
X145112577Y-97432577D01*
X145162417Y-97357986D01*
X145164016Y-97349942D01*
X145180990Y-97321623D01*
X145212076Y-97310500D01*
X145826865Y-97310500D01*
X145861513Y-97324852D01*
X146784815Y-98248154D01*
X146841846Y-98305185D01*
X146855427Y-98308823D01*
X146867247Y-98313719D01*
X146879423Y-98320750D01*
X146899936Y-98320750D01*
X146960076Y-98320750D01*
X149069423Y-98320750D01*
X149129564Y-98320750D01*
X149143626Y-98320750D01*
X149150077Y-98320750D01*
X149162255Y-98313717D01*
X149174071Y-98308823D01*
X149187654Y-98305185D01*
X149244685Y-98248155D01*
X149244685Y-98248153D01*
X149660430Y-97832409D01*
X149674935Y-97817904D01*
X149678573Y-97804321D01*
X149683467Y-97792505D01*
X149690500Y-97780327D01*
X149690500Y-97709436D01*
X149699538Y-97681081D01*
X149723316Y-97663186D01*
X149753065Y-97662351D01*
X149777810Y-97678885D01*
X149782804Y-97685148D01*
X149787264Y-97690740D01*
X149859443Y-97725500D01*
X149934037Y-97725500D01*
X149939557Y-97725500D01*
X150011736Y-97690740D01*
X150061686Y-97628105D01*
X150079513Y-97550000D01*
X150077680Y-97541971D01*
X150073634Y-97524242D01*
X150061686Y-97471895D01*
X150011736Y-97409260D01*
X149939557Y-97374500D01*
X149859443Y-97374500D01*
X149854470Y-97376894D01*
X149854469Y-97376895D01*
X149792238Y-97406864D01*
X149792236Y-97406865D01*
X149787264Y-97409260D01*
X149783823Y-97413573D01*
X149783821Y-97413576D01*
X149777810Y-97421115D01*
X149753065Y-97437649D01*
X149723316Y-97436814D01*
X149699538Y-97418919D01*
X149690500Y-97390564D01*
X149690500Y-96946124D01*
X149690500Y-96939673D01*
X149683469Y-96927497D01*
X149678573Y-96915676D01*
X149674935Y-96902096D01*
X149670376Y-96897537D01*
X149670375Y-96897535D01*
X149617905Y-96845065D01*
X149617903Y-96845064D01*
X149352409Y-96579570D01*
X149352409Y-96579569D01*
X149337904Y-96565065D01*
X149324323Y-96561426D01*
X149312506Y-96556531D01*
X149305915Y-96552726D01*
X149305913Y-96552725D01*
X149300327Y-96549500D01*
X149297792Y-96549499D01*
X149275379Y-96535045D01*
X149264365Y-96507159D01*
X149271658Y-96478077D01*
X149288760Y-96463576D01*
X149287986Y-96462417D01*
X149295051Y-96457696D01*
X149362577Y-96412577D01*
X149412417Y-96337986D01*
X149429918Y-96250000D01*
X149412417Y-96162014D01*
X149362577Y-96087423D01*
X149356550Y-96083396D01*
X149323394Y-96061242D01*
X149292712Y-96040740D01*
X149273536Y-96015751D01*
X149273536Y-95984249D01*
X149292712Y-95959259D01*
X149362577Y-95912577D01*
X149412417Y-95837986D01*
X149429918Y-95750000D01*
X149412417Y-95662014D01*
X149362577Y-95587423D01*
X149358565Y-95584742D01*
X149358564Y-95584741D01*
X149345128Y-95575763D01*
X149325952Y-95550772D01*
X149325953Y-95519271D01*
X149345127Y-95494281D01*
X149392577Y-95462577D01*
X149442417Y-95387986D01*
X149459918Y-95300000D01*
X149442417Y-95212014D01*
X149392577Y-95137423D01*
X149391602Y-95136771D01*
X149380297Y-95117190D01*
X149380297Y-95091825D01*
X149392979Y-95069859D01*
X149425430Y-95037409D01*
X149429517Y-95033322D01*
X149439935Y-95022904D01*
X149443573Y-95009321D01*
X149448467Y-94997505D01*
X149455500Y-94985327D01*
X149455501Y-94904674D01*
X149455500Y-94904672D01*
X149455500Y-94835186D01*
X149455500Y-94814673D01*
X149448469Y-94802497D01*
X149443574Y-94790681D01*
X149442818Y-94787859D01*
X149441759Y-94783905D01*
X149443818Y-94752475D01*
X149464587Y-94728790D01*
X149495484Y-94722643D01*
X149523736Y-94736574D01*
X149560065Y-94772903D01*
X149560065Y-94772904D01*
X149617096Y-94829935D01*
X149630677Y-94833573D01*
X149642497Y-94838469D01*
X149654673Y-94845500D01*
X149735326Y-94845501D01*
X149735328Y-94845500D01*
X149824673Y-94845500D01*
X149884814Y-94845500D01*
X149905327Y-94845500D01*
X149917505Y-94838467D01*
X149929321Y-94833573D01*
X149942904Y-94829935D01*
X149999935Y-94772905D01*
X149999935Y-94772903D01*
X150070430Y-94702409D01*
X150084935Y-94687904D01*
X150088573Y-94674321D01*
X150093467Y-94662505D01*
X150100500Y-94650327D01*
X150100500Y-94569674D01*
X150100500Y-94330186D01*
X150100500Y-94309673D01*
X150093469Y-94297497D01*
X150088573Y-94285676D01*
X150088091Y-94283878D01*
X150084935Y-94272096D01*
X150080376Y-94267537D01*
X150080375Y-94267535D01*
X150027905Y-94215065D01*
X150027903Y-94215064D01*
X149842409Y-94029570D01*
X149827904Y-94015065D01*
X149821672Y-94013395D01*
X149814323Y-94011426D01*
X149802506Y-94006531D01*
X149795914Y-94002725D01*
X149795911Y-94002724D01*
X149790327Y-93999500D01*
X149783879Y-93999499D01*
X149783876Y-93999499D01*
X149709679Y-93999499D01*
X149709678Y-93999499D01*
X149709674Y-93999499D01*
X149709672Y-93999499D01*
X149709671Y-93999500D01*
X149442121Y-93999500D01*
X149407473Y-93985148D01*
X149393121Y-93950500D01*
X149407473Y-93915852D01*
X149408067Y-93915257D01*
X149409002Y-93914632D01*
X149443121Y-93900500D01*
X149633876Y-93900500D01*
X149640327Y-93900500D01*
X149652505Y-93893467D01*
X149664321Y-93888573D01*
X149677904Y-93884935D01*
X149734935Y-93827905D01*
X149734935Y-93827903D01*
X149845430Y-93717409D01*
X149845430Y-93717408D01*
X149859935Y-93702904D01*
X149863573Y-93689321D01*
X149868467Y-93677505D01*
X149875500Y-93665327D01*
X149875501Y-93584673D01*
X149875500Y-93584671D01*
X149875500Y-93305186D01*
X149875500Y-93284673D01*
X149868469Y-93272497D01*
X149863573Y-93260676D01*
X149862833Y-93257913D01*
X149859935Y-93247096D01*
X149855376Y-93242537D01*
X149855375Y-93242535D01*
X149802905Y-93190065D01*
X149802903Y-93190064D01*
X149752409Y-93139570D01*
X149737904Y-93125065D01*
X149731672Y-93123395D01*
X149724323Y-93121426D01*
X149712506Y-93116531D01*
X149705914Y-93112725D01*
X149705911Y-93112724D01*
X149700327Y-93109500D01*
X149693879Y-93109499D01*
X149693876Y-93109499D01*
X149619679Y-93109499D01*
X149619678Y-93109499D01*
X149619674Y-93109499D01*
X149619672Y-93109499D01*
X149619671Y-93109500D01*
X149406319Y-93109500D01*
X149376490Y-93099374D01*
X149358989Y-93073182D01*
X149361028Y-93042063D01*
X149363419Y-93038486D01*
X149380920Y-92950500D01*
X149380862Y-92950213D01*
X149383706Y-92935910D01*
X149394327Y-92920012D01*
X150020430Y-92293911D01*
X150034935Y-92279406D01*
X150038573Y-92265823D01*
X150043467Y-92254007D01*
X150050500Y-92241829D01*
X150050501Y-92161176D01*
X150050500Y-92161174D01*
X150050500Y-91020186D01*
X150050500Y-90999673D01*
X150043469Y-90987497D01*
X150038573Y-90975676D01*
X150038476Y-90975314D01*
X150034935Y-90962096D01*
X150030376Y-90957537D01*
X150030375Y-90957535D01*
X149977905Y-90905065D01*
X149977903Y-90905064D01*
X149533327Y-90460488D01*
X149522704Y-90444588D01*
X149519861Y-90430285D01*
X149519918Y-90430000D01*
X149502417Y-90342014D01*
X149452577Y-90267423D01*
X149377986Y-90217583D01*
X149373255Y-90216642D01*
X149373253Y-90216641D01*
X149294731Y-90201023D01*
X149290000Y-90200082D01*
X149285269Y-90201023D01*
X149206746Y-90216641D01*
X149206742Y-90216642D01*
X149202014Y-90217583D01*
X149198002Y-90220263D01*
X149198001Y-90220264D01*
X149131434Y-90264742D01*
X149131431Y-90264744D01*
X149127423Y-90267423D01*
X149124744Y-90271431D01*
X149124744Y-90271432D01*
X149085627Y-90329974D01*
X149063636Y-90348020D01*
X149035325Y-90350808D01*
X149010237Y-90337398D01*
X148976154Y-90303315D01*
X148962038Y-90273469D01*
X148970061Y-90241443D01*
X148977207Y-90230749D01*
X148992417Y-90207986D01*
X149009918Y-90120000D01*
X148992417Y-90032014D01*
X148942577Y-89957423D01*
X148891183Y-89923083D01*
X148870559Y-89909302D01*
X148849943Y-89879165D01*
X148855891Y-89843140D01*
X148885100Y-89821230D01*
X149061423Y-89773984D01*
X149065429Y-89772527D01*
X149275643Y-89674502D01*
X149279330Y-89672373D01*
X149469324Y-89539338D01*
X149472588Y-89536599D01*
X149505276Y-89503910D01*
X149508129Y-89497021D01*
X149505274Y-89490127D01*
X148606892Y-88591745D01*
X148600000Y-88588890D01*
X148593107Y-88591745D01*
X147692393Y-89492458D01*
X147689760Y-89497020D01*
X147692393Y-89501581D01*
X147727404Y-89536592D01*
X147730681Y-89539341D01*
X147920669Y-89672373D01*
X147924356Y-89674502D01*
X148134570Y-89772527D01*
X148138576Y-89773984D01*
X148362607Y-89834013D01*
X148366810Y-89834755D01*
X148597874Y-89854971D01*
X148602130Y-89854971D01*
X148605691Y-89854659D01*
X148636516Y-89862287D01*
X148656191Y-89887213D01*
X148656453Y-89918967D01*
X148637192Y-89944213D01*
X148621433Y-89954743D01*
X148621431Y-89954744D01*
X148617423Y-89957423D01*
X148614744Y-89961431D01*
X148614742Y-89961434D01*
X148571246Y-90026532D01*
X148567583Y-90032014D01*
X148566642Y-90036742D01*
X148566641Y-90036746D01*
X148557042Y-90085009D01*
X148550082Y-90120000D01*
X148551023Y-90124731D01*
X148566641Y-90203253D01*
X148566642Y-90203255D01*
X148567583Y-90207986D01*
X148575787Y-90220264D01*
X148609977Y-90271434D01*
X148615366Y-90279499D01*
X148615367Y-90279500D01*
X148617423Y-90282577D01*
X148616811Y-90282985D01*
X148629500Y-90313619D01*
X148629500Y-90360327D01*
X148632724Y-90365911D01*
X148632725Y-90365914D01*
X148636531Y-90372506D01*
X148641426Y-90384323D01*
X148643395Y-90391674D01*
X148643396Y-90391676D01*
X148645065Y-90397904D01*
X148676916Y-90429756D01*
X148702094Y-90454934D01*
X148702100Y-90454939D01*
X149198224Y-90951063D01*
X149211634Y-90976151D01*
X149208846Y-91004462D01*
X149190799Y-91026453D01*
X149129710Y-91067271D01*
X149129707Y-91067273D01*
X149125699Y-91069952D01*
X149123020Y-91073960D01*
X149123018Y-91073963D01*
X149082836Y-91134101D01*
X149075859Y-91144543D01*
X149074918Y-91149271D01*
X149074917Y-91149275D01*
X149059803Y-91225266D01*
X149058358Y-91232529D01*
X149059299Y-91237260D01*
X149074917Y-91315782D01*
X149074918Y-91315784D01*
X149075859Y-91320515D01*
X149095738Y-91350266D01*
X149122838Y-91390825D01*
X149123642Y-91392028D01*
X149123643Y-91392029D01*
X149125699Y-91395106D01*
X149125087Y-91395514D01*
X149137776Y-91426148D01*
X149137776Y-91559089D01*
X149123424Y-91593737D01*
X148681513Y-92035648D01*
X148646865Y-92050000D01*
X148214183Y-92050000D01*
X148183632Y-92039310D01*
X148166412Y-92011905D01*
X148169895Y-91980976D01*
X148172186Y-91978105D01*
X148188212Y-91907892D01*
X148188784Y-91905385D01*
X148190013Y-91900000D01*
X148172186Y-91821895D01*
X148122236Y-91759260D01*
X148050057Y-91724500D01*
X147969943Y-91724500D01*
X147964970Y-91726894D01*
X147964969Y-91726895D01*
X147902738Y-91756864D01*
X147902736Y-91756865D01*
X147897764Y-91759260D01*
X147894323Y-91763573D01*
X147894321Y-91763576D01*
X147851255Y-91817579D01*
X147851253Y-91817581D01*
X147847814Y-91821895D01*
X147846586Y-91827274D01*
X147846585Y-91827277D01*
X147832585Y-91888616D01*
X147829987Y-91900000D01*
X147831216Y-91905385D01*
X147845778Y-91969188D01*
X147847814Y-91978105D01*
X147850104Y-91980976D01*
X147853588Y-92011905D01*
X147836368Y-92039310D01*
X147805817Y-92050000D01*
X147239827Y-92050000D01*
X147159173Y-92050000D01*
X147153588Y-92053223D01*
X147153585Y-92053225D01*
X147146992Y-92057032D01*
X147135179Y-92061925D01*
X147121596Y-92065565D01*
X147117038Y-92070122D01*
X147117036Y-92070124D01*
X147092182Y-92094978D01*
X147064565Y-92122595D01*
X147064564Y-92122596D01*
X147002010Y-92185150D01*
X146986117Y-92195770D01*
X146967365Y-92199500D01*
X146532635Y-92199500D01*
X146497987Y-92185148D01*
X146451600Y-92138761D01*
X146437385Y-92107774D01*
X146446823Y-92075015D01*
X146475346Y-92056341D01*
X146479031Y-92055500D01*
X146484557Y-92055500D01*
X146556736Y-92020740D01*
X146606686Y-91958105D01*
X146622263Y-91889857D01*
X146623284Y-91885385D01*
X146624513Y-91880000D01*
X146606686Y-91801895D01*
X146556736Y-91739260D01*
X146546756Y-91734454D01*
X146497516Y-91710741D01*
X146484557Y-91704500D01*
X146404443Y-91704500D01*
X146399470Y-91706894D01*
X146399469Y-91706895D01*
X146337238Y-91736864D01*
X146337236Y-91736865D01*
X146332264Y-91739260D01*
X146328823Y-91743573D01*
X146328821Y-91743576D01*
X146285755Y-91797579D01*
X146285753Y-91797581D01*
X146282314Y-91801895D01*
X146281086Y-91807274D01*
X146281085Y-91807277D01*
X146270900Y-91851899D01*
X146252226Y-91880420D01*
X146219467Y-91889857D01*
X146188481Y-91875642D01*
X144932465Y-90619626D01*
X144927904Y-90615065D01*
X144921672Y-90613395D01*
X144914323Y-90611426D01*
X144902506Y-90606531D01*
X144895914Y-90602725D01*
X144895911Y-90602724D01*
X144891193Y-90600000D01*
X146694487Y-90600000D01*
X146695716Y-90605385D01*
X146698966Y-90619626D01*
X146712314Y-90678105D01*
X146762264Y-90740740D01*
X146834443Y-90775500D01*
X146909037Y-90775500D01*
X146914557Y-90775500D01*
X146986736Y-90740740D01*
X147036686Y-90678105D01*
X147054513Y-90600000D01*
X147036686Y-90521895D01*
X146986736Y-90459260D01*
X146977763Y-90454939D01*
X146945809Y-90439550D01*
X146914557Y-90424500D01*
X146834443Y-90424500D01*
X146829470Y-90426894D01*
X146829469Y-90426895D01*
X146767238Y-90456864D01*
X146767236Y-90456865D01*
X146762264Y-90459260D01*
X146758823Y-90463573D01*
X146758821Y-90463576D01*
X146715755Y-90517579D01*
X146715753Y-90517581D01*
X146712314Y-90521895D01*
X146711086Y-90527274D01*
X146711085Y-90527277D01*
X146705985Y-90549624D01*
X146694487Y-90600000D01*
X144891193Y-90600000D01*
X144890327Y-90599500D01*
X144883879Y-90599499D01*
X144883876Y-90599499D01*
X144809679Y-90599499D01*
X144809678Y-90599499D01*
X144809674Y-90599499D01*
X144809672Y-90599499D01*
X144809671Y-90599500D01*
X144042635Y-90599500D01*
X144007987Y-90585148D01*
X143092465Y-89669626D01*
X143087904Y-89665065D01*
X143081672Y-89663395D01*
X143074323Y-89661426D01*
X143062506Y-89656531D01*
X143055914Y-89652725D01*
X143055911Y-89652724D01*
X143050327Y-89649500D01*
X143043879Y-89649499D01*
X143043876Y-89649499D01*
X142969679Y-89649499D01*
X142969678Y-89649499D01*
X142969674Y-89649499D01*
X142969672Y-89649499D01*
X142969671Y-89649500D01*
X142822635Y-89649500D01*
X142787987Y-89635148D01*
X142727839Y-89575000D01*
X143619987Y-89575000D01*
X143621216Y-89580385D01*
X143636313Y-89646532D01*
X143637814Y-89653105D01*
X143641254Y-89657419D01*
X143641255Y-89657420D01*
X143666623Y-89689231D01*
X143687764Y-89715740D01*
X143759943Y-89750500D01*
X143834537Y-89750500D01*
X143840057Y-89750500D01*
X143912236Y-89715740D01*
X143962186Y-89653105D01*
X143974307Y-89600000D01*
X145606844Y-89600000D01*
X145608072Y-89605380D01*
X145620452Y-89659624D01*
X145627210Y-89689231D01*
X145630654Y-89693549D01*
X145680755Y-89756374D01*
X145684276Y-89760788D01*
X145766737Y-89800500D01*
X145852743Y-89800500D01*
X145858263Y-89800500D01*
X145940724Y-89760788D01*
X145997790Y-89689231D01*
X146018156Y-89600000D01*
X145997790Y-89510769D01*
X145940724Y-89439212D01*
X145858263Y-89399500D01*
X145766737Y-89399500D01*
X145761764Y-89401894D01*
X145761763Y-89401895D01*
X145689250Y-89436816D01*
X145689248Y-89436817D01*
X145684276Y-89439212D01*
X145680835Y-89443526D01*
X145680832Y-89443529D01*
X145634537Y-89501581D01*
X145627210Y-89510769D01*
X145625981Y-89516150D01*
X145625981Y-89516152D01*
X145620689Y-89539338D01*
X145606844Y-89600000D01*
X143974307Y-89600000D01*
X143980013Y-89575000D01*
X143962186Y-89496895D01*
X143912236Y-89434260D01*
X143840057Y-89399500D01*
X143759943Y-89399500D01*
X143754970Y-89401894D01*
X143754969Y-89401895D01*
X143692738Y-89431864D01*
X143692736Y-89431865D01*
X143687764Y-89434260D01*
X143684323Y-89438573D01*
X143684321Y-89438576D01*
X143641255Y-89492579D01*
X143641253Y-89492581D01*
X143637814Y-89496895D01*
X143636586Y-89502274D01*
X143636585Y-89502277D01*
X143628126Y-89539341D01*
X143619987Y-89575000D01*
X142727839Y-89575000D01*
X142382409Y-89229570D01*
X142382409Y-89229569D01*
X142367904Y-89215065D01*
X142354323Y-89211426D01*
X142342506Y-89206531D01*
X142335914Y-89202725D01*
X142335911Y-89202724D01*
X142330327Y-89199500D01*
X142323879Y-89199499D01*
X142323876Y-89199499D01*
X142249679Y-89199499D01*
X142249678Y-89199499D01*
X142249674Y-89199499D01*
X142249672Y-89199499D01*
X142249671Y-89199500D01*
X140732635Y-89199500D01*
X140697987Y-89185148D01*
X140364852Y-88852013D01*
X140350500Y-88817365D01*
X140350500Y-88502126D01*
X147245029Y-88502126D01*
X147265244Y-88733189D01*
X147265986Y-88737392D01*
X147326015Y-88961423D01*
X147327472Y-88965429D01*
X147425497Y-89175643D01*
X147427626Y-89179330D01*
X147560658Y-89369318D01*
X147563407Y-89372595D01*
X147596086Y-89405274D01*
X147602979Y-89408129D01*
X147609871Y-89405274D01*
X148510585Y-88504561D01*
X148513218Y-88500000D01*
X148688890Y-88500000D01*
X148691745Y-88506892D01*
X149590127Y-89405274D01*
X149597021Y-89408129D01*
X149603910Y-89405276D01*
X149636599Y-89372588D01*
X149639338Y-89369324D01*
X149772373Y-89179330D01*
X149774502Y-89175643D01*
X149872527Y-88965429D01*
X149873984Y-88961423D01*
X149934013Y-88737392D01*
X149934755Y-88733189D01*
X149954971Y-88502126D01*
X149954971Y-88497874D01*
X149934755Y-88266810D01*
X149934013Y-88262607D01*
X149873984Y-88038576D01*
X149872527Y-88034570D01*
X149774502Y-87824358D01*
X149772373Y-87820670D01*
X149639341Y-87630681D01*
X149636592Y-87627404D01*
X149601581Y-87592393D01*
X149597020Y-87589760D01*
X149592458Y-87592393D01*
X148691745Y-88493107D01*
X148688890Y-88500000D01*
X148513218Y-88500000D01*
X148510585Y-88495438D01*
X147607540Y-87592393D01*
X147602978Y-87589759D01*
X147598418Y-87592392D01*
X147563401Y-87627410D01*
X147560661Y-87630676D01*
X147427626Y-87820670D01*
X147425497Y-87824358D01*
X147327472Y-88034570D01*
X147326015Y-88038576D01*
X147265986Y-88262607D01*
X147265244Y-88266810D01*
X147245029Y-88497874D01*
X147245029Y-88502126D01*
X140350500Y-88502126D01*
X140350500Y-87502978D01*
X147689759Y-87502978D01*
X147692393Y-87507540D01*
X148595438Y-88410585D01*
X148599999Y-88413218D01*
X148604561Y-88410585D01*
X149505274Y-87509871D01*
X149508129Y-87502979D01*
X149505274Y-87496086D01*
X149472595Y-87463407D01*
X149469318Y-87460658D01*
X149279330Y-87327626D01*
X149275643Y-87325497D01*
X149065429Y-87227472D01*
X149061423Y-87226015D01*
X148837392Y-87165986D01*
X148833189Y-87165244D01*
X148602126Y-87145029D01*
X148597874Y-87145029D01*
X148366810Y-87165244D01*
X148362607Y-87165986D01*
X148138576Y-87226015D01*
X148134570Y-87227472D01*
X147924358Y-87325497D01*
X147920670Y-87327626D01*
X147730676Y-87460661D01*
X147727410Y-87463401D01*
X147692392Y-87498418D01*
X147689759Y-87502978D01*
X140350500Y-87502978D01*
X140350500Y-87243619D01*
X140363188Y-87212985D01*
X140362577Y-87212577D01*
X140362576Y-87212577D01*
X140412417Y-87137986D01*
X140429918Y-87050000D01*
X140412417Y-86962014D01*
X140362577Y-86887423D01*
X140287986Y-86837583D01*
X140283255Y-86836642D01*
X140283253Y-86836641D01*
X140204731Y-86821023D01*
X140200000Y-86820082D01*
X140195269Y-86821023D01*
X140116746Y-86836641D01*
X140116742Y-86836642D01*
X140112014Y-86837583D01*
X140108003Y-86840262D01*
X140107998Y-86840265D01*
X140052222Y-86877533D01*
X140025000Y-86885791D01*
X139997778Y-86877533D01*
X139942001Y-86840265D01*
X139941998Y-86840263D01*
X139937986Y-86837583D01*
X139933255Y-86836642D01*
X139933253Y-86836641D01*
X139854731Y-86821023D01*
X139850000Y-86820082D01*
X139845269Y-86821023D01*
X139766746Y-86836641D01*
X139766742Y-86836642D01*
X139762014Y-86837583D01*
X139758002Y-86840263D01*
X139758001Y-86840264D01*
X139691434Y-86884742D01*
X139691431Y-86884744D01*
X139687423Y-86887423D01*
X139684744Y-86891431D01*
X139684742Y-86891434D01*
X139640264Y-86958001D01*
X139637583Y-86962014D01*
X139636642Y-86966742D01*
X139636641Y-86966746D01*
X139634684Y-86976587D01*
X139620082Y-87050000D01*
X139621023Y-87054731D01*
X139636641Y-87133253D01*
X139636642Y-87133255D01*
X139637583Y-87137986D01*
X139640264Y-87141998D01*
X139675424Y-87194620D01*
X139685366Y-87209499D01*
X139685367Y-87209500D01*
X139687423Y-87212577D01*
X139686811Y-87212985D01*
X139699500Y-87243619D01*
X139699500Y-87594122D01*
X139690463Y-87622477D01*
X139666684Y-87640372D01*
X139636935Y-87641207D01*
X139612191Y-87624673D01*
X139591381Y-87598579D01*
X139591379Y-87598577D01*
X139587936Y-87594260D01*
X139515757Y-87559500D01*
X139435643Y-87559500D01*
X139430670Y-87561894D01*
X139430669Y-87561895D01*
X139368438Y-87591864D01*
X139368436Y-87591865D01*
X139363464Y-87594260D01*
X139360023Y-87598573D01*
X139360021Y-87598576D01*
X139316955Y-87652579D01*
X139316953Y-87652581D01*
X139313514Y-87656895D01*
X139312286Y-87662274D01*
X139312285Y-87662277D01*
X139296916Y-87729615D01*
X139295687Y-87735000D01*
X139296916Y-87740385D01*
X139308748Y-87792227D01*
X139313514Y-87813105D01*
X139316954Y-87817419D01*
X139316955Y-87817420D01*
X139340961Y-87847523D01*
X139363464Y-87875740D01*
X139435643Y-87910500D01*
X139510237Y-87910500D01*
X139515757Y-87910500D01*
X139587936Y-87875740D01*
X139601246Y-87859050D01*
X139612191Y-87845327D01*
X139636935Y-87828793D01*
X139666684Y-87829628D01*
X139690463Y-87847523D01*
X139699500Y-87875878D01*
X139699500Y-89124122D01*
X139690463Y-89152477D01*
X139666684Y-89170372D01*
X139636935Y-89171207D01*
X139612191Y-89154673D01*
X139591381Y-89128579D01*
X139591379Y-89128577D01*
X139587936Y-89124260D01*
X139515757Y-89089500D01*
X139435643Y-89089500D01*
X139430670Y-89091894D01*
X139430669Y-89091895D01*
X139368438Y-89121864D01*
X139368436Y-89121865D01*
X139363464Y-89124260D01*
X139360023Y-89128573D01*
X139360021Y-89128576D01*
X139316955Y-89182579D01*
X139316953Y-89182581D01*
X139313514Y-89186895D01*
X139312286Y-89192274D01*
X139312285Y-89192277D01*
X139302549Y-89234935D01*
X139295687Y-89265000D01*
X139313514Y-89343105D01*
X139316954Y-89347419D01*
X139316955Y-89347420D01*
X139358487Y-89399500D01*
X139363464Y-89405740D01*
X139435643Y-89440500D01*
X139510237Y-89440500D01*
X139515757Y-89440500D01*
X139587936Y-89405740D01*
X139637886Y-89343105D01*
X139655713Y-89265000D01*
X139650248Y-89241057D01*
X139653292Y-89210143D01*
X139674316Y-89187270D01*
X139704868Y-89181637D01*
X139732667Y-89195508D01*
X139772088Y-89234929D01*
X139772100Y-89234939D01*
X140093013Y-89555852D01*
X140107365Y-89590500D01*
X140093013Y-89625148D01*
X140058365Y-89639500D01*
X139394827Y-89639500D01*
X139314173Y-89639500D01*
X139308588Y-89642723D01*
X139308585Y-89642725D01*
X139301992Y-89646532D01*
X139290179Y-89651425D01*
X139276596Y-89655065D01*
X139272038Y-89659622D01*
X139272036Y-89659624D01*
X139134989Y-89796671D01*
X139104356Y-89809359D01*
X139104500Y-89810082D01*
X139100869Y-89810804D01*
X139100867Y-89810804D01*
X139099769Y-89811023D01*
X139021246Y-89826641D01*
X139021242Y-89826642D01*
X139016514Y-89827583D01*
X139012502Y-89830263D01*
X139012501Y-89830264D01*
X138945934Y-89874742D01*
X138945931Y-89874744D01*
X138941923Y-89877423D01*
X138939244Y-89881431D01*
X138939242Y-89881434D01*
X138899776Y-89940500D01*
X138892083Y-89952014D01*
X138891142Y-89956742D01*
X138891141Y-89956746D01*
X138886505Y-89980059D01*
X138869532Y-90008377D01*
X138838446Y-90019500D01*
X137977526Y-90019500D01*
X137954428Y-90013714D01*
X137936784Y-89997723D01*
X137922893Y-89976934D01*
X137920213Y-89972923D01*
X137907704Y-89964565D01*
X137849634Y-89925764D01*
X137849635Y-89925764D01*
X137845622Y-89923083D01*
X137840891Y-89922142D01*
X137840889Y-89922141D01*
X137762367Y-89906523D01*
X137757636Y-89905582D01*
X137752905Y-89906523D01*
X137674382Y-89922141D01*
X137674378Y-89922142D01*
X137669650Y-89923083D01*
X137665638Y-89925763D01*
X137665637Y-89925764D01*
X137599070Y-89970242D01*
X137599067Y-89970244D01*
X137595059Y-89972923D01*
X137592380Y-89976931D01*
X137592378Y-89976934D01*
X137578488Y-89997723D01*
X137560844Y-90013714D01*
X137537746Y-90019500D01*
X137370327Y-90019500D01*
X137289673Y-90019500D01*
X137284088Y-90022723D01*
X137284085Y-90022725D01*
X137277492Y-90026532D01*
X137265679Y-90031425D01*
X137252096Y-90035065D01*
X137247538Y-90039622D01*
X137247536Y-90039624D01*
X137212887Y-90074273D01*
X137195065Y-90092095D01*
X137195064Y-90092096D01*
X136977161Y-90310000D01*
X136772013Y-90515148D01*
X136756117Y-90525770D01*
X136737365Y-90529500D01*
X135310327Y-90529500D01*
X135229673Y-90529500D01*
X135224088Y-90532723D01*
X135224085Y-90532725D01*
X135217492Y-90536532D01*
X135205679Y-90541425D01*
X135192096Y-90545065D01*
X135187538Y-90549622D01*
X135187536Y-90549624D01*
X135137929Y-90599231D01*
X135103281Y-90613582D01*
X134799000Y-90613582D01*
X134764352Y-90599230D01*
X134750000Y-90564582D01*
X134750000Y-89756374D01*
X134750166Y-89752545D01*
X134750500Y-89750656D01*
X134750500Y-89650000D01*
X134750500Y-89615649D01*
X134750500Y-89497020D01*
X135689760Y-89497020D01*
X135692393Y-89501581D01*
X135727404Y-89536592D01*
X135730681Y-89539341D01*
X135920669Y-89672373D01*
X135924356Y-89674502D01*
X136134570Y-89772527D01*
X136138576Y-89773984D01*
X136362607Y-89834013D01*
X136366810Y-89834755D01*
X136597874Y-89854971D01*
X136602126Y-89854971D01*
X136833189Y-89834755D01*
X136837392Y-89834013D01*
X137061423Y-89773984D01*
X137065429Y-89772527D01*
X137275643Y-89674502D01*
X137279330Y-89672373D01*
X137469324Y-89539338D01*
X137472588Y-89536599D01*
X137505276Y-89503910D01*
X137508129Y-89497021D01*
X137505274Y-89490127D01*
X136606892Y-88591745D01*
X136600000Y-88588890D01*
X136593107Y-88591745D01*
X135692393Y-89492458D01*
X135689760Y-89497020D01*
X134750500Y-89497020D01*
X134750500Y-88502126D01*
X135245029Y-88502126D01*
X135265244Y-88733189D01*
X135265986Y-88737392D01*
X135326015Y-88961423D01*
X135327472Y-88965429D01*
X135425497Y-89175643D01*
X135427626Y-89179330D01*
X135560658Y-89369318D01*
X135563407Y-89372595D01*
X135596086Y-89405274D01*
X135602979Y-89408129D01*
X135609871Y-89405274D01*
X136510585Y-88504561D01*
X136513218Y-88500000D01*
X136688890Y-88500000D01*
X136691745Y-88506892D01*
X137590127Y-89405274D01*
X137597021Y-89408129D01*
X137603910Y-89405276D01*
X137636599Y-89372588D01*
X137639338Y-89369324D01*
X137772373Y-89179330D01*
X137774502Y-89175643D01*
X137872527Y-88965429D01*
X137873984Y-88961423D01*
X137934013Y-88737392D01*
X137934755Y-88733189D01*
X137954971Y-88502126D01*
X137954971Y-88497874D01*
X137934755Y-88266810D01*
X137934013Y-88262607D01*
X137873984Y-88038576D01*
X137872527Y-88034570D01*
X137774502Y-87824358D01*
X137772373Y-87820670D01*
X137639341Y-87630681D01*
X137636592Y-87627404D01*
X137601581Y-87592393D01*
X137597020Y-87589760D01*
X137592458Y-87592393D01*
X136691745Y-88493107D01*
X136688890Y-88500000D01*
X136513218Y-88500000D01*
X136510585Y-88495438D01*
X135607540Y-87592393D01*
X135602978Y-87589759D01*
X135598418Y-87592392D01*
X135563401Y-87627410D01*
X135560661Y-87630676D01*
X135427626Y-87820670D01*
X135425497Y-87824358D01*
X135327472Y-88034570D01*
X135326015Y-88038576D01*
X135265986Y-88262607D01*
X135265244Y-88266810D01*
X135245029Y-88497874D01*
X135245029Y-88502126D01*
X134750500Y-88502126D01*
X134750500Y-88501603D01*
X134750605Y-88498398D01*
X134766113Y-88261792D01*
X134766946Y-88255458D01*
X134812897Y-88024445D01*
X134814545Y-88018292D01*
X134890257Y-87795255D01*
X134892702Y-87789353D01*
X134996873Y-87578114D01*
X135000061Y-87572593D01*
X135046576Y-87502978D01*
X135689759Y-87502978D01*
X135692393Y-87507540D01*
X136595438Y-88410585D01*
X136599999Y-88413218D01*
X136604561Y-88410585D01*
X137505274Y-87509871D01*
X137508129Y-87502979D01*
X137505274Y-87496086D01*
X137472595Y-87463407D01*
X137469318Y-87460658D01*
X137279330Y-87327626D01*
X137275643Y-87325497D01*
X137065429Y-87227472D01*
X137061423Y-87226015D01*
X136837392Y-87165986D01*
X136833189Y-87165244D01*
X136602126Y-87145029D01*
X136597874Y-87145029D01*
X136366810Y-87165244D01*
X136362607Y-87165986D01*
X136138576Y-87226015D01*
X136134570Y-87227472D01*
X135924358Y-87325497D01*
X135920670Y-87327626D01*
X135730676Y-87460661D01*
X135727410Y-87463401D01*
X135692392Y-87498418D01*
X135689759Y-87502978D01*
X135046576Y-87502978D01*
X135130913Y-87376758D01*
X135134805Y-87371687D01*
X135290095Y-87194612D01*
X135294612Y-87190095D01*
X135471687Y-87034805D01*
X135476758Y-87030913D01*
X135672593Y-86900061D01*
X135678114Y-86896873D01*
X135889353Y-86792702D01*
X135895255Y-86790257D01*
X136118292Y-86714545D01*
X136124445Y-86712897D01*
X136355458Y-86666946D01*
X136361788Y-86666113D01*
X136598398Y-86650604D01*
X136601603Y-86650500D01*
X142631357Y-86650500D01*
X142633767Y-86650500D01*
X142798024Y-86617827D01*
X142830679Y-86622671D01*
X142850001Y-86643989D01*
X142850001Y-86650000D01*
X144440254Y-86650000D01*
X144450001Y-86650000D01*
X144450001Y-86628223D01*
X144460127Y-86598394D01*
X144486319Y-86580893D01*
X144517752Y-86582952D01*
G37*
%TD.AperFunction*%
%TA.AperFunction,Conductor*%
G36*
X148384148Y-96557971D02*
G01*
X148384742Y-96558565D01*
X148387423Y-96562577D01*
X148462014Y-96612417D01*
X148550000Y-96629918D01*
X148550285Y-96629861D01*
X148564588Y-96632704D01*
X148580489Y-96643328D01*
X148715065Y-96777904D01*
X148772096Y-96834935D01*
X148785677Y-96838573D01*
X148797497Y-96843469D01*
X148809673Y-96850500D01*
X148890326Y-96850501D01*
X148890328Y-96850500D01*
X149177365Y-96850500D01*
X149212013Y-96864852D01*
X149375148Y-97027987D01*
X149389500Y-97062635D01*
X149389500Y-97657365D01*
X149375148Y-97692013D01*
X149061763Y-98005398D01*
X149027115Y-98019750D01*
X147002385Y-98019750D01*
X146967737Y-98005398D01*
X145991965Y-97029626D01*
X145987404Y-97025065D01*
X145981172Y-97023395D01*
X145973823Y-97021426D01*
X145962006Y-97016531D01*
X145955414Y-97012725D01*
X145955411Y-97012724D01*
X145949827Y-97009500D01*
X145943379Y-97009499D01*
X145943376Y-97009499D01*
X145869179Y-97009499D01*
X145869178Y-97009499D01*
X145869174Y-97009499D01*
X145869172Y-97009499D01*
X145869171Y-97009500D01*
X145100327Y-97009500D01*
X145019673Y-97009500D01*
X145014088Y-97012723D01*
X145014085Y-97012725D01*
X145007492Y-97016532D01*
X144995680Y-97021425D01*
X144988327Y-97023395D01*
X144988325Y-97023395D01*
X144982096Y-97025065D01*
X144977534Y-97029626D01*
X144971948Y-97032852D01*
X144970716Y-97030719D01*
X144949856Y-97039360D01*
X144950000Y-97040082D01*
X144946371Y-97040803D01*
X144946367Y-97040804D01*
X144945269Y-97041023D01*
X144866746Y-97056641D01*
X144866742Y-97056642D01*
X144862014Y-97057583D01*
X144858002Y-97060263D01*
X144858001Y-97060264D01*
X144791434Y-97104742D01*
X144791431Y-97104744D01*
X144787423Y-97107423D01*
X144784744Y-97111431D01*
X144784741Y-97111435D01*
X144769786Y-97133817D01*
X144739052Y-97154560D01*
X144702588Y-97147836D01*
X144681274Y-97117497D01*
X144676686Y-97097393D01*
X144630826Y-97039887D01*
X144630178Y-97039074D01*
X144630177Y-97039073D01*
X144626736Y-97034758D01*
X144616079Y-97029626D01*
X144565965Y-97005492D01*
X144554557Y-96999998D01*
X144474443Y-96999998D01*
X144469472Y-97002391D01*
X144469471Y-97002392D01*
X144432466Y-97020213D01*
X144401309Y-97024055D01*
X144374215Y-97008200D01*
X144362304Y-96979155D01*
X144370463Y-96948843D01*
X144405606Y-96896249D01*
X144420784Y-96819940D01*
X144437758Y-96791623D01*
X144468843Y-96780500D01*
X145947365Y-96780500D01*
X145982013Y-96794852D01*
X146378103Y-97190941D01*
X146765065Y-97577903D01*
X146765065Y-97577904D01*
X146822096Y-97634935D01*
X146835677Y-97638573D01*
X146847497Y-97643469D01*
X146859673Y-97650500D01*
X146940326Y-97650501D01*
X146940328Y-97650500D01*
X147809673Y-97650500D01*
X147869814Y-97650500D01*
X147890327Y-97650500D01*
X147902505Y-97643467D01*
X147914321Y-97638573D01*
X147927904Y-97634935D01*
X147984935Y-97577905D01*
X147984935Y-97577903D01*
X148270430Y-97292409D01*
X148284935Y-97277904D01*
X148288573Y-97264321D01*
X148293467Y-97252505D01*
X148300500Y-97240327D01*
X148300501Y-97159674D01*
X148300500Y-97159672D01*
X148300500Y-96592619D01*
X148314852Y-96557971D01*
X148349500Y-96543619D01*
X148384148Y-96557971D01*
G37*
%TD.AperFunction*%
%TA.AperFunction,Conductor*%
G36*
X137250807Y-92894357D02*
G01*
X137603250Y-93246800D01*
X137608335Y-93253966D01*
X137608375Y-93253935D01*
X137611816Y-93258250D01*
X137614212Y-93263224D01*
X137635718Y-93280375D01*
X137639034Y-93283019D01*
X137643131Y-93286681D01*
X137649198Y-93292748D01*
X137651527Y-93294211D01*
X137651528Y-93294212D01*
X137656466Y-93297315D01*
X137660949Y-93300496D01*
X137662238Y-93301524D01*
X137685769Y-93320290D01*
X137691150Y-93321518D01*
X137696127Y-93323915D01*
X137696104Y-93323961D01*
X137697176Y-93324405D01*
X137697194Y-93324356D01*
X137701688Y-93325929D01*
X137702705Y-93326695D01*
X137704224Y-93327324D01*
X137707076Y-93329116D01*
X137707083Y-93329120D01*
X137706711Y-93329710D01*
X137725464Y-93343825D01*
X137734500Y-93372178D01*
X137734500Y-94339754D01*
X137723807Y-94370308D01*
X137716323Y-94379691D01*
X137712670Y-94383780D01*
X137708548Y-94387902D01*
X137708545Y-94387905D01*
X137706603Y-94389848D01*
X137705138Y-94392178D01*
X137705137Y-94392180D01*
X137702036Y-94397114D01*
X137698863Y-94401585D01*
X137682504Y-94422100D01*
X137679061Y-94426418D01*
X137677832Y-94431800D01*
X137675437Y-94436774D01*
X137675392Y-94436752D01*
X137674948Y-94437823D01*
X137674995Y-94437840D01*
X137673171Y-94443051D01*
X137670235Y-94447725D01*
X137669617Y-94453205D01*
X137669616Y-94453210D01*
X137666679Y-94479280D01*
X137665760Y-94484687D01*
X137664463Y-94490370D01*
X137664461Y-94490383D01*
X137663851Y-94493059D01*
X137663851Y-94495810D01*
X137663851Y-94501642D01*
X137663543Y-94507127D01*
X137661023Y-94529500D01*
X137659989Y-94538675D01*
X137661812Y-94543887D01*
X137662431Y-94549372D01*
X137662379Y-94549377D01*
X137663851Y-94558037D01*
X137663851Y-96898266D01*
X137655593Y-96925488D01*
X137631067Y-96962194D01*
X137631065Y-96962196D01*
X137628385Y-96966209D01*
X137627443Y-96970943D01*
X137627443Y-96970944D01*
X137610397Y-97056641D01*
X137608943Y-97063949D01*
X137609885Y-97068685D01*
X137627443Y-97156956D01*
X137627444Y-97156958D01*
X137628385Y-97161689D01*
X137631064Y-97165699D01*
X137631065Y-97165700D01*
X137676201Y-97233253D01*
X137683750Y-97244550D01*
X137766611Y-97299915D01*
X137864351Y-97319357D01*
X137962091Y-97299915D01*
X138044952Y-97244550D01*
X138100317Y-97161689D01*
X138119759Y-97063949D01*
X138100317Y-96966209D01*
X138078854Y-96934086D01*
X138073109Y-96925488D01*
X138064851Y-96898266D01*
X138064851Y-94620893D01*
X138075538Y-94590346D01*
X138083027Y-94580954D01*
X138086663Y-94576886D01*
X138092749Y-94570801D01*
X138097316Y-94563531D01*
X138100489Y-94559059D01*
X138120290Y-94534231D01*
X138121519Y-94528844D01*
X138123914Y-94523872D01*
X138123961Y-94523894D01*
X138124402Y-94522829D01*
X138124354Y-94522812D01*
X138126178Y-94517598D01*
X138129116Y-94512924D01*
X138132672Y-94481356D01*
X138133588Y-94475961D01*
X138135500Y-94467590D01*
X138135500Y-94459013D01*
X138135808Y-94453527D01*
X138138745Y-94427460D01*
X138138744Y-94427459D01*
X138139363Y-94421974D01*
X138137539Y-94416761D01*
X138136921Y-94411278D01*
X138136971Y-94411272D01*
X138135500Y-94402610D01*
X138135500Y-93314561D01*
X138144538Y-93286206D01*
X138168316Y-93268311D01*
X138198065Y-93267476D01*
X138222807Y-93284008D01*
X138236776Y-93301524D01*
X138236268Y-93301929D01*
X138244647Y-93312434D01*
X138249500Y-93333696D01*
X138249500Y-95559283D01*
X138241242Y-95586506D01*
X138226714Y-95608248D01*
X138226712Y-95608250D01*
X138224034Y-95612260D01*
X138223093Y-95616988D01*
X138223092Y-95616992D01*
X138210659Y-95679500D01*
X138204592Y-95710000D01*
X138205534Y-95714736D01*
X138223092Y-95803007D01*
X138223093Y-95803009D01*
X138224034Y-95807740D01*
X138226713Y-95811750D01*
X138226714Y-95811751D01*
X138274381Y-95883092D01*
X138279399Y-95890601D01*
X138362260Y-95945966D01*
X138460000Y-95965408D01*
X138557740Y-95945966D01*
X138640601Y-95890601D01*
X138695966Y-95807740D01*
X138712356Y-95725339D01*
X138714466Y-95714736D01*
X138715408Y-95710000D01*
X138695966Y-95612260D01*
X138687440Y-95599500D01*
X138658758Y-95556573D01*
X138650500Y-95529350D01*
X138650500Y-93481635D01*
X138664852Y-93446987D01*
X138699500Y-93432635D01*
X138734148Y-93446987D01*
X139275148Y-93987987D01*
X139289500Y-94022635D01*
X139289500Y-96627365D01*
X139285770Y-96646117D01*
X139275148Y-96662013D01*
X139030489Y-96906671D01*
X138999856Y-96919359D01*
X139000000Y-96920082D01*
X138996369Y-96920804D01*
X138996367Y-96920804D01*
X138995269Y-96921023D01*
X138916746Y-96936641D01*
X138916742Y-96936642D01*
X138912014Y-96937583D01*
X138908002Y-96940263D01*
X138908001Y-96940264D01*
X138841434Y-96984742D01*
X138841431Y-96984744D01*
X138837423Y-96987423D01*
X138834744Y-96991431D01*
X138834742Y-96991434D01*
X138790264Y-97058001D01*
X138787583Y-97062014D01*
X138786642Y-97066742D01*
X138786641Y-97066746D01*
X138772007Y-97140322D01*
X138770082Y-97150000D01*
X138771023Y-97154731D01*
X138786641Y-97233253D01*
X138786642Y-97233255D01*
X138787583Y-97237986D01*
X138805184Y-97264328D01*
X138828962Y-97299915D01*
X138837423Y-97312577D01*
X138912014Y-97362417D01*
X139000000Y-97379918D01*
X139074421Y-97365115D01*
X139104930Y-97368879D01*
X139127194Y-97390076D01*
X139132450Y-97420364D01*
X139118628Y-97447822D01*
X138881303Y-97685148D01*
X138865407Y-97695770D01*
X138846655Y-97699500D01*
X136713442Y-97699500D01*
X136684252Y-97689857D01*
X136666552Y-97664723D01*
X136667307Y-97633990D01*
X136683199Y-97613628D01*
X136682768Y-97613197D01*
X136686180Y-97609783D01*
X136690193Y-97607103D01*
X136745558Y-97524242D01*
X136763112Y-97435993D01*
X136764058Y-97431238D01*
X136765000Y-97426502D01*
X136745558Y-97328762D01*
X136718350Y-97288041D01*
X136710092Y-97260819D01*
X136710092Y-94354545D01*
X136720778Y-94323999D01*
X136727122Y-94316042D01*
X136730757Y-94311976D01*
X136736843Y-94305891D01*
X136741410Y-94298621D01*
X136744583Y-94294149D01*
X136764384Y-94269321D01*
X136765613Y-94263934D01*
X136768008Y-94258962D01*
X136768055Y-94258984D01*
X136768496Y-94257919D01*
X136768448Y-94257902D01*
X136770272Y-94252688D01*
X136773210Y-94248014D01*
X136776766Y-94216446D01*
X136777682Y-94211051D01*
X136779594Y-94202680D01*
X136779594Y-94194103D01*
X136779902Y-94188617D01*
X136780251Y-94185524D01*
X136783457Y-94157064D01*
X136781633Y-94151851D01*
X136781015Y-94146368D01*
X136781065Y-94146362D01*
X136779594Y-94137700D01*
X136779594Y-93184777D01*
X136787852Y-93157555D01*
X136809560Y-93125065D01*
X136815060Y-93116834D01*
X136816047Y-93111868D01*
X136816364Y-93111226D01*
X136817850Y-93107640D01*
X136818084Y-93107737D01*
X136827264Y-93089118D01*
X136848355Y-93075023D01*
X136873664Y-93073364D01*
X136930627Y-93084695D01*
X137028367Y-93065253D01*
X137111228Y-93009888D01*
X137166593Y-92927027D01*
X137168100Y-92919448D01*
X137186327Y-92890133D01*
X137219362Y-92880110D01*
X137250807Y-92894357D01*
G37*
%TD.AperFunction*%
%TA.AperFunction,Conductor*%
G36*
X143853013Y-96384852D02*
G01*
X143867365Y-96419500D01*
X143853013Y-96454148D01*
X143717840Y-96589321D01*
X143683192Y-96603673D01*
X143655500Y-96603673D01*
X143649915Y-96606896D01*
X143649912Y-96606898D01*
X143643319Y-96610705D01*
X143631506Y-96615598D01*
X143617923Y-96619238D01*
X143613365Y-96623795D01*
X143613363Y-96623797D01*
X143586563Y-96650597D01*
X143560892Y-96676268D01*
X143560891Y-96676269D01*
X143123113Y-97114048D01*
X142697013Y-97540148D01*
X142681117Y-97550770D01*
X142662365Y-97554500D01*
X142186536Y-97554500D01*
X142157347Y-97544857D01*
X142139646Y-97519724D01*
X142140400Y-97488993D01*
X142155773Y-97469292D01*
X142155152Y-97468671D01*
X142158564Y-97465257D01*
X142162577Y-97462577D01*
X142212417Y-97387986D01*
X142229918Y-97300000D01*
X142212417Y-97212014D01*
X142207446Y-97204574D01*
X142199189Y-97177009D01*
X142207832Y-97149560D01*
X142230395Y-97131697D01*
X142255614Y-97129837D01*
X142256444Y-97130237D01*
X142331038Y-97130237D01*
X142336558Y-97130237D01*
X142408737Y-97095477D01*
X142458687Y-97032842D01*
X142476514Y-96954737D01*
X142458687Y-96876632D01*
X142422802Y-96831634D01*
X142412179Y-96818313D01*
X142412178Y-96818312D01*
X142408737Y-96813997D01*
X142396830Y-96808263D01*
X142356098Y-96788647D01*
X142333211Y-96765760D01*
X142329588Y-96733596D01*
X142346808Y-96706190D01*
X142377359Y-96695500D01*
X143158877Y-96695500D01*
X143165328Y-96695500D01*
X143177506Y-96688467D01*
X143189322Y-96683573D01*
X143202905Y-96679935D01*
X143259936Y-96622905D01*
X143259936Y-96622903D01*
X143497987Y-96384852D01*
X143532636Y-96370500D01*
X143818365Y-96370500D01*
X143853013Y-96384852D01*
G37*
%TD.AperFunction*%
%TA.AperFunction,Conductor*%
G36*
X148245587Y-95908758D02*
G01*
X148263634Y-95930749D01*
X148266422Y-95959060D01*
X148253012Y-95984148D01*
X148231341Y-96005819D01*
X148215065Y-96022095D01*
X148215064Y-96022096D01*
X148072096Y-96165065D01*
X148019626Y-96217534D01*
X148019624Y-96217536D01*
X148015065Y-96222096D01*
X148013396Y-96228323D01*
X148013395Y-96228326D01*
X148011425Y-96235680D01*
X148006532Y-96247492D01*
X148002725Y-96254085D01*
X148002723Y-96254088D01*
X147999500Y-96259673D01*
X147999499Y-96266119D01*
X147999499Y-96266123D01*
X147999499Y-96300601D01*
X147999499Y-96340326D01*
X147999500Y-96340328D01*
X147999500Y-97117365D01*
X147985148Y-97152013D01*
X147802013Y-97335148D01*
X147767365Y-97349500D01*
X146982635Y-97349500D01*
X146947987Y-97335148D01*
X146112465Y-96499626D01*
X146107904Y-96495065D01*
X146101672Y-96493395D01*
X146094323Y-96491426D01*
X146082506Y-96486531D01*
X146075914Y-96482725D01*
X146075911Y-96482724D01*
X146070327Y-96479500D01*
X146063879Y-96479499D01*
X146063876Y-96479499D01*
X145989679Y-96479499D01*
X145989678Y-96479499D01*
X145989674Y-96479499D01*
X145989672Y-96479499D01*
X145989671Y-96479500D01*
X145198456Y-96479500D01*
X145166148Y-96467340D01*
X145149875Y-96436896D01*
X145157714Y-96403277D01*
X145163578Y-96394500D01*
X145182594Y-96366041D01*
X145200095Y-96278055D01*
X145199154Y-96273324D01*
X145199154Y-96273319D01*
X145186372Y-96209059D01*
X145189160Y-96180748D01*
X145207207Y-96158758D01*
X145234430Y-96150500D01*
X145263429Y-96150500D01*
X145286528Y-96156286D01*
X145304171Y-96172278D01*
X145324741Y-96203064D01*
X145324742Y-96203065D01*
X145327423Y-96207077D01*
X145402014Y-96256917D01*
X145490000Y-96274418D01*
X145577986Y-96256917D01*
X145652577Y-96207077D01*
X145702417Y-96132486D01*
X145719918Y-96044500D01*
X145721713Y-96044857D01*
X145727235Y-96026654D01*
X145749226Y-96008607D01*
X145777537Y-96005819D01*
X145802625Y-96019229D01*
X145903325Y-96119930D01*
X145903327Y-96119931D01*
X145917831Y-96134435D01*
X145931219Y-96138022D01*
X145931409Y-96138073D01*
X145943228Y-96142969D01*
X145949819Y-96146774D01*
X145949820Y-96146774D01*
X145955407Y-96150000D01*
X145975921Y-96150000D01*
X146036061Y-96150000D01*
X147660173Y-96150000D01*
X147720314Y-96150000D01*
X147734376Y-96150000D01*
X147740827Y-96150000D01*
X147753005Y-96142967D01*
X147764821Y-96138073D01*
X147778404Y-96134435D01*
X147835435Y-96077405D01*
X147835435Y-96077403D01*
X147997986Y-95914852D01*
X148032635Y-95900500D01*
X148218364Y-95900500D01*
X148245587Y-95908758D01*
G37*
%TD.AperFunction*%
%TA.AperFunction,Conductor*%
G36*
X143064857Y-92863116D02*
G01*
X143074500Y-92892305D01*
X143074500Y-93353717D01*
X143062340Y-93386025D01*
X143031896Y-93402298D01*
X142998278Y-93394459D01*
X142992001Y-93390265D01*
X142991998Y-93390263D01*
X142987986Y-93387583D01*
X142983255Y-93386642D01*
X142983253Y-93386641D01*
X142904731Y-93371023D01*
X142900000Y-93370082D01*
X142895269Y-93371023D01*
X142816746Y-93386641D01*
X142816742Y-93386642D01*
X142812014Y-93387583D01*
X142808002Y-93390263D01*
X142808001Y-93390264D01*
X142741434Y-93434742D01*
X142741431Y-93434744D01*
X142737423Y-93437423D01*
X142734744Y-93441431D01*
X142734742Y-93441434D01*
X142695610Y-93500000D01*
X142687583Y-93512014D01*
X142686642Y-93516742D01*
X142686641Y-93516746D01*
X142671023Y-93595269D01*
X142670082Y-93600000D01*
X142671023Y-93604731D01*
X142686641Y-93683253D01*
X142686642Y-93683255D01*
X142687583Y-93687986D01*
X142703907Y-93712417D01*
X142730504Y-93752223D01*
X142735366Y-93759499D01*
X142735367Y-93759500D01*
X142737423Y-93762577D01*
X142736811Y-93762985D01*
X142749500Y-93793619D01*
X142749500Y-94209673D01*
X142749500Y-94290327D01*
X142752724Y-94295911D01*
X142754395Y-94302146D01*
X142751673Y-94302875D01*
X142755259Y-94324644D01*
X142737025Y-94353950D01*
X142703994Y-94363964D01*
X142672556Y-94349717D01*
X142530673Y-94207834D01*
X142518431Y-94187410D01*
X142517262Y-94163627D01*
X142518568Y-94157064D01*
X142529918Y-94100000D01*
X142512417Y-94012014D01*
X142462577Y-93937423D01*
X142455414Y-93932637D01*
X142419388Y-93908565D01*
X142387986Y-93887583D01*
X142383255Y-93886642D01*
X142383253Y-93886641D01*
X142304731Y-93871023D01*
X142300000Y-93870082D01*
X142295269Y-93871023D01*
X142216746Y-93886641D01*
X142216742Y-93886642D01*
X142212014Y-93887583D01*
X142208002Y-93890263D01*
X142208001Y-93890264D01*
X142141434Y-93934742D01*
X142141431Y-93934744D01*
X142137423Y-93937423D01*
X142134744Y-93941431D01*
X142134742Y-93941434D01*
X142090264Y-94008001D01*
X142087583Y-94012014D01*
X142086642Y-94016742D01*
X142086641Y-94016746D01*
X142074678Y-94076895D01*
X142070082Y-94100000D01*
X142071023Y-94104731D01*
X142071023Y-94104734D01*
X142073167Y-94115515D01*
X142065849Y-94152296D01*
X142034668Y-94173130D01*
X141966750Y-94186640D01*
X141966745Y-94186641D01*
X141962014Y-94187583D01*
X141958002Y-94190263D01*
X141958001Y-94190264D01*
X141891434Y-94234742D01*
X141891431Y-94234744D01*
X141887423Y-94237423D01*
X141884744Y-94241431D01*
X141884742Y-94241434D01*
X141840264Y-94308001D01*
X141837583Y-94312014D01*
X141836642Y-94316742D01*
X141836641Y-94316746D01*
X141822985Y-94385406D01*
X141820082Y-94400000D01*
X141821023Y-94404731D01*
X141836641Y-94483253D01*
X141836642Y-94483255D01*
X141837583Y-94487986D01*
X141840264Y-94491998D01*
X141880959Y-94552904D01*
X141887423Y-94562577D01*
X141917605Y-94582744D01*
X141927723Y-94589504D01*
X141943714Y-94607147D01*
X141949500Y-94630246D01*
X141949500Y-95867365D01*
X141945770Y-95886117D01*
X141935148Y-95902013D01*
X141734148Y-96103012D01*
X141709059Y-96116423D01*
X141680748Y-96113634D01*
X141658758Y-96095586D01*
X141650500Y-96068363D01*
X141650500Y-96052290D01*
X141650501Y-96009674D01*
X141650500Y-96009672D01*
X141650500Y-95417117D01*
X141663188Y-95386483D01*
X141662577Y-95386075D01*
X141664203Y-95383641D01*
X141712417Y-95311484D01*
X141729918Y-95223498D01*
X141712417Y-95135512D01*
X141662577Y-95060921D01*
X141663188Y-95060512D01*
X141650500Y-95029879D01*
X141650500Y-94132635D01*
X141664852Y-94097987D01*
X142417987Y-93344852D01*
X142452635Y-93330500D01*
X142653876Y-93330500D01*
X142660327Y-93330500D01*
X142672505Y-93323467D01*
X142684321Y-93318573D01*
X142697904Y-93314935D01*
X142754935Y-93257905D01*
X142754935Y-93257903D01*
X142913611Y-93099229D01*
X142913612Y-93099226D01*
X142928115Y-93084724D01*
X142931753Y-93071144D01*
X142936650Y-93059323D01*
X142936963Y-93058780D01*
X142943680Y-93047147D01*
X142943681Y-92966493D01*
X142943680Y-92966491D01*
X142943680Y-92939527D01*
X142956368Y-92908893D01*
X142955757Y-92908485D01*
X142956781Y-92906952D01*
X142983312Y-92867246D01*
X142984758Y-92865082D01*
X143008992Y-92846169D01*
X143039724Y-92845415D01*
X143064857Y-92863116D01*
G37*
%TD.AperFunction*%
%TA.AperFunction,Conductor*%
G36*
X149067014Y-95463188D02*
G01*
X149067423Y-95462577D01*
X149071434Y-95465257D01*
X149084870Y-95474235D01*
X149104047Y-95499227D01*
X149104047Y-95530727D01*
X149084870Y-95555719D01*
X149041434Y-95584742D01*
X149041431Y-95584744D01*
X149040501Y-95585365D01*
X149040499Y-95585367D01*
X149037423Y-95587423D01*
X149037014Y-95586811D01*
X149006381Y-95599500D01*
X147990327Y-95599500D01*
X147909673Y-95599500D01*
X147904088Y-95602723D01*
X147904085Y-95602725D01*
X147897492Y-95606532D01*
X147885679Y-95611425D01*
X147872096Y-95615065D01*
X147867538Y-95619622D01*
X147867536Y-95619624D01*
X147838758Y-95648402D01*
X147815065Y-95672095D01*
X147815064Y-95672096D01*
X147732430Y-95754731D01*
X147652513Y-95834648D01*
X147636617Y-95845270D01*
X147617865Y-95849000D01*
X146078370Y-95849000D01*
X146059618Y-95845270D01*
X146043722Y-95834648D01*
X145956783Y-95747709D01*
X145858145Y-95649070D01*
X145843640Y-95634565D01*
X145837408Y-95632895D01*
X145830059Y-95630926D01*
X145818242Y-95626031D01*
X145811650Y-95622225D01*
X145811647Y-95622224D01*
X145806063Y-95619000D01*
X145799615Y-95618999D01*
X145799612Y-95618999D01*
X145725415Y-95618999D01*
X145725414Y-95618999D01*
X145725410Y-95618999D01*
X145725408Y-95618999D01*
X145725407Y-95619000D01*
X144710327Y-95619000D01*
X144629673Y-95619000D01*
X144624088Y-95622223D01*
X144624085Y-95622225D01*
X144617492Y-95626032D01*
X144605680Y-95630925D01*
X144602002Y-95631910D01*
X144592096Y-95634565D01*
X144587539Y-95639121D01*
X144587535Y-95639124D01*
X144561511Y-95665149D01*
X144526863Y-95679500D01*
X144511899Y-95679500D01*
X144484296Y-95670986D01*
X144466286Y-95648402D01*
X144464128Y-95619596D01*
X144465803Y-95612260D01*
X144480013Y-95550000D01*
X144470975Y-95510402D01*
X144473133Y-95481599D01*
X144491143Y-95459014D01*
X144518746Y-95450500D01*
X145870186Y-95450500D01*
X145909814Y-95450500D01*
X147930186Y-95450500D01*
X147969814Y-95450500D01*
X149036381Y-95450500D01*
X149067014Y-95463188D01*
G37*
%TD.AperFunction*%
%TA.AperFunction,Conductor*%
G36*
X148482013Y-94844852D02*
G01*
X148703013Y-95065852D01*
X148717365Y-95100500D01*
X148703013Y-95135148D01*
X148668365Y-95149500D01*
X147969814Y-95149500D01*
X147931634Y-95149500D01*
X147904411Y-95141242D01*
X147886364Y-95119251D01*
X147883576Y-95090940D01*
X147896986Y-95065852D01*
X147977512Y-94985327D01*
X148117986Y-94844852D01*
X148152635Y-94830500D01*
X148447365Y-94830500D01*
X148482013Y-94844852D01*
G37*
%TD.AperFunction*%
%TA.AperFunction,Conductor*%
G36*
X145727513Y-94165352D02*
G01*
X146075085Y-94512924D01*
X146343424Y-94781262D01*
X146357357Y-94809514D01*
X146351211Y-94840410D01*
X146327528Y-94861180D01*
X146296094Y-94863240D01*
X146289324Y-94861426D01*
X146277506Y-94856531D01*
X146270914Y-94852725D01*
X146270911Y-94852724D01*
X146265327Y-94849500D01*
X146258879Y-94849499D01*
X146258876Y-94849499D01*
X146184679Y-94849499D01*
X146184678Y-94849499D01*
X146184674Y-94849499D01*
X146184672Y-94849499D01*
X146184671Y-94849500D01*
X145809252Y-94849500D01*
X145779423Y-94839374D01*
X145761922Y-94813182D01*
X145763558Y-94788213D01*
X145762417Y-94787986D01*
X145778977Y-94704731D01*
X145779918Y-94700000D01*
X145762417Y-94612014D01*
X145712577Y-94537423D01*
X145706237Y-94533187D01*
X145659027Y-94501642D01*
X145637986Y-94487583D01*
X145633255Y-94486642D01*
X145633253Y-94486641D01*
X145554731Y-94471023D01*
X145553630Y-94470804D01*
X145553628Y-94470803D01*
X145550000Y-94470082D01*
X145550143Y-94469360D01*
X145519510Y-94456671D01*
X145457465Y-94394626D01*
X145452904Y-94390065D01*
X145446672Y-94388395D01*
X145439323Y-94386426D01*
X145427506Y-94381531D01*
X145420914Y-94377725D01*
X145420911Y-94377724D01*
X145415327Y-94374500D01*
X145408879Y-94374499D01*
X145408876Y-94374499D01*
X145334679Y-94374499D01*
X145334678Y-94374499D01*
X145334674Y-94374499D01*
X145334672Y-94374499D01*
X145334671Y-94374500D01*
X144263040Y-94374500D01*
X144235437Y-94365986D01*
X144217427Y-94343402D01*
X144215269Y-94314596D01*
X144215427Y-94313906D01*
X144230013Y-94250000D01*
X144221871Y-94214327D01*
X144224029Y-94185524D01*
X144242039Y-94162939D01*
X144264667Y-94155959D01*
X144264550Y-94155367D01*
X144264550Y-94155366D01*
X144264551Y-94155367D01*
X144286330Y-94151034D01*
X144299274Y-94151459D01*
X144299275Y-94151000D01*
X144379928Y-94151001D01*
X144379930Y-94151000D01*
X145692865Y-94151000D01*
X145727513Y-94165352D01*
G37*
%TD.AperFunction*%
%TA.AperFunction,Conductor*%
G36*
X147953012Y-94014852D02*
G01*
X147967364Y-94049500D01*
X147953012Y-94084148D01*
X147402013Y-94635148D01*
X147386117Y-94645770D01*
X147367365Y-94649500D01*
X146657635Y-94649500D01*
X146622987Y-94635148D01*
X146415874Y-94428035D01*
X146401941Y-94399781D01*
X146408089Y-94368883D01*
X146431776Y-94348115D01*
X146454673Y-94346617D01*
X146454673Y-94345500D01*
X147288876Y-94345500D01*
X147295327Y-94345500D01*
X147307505Y-94338467D01*
X147319321Y-94333573D01*
X147332904Y-94329935D01*
X147389935Y-94272905D01*
X147389935Y-94272903D01*
X147647986Y-94014852D01*
X147682635Y-94000500D01*
X147918364Y-94000500D01*
X147953012Y-94014852D01*
G37*
%TD.AperFunction*%
%TA.AperFunction,Conductor*%
G36*
X149560148Y-93424852D02*
G01*
X149574500Y-93459500D01*
X149574500Y-93542365D01*
X149560148Y-93577013D01*
X149552013Y-93585148D01*
X149517365Y-93599500D01*
X149443121Y-93599500D01*
X149412487Y-93586811D01*
X149412079Y-93587423D01*
X149409002Y-93585367D01*
X149409001Y-93585366D01*
X149407963Y-93584673D01*
X149365756Y-93556471D01*
X149337488Y-93537583D01*
X149332757Y-93536642D01*
X149332755Y-93536641D01*
X149254233Y-93521023D01*
X149249502Y-93520082D01*
X149244771Y-93521023D01*
X149166248Y-93536641D01*
X149166244Y-93536642D01*
X149161516Y-93537583D01*
X149157504Y-93540263D01*
X149157503Y-93540264D01*
X149090936Y-93584742D01*
X149090933Y-93584744D01*
X149086925Y-93587423D01*
X149084246Y-93591431D01*
X149084244Y-93591434D01*
X149039766Y-93658001D01*
X149037085Y-93662014D01*
X149036144Y-93666742D01*
X149036143Y-93666746D01*
X149025626Y-93719624D01*
X149019584Y-93750000D01*
X149020525Y-93754731D01*
X149036143Y-93833253D01*
X149036144Y-93833255D01*
X149037085Y-93837986D01*
X149049424Y-93856453D01*
X149080461Y-93902904D01*
X149086925Y-93912577D01*
X149090936Y-93915257D01*
X149090938Y-93915259D01*
X149115896Y-93931935D01*
X149135073Y-93956925D01*
X149135074Y-93988426D01*
X149115899Y-94013418D01*
X149106434Y-94019742D01*
X149106431Y-94019744D01*
X149102423Y-94022423D01*
X149099744Y-94026431D01*
X149099742Y-94026434D01*
X149055264Y-94093001D01*
X149052583Y-94097014D01*
X149051642Y-94101742D01*
X149051641Y-94101746D01*
X149038049Y-94170082D01*
X149035082Y-94185000D01*
X149036023Y-94189731D01*
X149050061Y-94260308D01*
X149046297Y-94290817D01*
X149025100Y-94313081D01*
X148994812Y-94318337D01*
X148967354Y-94304515D01*
X148682465Y-94019626D01*
X148682465Y-94019625D01*
X148677904Y-94015065D01*
X148671672Y-94013395D01*
X148664323Y-94011426D01*
X148652506Y-94006531D01*
X148645914Y-94002725D01*
X148645911Y-94002724D01*
X148640327Y-93999500D01*
X148633879Y-93999499D01*
X148633876Y-93999499D01*
X148559679Y-93999499D01*
X148559678Y-93999499D01*
X148559674Y-93999499D01*
X148559672Y-93999499D01*
X148559671Y-93999500D01*
X148281634Y-93999500D01*
X148254411Y-93991242D01*
X148236364Y-93969251D01*
X148233576Y-93940941D01*
X148246986Y-93915852D01*
X148737987Y-93424852D01*
X148772635Y-93410500D01*
X149525500Y-93410500D01*
X149560148Y-93424852D01*
G37*
%TD.AperFunction*%
%TA.AperFunction,Conductor*%
G36*
X143052013Y-91564852D02*
G01*
X143720447Y-92233285D01*
X144365065Y-92877903D01*
X144365065Y-92877904D01*
X144365067Y-92877905D01*
X144365067Y-92877906D01*
X144403013Y-92915852D01*
X144417365Y-92950500D01*
X144403013Y-92985148D01*
X144368365Y-92999500D01*
X144290327Y-92999500D01*
X144209673Y-92999500D01*
X144204088Y-93002723D01*
X144204085Y-93002725D01*
X144197492Y-93006532D01*
X144185679Y-93011425D01*
X144172096Y-93015065D01*
X144167538Y-93019622D01*
X144167536Y-93019624D01*
X144115064Y-93072096D01*
X144072096Y-93115065D01*
X144019626Y-93167534D01*
X144019624Y-93167536D01*
X144015065Y-93172096D01*
X144013396Y-93178323D01*
X144013395Y-93178326D01*
X144011425Y-93185680D01*
X144006532Y-93197492D01*
X144002725Y-93204085D01*
X144002723Y-93204088D01*
X143999500Y-93209673D01*
X143999499Y-93216119D01*
X143999499Y-93216123D01*
X143999499Y-93252687D01*
X143999499Y-93290326D01*
X143999500Y-93290328D01*
X143999500Y-93359673D01*
X143999500Y-93440327D01*
X144002724Y-93445911D01*
X144002725Y-93445914D01*
X144006531Y-93452506D01*
X144011426Y-93464323D01*
X144013395Y-93471674D01*
X144013396Y-93471676D01*
X144015065Y-93477904D01*
X144046219Y-93509059D01*
X144072094Y-93534934D01*
X144072100Y-93534939D01*
X144115065Y-93577904D01*
X144172096Y-93634935D01*
X144173199Y-93635230D01*
X144191670Y-93656760D01*
X144192734Y-93689255D01*
X144173225Y-93715263D01*
X144105985Y-93760191D01*
X144105982Y-93760193D01*
X144101974Y-93762872D01*
X144099295Y-93766880D01*
X144099293Y-93766883D01*
X144054947Y-93833253D01*
X144052134Y-93837463D01*
X144051193Y-93842191D01*
X144051192Y-93842195D01*
X144039117Y-93902904D01*
X144034633Y-93925449D01*
X144035574Y-93930180D01*
X144052134Y-94013435D01*
X144051401Y-94013580D01*
X144053676Y-94035617D01*
X144040820Y-94060501D01*
X144016435Y-94074278D01*
X144015462Y-94074500D01*
X144009943Y-94074500D01*
X144004971Y-94076894D01*
X144004968Y-94076895D01*
X143942738Y-94106864D01*
X143942736Y-94106865D01*
X143937764Y-94109260D01*
X143934323Y-94113573D01*
X143934321Y-94113576D01*
X143891256Y-94167577D01*
X143891253Y-94167581D01*
X143887814Y-94171895D01*
X143886585Y-94177278D01*
X143885193Y-94180170D01*
X143863942Y-94202231D01*
X143833742Y-94207363D01*
X143806397Y-94193558D01*
X143389852Y-93777013D01*
X143375500Y-93742365D01*
X143375500Y-92541124D01*
X143375500Y-92534673D01*
X143368469Y-92522497D01*
X143363573Y-92510676D01*
X143359935Y-92497096D01*
X143355376Y-92492537D01*
X143355375Y-92492535D01*
X143302905Y-92440065D01*
X143302903Y-92440064D01*
X142682254Y-91819415D01*
X142668843Y-91794325D01*
X142662417Y-91762014D01*
X142612577Y-91687423D01*
X142604332Y-91681914D01*
X142571999Y-91660310D01*
X142541964Y-91640241D01*
X142523052Y-91616008D01*
X142522298Y-91585276D01*
X142539999Y-91560143D01*
X142569188Y-91550500D01*
X143017365Y-91550500D01*
X143052013Y-91564852D01*
G37*
%TD.AperFunction*%
%TA.AperFunction,Conductor*%
G36*
X149500501Y-92279919D02*
G01*
X149500159Y-92281637D01*
X149518613Y-92287235D01*
X149536660Y-92309226D01*
X149539448Y-92337536D01*
X149526038Y-92362624D01*
X149353227Y-92535435D01*
X149181491Y-92707171D01*
X149150858Y-92719859D01*
X149151002Y-92720582D01*
X149147371Y-92721304D01*
X149147369Y-92721304D01*
X149146271Y-92721523D01*
X149067748Y-92737141D01*
X149067744Y-92737142D01*
X149063016Y-92738083D01*
X149059004Y-92740763D01*
X149059003Y-92740764D01*
X148992436Y-92785242D01*
X148992433Y-92785244D01*
X148988425Y-92787923D01*
X148985746Y-92791931D01*
X148985744Y-92791934D01*
X148941266Y-92858501D01*
X148938585Y-92862514D01*
X148937644Y-92867242D01*
X148937643Y-92867246D01*
X148924180Y-92934935D01*
X148921084Y-92950500D01*
X148922025Y-92955231D01*
X148928912Y-92989857D01*
X148938585Y-93038486D01*
X148940975Y-93042063D01*
X148943015Y-93073182D01*
X148925514Y-93099374D01*
X148895685Y-93109500D01*
X148730327Y-93109500D01*
X148649673Y-93109500D01*
X148644088Y-93112723D01*
X148644085Y-93112725D01*
X148637492Y-93116532D01*
X148625680Y-93121425D01*
X148622002Y-93122410D01*
X148612096Y-93125065D01*
X148607538Y-93129622D01*
X148607536Y-93129624D01*
X148580482Y-93156678D01*
X148555065Y-93182095D01*
X148555064Y-93182096D01*
X148296834Y-93440327D01*
X148052013Y-93685148D01*
X148036117Y-93695770D01*
X148017365Y-93699500D01*
X147640327Y-93699500D01*
X147559673Y-93699500D01*
X147554088Y-93702723D01*
X147554085Y-93702725D01*
X147547492Y-93706532D01*
X147535679Y-93711425D01*
X147522096Y-93715065D01*
X147517538Y-93719622D01*
X147517536Y-93719624D01*
X147492427Y-93744733D01*
X147465065Y-93772095D01*
X147465064Y-93772096D01*
X147334257Y-93902904D01*
X147207013Y-94030148D01*
X147191117Y-94040770D01*
X147172365Y-94044500D01*
X146577635Y-94044500D01*
X146542987Y-94030148D01*
X146046987Y-93534148D01*
X146033576Y-93509059D01*
X146036365Y-93480748D01*
X146054413Y-93458757D01*
X146081634Y-93450500D01*
X146110326Y-93450501D01*
X146110328Y-93450500D01*
X147385408Y-93450500D01*
X147445549Y-93450500D01*
X147466062Y-93450500D01*
X147478240Y-93443467D01*
X147490056Y-93438573D01*
X147503639Y-93434935D01*
X147560670Y-93377905D01*
X147560670Y-93377903D01*
X147623723Y-93314850D01*
X147658370Y-93300500D01*
X148083876Y-93300500D01*
X148090327Y-93300500D01*
X148102505Y-93293467D01*
X148114321Y-93288573D01*
X148127904Y-93284935D01*
X148184935Y-93227905D01*
X148184935Y-93227903D01*
X148488114Y-92924723D01*
X148495524Y-92918641D01*
X148541269Y-92888077D01*
X148591109Y-92813486D01*
X148608610Y-92725500D01*
X148591109Y-92637514D01*
X148588426Y-92633498D01*
X148584233Y-92627222D01*
X148576394Y-92593604D01*
X148592667Y-92563160D01*
X148624975Y-92551000D01*
X149033376Y-92551000D01*
X149039827Y-92551000D01*
X149052005Y-92543967D01*
X149063821Y-92539073D01*
X149077404Y-92535435D01*
X149099832Y-92513007D01*
X149119512Y-92493328D01*
X149135413Y-92482704D01*
X149149714Y-92479861D01*
X149150000Y-92479918D01*
X149237986Y-92462417D01*
X149312577Y-92412577D01*
X149362417Y-92337986D01*
X149369223Y-92303765D01*
X149380441Y-92281018D01*
X149401531Y-92266925D01*
X149426842Y-92265267D01*
X149500501Y-92279919D01*
G37*
%TD.AperFunction*%
%TA.AperFunction,Conductor*%
G36*
X140259207Y-91061905D02*
G01*
X140273559Y-91096553D01*
X140273559Y-92794027D01*
X140265301Y-92821249D01*
X140240774Y-92857956D01*
X140240772Y-92857959D01*
X140238093Y-92861970D01*
X140237152Y-92866699D01*
X140237151Y-92866702D01*
X140235120Y-92876911D01*
X140225373Y-92897897D01*
X140218152Y-92906952D01*
X140218151Y-92906953D01*
X140214710Y-92911269D01*
X140213482Y-92916647D01*
X140213481Y-92916650D01*
X140210781Y-92928480D01*
X140207159Y-92938830D01*
X140201896Y-92949760D01*
X140201895Y-92949762D01*
X140199500Y-92954737D01*
X140199500Y-92960260D01*
X140199500Y-93296654D01*
X140195770Y-93315406D01*
X140185148Y-93331302D01*
X139738199Y-93778250D01*
X139731033Y-93783336D01*
X139731064Y-93783375D01*
X139726745Y-93786818D01*
X139721776Y-93789212D01*
X139718338Y-93793522D01*
X139718334Y-93793526D01*
X139701973Y-93814041D01*
X139698319Y-93818131D01*
X139694197Y-93822253D01*
X139694194Y-93822256D01*
X139692252Y-93824199D01*
X139690787Y-93826529D01*
X139690786Y-93826531D01*
X139687685Y-93831465D01*
X139684512Y-93835936D01*
X139668151Y-93856453D01*
X139668149Y-93856455D01*
X139664710Y-93860769D01*
X139663528Y-93865942D01*
X139638510Y-93889741D01*
X139603871Y-93891036D01*
X139577043Y-93869087D01*
X139576604Y-93868327D01*
X139574935Y-93862096D01*
X139517905Y-93805065D01*
X139517903Y-93805064D01*
X139016387Y-93303548D01*
X139002140Y-93272105D01*
X139012161Y-93239070D01*
X139041475Y-93220841D01*
X139113486Y-93206518D01*
X139188077Y-93156678D01*
X139237917Y-93082087D01*
X139255418Y-92994101D01*
X139237917Y-92906115D01*
X139208758Y-92862475D01*
X139200500Y-92835252D01*
X139200500Y-91572635D01*
X139214852Y-91537987D01*
X139458991Y-91293848D01*
X139493639Y-91279496D01*
X139832872Y-91279496D01*
X139839323Y-91279496D01*
X139851501Y-91272463D01*
X139863317Y-91267569D01*
X139876900Y-91263931D01*
X139933931Y-91206901D01*
X139933931Y-91206899D01*
X139996110Y-91144720D01*
X140012006Y-91134101D01*
X140026309Y-91131257D01*
X140026596Y-91131315D01*
X140114582Y-91113814D01*
X140189173Y-91063974D01*
X140190802Y-91061535D01*
X140224559Y-91047553D01*
X140259207Y-91061905D01*
G37*
%TD.AperFunction*%
%TA.AperFunction,Conductor*%
G36*
X145402013Y-93314852D02*
G01*
X145854624Y-93767463D01*
X145868557Y-93795714D01*
X145862412Y-93826609D01*
X145838731Y-93847380D01*
X145815827Y-93848883D01*
X145815827Y-93850000D01*
X145735178Y-93849999D01*
X145735174Y-93849999D01*
X145735172Y-93849999D01*
X145735171Y-93850000D01*
X144511536Y-93850000D01*
X144488438Y-93844214D01*
X144470794Y-93828223D01*
X144464051Y-93818131D01*
X144453991Y-93803076D01*
X144445839Y-93772649D01*
X144457894Y-93743546D01*
X144485175Y-93727795D01*
X144562488Y-93712417D01*
X144637079Y-93662577D01*
X144686919Y-93587986D01*
X144704420Y-93500000D01*
X144686919Y-93412014D01*
X144663337Y-93376722D01*
X144655499Y-93343104D01*
X144671772Y-93312660D01*
X144704080Y-93300500D01*
X145367365Y-93300500D01*
X145402013Y-93314852D01*
G37*
%TD.AperFunction*%
%TA.AperFunction,Conductor*%
G36*
X138141303Y-91634852D02*
G01*
X138150148Y-91643697D01*
X138164500Y-91678345D01*
X138164500Y-92895400D01*
X138152340Y-92927708D01*
X138121896Y-92943981D01*
X138088277Y-92936142D01*
X138036751Y-92901714D01*
X138036750Y-92901713D01*
X138032740Y-92899034D01*
X138028009Y-92898093D01*
X138028007Y-92898092D01*
X137939736Y-92880534D01*
X137935000Y-92879592D01*
X137930264Y-92880534D01*
X137930263Y-92880534D01*
X137850706Y-92896359D01*
X137826923Y-92895191D01*
X137806499Y-92882949D01*
X137662294Y-92738744D01*
X137648047Y-92707300D01*
X137658068Y-92674266D01*
X137679461Y-92660963D01*
X137678547Y-92658755D01*
X137683005Y-92656907D01*
X137687740Y-92655966D01*
X137770601Y-92600601D01*
X137825966Y-92517740D01*
X137843836Y-92427904D01*
X137844466Y-92424736D01*
X137845408Y-92420000D01*
X137843931Y-92412577D01*
X137833861Y-92361951D01*
X137825966Y-92322260D01*
X137770601Y-92239399D01*
X137766589Y-92236718D01*
X137727712Y-92210741D01*
X137708535Y-92185749D01*
X137708536Y-92154248D01*
X137727710Y-92129258D01*
X137770601Y-92100601D01*
X137825966Y-92017740D01*
X137845408Y-91920000D01*
X137825966Y-91822260D01*
X137770601Y-91739399D01*
X137763227Y-91734472D01*
X137727711Y-91710741D01*
X137708527Y-91685729D01*
X137708549Y-91654207D01*
X137727762Y-91629224D01*
X137728516Y-91628720D01*
X137755683Y-91620500D01*
X138106655Y-91620500D01*
X138141303Y-91634852D01*
G37*
%TD.AperFunction*%
%TA.AperFunction,Conductor*%
G36*
X143031303Y-90864852D02*
G01*
X143998250Y-91831799D01*
X144003334Y-91838964D01*
X144003375Y-91838933D01*
X144006816Y-91843248D01*
X144009212Y-91848224D01*
X144013528Y-91851666D01*
X144013529Y-91851667D01*
X144034034Y-91868019D01*
X144038130Y-91871680D01*
X144044199Y-91877749D01*
X144046522Y-91879209D01*
X144046525Y-91879211D01*
X144051464Y-91882314D01*
X144055941Y-91885491D01*
X144080769Y-91905290D01*
X144086150Y-91906518D01*
X144091126Y-91908914D01*
X144091103Y-91908960D01*
X144092173Y-91909403D01*
X144092190Y-91909355D01*
X144097401Y-91911178D01*
X144102076Y-91914116D01*
X144107560Y-91914733D01*
X144107561Y-91914734D01*
X144112266Y-91915264D01*
X144133636Y-91917671D01*
X144139043Y-91918590D01*
X144147410Y-91920500D01*
X144155988Y-91920500D01*
X144161473Y-91920807D01*
X144193027Y-91924363D01*
X144198241Y-91922538D01*
X144203723Y-91921921D01*
X144203728Y-91921971D01*
X144212391Y-91920500D01*
X144786655Y-91920500D01*
X144805407Y-91924230D01*
X144821303Y-91934852D01*
X145452302Y-92565852D01*
X145466654Y-92600500D01*
X145452302Y-92635148D01*
X145417654Y-92649500D01*
X144582635Y-92649500D01*
X144547987Y-92635148D01*
X143182465Y-91269626D01*
X143177904Y-91265065D01*
X143171672Y-91263395D01*
X143164323Y-91261426D01*
X143152506Y-91256531D01*
X143145914Y-91252725D01*
X143145911Y-91252724D01*
X143140327Y-91249500D01*
X143133879Y-91249499D01*
X143133876Y-91249499D01*
X143059679Y-91249499D01*
X143059678Y-91249499D01*
X143059674Y-91249499D01*
X143059672Y-91249499D01*
X143059671Y-91249500D01*
X142945413Y-91249500D01*
X142915585Y-91239375D01*
X142898083Y-91213185D01*
X142899776Y-91187313D01*
X142898927Y-91187144D01*
X142917427Y-91094140D01*
X142918369Y-91089404D01*
X142898927Y-90991664D01*
X142868758Y-90946512D01*
X142860500Y-90919289D01*
X142860500Y-90899500D01*
X142874852Y-90864852D01*
X142909500Y-90850500D01*
X142996655Y-90850500D01*
X143031303Y-90864852D01*
G37*
%TD.AperFunction*%
%TA.AperFunction,Conductor*%
G36*
X137215145Y-91007943D02*
G01*
X137233373Y-91037255D01*
X137235813Y-91049519D01*
X137238492Y-91053529D01*
X137238493Y-91053530D01*
X137283581Y-91121011D01*
X137291178Y-91132380D01*
X137374039Y-91187745D01*
X137375742Y-91188083D01*
X137396128Y-91204814D01*
X137404386Y-91232037D01*
X137396128Y-91259259D01*
X137356715Y-91318245D01*
X137356712Y-91318251D01*
X137354034Y-91322260D01*
X137353093Y-91326988D01*
X137353092Y-91326992D01*
X137337752Y-91404114D01*
X137334592Y-91420000D01*
X137335534Y-91424736D01*
X137353092Y-91513007D01*
X137353093Y-91513009D01*
X137354034Y-91517740D01*
X137356713Y-91521750D01*
X137356714Y-91521751D01*
X137405022Y-91594051D01*
X137409399Y-91600601D01*
X137413410Y-91603281D01*
X137452287Y-91629258D01*
X137471464Y-91654250D01*
X137471464Y-91685750D01*
X137452287Y-91710742D01*
X137413410Y-91736718D01*
X137413407Y-91736720D01*
X137409399Y-91739399D01*
X137406720Y-91743407D01*
X137406718Y-91743410D01*
X137356714Y-91818248D01*
X137356712Y-91818250D01*
X137354034Y-91822260D01*
X137353093Y-91826988D01*
X137353092Y-91826992D01*
X137340588Y-91889857D01*
X137334592Y-91920000D01*
X137335534Y-91924736D01*
X137353092Y-92013007D01*
X137353093Y-92013009D01*
X137354034Y-92017740D01*
X137356713Y-92021750D01*
X137356714Y-92021751D01*
X137406224Y-92095850D01*
X137409399Y-92100601D01*
X137413410Y-92103281D01*
X137413411Y-92103282D01*
X137452286Y-92129257D01*
X137471463Y-92154248D01*
X137471464Y-92185749D01*
X137452288Y-92210741D01*
X137413411Y-92236718D01*
X137409399Y-92239399D01*
X137406720Y-92243407D01*
X137406718Y-92243410D01*
X137356714Y-92318248D01*
X137356712Y-92318250D01*
X137354034Y-92322260D01*
X137353092Y-92326991D01*
X137351246Y-92331451D01*
X137349056Y-92330544D01*
X137335678Y-92351974D01*
X137302665Y-92361951D01*
X137271256Y-92347706D01*
X137112249Y-92188700D01*
X137107166Y-92181535D01*
X137107126Y-92181568D01*
X137103684Y-92177251D01*
X137101288Y-92172276D01*
X137096970Y-92168832D01*
X137096969Y-92168831D01*
X137076464Y-92152479D01*
X137072367Y-92148818D01*
X137068248Y-92144699D01*
X137068248Y-92144698D01*
X137066301Y-92142752D01*
X137063969Y-92141286D01*
X137063966Y-92141284D01*
X137059034Y-92138184D01*
X137054556Y-92135007D01*
X137052096Y-92133045D01*
X137029731Y-92115210D01*
X137024350Y-92113981D01*
X137019376Y-92111586D01*
X137019397Y-92111541D01*
X137018326Y-92111097D01*
X137018310Y-92111144D01*
X137013096Y-92109319D01*
X137008424Y-92106384D01*
X137002940Y-92105766D01*
X136976871Y-92102829D01*
X136971455Y-92101909D01*
X136965770Y-92100611D01*
X136965764Y-92100610D01*
X136963090Y-92100000D01*
X136960339Y-92100000D01*
X136954507Y-92100000D01*
X136949022Y-92099692D01*
X136922956Y-92096755D01*
X136922953Y-92096755D01*
X136917474Y-92096138D01*
X136914601Y-92097143D01*
X136895389Y-92094978D01*
X136876926Y-92083376D01*
X136462723Y-91669174D01*
X136452101Y-91653278D01*
X136448371Y-91634526D01*
X136448371Y-91467295D01*
X136456629Y-91440073D01*
X136466876Y-91424736D01*
X136483837Y-91399352D01*
X136503279Y-91301612D01*
X136502090Y-91295637D01*
X136496866Y-91269374D01*
X136483837Y-91203872D01*
X136479059Y-91196721D01*
X136471221Y-91163105D01*
X136487494Y-91132660D01*
X136519802Y-91120500D01*
X137013876Y-91120500D01*
X137020327Y-91120500D01*
X137032505Y-91113467D01*
X137044321Y-91108573D01*
X137057904Y-91104935D01*
X137114935Y-91047905D01*
X137114935Y-91047903D01*
X137150669Y-91012168D01*
X137182111Y-90997922D01*
X137215145Y-91007943D01*
G37*
%TD.AperFunction*%
%TA.AperFunction,Conductor*%
G36*
X144555567Y-91164852D02*
G01*
X144826567Y-91435852D01*
X144840919Y-91470500D01*
X144826567Y-91505148D01*
X144791919Y-91519500D01*
X144273346Y-91519500D01*
X144238698Y-91505148D01*
X143967698Y-91234148D01*
X143953346Y-91199500D01*
X143967698Y-91164852D01*
X144002346Y-91150500D01*
X144520919Y-91150500D01*
X144555567Y-91164852D01*
G37*
%TD.AperFunction*%
%TA.AperFunction,Conductor*%
G36*
X159835148Y-65164852D02*
G01*
X159849500Y-65199500D01*
X159849500Y-124800500D01*
X159835148Y-124835148D01*
X159800500Y-124849500D01*
X100199500Y-124849500D01*
X100164852Y-124835148D01*
X100150500Y-124800500D01*
X100150500Y-98496945D01*
X115387018Y-98496945D01*
X115387312Y-98499122D01*
X115387313Y-98499124D01*
X115417268Y-98720263D01*
X115417269Y-98720268D01*
X115417563Y-98722437D01*
X115418238Y-98724514D01*
X115418240Y-98724523D01*
X115480755Y-98916922D01*
X115487880Y-98938851D01*
X115488917Y-98940779D01*
X115488921Y-98940787D01*
X115594670Y-99137301D01*
X115594674Y-99137308D01*
X115595710Y-99139232D01*
X115737585Y-99317138D01*
X115908948Y-99466853D01*
X116104289Y-99583564D01*
X116317330Y-99663520D01*
X116541224Y-99704150D01*
X116710671Y-99704150D01*
X116711775Y-99704150D01*
X116881635Y-99688862D01*
X117100986Y-99628325D01*
X117306003Y-99529595D01*
X117490095Y-99395843D01*
X117647347Y-99231371D01*
X117772705Y-99041463D01*
X117862138Y-98832223D01*
X117912773Y-98610377D01*
X117917867Y-98496945D01*
X118562018Y-98496945D01*
X118562312Y-98499122D01*
X118562313Y-98499124D01*
X118592268Y-98720263D01*
X118592269Y-98720268D01*
X118592563Y-98722437D01*
X118593238Y-98724514D01*
X118593240Y-98724523D01*
X118655755Y-98916922D01*
X118662880Y-98938851D01*
X118663917Y-98940779D01*
X118663921Y-98940787D01*
X118769670Y-99137301D01*
X118769674Y-99137308D01*
X118770710Y-99139232D01*
X118912585Y-99317138D01*
X119083948Y-99466853D01*
X119279289Y-99583564D01*
X119492330Y-99663520D01*
X119716224Y-99704150D01*
X119885671Y-99704150D01*
X119886775Y-99704150D01*
X120056635Y-99688862D01*
X120275986Y-99628325D01*
X120481003Y-99529595D01*
X120665095Y-99395843D01*
X120822347Y-99231371D01*
X120947705Y-99041463D01*
X121037138Y-98832223D01*
X121087773Y-98610377D01*
X121097982Y-98383055D01*
X121067437Y-98157563D01*
X121060725Y-98136907D01*
X121049374Y-98101971D01*
X120997120Y-97941149D01*
X120993305Y-97934059D01*
X120890329Y-97742698D01*
X120890326Y-97742694D01*
X120889290Y-97740768D01*
X120747415Y-97562862D01*
X120725531Y-97543743D01*
X120585172Y-97421115D01*
X120576052Y-97413147D01*
X120468022Y-97348602D01*
X120382601Y-97297565D01*
X120382599Y-97297564D01*
X120380711Y-97296436D01*
X120331333Y-97277904D01*
X120169736Y-97217255D01*
X120169732Y-97217253D01*
X120167670Y-97216480D01*
X120165510Y-97216088D01*
X120165503Y-97216086D01*
X119945938Y-97176242D01*
X119945934Y-97176241D01*
X119943776Y-97175850D01*
X119773225Y-97175850D01*
X119772144Y-97175947D01*
X119772128Y-97175948D01*
X119605552Y-97190941D01*
X119605550Y-97190941D01*
X119603365Y-97191138D01*
X119601256Y-97191719D01*
X119601245Y-97191722D01*
X119386131Y-97251090D01*
X119386123Y-97251092D01*
X119384014Y-97251675D01*
X119382046Y-97252622D01*
X119382037Y-97252626D01*
X119180976Y-97349451D01*
X119180967Y-97349456D01*
X119178997Y-97350405D01*
X119177228Y-97351690D01*
X119177220Y-97351695D01*
X118996683Y-97482864D01*
X118996674Y-97482871D01*
X118994905Y-97484157D01*
X118993388Y-97485743D01*
X118993383Y-97485748D01*
X118839175Y-97647036D01*
X118839169Y-97647042D01*
X118837653Y-97648629D01*
X118836443Y-97650461D01*
X118836439Y-97650467D01*
X118713507Y-97836699D01*
X118713501Y-97836709D01*
X118712295Y-97838537D01*
X118711435Y-97840547D01*
X118711429Y-97840560D01*
X118623725Y-98045756D01*
X118623722Y-98045763D01*
X118622862Y-98047777D01*
X118622374Y-98049910D01*
X118622372Y-98049920D01*
X118577671Y-98245770D01*
X118572227Y-98269623D01*
X118572128Y-98271814D01*
X118572128Y-98271819D01*
X118562116Y-98494747D01*
X118562116Y-98494754D01*
X118562018Y-98496945D01*
X117917867Y-98496945D01*
X117922982Y-98383055D01*
X117892437Y-98157563D01*
X117885725Y-98136907D01*
X117874374Y-98101971D01*
X117822120Y-97941149D01*
X117818305Y-97934059D01*
X117715329Y-97742698D01*
X117715326Y-97742694D01*
X117714290Y-97740768D01*
X117572415Y-97562862D01*
X117550531Y-97543743D01*
X117410172Y-97421115D01*
X117401052Y-97413147D01*
X117293022Y-97348602D01*
X117278625Y-97340000D01*
X117744592Y-97340000D01*
X117745534Y-97344736D01*
X117763092Y-97433007D01*
X117763093Y-97433009D01*
X117764034Y-97437740D01*
X117766713Y-97441750D01*
X117766714Y-97441751D01*
X117813930Y-97512417D01*
X117819399Y-97520601D01*
X117902260Y-97575966D01*
X118000000Y-97595408D01*
X118097740Y-97575966D01*
X118132476Y-97552756D01*
X118138461Y-97548758D01*
X118165683Y-97540500D01*
X118657612Y-97540500D01*
X118666271Y-97541971D01*
X118666277Y-97541920D01*
X118671760Y-97542537D01*
X118676974Y-97544362D01*
X118708521Y-97540808D01*
X118714007Y-97540500D01*
X118719836Y-97540500D01*
X118722590Y-97540500D01*
X118730960Y-97538589D01*
X118736367Y-97537670D01*
X118767924Y-97534116D01*
X118772598Y-97531178D01*
X118777812Y-97529354D01*
X118777829Y-97529402D01*
X118778894Y-97528961D01*
X118778872Y-97528914D01*
X118783844Y-97526519D01*
X118789231Y-97525290D01*
X118814064Y-97505485D01*
X118818537Y-97502312D01*
X118825801Y-97497748D01*
X118831877Y-97491671D01*
X118835946Y-97488033D01*
X118860788Y-97468224D01*
X118863183Y-97463249D01*
X118866626Y-97458932D01*
X118866665Y-97458963D01*
X118871747Y-97451800D01*
X119268697Y-97054852D01*
X119303346Y-97040500D01*
X120817612Y-97040500D01*
X120826271Y-97041971D01*
X120826277Y-97041920D01*
X120831760Y-97042537D01*
X120836974Y-97044362D01*
X120868521Y-97040808D01*
X120874007Y-97040500D01*
X120879836Y-97040500D01*
X120882590Y-97040500D01*
X120890960Y-97038589D01*
X120896367Y-97037670D01*
X120927924Y-97034116D01*
X120932598Y-97031178D01*
X120937812Y-97029354D01*
X120937829Y-97029402D01*
X120938894Y-97028961D01*
X120938872Y-97028914D01*
X120943844Y-97026519D01*
X120949231Y-97025290D01*
X120974064Y-97005485D01*
X120978537Y-97002312D01*
X120985801Y-96997748D01*
X120991877Y-96991671D01*
X120995946Y-96988033D01*
X121020788Y-96968224D01*
X121023183Y-96963249D01*
X121026626Y-96958932D01*
X121026665Y-96958963D01*
X121031747Y-96951800D01*
X127168697Y-90814852D01*
X127203346Y-90800500D01*
X131919841Y-90800500D01*
X131922590Y-90800500D01*
X131931719Y-90798416D01*
X131940096Y-90796505D01*
X131968901Y-90798663D01*
X131991486Y-90816673D01*
X132000000Y-90844276D01*
X132000000Y-90962185D01*
X131993435Y-90986685D01*
X131966555Y-91033242D01*
X131966553Y-91033245D01*
X131964412Y-91036955D01*
X131963668Y-91041173D01*
X131963668Y-91041174D01*
X131962197Y-91049519D01*
X131944479Y-91150000D01*
X131960238Y-91239375D01*
X131960700Y-91241991D01*
X131957437Y-91269908D01*
X131939370Y-91291439D01*
X131912444Y-91299500D01*
X127902390Y-91299500D01*
X127893727Y-91298028D01*
X127893722Y-91298079D01*
X127888238Y-91297461D01*
X127883026Y-91295637D01*
X127877539Y-91296255D01*
X127851473Y-91299192D01*
X127845987Y-91299500D01*
X127837410Y-91299500D01*
X127834731Y-91300111D01*
X127834724Y-91300112D01*
X127829045Y-91301408D01*
X127823637Y-91302327D01*
X127797558Y-91305266D01*
X127797556Y-91305266D01*
X127792076Y-91305884D01*
X127787404Y-91308819D01*
X127782192Y-91310643D01*
X127782175Y-91310597D01*
X127781103Y-91311041D01*
X127781125Y-91311086D01*
X127776150Y-91313481D01*
X127770769Y-91314710D01*
X127766453Y-91318151D01*
X127766450Y-91318153D01*
X127745947Y-91334503D01*
X127741476Y-91337676D01*
X127736529Y-91340785D01*
X127736519Y-91340792D01*
X127734199Y-91342251D01*
X127732260Y-91344189D01*
X127732257Y-91344192D01*
X127728126Y-91348323D01*
X127724036Y-91351977D01*
X127703527Y-91368333D01*
X127703523Y-91368337D01*
X127699212Y-91371776D01*
X127696817Y-91376748D01*
X127693376Y-91381064D01*
X127693336Y-91381032D01*
X127688252Y-91388196D01*
X123222829Y-95853620D01*
X123197741Y-95867030D01*
X123116992Y-95883092D01*
X123116988Y-95883093D01*
X123112260Y-95884034D01*
X123108250Y-95886712D01*
X123108248Y-95886714D01*
X123033410Y-95936718D01*
X123033407Y-95936720D01*
X123029399Y-95939399D01*
X123026720Y-95943407D01*
X123026718Y-95943410D01*
X122976714Y-96018248D01*
X122976712Y-96018250D01*
X122974034Y-96022260D01*
X122973093Y-96026988D01*
X122973092Y-96026992D01*
X122963064Y-96077409D01*
X122954592Y-96120000D01*
X122955534Y-96124736D01*
X122973092Y-96213007D01*
X122973093Y-96213009D01*
X122974034Y-96217740D01*
X122976713Y-96221750D01*
X122976714Y-96221751D01*
X123022275Y-96289940D01*
X123029399Y-96300601D01*
X123112260Y-96355966D01*
X123210000Y-96375408D01*
X123307740Y-96355966D01*
X123390601Y-96300601D01*
X123445966Y-96217740D01*
X123448070Y-96207157D01*
X123461480Y-96182067D01*
X127928697Y-91714852D01*
X127963346Y-91700500D01*
X131919841Y-91700500D01*
X131922590Y-91700500D01*
X131931719Y-91698416D01*
X131940096Y-91696505D01*
X131968901Y-91698663D01*
X131991486Y-91716673D01*
X132000000Y-91744276D01*
X132000000Y-92249747D01*
X131997045Y-92266506D01*
X131985188Y-92299081D01*
X131985186Y-92299087D01*
X131984457Y-92301091D01*
X131984087Y-92303183D01*
X131984085Y-92303195D01*
X131950508Y-92493626D01*
X131949500Y-92499344D01*
X131949500Y-92580186D01*
X131949500Y-99465649D01*
X131949500Y-99500000D01*
X131949500Y-99630081D01*
X131949677Y-99631542D01*
X131949678Y-99631552D01*
X131963017Y-99741408D01*
X131980859Y-99888347D01*
X131981212Y-99889779D01*
X131981214Y-99889790D01*
X132042764Y-100139506D01*
X132043120Y-100140950D01*
X132043643Y-100142331D01*
X132043645Y-100142335D01*
X132134853Y-100382830D01*
X132135375Y-100384206D01*
X132136058Y-100385507D01*
X132136061Y-100385514D01*
X132255587Y-100613254D01*
X132255593Y-100613264D01*
X132256278Y-100614569D01*
X132404068Y-100828678D01*
X132576587Y-101023413D01*
X132771322Y-101195932D01*
X132985431Y-101343722D01*
X132986740Y-101344409D01*
X132986745Y-101344412D01*
X133214485Y-101463938D01*
X133215794Y-101464625D01*
X133459050Y-101556880D01*
X133711653Y-101619141D01*
X133969919Y-101650500D01*
X134080186Y-101650500D01*
X134100000Y-101650500D01*
X134134351Y-101650500D01*
X139965649Y-101650500D01*
X140019814Y-101650500D01*
X140098515Y-101650500D01*
X140100656Y-101650500D01*
X140269412Y-101620744D01*
X140277922Y-101620000D01*
X141018855Y-101620000D01*
X141035612Y-101622954D01*
X141042606Y-101625500D01*
X141153105Y-101625500D01*
X141157394Y-101625500D01*
X141164387Y-101622954D01*
X141181145Y-101620000D01*
X141638855Y-101620000D01*
X141655612Y-101622954D01*
X141662606Y-101625500D01*
X141773105Y-101625500D01*
X141777394Y-101625500D01*
X141784387Y-101622954D01*
X141801145Y-101620000D01*
X142218855Y-101620000D01*
X142235612Y-101622954D01*
X142242606Y-101625500D01*
X142353105Y-101625500D01*
X142357394Y-101625500D01*
X142364387Y-101622954D01*
X142381145Y-101620000D01*
X142838855Y-101620000D01*
X142855612Y-101622954D01*
X142862606Y-101625500D01*
X142973105Y-101625500D01*
X142977394Y-101625500D01*
X142984387Y-101622954D01*
X143001145Y-101620000D01*
X143742078Y-101620000D01*
X143750587Y-101620744D01*
X143919344Y-101650500D01*
X144000186Y-101650500D01*
X144020000Y-101650500D01*
X144054351Y-101650500D01*
X151065649Y-101650500D01*
X151119814Y-101650500D01*
X151228596Y-101650500D01*
X151230081Y-101650500D01*
X151488347Y-101619141D01*
X151740950Y-101556880D01*
X151984206Y-101464625D01*
X152214569Y-101343722D01*
X152428678Y-101195932D01*
X152623413Y-101023413D01*
X152795932Y-100828678D01*
X152943722Y-100614569D01*
X153064625Y-100384206D01*
X153156880Y-100140950D01*
X153219141Y-99888347D01*
X153250500Y-99630081D01*
X153250500Y-99500000D01*
X153250500Y-99465649D01*
X153250500Y-93100186D01*
X153250500Y-93019344D01*
X153215543Y-92821091D01*
X153202954Y-92786505D01*
X153200000Y-92769747D01*
X153200000Y-92164513D01*
X153206565Y-92140013D01*
X153210588Y-92133045D01*
X153230521Y-92020000D01*
X153210588Y-91906955D01*
X153206564Y-91899986D01*
X153200000Y-91875487D01*
X153200000Y-91544513D01*
X153206565Y-91520013D01*
X153206861Y-91519500D01*
X153210588Y-91513045D01*
X153230521Y-91400000D01*
X153210588Y-91286955D01*
X153206564Y-91279986D01*
X153200000Y-91255487D01*
X153200000Y-90650253D01*
X153202955Y-90633494D01*
X153204383Y-90629570D01*
X153215543Y-90598909D01*
X153250500Y-90400656D01*
X153250500Y-90300000D01*
X153250500Y-90265649D01*
X153250500Y-85650186D01*
X153250500Y-85539919D01*
X153219141Y-85281653D01*
X153156880Y-85029050D01*
X153064625Y-84785794D01*
X152943722Y-84555431D01*
X152795932Y-84341322D01*
X152623413Y-84146587D01*
X152428678Y-83974068D01*
X152214569Y-83826278D01*
X152213264Y-83825593D01*
X152213254Y-83825587D01*
X151985514Y-83706061D01*
X151985507Y-83706058D01*
X151984206Y-83705375D01*
X151965440Y-83698258D01*
X151742335Y-83613645D01*
X151742331Y-83613643D01*
X151740950Y-83613120D01*
X151689749Y-83600500D01*
X151489790Y-83551214D01*
X151489779Y-83551212D01*
X151488347Y-83550859D01*
X151486876Y-83550680D01*
X151486874Y-83550680D01*
X151231552Y-83519678D01*
X151231542Y-83519677D01*
X151230081Y-83519500D01*
X151228596Y-83519500D01*
X151119811Y-83519500D01*
X151119809Y-83519499D01*
X151119806Y-83519499D01*
X151119794Y-83519499D01*
X151100365Y-83519500D01*
X151100000Y-83519500D01*
X151065649Y-83519500D01*
X151065645Y-83519500D01*
X151065643Y-83519501D01*
X146446263Y-83519739D01*
X146416853Y-83509934D01*
X146399216Y-83484443D01*
X146355437Y-83334126D01*
X146259033Y-83137249D01*
X146130367Y-82959770D01*
X146128857Y-82958301D01*
X145974742Y-82808386D01*
X145974736Y-82808381D01*
X145973234Y-82806920D01*
X145792266Y-82683208D01*
X145790349Y-82682334D01*
X145594711Y-82593152D01*
X145594704Y-82593149D01*
X145592801Y-82592282D01*
X145590775Y-82591752D01*
X145590769Y-82591750D01*
X145382754Y-82537354D01*
X145382746Y-82537352D01*
X145380721Y-82536823D01*
X145378634Y-82536647D01*
X145378625Y-82536646D01*
X145164378Y-82518643D01*
X145164372Y-82518643D01*
X145162278Y-82518467D01*
X145160183Y-82518651D01*
X145160177Y-82518652D01*
X144946015Y-82537568D01*
X144946007Y-82537569D01*
X144943917Y-82537754D01*
X144941886Y-82538294D01*
X144941882Y-82538295D01*
X144734110Y-82593575D01*
X144734106Y-82593576D01*
X144732074Y-82594117D01*
X144730167Y-82594995D01*
X144730159Y-82594999D01*
X144534913Y-82685010D01*
X144534907Y-82685013D01*
X144532999Y-82685893D01*
X144531269Y-82687086D01*
X144531261Y-82687091D01*
X144354301Y-82809173D01*
X144354299Y-82809175D01*
X144352560Y-82810375D01*
X144351054Y-82811851D01*
X144351052Y-82811854D01*
X144197581Y-82962420D01*
X144197573Y-82962428D01*
X144196080Y-82963894D01*
X144194853Y-82965601D01*
X144194851Y-82965604D01*
X144074113Y-83133650D01*
X144047991Y-83152113D01*
X144016043Y-83150523D01*
X143991884Y-83129559D01*
X143955338Y-83066259D01*
X143953194Y-83062545D01*
X143949910Y-83059789D01*
X143949909Y-83059788D01*
X143868543Y-82991514D01*
X143865261Y-82988760D01*
X143861235Y-82987294D01*
X143861234Y-82987294D01*
X143796944Y-82963895D01*
X143757394Y-82949500D01*
X143642606Y-82949500D01*
X143638575Y-82950966D01*
X143638575Y-82950967D01*
X143538770Y-82987293D01*
X143538769Y-82987293D01*
X143534740Y-82988760D01*
X143531457Y-82991514D01*
X143531453Y-82991517D01*
X143450089Y-83059790D01*
X143446806Y-83062545D01*
X143444666Y-83066251D01*
X143444663Y-83066255D01*
X143408114Y-83129561D01*
X143383954Y-83150525D01*
X143352006Y-83152115D01*
X143325885Y-83133652D01*
X143272817Y-83059790D01*
X143203919Y-82963895D01*
X143201453Y-82961476D01*
X143102759Y-82864650D01*
X143047439Y-82810377D01*
X143045694Y-82809173D01*
X142868737Y-82687093D01*
X142868734Y-82687091D01*
X142867000Y-82685895D01*
X142865085Y-82685012D01*
X142669839Y-82595001D01*
X142669835Y-82594999D01*
X142667925Y-82594119D01*
X142456083Y-82537756D01*
X142453990Y-82537571D01*
X142453984Y-82537570D01*
X142239822Y-82518654D01*
X142239816Y-82518653D01*
X142237722Y-82518469D01*
X142235627Y-82518645D01*
X142235621Y-82518645D01*
X142021375Y-82536648D01*
X142021364Y-82536649D01*
X142019280Y-82536825D01*
X142017255Y-82537354D01*
X142017246Y-82537356D01*
X141809230Y-82591752D01*
X141809220Y-82591755D01*
X141807199Y-82592284D01*
X141805299Y-82593149D01*
X141805288Y-82593154D01*
X141609652Y-82682336D01*
X141607735Y-82683210D01*
X141606000Y-82684395D01*
X141605993Y-82684400D01*
X141428505Y-82805733D01*
X141428498Y-82805738D01*
X141426767Y-82806922D01*
X141425263Y-82808384D01*
X141425258Y-82808389D01*
X141271143Y-82958302D01*
X141271136Y-82958309D01*
X141269634Y-82959771D01*
X141268402Y-82961469D01*
X141268397Y-82961476D01*
X141142207Y-83135541D01*
X141142202Y-83135548D01*
X141140969Y-83137250D01*
X141140043Y-83139140D01*
X141140040Y-83139146D01*
X141045544Y-83332126D01*
X141044565Y-83334126D01*
X141043977Y-83336142D01*
X141043974Y-83336152D01*
X141000784Y-83484443D01*
X140983146Y-83509936D01*
X140953737Y-83519741D01*
X134134352Y-83519500D01*
X134134351Y-83519500D01*
X134108432Y-83519500D01*
X134080200Y-83519499D01*
X134080191Y-83519499D01*
X134080187Y-83519499D01*
X134080185Y-83519500D01*
X133969919Y-83519500D01*
X133968458Y-83519677D01*
X133968447Y-83519678D01*
X133713125Y-83550680D01*
X133713120Y-83550680D01*
X133711653Y-83550859D01*
X133710223Y-83551211D01*
X133710209Y-83551214D01*
X133460493Y-83612764D01*
X133460487Y-83612765D01*
X133459050Y-83613120D01*
X133457673Y-83613642D01*
X133457664Y-83613645D01*
X133217169Y-83704853D01*
X133217161Y-83704856D01*
X133215794Y-83705375D01*
X133214498Y-83706054D01*
X133214485Y-83706061D01*
X132986745Y-83825587D01*
X132986727Y-83825597D01*
X132985431Y-83826278D01*
X132984219Y-83827114D01*
X132984210Y-83827120D01*
X132772544Y-83973224D01*
X132772538Y-83973228D01*
X132771322Y-83974068D01*
X132770215Y-83975048D01*
X132770212Y-83975051D01*
X132577691Y-84145608D01*
X132577682Y-84145616D01*
X132576587Y-84146587D01*
X132575616Y-84147682D01*
X132575608Y-84147691D01*
X132405051Y-84340212D01*
X132404068Y-84341322D01*
X132403228Y-84342538D01*
X132403224Y-84342544D01*
X132257120Y-84554210D01*
X132257114Y-84554219D01*
X132256278Y-84555431D01*
X132255597Y-84556727D01*
X132255587Y-84556745D01*
X132136061Y-84784485D01*
X132136054Y-84784498D01*
X132135375Y-84785794D01*
X132134856Y-84787161D01*
X132134853Y-84787169D01*
X132043645Y-85027664D01*
X132043642Y-85027673D01*
X132043120Y-85029050D01*
X132042765Y-85030487D01*
X132042764Y-85030493D01*
X131981214Y-85280209D01*
X131981211Y-85280223D01*
X131980859Y-85281653D01*
X131980680Y-85283120D01*
X131980680Y-85283125D01*
X131949678Y-85538447D01*
X131949677Y-85538458D01*
X131949500Y-85539919D01*
X131949500Y-85650186D01*
X131949500Y-89615649D01*
X131949500Y-89650000D01*
X131949500Y-89750656D01*
X131949870Y-89752759D01*
X131949871Y-89752761D01*
X131984085Y-89946804D01*
X131984087Y-89946813D01*
X131984457Y-89948909D01*
X131985187Y-89950915D01*
X131985188Y-89950918D01*
X131997045Y-89983494D01*
X132000000Y-90000253D01*
X132000000Y-90355724D01*
X131991486Y-90383327D01*
X131968901Y-90401337D01*
X131940096Y-90403495D01*
X131925274Y-90400112D01*
X131925268Y-90400111D01*
X131922590Y-90399500D01*
X131919841Y-90399500D01*
X127349500Y-90399500D01*
X127314852Y-90385148D01*
X127300500Y-90350500D01*
X127300500Y-85589888D01*
X127301971Y-85581228D01*
X127301920Y-85581223D01*
X127302537Y-85575739D01*
X127304362Y-85570526D01*
X127300808Y-85538978D01*
X127300500Y-85533493D01*
X127300500Y-85527665D01*
X127300500Y-85524910D01*
X127298587Y-85516533D01*
X127297671Y-85511137D01*
X127294116Y-85479576D01*
X127291178Y-85474901D01*
X127289355Y-85469690D01*
X127289403Y-85469673D01*
X127288960Y-85468603D01*
X127288914Y-85468626D01*
X127286518Y-85463650D01*
X127285290Y-85458269D01*
X127265486Y-85433435D01*
X127262316Y-85428968D01*
X127257748Y-85421699D01*
X127251680Y-85415631D01*
X127248028Y-85411545D01*
X127228224Y-85386712D01*
X127223249Y-85384316D01*
X127218933Y-85380874D01*
X127218964Y-85380834D01*
X127211798Y-85375749D01*
X121366812Y-79530763D01*
X121352990Y-79503305D01*
X121358246Y-79473016D01*
X121422396Y-79353001D01*
X121476747Y-79173831D01*
X121495099Y-78987500D01*
X122124901Y-78987500D01*
X122125137Y-78989896D01*
X122143007Y-79171340D01*
X122143253Y-79173831D01*
X122143948Y-79176124D01*
X122143950Y-79176131D01*
X122196847Y-79350506D01*
X122197604Y-79353001D01*
X122198742Y-79355130D01*
X122284579Y-79515722D01*
X122285864Y-79518125D01*
X122404643Y-79662857D01*
X122549375Y-79781636D01*
X122714499Y-79869896D01*
X122893669Y-79924247D01*
X123080000Y-79942599D01*
X123266331Y-79924247D01*
X123445501Y-79869896D01*
X123610625Y-79781636D01*
X123755357Y-79662857D01*
X123874136Y-79518125D01*
X123962396Y-79353001D01*
X124016747Y-79173831D01*
X124035099Y-78987500D01*
X124016747Y-78801169D01*
X123962396Y-78621999D01*
X123874136Y-78456875D01*
X123755357Y-78312143D01*
X123703879Y-78269896D01*
X123612487Y-78194892D01*
X123612486Y-78194891D01*
X123610625Y-78193364D01*
X123445501Y-78105104D01*
X123443193Y-78104403D01*
X123443191Y-78104403D01*
X123268631Y-78051450D01*
X123268624Y-78051448D01*
X123266331Y-78050753D01*
X123263941Y-78050517D01*
X123263938Y-78050517D01*
X123082396Y-78032637D01*
X123080000Y-78032401D01*
X123077604Y-78032637D01*
X122896061Y-78050517D01*
X122896056Y-78050517D01*
X122893669Y-78050753D01*
X122891377Y-78051448D01*
X122891368Y-78051450D01*
X122716808Y-78104403D01*
X122716802Y-78104405D01*
X122714499Y-78105104D01*
X122712373Y-78106240D01*
X122712369Y-78106242D01*
X122551499Y-78192228D01*
X122551493Y-78192231D01*
X122549375Y-78193364D01*
X122547518Y-78194887D01*
X122547512Y-78194892D01*
X122406505Y-78310614D01*
X122406500Y-78310618D01*
X122404643Y-78312143D01*
X122403118Y-78314000D01*
X122403114Y-78314005D01*
X122287392Y-78455012D01*
X122287387Y-78455018D01*
X122285864Y-78456875D01*
X122284731Y-78458993D01*
X122284728Y-78458999D01*
X122198742Y-78619869D01*
X122198740Y-78619873D01*
X122197604Y-78621999D01*
X122196905Y-78624302D01*
X122196903Y-78624308D01*
X122143950Y-78798868D01*
X122143948Y-78798877D01*
X122143253Y-78801169D01*
X122143017Y-78803556D01*
X122143017Y-78803561D01*
X122133448Y-78900718D01*
X122124901Y-78987500D01*
X121495099Y-78987500D01*
X121476747Y-78801169D01*
X121422396Y-78621999D01*
X121334136Y-78456875D01*
X121215357Y-78312143D01*
X121163879Y-78269896D01*
X121072487Y-78194892D01*
X121072486Y-78194891D01*
X121070625Y-78193364D01*
X120905501Y-78105104D01*
X120903193Y-78104403D01*
X120903191Y-78104403D01*
X120775276Y-78065600D01*
X120750143Y-78047899D01*
X120740500Y-78018710D01*
X120740500Y-77416290D01*
X120750143Y-77387101D01*
X120775276Y-77369400D01*
X120811222Y-77358495D01*
X120905501Y-77329896D01*
X121070625Y-77241636D01*
X121215357Y-77122857D01*
X121249905Y-77080760D01*
X122129500Y-77080760D01*
X122129756Y-77082517D01*
X122135633Y-77122857D01*
X122139427Y-77148893D01*
X122141097Y-77152309D01*
X122141098Y-77152312D01*
X122147351Y-77165102D01*
X122190802Y-77253983D01*
X122273517Y-77336698D01*
X122378607Y-77388073D01*
X122446740Y-77398000D01*
X123711484Y-77398000D01*
X123713260Y-77398000D01*
X123781393Y-77388073D01*
X123886483Y-77336698D01*
X123969198Y-77253983D01*
X124020573Y-77148893D01*
X124030500Y-77080760D01*
X124030500Y-75814240D01*
X124020573Y-75746107D01*
X123969198Y-75641017D01*
X123886483Y-75558302D01*
X123838228Y-75534712D01*
X123784812Y-75508598D01*
X123784809Y-75508597D01*
X123781393Y-75506927D01*
X123777628Y-75506378D01*
X123777627Y-75506378D01*
X123715017Y-75497256D01*
X123713260Y-75497000D01*
X122446740Y-75497000D01*
X122444983Y-75497255D01*
X122444982Y-75497256D01*
X122382372Y-75506378D01*
X122382369Y-75506378D01*
X122378607Y-75506927D01*
X122375192Y-75508596D01*
X122375187Y-75508598D01*
X122277166Y-75556518D01*
X122273517Y-75558302D01*
X122270646Y-75561172D01*
X122270643Y-75561175D01*
X122193675Y-75638143D01*
X122193672Y-75638146D01*
X122190802Y-75641017D01*
X122189018Y-75644665D01*
X122189018Y-75644666D01*
X122141098Y-75742687D01*
X122141096Y-75742692D01*
X122139427Y-75746107D01*
X122138878Y-75749869D01*
X122138878Y-75749872D01*
X122135362Y-75774005D01*
X122129500Y-75814240D01*
X122129500Y-77080760D01*
X121249905Y-77080760D01*
X121334136Y-76978125D01*
X121422396Y-76813001D01*
X121476747Y-76633831D01*
X121495099Y-76447500D01*
X121476747Y-76261169D01*
X121422396Y-76081999D01*
X121334136Y-75916875D01*
X121215357Y-75772143D01*
X121163879Y-75729896D01*
X121072487Y-75654892D01*
X121072486Y-75654891D01*
X121070625Y-75653364D01*
X121042148Y-75638143D01*
X120907630Y-75566242D01*
X120905501Y-75565104D01*
X120903193Y-75564403D01*
X120903191Y-75564403D01*
X120728631Y-75511450D01*
X120728624Y-75511448D01*
X120726331Y-75510753D01*
X120723941Y-75510517D01*
X120723938Y-75510517D01*
X120542396Y-75492637D01*
X120540000Y-75492401D01*
X120537604Y-75492637D01*
X120356061Y-75510517D01*
X120356056Y-75510517D01*
X120353669Y-75510753D01*
X120351377Y-75511448D01*
X120351368Y-75511450D01*
X120176808Y-75564403D01*
X120176802Y-75564405D01*
X120174499Y-75565104D01*
X120172373Y-75566240D01*
X120172369Y-75566242D01*
X120011499Y-75652228D01*
X120011493Y-75652231D01*
X120009375Y-75653364D01*
X120007518Y-75654887D01*
X120007512Y-75654892D01*
X119866505Y-75770614D01*
X119866500Y-75770618D01*
X119864643Y-75772143D01*
X119863118Y-75774000D01*
X119863114Y-75774005D01*
X119747392Y-75915012D01*
X119747387Y-75915018D01*
X119745864Y-75916875D01*
X119744731Y-75918993D01*
X119744728Y-75918999D01*
X119658742Y-76079869D01*
X119658740Y-76079873D01*
X119657604Y-76081999D01*
X119656905Y-76084302D01*
X119656903Y-76084308D01*
X119603950Y-76258868D01*
X119603948Y-76258877D01*
X119603253Y-76261169D01*
X119603017Y-76263556D01*
X119603017Y-76263561D01*
X119593448Y-76360718D01*
X119584901Y-76447500D01*
X119585137Y-76449896D01*
X119603007Y-76631340D01*
X119603253Y-76633831D01*
X119603948Y-76636124D01*
X119603950Y-76636131D01*
X119656847Y-76810506D01*
X119657604Y-76813001D01*
X119658742Y-76815130D01*
X119744579Y-76975722D01*
X119745864Y-76978125D01*
X119864643Y-77122857D01*
X120009375Y-77241636D01*
X120174499Y-77329896D01*
X120253689Y-77353918D01*
X120304724Y-77369400D01*
X120329857Y-77387101D01*
X120339500Y-77416290D01*
X120339500Y-78018710D01*
X120329857Y-78047899D01*
X120304724Y-78065600D01*
X120176808Y-78104403D01*
X120176802Y-78104405D01*
X120174499Y-78105104D01*
X120172373Y-78106240D01*
X120172369Y-78106242D01*
X120011499Y-78192228D01*
X120011493Y-78192231D01*
X120009375Y-78193364D01*
X120007518Y-78194887D01*
X120007512Y-78194892D01*
X119866505Y-78310614D01*
X119866500Y-78310618D01*
X119864643Y-78312143D01*
X119863118Y-78314000D01*
X119863114Y-78314005D01*
X119747392Y-78455012D01*
X119747387Y-78455018D01*
X119745864Y-78456875D01*
X119744731Y-78458993D01*
X119744728Y-78458999D01*
X119658742Y-78619869D01*
X119658740Y-78619873D01*
X119657604Y-78621999D01*
X119656905Y-78624302D01*
X119656903Y-78624308D01*
X119603950Y-78798868D01*
X119603948Y-78798877D01*
X119603253Y-78801169D01*
X119603017Y-78803556D01*
X119603017Y-78803561D01*
X119593448Y-78900718D01*
X119584901Y-78987500D01*
X119585137Y-78989896D01*
X119603007Y-79171340D01*
X119603253Y-79173831D01*
X119603948Y-79176124D01*
X119603950Y-79176131D01*
X119656847Y-79350506D01*
X119657604Y-79353001D01*
X119658742Y-79355130D01*
X119744579Y-79515722D01*
X119745864Y-79518125D01*
X119864643Y-79662857D01*
X120009375Y-79781636D01*
X120174499Y-79869896D01*
X120353669Y-79924247D01*
X120540000Y-79942599D01*
X120726331Y-79924247D01*
X120905501Y-79869896D01*
X121025516Y-79805745D01*
X121055805Y-79800490D01*
X121083263Y-79814312D01*
X126885148Y-85616197D01*
X126899500Y-85650845D01*
X126899500Y-90496654D01*
X126885148Y-90531302D01*
X120791303Y-96625148D01*
X120775406Y-96635770D01*
X120756655Y-96639500D01*
X119242388Y-96639500D01*
X119233728Y-96638028D01*
X119233723Y-96638080D01*
X119228238Y-96637461D01*
X119223026Y-96635638D01*
X119217539Y-96636256D01*
X119191478Y-96639192D01*
X119185993Y-96639500D01*
X119177410Y-96639500D01*
X119174734Y-96640110D01*
X119174721Y-96640112D01*
X119169038Y-96641409D01*
X119163631Y-96642328D01*
X119137561Y-96645265D01*
X119137556Y-96645266D01*
X119132076Y-96645884D01*
X119127402Y-96648820D01*
X119122191Y-96650644D01*
X119122174Y-96650597D01*
X119121103Y-96651041D01*
X119121125Y-96651086D01*
X119116150Y-96653481D01*
X119110769Y-96654710D01*
X119106453Y-96658151D01*
X119106450Y-96658153D01*
X119085947Y-96674503D01*
X119081476Y-96677676D01*
X119076529Y-96680785D01*
X119076519Y-96680792D01*
X119074199Y-96682251D01*
X119072260Y-96684189D01*
X119072257Y-96684192D01*
X119068126Y-96688323D01*
X119064036Y-96691977D01*
X119043528Y-96708333D01*
X119043526Y-96708335D01*
X119039212Y-96711776D01*
X119036817Y-96716747D01*
X119033375Y-96721064D01*
X119033335Y-96721032D01*
X119028250Y-96728198D01*
X118631303Y-97125148D01*
X118615407Y-97135770D01*
X118596655Y-97139500D01*
X118165683Y-97139500D01*
X118138461Y-97131242D01*
X118101754Y-97106716D01*
X118097740Y-97104034D01*
X118033019Y-97091160D01*
X118004736Y-97085534D01*
X118000000Y-97084592D01*
X117995264Y-97085534D01*
X117906992Y-97103092D01*
X117906988Y-97103093D01*
X117902260Y-97104034D01*
X117898250Y-97106712D01*
X117898248Y-97106714D01*
X117823410Y-97156718D01*
X117823407Y-97156720D01*
X117819399Y-97159399D01*
X117816720Y-97163407D01*
X117816718Y-97163410D01*
X117766714Y-97238248D01*
X117766712Y-97238250D01*
X117764034Y-97242260D01*
X117763093Y-97246988D01*
X117763092Y-97246992D01*
X117745557Y-97335148D01*
X117744592Y-97340000D01*
X117278625Y-97340000D01*
X117207601Y-97297565D01*
X117207599Y-97297564D01*
X117205711Y-97296436D01*
X117156333Y-97277904D01*
X116994736Y-97217255D01*
X116994732Y-97217253D01*
X116992670Y-97216480D01*
X116990510Y-97216088D01*
X116990503Y-97216086D01*
X116770938Y-97176242D01*
X116770934Y-97176241D01*
X116768776Y-97175850D01*
X116598225Y-97175850D01*
X116597144Y-97175947D01*
X116597128Y-97175948D01*
X116430552Y-97190941D01*
X116430550Y-97190941D01*
X116428365Y-97191138D01*
X116426256Y-97191719D01*
X116426245Y-97191722D01*
X116211131Y-97251090D01*
X116211123Y-97251092D01*
X116209014Y-97251675D01*
X116207046Y-97252622D01*
X116207037Y-97252626D01*
X116005976Y-97349451D01*
X116005967Y-97349456D01*
X116003997Y-97350405D01*
X116002228Y-97351690D01*
X116002220Y-97351695D01*
X115821683Y-97482864D01*
X115821674Y-97482871D01*
X115819905Y-97484157D01*
X115818388Y-97485743D01*
X115818383Y-97485748D01*
X115664175Y-97647036D01*
X115664169Y-97647042D01*
X115662653Y-97648629D01*
X115661443Y-97650461D01*
X115661439Y-97650467D01*
X115538507Y-97836699D01*
X115538501Y-97836709D01*
X115537295Y-97838537D01*
X115536435Y-97840547D01*
X115536429Y-97840560D01*
X115448725Y-98045756D01*
X115448722Y-98045763D01*
X115447862Y-98047777D01*
X115447374Y-98049910D01*
X115447372Y-98049920D01*
X115402671Y-98245770D01*
X115397227Y-98269623D01*
X115397128Y-98271814D01*
X115397128Y-98271819D01*
X115387116Y-98494747D01*
X115387116Y-98494754D01*
X115387018Y-98496945D01*
X100150500Y-98496945D01*
X100150500Y-96916000D01*
X114173064Y-96916000D01*
X114173483Y-96919183D01*
X114192303Y-97062137D01*
X114192304Y-97062141D01*
X114192723Y-97065322D01*
X114193951Y-97068287D01*
X114193952Y-97068290D01*
X114245079Y-97191722D01*
X114250359Y-97204468D01*
X114252311Y-97207012D01*
X114252314Y-97207017D01*
X114336559Y-97316806D01*
X114342045Y-97323955D01*
X114344593Y-97325910D01*
X114458982Y-97413685D01*
X114458985Y-97413687D01*
X114461532Y-97415641D01*
X114600678Y-97473277D01*
X114712508Y-97488000D01*
X114785892Y-97488000D01*
X114787492Y-97488000D01*
X114899322Y-97473277D01*
X115038468Y-97415641D01*
X115157955Y-97323955D01*
X115249641Y-97204468D01*
X115307277Y-97065322D01*
X115326936Y-96916000D01*
X115325105Y-96902096D01*
X115315657Y-96830328D01*
X115307277Y-96766678D01*
X115249641Y-96627532D01*
X115247687Y-96624985D01*
X115247685Y-96624982D01*
X115159910Y-96510593D01*
X115157955Y-96508045D01*
X115136297Y-96491426D01*
X115041017Y-96418314D01*
X115041012Y-96418311D01*
X115038468Y-96416359D01*
X115035499Y-96415129D01*
X114902290Y-96359952D01*
X114902287Y-96359951D01*
X114899322Y-96358723D01*
X114896141Y-96358304D01*
X114896137Y-96358303D01*
X114789076Y-96344208D01*
X114789067Y-96344207D01*
X114787492Y-96344000D01*
X114712508Y-96344000D01*
X114710933Y-96344207D01*
X114710923Y-96344208D01*
X114603862Y-96358303D01*
X114603856Y-96358304D01*
X114600678Y-96358723D01*
X114597714Y-96359950D01*
X114597709Y-96359952D01*
X114464500Y-96415129D01*
X114464496Y-96415131D01*
X114461532Y-96416359D01*
X114458990Y-96418308D01*
X114458982Y-96418314D01*
X114344593Y-96506089D01*
X114344589Y-96506092D01*
X114342045Y-96508045D01*
X114340092Y-96510589D01*
X114340089Y-96510593D01*
X114252314Y-96624982D01*
X114252308Y-96624990D01*
X114250359Y-96627532D01*
X114249131Y-96630496D01*
X114249129Y-96630500D01*
X114193952Y-96763709D01*
X114193950Y-96763714D01*
X114192723Y-96766678D01*
X114192304Y-96769856D01*
X114192303Y-96769862D01*
X114174489Y-96905173D01*
X114173064Y-96916000D01*
X100150500Y-96916000D01*
X100150500Y-95900000D01*
X119253064Y-95900000D01*
X119253483Y-95903183D01*
X119272303Y-96046137D01*
X119272304Y-96046141D01*
X119272723Y-96049322D01*
X119273951Y-96052287D01*
X119273952Y-96052290D01*
X119327161Y-96180748D01*
X119330359Y-96188468D01*
X119332311Y-96191012D01*
X119332314Y-96191017D01*
X119416402Y-96300601D01*
X119422045Y-96307955D01*
X119424593Y-96309910D01*
X119538982Y-96397685D01*
X119538985Y-96397687D01*
X119541532Y-96399641D01*
X119680678Y-96457277D01*
X119792508Y-96472000D01*
X119865892Y-96472000D01*
X119867492Y-96472000D01*
X119979322Y-96457277D01*
X120118468Y-96399641D01*
X120237955Y-96307955D01*
X120329641Y-96188468D01*
X120387277Y-96049322D01*
X120406936Y-95900000D01*
X120387277Y-95750678D01*
X120329641Y-95611532D01*
X120327687Y-95608985D01*
X120327685Y-95608982D01*
X120239910Y-95494593D01*
X120237955Y-95492045D01*
X120211695Y-95471895D01*
X120121017Y-95402314D01*
X120121012Y-95402311D01*
X120118468Y-95400359D01*
X120115499Y-95399129D01*
X119982290Y-95343952D01*
X119982287Y-95343951D01*
X119979322Y-95342723D01*
X119976141Y-95342304D01*
X119976137Y-95342303D01*
X119869076Y-95328208D01*
X119869067Y-95328207D01*
X119867492Y-95328000D01*
X119792508Y-95328000D01*
X119790933Y-95328207D01*
X119790923Y-95328208D01*
X119683862Y-95342303D01*
X119683856Y-95342304D01*
X119680678Y-95342723D01*
X119677714Y-95343950D01*
X119677709Y-95343952D01*
X119544500Y-95399129D01*
X119544496Y-95399131D01*
X119541532Y-95400359D01*
X119538990Y-95402308D01*
X119538982Y-95402314D01*
X119424593Y-95490089D01*
X119424589Y-95490092D01*
X119422045Y-95492045D01*
X119420092Y-95494589D01*
X119420089Y-95494593D01*
X119332314Y-95608982D01*
X119332308Y-95608990D01*
X119330359Y-95611532D01*
X119329131Y-95614496D01*
X119329129Y-95614500D01*
X119273952Y-95747709D01*
X119273950Y-95747714D01*
X119272723Y-95750678D01*
X119272304Y-95753856D01*
X119272303Y-95753862D01*
X119255290Y-95883092D01*
X119253064Y-95900000D01*
X100150500Y-95900000D01*
X100150500Y-94884000D01*
X114173064Y-94884000D01*
X114173483Y-94887183D01*
X114192303Y-95030137D01*
X114192304Y-95030141D01*
X114192723Y-95033322D01*
X114193951Y-95036287D01*
X114193952Y-95036290D01*
X114240845Y-95149500D01*
X114250359Y-95172468D01*
X114252311Y-95175012D01*
X114252314Y-95175017D01*
X114293146Y-95228229D01*
X114342045Y-95291955D01*
X114358695Y-95304731D01*
X114458982Y-95381685D01*
X114458985Y-95381687D01*
X114461532Y-95383641D01*
X114600678Y-95441277D01*
X114712508Y-95456000D01*
X114785892Y-95456000D01*
X114787492Y-95456000D01*
X114899322Y-95441277D01*
X115038468Y-95383641D01*
X115157955Y-95291955D01*
X115249641Y-95172468D01*
X115307277Y-95033322D01*
X115318905Y-94945000D01*
X119944592Y-94945000D01*
X119945534Y-94949736D01*
X119963092Y-95038007D01*
X119963093Y-95038009D01*
X119964034Y-95042740D01*
X119966713Y-95046750D01*
X119966714Y-95046751D01*
X120009323Y-95110522D01*
X120019399Y-95125601D01*
X120102260Y-95180966D01*
X120200000Y-95200408D01*
X120297740Y-95180966D01*
X120380601Y-95125601D01*
X120435966Y-95042740D01*
X120455408Y-94945000D01*
X120435966Y-94847260D01*
X120380601Y-94764399D01*
X120362755Y-94752475D01*
X120301751Y-94711714D01*
X120301750Y-94711713D01*
X120297740Y-94709034D01*
X120293009Y-94708093D01*
X120293007Y-94708092D01*
X120204736Y-94690534D01*
X120200000Y-94689592D01*
X120195264Y-94690534D01*
X120106992Y-94708092D01*
X120106988Y-94708093D01*
X120102260Y-94709034D01*
X120098250Y-94711712D01*
X120098248Y-94711714D01*
X120023410Y-94761718D01*
X120023407Y-94761720D01*
X120019399Y-94764399D01*
X120016720Y-94768407D01*
X120016718Y-94768410D01*
X119966714Y-94843248D01*
X119966712Y-94843250D01*
X119964034Y-94847260D01*
X119963093Y-94851988D01*
X119963092Y-94851992D01*
X119952614Y-94904672D01*
X119944592Y-94945000D01*
X115318905Y-94945000D01*
X115326936Y-94884000D01*
X115307277Y-94734678D01*
X115249641Y-94595532D01*
X115247687Y-94592985D01*
X115247685Y-94592982D01*
X115160017Y-94478732D01*
X115157955Y-94476045D01*
X115135759Y-94459013D01*
X115041017Y-94386314D01*
X115041012Y-94386311D01*
X115038468Y-94384359D01*
X115035499Y-94383129D01*
X114902290Y-94327952D01*
X114902287Y-94327951D01*
X114899322Y-94326723D01*
X114896141Y-94326304D01*
X114896137Y-94326303D01*
X114789076Y-94312208D01*
X114789067Y-94312207D01*
X114787492Y-94312000D01*
X114712508Y-94312000D01*
X114710933Y-94312207D01*
X114710923Y-94312208D01*
X114603862Y-94326303D01*
X114603856Y-94326304D01*
X114600678Y-94326723D01*
X114597714Y-94327950D01*
X114597709Y-94327952D01*
X114464500Y-94383129D01*
X114464496Y-94383131D01*
X114461532Y-94384359D01*
X114458990Y-94386308D01*
X114458982Y-94386314D01*
X114344593Y-94474089D01*
X114344589Y-94474092D01*
X114342045Y-94476045D01*
X114340092Y-94478589D01*
X114340089Y-94478593D01*
X114252314Y-94592982D01*
X114252308Y-94592990D01*
X114250359Y-94595532D01*
X114249131Y-94598496D01*
X114249129Y-94598500D01*
X114193952Y-94731709D01*
X114193950Y-94731714D01*
X114192723Y-94734678D01*
X114192304Y-94737856D01*
X114192303Y-94737862D01*
X114173866Y-94877905D01*
X114173064Y-94884000D01*
X100150500Y-94884000D01*
X100150500Y-93416945D01*
X115387018Y-93416945D01*
X115387312Y-93419122D01*
X115387313Y-93419124D01*
X115417268Y-93640263D01*
X115417269Y-93640268D01*
X115417563Y-93642437D01*
X115418237Y-93644511D01*
X115418240Y-93644523D01*
X115470404Y-93805065D01*
X115487880Y-93858851D01*
X115488917Y-93860779D01*
X115488921Y-93860787D01*
X115594670Y-94057301D01*
X115594674Y-94057308D01*
X115595710Y-94059232D01*
X115597075Y-94060944D01*
X115597076Y-94060945D01*
X115719981Y-94215064D01*
X115737585Y-94237138D01*
X115908948Y-94386853D01*
X116104289Y-94503564D01*
X116317330Y-94583520D01*
X116541224Y-94624150D01*
X116710671Y-94624150D01*
X116711775Y-94624150D01*
X116881635Y-94608862D01*
X117100986Y-94548325D01*
X117306003Y-94449595D01*
X117490095Y-94315843D01*
X117647347Y-94151371D01*
X117772705Y-93961463D01*
X117862138Y-93752223D01*
X117912773Y-93530377D01*
X117917867Y-93416945D01*
X118562018Y-93416945D01*
X118562312Y-93419122D01*
X118562313Y-93419124D01*
X118592268Y-93640263D01*
X118592269Y-93640268D01*
X118592563Y-93642437D01*
X118593237Y-93644511D01*
X118593240Y-93644523D01*
X118645404Y-93805065D01*
X118662880Y-93858851D01*
X118663917Y-93860779D01*
X118663921Y-93860787D01*
X118769670Y-94057301D01*
X118769674Y-94057308D01*
X118770710Y-94059232D01*
X118772075Y-94060944D01*
X118772076Y-94060945D01*
X118894981Y-94215064D01*
X118912585Y-94237138D01*
X119083948Y-94386853D01*
X119279289Y-94503564D01*
X119492330Y-94583520D01*
X119716224Y-94624150D01*
X119885671Y-94624150D01*
X119886775Y-94624150D01*
X120056635Y-94608862D01*
X120275986Y-94548325D01*
X120481003Y-94449595D01*
X120665095Y-94315843D01*
X120822347Y-94151371D01*
X120947705Y-93961463D01*
X121037138Y-93752223D01*
X121087773Y-93530377D01*
X121097982Y-93303055D01*
X121067437Y-93077563D01*
X121063326Y-93064912D01*
X121051820Y-93029500D01*
X120997120Y-92861149D01*
X120995402Y-92857956D01*
X120890329Y-92662698D01*
X120890326Y-92662694D01*
X120889290Y-92660768D01*
X120747415Y-92482862D01*
X120576052Y-92333147D01*
X120464514Y-92266506D01*
X120382601Y-92217565D01*
X120382599Y-92217564D01*
X120380711Y-92216436D01*
X120354818Y-92206718D01*
X120169736Y-92137255D01*
X120169732Y-92137253D01*
X120167670Y-92136480D01*
X120165510Y-92136088D01*
X120165503Y-92136086D01*
X119945938Y-92096242D01*
X119945934Y-92096241D01*
X119943776Y-92095850D01*
X119773225Y-92095850D01*
X119772144Y-92095947D01*
X119772128Y-92095948D01*
X119605552Y-92110941D01*
X119605550Y-92110941D01*
X119603365Y-92111138D01*
X119601256Y-92111719D01*
X119601245Y-92111722D01*
X119386131Y-92171090D01*
X119386123Y-92171092D01*
X119384014Y-92171675D01*
X119382046Y-92172622D01*
X119382037Y-92172626D01*
X119180976Y-92269451D01*
X119180967Y-92269456D01*
X119178997Y-92270405D01*
X119177228Y-92271690D01*
X119177220Y-92271695D01*
X118996683Y-92402864D01*
X118996674Y-92402871D01*
X118994905Y-92404157D01*
X118993388Y-92405743D01*
X118993383Y-92405748D01*
X118839175Y-92567036D01*
X118839169Y-92567042D01*
X118837653Y-92568629D01*
X118836443Y-92570461D01*
X118836439Y-92570467D01*
X118713507Y-92756699D01*
X118713501Y-92756709D01*
X118712295Y-92758537D01*
X118711435Y-92760547D01*
X118711429Y-92760560D01*
X118623725Y-92965756D01*
X118623722Y-92965763D01*
X118622862Y-92967777D01*
X118622374Y-92969910D01*
X118622372Y-92969920D01*
X118573945Y-93182095D01*
X118572227Y-93189623D01*
X118572128Y-93191814D01*
X118572128Y-93191819D01*
X118562116Y-93414747D01*
X118562116Y-93414754D01*
X118562018Y-93416945D01*
X117917867Y-93416945D01*
X117922982Y-93303055D01*
X117892437Y-93077563D01*
X117888326Y-93064912D01*
X117876820Y-93029500D01*
X117822120Y-92861149D01*
X117820402Y-92857956D01*
X117715329Y-92662698D01*
X117715326Y-92662694D01*
X117714290Y-92660768D01*
X117572415Y-92482862D01*
X117401052Y-92333147D01*
X117289514Y-92266506D01*
X117207601Y-92217565D01*
X117207599Y-92217564D01*
X117205711Y-92216436D01*
X117179818Y-92206718D01*
X116994736Y-92137255D01*
X116994732Y-92137253D01*
X116992670Y-92136480D01*
X116990510Y-92136088D01*
X116990503Y-92136086D01*
X116770938Y-92096242D01*
X116770934Y-92096241D01*
X116768776Y-92095850D01*
X116598225Y-92095850D01*
X116597144Y-92095947D01*
X116597128Y-92095948D01*
X116430552Y-92110941D01*
X116430550Y-92110941D01*
X116428365Y-92111138D01*
X116426256Y-92111719D01*
X116426245Y-92111722D01*
X116211131Y-92171090D01*
X116211123Y-92171092D01*
X116209014Y-92171675D01*
X116207046Y-92172622D01*
X116207037Y-92172626D01*
X116005976Y-92269451D01*
X116005967Y-92269456D01*
X116003997Y-92270405D01*
X116002228Y-92271690D01*
X116002220Y-92271695D01*
X115821683Y-92402864D01*
X115821674Y-92402871D01*
X115819905Y-92404157D01*
X115818388Y-92405743D01*
X115818383Y-92405748D01*
X115664175Y-92567036D01*
X115664169Y-92567042D01*
X115662653Y-92568629D01*
X115661443Y-92570461D01*
X115661439Y-92570467D01*
X115538507Y-92756699D01*
X115538501Y-92756709D01*
X115537295Y-92758537D01*
X115536435Y-92760547D01*
X115536429Y-92760560D01*
X115448725Y-92965756D01*
X115448722Y-92965763D01*
X115447862Y-92967777D01*
X115447374Y-92969910D01*
X115447372Y-92969920D01*
X115398945Y-93182095D01*
X115397227Y-93189623D01*
X115397128Y-93191814D01*
X115397128Y-93191819D01*
X115387116Y-93414747D01*
X115387116Y-93414754D01*
X115387018Y-93416945D01*
X100150500Y-93416945D01*
X100150500Y-79700639D01*
X112293818Y-79700639D01*
X112296907Y-79705102D01*
X112387790Y-79779688D01*
X112391777Y-79782352D01*
X112552571Y-79868299D01*
X112556993Y-79870131D01*
X112731466Y-79923057D01*
X112736159Y-79923990D01*
X112917604Y-79941861D01*
X112922396Y-79941861D01*
X113103840Y-79923990D01*
X113108533Y-79923057D01*
X113283006Y-79870131D01*
X113287428Y-79868299D01*
X113448226Y-79782350D01*
X113452204Y-79779692D01*
X113543094Y-79705099D01*
X113546180Y-79700640D01*
X113546179Y-79700639D01*
X114833818Y-79700639D01*
X114836907Y-79705102D01*
X114927790Y-79779688D01*
X114931777Y-79782352D01*
X115092571Y-79868299D01*
X115096993Y-79870131D01*
X115271466Y-79923057D01*
X115276159Y-79923990D01*
X115457604Y-79941861D01*
X115462396Y-79941861D01*
X115643840Y-79923990D01*
X115648533Y-79923057D01*
X115823006Y-79870131D01*
X115827428Y-79868299D01*
X115988226Y-79782350D01*
X115992204Y-79779692D01*
X116083094Y-79705099D01*
X116086180Y-79700640D01*
X116083545Y-79695898D01*
X115466892Y-79079245D01*
X115460000Y-79076390D01*
X115453107Y-79079245D01*
X114836453Y-79695898D01*
X114833818Y-79700639D01*
X113546179Y-79700639D01*
X113543545Y-79695898D01*
X112926892Y-79079245D01*
X112920000Y-79076390D01*
X112913107Y-79079245D01*
X112296453Y-79695898D01*
X112293818Y-79700639D01*
X100150500Y-79700639D01*
X100150500Y-78989896D01*
X111965639Y-78989896D01*
X111983509Y-79171340D01*
X111984442Y-79176033D01*
X112037368Y-79350506D01*
X112039200Y-79354928D01*
X112125147Y-79515722D01*
X112127811Y-79519709D01*
X112202396Y-79610591D01*
X112206859Y-79613680D01*
X112211600Y-79611045D01*
X112830585Y-78992061D01*
X112833218Y-78987500D01*
X112833217Y-78987499D01*
X113008890Y-78987499D01*
X113011745Y-78994392D01*
X113628398Y-79611045D01*
X113633140Y-79613680D01*
X113637599Y-79610594D01*
X113712192Y-79519704D01*
X113714850Y-79515726D01*
X113800799Y-79354928D01*
X113802631Y-79350506D01*
X113855557Y-79176033D01*
X113856490Y-79171340D01*
X113874361Y-78989896D01*
X114505639Y-78989896D01*
X114523509Y-79171340D01*
X114524442Y-79176033D01*
X114577368Y-79350506D01*
X114579200Y-79354928D01*
X114665147Y-79515722D01*
X114667811Y-79519709D01*
X114742396Y-79610591D01*
X114746859Y-79613680D01*
X114751600Y-79611045D01*
X115370585Y-78992061D01*
X115373218Y-78987500D01*
X115373217Y-78987499D01*
X115548890Y-78987499D01*
X115551745Y-78994392D01*
X116168398Y-79611045D01*
X116173140Y-79613680D01*
X116177599Y-79610594D01*
X116252192Y-79519704D01*
X116254850Y-79515726D01*
X116340799Y-79354928D01*
X116342631Y-79350506D01*
X116395557Y-79176033D01*
X116396490Y-79171340D01*
X116414361Y-78989896D01*
X116414361Y-78987500D01*
X117044901Y-78987500D01*
X117045137Y-78989896D01*
X117063007Y-79171340D01*
X117063253Y-79173831D01*
X117063948Y-79176124D01*
X117063950Y-79176131D01*
X117116847Y-79350506D01*
X117117604Y-79353001D01*
X117118742Y-79355130D01*
X117204579Y-79515722D01*
X117205864Y-79518125D01*
X117324643Y-79662857D01*
X117469375Y-79781636D01*
X117634499Y-79869896D01*
X117813669Y-79924247D01*
X118000000Y-79942599D01*
X118186331Y-79924247D01*
X118365501Y-79869896D01*
X118485516Y-79805745D01*
X118515805Y-79800490D01*
X118543263Y-79814312D01*
X122985148Y-84256198D01*
X122999500Y-84290846D01*
X122999500Y-91834317D01*
X122991242Y-91861539D01*
X122966716Y-91898245D01*
X122966714Y-91898247D01*
X122964034Y-91902260D01*
X122963092Y-91906994D01*
X122963092Y-91906995D01*
X122952148Y-91962014D01*
X122944592Y-92000000D01*
X122945534Y-92004736D01*
X122963092Y-92093007D01*
X122963093Y-92093009D01*
X122964034Y-92097740D01*
X122966713Y-92101750D01*
X122966714Y-92101751D01*
X123013836Y-92172276D01*
X123019399Y-92180601D01*
X123102260Y-92235966D01*
X123159807Y-92247413D01*
X123192931Y-92254002D01*
X123200000Y-92255408D01*
X123207069Y-92254002D01*
X123228459Y-92249747D01*
X123297740Y-92235966D01*
X123380601Y-92180601D01*
X123435966Y-92097740D01*
X123455408Y-92000000D01*
X123435966Y-91902260D01*
X123414233Y-91869733D01*
X123408758Y-91861539D01*
X123400500Y-91834317D01*
X123400500Y-84229891D01*
X123401971Y-84221228D01*
X123401921Y-84221223D01*
X123402538Y-84215741D01*
X123404363Y-84210527D01*
X123400807Y-84178973D01*
X123400500Y-84173488D01*
X123400500Y-84167665D01*
X123400500Y-84164910D01*
X123398590Y-84156543D01*
X123397671Y-84151133D01*
X123394734Y-84125061D01*
X123394733Y-84125060D01*
X123394116Y-84119576D01*
X123391178Y-84114901D01*
X123389355Y-84109690D01*
X123389403Y-84109673D01*
X123388960Y-84108603D01*
X123388914Y-84108626D01*
X123386518Y-84103650D01*
X123385290Y-84098269D01*
X123365491Y-84073441D01*
X123362314Y-84068964D01*
X123359211Y-84064025D01*
X123359209Y-84064022D01*
X123357749Y-84061699D01*
X123351680Y-84055630D01*
X123348019Y-84051534D01*
X123331666Y-84031028D01*
X123331665Y-84031027D01*
X123328224Y-84026712D01*
X123323249Y-84024316D01*
X123318934Y-84020875D01*
X123318965Y-84020835D01*
X123311800Y-84015750D01*
X118826812Y-79530763D01*
X118812990Y-79503305D01*
X118818246Y-79473016D01*
X118882396Y-79353001D01*
X118936747Y-79173831D01*
X118955099Y-78987500D01*
X118936747Y-78801169D01*
X118882396Y-78621999D01*
X118794136Y-78456875D01*
X118675357Y-78312143D01*
X118623879Y-78269896D01*
X118532487Y-78194892D01*
X118532486Y-78194891D01*
X118530625Y-78193364D01*
X118365501Y-78105104D01*
X118363193Y-78104403D01*
X118363191Y-78104403D01*
X118235276Y-78065600D01*
X118210143Y-78047899D01*
X118200500Y-78018710D01*
X118200500Y-77416290D01*
X118210143Y-77387101D01*
X118235276Y-77369400D01*
X118271222Y-77358495D01*
X118365501Y-77329896D01*
X118530625Y-77241636D01*
X118675357Y-77122857D01*
X118794136Y-76978125D01*
X118882396Y-76813001D01*
X118936747Y-76633831D01*
X118955099Y-76447500D01*
X118936747Y-76261169D01*
X118882396Y-76081999D01*
X118794136Y-75916875D01*
X118675357Y-75772143D01*
X118623879Y-75729896D01*
X118532487Y-75654892D01*
X118532486Y-75654891D01*
X118530625Y-75653364D01*
X118502148Y-75638143D01*
X118367630Y-75566242D01*
X118365501Y-75565104D01*
X118363193Y-75564403D01*
X118363191Y-75564403D01*
X118188631Y-75511450D01*
X118188624Y-75511448D01*
X118186331Y-75510753D01*
X118183941Y-75510517D01*
X118183938Y-75510517D01*
X118002396Y-75492637D01*
X118000000Y-75492401D01*
X117997604Y-75492637D01*
X117816061Y-75510517D01*
X117816056Y-75510517D01*
X117813669Y-75510753D01*
X117811377Y-75511448D01*
X117811368Y-75511450D01*
X117636808Y-75564403D01*
X117636802Y-75564405D01*
X117634499Y-75565104D01*
X117632373Y-75566240D01*
X117632369Y-75566242D01*
X117471499Y-75652228D01*
X117471493Y-75652231D01*
X117469375Y-75653364D01*
X117467518Y-75654887D01*
X117467512Y-75654892D01*
X117326505Y-75770614D01*
X117326500Y-75770618D01*
X117324643Y-75772143D01*
X117323118Y-75774000D01*
X117323114Y-75774005D01*
X117207392Y-75915012D01*
X117207387Y-75915018D01*
X117205864Y-75916875D01*
X117204731Y-75918993D01*
X117204728Y-75918999D01*
X117118742Y-76079869D01*
X117118740Y-76079873D01*
X117117604Y-76081999D01*
X117116905Y-76084302D01*
X117116903Y-76084308D01*
X117063950Y-76258868D01*
X117063948Y-76258877D01*
X117063253Y-76261169D01*
X117063017Y-76263556D01*
X117063017Y-76263561D01*
X117053448Y-76360718D01*
X117044901Y-76447500D01*
X117045137Y-76449896D01*
X117063007Y-76631340D01*
X117063253Y-76633831D01*
X117063948Y-76636124D01*
X117063950Y-76636131D01*
X117116847Y-76810506D01*
X117117604Y-76813001D01*
X117118742Y-76815130D01*
X117204579Y-76975722D01*
X117205864Y-76978125D01*
X117324643Y-77122857D01*
X117469375Y-77241636D01*
X117634499Y-77329896D01*
X117713689Y-77353918D01*
X117764724Y-77369400D01*
X117789857Y-77387101D01*
X117799500Y-77416290D01*
X117799500Y-78018710D01*
X117789857Y-78047899D01*
X117764724Y-78065600D01*
X117636808Y-78104403D01*
X117636802Y-78104405D01*
X117634499Y-78105104D01*
X117632373Y-78106240D01*
X117632369Y-78106242D01*
X117471499Y-78192228D01*
X117471493Y-78192231D01*
X117469375Y-78193364D01*
X117467518Y-78194887D01*
X117467512Y-78194892D01*
X117326505Y-78310614D01*
X117326500Y-78310618D01*
X117324643Y-78312143D01*
X117323118Y-78314000D01*
X117323114Y-78314005D01*
X117207392Y-78455012D01*
X117207387Y-78455018D01*
X117205864Y-78456875D01*
X117204731Y-78458993D01*
X117204728Y-78458999D01*
X117118742Y-78619869D01*
X117118740Y-78619873D01*
X117117604Y-78621999D01*
X117116905Y-78624302D01*
X117116903Y-78624308D01*
X117063950Y-78798868D01*
X117063948Y-78798877D01*
X117063253Y-78801169D01*
X117063017Y-78803556D01*
X117063017Y-78803561D01*
X117053448Y-78900718D01*
X117044901Y-78987500D01*
X116414361Y-78987500D01*
X116414361Y-78985104D01*
X116396490Y-78803659D01*
X116395557Y-78798966D01*
X116342631Y-78624493D01*
X116340799Y-78620071D01*
X116254852Y-78459277D01*
X116252188Y-78455290D01*
X116177602Y-78364407D01*
X116173139Y-78361318D01*
X116168398Y-78363953D01*
X115551745Y-78980607D01*
X115548890Y-78987499D01*
X115373217Y-78987499D01*
X115370585Y-78982938D01*
X114751600Y-78363953D01*
X114746859Y-78361318D01*
X114742397Y-78364406D01*
X114667807Y-78455294D01*
X114665148Y-78459275D01*
X114579200Y-78620071D01*
X114577368Y-78624493D01*
X114524442Y-78798966D01*
X114523509Y-78803659D01*
X114505639Y-78985104D01*
X114505639Y-78989896D01*
X113874361Y-78989896D01*
X113874361Y-78985104D01*
X113856490Y-78803659D01*
X113855557Y-78798966D01*
X113802631Y-78624493D01*
X113800799Y-78620071D01*
X113714852Y-78459277D01*
X113712188Y-78455290D01*
X113637602Y-78364407D01*
X113633139Y-78361318D01*
X113628398Y-78363953D01*
X113011745Y-78980607D01*
X113008890Y-78987499D01*
X112833217Y-78987499D01*
X112830585Y-78982938D01*
X112211600Y-78363953D01*
X112206859Y-78361318D01*
X112202397Y-78364406D01*
X112127807Y-78455294D01*
X112125148Y-78459275D01*
X112039200Y-78620071D01*
X112037368Y-78624493D01*
X111984442Y-78798966D01*
X111983509Y-78803659D01*
X111965639Y-78985104D01*
X111965639Y-78989896D01*
X100150500Y-78989896D01*
X100150500Y-78274359D01*
X112293818Y-78274359D01*
X112296453Y-78279100D01*
X112915438Y-78898085D01*
X112920000Y-78900718D01*
X112924561Y-78898085D01*
X113543545Y-78279100D01*
X113546180Y-78274359D01*
X114833818Y-78274359D01*
X114836453Y-78279100D01*
X115455438Y-78898085D01*
X115460000Y-78900718D01*
X115464561Y-78898085D01*
X116083545Y-78279100D01*
X116086180Y-78274359D01*
X116083091Y-78269896D01*
X115992209Y-78195311D01*
X115988222Y-78192647D01*
X115827428Y-78106700D01*
X115823006Y-78104868D01*
X115648533Y-78051942D01*
X115643840Y-78051009D01*
X115462396Y-78033139D01*
X115457604Y-78033139D01*
X115276159Y-78051009D01*
X115271466Y-78051942D01*
X115096993Y-78104868D01*
X115092571Y-78106700D01*
X114931775Y-78192648D01*
X114927794Y-78195307D01*
X114836906Y-78269897D01*
X114833818Y-78274359D01*
X113546180Y-78274359D01*
X113543091Y-78269896D01*
X113452209Y-78195311D01*
X113448222Y-78192647D01*
X113287428Y-78106700D01*
X113283006Y-78104868D01*
X113108533Y-78051942D01*
X113103840Y-78051009D01*
X112922396Y-78033139D01*
X112917604Y-78033139D01*
X112736159Y-78051009D01*
X112731466Y-78051942D01*
X112556993Y-78104868D01*
X112552571Y-78106700D01*
X112391775Y-78192648D01*
X112387794Y-78195307D01*
X112296906Y-78269897D01*
X112293818Y-78274359D01*
X100150500Y-78274359D01*
X100150500Y-77160639D01*
X112293818Y-77160639D01*
X112296907Y-77165102D01*
X112387790Y-77239688D01*
X112391777Y-77242352D01*
X112552571Y-77328299D01*
X112556993Y-77330131D01*
X112731466Y-77383057D01*
X112736159Y-77383990D01*
X112917604Y-77401861D01*
X112922396Y-77401861D01*
X113103840Y-77383990D01*
X113108533Y-77383057D01*
X113283006Y-77330131D01*
X113287428Y-77328299D01*
X113448226Y-77242350D01*
X113452204Y-77239692D01*
X113543094Y-77165099D01*
X113546180Y-77160640D01*
X113546179Y-77160639D01*
X114833818Y-77160639D01*
X114836907Y-77165102D01*
X114927790Y-77239688D01*
X114931777Y-77242352D01*
X115092571Y-77328299D01*
X115096993Y-77330131D01*
X115271466Y-77383057D01*
X115276159Y-77383990D01*
X115457604Y-77401861D01*
X115462396Y-77401861D01*
X115643840Y-77383990D01*
X115648533Y-77383057D01*
X115823006Y-77330131D01*
X115827428Y-77328299D01*
X115988226Y-77242350D01*
X115992204Y-77239692D01*
X116083094Y-77165099D01*
X116086180Y-77160640D01*
X116083545Y-77155898D01*
X115466892Y-76539245D01*
X115460000Y-76536390D01*
X115453107Y-76539245D01*
X114836453Y-77155898D01*
X114833818Y-77160639D01*
X113546179Y-77160639D01*
X113543545Y-77155898D01*
X112926892Y-76539245D01*
X112920000Y-76536390D01*
X112913107Y-76539245D01*
X112296453Y-77155898D01*
X112293818Y-77160639D01*
X100150500Y-77160639D01*
X100150500Y-76449896D01*
X111965639Y-76449896D01*
X111983509Y-76631340D01*
X111984442Y-76636033D01*
X112037368Y-76810506D01*
X112039200Y-76814928D01*
X112125147Y-76975722D01*
X112127811Y-76979709D01*
X112202396Y-77070591D01*
X112206859Y-77073680D01*
X112211600Y-77071045D01*
X112830585Y-76452061D01*
X112833218Y-76447500D01*
X112833217Y-76447499D01*
X113008890Y-76447499D01*
X113011745Y-76454392D01*
X113628398Y-77071045D01*
X113633140Y-77073680D01*
X113637599Y-77070594D01*
X113712192Y-76979704D01*
X113714850Y-76975726D01*
X113800799Y-76814928D01*
X113802631Y-76810506D01*
X113855557Y-76636033D01*
X113856490Y-76631340D01*
X113874361Y-76449896D01*
X114505639Y-76449896D01*
X114523509Y-76631340D01*
X114524442Y-76636033D01*
X114577368Y-76810506D01*
X114579200Y-76814928D01*
X114665147Y-76975722D01*
X114667811Y-76979709D01*
X114742396Y-77070591D01*
X114746859Y-77073680D01*
X114751600Y-77071045D01*
X115370585Y-76452061D01*
X115373218Y-76447500D01*
X115373217Y-76447499D01*
X115548890Y-76447499D01*
X115551745Y-76454392D01*
X116168398Y-77071045D01*
X116173140Y-77073680D01*
X116177599Y-77070594D01*
X116252192Y-76979704D01*
X116254850Y-76975726D01*
X116340799Y-76814928D01*
X116342631Y-76810506D01*
X116395557Y-76636033D01*
X116396490Y-76631340D01*
X116414361Y-76449896D01*
X116414361Y-76445104D01*
X116396490Y-76263659D01*
X116395557Y-76258966D01*
X116342631Y-76084493D01*
X116340799Y-76080071D01*
X116254852Y-75919277D01*
X116252188Y-75915290D01*
X116177602Y-75824407D01*
X116173139Y-75821318D01*
X116168398Y-75823953D01*
X115551745Y-76440607D01*
X115548890Y-76447499D01*
X115373217Y-76447499D01*
X115370585Y-76442938D01*
X114751600Y-75823953D01*
X114746859Y-75821318D01*
X114742397Y-75824406D01*
X114667807Y-75915294D01*
X114665148Y-75919275D01*
X114579200Y-76080071D01*
X114577368Y-76084493D01*
X114524442Y-76258966D01*
X114523509Y-76263659D01*
X114505639Y-76445104D01*
X114505639Y-76449896D01*
X113874361Y-76449896D01*
X113874361Y-76445104D01*
X113856490Y-76263659D01*
X113855557Y-76258966D01*
X113802631Y-76084493D01*
X113800799Y-76080071D01*
X113714852Y-75919277D01*
X113712188Y-75915290D01*
X113637602Y-75824407D01*
X113633139Y-75821318D01*
X113628398Y-75823953D01*
X113011745Y-76440607D01*
X113008890Y-76447499D01*
X112833217Y-76447499D01*
X112830585Y-76442938D01*
X112211600Y-75823953D01*
X112206859Y-75821318D01*
X112202397Y-75824406D01*
X112127807Y-75915294D01*
X112125148Y-75919275D01*
X112039200Y-76080071D01*
X112037368Y-76084493D01*
X111984442Y-76258966D01*
X111983509Y-76263659D01*
X111965639Y-76445104D01*
X111965639Y-76449896D01*
X100150500Y-76449896D01*
X100150500Y-75734359D01*
X112293818Y-75734359D01*
X112296453Y-75739100D01*
X112915438Y-76358085D01*
X112920000Y-76360718D01*
X112924561Y-76358085D01*
X113543545Y-75739100D01*
X113546180Y-75734359D01*
X114833818Y-75734359D01*
X114836453Y-75739100D01*
X115455438Y-76358085D01*
X115460000Y-76360718D01*
X115464561Y-76358085D01*
X116083545Y-75739100D01*
X116086180Y-75734359D01*
X116083091Y-75729896D01*
X115992209Y-75655311D01*
X115988222Y-75652647D01*
X115827428Y-75566700D01*
X115823006Y-75564868D01*
X115648533Y-75511942D01*
X115643840Y-75511009D01*
X115462396Y-75493139D01*
X115457604Y-75493139D01*
X115276159Y-75511009D01*
X115271466Y-75511942D01*
X115096993Y-75564868D01*
X115092571Y-75566700D01*
X114931775Y-75652648D01*
X114927794Y-75655307D01*
X114836906Y-75729897D01*
X114833818Y-75734359D01*
X113546180Y-75734359D01*
X113543091Y-75729896D01*
X113452209Y-75655311D01*
X113448222Y-75652647D01*
X113287428Y-75566700D01*
X113283006Y-75564868D01*
X113108533Y-75511942D01*
X113103840Y-75511009D01*
X112922396Y-75493139D01*
X112917604Y-75493139D01*
X112736159Y-75511009D01*
X112731466Y-75511942D01*
X112556993Y-75564868D01*
X112552571Y-75566700D01*
X112391775Y-75652648D01*
X112387794Y-75655307D01*
X112296906Y-75729897D01*
X112293818Y-75734359D01*
X100150500Y-75734359D01*
X100150500Y-65199500D01*
X100164852Y-65164852D01*
X100199500Y-65150500D01*
X159800500Y-65150500D01*
X159835148Y-65164852D01*
G37*
%TD.AperFunction*%
%TD*%
M02*
