%TF.GenerationSoftware,KiCad,Pcbnew,(7.0.0)*%
%TF.CreationDate,2023-07-14T15:59:44-04:00*%
%TF.ProjectId,headstage-neuropix1e,68656164-7374-4616-9765-2d6e6575726f,A*%
%TF.SameCoordinates,Original*%
%TF.FileFunction,Soldermask,Top*%
%TF.FilePolarity,Negative*%
%FSLAX46Y46*%
G04 Gerber Fmt 4.6, Leading zero omitted, Abs format (unit mm)*
G04 Created by KiCad (PCBNEW (7.0.0)) date 2023-07-14 15:59:44*
%MOMM*%
%LPD*%
G01*
G04 APERTURE LIST*
G04 Aperture macros list*
%AMRoundRect*
0 Rectangle with rounded corners*
0 $1 Rounding radius*
0 $2 $3 $4 $5 $6 $7 $8 $9 X,Y pos of 4 corners*
0 Add a 4 corners polygon primitive as box body*
4,1,4,$2,$3,$4,$5,$6,$7,$8,$9,$2,$3,0*
0 Add four circle primitives for the rounded corners*
1,1,$1+$1,$2,$3*
1,1,$1+$1,$4,$5*
1,1,$1+$1,$6,$7*
1,1,$1+$1,$8,$9*
0 Add four rect primitives between the rounded corners*
20,1,$1+$1,$2,$3,$4,$5,0*
20,1,$1+$1,$4,$5,$6,$7,0*
20,1,$1+$1,$6,$7,$8,$9,0*
20,1,$1+$1,$8,$9,$2,$3,0*%
%AMRotRect*
0 Rectangle, with rotation*
0 The origin of the aperture is its center*
0 $1 length*
0 $2 width*
0 $3 Rotation angle, in degrees counterclockwise*
0 Add horizontal line*
21,1,$1,$2,0,0,$3*%
%AMFreePoly0*
4,1,6,0.180000,0.075000,0.000000,-0.105000,-0.180000,-0.105000,-0.180000,0.105000,0.180000,0.105000,0.180000,0.075000,0.180000,0.075000,$1*%
%AMFreePoly1*
4,1,6,0.180000,-0.075000,0.180000,-0.105000,-0.180000,-0.105000,-0.180000,0.105000,0.000000,0.105000,0.180000,-0.075000,0.180000,-0.075000,$1*%
%AMFreePoly2*
4,1,6,0.180000,-0.105000,0.000000,-0.105000,-0.180000,0.075000,-0.180000,0.105000,0.180000,0.105000,0.180000,-0.105000,0.180000,-0.105000,$1*%
%AMFreePoly3*
4,1,6,0.180000,-0.105000,-0.180000,-0.105000,-0.180000,-0.075000,0.000000,0.105000,0.180000,0.105000,0.180000,-0.105000,0.180000,-0.105000,$1*%
G04 Aperture macros list end*
%ADD10C,0.120000*%
%ADD11C,2.374900*%
%ADD12C,0.990600*%
%ADD13C,0.787400*%
%ADD14RoundRect,0.100000X-0.130000X-0.100000X0.130000X-0.100000X0.130000X0.100000X-0.130000X0.100000X0*%
%ADD15RoundRect,0.100000X-0.100000X0.130000X-0.100000X-0.130000X0.100000X-0.130000X0.100000X0.130000X0*%
%ADD16RoundRect,0.009000X-0.081000X-0.233500X0.081000X-0.233500X0.081000X0.233500X-0.081000X0.233500X0*%
%ADD17RoundRect,0.011500X-0.103500X-0.256000X0.103500X-0.256000X0.103500X0.256000X-0.103500X0.256000X0*%
%ADD18R,0.500000X0.650000*%
%ADD19R,0.600000X1.500000*%
%ADD20R,0.500000X0.550000*%
%ADD21RoundRect,0.100000X0.130000X0.100000X-0.130000X0.100000X-0.130000X-0.100000X0.130000X-0.100000X0*%
%ADD22RoundRect,0.140000X-0.170000X0.140000X-0.170000X-0.140000X0.170000X-0.140000X0.170000X0.140000X0*%
%ADD23RoundRect,0.100000X0.100000X-0.130000X0.100000X0.130000X-0.100000X0.130000X-0.100000X-0.130000X0*%
%ADD24C,0.250000*%
%ADD25FreePoly0,90.000000*%
%ADD26FreePoly1,90.000000*%
%ADD27FreePoly2,90.000000*%
%ADD28FreePoly3,90.000000*%
%ADD29RotRect,0.480000X0.480000X135.000000*%
%ADD30RoundRect,0.045000X0.105000X0.180000X-0.105000X0.180000X-0.105000X-0.180000X0.105000X-0.180000X0*%
%ADD31RoundRect,0.050000X0.750000X-0.450000X0.750000X0.450000X-0.750000X0.450000X-0.750000X-0.450000X0*%
%ADD32R,0.300000X1.250000*%
%ADD33R,0.300000X0.700000*%
%ADD34C,2.500000*%
%ADD35RoundRect,0.140000X-0.140000X-0.170000X0.140000X-0.170000X0.140000X0.170000X-0.140000X0.170000X0*%
%ADD36RoundRect,0.250000X-0.600000X0.600000X-0.600000X-0.600000X0.600000X-0.600000X0.600000X0.600000X0*%
%ADD37C,1.700000*%
%ADD38RoundRect,0.050000X-0.250000X0.200000X-0.250000X-0.200000X0.250000X-0.200000X0.250000X0.200000X0*%
G04 APERTURE END LIST*
D10*
X145812857Y-88929428D02*
X145812857Y-88529428D01*
X145812857Y-88643714D02*
X145841428Y-88586571D01*
X145841428Y-88586571D02*
X145870000Y-88558000D01*
X145870000Y-88558000D02*
X145927142Y-88529428D01*
X145927142Y-88529428D02*
X145984285Y-88529428D01*
X146155714Y-88758000D02*
X146441429Y-88758000D01*
X146098571Y-88929428D02*
X146298571Y-88329428D01*
X146298571Y-88329428D02*
X146498571Y-88929428D01*
%TO.C,G\u002A\u002A\u002A*%
G36*
X146466015Y-87467131D02*
G01*
X146557514Y-87467131D01*
X146557766Y-87470147D01*
X146558983Y-87478087D01*
X146561025Y-87490130D01*
X146563750Y-87505451D01*
X146567016Y-87523229D01*
X146568908Y-87533317D01*
X146581235Y-87598569D01*
X146600260Y-87612758D01*
X146611900Y-87621160D01*
X146619406Y-87625880D01*
X146623067Y-87627071D01*
X146623188Y-87624926D01*
X146609071Y-87590312D01*
X146597009Y-87560787D01*
X146586859Y-87536011D01*
X146578482Y-87515646D01*
X146571735Y-87499353D01*
X146566479Y-87486794D01*
X146562571Y-87477630D01*
X146559872Y-87471522D01*
X146558240Y-87468131D01*
X146557535Y-87467120D01*
X146557514Y-87467131D01*
X146466015Y-87467131D01*
X146464298Y-87457696D01*
X146459644Y-87432338D01*
X146454370Y-87403781D01*
X146448555Y-87372449D01*
X146442275Y-87338769D01*
X146435609Y-87303166D01*
X146431623Y-87281941D01*
X146424733Y-87245196D01*
X146418165Y-87209964D01*
X146411997Y-87176690D01*
X146406312Y-87145816D01*
X146401190Y-87117789D01*
X146396711Y-87093052D01*
X146392957Y-87072050D01*
X146390007Y-87055228D01*
X146387943Y-87043029D01*
X146386845Y-87035898D01*
X146386682Y-87034315D01*
X146388953Y-87024042D01*
X146395144Y-87012925D01*
X146404048Y-87002949D01*
X146407335Y-87000277D01*
X146419534Y-86994619D01*
X146433298Y-86993520D01*
X146447059Y-86996593D01*
X146459252Y-87003452D01*
X146468308Y-87013709D01*
X146469336Y-87015589D01*
X146471070Y-87019534D01*
X146474877Y-87028566D01*
X146480620Y-87042352D01*
X146488161Y-87060559D01*
X146497363Y-87082851D01*
X146508090Y-87108897D01*
X146520204Y-87138363D01*
X146533568Y-87170915D01*
X146548044Y-87206219D01*
X146563497Y-87243942D01*
X146579789Y-87283751D01*
X146596782Y-87325312D01*
X146614339Y-87368291D01*
X146616129Y-87372676D01*
X146633759Y-87415841D01*
X146650850Y-87457661D01*
X146667264Y-87497800D01*
X146682862Y-87535920D01*
X146697507Y-87571684D01*
X146711061Y-87604755D01*
X146723384Y-87634795D01*
X146734338Y-87661469D01*
X146743786Y-87684437D01*
X146751589Y-87703364D01*
X146757608Y-87717912D01*
X146761705Y-87727743D01*
X146763743Y-87732521D01*
X146763819Y-87732690D01*
X146769149Y-87749471D01*
X146768953Y-87765122D01*
X146766100Y-87774493D01*
X146764544Y-87779020D01*
X146761494Y-87788613D01*
X146757116Y-87802726D01*
X146751579Y-87820810D01*
X146745046Y-87842320D01*
X146737687Y-87866707D01*
X146729665Y-87893425D01*
X146721149Y-87921925D01*
X146716054Y-87939039D01*
X146707350Y-87968274D01*
X146699073Y-87996007D01*
X146691385Y-88021695D01*
X146684449Y-88044797D01*
X146678428Y-88064772D01*
X146673486Y-88081078D01*
X146669786Y-88093172D01*
X146667490Y-88100515D01*
X146666862Y-88102394D01*
X146659735Y-88113748D01*
X146648776Y-88121749D01*
X146635169Y-88126060D01*
X146620101Y-88126346D01*
X146604754Y-88122269D01*
X146601723Y-88120885D01*
X146597461Y-88118981D01*
X146588136Y-88114958D01*
X146574079Y-88108955D01*
X146555625Y-88101112D01*
X146533106Y-88091569D01*
X146506854Y-88080465D01*
X146477203Y-88067940D01*
X146444484Y-88054134D01*
X146409032Y-88039187D01*
X146371177Y-88023239D01*
X146331254Y-88006428D01*
X146289595Y-87988896D01*
X146246532Y-87970782D01*
X146202399Y-87952224D01*
X146157527Y-87933365D01*
X146112251Y-87914342D01*
X146066901Y-87895296D01*
X146021812Y-87876366D01*
X145977316Y-87857692D01*
X145933745Y-87839415D01*
X145891433Y-87821673D01*
X145850711Y-87804607D01*
X145811914Y-87788356D01*
X145775372Y-87773060D01*
X145741420Y-87758859D01*
X145710390Y-87745892D01*
X145682615Y-87734300D01*
X145668050Y-87728231D01*
X145901264Y-87728231D01*
X145901397Y-87728390D01*
X145904370Y-87729850D01*
X145912298Y-87733370D01*
X145924761Y-87738774D01*
X145941336Y-87745886D01*
X145961604Y-87754528D01*
X145985142Y-87764524D01*
X146011529Y-87775697D01*
X146040344Y-87787871D01*
X146071166Y-87800869D01*
X146103574Y-87814515D01*
X146137146Y-87828632D01*
X146171461Y-87843042D01*
X146206098Y-87857570D01*
X146240635Y-87872039D01*
X146274652Y-87886273D01*
X146307726Y-87900094D01*
X146339438Y-87913326D01*
X146369365Y-87925792D01*
X146397086Y-87937317D01*
X146422180Y-87947722D01*
X146444226Y-87956832D01*
X146462803Y-87964470D01*
X146477489Y-87970459D01*
X146487863Y-87974622D01*
X146493503Y-87976784D01*
X146494438Y-87977053D01*
X146493016Y-87974527D01*
X146488505Y-87967747D01*
X146481248Y-87957202D01*
X146471588Y-87943380D01*
X146459868Y-87926771D01*
X146446430Y-87907862D01*
X146431618Y-87887144D01*
X146421485Y-87873034D01*
X146405738Y-87851281D01*
X146390858Y-87830985D01*
X146377227Y-87812646D01*
X146365226Y-87796768D01*
X146355237Y-87783851D01*
X146350389Y-87777817D01*
X146463483Y-87777817D01*
X146464924Y-87780258D01*
X146469331Y-87786778D01*
X146476242Y-87796714D01*
X146485191Y-87809403D01*
X146495716Y-87824180D01*
X146502997Y-87834335D01*
X146514345Y-87850017D01*
X146524543Y-87863909D01*
X146533107Y-87875369D01*
X146539554Y-87883755D01*
X146543399Y-87888422D01*
X146544270Y-87889163D01*
X146544108Y-87886081D01*
X146542990Y-87878195D01*
X146541067Y-87866446D01*
X146538495Y-87851779D01*
X146535863Y-87837462D01*
X146532681Y-87820922D01*
X146529733Y-87806404D01*
X146527231Y-87794880D01*
X146526587Y-87792247D01*
X146618755Y-87792247D01*
X146618789Y-87795443D01*
X146619788Y-87803315D01*
X146621593Y-87814795D01*
X146624044Y-87828813D01*
X146625022Y-87834108D01*
X146628675Y-87853584D01*
X146631412Y-87868031D01*
X146633391Y-87878173D01*
X146634769Y-87884735D01*
X146635702Y-87888443D01*
X146636348Y-87890021D01*
X146636864Y-87890195D01*
X146637122Y-87889981D01*
X146638329Y-87886913D01*
X146640886Y-87879220D01*
X146644477Y-87867889D01*
X146648788Y-87853906D01*
X146651444Y-87845136D01*
X146655972Y-87829900D01*
X146659829Y-87816550D01*
X146662723Y-87806131D01*
X146664360Y-87799689D01*
X146664619Y-87798218D01*
X146661995Y-87796665D01*
X146655225Y-87795001D01*
X146646009Y-87793447D01*
X146636045Y-87792223D01*
X146627032Y-87791553D01*
X146620670Y-87791655D01*
X146618755Y-87792247D01*
X146526587Y-87792247D01*
X146525382Y-87787320D01*
X146524483Y-87784738D01*
X146521175Y-87783785D01*
X146513599Y-87782523D01*
X146503274Y-87781124D01*
X146491723Y-87779759D01*
X146480467Y-87778603D01*
X146471026Y-87777827D01*
X146464922Y-87777604D01*
X146463483Y-87777817D01*
X146350389Y-87777817D01*
X146347641Y-87774397D01*
X146342820Y-87768908D01*
X146341404Y-87767721D01*
X146337553Y-87767082D01*
X146328346Y-87766001D01*
X146314265Y-87764522D01*
X146295786Y-87762690D01*
X146273389Y-87760551D01*
X146247554Y-87758150D01*
X146218758Y-87755531D01*
X146187481Y-87752741D01*
X146154201Y-87749825D01*
X146126095Y-87747400D01*
X146091459Y-87744420D01*
X146058370Y-87741549D01*
X146027318Y-87738831D01*
X145998788Y-87736310D01*
X145973267Y-87734029D01*
X145951244Y-87732032D01*
X145933204Y-87730364D01*
X145919635Y-87729067D01*
X145911024Y-87728186D01*
X145908038Y-87727810D01*
X145902631Y-87727284D01*
X145901264Y-87728231D01*
X145668050Y-87728231D01*
X145658426Y-87724221D01*
X145638158Y-87715797D01*
X145622142Y-87709165D01*
X145610712Y-87704468D01*
X145604201Y-87701843D01*
X145602993Y-87701385D01*
X145590254Y-87694452D01*
X145579634Y-87684042D01*
X145572666Y-87671833D01*
X145571206Y-87666614D01*
X145570462Y-87662822D01*
X145569905Y-87659359D01*
X145569767Y-87655979D01*
X145570283Y-87652434D01*
X145571690Y-87648477D01*
X145574221Y-87643863D01*
X145578113Y-87638344D01*
X145583599Y-87631673D01*
X145590915Y-87623605D01*
X145592998Y-87621448D01*
X145722177Y-87621448D01*
X145724951Y-87622197D01*
X145732694Y-87623307D01*
X145744538Y-87624678D01*
X145759619Y-87626212D01*
X145777068Y-87627811D01*
X145781448Y-87628187D01*
X145796070Y-87629433D01*
X145810132Y-87630637D01*
X145824143Y-87631844D01*
X145838611Y-87633101D01*
X145854042Y-87634453D01*
X145870945Y-87635943D01*
X145889829Y-87637618D01*
X145911199Y-87639522D01*
X145935566Y-87641701D01*
X145963436Y-87644200D01*
X145995317Y-87647063D01*
X146031717Y-87650337D01*
X146073144Y-87654066D01*
X146099753Y-87656461D01*
X146136215Y-87659743D01*
X146167273Y-87662528D01*
X146193353Y-87664845D01*
X146214882Y-87666724D01*
X146232286Y-87668194D01*
X146245990Y-87669284D01*
X146256422Y-87670022D01*
X146264007Y-87670439D01*
X146269172Y-87670562D01*
X146272343Y-87670422D01*
X146273946Y-87670047D01*
X146274408Y-87669467D01*
X146274154Y-87668710D01*
X146273941Y-87668353D01*
X146270562Y-87663292D01*
X146264246Y-87654236D01*
X146255331Y-87641650D01*
X146244153Y-87625996D01*
X146231048Y-87607738D01*
X146216354Y-87587337D01*
X146200407Y-87565258D01*
X146183544Y-87541963D01*
X146166101Y-87517915D01*
X146148416Y-87493578D01*
X146130825Y-87469414D01*
X146125896Y-87462656D01*
X146236673Y-87462656D01*
X146238964Y-87466825D01*
X146243623Y-87473655D01*
X146247648Y-87479249D01*
X146254653Y-87488991D01*
X146264202Y-87502278D01*
X146275862Y-87518503D01*
X146289197Y-87537062D01*
X146303771Y-87557349D01*
X146319151Y-87578759D01*
X146323548Y-87584879D01*
X146392928Y-87681468D01*
X146440250Y-87686204D01*
X146457144Y-87687854D01*
X146472774Y-87689304D01*
X146485860Y-87690442D01*
X146495125Y-87691155D01*
X146498191Y-87691327D01*
X146508810Y-87691713D01*
X146504678Y-87671956D01*
X146501862Y-87661216D01*
X146498523Y-87652371D01*
X146495523Y-87647512D01*
X146492222Y-87644946D01*
X146484617Y-87639326D01*
X146473173Y-87630988D01*
X146458357Y-87620267D01*
X146440635Y-87607501D01*
X146420474Y-87593026D01*
X146398341Y-87577179D01*
X146374701Y-87560295D01*
X146366105Y-87554166D01*
X146342083Y-87537042D01*
X146319425Y-87520884D01*
X146298593Y-87506023D01*
X146280049Y-87492787D01*
X146264256Y-87481508D01*
X146251677Y-87472516D01*
X146242773Y-87466141D01*
X146238008Y-87462713D01*
X146237394Y-87462264D01*
X146236673Y-87462656D01*
X146125896Y-87462656D01*
X146113664Y-87445885D01*
X146097271Y-87423456D01*
X146081982Y-87402589D01*
X146068134Y-87383748D01*
X146056063Y-87367394D01*
X146046107Y-87353992D01*
X146038601Y-87344003D01*
X146033883Y-87337892D01*
X146032303Y-87336089D01*
X146029781Y-87338016D01*
X146023392Y-87343541D01*
X146013554Y-87352280D01*
X146000684Y-87363849D01*
X145985199Y-87377864D01*
X145967518Y-87393940D01*
X145948056Y-87411694D01*
X145927233Y-87430742D01*
X145905464Y-87450699D01*
X145883168Y-87471182D01*
X145860762Y-87491806D01*
X145838663Y-87512187D01*
X145817289Y-87531942D01*
X145797057Y-87550686D01*
X145778385Y-87568035D01*
X145761689Y-87583605D01*
X145747388Y-87597012D01*
X145735898Y-87607872D01*
X145727638Y-87615801D01*
X145723024Y-87620415D01*
X145722177Y-87621448D01*
X145592998Y-87621448D01*
X145600296Y-87613891D01*
X145611977Y-87602286D01*
X145626192Y-87588542D01*
X145643176Y-87572414D01*
X145663165Y-87553653D01*
X145686393Y-87532014D01*
X145713096Y-87507250D01*
X145743508Y-87479113D01*
X145777864Y-87447358D01*
X145795591Y-87430975D01*
X145826098Y-87402812D01*
X145855501Y-87375737D01*
X145883501Y-87350021D01*
X145909801Y-87325935D01*
X145934103Y-87303747D01*
X145956111Y-87283729D01*
X145975528Y-87266149D01*
X145992055Y-87251278D01*
X146005396Y-87239387D01*
X146015253Y-87230745D01*
X146021329Y-87225621D01*
X146023190Y-87224266D01*
X146037519Y-87220835D01*
X146052059Y-87222974D01*
X146058042Y-87225602D01*
X146061824Y-87228057D01*
X146069993Y-87233671D01*
X146082183Y-87242184D01*
X146098029Y-87253338D01*
X146117166Y-87266873D01*
X146139228Y-87282530D01*
X146163849Y-87300050D01*
X146190664Y-87319172D01*
X146219308Y-87339639D01*
X146249415Y-87361191D01*
X146271078Y-87376721D01*
X146301747Y-87398702D01*
X146331036Y-87419654D01*
X146358598Y-87439330D01*
X146384087Y-87457488D01*
X146407157Y-87473880D01*
X146427463Y-87488263D01*
X146444659Y-87500390D01*
X146458399Y-87510018D01*
X146468337Y-87516901D01*
X146474127Y-87520794D01*
X146475539Y-87521605D01*
X146475155Y-87518625D01*
X146473760Y-87510319D01*
X146471434Y-87497112D01*
X146468254Y-87479429D01*
X146466015Y-87467131D01*
G37*
G36*
X134765391Y-117810773D02*
G01*
X134765391Y-117047319D01*
X135153177Y-117047319D01*
X135153177Y-117810773D01*
X135186069Y-117877424D01*
X135242661Y-117970159D01*
X135311738Y-118042855D01*
X135395265Y-118097309D01*
X135453710Y-118122177D01*
X135530174Y-118139183D01*
X135616261Y-118141618D01*
X135702615Y-118129984D01*
X135779880Y-118104782D01*
X135780128Y-118104668D01*
X135856299Y-118058202D01*
X135926108Y-117993800D01*
X135983234Y-117917761D01*
X136002192Y-117883329D01*
X136037815Y-117810773D01*
X136037815Y-117047319D01*
X136037815Y-116283865D01*
X136002192Y-116211310D01*
X135951930Y-116131646D01*
X135885905Y-116060836D01*
X135810555Y-116005317D01*
X135780128Y-115989246D01*
X135742556Y-115973215D01*
X135708136Y-115963427D01*
X135668596Y-115958423D01*
X135615667Y-115956744D01*
X135595496Y-115956670D01*
X135536809Y-115957623D01*
X135494045Y-115961453D01*
X135458935Y-115969620D01*
X135423208Y-115983583D01*
X135410864Y-115989246D01*
X135337471Y-116034411D01*
X135268772Y-116096305D01*
X135212125Y-116167568D01*
X135185754Y-116214357D01*
X135153177Y-116283865D01*
X135153177Y-117047319D01*
X134765391Y-117047319D01*
X134765391Y-116259628D01*
X134793771Y-116168741D01*
X134835697Y-116055506D01*
X134887146Y-115958443D01*
X134952618Y-115870012D01*
X135007459Y-115810952D01*
X135094327Y-115733368D01*
X135184699Y-115672871D01*
X135286114Y-115624959D01*
X135365248Y-115597263D01*
X135461161Y-115576295D01*
X135569006Y-115567642D01*
X135679905Y-115571203D01*
X135784976Y-115586873D01*
X135843922Y-115602831D01*
X135970199Y-115654904D01*
X136081844Y-115723761D01*
X136183049Y-115811436D01*
X136270618Y-115912520D01*
X136339043Y-116022976D01*
X136391929Y-116148639D01*
X136392586Y-116150563D01*
X136425601Y-116247510D01*
X136425601Y-117047319D01*
X136425601Y-117847128D01*
X136392586Y-117944075D01*
X136339724Y-118069948D01*
X136270678Y-118181223D01*
X136183158Y-118282577D01*
X136075234Y-118375634D01*
X135957986Y-118446344D01*
X135831013Y-118494883D01*
X135693911Y-118521425D01*
X135625792Y-118526354D01*
X135567021Y-118527131D01*
X135510958Y-118525526D01*
X135466223Y-118521880D01*
X135450987Y-118519439D01*
X135315802Y-118481705D01*
X135196406Y-118428028D01*
X135088602Y-118356177D01*
X135007459Y-118283686D01*
X134929875Y-118196819D01*
X134869378Y-118106447D01*
X134821466Y-118005031D01*
X134793771Y-117925897D01*
X134765391Y-117835010D01*
X134765391Y-117810773D01*
G37*
G36*
X139140105Y-116247510D02*
G01*
X139173120Y-116150563D01*
X139223471Y-116029171D01*
X139288373Y-115921920D01*
X139372277Y-115821671D01*
X139388531Y-115805032D01*
X139476368Y-115727614D01*
X139571125Y-115666543D01*
X139679367Y-115617939D01*
X139739962Y-115597297D01*
X139834414Y-115576529D01*
X139940729Y-115567497D01*
X140049562Y-115570201D01*
X140151571Y-115584642D01*
X140200458Y-115597297D01*
X140317806Y-115641166D01*
X140418418Y-115695580D01*
X140508860Y-115764421D01*
X140551889Y-115805032D01*
X140639392Y-115904769D01*
X140707079Y-116010197D01*
X140759336Y-116128355D01*
X140767118Y-116150563D01*
X140799952Y-116247510D01*
X140800133Y-116685888D01*
X140800134Y-116800673D01*
X140799945Y-116893731D01*
X140799433Y-116967573D01*
X140798466Y-117024707D01*
X140796913Y-117067643D01*
X140794642Y-117098892D01*
X140791520Y-117120964D01*
X140787416Y-117136367D01*
X140782198Y-117147613D01*
X140775735Y-117157210D01*
X140775329Y-117157754D01*
X140746479Y-117190115D01*
X140716890Y-117216227D01*
X140708509Y-117221978D01*
X140698688Y-117226789D01*
X140685289Y-117230759D01*
X140666172Y-117233985D01*
X140639200Y-117236567D01*
X140602232Y-117238603D01*
X140553132Y-117240191D01*
X140489759Y-117241432D01*
X140409976Y-117242422D01*
X140311643Y-117243260D01*
X140192622Y-117244046D01*
X140101832Y-117244582D01*
X139520227Y-117247953D01*
X139524059Y-117529363D01*
X139527891Y-117810773D01*
X139566079Y-117891375D01*
X139619939Y-117980504D01*
X139689285Y-118051570D01*
X139776341Y-118106795D01*
X139786602Y-118111766D01*
X139831355Y-118131393D01*
X139868988Y-118142869D01*
X139909568Y-118148275D01*
X139963162Y-118149690D01*
X139970210Y-118149691D01*
X140060185Y-118142602D01*
X140138426Y-118119770D01*
X140212046Y-118078481D01*
X140264347Y-118037396D01*
X140331482Y-117990310D01*
X140396361Y-117967122D01*
X140458626Y-117967854D01*
X140517920Y-117992526D01*
X140553846Y-118020612D01*
X140596976Y-118073916D01*
X140616714Y-118130422D01*
X140613545Y-118189158D01*
X140587952Y-118249148D01*
X140540417Y-118309420D01*
X140471424Y-118369000D01*
X140381456Y-118426914D01*
X140341558Y-118448442D01*
X140235454Y-118491374D01*
X140116584Y-118519338D01*
X139991768Y-118531641D01*
X139867826Y-118527592D01*
X139756596Y-118507834D01*
X139622375Y-118460663D01*
X139501263Y-118393572D01*
X139394573Y-118307812D01*
X139303619Y-118204634D01*
X139229712Y-118085291D01*
X139174904Y-117953294D01*
X139140105Y-117847128D01*
X139140105Y-117047319D01*
X139140105Y-116859485D01*
X139519910Y-116859485D01*
X139970210Y-116859485D01*
X140420510Y-116859485D01*
X140416478Y-116571675D01*
X140412447Y-116283865D01*
X140376974Y-116211419D01*
X140326945Y-116132002D01*
X140261086Y-116061260D01*
X140185886Y-116005684D01*
X140154842Y-115989246D01*
X140117270Y-115973215D01*
X140082849Y-115963427D01*
X140043310Y-115958423D01*
X139990381Y-115956744D01*
X139970210Y-115956670D01*
X139911522Y-115957623D01*
X139868759Y-115961453D01*
X139833649Y-115969620D01*
X139797922Y-115983583D01*
X139785578Y-115989246D01*
X139708467Y-116036992D01*
X139638118Y-116102483D01*
X139581020Y-116179230D01*
X139563446Y-116211419D01*
X139527973Y-116283865D01*
X139523941Y-116571675D01*
X139519910Y-116859485D01*
X139140105Y-116859485D01*
X139140105Y-116247510D01*
G37*
G36*
X144447929Y-116247510D02*
G01*
X144480945Y-116150563D01*
X144531296Y-116029171D01*
X144596198Y-115921920D01*
X144680102Y-115821671D01*
X144696355Y-115805032D01*
X144784192Y-115727614D01*
X144878949Y-115666543D01*
X144987191Y-115617939D01*
X145047786Y-115597297D01*
X145142239Y-115576529D01*
X145248553Y-115567497D01*
X145357387Y-115570201D01*
X145459396Y-115584642D01*
X145508282Y-115597297D01*
X145625631Y-115641166D01*
X145726242Y-115695580D01*
X145816684Y-115764421D01*
X145859714Y-115805032D01*
X145947216Y-115904769D01*
X146014904Y-116010197D01*
X146067160Y-116128355D01*
X146074942Y-116150563D01*
X146107776Y-116247510D01*
X146107958Y-116685888D01*
X146107959Y-116800673D01*
X146107769Y-116893731D01*
X146107257Y-116967573D01*
X146106290Y-117024707D01*
X146104738Y-117067643D01*
X146102466Y-117098892D01*
X146099345Y-117120964D01*
X146095241Y-117136367D01*
X146090023Y-117147613D01*
X146083559Y-117157210D01*
X146083154Y-117157754D01*
X146054304Y-117190115D01*
X146024715Y-117216227D01*
X146016334Y-117221978D01*
X146006513Y-117226789D01*
X145993113Y-117230759D01*
X145973997Y-117233985D01*
X145947024Y-117236567D01*
X145910057Y-117238603D01*
X145860956Y-117240191D01*
X145797584Y-117241432D01*
X145717800Y-117242422D01*
X145619467Y-117243260D01*
X145500446Y-117244046D01*
X145409656Y-117244582D01*
X144828051Y-117247953D01*
X144831883Y-117529363D01*
X144835716Y-117810773D01*
X144873903Y-117891375D01*
X144927763Y-117980504D01*
X144997109Y-118051570D01*
X145084166Y-118106795D01*
X145094427Y-118111766D01*
X145139179Y-118131393D01*
X145176812Y-118142869D01*
X145217392Y-118148275D01*
X145270987Y-118149690D01*
X145278034Y-118149691D01*
X145368009Y-118142602D01*
X145446250Y-118119770D01*
X145519871Y-118078481D01*
X145572171Y-118037396D01*
X145639306Y-117990310D01*
X145704185Y-117967122D01*
X145766451Y-117967854D01*
X145825744Y-117992526D01*
X145861671Y-118020612D01*
X145904800Y-118073916D01*
X145924539Y-118130422D01*
X145921370Y-118189158D01*
X145895776Y-118249148D01*
X145848242Y-118309420D01*
X145779249Y-118369000D01*
X145689281Y-118426914D01*
X145649382Y-118448442D01*
X145543278Y-118491374D01*
X145424408Y-118519338D01*
X145299592Y-118531641D01*
X145175650Y-118527592D01*
X145064421Y-118507834D01*
X144930200Y-118460663D01*
X144809088Y-118393572D01*
X144702398Y-118307812D01*
X144611443Y-118204634D01*
X144537536Y-118085291D01*
X144482728Y-117953294D01*
X144447929Y-117847128D01*
X144447929Y-117047319D01*
X144447929Y-116859485D01*
X144827734Y-116859485D01*
X145278034Y-116859485D01*
X145728335Y-116859485D01*
X145724303Y-116571675D01*
X145720271Y-116283865D01*
X145684798Y-116211419D01*
X145634770Y-116132002D01*
X145568911Y-116061260D01*
X145493710Y-116005684D01*
X145462666Y-115989246D01*
X145425094Y-115973215D01*
X145390674Y-115963427D01*
X145351134Y-115958423D01*
X145298205Y-115956744D01*
X145278034Y-115956670D01*
X145219347Y-115957623D01*
X145176584Y-115961453D01*
X145141474Y-115969620D01*
X145105746Y-115983583D01*
X145093402Y-115989246D01*
X145016291Y-116036992D01*
X144945942Y-116102483D01*
X144888845Y-116179230D01*
X144871270Y-116211419D01*
X144835798Y-116283865D01*
X144831766Y-116571675D01*
X144827734Y-116859485D01*
X144447929Y-116859485D01*
X144447929Y-116247510D01*
G37*
G36*
X142409158Y-115631108D02*
G01*
X142510179Y-115672085D01*
X142595146Y-115718428D01*
X142672241Y-115775233D01*
X142738331Y-115836188D01*
X142826347Y-115937270D01*
X142894769Y-116046956D01*
X142947452Y-116171455D01*
X142948597Y-116174800D01*
X142981613Y-116271747D01*
X142981613Y-117340295D01*
X142981605Y-117525560D01*
X142981557Y-117688125D01*
X142981436Y-117829528D01*
X142981205Y-117951306D01*
X142980831Y-118054997D01*
X142980278Y-118142137D01*
X142979511Y-118214265D01*
X142978497Y-118272916D01*
X142977198Y-118319629D01*
X142975582Y-118355941D01*
X142973613Y-118383389D01*
X142971256Y-118403511D01*
X142968476Y-118417842D01*
X142965238Y-118427922D01*
X142961509Y-118435287D01*
X142957252Y-118441475D01*
X142956627Y-118442314D01*
X142914874Y-118488489D01*
X142870244Y-118514805D01*
X142815110Y-118525169D01*
X142793779Y-118525754D01*
X142733627Y-118519714D01*
X142686440Y-118498989D01*
X142644588Y-118459670D01*
X142630930Y-118442328D01*
X142626561Y-118436074D01*
X142622721Y-118428728D01*
X142619369Y-118418741D01*
X142616457Y-118404560D01*
X142613943Y-118384633D01*
X142611782Y-118357410D01*
X142609929Y-118321339D01*
X142608340Y-118274869D01*
X142606970Y-118216448D01*
X142605775Y-118144524D01*
X142604711Y-118057547D01*
X142603733Y-117953965D01*
X142602797Y-117832227D01*
X142601858Y-117690781D01*
X142600871Y-117528075D01*
X142599885Y-117358487D01*
X142593826Y-116308101D01*
X142558313Y-116235656D01*
X142503336Y-116149665D01*
X142430499Y-116075823D01*
X142345189Y-116019515D01*
X142339077Y-116016461D01*
X142266632Y-115980989D01*
X141978993Y-115976959D01*
X141691355Y-115972929D01*
X141688154Y-117190894D01*
X141687625Y-117389469D01*
X141687124Y-117565241D01*
X141686618Y-117719646D01*
X141686075Y-117854118D01*
X141685463Y-117970091D01*
X141684750Y-118069000D01*
X141683902Y-118152279D01*
X141682888Y-118221362D01*
X141681675Y-118277684D01*
X141680232Y-118322680D01*
X141678525Y-118357783D01*
X141676523Y-118384429D01*
X141674193Y-118404052D01*
X141671503Y-118418086D01*
X141668420Y-118427965D01*
X141664913Y-118435125D01*
X141660948Y-118440999D01*
X141659967Y-118442321D01*
X141631895Y-118474026D01*
X141603308Y-118499431D01*
X141562652Y-118518180D01*
X141510154Y-118527306D01*
X141456592Y-118525881D01*
X141417748Y-118515439D01*
X141373953Y-118485818D01*
X141336542Y-118443296D01*
X141312748Y-118396704D01*
X141309301Y-118383007D01*
X141308391Y-118365825D01*
X141307579Y-118326024D01*
X141306869Y-118265224D01*
X141306264Y-118185042D01*
X141305771Y-118087097D01*
X141305391Y-117973008D01*
X141305131Y-117844392D01*
X141304993Y-117702868D01*
X141304982Y-117550055D01*
X141305103Y-117387570D01*
X141305359Y-117217033D01*
X141305755Y-117040061D01*
X141305790Y-117026998D01*
X141306345Y-116820052D01*
X141306867Y-116635966D01*
X141307386Y-116473364D01*
X141307931Y-116330868D01*
X141308531Y-116207102D01*
X141309215Y-116100690D01*
X141310012Y-116010254D01*
X141310950Y-115934418D01*
X141312059Y-115871806D01*
X141313369Y-115821041D01*
X141314907Y-115780746D01*
X141316703Y-115749545D01*
X141318787Y-115726060D01*
X141321186Y-115708916D01*
X141323931Y-115696736D01*
X141327050Y-115688143D01*
X141330572Y-115681760D01*
X141334270Y-115676554D01*
X141363130Y-115644214D01*
X141392751Y-115618106D01*
X141402337Y-115611567D01*
X141413438Y-115606281D01*
X141428566Y-115602113D01*
X141450228Y-115598932D01*
X141480936Y-115596605D01*
X141523200Y-115594999D01*
X141579528Y-115593980D01*
X141652432Y-115593416D01*
X141744420Y-115593174D01*
X141858004Y-115593121D01*
X141864616Y-115593121D01*
X142302987Y-115593121D01*
X142409158Y-115631108D01*
G37*
G36*
X149094864Y-114278263D02*
G01*
X149142051Y-114298988D01*
X149183903Y-114338305D01*
X149197562Y-114355649D01*
X149203241Y-114363914D01*
X149208003Y-114373596D01*
X149211944Y-114386802D01*
X149215158Y-114405637D01*
X149217739Y-114432207D01*
X149219783Y-114468619D01*
X149221383Y-114516978D01*
X149222635Y-114579391D01*
X149223632Y-114657964D01*
X149224469Y-114754802D01*
X149225242Y-114872012D01*
X149225905Y-114987016D01*
X149229263Y-115584929D01*
X149534923Y-115589753D01*
X149629783Y-115591358D01*
X149704152Y-115593047D01*
X149761772Y-115595165D01*
X149806388Y-115598056D01*
X149841743Y-115602067D01*
X149871581Y-115607541D01*
X149899645Y-115614825D01*
X149929679Y-115624263D01*
X149937529Y-115626864D01*
X150063757Y-115679087D01*
X150175205Y-115747820D01*
X150276656Y-115835673D01*
X150364225Y-115936757D01*
X150432650Y-116047213D01*
X150485535Y-116172876D01*
X150486193Y-116174800D01*
X150519208Y-116271747D01*
X150519208Y-117340295D01*
X150519200Y-117525560D01*
X150519153Y-117688125D01*
X150519031Y-117829528D01*
X150518801Y-117951306D01*
X150518426Y-118054997D01*
X150517873Y-118142137D01*
X150517107Y-118214265D01*
X150516092Y-118272916D01*
X150514794Y-118319629D01*
X150513177Y-118355941D01*
X150511208Y-118383389D01*
X150508851Y-118403511D01*
X150506071Y-118417842D01*
X150502834Y-118427922D01*
X150499104Y-118435287D01*
X150494847Y-118441475D01*
X150494223Y-118442314D01*
X150452470Y-118488489D01*
X150407839Y-118514805D01*
X150352705Y-118525169D01*
X150331374Y-118525754D01*
X150271223Y-118519714D01*
X150224035Y-118498989D01*
X150182183Y-118459670D01*
X150168525Y-118442328D01*
X150164156Y-118436074D01*
X150160317Y-118428728D01*
X150156964Y-118418741D01*
X150154053Y-118404560D01*
X150151539Y-118384633D01*
X150149377Y-118357410D01*
X150147524Y-118321339D01*
X150145935Y-118274869D01*
X150144565Y-118216448D01*
X150143371Y-118144524D01*
X150142306Y-118057547D01*
X150141328Y-117953965D01*
X150140392Y-117832227D01*
X150139453Y-117690781D01*
X150138467Y-117528075D01*
X150137481Y-117358487D01*
X150131422Y-116308101D01*
X150095908Y-116235656D01*
X150040931Y-116149665D01*
X149968094Y-116075823D01*
X149882785Y-116019515D01*
X149876673Y-116016461D01*
X149804227Y-115980989D01*
X149516589Y-115976959D01*
X149228950Y-115972929D01*
X149225749Y-117190894D01*
X149225220Y-117389469D01*
X149224719Y-117565241D01*
X149224214Y-117719646D01*
X149223671Y-117854118D01*
X149223059Y-117970091D01*
X149222345Y-118069000D01*
X149221497Y-118152279D01*
X149220483Y-118221362D01*
X149219271Y-118277684D01*
X149217827Y-118322680D01*
X149216120Y-118357783D01*
X149214118Y-118384429D01*
X149211788Y-118404052D01*
X149209098Y-118418086D01*
X149206016Y-118427965D01*
X149202508Y-118435125D01*
X149198544Y-118440999D01*
X149197562Y-118442321D01*
X149169491Y-118474026D01*
X149140903Y-118499431D01*
X149100248Y-118518180D01*
X149047749Y-118527306D01*
X148994187Y-118525881D01*
X148955344Y-118515439D01*
X148911557Y-118485827D01*
X148874159Y-118443323D01*
X148850377Y-118396752D01*
X148846923Y-118383007D01*
X148846177Y-118366758D01*
X148845495Y-118327576D01*
X148844879Y-118266765D01*
X148844331Y-118185628D01*
X148843855Y-118085469D01*
X148843451Y-117967593D01*
X148843123Y-117833302D01*
X148842873Y-117683901D01*
X148842703Y-117520693D01*
X148842615Y-117344982D01*
X148842611Y-117158071D01*
X148842694Y-116961264D01*
X148842866Y-116755866D01*
X148843130Y-116543179D01*
X148843412Y-116366551D01*
X148843863Y-116110360D01*
X148844289Y-115877291D01*
X148844703Y-115666231D01*
X148845123Y-115476066D01*
X148845563Y-115305681D01*
X148846041Y-115153963D01*
X148846570Y-115019798D01*
X148847167Y-114902071D01*
X148847849Y-114799669D01*
X148848630Y-114711478D01*
X148849526Y-114636384D01*
X148850554Y-114573272D01*
X148851729Y-114521029D01*
X148853066Y-114478541D01*
X148854581Y-114444694D01*
X148856291Y-114418374D01*
X148858211Y-114398466D01*
X148860357Y-114383858D01*
X148862744Y-114373434D01*
X148865388Y-114366081D01*
X148868306Y-114360685D01*
X148871512Y-114356132D01*
X148871865Y-114355658D01*
X148913620Y-114309486D01*
X148958249Y-114283172D01*
X149013379Y-114272809D01*
X149034714Y-114272224D01*
X149094864Y-114278263D01*
G37*
G36*
X153869924Y-115569524D02*
G01*
X153933879Y-115570442D01*
X153981639Y-115573382D01*
X154021231Y-115579653D01*
X154060686Y-115590564D01*
X154108033Y-115607422D01*
X154112290Y-115609025D01*
X154231959Y-115664692D01*
X154340146Y-115736020D01*
X154433143Y-115820039D01*
X154507242Y-115913781D01*
X154521323Y-115936578D01*
X154548183Y-116002277D01*
X154553333Y-116066957D01*
X154537747Y-116126721D01*
X154502401Y-116177676D01*
X154451788Y-116214185D01*
X154384946Y-116236343D01*
X154320536Y-116235630D01*
X154261992Y-116213011D01*
X154212749Y-116169452D01*
X154193554Y-116141609D01*
X154137319Y-116065964D01*
X154068749Y-116010659D01*
X153986860Y-115975154D01*
X153890669Y-115958911D01*
X153857805Y-115957703D01*
X153775141Y-115962140D01*
X153707490Y-115979087D01*
X153647639Y-116011387D01*
X153588375Y-116061889D01*
X153584824Y-116065416D01*
X153527794Y-116137812D01*
X153490141Y-116219013D01*
X153472099Y-116304968D01*
X153473901Y-116391625D01*
X153495779Y-116474932D01*
X153537964Y-116550836D01*
X153555708Y-116572807D01*
X153579191Y-116594991D01*
X153620389Y-116628916D01*
X153676920Y-116672781D01*
X153746404Y-116724780D01*
X153826455Y-116783111D01*
X153914694Y-116845970D01*
X153940700Y-116864246D01*
X154023818Y-116923056D01*
X154103327Y-116980384D01*
X154176299Y-117034038D01*
X154239805Y-117081828D01*
X154290917Y-117121560D01*
X154326707Y-117151042D01*
X154339422Y-117162714D01*
X154423237Y-117260018D01*
X154487908Y-117366571D01*
X154529351Y-117464866D01*
X154544543Y-117509474D01*
X154554889Y-117546869D01*
X154561321Y-117583767D01*
X154564772Y-117626885D01*
X154566174Y-117682939D01*
X154566432Y-117732004D01*
X154563355Y-117837229D01*
X154552540Y-117925498D01*
X154532241Y-118003343D01*
X154500712Y-118077292D01*
X154456208Y-118153875D01*
X154451781Y-118160698D01*
X154367717Y-118268615D01*
X154268931Y-118359566D01*
X154158151Y-118432467D01*
X154038100Y-118486231D01*
X153911505Y-118519772D01*
X153781091Y-118532003D01*
X153649582Y-118521839D01*
X153581865Y-118507394D01*
X153459443Y-118464139D01*
X153344130Y-118401695D01*
X153240391Y-118323189D01*
X153152689Y-118231748D01*
X153115073Y-118180382D01*
X153078033Y-118108633D01*
X153062328Y-118040394D01*
X153067257Y-117978214D01*
X153092120Y-117924640D01*
X153136218Y-117882221D01*
X153198850Y-117853504D01*
X153205396Y-117851672D01*
X153272512Y-117843784D01*
X153331327Y-117858585D01*
X153383002Y-117896457D01*
X153399970Y-117915674D01*
X153452247Y-117978882D01*
X153495455Y-118025801D01*
X153533842Y-118060389D01*
X153571656Y-118086608D01*
X153599800Y-118101972D01*
X153638040Y-118119536D01*
X153672049Y-118130140D01*
X153710543Y-118135512D01*
X153762240Y-118137379D01*
X153779036Y-118137504D01*
X153835008Y-118136824D01*
X153875296Y-118133120D01*
X153908414Y-118124751D01*
X153942875Y-118110074D01*
X153956633Y-118103242D01*
X154035680Y-118051531D01*
X154103569Y-117984258D01*
X154150657Y-117913779D01*
X154163875Y-117884998D01*
X154172268Y-117855823D01*
X154176871Y-117819596D01*
X154178721Y-117769658D01*
X154178941Y-117732004D01*
X154178438Y-117673331D01*
X154176073Y-117632009D01*
X154170557Y-117601159D01*
X154160603Y-117573901D01*
X154144923Y-117543356D01*
X154142972Y-117539822D01*
X154130672Y-117518304D01*
X154118006Y-117498797D01*
X154103007Y-117479687D01*
X154083708Y-117459359D01*
X154058140Y-117436199D01*
X154024338Y-117408592D01*
X153980332Y-117374924D01*
X153924155Y-117333580D01*
X153853841Y-117282946D01*
X153767421Y-117221408D01*
X153675685Y-117156384D01*
X153578091Y-117086563D01*
X153490611Y-117022566D01*
X153415216Y-116965902D01*
X153353877Y-116918079D01*
X153308565Y-116880605D01*
X153281251Y-116854989D01*
X153279840Y-116853426D01*
X153205757Y-116753023D01*
X153146121Y-116637151D01*
X153116719Y-116556527D01*
X153096402Y-116464230D01*
X153087360Y-116361315D01*
X153089626Y-116256838D01*
X153103230Y-116159856D01*
X153115169Y-116114208D01*
X153166363Y-115991805D01*
X153237896Y-115879792D01*
X153327166Y-115780734D01*
X153431575Y-115697194D01*
X153548523Y-115631735D01*
X153639676Y-115597039D01*
X153689104Y-115583440D01*
X153736420Y-115574981D01*
X153789966Y-115570663D01*
X153858086Y-115569491D01*
X153869924Y-115569524D01*
G37*
G36*
X152690300Y-115586672D02*
G01*
X152741428Y-115619272D01*
X152779637Y-115665975D01*
X152800714Y-115723608D01*
X152803511Y-115755273D01*
X152800110Y-115769859D01*
X152790211Y-115806113D01*
X152774274Y-115862485D01*
X152752759Y-115937427D01*
X152726124Y-116029389D01*
X152694830Y-116136822D01*
X152659336Y-116258176D01*
X152620100Y-116391903D01*
X152577583Y-116536454D01*
X152532243Y-116690279D01*
X152484541Y-116851829D01*
X152434935Y-117019555D01*
X152383884Y-117191908D01*
X152331849Y-117367339D01*
X152279288Y-117544298D01*
X152226662Y-117721237D01*
X152174428Y-117896605D01*
X152123047Y-118068855D01*
X152072978Y-118236436D01*
X152024680Y-118397800D01*
X151978613Y-118551397D01*
X151935236Y-118695679D01*
X151895009Y-118829096D01*
X151858390Y-118950099D01*
X151825839Y-119057139D01*
X151797816Y-119148666D01*
X151784367Y-119192262D01*
X151747143Y-119299892D01*
X151706728Y-119389274D01*
X151659723Y-119466391D01*
X151602729Y-119537232D01*
X151567602Y-119573989D01*
X151456614Y-119668708D01*
X151336017Y-119741712D01*
X151207033Y-119792436D01*
X151070887Y-119820311D01*
X151028177Y-119824176D01*
X150976292Y-119826545D01*
X150940044Y-119824767D01*
X150911012Y-119817611D01*
X150880771Y-119803848D01*
X150877595Y-119802186D01*
X150824873Y-119762102D01*
X150792043Y-119708406D01*
X150779818Y-119642307D01*
X150779752Y-119636601D01*
X150787824Y-119570555D01*
X150812907Y-119518898D01*
X150856297Y-119480471D01*
X150919293Y-119454116D01*
X151001366Y-119438879D01*
X151110763Y-119416736D01*
X151203984Y-119376568D01*
X151281111Y-119318322D01*
X151342228Y-119241945D01*
X151358037Y-119214390D01*
X151372275Y-119182317D01*
X151391144Y-119132170D01*
X151413664Y-119067237D01*
X151438856Y-118990810D01*
X151465740Y-118906178D01*
X151493336Y-118816631D01*
X151520665Y-118725459D01*
X151546748Y-118635952D01*
X151570604Y-118551401D01*
X151591254Y-118475095D01*
X151607719Y-118410325D01*
X151619018Y-118360379D01*
X151624174Y-118328550D01*
X151624162Y-118320577D01*
X151619866Y-118304024D01*
X151609067Y-118265852D01*
X151592235Y-118207652D01*
X151569842Y-118131017D01*
X151542357Y-118037538D01*
X151510252Y-117928807D01*
X151473998Y-117806418D01*
X151434064Y-117671961D01*
X151390922Y-117527028D01*
X151345043Y-117373213D01*
X151296897Y-117212106D01*
X151258452Y-117083674D01*
X151208664Y-116917389D01*
X151160608Y-116756738D01*
X151114771Y-116603357D01*
X151071640Y-116458883D01*
X151031702Y-116324951D01*
X150995444Y-116203198D01*
X150963353Y-116095261D01*
X150935916Y-116002775D01*
X150913621Y-115927378D01*
X150896953Y-115870704D01*
X150886401Y-115834392D01*
X150882806Y-115821555D01*
X150873826Y-115749357D01*
X150887148Y-115686349D01*
X150922936Y-115631851D01*
X150930905Y-115623732D01*
X150982729Y-115588446D01*
X151041385Y-115572398D01*
X151101455Y-115574801D01*
X151157522Y-115594868D01*
X151204168Y-115631810D01*
X151228130Y-115666928D01*
X151234300Y-115683806D01*
X151246798Y-115722147D01*
X151265082Y-115780171D01*
X151288610Y-115856100D01*
X151316839Y-115948153D01*
X151349227Y-116054551D01*
X151385231Y-116173515D01*
X151424310Y-116303265D01*
X151465920Y-116442023D01*
X151509520Y-116588007D01*
X151537147Y-116680809D01*
X151581382Y-116829345D01*
X151623711Y-116971022D01*
X151663619Y-117104144D01*
X151700591Y-117227016D01*
X151734113Y-117337942D01*
X151763670Y-117435226D01*
X151788747Y-117517172D01*
X151808829Y-117582084D01*
X151823403Y-117628267D01*
X151831953Y-117654026D01*
X151834046Y-117659014D01*
X151838398Y-117647704D01*
X151849170Y-117614919D01*
X151865824Y-117562400D01*
X151887825Y-117491890D01*
X151914638Y-117405131D01*
X151945726Y-117303864D01*
X151980554Y-117189832D01*
X152018586Y-117064776D01*
X152059287Y-116930438D01*
X152102119Y-116788561D01*
X152118203Y-116735159D01*
X152162276Y-116588751D01*
X152204771Y-116447602D01*
X152245106Y-116313648D01*
X152282698Y-116188824D01*
X152316963Y-116075067D01*
X152347318Y-115974312D01*
X152373181Y-115888495D01*
X152393968Y-115819550D01*
X152409096Y-115769415D01*
X152417982Y-115740023D01*
X152419247Y-115735858D01*
X152449911Y-115664290D01*
X152492481Y-115613326D01*
X152547881Y-115581962D01*
X152566140Y-115576475D01*
X152630466Y-115571348D01*
X152690300Y-115586672D01*
G37*
G36*
X138082917Y-115631108D02*
G01*
X138183939Y-115672085D01*
X138268906Y-115718428D01*
X138346001Y-115775233D01*
X138412090Y-115836188D01*
X138500107Y-115937270D01*
X138568528Y-116046956D01*
X138621212Y-116171455D01*
X138622357Y-116174800D01*
X138655372Y-116271747D01*
X138655372Y-117047319D01*
X138655372Y-117822892D01*
X138622357Y-117919838D01*
X138570016Y-118044785D01*
X138502034Y-118154765D01*
X138414553Y-118255986D01*
X138412090Y-118258450D01*
X138334445Y-118328936D01*
X138256000Y-118384216D01*
X138168479Y-118429432D01*
X138082917Y-118463039D01*
X138049863Y-118474551D01*
X138021441Y-118483474D01*
X137993895Y-118490193D01*
X137963470Y-118495093D01*
X137926409Y-118498560D01*
X137878956Y-118500979D01*
X137817355Y-118502734D01*
X137737851Y-118504211D01*
X137671086Y-118505262D01*
X137365427Y-118509987D01*
X137362069Y-119107761D01*
X137361279Y-119243578D01*
X137360502Y-119357266D01*
X137359644Y-119450929D01*
X137358612Y-119526675D01*
X137357309Y-119586610D01*
X137355641Y-119632840D01*
X137353515Y-119667472D01*
X137350835Y-119692611D01*
X137347506Y-119710365D01*
X137343435Y-119722840D01*
X137338526Y-119732141D01*
X137333726Y-119738989D01*
X137305652Y-119770692D01*
X137277067Y-119796092D01*
X137236412Y-119814840D01*
X137183913Y-119823966D01*
X137130352Y-119822541D01*
X137091508Y-119812099D01*
X137047721Y-119782487D01*
X137010323Y-119739983D01*
X136986541Y-119693412D01*
X136983087Y-119679667D01*
X136982339Y-119663405D01*
X136981654Y-119624215D01*
X136981037Y-119563404D01*
X136980489Y-119482279D01*
X136980012Y-119382151D01*
X136979608Y-119264325D01*
X136979281Y-119130110D01*
X136979032Y-118980814D01*
X136978863Y-118817745D01*
X136978777Y-118642211D01*
X136978776Y-118455520D01*
X136978863Y-118258979D01*
X136979039Y-118053897D01*
X136979307Y-117841582D01*
X136979575Y-117675329D01*
X136980029Y-117419960D01*
X136980455Y-117187710D01*
X136980871Y-116977462D01*
X136981292Y-116788097D01*
X136981735Y-116618499D01*
X136982214Y-116467550D01*
X136982747Y-116334132D01*
X136983348Y-116217128D01*
X136984034Y-116115421D01*
X136984821Y-116027892D01*
X136985464Y-115974848D01*
X137364771Y-115974848D01*
X137364771Y-117047319D01*
X137364771Y-118119790D01*
X137624235Y-118119790D01*
X137715010Y-118119486D01*
X137785518Y-118118395D01*
X137839724Y-118116249D01*
X137881593Y-118112780D01*
X137915089Y-118107720D01*
X137944177Y-118100802D01*
X137955662Y-118097393D01*
X138051140Y-118056301D01*
X138131679Y-117996722D01*
X138198264Y-117917776D01*
X138241677Y-117841069D01*
X138247011Y-117829388D01*
X138251558Y-117817262D01*
X138255380Y-117802765D01*
X138258541Y-117783971D01*
X138261103Y-117758953D01*
X138263129Y-117725786D01*
X138264681Y-117682543D01*
X138265824Y-117627299D01*
X138266619Y-117558127D01*
X138267130Y-117473102D01*
X138267419Y-117370297D01*
X138267550Y-117247787D01*
X138267585Y-117103645D01*
X138267586Y-117047319D01*
X138267570Y-116895093D01*
X138267480Y-116765177D01*
X138267254Y-116655646D01*
X138266829Y-116564573D01*
X138266141Y-116490033D01*
X138265128Y-116430100D01*
X138263727Y-116382846D01*
X138261875Y-116346347D01*
X138259509Y-116318677D01*
X138256567Y-116297908D01*
X138252985Y-116282116D01*
X138248700Y-116269374D01*
X138243651Y-116257756D01*
X138241677Y-116253569D01*
X138185429Y-116158686D01*
X138116004Y-116083868D01*
X138032418Y-116028233D01*
X137955662Y-115997245D01*
X137927232Y-115989493D01*
X137896008Y-115983710D01*
X137858025Y-115979626D01*
X137809317Y-115976974D01*
X137745921Y-115975486D01*
X137663871Y-115974894D01*
X137624235Y-115974848D01*
X137364771Y-115974848D01*
X136985464Y-115974848D01*
X136985724Y-115953425D01*
X136986760Y-115890902D01*
X136987945Y-115839204D01*
X136989293Y-115797216D01*
X136990822Y-115763818D01*
X136992548Y-115737894D01*
X136994485Y-115718327D01*
X136996650Y-115703998D01*
X136999059Y-115693790D01*
X137001728Y-115686585D01*
X137004673Y-115681267D01*
X137007909Y-115676717D01*
X137008029Y-115676555D01*
X137036890Y-115644214D01*
X137066510Y-115618106D01*
X137076096Y-115611567D01*
X137087198Y-115606281D01*
X137102325Y-115602113D01*
X137123988Y-115598932D01*
X137154696Y-115596605D01*
X137196959Y-115594999D01*
X137253288Y-115593980D01*
X137326191Y-115593416D01*
X137418180Y-115593174D01*
X137531763Y-115593121D01*
X137538376Y-115593121D01*
X137976746Y-115593121D01*
X138082917Y-115631108D01*
G37*
G36*
X147729101Y-115631108D02*
G01*
X147830122Y-115672085D01*
X147915089Y-115718428D01*
X147992184Y-115775233D01*
X148058273Y-115836188D01*
X148146290Y-115937270D01*
X148214712Y-116046956D01*
X148267395Y-116171455D01*
X148268540Y-116174800D01*
X148301555Y-116271747D01*
X148301555Y-117047319D01*
X148301555Y-117822892D01*
X148268540Y-117919838D01*
X148216200Y-118044785D01*
X148148217Y-118154765D01*
X148060736Y-118255986D01*
X148058273Y-118258450D01*
X147980628Y-118328936D01*
X147902183Y-118384216D01*
X147814662Y-118429432D01*
X147729101Y-118463039D01*
X147696046Y-118474551D01*
X147667624Y-118483474D01*
X147640079Y-118490193D01*
X147609653Y-118495093D01*
X147572592Y-118498560D01*
X147525139Y-118500979D01*
X147463538Y-118502734D01*
X147384034Y-118504211D01*
X147317270Y-118505262D01*
X147011610Y-118509987D01*
X147008253Y-119107761D01*
X147007462Y-119243578D01*
X147006685Y-119357266D01*
X147005828Y-119450929D01*
X147004795Y-119526675D01*
X147003492Y-119586610D01*
X147001824Y-119632840D01*
X146999698Y-119667472D01*
X146997018Y-119692611D01*
X146993689Y-119710365D01*
X146989618Y-119722840D01*
X146984709Y-119732141D01*
X146979910Y-119738989D01*
X146951835Y-119770692D01*
X146923250Y-119796092D01*
X146882595Y-119814840D01*
X146830096Y-119823966D01*
X146776535Y-119822541D01*
X146737691Y-119812099D01*
X146693904Y-119782487D01*
X146656506Y-119739983D01*
X146632724Y-119693412D01*
X146629270Y-119679667D01*
X146628522Y-119663405D01*
X146627838Y-119624215D01*
X146627220Y-119563404D01*
X146626672Y-119482279D01*
X146626195Y-119382151D01*
X146625791Y-119264325D01*
X146625464Y-119130110D01*
X146625215Y-118980814D01*
X146625046Y-118817745D01*
X146624960Y-118642211D01*
X146624959Y-118455520D01*
X146625046Y-118258979D01*
X146625222Y-118053897D01*
X146625490Y-117841582D01*
X146625759Y-117675329D01*
X146626212Y-117419960D01*
X146626638Y-117187710D01*
X146627054Y-116977462D01*
X146627476Y-116788097D01*
X146627918Y-116618499D01*
X146628397Y-116467550D01*
X146628930Y-116334132D01*
X146629531Y-116217128D01*
X146630217Y-116115421D01*
X146631004Y-116027892D01*
X146631647Y-115974848D01*
X147010954Y-115974848D01*
X147010954Y-117047319D01*
X147010954Y-118119790D01*
X147270418Y-118119790D01*
X147361193Y-118119486D01*
X147431701Y-118118395D01*
X147485907Y-118116249D01*
X147527776Y-118112780D01*
X147561272Y-118107720D01*
X147590360Y-118100802D01*
X147601845Y-118097393D01*
X147697323Y-118056301D01*
X147777862Y-117996722D01*
X147844447Y-117917776D01*
X147887860Y-117841069D01*
X147893194Y-117829388D01*
X147897741Y-117817262D01*
X147901563Y-117802765D01*
X147904724Y-117783971D01*
X147907286Y-117758953D01*
X147909312Y-117725786D01*
X147910865Y-117682543D01*
X147912007Y-117627299D01*
X147912803Y-117558127D01*
X147913313Y-117473102D01*
X147913603Y-117370297D01*
X147913733Y-117247787D01*
X147913768Y-117103645D01*
X147913769Y-117047319D01*
X147913753Y-116895093D01*
X147913664Y-116765177D01*
X147913437Y-116655646D01*
X147913012Y-116564573D01*
X147912324Y-116490033D01*
X147911311Y-116430100D01*
X147909910Y-116382846D01*
X147908058Y-116346347D01*
X147905692Y-116318677D01*
X147902750Y-116297908D01*
X147899168Y-116282116D01*
X147894884Y-116269374D01*
X147889834Y-116257756D01*
X147887860Y-116253569D01*
X147831613Y-116158686D01*
X147762187Y-116083868D01*
X147678601Y-116028233D01*
X147601845Y-115997245D01*
X147573416Y-115989493D01*
X147542192Y-115983710D01*
X147504208Y-115979626D01*
X147455500Y-115976974D01*
X147392104Y-115975486D01*
X147310054Y-115974894D01*
X147270418Y-115974848D01*
X147010954Y-115974848D01*
X146631647Y-115974848D01*
X146631907Y-115953425D01*
X146632943Y-115890902D01*
X146634128Y-115839204D01*
X146635477Y-115797216D01*
X146637006Y-115763818D01*
X146638731Y-115737894D01*
X146640668Y-115718327D01*
X146642833Y-115703998D01*
X146645242Y-115693790D01*
X146647911Y-115686585D01*
X146650856Y-115681267D01*
X146654092Y-115676717D01*
X146654212Y-115676555D01*
X146683073Y-115644214D01*
X146712693Y-115618106D01*
X146722279Y-115611567D01*
X146733381Y-115606281D01*
X146748508Y-115602113D01*
X146770171Y-115598932D01*
X146800879Y-115596605D01*
X146843143Y-115594999D01*
X146899471Y-115593980D01*
X146972375Y-115593416D01*
X147064363Y-115593174D01*
X147177946Y-115593121D01*
X147184559Y-115593121D01*
X147622929Y-115593121D01*
X147729101Y-115631108D01*
G37*
G36*
X145358454Y-110358006D02*
G01*
X145968779Y-110358006D01*
X145974838Y-110364065D01*
X145980897Y-110358006D01*
X145974838Y-110351947D01*
X145968779Y-110358006D01*
X145358454Y-110358006D01*
X145349167Y-110309536D01*
X145322037Y-110168328D01*
X145292320Y-110014011D01*
X145260274Y-109847920D01*
X145226154Y-109671391D01*
X145190216Y-109485758D01*
X145152717Y-109292357D01*
X145118159Y-109114374D01*
X145064315Y-108836702D01*
X145015290Y-108582719D01*
X144971072Y-108352364D01*
X144931648Y-108145576D01*
X144897009Y-107962293D01*
X144867142Y-107802455D01*
X144842036Y-107665999D01*
X144821679Y-107552865D01*
X144806061Y-107462991D01*
X144795169Y-107396316D01*
X144788994Y-107352779D01*
X144787440Y-107334485D01*
X144797139Y-107248940D01*
X144826970Y-107176627D01*
X144877342Y-107116696D01*
X144900915Y-107097745D01*
X144977875Y-107054823D01*
X145057413Y-107035948D01*
X145138670Y-107041175D01*
X145220789Y-107070560D01*
X145231954Y-107076413D01*
X145286138Y-107113436D01*
X145328853Y-107161320D01*
X145364327Y-107225423D01*
X145380437Y-107264614D01*
X145387567Y-107282667D01*
X145403295Y-107321927D01*
X145427113Y-107381141D01*
X145458513Y-107459055D01*
X145496988Y-107554415D01*
X145542030Y-107665967D01*
X145593132Y-107792458D01*
X145649784Y-107932633D01*
X145711481Y-108085239D01*
X145777714Y-108249022D01*
X145847975Y-108422729D01*
X145921757Y-108605104D01*
X145998552Y-108794896D01*
X146077853Y-108990849D01*
X146159151Y-109191711D01*
X146241939Y-109396226D01*
X146325710Y-109603142D01*
X146409955Y-109811205D01*
X146494168Y-110019161D01*
X146577839Y-110225756D01*
X146660463Y-110429736D01*
X146741530Y-110629848D01*
X146820533Y-110824837D01*
X146896965Y-111013450D01*
X146970318Y-111194433D01*
X147040084Y-111366533D01*
X147105755Y-111528495D01*
X147166824Y-111679066D01*
X147222783Y-111816991D01*
X147273125Y-111941018D01*
X147317341Y-112049892D01*
X147354925Y-112142360D01*
X147385367Y-112217167D01*
X147408162Y-112273060D01*
X147422800Y-112308786D01*
X147427944Y-112321174D01*
X147453334Y-112403947D01*
X147456526Y-112484033D01*
X147437752Y-112567932D01*
X147436799Y-112570732D01*
X147430889Y-112589668D01*
X147418808Y-112629845D01*
X147401151Y-112689230D01*
X147378510Y-112765791D01*
X147351481Y-112857495D01*
X147320656Y-112962310D01*
X147286630Y-113078203D01*
X147249997Y-113203141D01*
X147211349Y-113335092D01*
X147171282Y-113472023D01*
X147130388Y-113611902D01*
X147089263Y-113752696D01*
X147048498Y-113892373D01*
X147008689Y-114028899D01*
X146970430Y-114160243D01*
X146934313Y-114284371D01*
X146900933Y-114399252D01*
X146870883Y-114502852D01*
X146844758Y-114593139D01*
X146823152Y-114668080D01*
X146806657Y-114725643D01*
X146795869Y-114763796D01*
X146792465Y-114776208D01*
X146762836Y-114843004D01*
X146714641Y-114900241D01*
X146652533Y-114945309D01*
X146581167Y-114975596D01*
X146505195Y-114988493D01*
X146429271Y-114981390D01*
X146427470Y-114980948D01*
X146386614Y-114967666D01*
X146343247Y-114949247D01*
X146336582Y-114945928D01*
X146321782Y-114939428D01*
X146285448Y-114924019D01*
X146228442Y-114900058D01*
X146151624Y-114867902D01*
X146055857Y-114827911D01*
X145942001Y-114780441D01*
X145810918Y-114725850D01*
X145663469Y-114664497D01*
X145500515Y-114596738D01*
X145322917Y-114522932D01*
X145131537Y-114443436D01*
X144927236Y-114358609D01*
X144710875Y-114268807D01*
X144483315Y-114174390D01*
X144245418Y-114075714D01*
X143998045Y-113973137D01*
X143742057Y-113867017D01*
X143478316Y-113757713D01*
X143207682Y-113645581D01*
X142931017Y-113530979D01*
X142775601Y-113466615D01*
X142496004Y-113350828D01*
X142221973Y-113237341D01*
X141954368Y-113126510D01*
X141694048Y-113018693D01*
X141441876Y-112914246D01*
X141198711Y-112813524D01*
X140965414Y-112716886D01*
X140742845Y-112624687D01*
X140531865Y-112537283D01*
X140333334Y-112455032D01*
X140148113Y-112378290D01*
X139977063Y-112307413D01*
X139821043Y-112242758D01*
X139744893Y-112211198D01*
X141330419Y-112211198D01*
X141341044Y-112216088D01*
X141372748Y-112229691D01*
X141424213Y-112251459D01*
X141494121Y-112280847D01*
X141581152Y-112317306D01*
X141683989Y-112360291D01*
X141801313Y-112409253D01*
X141931805Y-112463648D01*
X142074147Y-112522927D01*
X142227020Y-112586544D01*
X142389106Y-112653952D01*
X142559085Y-112724604D01*
X142735640Y-112797954D01*
X142917452Y-112873454D01*
X143103202Y-112950559D01*
X143291571Y-113028720D01*
X143481242Y-113107391D01*
X143670896Y-113186026D01*
X143859213Y-113264077D01*
X144044876Y-113340998D01*
X144226566Y-113416242D01*
X144402964Y-113489262D01*
X144572751Y-113559512D01*
X144734610Y-113626443D01*
X144887222Y-113689511D01*
X145029267Y-113748167D01*
X145159428Y-113801865D01*
X145276386Y-113850058D01*
X145378822Y-113892200D01*
X145465418Y-113927743D01*
X145534855Y-113956141D01*
X145585815Y-113976847D01*
X145616978Y-113989314D01*
X145627043Y-113993033D01*
X145620729Y-113983008D01*
X145601318Y-113954859D01*
X145569900Y-113910113D01*
X145527561Y-113850300D01*
X145475392Y-113776947D01*
X145414480Y-113691581D01*
X145345915Y-113595730D01*
X145270785Y-113490923D01*
X145190178Y-113378686D01*
X145105184Y-113260549D01*
X145100840Y-113254516D01*
X145015323Y-113135946D01*
X144933741Y-113023178D01*
X144857220Y-112917750D01*
X144786888Y-112821200D01*
X144723873Y-112735065D01*
X144669303Y-112660882D01*
X144624306Y-112600189D01*
X144621607Y-112596596D01*
X145380300Y-112596596D01*
X145385764Y-112607458D01*
X145403999Y-112635803D01*
X145433531Y-112679503D01*
X145472885Y-112736433D01*
X145520588Y-112804465D01*
X145575165Y-112881473D01*
X145635144Y-112965331D01*
X145654794Y-112992649D01*
X145716374Y-113077926D01*
X145773473Y-113156573D01*
X145824566Y-113226522D01*
X145868128Y-113285702D01*
X145902633Y-113332046D01*
X145926555Y-113363482D01*
X145938369Y-113377943D01*
X145939341Y-113378649D01*
X145938056Y-113366273D01*
X145932614Y-113333020D01*
X145923542Y-113281790D01*
X145911371Y-113215486D01*
X145896627Y-113137010D01*
X145879840Y-113049263D01*
X145871679Y-113007113D01*
X145853848Y-112915997D01*
X145837318Y-112832778D01*
X145822690Y-112760375D01*
X145810562Y-112701707D01*
X145809269Y-112695689D01*
X146432447Y-112695689D01*
X146432893Y-112708731D01*
X146437481Y-112741722D01*
X146445517Y-112791025D01*
X146456309Y-112853005D01*
X146469164Y-112924028D01*
X146483388Y-113000458D01*
X146498288Y-113078659D01*
X146513172Y-113154997D01*
X146527347Y-113225835D01*
X146540118Y-113287540D01*
X146550793Y-113336474D01*
X146558680Y-113369004D01*
X146563084Y-113381494D01*
X146563207Y-113381527D01*
X146568400Y-113370369D01*
X146579303Y-113338880D01*
X146594981Y-113290036D01*
X146614502Y-113226816D01*
X146636932Y-113152196D01*
X146661337Y-113069154D01*
X146663579Y-113061438D01*
X146687923Y-112977155D01*
X146709883Y-112900361D01*
X146728588Y-112834166D01*
X146743165Y-112781682D01*
X146752744Y-112746018D01*
X146756452Y-112730283D01*
X146756469Y-112730005D01*
X146745278Y-112725258D01*
X146715297Y-112719433D01*
X146671917Y-112713100D01*
X146620531Y-112706830D01*
X146566528Y-112701194D01*
X146515301Y-112696763D01*
X146472239Y-112694107D01*
X146442735Y-112693799D01*
X146432447Y-112695689D01*
X145809269Y-112695689D01*
X145801534Y-112659694D01*
X145796203Y-112637253D01*
X145795172Y-112634320D01*
X145781490Y-112631042D01*
X145748662Y-112626481D01*
X145701549Y-112621078D01*
X145645015Y-112615275D01*
X145583921Y-112609516D01*
X145523129Y-112604241D01*
X145467500Y-112599893D01*
X145421898Y-112596915D01*
X145391182Y-112595747D01*
X145380300Y-112596596D01*
X144621607Y-112596596D01*
X144590008Y-112554523D01*
X144567539Y-112525422D01*
X144558025Y-112514424D01*
X144557937Y-112514384D01*
X144544332Y-112512669D01*
X144508410Y-112508890D01*
X144451877Y-112503206D01*
X144376438Y-112495779D01*
X144283802Y-112486768D01*
X144175673Y-112476335D01*
X144053759Y-112464638D01*
X143919765Y-112451838D01*
X143775398Y-112438097D01*
X143622366Y-112423573D01*
X143462373Y-112408428D01*
X143297126Y-112392821D01*
X143128332Y-112376913D01*
X142957697Y-112360864D01*
X142786927Y-112344835D01*
X142617729Y-112328986D01*
X142451810Y-112313476D01*
X142290875Y-112298467D01*
X142136631Y-112284119D01*
X141990784Y-112270592D01*
X141855042Y-112258045D01*
X141731109Y-112246641D01*
X141620693Y-112236538D01*
X141525499Y-112227897D01*
X141447235Y-112220879D01*
X141387607Y-112215644D01*
X141348320Y-112212351D01*
X141331082Y-112211162D01*
X141330419Y-112211198D01*
X139744893Y-112211198D01*
X139680914Y-112184682D01*
X139557537Y-112133540D01*
X139451773Y-112089690D01*
X139364481Y-112053488D01*
X139296522Y-112025290D01*
X139248757Y-112005453D01*
X139222046Y-111994334D01*
X139216620Y-111992055D01*
X139148230Y-111950198D01*
X139095366Y-111892323D01*
X139059773Y-111822350D01*
X139043197Y-111744199D01*
X139047384Y-111661788D01*
X139055050Y-111629241D01*
X139065885Y-111596316D01*
X139079281Y-111568713D01*
X139099020Y-111541307D01*
X139128883Y-111508974D01*
X139161531Y-111477360D01*
X140061665Y-111477360D01*
X140061668Y-111477502D01*
X140074249Y-111479344D01*
X140109701Y-111483338D01*
X140166763Y-111489358D01*
X140244177Y-111497283D01*
X140340683Y-111506988D01*
X140455022Y-111518351D01*
X140585934Y-111531248D01*
X140732159Y-111545556D01*
X140892439Y-111561152D01*
X141065514Y-111577912D01*
X141250124Y-111595714D01*
X141445010Y-111614434D01*
X141648913Y-111633949D01*
X141860573Y-111654135D01*
X142070258Y-111674065D01*
X142288246Y-111694753D01*
X142499726Y-111714828D01*
X142703436Y-111734170D01*
X142898112Y-111752658D01*
X143082494Y-111770174D01*
X143255318Y-111786596D01*
X143415323Y-111801804D01*
X143561246Y-111815680D01*
X143691825Y-111828102D01*
X143805797Y-111838951D01*
X143901901Y-111848106D01*
X143978874Y-111855448D01*
X144035454Y-111860857D01*
X144070379Y-111864212D01*
X144082360Y-111865390D01*
X144089167Y-111858357D01*
X144088419Y-111854792D01*
X144080953Y-111843614D01*
X144060185Y-111813994D01*
X144026989Y-111767152D01*
X143982237Y-111704305D01*
X143926803Y-111626673D01*
X143861557Y-111535473D01*
X143787375Y-111431924D01*
X143705127Y-111317245D01*
X143615688Y-111192653D01*
X143519929Y-111059369D01*
X143418725Y-110918609D01*
X143312946Y-110771593D01*
X143236097Y-110664849D01*
X143126905Y-110513211D01*
X143021173Y-110366372D01*
X142989631Y-110322564D01*
X143741037Y-110322564D01*
X143743041Y-110329014D01*
X143757572Y-110352409D01*
X143782856Y-110390127D01*
X143817116Y-110439547D01*
X143858578Y-110498046D01*
X143881078Y-110529359D01*
X143917784Y-110580269D01*
X143966722Y-110648213D01*
X144025982Y-110730538D01*
X144093657Y-110824593D01*
X144167839Y-110927725D01*
X144246621Y-111037282D01*
X144328095Y-111150612D01*
X144410353Y-111265064D01*
X144459550Y-111333531D01*
X144535630Y-111439392D01*
X144607558Y-111539421D01*
X144674080Y-111631878D01*
X144733943Y-111715022D01*
X144785892Y-111787115D01*
X144828674Y-111846416D01*
X144861035Y-111891184D01*
X144881721Y-111919681D01*
X144889437Y-111930119D01*
X144902444Y-111932999D01*
X144936042Y-111937817D01*
X144986696Y-111944196D01*
X145050870Y-111951760D01*
X145125029Y-111960132D01*
X145205639Y-111968935D01*
X145289164Y-111977792D01*
X145372069Y-111986326D01*
X145450819Y-111994160D01*
X145521879Y-112000917D01*
X145581713Y-112006221D01*
X145626787Y-112009694D01*
X145645927Y-112010769D01*
X145670040Y-112009141D01*
X145676268Y-111997788D01*
X145674114Y-111984891D01*
X145669113Y-111960978D01*
X145661268Y-111920397D01*
X145651956Y-111870343D01*
X145647999Y-111848560D01*
X145638584Y-111797743D01*
X145630102Y-111754462D01*
X145623886Y-111725417D01*
X145622219Y-111718898D01*
X145612139Y-111709932D01*
X145584162Y-111687816D01*
X145539919Y-111653757D01*
X145481038Y-111608966D01*
X145409149Y-111554650D01*
X145325880Y-111492021D01*
X145232860Y-111422285D01*
X145131718Y-111346653D01*
X145024083Y-111266333D01*
X144911583Y-111182535D01*
X144795849Y-111096468D01*
X144678508Y-111009341D01*
X144561189Y-110922362D01*
X144445522Y-110836742D01*
X144333136Y-110753688D01*
X144225658Y-110674411D01*
X144124719Y-110600118D01*
X144031947Y-110532021D01*
X143948971Y-110471326D01*
X143877420Y-110419244D01*
X143818923Y-110376984D01*
X143775109Y-110345754D01*
X143747606Y-110326764D01*
X143741037Y-110322564D01*
X142989631Y-110322564D01*
X142919820Y-110225607D01*
X142823765Y-110092193D01*
X142733926Y-109967405D01*
X142651222Y-109852519D01*
X142576570Y-109748811D01*
X142510890Y-109657558D01*
X142455099Y-109580034D01*
X142410117Y-109517517D01*
X142376862Y-109471281D01*
X142356252Y-109442604D01*
X142350055Y-109433960D01*
X142312295Y-109381069D01*
X141183689Y-110425993D01*
X141043631Y-110555763D01*
X140908680Y-110680994D01*
X140779886Y-110800700D01*
X140658299Y-110913899D01*
X140544969Y-111019604D01*
X140440948Y-111116831D01*
X140347285Y-111204597D01*
X140265031Y-111281916D01*
X140195237Y-111347805D01*
X140138953Y-111401278D01*
X140097229Y-111441351D01*
X140071116Y-111467040D01*
X140061665Y-111477360D01*
X139161531Y-111477360D01*
X139172652Y-111466591D01*
X139180658Y-111459043D01*
X139201651Y-111439432D01*
X139239361Y-111404366D01*
X139292712Y-111354842D01*
X139360624Y-111291860D01*
X139442020Y-111216417D01*
X139535822Y-111129511D01*
X139640952Y-111032141D01*
X139756331Y-110925305D01*
X139880883Y-110810001D01*
X140013529Y-110687228D01*
X140153190Y-110557983D01*
X140298790Y-110423266D01*
X140449250Y-110284073D01*
X140603492Y-110141405D01*
X140618540Y-110127487D01*
X140773198Y-109984415D01*
X140924232Y-109844635D01*
X141070559Y-109709152D01*
X141211095Y-109578971D01*
X141344758Y-109455097D01*
X141470465Y-109338535D01*
X141587132Y-109230292D01*
X141693677Y-109131370D01*
X141789017Y-109042777D01*
X141872068Y-108965517D01*
X141941748Y-108900596D01*
X141996973Y-108849018D01*
X142036661Y-108811788D01*
X142059728Y-108789913D01*
X142060943Y-108788740D01*
X142125782Y-108728425D01*
X142179828Y-108684662D01*
X142227437Y-108655086D01*
X142272965Y-108637331D01*
X142320768Y-108629032D01*
X142357685Y-108627581D01*
X142389955Y-108628168D01*
X142418220Y-108631024D01*
X142445579Y-108637794D01*
X142475134Y-108650121D01*
X142509982Y-108669650D01*
X142553223Y-108698024D01*
X142607959Y-108736887D01*
X142677287Y-108787884D01*
X142720474Y-108819997D01*
X142782746Y-108866267D01*
X142859057Y-108922790D01*
X142948077Y-108988589D01*
X143048477Y-109062690D01*
X143158927Y-109144116D01*
X143278096Y-109231893D01*
X143404655Y-109325044D01*
X143537274Y-109422594D01*
X143674623Y-109523567D01*
X143815371Y-109626988D01*
X143958190Y-109731881D01*
X144101749Y-109837270D01*
X144244719Y-109942180D01*
X144385768Y-110045635D01*
X144523569Y-110146660D01*
X144656789Y-110244278D01*
X144784100Y-110337515D01*
X144904172Y-110425395D01*
X145015674Y-110506941D01*
X145117278Y-110581179D01*
X145207652Y-110647133D01*
X145285467Y-110703827D01*
X145349393Y-110750285D01*
X145398100Y-110785532D01*
X145430259Y-110808593D01*
X145444538Y-110818491D01*
X145445155Y-110818802D01*
X145443299Y-110806737D01*
X145437064Y-110772218D01*
X145426706Y-110716580D01*
X145412481Y-110641157D01*
X145394645Y-110547286D01*
X145373455Y-110436300D01*
X145362952Y-110381480D01*
X145983680Y-110381480D01*
X145984815Y-110394058D01*
X145990131Y-110427892D01*
X145999169Y-110480445D01*
X146011475Y-110549186D01*
X146026592Y-110631578D01*
X146044063Y-110725087D01*
X146063433Y-110827181D01*
X146071460Y-110869073D01*
X146094593Y-110989171D01*
X146113781Y-111087723D01*
X146129585Y-111166998D01*
X146142564Y-111229262D01*
X146153281Y-111276785D01*
X146162294Y-111311835D01*
X146170166Y-111336679D01*
X146177455Y-111353586D01*
X146184724Y-111364824D01*
X146192531Y-111372661D01*
X146196721Y-111375945D01*
X146219385Y-111392859D01*
X146256128Y-111420307D01*
X146301619Y-111454305D01*
X146344407Y-111486294D01*
X146389519Y-111519424D01*
X146427175Y-111545943D01*
X146453434Y-111563153D01*
X146464350Y-111568362D01*
X146460853Y-111556695D01*
X146449042Y-111524663D01*
X146429738Y-111474352D01*
X146403761Y-111407846D01*
X146371933Y-111327230D01*
X146335074Y-111234588D01*
X146294006Y-111132005D01*
X146249550Y-111021567D01*
X146228883Y-110970420D01*
X146183040Y-110857410D01*
X146139880Y-110751623D01*
X146100256Y-110655108D01*
X146065022Y-110569914D01*
X146035028Y-110498088D01*
X146011130Y-110441680D01*
X145994179Y-110402737D01*
X145985028Y-110383308D01*
X145983680Y-110381480D01*
X145362952Y-110381480D01*
X145358454Y-110358006D01*
G37*
%TD*%
D11*
%TO.C,J4*%
X119830000Y-98440000D03*
D12*
X119830000Y-95900000D03*
D11*
X119830000Y-93360000D03*
X116655000Y-98440000D03*
X116655000Y-93360000D03*
D12*
X114750000Y-96916000D03*
X114750000Y-94884000D03*
D13*
X118560000Y-95265000D03*
X118560000Y-96535000D03*
X117290000Y-95265000D03*
X117290000Y-96535000D03*
X116020000Y-95265000D03*
X116020000Y-96535000D03*
%TD*%
D14*
%TO.C,R1*%
X140330000Y-90200000D03*
X140970000Y-90200000D03*
%TD*%
D15*
%TO.C,C16*%
X146350000Y-91880000D03*
X146350000Y-92520000D03*
%TD*%
D16*
%TO.C,J5*%
X139850000Y-89410000D03*
X139850000Y-87590000D03*
X140200000Y-89410000D03*
X140200000Y-87590000D03*
X140550000Y-89410000D03*
X140550000Y-87590000D03*
D17*
X139475000Y-89265000D03*
X139475000Y-87735000D03*
X140925000Y-89265000D03*
X140925000Y-87735000D03*
%TD*%
D18*
%TO.C,J1*%
X143699999Y-89574999D03*
D19*
X142699999Y-88599999D03*
D20*
X143699999Y-87574999D03*
D19*
X144699999Y-88599999D03*
%TD*%
D21*
%TO.C,R15*%
X139420000Y-91100000D03*
X138780000Y-91100000D03*
%TD*%
D15*
%TO.C,R12*%
X141850000Y-90330000D03*
X141850000Y-90970000D03*
%TD*%
D22*
%TO.C,C18*%
X145450000Y-91520000D03*
X145450000Y-92480000D03*
%TD*%
D23*
%TO.C,C7*%
X135400000Y-91165000D03*
X135400000Y-90525000D03*
%TD*%
D24*
%TO.C,U5*%
X140400000Y-91800000D03*
X140400000Y-91400000D03*
X140400000Y-91000000D03*
X140800000Y-91800000D03*
X140800000Y-91400000D03*
X140800000Y-91000000D03*
%TD*%
D25*
%TO.C,U3*%
X143075000Y-92330000D03*
D26*
X143725000Y-92330000D03*
D27*
X143075000Y-91470000D03*
D28*
X143725000Y-91470000D03*
D29*
X143399999Y-91899999D03*
%TD*%
D15*
%TO.C,C20*%
X148750000Y-91830000D03*
X148750000Y-92470000D03*
%TD*%
D23*
%TO.C,R5*%
X135400000Y-92565000D03*
X135400000Y-91925000D03*
%TD*%
D15*
%TO.C,C17*%
X147050000Y-91880000D03*
X147050000Y-92520000D03*
%TD*%
D21*
%TO.C,R11*%
X141120000Y-92600000D03*
X140480000Y-92600000D03*
%TD*%
D30*
%TO.C,U2*%
X136450000Y-92575000D03*
X137100000Y-92575000D03*
X137750000Y-92575000D03*
X137750000Y-90625000D03*
X137100000Y-90625000D03*
X136450000Y-90625000D03*
D31*
X137100000Y-91600000D03*
%TD*%
D23*
%TO.C,C25*%
X139650000Y-92570000D03*
X139650000Y-91930000D03*
%TD*%
D15*
%TO.C,R14*%
X138800000Y-91880000D03*
X138800000Y-92520000D03*
%TD*%
D21*
%TO.C,L4*%
X147920000Y-91000000D03*
X147280000Y-91000000D03*
%TD*%
D15*
%TO.C,C19*%
X148000000Y-91830000D03*
X148000000Y-92470000D03*
%TD*%
D14*
%TO.C,C4*%
X143080000Y-90600000D03*
X143720000Y-90600000D03*
%TD*%
D32*
%TO.C,J2*%
X135999999Y-98024999D03*
D33*
X136299999Y-93599999D03*
D32*
X136599999Y-98024999D03*
D33*
X136899999Y-93599999D03*
D32*
X137199999Y-98024999D03*
D33*
X137499999Y-93599999D03*
D32*
X137799999Y-98024999D03*
D33*
X138099999Y-93599999D03*
D32*
X138399999Y-98024999D03*
D33*
X138699999Y-93599999D03*
D32*
X138999999Y-98024999D03*
D33*
X139299999Y-93599999D03*
D32*
X139599999Y-98024999D03*
D33*
X139899999Y-93599999D03*
D32*
X140199999Y-98024999D03*
D33*
X140499999Y-93599999D03*
D32*
X140799999Y-98024999D03*
D33*
X141099999Y-93599999D03*
D32*
X141399999Y-98024999D03*
D33*
X141699999Y-93599999D03*
D32*
X141999999Y-98024999D03*
D33*
X142299999Y-93599999D03*
D32*
X142599999Y-98024999D03*
D33*
X142899999Y-93599999D03*
D32*
X143199999Y-98024999D03*
D33*
X143499999Y-93599999D03*
D32*
X143799999Y-98024999D03*
D33*
X144099999Y-93599999D03*
D32*
X144399999Y-98024999D03*
D33*
X144699999Y-93599999D03*
D32*
X144999999Y-98024999D03*
D33*
X145299999Y-93599999D03*
D32*
X145599999Y-98024999D03*
D33*
X145899999Y-93599999D03*
D32*
X146199999Y-98024999D03*
D33*
X146499999Y-93599999D03*
D32*
X146799999Y-98024999D03*
D33*
X147099999Y-93599999D03*
D32*
X147399999Y-98024999D03*
D33*
X147699999Y-93599999D03*
D32*
X147999999Y-98024999D03*
D33*
X148299999Y-93599999D03*
D32*
X148599999Y-98024999D03*
D33*
X148899999Y-93599999D03*
D32*
X149199999Y-98024999D03*
%TD*%
D34*
%TO.C,TP1*%
X136600000Y-88500000D03*
%TD*%
D35*
%TO.C,C21*%
X148820000Y-90700000D03*
X149780000Y-90700000D03*
%TD*%
D21*
%TO.C,R10*%
X146320000Y-90600000D03*
X145680000Y-90600000D03*
%TD*%
D36*
%TO.C,J3*%
X123080000Y-76447500D03*
D37*
X123080000Y-78987500D03*
X120540000Y-76447500D03*
X120540000Y-78987500D03*
X118000000Y-76447500D03*
X118000000Y-78987500D03*
X115460000Y-76447500D03*
X115460000Y-78987500D03*
X112920000Y-76447500D03*
X112920000Y-78987500D03*
%TD*%
D15*
%TO.C,R13*%
X141850000Y-91830000D03*
X141850000Y-92470000D03*
%TD*%
D14*
%TO.C,R2*%
X138780000Y-90200000D03*
X139420000Y-90200000D03*
%TD*%
D38*
%TO.C,D1*%
X149600000Y-91700000D03*
X149600000Y-92600000D03*
%TD*%
D34*
%TO.C,TP2*%
X148600000Y-88500000D03*
%TD*%
M02*
