M48
; DRILL file {KiCad (7.0.0)} date Thu Jul 20 12:08:19 2023
; FORMAT={-:-/ absolute / inch / decimal}
; #@! TF.CreationDate,2023-07-20T12:08:19-04:00
; #@! TF.GenerationSoftware,Kicad,Pcbnew,(7.0.0)
; #@! TF.FileFunction,Plated,1,4,PTH
FMAT,2
INCH
; #@! TA.AperFunction,Plated,PTH,ViaDrill
T1C0.0059
; #@! TA.AperFunction,Plated,PTH,ViaDrill
T2C0.0079
; #@! TA.AperFunction,Plated,PTH,ComponentDrill
T3C0.0394
; #@! TA.AperFunction,Plated,PTH,ComponentDrill
T4C0.0472
%
G90
G05
T1
X5.314Y-3.6201
X5.3349Y-3.7259
X5.3393Y-3.693
X5.343Y-3.6043
X5.387Y-3.6157
X5.3878Y-3.7259
X5.4235Y-3.5486
X5.4347Y-3.6189
X5.4362Y-3.452
X5.4454Y-3.5608
X5.4636Y-3.6173
X5.4638Y-3.7016
X5.4724Y-3.8248
X5.4734Y-3.6612
X5.4766Y-3.5449
X5.4912Y-3.4541
X5.4912Y-3.5144
X5.4966Y-3.6624
X5.5059Y-3.4272
X5.5129Y-3.5788
X5.5149Y-3.6212
X5.5197Y-3.4272
X5.5305Y-3.8277
X5.5354Y-3.7047
X5.5433Y-3.5758
X5.5453Y-3.8268
X5.5539Y-3.6624
X5.5551Y-3.6063
X5.5594Y-3.7177
X5.561Y-3.5472
X5.561Y-3.5768
X5.5709Y-3.749
X5.5735Y-3.6342
X5.5841Y-3.7057
X5.5906Y-3.8307
X5.5925Y-3.7165
X5.5992Y-3.5462
X5.6022Y-3.8171
X5.6024Y-3.7047
X5.6043Y-3.6316
X5.6063Y-3.7638
X5.608Y-3.6572
X5.6083Y-3.6161
X5.6093Y-3.5555
X5.6154Y-3.8323
X5.6218Y-3.6514
X5.626Y-3.685
X5.626Y-3.7579
X5.6418Y-3.6216
X5.6531Y-3.7992
X5.6582Y-3.7774
X5.6614Y-3.5266
X5.6713Y-3.7106
X5.6769Y-3.8113
X5.6797Y-3.6979
X5.6803Y-3.5531
X5.6811Y-3.7618
X5.688Y-3.6811
X5.6895Y-3.8258
X5.7024Y-3.8161
X5.7039Y-3.5539
X5.7067Y-3.8295
X5.7075Y-3.7905
X5.7213Y-3.5189
X5.7252Y-3.8464
X5.728Y-3.7813
X5.7303Y-3.7283
X5.7394Y-3.7909
X5.7461Y-3.5472
X5.7461Y-3.7283
X5.7553Y-3.8719
X5.7638Y-3.5453
X5.7655Y-3.6173
X5.7657Y-3.5098
X5.7795Y-3.5453
X5.7825Y-3.5669
X5.7831Y-3.4744
X5.7854Y-3.5138
X5.7882Y-3.7925
X5.8031Y-3.5256
X5.8076Y-3.7146
X5.8154Y-3.7929
X5.8272Y-3.6181
X5.8307Y-3.5433
X5.8402Y-3.7406
X5.8417Y-3.6506
X5.8484Y-3.7953
X5.8575Y-3.548
X5.8583Y-3.6595
X5.8622Y-3.6846
X5.872Y-3.6319
X5.8721Y-3.6595
X5.874Y-3.7303
X5.874Y-3.7697
X5.874Y-3.7894
X5.8752Y-3.752
X5.876Y-3.6909
X5.8766Y-3.7081
X5.8775Y-3.5918
X5.8776Y-3.5602
X5.8858Y-3.624
X5.9016Y-3.8406
X5.9083Y-3.5142
T2
X4.0591Y-4.8071
X4.0906Y-3.3386
X4.1209Y-3.0555
X4.1516Y-2.7744
X4.1913Y-3.6744
X4.2031Y-4.4413
X4.2362Y-4.1142
X4.5102Y-3.4157
X4.6268Y-2.7531
X4.6457Y-3.8323
X4.7323Y-3.738
X4.8504Y-3.622
X4.8508Y-3.7843
X4.9874Y-2.8247
X5.0551Y-3.9764
X5.1039Y-4.3425
X5.1339Y-3.2925
X5.3209Y-3.8543
X5.3213Y-3.7512
X5.3224Y-3.7917
X5.3228Y-3.5346
X5.3228Y-3.8268
X5.3303Y-3.8783
X5.3402Y-2.8976
X5.35Y-3.548
X5.3508Y-3.6657
X5.3524Y-3.6374
X5.3606Y-3.7217
X5.3641Y-3.5946
X5.3744Y-3.8357
X5.3771Y-3.6622
X5.3902Y-3.1594
X5.391Y-3.6547
X5.4024Y-3.8209
X5.4059Y-3.7638
X5.4087Y-4.2012
X5.411Y-3.4236
X5.4123Y-3.5808
X5.4126Y-3.798
X5.413Y-3.7012
X5.4169Y-3.5992
X5.4169Y-3.6189
X5.4169Y-3.6386
X5.4277Y-3.8214
X5.4305Y-3.6667
X5.4331Y-3.5374
X5.4461Y-3.8028
X5.4504Y-3.8256
X5.4512Y-3.7681
X5.4618Y-3.5894
X5.472Y-3.7988
X5.4736Y-3.7669
X5.4752Y-3.4189
X5.5224Y-3.8114
X5.5305Y-3.6598
X5.5312Y-3.7607
X5.5315Y-3.7894
X5.5531Y-3.4252
X5.6167Y-3.5862
X5.6299Y-3.4409
X5.639Y-3.7799
X5.6506Y-3.685
X5.6614Y-3.4232
X5.6815Y-3.5965
X5.6857Y-3.2023
X5.6925Y-3.8622
X5.6969Y-3.4429
X5.7008Y-3.637
X5.7165Y-2.8465
X5.7192Y-3.0764
X5.722Y-3.6874
X5.7311Y-3.4315
X5.7406Y-3.5276
X5.7528Y-3.7677
X5.7677Y-3.685
X5.785Y-3.428
X5.787Y-3.7654
X5.8071Y-3.6496
X5.8102Y-3.7654
X5.815Y-3.6791
X5.8327Y-3.8453
X5.8937Y-3.5394
X5.8996Y-3.874
X5.9055Y-3.8091
X5.926Y-3.1571
X6.0138Y-4.2102
X6.0709Y-3.9961
X6.1224Y-3.7681
X6.1339Y-3.4449
X6.1535Y-4.7992
X6.1693Y-2.7205
T3
X4.4457Y-3.0097
X4.4457Y-3.1097
X4.5457Y-3.0097
X4.5457Y-3.1097
X4.6457Y-3.0097
X4.6457Y-3.1097
X4.7457Y-3.0097
X4.7457Y-3.1097
X4.8457Y-3.0097
X4.8457Y-3.1097
T4
X5.378Y-3.4843
X5.8504Y-3.4843
T0
M30
