%TF.GenerationSoftware,KiCad,Pcbnew,(7.0.0)*%
%TF.CreationDate,2023-07-14T15:59:44-04:00*%
%TF.ProjectId,headstage-neuropix1e,68656164-7374-4616-9765-2d6e6575726f,A*%
%TF.SameCoordinates,Original*%
%TF.FileFunction,Copper,L3,Inr*%
%TF.FilePolarity,Positive*%
%FSLAX46Y46*%
G04 Gerber Fmt 4.6, Leading zero omitted, Abs format (unit mm)*
G04 Created by KiCad (PCBNEW (7.0.0)) date 2023-07-14 15:59:44*
%MOMM*%
%LPD*%
G01*
G04 APERTURE LIST*
G04 Aperture macros list*
%AMRoundRect*
0 Rectangle with rounded corners*
0 $1 Rounding radius*
0 $2 $3 $4 $5 $6 $7 $8 $9 X,Y pos of 4 corners*
0 Add a 4 corners polygon primitive as box body*
4,1,4,$2,$3,$4,$5,$6,$7,$8,$9,$2,$3,0*
0 Add four circle primitives for the rounded corners*
1,1,$1+$1,$2,$3*
1,1,$1+$1,$4,$5*
1,1,$1+$1,$6,$7*
1,1,$1+$1,$8,$9*
0 Add four rect primitives between the rounded corners*
20,1,$1+$1,$2,$3,$4,$5,0*
20,1,$1+$1,$4,$5,$6,$7,0*
20,1,$1+$1,$6,$7,$8,$9,0*
20,1,$1+$1,$8,$9,$2,$3,0*%
G04 Aperture macros list end*
%TA.AperFunction,ComponentPad*%
%ADD10C,2.500000*%
%TD*%
%TA.AperFunction,ComponentPad*%
%ADD11RoundRect,0.250000X-0.600000X0.600000X-0.600000X-0.600000X0.600000X-0.600000X0.600000X0.600000X0*%
%TD*%
%TA.AperFunction,ComponentPad*%
%ADD12C,1.700000*%
%TD*%
%TA.AperFunction,ViaPad*%
%ADD13C,0.250000*%
%TD*%
%TA.AperFunction,ViaPad*%
%ADD14C,0.300000*%
%TD*%
%TA.AperFunction,Conductor*%
%ADD15C,0.100000*%
%TD*%
%TA.AperFunction,Conductor*%
%ADD16C,0.200000*%
%TD*%
G04 APERTURE END LIST*
D10*
%TO.N,GND*%
%TO.C,TP1*%
X136600000Y-88500000D03*
%TD*%
D11*
%TO.N,+4V*%
%TO.C,J3*%
X123080000Y-76447500D03*
D12*
X123080000Y-78987500D03*
%TO.N,/Neuropixels 1.0/SCL*%
X120540000Y-76447500D03*
X120540000Y-78987500D03*
%TO.N,/Neuropixels 1.0/SDA*%
X118000000Y-76447500D03*
X118000000Y-78987500D03*
%TO.N,GND*%
X115460000Y-76447500D03*
X115460000Y-78987500D03*
X112920000Y-76447500D03*
X112920000Y-78987500D03*
%TD*%
D10*
%TO.N,GND*%
%TO.C,TP2*%
X148600000Y-88500000D03*
%TD*%
D13*
%TO.N,/Neuropixels 1.0/D0*%
X144950000Y-97270000D03*
D14*
%TO.N,GND*%
X145340000Y-93660000D03*
D13*
X144840000Y-96930000D03*
X143590000Y-96500000D03*
%TO.N,+1V8*%
X135150500Y-93600000D03*
D14*
%TO.N,GND*%
X146990000Y-95640000D03*
D13*
X138560000Y-97170000D03*
D14*
X104670000Y-77610000D03*
X152750000Y-106940000D03*
X144416061Y-81338202D03*
X130400000Y-83630000D03*
X135160000Y-95280000D03*
D13*
X147512132Y-94349665D03*
D14*
X156300000Y-121900000D03*
D13*
X141834896Y-94124533D03*
D14*
X140600000Y-95600000D03*
X144590000Y-98100500D03*
X140500000Y-96250000D03*
X129640000Y-110300000D03*
X135910000Y-93110000D03*
X144350000Y-92150000D03*
X144800000Y-92380500D03*
X137500000Y-95710000D03*
D13*
X148340000Y-95010000D03*
D14*
X135580000Y-98500000D03*
X106460000Y-93330000D03*
X137380000Y-106710000D03*
D13*
X144880000Y-90270000D03*
D14*
X144700000Y-87450000D03*
X135640000Y-73600000D03*
X135200000Y-97200000D03*
D13*
X146950000Y-89250000D03*
X147020000Y-96330000D03*
X140079116Y-91978997D03*
D14*
X141050000Y-87000000D03*
D13*
X136500000Y-91650000D03*
X137705543Y-91735543D03*
D14*
X146500000Y-93600000D03*
D13*
X142400000Y-95600000D03*
X148900000Y-93590000D03*
D14*
X150520000Y-80190000D03*
D13*
X145950000Y-94700000D03*
X146450000Y-89150000D03*
D14*
X138000000Y-89850000D03*
D13*
X139971612Y-92971466D03*
D14*
X150000000Y-96750000D03*
X155510000Y-95710000D03*
X106760000Y-112810000D03*
X149850000Y-98400000D03*
D13*
X147710000Y-96340000D03*
D14*
X147700000Y-93450000D03*
X147580000Y-95640000D03*
D13*
X142900000Y-95450000D03*
X141568020Y-92308292D03*
X142630000Y-97340000D03*
D14*
X136080000Y-94520000D03*
X126680000Y-71747500D03*
X135200000Y-89780000D03*
X156700000Y-69100000D03*
X155800000Y-87500000D03*
D13*
X148800000Y-92950500D03*
X137000000Y-91550000D03*
X146800000Y-90050000D03*
D14*
X139950000Y-97000000D03*
X143000000Y-87400000D03*
X146120000Y-95699500D03*
D13*
X142444101Y-92894101D03*
X145950000Y-90100000D03*
X145320000Y-89380000D03*
X145780000Y-96290000D03*
D14*
X135890000Y-90120000D03*
D13*
X148100000Y-90000000D03*
D14*
X139050000Y-96510000D03*
X107600000Y-104500000D03*
X148150000Y-97670000D03*
X146940000Y-87070000D03*
X103100000Y-122100000D03*
X145266637Y-78141210D03*
X149700000Y-89900000D03*
X143524500Y-93600000D03*
D13*
X146400000Y-90050000D03*
D14*
X137470000Y-97000000D03*
X136910000Y-80250000D03*
D13*
X141070000Y-93025498D03*
D14*
X145570000Y-87160000D03*
D13*
X144280000Y-90250000D03*
D14*
X105450000Y-70470000D03*
X137520000Y-96370000D03*
X143800000Y-86950000D03*
X117520000Y-69930000D03*
D13*
X141210000Y-94430000D03*
D14*
X145200000Y-72300000D03*
X154200000Y-101500000D03*
X135190000Y-96310000D03*
D13*
X141100000Y-91600000D03*
D14*
X103900000Y-84800000D03*
D13*
X147400000Y-89550000D03*
D14*
X128400000Y-101000000D03*
X143230000Y-96010000D03*
D13*
X136850000Y-94637500D03*
D14*
X139210000Y-95770000D03*
X114560000Y-86760000D03*
X137490000Y-94010000D03*
X138150000Y-87100000D03*
%TO.N,+1V8*%
X135150000Y-97900000D03*
X140400000Y-93000500D03*
X142662961Y-91089404D03*
%TO.N,+1.2VA*%
X137800000Y-93000000D03*
X138100000Y-97150000D03*
D13*
%TO.N,Net-(D1-K)*%
X149500500Y-92050000D03*
X148780000Y-90120000D03*
%TO.N,Net-(U2-EN2)*%
X137750000Y-90700000D03*
X135400000Y-91600000D03*
%TO.N,+4V*%
X141200000Y-91250000D03*
D14*
X120200000Y-94945000D03*
D13*
X139842554Y-91298776D03*
%TO.N,/Neuropixels 1.0/CAL_SIGNAL*%
X138750000Y-91900000D03*
X139000000Y-97150000D03*
%TO.N,/DC Tap & Regulation/VA_{EN}*%
X142793180Y-92745908D03*
X141500000Y-95223498D03*
X140473576Y-97223576D03*
%TO.N,/Neuropixels 1.0/NP_{~{MUXRST}}*%
X148378692Y-92725500D03*
X140600000Y-94100000D03*
%TO.N,/Neuropixels 1.0/SDA*%
X142476943Y-90310000D03*
X141250000Y-90099500D03*
D14*
X123200000Y-92000000D03*
D13*
X140850000Y-97200000D03*
X142050000Y-94400000D03*
D14*
X123210000Y-96120000D03*
%TO.N,/Neuropixels 1.0/SCL*%
X118000000Y-97340000D03*
D13*
X145550000Y-94700000D03*
X142218903Y-90074274D03*
X142450000Y-91850000D03*
X139300000Y-90050500D03*
%TO.N,/Neuropixels 1.0/SYNC*%
X145490000Y-96044500D03*
X142000000Y-97300000D03*
%TO.N,/Neuropixels 1.0/D6*%
X149230000Y-95300000D03*
X142300000Y-94100000D03*
%TO.N,/Neuropixels 1.0/D5*%
X142900000Y-93600000D03*
X149200000Y-94750000D03*
%TO.N,/Neuropixels 1.0/D4*%
X143717370Y-95945500D03*
X149200000Y-95750000D03*
%TO.N,/Neuropixels 1.0/D3*%
X144193189Y-96808263D03*
X149200000Y-96250000D03*
%TO.N,/Neuropixels 1.0/D2*%
X144264551Y-93925449D03*
X149265000Y-94185000D03*
%TO.N,/Neuropixels 1.0/D1*%
X149249502Y-93750000D03*
X144474502Y-93500000D03*
%TO.N,/Neuropixels 1.0/D0*%
X148550000Y-96400000D03*
%TO.N,/Perpherials/GPIO0*%
X139850000Y-87050000D03*
X149150000Y-92250000D03*
%TO.N,/Perpherials/GPIO1*%
X149288276Y-91232529D03*
X140200000Y-87050000D03*
%TO.N,Net-(R12-Pad1)*%
X140026596Y-90901397D03*
X138900000Y-92900000D03*
D14*
%TO.N,+1.8VA*%
X136450000Y-92950000D03*
X136509592Y-97495740D03*
X147500000Y-92700500D03*
X138300500Y-90750000D03*
D13*
X139850500Y-90599500D03*
%TO.N,Net-(U4-GPIO3{slash}CLKIN)*%
X149151002Y-92950500D03*
X149312724Y-90439717D03*
%TO.N,/Neuropixels 1.0/DCLK*%
X144970177Y-96278055D03*
X145420000Y-97699500D03*
%TD*%
D15*
%TO.N,/Neuropixels 1.0/D0*%
X145060000Y-97160000D02*
X144950000Y-97270000D01*
X149109750Y-98170250D02*
X146919750Y-98170250D01*
X149540000Y-96980000D02*
X149540000Y-97740000D01*
X149540000Y-97740000D02*
X149109750Y-98170250D01*
X149260000Y-96700000D02*
X149540000Y-96980000D01*
X145909500Y-97160000D02*
X145060000Y-97160000D01*
X148850000Y-96700000D02*
X149260000Y-96700000D01*
X148550000Y-96400000D02*
X148850000Y-96700000D01*
X146919750Y-98170250D02*
X145909500Y-97160000D01*
%TO.N,/Neuropixels 1.0/DCLK*%
X143490000Y-97790000D02*
X142880000Y-98400000D01*
X142880000Y-98400000D02*
X142610000Y-98400000D01*
X145329500Y-97790000D02*
X143490000Y-97790000D01*
X145420000Y-97699500D02*
X145329500Y-97790000D01*
%TO.N,/Neuropixels 1.0/D4*%
X147950000Y-95750000D02*
X149200000Y-95750000D01*
X147700500Y-95999500D02*
X147950000Y-95750000D01*
X144609500Y-95830000D02*
X144670000Y-95769500D01*
X144670000Y-95769500D02*
X145765736Y-95769500D01*
X145995735Y-95999500D02*
X147700500Y-95999500D01*
X144220000Y-95950000D02*
X144340000Y-95830000D01*
X144340000Y-95830000D02*
X144609500Y-95830000D01*
X143721870Y-95950000D02*
X144220000Y-95950000D01*
X145765736Y-95769500D02*
X145995735Y-95999500D01*
X143717370Y-95945500D02*
X143721870Y-95950000D01*
%TO.N,/Neuropixels 1.0/SYNC*%
X145445500Y-96000000D02*
X145490000Y-96044500D01*
X144850000Y-96000000D02*
X145445500Y-96000000D01*
X144490000Y-96030000D02*
X144820000Y-96030000D01*
X143125001Y-96545000D02*
X143450001Y-96220000D01*
X142245000Y-96545000D02*
X143125001Y-96545000D01*
X143450001Y-96220000D02*
X144300000Y-96220000D01*
X144820000Y-96030000D02*
X144850000Y-96000000D01*
X142000000Y-97300000D02*
X142000000Y-96790000D01*
X142000000Y-96790000D02*
X142245000Y-96545000D01*
X144300000Y-96220000D02*
X144490000Y-96030000D01*
%TO.N,/Neuropixels 1.0/D1*%
X149600000Y-93750000D02*
X149249502Y-93750000D01*
X149725000Y-93625000D02*
X149600000Y-93750000D01*
X149725000Y-93325000D02*
X149725000Y-93625000D01*
X149660000Y-93260000D02*
X149725000Y-93325000D01*
X148690000Y-93260000D02*
X149660000Y-93260000D01*
X147600000Y-93850000D02*
X148100000Y-93850000D01*
X146495000Y-94195000D02*
X147255000Y-94195000D01*
X144250000Y-93150000D02*
X145450000Y-93150000D01*
X144150000Y-93250000D02*
X144250000Y-93150000D01*
X147255000Y-94195000D02*
X147600000Y-93850000D01*
X144250000Y-93500000D02*
X144150000Y-93400000D01*
X144450000Y-93500000D02*
X144250000Y-93500000D01*
X148100000Y-93850000D02*
X148690000Y-93260000D01*
X145450000Y-93150000D02*
X146495000Y-94195000D01*
X144150000Y-93400000D02*
X144150000Y-93250000D01*
%TO.N,/Neuropixels 1.0/D5*%
X149305000Y-94855000D02*
X149305000Y-94945000D01*
X149200000Y-94750000D02*
X149305000Y-94855000D01*
X149250000Y-95000000D02*
X149305000Y-94945000D01*
%TO.N,/Neuropixels 1.0/D2*%
X149865000Y-94695000D02*
X149695000Y-94695000D01*
X149950000Y-94610000D02*
X149865000Y-94695000D01*
X149475000Y-94475000D02*
X149695000Y-94695000D01*
X149950000Y-94350000D02*
X149950000Y-94610000D01*
X149300000Y-94150000D02*
X149265000Y-94185000D01*
X149750000Y-94150000D02*
X149300000Y-94150000D01*
X149950000Y-94350000D02*
X149750000Y-94150000D01*
X148600000Y-94150000D02*
X148925000Y-94475000D01*
X145775500Y-94000500D02*
X146575000Y-94800000D01*
X144339602Y-94000500D02*
X145775500Y-94000500D01*
X148100000Y-94150000D02*
X148600000Y-94150000D01*
X144264551Y-93925449D02*
X144339602Y-94000500D01*
X146575000Y-94800000D02*
X147450000Y-94800000D01*
X147450000Y-94800000D02*
X148100000Y-94150000D01*
X148925000Y-94475000D02*
X149475000Y-94475000D01*
%TO.N,Net-(R12-Pad1)*%
X138900000Y-92480000D02*
X138900000Y-92900000D01*
X139115000Y-91285000D02*
X139115000Y-92265000D01*
X139904217Y-91023776D02*
X139376224Y-91023776D01*
X139115000Y-92265000D02*
X138900000Y-92480000D01*
X140026596Y-90901397D02*
X139904217Y-91023776D01*
X139376224Y-91023776D02*
X139115000Y-91285000D01*
%TO.N,/Neuropixels 1.0/SCL*%
X142218903Y-90074274D02*
X141934629Y-89790000D01*
X139560500Y-89790000D02*
X139300000Y-90050500D01*
X141934629Y-89790000D02*
X139560500Y-89790000D01*
%TO.N,/Neuropixels 1.0/SDA*%
X141349500Y-90099500D02*
X141250000Y-90099500D01*
X141600000Y-90350000D02*
X141349500Y-90099500D01*
X142436943Y-90350000D02*
X141600000Y-90350000D01*
X142476943Y-90310000D02*
X142436943Y-90350000D01*
%TO.N,/Perpherials/GPIO0*%
X148999500Y-92400500D02*
X149150000Y-92250000D01*
X147349500Y-92400500D02*
X148999500Y-92400500D01*
X147150000Y-92600000D02*
X147349500Y-92400500D01*
X146203554Y-92600000D02*
X147150000Y-92600000D01*
X143900000Y-91000000D02*
X144603554Y-91000000D01*
X142730000Y-90050000D02*
X142950000Y-90050000D01*
X144603554Y-91000000D02*
X146203554Y-92600000D01*
X140320000Y-89570000D02*
X142250000Y-89570000D01*
X142950000Y-90050000D02*
X143900000Y-91000000D01*
X139850000Y-89100000D02*
X140320000Y-89570000D01*
X139850000Y-87050000D02*
X139850000Y-89100000D01*
X142250000Y-89570000D02*
X142730000Y-90050000D01*
%TO.N,/Neuropixels 1.0/NP_{~{MUXRST}}*%
X142000000Y-92700000D02*
X140600000Y-94100000D01*
X142000000Y-91800000D02*
X142000000Y-92700000D01*
X142400000Y-91400000D02*
X142000000Y-91800000D01*
X143100000Y-91400000D02*
X142400000Y-91400000D01*
X144500000Y-92800000D02*
X143100000Y-91400000D01*
X145600000Y-92800000D02*
X144500000Y-92800000D01*
X147575735Y-93150000D02*
X147425735Y-93300000D01*
X146100000Y-93300000D02*
X145600000Y-92800000D01*
X148378692Y-92725500D02*
X148378692Y-92821308D01*
X148050000Y-93150000D02*
X147575735Y-93150000D01*
X148378692Y-92821308D02*
X148050000Y-93150000D01*
X147425735Y-93300000D02*
X146100000Y-93300000D01*
%TO.N,/Neuropixels 1.0/D3*%
X149050000Y-96100000D02*
X149200000Y-96250000D01*
X148150000Y-97200000D02*
X148150000Y-96300000D01*
X147850000Y-97500000D02*
X148150000Y-97200000D01*
X146900000Y-97500000D02*
X147850000Y-97500000D01*
X148150000Y-96300000D02*
X148350000Y-96100000D01*
X146030000Y-96630000D02*
X146900000Y-97500000D01*
X144371452Y-96630000D02*
X146030000Y-96630000D01*
X148350000Y-96100000D02*
X149050000Y-96100000D01*
X144193189Y-96808263D02*
X144371452Y-96630000D01*
%TO.N,/Neuropixels 1.0/DCLK*%
X144970177Y-96278055D02*
X144828232Y-96420000D01*
X144100000Y-96420000D02*
X143765327Y-96754673D01*
X144828232Y-96420000D02*
X144100000Y-96420000D01*
X143765327Y-96754673D02*
X143760000Y-96754673D01*
%TO.N,/Perpherials/GPIO1*%
X140200000Y-88900000D02*
X140200000Y-87050000D01*
X140650000Y-89350000D02*
X140200000Y-88900000D01*
X142440000Y-89350000D02*
X140650000Y-89350000D01*
X142890000Y-89800000D02*
X142440000Y-89350000D01*
X143100000Y-89800000D02*
X142890000Y-89800000D01*
X144850000Y-90750000D02*
X144050000Y-90750000D01*
X146450000Y-92350000D02*
X144850000Y-90750000D01*
X148729500Y-92200500D02*
X147199500Y-92200500D01*
X147199500Y-92200500D02*
X147050000Y-92350000D01*
X144050000Y-90750000D02*
X143100000Y-89800000D01*
X149288276Y-91641724D02*
X148729500Y-92200500D01*
X149288276Y-91232529D02*
X149288276Y-91641724D01*
X147050000Y-92350000D02*
X146450000Y-92350000D01*
D16*
%TO.N,+1.8VA*%
X139927062Y-90522938D02*
X139850500Y-90599500D01*
X141322938Y-90522938D02*
X139927062Y-90522938D01*
X141450000Y-90650000D02*
X141322938Y-90522938D01*
X143844779Y-91394779D02*
X143100000Y-90650000D01*
X143100000Y-90650000D02*
X141450000Y-90650000D01*
X144644779Y-91394779D02*
X143844779Y-91394779D01*
X146300000Y-93050000D02*
X144644779Y-91394779D01*
X147150500Y-93050000D02*
X146300000Y-93050000D01*
X147500000Y-92700500D02*
X147150500Y-93050000D01*
D15*
%TO.N,/Neuropixels 1.0/D5*%
X148850000Y-95000000D02*
X149250000Y-95000000D01*
X148070000Y-94680000D02*
X148530000Y-94680000D01*
X146295000Y-95070000D02*
X147680000Y-95070000D01*
X147680000Y-95070000D02*
X148070000Y-94680000D01*
X143650000Y-95000000D02*
X146225000Y-95000000D01*
X146225000Y-95000000D02*
X146295000Y-95070000D01*
X142900000Y-94250000D02*
X143650000Y-95000000D01*
X142900000Y-93600000D02*
X142900000Y-94250000D01*
X148530000Y-94680000D02*
X148850000Y-95000000D01*
D16*
%TO.N,+1V8*%
X142327288Y-91089404D02*
X142662961Y-91089404D01*
X141243020Y-92173672D02*
X142327288Y-91089404D01*
X140419500Y-93000500D02*
X141243020Y-92176980D01*
X140400000Y-93000500D02*
X140419500Y-93000500D01*
X141243020Y-92176980D02*
X141243020Y-92173672D01*
X138950000Y-97900000D02*
X135150000Y-97900000D01*
X139400000Y-97450000D02*
X138950000Y-97900000D01*
X139400000Y-96700000D02*
X139400000Y-97450000D01*
X139850000Y-96250000D02*
X139400000Y-96700000D01*
X140400000Y-93400000D02*
X139850000Y-93950000D01*
X140400000Y-93000500D02*
X140400000Y-93400000D01*
X139850000Y-93950000D02*
X139850000Y-96250000D01*
D15*
%TO.N,Net-(D1-K)*%
X149570000Y-91110000D02*
X149570000Y-91980500D01*
X149570000Y-91980500D02*
X149500500Y-92050000D01*
X148780000Y-90320000D02*
X149570000Y-91110000D01*
X148780000Y-90120000D02*
X148780000Y-90320000D01*
%TO.N,/Neuropixels 1.0/D6*%
X149150001Y-95300000D02*
X149230000Y-95300000D01*
%TO.N,/DC Tap & Regulation/VA_{EN}*%
X142793180Y-93006820D02*
X142793180Y-92745908D01*
X142620000Y-93180000D02*
X142793180Y-93006820D01*
X141500000Y-94050000D02*
X142370000Y-93180000D01*
X141500000Y-95223498D02*
X141500000Y-94050000D01*
X142370000Y-93180000D02*
X142620000Y-93180000D01*
D16*
%TO.N,+1.8VA*%
X137805000Y-92225000D02*
X137175000Y-92225000D01*
X138300500Y-91729500D02*
X137805000Y-92225000D01*
X137175000Y-92225000D02*
X136450000Y-92950000D01*
X138300500Y-90750000D02*
X138300500Y-91729500D01*
D15*
%TO.N,+1V8*%
X135150500Y-93600000D02*
X135500000Y-93949500D01*
X135500000Y-93949500D02*
X135500000Y-97550000D01*
X135500000Y-97550000D02*
X135150000Y-97900000D01*
D16*
%TO.N,+1.2VA*%
X138100000Y-93300000D02*
X137800000Y-93000000D01*
X138100000Y-97150000D02*
X138100000Y-93300000D01*
D15*
%TO.N,Net-(U2-EN2)*%
X137750000Y-90950000D02*
X137500000Y-91200000D01*
X135800000Y-91200000D02*
X135400000Y-91600000D01*
X137750000Y-90700000D02*
X137750000Y-90950000D01*
X137500000Y-91200000D02*
X135800000Y-91200000D01*
%TO.N,+4V*%
X139842554Y-91298776D02*
X139891330Y-91250000D01*
X139891330Y-91250000D02*
X141200000Y-91250000D01*
%TO.N,/Neuropixels 1.0/CAL_SIGNAL*%
X138550000Y-93600000D02*
X138630000Y-93680000D01*
X138750000Y-91900000D02*
X138550000Y-92100000D01*
X138550000Y-92100000D02*
X138550000Y-93600000D01*
X138630000Y-96780000D02*
X139000000Y-97150000D01*
X138630000Y-93680000D02*
X138630000Y-96780000D01*
%TO.N,/DC Tap & Regulation/VA_{EN}*%
X141500000Y-96050000D02*
X141500000Y-95223498D01*
X140473576Y-97076424D02*
X141500000Y-96050000D01*
X140473576Y-97223576D02*
X140473576Y-97076424D01*
%TO.N,/Neuropixels 1.0/SDA*%
X140850000Y-97200000D02*
X142100000Y-95950000D01*
D16*
X118000000Y-76447500D02*
X118000000Y-78987500D01*
X123210000Y-96120000D02*
X123240000Y-96120000D01*
D15*
X131900000Y-91500000D02*
X132585995Y-91500000D01*
D16*
X118000000Y-78987500D02*
X123200000Y-84187500D01*
X123240000Y-96120000D02*
X127860000Y-91500000D01*
D15*
X137200000Y-90800000D02*
X137575000Y-90425000D01*
X142100000Y-95950000D02*
X142100000Y-94450000D01*
X132585995Y-91500000D02*
X132658167Y-91427828D01*
X134022396Y-91427828D02*
X134094568Y-91500000D01*
D16*
X123200000Y-84187500D02*
X123200000Y-92000000D01*
D15*
X132658167Y-91427828D02*
X134022396Y-91427828D01*
X137575000Y-90425000D02*
X139525000Y-90425000D01*
X135000000Y-91500000D02*
X135700000Y-90800000D01*
X141250000Y-90099500D02*
X139850500Y-90099500D01*
D16*
X127860000Y-91500000D02*
X131900000Y-91500000D01*
D15*
X142100000Y-94450000D02*
X142050000Y-94400000D01*
X134094568Y-91500000D02*
X135000000Y-91500000D01*
X139525000Y-90425000D02*
X139850500Y-90099500D01*
X135700000Y-90800000D02*
X137200000Y-90800000D01*
%TO.N,/Neuropixels 1.0/SCL*%
X137300000Y-90200000D02*
X139150500Y-90200000D01*
X133829071Y-90800000D02*
X135300000Y-90800000D01*
D16*
X131900000Y-90600000D02*
X127100000Y-90600000D01*
D15*
X133802348Y-90826723D02*
X133829071Y-90800000D01*
X143225000Y-92575000D02*
X142500000Y-91850000D01*
X135300000Y-90800000D02*
X135600000Y-90500000D01*
D16*
X127100000Y-85547500D02*
X127100000Y-90600000D01*
D15*
X137000000Y-90500000D02*
X137300000Y-90200000D01*
X145550000Y-94700000D02*
X145375000Y-94525000D01*
D16*
X127100000Y-90600000D02*
X120860000Y-96840000D01*
X120540000Y-78987500D02*
X127100000Y-85547500D01*
D15*
X143225000Y-93825000D02*
X143225000Y-92575000D01*
D16*
X119200000Y-96840000D02*
X118700000Y-97340000D01*
X120860000Y-96840000D02*
X119200000Y-96840000D01*
X120540000Y-76447500D02*
X120540000Y-78987500D01*
D15*
X139150500Y-90200000D02*
X139300000Y-90050500D01*
X143925000Y-94525000D02*
X143225000Y-93825000D01*
X131900000Y-90600000D02*
X132200000Y-90600000D01*
X132426723Y-90826723D02*
X133802348Y-90826723D01*
X135600000Y-90500000D02*
X137000000Y-90500000D01*
X142500000Y-91850000D02*
X142450000Y-91850000D01*
X145375000Y-94525000D02*
X143925000Y-94525000D01*
X132200000Y-90600000D02*
X132426723Y-90826723D01*
D16*
X118000000Y-97340000D02*
X118700000Y-97340000D01*
D15*
%TO.N,/Neuropixels 1.0/D6*%
X142300000Y-94190000D02*
X142300000Y-94100000D01*
X142640000Y-94530000D02*
X143410000Y-95300000D01*
X143410000Y-95300000D02*
X145890000Y-95300000D01*
X142640000Y-94530000D02*
X142300000Y-94190000D01*
X147950000Y-95300000D02*
X149150001Y-95300000D01*
X147950000Y-95300000D02*
X145890000Y-95300000D01*
D16*
%TO.N,+1.8VA*%
X136450000Y-93290000D02*
X136200000Y-93540000D01*
X139850500Y-90599500D02*
X139700000Y-90750000D01*
X139700000Y-90750000D02*
X138300500Y-90750000D01*
X136509592Y-94249592D02*
X136509592Y-97495740D01*
X136200000Y-93940000D02*
X136509592Y-94249592D01*
X136450000Y-92950000D02*
X136450000Y-93290000D01*
X136200000Y-93540000D02*
X136200000Y-93940000D01*
D15*
%TO.N,Net-(U4-GPIO3{slash}CLKIN)*%
X149900000Y-91026993D02*
X149312724Y-90439717D01*
X149900000Y-92201502D02*
X149900000Y-91026993D01*
X149151002Y-92950500D02*
X149900000Y-92201502D01*
%TO.N,/Neuropixels 1.0/DCLK*%
X142745000Y-97705000D02*
X142050000Y-97705000D01*
X141810000Y-98240000D02*
X141970000Y-98400000D01*
X143695827Y-96754173D02*
X142745000Y-97705000D01*
X141970000Y-98400000D02*
X142610000Y-98400000D01*
X142050000Y-97705000D02*
X141810000Y-97945000D01*
X141810000Y-97945000D02*
X141810000Y-98240000D01*
X143740000Y-96754173D02*
X143695827Y-96754173D01*
%TD*%
%TA.AperFunction,Conductor*%
%TO.N,GND*%
G36*
X144230948Y-86601669D02*
G01*
X144301223Y-86620500D01*
X144314618Y-86620500D01*
X144350000Y-86620500D01*
X144382288Y-86620500D01*
X148567712Y-86620500D01*
X148598397Y-86620500D01*
X148601602Y-86620605D01*
X148842126Y-86636369D01*
X148848474Y-86637205D01*
X149083293Y-86683914D01*
X149089485Y-86685572D01*
X149316217Y-86762537D01*
X149322130Y-86764986D01*
X149536878Y-86870889D01*
X149542413Y-86874084D01*
X149674009Y-86962014D01*
X149741497Y-87007108D01*
X149746582Y-87011010D01*
X149926592Y-87168875D01*
X149931124Y-87173407D01*
X150088989Y-87353417D01*
X150092891Y-87358502D01*
X150192475Y-87507540D01*
X150225910Y-87557578D01*
X150229113Y-87563126D01*
X150246597Y-87598579D01*
X150335011Y-87777865D01*
X150337464Y-87783787D01*
X150414427Y-88010515D01*
X150416085Y-88016706D01*
X150462793Y-88251522D01*
X150463630Y-88257876D01*
X150479395Y-88498398D01*
X150479500Y-88501603D01*
X150479500Y-90267712D01*
X150479500Y-90300000D01*
X150479500Y-90398031D01*
X150479870Y-90400134D01*
X150479871Y-90400136D01*
X150489256Y-90453360D01*
X150490000Y-90461869D01*
X150490000Y-92958131D01*
X150489256Y-92966640D01*
X150480703Y-93015148D01*
X150479500Y-93021969D01*
X150479500Y-93024110D01*
X150479500Y-98830500D01*
X150465148Y-98865148D01*
X150430500Y-98879500D01*
X144052288Y-98879500D01*
X144020000Y-98879500D01*
X143921969Y-98879500D01*
X143919866Y-98879870D01*
X143919863Y-98879871D01*
X143809928Y-98899256D01*
X143801419Y-98900000D01*
X140218581Y-98900000D01*
X140210072Y-98899256D01*
X140100136Y-98879871D01*
X140100134Y-98879870D01*
X140098031Y-98879500D01*
X140095890Y-98879500D01*
X134769500Y-98879500D01*
X134734852Y-98865148D01*
X134720500Y-98830500D01*
X134720500Y-92504110D01*
X134720500Y-92501969D01*
X134720166Y-92500079D01*
X134720000Y-92496251D01*
X134720000Y-91699500D01*
X134734352Y-91664852D01*
X134769000Y-91650500D01*
X135033876Y-91650500D01*
X135040327Y-91650500D01*
X135052505Y-91643467D01*
X135064321Y-91638573D01*
X135077904Y-91634935D01*
X135086685Y-91626154D01*
X135095762Y-91617078D01*
X135127205Y-91602831D01*
X135160239Y-91612852D01*
X135178468Y-91642167D01*
X135186639Y-91683248D01*
X135186642Y-91683255D01*
X135187583Y-91687986D01*
X135211048Y-91723104D01*
X135233605Y-91756864D01*
X135237423Y-91762577D01*
X135312014Y-91812417D01*
X135400000Y-91829918D01*
X135487986Y-91812417D01*
X135562577Y-91762577D01*
X135612417Y-91687986D01*
X135629918Y-91600000D01*
X135629860Y-91599713D01*
X135632704Y-91585410D01*
X135643325Y-91569512D01*
X135847986Y-91364852D01*
X135882635Y-91350500D01*
X137533876Y-91350500D01*
X137540327Y-91350500D01*
X137552505Y-91343467D01*
X137564321Y-91338573D01*
X137577904Y-91334935D01*
X137634935Y-91277905D01*
X137634935Y-91277903D01*
X137870430Y-91042409D01*
X137870429Y-91042409D01*
X137884935Y-91027904D01*
X137888573Y-91014321D01*
X137893467Y-91002505D01*
X137900500Y-90990327D01*
X137900500Y-90909674D01*
X137900500Y-90893619D01*
X137913188Y-90862985D01*
X137912577Y-90862577D01*
X137912577Y-90862576D01*
X137962417Y-90787986D01*
X137962667Y-90786727D01*
X137981306Y-90765117D01*
X138011300Y-90758380D01*
X138039405Y-90770837D01*
X138054557Y-90797584D01*
X138064534Y-90847740D01*
X138067216Y-90851754D01*
X138091742Y-90888461D01*
X138100000Y-90915683D01*
X138100000Y-91626154D01*
X138085648Y-91660802D01*
X137736303Y-92010148D01*
X137720407Y-92020770D01*
X137701655Y-92024500D01*
X137217388Y-92024500D01*
X137208728Y-92023028D01*
X137208723Y-92023080D01*
X137203238Y-92022461D01*
X137198026Y-92020638D01*
X137192539Y-92021256D01*
X137166478Y-92024192D01*
X137160993Y-92024500D01*
X137152410Y-92024500D01*
X137149734Y-92025110D01*
X137149721Y-92025112D01*
X137144038Y-92026409D01*
X137138631Y-92027328D01*
X137112561Y-92030265D01*
X137112556Y-92030266D01*
X137107076Y-92030884D01*
X137102402Y-92033820D01*
X137097191Y-92035644D01*
X137097174Y-92035597D01*
X137096103Y-92036041D01*
X137096125Y-92036086D01*
X137091150Y-92038481D01*
X137085769Y-92039710D01*
X137081453Y-92043151D01*
X137081450Y-92043153D01*
X137060947Y-92059503D01*
X137056476Y-92062676D01*
X137051529Y-92065785D01*
X137051519Y-92065792D01*
X137049199Y-92067251D01*
X137047260Y-92069189D01*
X137047257Y-92069192D01*
X137043126Y-92073323D01*
X137039036Y-92076977D01*
X137018528Y-92093333D01*
X137018526Y-92093335D01*
X137014212Y-92096776D01*
X137011817Y-92101747D01*
X137008375Y-92106064D01*
X137008335Y-92106032D01*
X137003250Y-92113198D01*
X136425381Y-92691068D01*
X136400294Y-92704478D01*
X136356992Y-92713092D01*
X136356988Y-92713093D01*
X136352260Y-92714034D01*
X136348250Y-92716712D01*
X136348248Y-92716714D01*
X136273410Y-92766718D01*
X136273407Y-92766720D01*
X136269399Y-92769399D01*
X136266720Y-92773407D01*
X136266718Y-92773410D01*
X136216714Y-92848248D01*
X136216712Y-92848250D01*
X136214034Y-92852260D01*
X136213093Y-92856988D01*
X136213092Y-92856992D01*
X136199904Y-92923296D01*
X136194592Y-92950000D01*
X136195534Y-92954736D01*
X136201583Y-92985148D01*
X136214034Y-93047740D01*
X136216715Y-93051752D01*
X136216716Y-93051754D01*
X136241242Y-93088461D01*
X136249500Y-93115683D01*
X136249500Y-93186654D01*
X136245770Y-93205406D01*
X136235148Y-93221302D01*
X136088199Y-93368250D01*
X136081033Y-93373336D01*
X136081064Y-93373375D01*
X136076745Y-93376818D01*
X136071776Y-93379212D01*
X136068338Y-93383522D01*
X136068334Y-93383526D01*
X136051973Y-93404041D01*
X136048319Y-93408131D01*
X136044197Y-93412253D01*
X136044194Y-93412256D01*
X136042252Y-93414199D01*
X136040787Y-93416529D01*
X136040786Y-93416531D01*
X136037685Y-93421465D01*
X136034512Y-93425936D01*
X136018153Y-93446451D01*
X136014710Y-93450769D01*
X136013481Y-93456151D01*
X136011086Y-93461125D01*
X136011041Y-93461103D01*
X136010597Y-93462174D01*
X136010644Y-93462191D01*
X136008820Y-93467402D01*
X136005884Y-93472076D01*
X136005266Y-93477556D01*
X136005265Y-93477561D01*
X136002328Y-93503631D01*
X136001409Y-93509038D01*
X136000112Y-93514721D01*
X136000110Y-93514734D01*
X135999500Y-93517410D01*
X135999500Y-93520161D01*
X135999500Y-93525993D01*
X135999192Y-93531478D01*
X135997966Y-93542365D01*
X135995638Y-93563026D01*
X135997461Y-93568238D01*
X135998080Y-93573723D01*
X135998028Y-93573728D01*
X135999500Y-93582388D01*
X135999500Y-93897612D01*
X135998028Y-93906271D01*
X135998080Y-93906277D01*
X135997461Y-93911762D01*
X135995638Y-93916974D01*
X135998338Y-93940941D01*
X135999192Y-93948522D01*
X135999500Y-93954007D01*
X135999500Y-93962590D01*
X136000110Y-93965264D01*
X136000111Y-93965270D01*
X136001409Y-93970955D01*
X136002329Y-93976371D01*
X136005047Y-94000500D01*
X136005884Y-94007924D01*
X136008819Y-94012596D01*
X136010644Y-94017810D01*
X136010597Y-94017826D01*
X136011041Y-94018897D01*
X136011086Y-94018876D01*
X136013481Y-94023850D01*
X136014710Y-94029231D01*
X136030874Y-94049500D01*
X136034507Y-94054056D01*
X136037684Y-94058534D01*
X136040784Y-94063466D01*
X136040786Y-94063469D01*
X136042252Y-94065801D01*
X136044199Y-94067748D01*
X136048318Y-94071867D01*
X136051979Y-94075964D01*
X136068331Y-94096469D01*
X136068332Y-94096470D01*
X136071776Y-94100788D01*
X136076751Y-94103184D01*
X136081068Y-94106626D01*
X136081035Y-94106666D01*
X136088200Y-94111749D01*
X136294740Y-94318290D01*
X136309092Y-94352938D01*
X136309092Y-97330057D01*
X136300834Y-97357279D01*
X136276308Y-97393985D01*
X136276306Y-97393987D01*
X136273626Y-97398000D01*
X136272684Y-97402734D01*
X136272684Y-97402735D01*
X136256098Y-97486117D01*
X136254184Y-97495740D01*
X136255126Y-97500476D01*
X136272684Y-97588747D01*
X136272685Y-97588749D01*
X136273626Y-97593480D01*
X136276305Y-97597489D01*
X136276307Y-97597494D01*
X136293535Y-97623278D01*
X136301374Y-97656896D01*
X136285101Y-97687340D01*
X136252793Y-97699500D01*
X135676541Y-97699500D01*
X135645044Y-97688036D01*
X135628285Y-97659009D01*
X135633520Y-97629318D01*
X135634935Y-97627904D01*
X135638573Y-97614321D01*
X135643467Y-97602505D01*
X135650500Y-97590327D01*
X135650501Y-97509674D01*
X135650500Y-97509672D01*
X135650500Y-93929686D01*
X135650500Y-93909173D01*
X135643469Y-93896997D01*
X135638573Y-93885176D01*
X135634935Y-93871596D01*
X135630376Y-93867037D01*
X135630375Y-93867035D01*
X135577905Y-93814565D01*
X135577903Y-93814564D01*
X135393828Y-93630489D01*
X135383204Y-93614588D01*
X135380361Y-93600285D01*
X135380418Y-93600000D01*
X135362917Y-93512014D01*
X135313077Y-93437423D01*
X135307418Y-93433642D01*
X135269846Y-93408537D01*
X135238486Y-93387583D01*
X135233755Y-93386642D01*
X135233753Y-93386641D01*
X135155231Y-93371023D01*
X135150500Y-93370082D01*
X135145769Y-93371023D01*
X135067246Y-93386641D01*
X135067242Y-93386642D01*
X135062514Y-93387583D01*
X135058502Y-93390263D01*
X135058501Y-93390264D01*
X134991934Y-93434742D01*
X134991931Y-93434744D01*
X134987923Y-93437423D01*
X134985244Y-93441431D01*
X134985242Y-93441434D01*
X134940764Y-93508001D01*
X134938083Y-93512014D01*
X134937142Y-93516742D01*
X134937141Y-93516746D01*
X134923205Y-93586811D01*
X134920582Y-93600000D01*
X134921523Y-93604731D01*
X134937141Y-93683253D01*
X134937142Y-93683255D01*
X134938083Y-93687986D01*
X134954407Y-93712417D01*
X134981004Y-93752223D01*
X134987923Y-93762577D01*
X135062514Y-93812417D01*
X135150500Y-93829918D01*
X135150785Y-93829861D01*
X135165088Y-93832704D01*
X135180989Y-93843328D01*
X135335148Y-93997487D01*
X135349500Y-94032135D01*
X135349500Y-97467365D01*
X135345770Y-97486117D01*
X135335148Y-97502013D01*
X135204026Y-97633133D01*
X135183604Y-97645374D01*
X135159824Y-97646545D01*
X135154734Y-97645533D01*
X135154731Y-97645533D01*
X135150000Y-97644592D01*
X135145269Y-97645533D01*
X135145265Y-97645533D01*
X135056992Y-97663092D01*
X135056988Y-97663093D01*
X135052260Y-97664034D01*
X135048250Y-97666712D01*
X135048248Y-97666714D01*
X134973410Y-97716718D01*
X134973407Y-97716720D01*
X134969399Y-97719399D01*
X134966720Y-97723407D01*
X134966718Y-97723410D01*
X134916714Y-97798248D01*
X134916712Y-97798250D01*
X134914034Y-97802260D01*
X134913093Y-97806988D01*
X134913092Y-97806992D01*
X134901602Y-97864757D01*
X134894592Y-97900000D01*
X134895534Y-97904736D01*
X134913092Y-97993007D01*
X134913093Y-97993009D01*
X134914034Y-97997740D01*
X134916713Y-98001750D01*
X134916714Y-98001751D01*
X134959303Y-98065492D01*
X134969399Y-98080601D01*
X135052260Y-98135966D01*
X135150000Y-98155408D01*
X135247740Y-98135966D01*
X135288460Y-98108758D01*
X135315683Y-98100500D01*
X138907612Y-98100500D01*
X138916271Y-98101971D01*
X138916277Y-98101920D01*
X138921760Y-98102537D01*
X138926974Y-98104362D01*
X138958521Y-98100808D01*
X138964007Y-98100500D01*
X138969836Y-98100500D01*
X138972590Y-98100500D01*
X138980960Y-98098589D01*
X138986367Y-98097670D01*
X139017924Y-98094116D01*
X139022598Y-98091178D01*
X139027812Y-98089354D01*
X139027829Y-98089402D01*
X139028894Y-98088961D01*
X139028872Y-98088914D01*
X139033844Y-98086519D01*
X139039231Y-98085290D01*
X139064064Y-98065485D01*
X139068537Y-98062312D01*
X139075801Y-98057748D01*
X139081877Y-98051671D01*
X139085946Y-98048033D01*
X139110788Y-98028224D01*
X139113183Y-98023249D01*
X139116626Y-98018932D01*
X139116665Y-98018963D01*
X139121747Y-98011800D01*
X139511800Y-97621747D01*
X139518963Y-97616665D01*
X139518932Y-97616626D01*
X139523249Y-97613183D01*
X139528224Y-97610788D01*
X139548033Y-97585946D01*
X139551671Y-97581877D01*
X139557748Y-97575801D01*
X139562312Y-97568537D01*
X139565485Y-97564064D01*
X139585290Y-97539231D01*
X139586519Y-97533844D01*
X139588914Y-97528872D01*
X139588961Y-97528894D01*
X139589402Y-97527829D01*
X139589354Y-97527812D01*
X139591178Y-97522598D01*
X139594116Y-97517924D01*
X139597670Y-97486367D01*
X139598589Y-97480960D01*
X139600500Y-97472590D01*
X139600500Y-97464007D01*
X139600808Y-97458522D01*
X139601566Y-97451797D01*
X139604362Y-97426974D01*
X139602538Y-97421762D01*
X139601920Y-97416277D01*
X139601971Y-97416271D01*
X139600500Y-97407612D01*
X139600500Y-96803345D01*
X139614852Y-96768697D01*
X139701298Y-96682251D01*
X139961800Y-96421747D01*
X139968963Y-96416665D01*
X139968932Y-96416626D01*
X139973249Y-96413183D01*
X139978224Y-96410788D01*
X139998033Y-96385946D01*
X140001671Y-96381877D01*
X140007748Y-96375801D01*
X140012312Y-96368537D01*
X140015485Y-96364064D01*
X140035290Y-96339231D01*
X140036519Y-96333844D01*
X140038914Y-96328872D01*
X140038961Y-96328894D01*
X140039402Y-96327829D01*
X140039354Y-96327812D01*
X140041178Y-96322598D01*
X140044116Y-96317924D01*
X140047670Y-96286367D01*
X140048589Y-96280960D01*
X140050500Y-96272590D01*
X140050500Y-96264007D01*
X140050808Y-96258522D01*
X140052301Y-96245269D01*
X140054362Y-96226974D01*
X140052538Y-96221762D01*
X140051920Y-96216277D01*
X140051971Y-96216271D01*
X140050500Y-96207612D01*
X140050500Y-94053345D01*
X140064852Y-94018697D01*
X140287835Y-93795714D01*
X140511802Y-93571746D01*
X140518965Y-93566665D01*
X140518933Y-93566625D01*
X140523246Y-93563184D01*
X140528224Y-93560788D01*
X140548029Y-93535951D01*
X140551667Y-93531882D01*
X140557748Y-93525802D01*
X140561342Y-93520082D01*
X140562312Y-93518537D01*
X140565485Y-93514062D01*
X140585290Y-93489231D01*
X140586518Y-93483844D01*
X140588914Y-93478871D01*
X140588961Y-93478893D01*
X140589402Y-93477828D01*
X140589352Y-93477811D01*
X140591174Y-93472603D01*
X140594115Y-93467924D01*
X140597670Y-93436364D01*
X140598586Y-93430973D01*
X140600500Y-93422590D01*
X140600500Y-93414004D01*
X140600808Y-93408518D01*
X140601069Y-93406206D01*
X140604362Y-93376974D01*
X140602538Y-93371761D01*
X140601920Y-93366277D01*
X140601971Y-93366271D01*
X140600500Y-93357612D01*
X140600500Y-93166183D01*
X140608758Y-93138961D01*
X140625865Y-93113358D01*
X140635966Y-93098240D01*
X140640678Y-93074546D01*
X140654087Y-93049460D01*
X141354820Y-92348727D01*
X141361983Y-92343645D01*
X141361952Y-92343606D01*
X141366269Y-92340163D01*
X141371244Y-92337768D01*
X141391053Y-92312926D01*
X141394691Y-92308857D01*
X141400768Y-92302781D01*
X141402528Y-92299979D01*
X141403423Y-92298556D01*
X141410264Y-92289975D01*
X141765851Y-91934389D01*
X141800500Y-91920037D01*
X141835148Y-91934389D01*
X141849500Y-91969037D01*
X141849500Y-92617365D01*
X141845770Y-92636116D01*
X141835148Y-92652013D01*
X140630489Y-93856671D01*
X140599856Y-93869359D01*
X140600000Y-93870082D01*
X140596369Y-93870804D01*
X140596367Y-93870804D01*
X140595269Y-93871023D01*
X140516746Y-93886641D01*
X140516742Y-93886642D01*
X140512014Y-93887583D01*
X140508002Y-93890263D01*
X140508001Y-93890264D01*
X140441434Y-93934742D01*
X140441431Y-93934744D01*
X140437423Y-93937423D01*
X140434744Y-93941431D01*
X140434742Y-93941434D01*
X140390264Y-94008001D01*
X140387583Y-94012014D01*
X140386642Y-94016742D01*
X140386641Y-94016746D01*
X140374678Y-94076895D01*
X140370082Y-94100000D01*
X140371023Y-94104731D01*
X140386641Y-94183253D01*
X140386642Y-94183255D01*
X140387583Y-94187986D01*
X140390264Y-94191998D01*
X140423052Y-94241070D01*
X140437423Y-94262577D01*
X140512014Y-94312417D01*
X140600000Y-94329918D01*
X140687986Y-94312417D01*
X140762577Y-94262577D01*
X140812417Y-94187986D01*
X140829918Y-94100000D01*
X140829860Y-94099713D01*
X140832704Y-94085410D01*
X140843325Y-94069512D01*
X142120430Y-92792409D01*
X142134935Y-92777904D01*
X142138573Y-92764321D01*
X142143467Y-92752505D01*
X142150500Y-92740327D01*
X142150501Y-92659674D01*
X142150500Y-92659672D01*
X142150500Y-92414607D01*
X142163580Y-92381279D01*
X142195838Y-92365744D01*
X142230050Y-92376297D01*
X142234324Y-92379705D01*
X142237764Y-92384019D01*
X142309943Y-92418779D01*
X142384537Y-92418779D01*
X142390057Y-92418779D01*
X142462236Y-92384019D01*
X142512186Y-92321384D01*
X142530013Y-92243279D01*
X142523371Y-92214179D01*
X142526415Y-92183264D01*
X142547439Y-92160391D01*
X142577992Y-92154758D01*
X142605790Y-92168629D01*
X142878651Y-92441490D01*
X142892473Y-92468948D01*
X142887217Y-92499236D01*
X142864954Y-92520433D01*
X142834445Y-92524197D01*
X142797912Y-92516931D01*
X142797911Y-92516931D01*
X142793180Y-92515990D01*
X142788449Y-92516931D01*
X142709926Y-92532549D01*
X142709922Y-92532550D01*
X142705194Y-92533491D01*
X142701182Y-92536171D01*
X142701181Y-92536172D01*
X142634614Y-92580650D01*
X142634611Y-92580652D01*
X142630603Y-92583331D01*
X142627924Y-92587339D01*
X142627922Y-92587342D01*
X142586391Y-92649499D01*
X142580763Y-92657922D01*
X142579822Y-92662650D01*
X142579821Y-92662654D01*
X142568262Y-92720769D01*
X142563262Y-92745908D01*
X142564203Y-92750639D01*
X142579821Y-92829161D01*
X142579822Y-92829163D01*
X142580763Y-92833894D01*
X142583444Y-92837906D01*
X142627516Y-92903866D01*
X142635538Y-92935892D01*
X142621422Y-92965737D01*
X142572010Y-93015150D01*
X142556117Y-93025770D01*
X142537365Y-93029500D01*
X142410327Y-93029500D01*
X142329673Y-93029500D01*
X142324088Y-93032723D01*
X142324085Y-93032725D01*
X142317492Y-93036532D01*
X142305679Y-93041425D01*
X142292096Y-93045065D01*
X142287538Y-93049622D01*
X142287536Y-93049624D01*
X142235064Y-93102096D01*
X141422096Y-93915065D01*
X141369626Y-93967534D01*
X141369624Y-93967536D01*
X141365065Y-93972096D01*
X141363396Y-93978323D01*
X141363395Y-93978326D01*
X141361425Y-93985680D01*
X141356532Y-93997492D01*
X141352725Y-94004085D01*
X141352723Y-94004088D01*
X141349500Y-94009673D01*
X141349499Y-94016119D01*
X141349499Y-94016123D01*
X141349499Y-94053345D01*
X141349499Y-94090326D01*
X141349500Y-94090327D01*
X141349500Y-94090328D01*
X141349500Y-95029879D01*
X141336811Y-95060512D01*
X141337423Y-95060921D01*
X141335367Y-95063997D01*
X141335365Y-95063999D01*
X141334744Y-95064929D01*
X141334742Y-95064932D01*
X141290264Y-95131499D01*
X141287583Y-95135512D01*
X141286642Y-95140240D01*
X141286641Y-95140244D01*
X141274862Y-95199466D01*
X141270082Y-95223498D01*
X141271023Y-95228229D01*
X141286641Y-95306751D01*
X141286642Y-95306753D01*
X141287583Y-95311484D01*
X141290264Y-95315496D01*
X141334489Y-95381685D01*
X141335366Y-95382997D01*
X141335367Y-95382998D01*
X141337423Y-95386075D01*
X141336811Y-95386483D01*
X141349500Y-95417117D01*
X141349500Y-95967365D01*
X141335148Y-96002013D01*
X140343202Y-96993958D01*
X140343200Y-96993960D01*
X140338641Y-96998520D01*
X140336972Y-97004747D01*
X140336971Y-97004750D01*
X140335001Y-97012104D01*
X140330108Y-97023916D01*
X140326300Y-97030511D01*
X140326299Y-97030514D01*
X140323076Y-97036097D01*
X140323075Y-97041392D01*
X140312231Y-97060175D01*
X140310999Y-97060999D01*
X140308322Y-97065004D01*
X140308319Y-97065008D01*
X140264064Y-97131242D01*
X140261159Y-97135590D01*
X140260218Y-97140318D01*
X140260217Y-97140322D01*
X140244915Y-97217255D01*
X140243658Y-97223576D01*
X140244599Y-97228307D01*
X140260217Y-97306829D01*
X140260218Y-97306831D01*
X140261159Y-97311562D01*
X140275671Y-97333281D01*
X140299455Y-97368877D01*
X140310999Y-97386153D01*
X140385590Y-97435993D01*
X140473576Y-97453494D01*
X140561562Y-97435993D01*
X140636153Y-97386153D01*
X140638838Y-97382133D01*
X140641585Y-97379387D01*
X140671431Y-97365269D01*
X140703456Y-97373290D01*
X140762014Y-97412417D01*
X140850000Y-97429918D01*
X140937986Y-97412417D01*
X141012577Y-97362577D01*
X141062417Y-97287986D01*
X141079918Y-97200000D01*
X141079860Y-97199713D01*
X141082704Y-97185410D01*
X141093325Y-97169512D01*
X142220430Y-96042409D01*
X142234935Y-96027904D01*
X142238573Y-96014321D01*
X142243467Y-96002505D01*
X142250500Y-95990327D01*
X142250501Y-95909674D01*
X142250500Y-95909672D01*
X142250500Y-94520685D01*
X142258758Y-94493462D01*
X142262417Y-94487986D01*
X142264894Y-94475531D01*
X142283122Y-94446215D01*
X142316157Y-94436193D01*
X142347601Y-94450439D01*
X142519570Y-94622409D01*
X143275065Y-95377904D01*
X143332096Y-95434935D01*
X143345677Y-95438573D01*
X143357497Y-95443469D01*
X143369673Y-95450500D01*
X143390186Y-95450500D01*
X143450326Y-95450500D01*
X144081254Y-95450500D01*
X144108857Y-95459014D01*
X144126867Y-95481599D01*
X144129024Y-95510402D01*
X144119987Y-95550000D01*
X144121216Y-95555385D01*
X144135735Y-95619000D01*
X144137814Y-95628105D01*
X144141254Y-95632419D01*
X144141255Y-95632420D01*
X144184322Y-95686425D01*
X144184324Y-95686426D01*
X144187764Y-95690740D01*
X144190620Y-95692115D01*
X144205227Y-95712700D01*
X144206749Y-95739787D01*
X144193627Y-95763532D01*
X144172014Y-95785147D01*
X144156117Y-95795770D01*
X144137364Y-95799500D01*
X143915488Y-95799500D01*
X143896735Y-95795770D01*
X143881911Y-95785863D01*
X143879947Y-95782923D01*
X143875935Y-95780242D01*
X143875934Y-95780241D01*
X143809368Y-95735764D01*
X143809369Y-95735764D01*
X143805356Y-95733083D01*
X143800625Y-95732142D01*
X143800623Y-95732141D01*
X143722101Y-95716523D01*
X143717370Y-95715582D01*
X143712639Y-95716523D01*
X143634116Y-95732141D01*
X143634112Y-95732142D01*
X143629384Y-95733083D01*
X143625372Y-95735763D01*
X143625371Y-95735764D01*
X143558804Y-95780242D01*
X143558801Y-95780244D01*
X143554793Y-95782923D01*
X143552114Y-95786931D01*
X143552112Y-95786934D01*
X143507634Y-95853501D01*
X143504953Y-95857514D01*
X143504012Y-95862242D01*
X143504011Y-95862246D01*
X143488393Y-95940769D01*
X143487452Y-95945500D01*
X143488393Y-95950231D01*
X143488393Y-95950236D01*
X143500468Y-96010941D01*
X143497680Y-96039251D01*
X143479633Y-96061242D01*
X143452410Y-96069500D01*
X143409674Y-96069500D01*
X143404089Y-96072723D01*
X143404086Y-96072725D01*
X143397493Y-96076532D01*
X143385680Y-96081425D01*
X143372097Y-96085065D01*
X143367539Y-96089622D01*
X143367537Y-96089624D01*
X143343527Y-96113634D01*
X143315066Y-96142095D01*
X143315065Y-96142096D01*
X143191039Y-96266123D01*
X143077014Y-96380148D01*
X143061118Y-96390770D01*
X143042366Y-96394500D01*
X142285327Y-96394500D01*
X142204673Y-96394500D01*
X142199088Y-96397723D01*
X142199085Y-96397725D01*
X142192492Y-96401532D01*
X142180679Y-96406425D01*
X142167096Y-96410065D01*
X142162538Y-96414622D01*
X142162536Y-96414624D01*
X141922096Y-96655064D01*
X141922096Y-96655065D01*
X141869626Y-96707534D01*
X141869624Y-96707536D01*
X141865065Y-96712096D01*
X141863396Y-96718323D01*
X141863395Y-96718326D01*
X141861425Y-96725680D01*
X141856532Y-96737492D01*
X141852725Y-96744085D01*
X141852723Y-96744088D01*
X141849500Y-96749673D01*
X141849499Y-96756119D01*
X141849499Y-96756123D01*
X141849499Y-96791623D01*
X141849499Y-96830326D01*
X141849500Y-96830328D01*
X141849500Y-97106381D01*
X141836811Y-97137014D01*
X141837423Y-97137423D01*
X141835367Y-97140499D01*
X141835365Y-97140501D01*
X141834744Y-97141431D01*
X141834742Y-97141434D01*
X141790264Y-97208001D01*
X141787583Y-97212014D01*
X141786642Y-97216742D01*
X141786641Y-97216746D01*
X141774477Y-97277904D01*
X141770082Y-97300000D01*
X141771023Y-97304731D01*
X141786641Y-97383253D01*
X141786642Y-97383255D01*
X141787583Y-97387986D01*
X141806259Y-97415937D01*
X141834713Y-97458522D01*
X141837423Y-97462577D01*
X141912014Y-97512417D01*
X141916746Y-97513358D01*
X141916748Y-97513359D01*
X141920294Y-97514064D01*
X141949611Y-97532291D01*
X141959634Y-97565326D01*
X141945388Y-97596771D01*
X141915066Y-97627094D01*
X141915065Y-97627093D01*
X141915065Y-97627095D01*
X141915064Y-97627096D01*
X141732096Y-97810065D01*
X141679626Y-97862534D01*
X141679624Y-97862536D01*
X141675065Y-97867096D01*
X141673396Y-97873323D01*
X141673395Y-97873326D01*
X141671425Y-97880680D01*
X141666532Y-97892492D01*
X141662725Y-97899085D01*
X141662723Y-97899088D01*
X141659500Y-97904673D01*
X141659499Y-97911119D01*
X141659499Y-97911123D01*
X141659499Y-97954852D01*
X141659499Y-97985326D01*
X141659500Y-97985328D01*
X141659500Y-98199673D01*
X141659500Y-98280327D01*
X141662724Y-98285911D01*
X141662725Y-98285914D01*
X141666531Y-98292506D01*
X141671426Y-98304323D01*
X141673395Y-98311674D01*
X141673396Y-98311676D01*
X141675065Y-98317904D01*
X141709917Y-98352757D01*
X141732094Y-98374934D01*
X141732100Y-98374939D01*
X141835065Y-98477903D01*
X141835065Y-98477904D01*
X141892096Y-98534935D01*
X141905677Y-98538573D01*
X141917497Y-98543469D01*
X141929673Y-98550500D01*
X141950186Y-98550500D01*
X142010326Y-98550500D01*
X142590186Y-98550500D01*
X142629814Y-98550500D01*
X142839673Y-98550500D01*
X142899814Y-98550500D01*
X142913876Y-98550500D01*
X142920327Y-98550500D01*
X142932505Y-98543467D01*
X142944321Y-98538573D01*
X142957904Y-98534935D01*
X143014935Y-98477905D01*
X143014935Y-98477903D01*
X143145466Y-98347372D01*
X146005740Y-98347372D01*
X146023567Y-98425477D01*
X146027007Y-98429791D01*
X146027008Y-98429792D01*
X146065375Y-98477903D01*
X146073517Y-98488112D01*
X146145696Y-98522872D01*
X146220290Y-98522872D01*
X146225810Y-98522872D01*
X146297989Y-98488112D01*
X146347939Y-98425477D01*
X146365766Y-98347372D01*
X146347939Y-98269267D01*
X146297989Y-98206632D01*
X146225810Y-98171872D01*
X146145696Y-98171872D01*
X146140723Y-98174266D01*
X146140722Y-98174267D01*
X146078491Y-98204236D01*
X146078489Y-98204237D01*
X146073517Y-98206632D01*
X146070076Y-98210945D01*
X146070074Y-98210948D01*
X146027008Y-98264951D01*
X146027006Y-98264953D01*
X146023567Y-98269267D01*
X146022339Y-98274646D01*
X146022338Y-98274649D01*
X146012466Y-98317904D01*
X146005740Y-98347372D01*
X143145466Y-98347372D01*
X143537986Y-97954852D01*
X143572635Y-97940500D01*
X145363376Y-97940500D01*
X145369827Y-97940500D01*
X145380982Y-97934058D01*
X145410441Y-97929194D01*
X145410441Y-97928477D01*
X145414783Y-97928477D01*
X145415048Y-97928433D01*
X145420000Y-97929418D01*
X145507986Y-97911917D01*
X145582577Y-97862077D01*
X145632417Y-97787486D01*
X145649918Y-97699500D01*
X145632417Y-97611514D01*
X145582577Y-97536923D01*
X145572093Y-97529918D01*
X145526138Y-97499212D01*
X145507986Y-97487083D01*
X145503255Y-97486142D01*
X145503253Y-97486141D01*
X145424731Y-97470523D01*
X145420000Y-97469582D01*
X145415269Y-97470523D01*
X145336746Y-97486141D01*
X145336742Y-97486142D01*
X145332014Y-97487083D01*
X145328002Y-97489763D01*
X145328001Y-97489764D01*
X145261434Y-97534242D01*
X145261431Y-97534244D01*
X145257423Y-97536923D01*
X145254744Y-97540931D01*
X145254742Y-97540934D01*
X145213606Y-97602500D01*
X145207583Y-97611514D01*
X145207551Y-97611674D01*
X145191492Y-97631242D01*
X145164269Y-97639500D01*
X143530327Y-97639500D01*
X143449673Y-97639500D01*
X143444088Y-97642723D01*
X143444085Y-97642725D01*
X143437492Y-97646532D01*
X143425680Y-97651425D01*
X143422002Y-97652410D01*
X143412096Y-97655065D01*
X143407538Y-97659622D01*
X143407536Y-97659624D01*
X143355064Y-97712096D01*
X142832013Y-98235148D01*
X142816117Y-98245770D01*
X142797365Y-98249500D01*
X142629814Y-98249500D01*
X142052635Y-98249500D01*
X142017987Y-98235148D01*
X141974852Y-98192013D01*
X141960500Y-98157365D01*
X141960500Y-98027635D01*
X141974852Y-97992987D01*
X142097987Y-97869852D01*
X142132635Y-97855500D01*
X142778876Y-97855500D01*
X142785327Y-97855500D01*
X142797505Y-97848467D01*
X142809321Y-97843573D01*
X142822904Y-97839935D01*
X142879935Y-97782905D01*
X142879935Y-97782903D01*
X143743313Y-96919525D01*
X143777962Y-96905173D01*
X143799203Y-96905173D01*
X143805654Y-96905173D01*
X143817832Y-96898140D01*
X143829648Y-96893246D01*
X143843231Y-96889608D01*
X143867987Y-96864852D01*
X143892028Y-96840812D01*
X143923471Y-96826565D01*
X143956505Y-96836585D01*
X143974734Y-96865900D01*
X143979828Y-96891512D01*
X143979831Y-96891520D01*
X143980772Y-96896249D01*
X143998590Y-96922915D01*
X144024146Y-96961164D01*
X144030612Y-96970840D01*
X144105203Y-97020680D01*
X144193189Y-97038181D01*
X144281175Y-97020680D01*
X144302428Y-97006478D01*
X144335478Y-96998569D01*
X144365726Y-97014061D01*
X144378621Y-97045503D01*
X144367961Y-97077772D01*
X144355755Y-97093077D01*
X144355753Y-97093079D01*
X144352314Y-97097393D01*
X144351086Y-97102772D01*
X144351085Y-97102775D01*
X144338099Y-97159672D01*
X144334487Y-97175498D01*
X144335716Y-97180883D01*
X144350975Y-97247740D01*
X144352314Y-97253603D01*
X144355754Y-97257917D01*
X144355755Y-97257918D01*
X144398819Y-97311919D01*
X144402264Y-97316238D01*
X144474443Y-97350998D01*
X144549037Y-97350998D01*
X144554557Y-97350998D01*
X144626736Y-97316238D01*
X144643022Y-97295815D01*
X144674483Y-97277846D01*
X144709688Y-97286402D01*
X144729392Y-97316806D01*
X144736641Y-97353253D01*
X144736642Y-97353255D01*
X144737583Y-97357986D01*
X144759351Y-97390564D01*
X144776304Y-97415937D01*
X144787423Y-97432577D01*
X144862014Y-97482417D01*
X144950000Y-97499918D01*
X145037986Y-97482417D01*
X145112577Y-97432577D01*
X145162417Y-97357986D01*
X145164016Y-97349942D01*
X145180990Y-97321623D01*
X145212076Y-97310500D01*
X145826865Y-97310500D01*
X145861513Y-97324852D01*
X146784815Y-98248154D01*
X146841846Y-98305185D01*
X146855427Y-98308823D01*
X146867247Y-98313719D01*
X146879423Y-98320750D01*
X146899936Y-98320750D01*
X146960076Y-98320750D01*
X149069423Y-98320750D01*
X149129564Y-98320750D01*
X149143626Y-98320750D01*
X149150077Y-98320750D01*
X149162255Y-98313717D01*
X149174071Y-98308823D01*
X149187654Y-98305185D01*
X149244685Y-98248155D01*
X149244685Y-98248153D01*
X149660430Y-97832409D01*
X149674935Y-97817904D01*
X149678573Y-97804321D01*
X149683467Y-97792505D01*
X149690500Y-97780327D01*
X149690500Y-97709436D01*
X149699538Y-97681081D01*
X149723316Y-97663186D01*
X149753065Y-97662351D01*
X149777810Y-97678885D01*
X149782804Y-97685148D01*
X149787264Y-97690740D01*
X149859443Y-97725500D01*
X149934037Y-97725500D01*
X149939557Y-97725500D01*
X150011736Y-97690740D01*
X150061686Y-97628105D01*
X150079513Y-97550000D01*
X150077680Y-97541971D01*
X150073873Y-97525290D01*
X150061686Y-97471895D01*
X150011736Y-97409260D01*
X150003737Y-97405408D01*
X149957799Y-97383285D01*
X149939557Y-97374500D01*
X149859443Y-97374500D01*
X149854470Y-97376894D01*
X149854469Y-97376895D01*
X149792238Y-97406864D01*
X149792236Y-97406865D01*
X149787264Y-97409260D01*
X149783823Y-97413573D01*
X149783821Y-97413576D01*
X149777810Y-97421115D01*
X149753065Y-97437649D01*
X149723316Y-97436814D01*
X149699538Y-97418919D01*
X149690500Y-97390564D01*
X149690500Y-96946124D01*
X149690500Y-96939673D01*
X149683469Y-96927497D01*
X149678573Y-96915676D01*
X149674935Y-96902096D01*
X149670376Y-96897537D01*
X149670375Y-96897535D01*
X149617905Y-96845065D01*
X149617903Y-96845064D01*
X149352409Y-96579570D01*
X149352409Y-96579569D01*
X149337904Y-96565065D01*
X149324323Y-96561426D01*
X149312506Y-96556531D01*
X149305915Y-96552726D01*
X149305913Y-96552725D01*
X149300327Y-96549500D01*
X149297792Y-96549499D01*
X149275379Y-96535045D01*
X149264365Y-96507159D01*
X149271658Y-96478077D01*
X149288760Y-96463576D01*
X149287986Y-96462417D01*
X149295051Y-96457696D01*
X149362577Y-96412577D01*
X149412417Y-96337986D01*
X149429918Y-96250000D01*
X149412417Y-96162014D01*
X149362577Y-96087423D01*
X149356550Y-96083396D01*
X149323394Y-96061242D01*
X149292712Y-96040740D01*
X149273536Y-96015751D01*
X149273536Y-95984249D01*
X149292712Y-95959259D01*
X149362577Y-95912577D01*
X149412417Y-95837986D01*
X149429918Y-95750000D01*
X149412417Y-95662014D01*
X149362577Y-95587423D01*
X149358565Y-95584742D01*
X149358564Y-95584741D01*
X149345128Y-95575763D01*
X149325952Y-95550772D01*
X149325953Y-95519271D01*
X149345127Y-95494281D01*
X149392577Y-95462577D01*
X149442417Y-95387986D01*
X149459918Y-95300000D01*
X149442417Y-95212014D01*
X149392577Y-95137423D01*
X149391602Y-95136771D01*
X149380297Y-95117190D01*
X149380297Y-95091825D01*
X149392979Y-95069859D01*
X149425430Y-95037409D01*
X149429517Y-95033322D01*
X149439935Y-95022904D01*
X149443573Y-95009321D01*
X149448467Y-94997505D01*
X149455500Y-94985327D01*
X149455501Y-94904674D01*
X149455500Y-94904672D01*
X149455500Y-94835186D01*
X149455500Y-94814673D01*
X149448469Y-94802497D01*
X149443574Y-94790681D01*
X149442818Y-94787859D01*
X149441759Y-94783905D01*
X149443818Y-94752475D01*
X149464587Y-94728790D01*
X149495484Y-94722643D01*
X149523736Y-94736574D01*
X149560065Y-94772903D01*
X149560065Y-94772904D01*
X149617096Y-94829935D01*
X149630677Y-94833573D01*
X149642497Y-94838469D01*
X149654673Y-94845500D01*
X149735326Y-94845501D01*
X149735328Y-94845500D01*
X149824673Y-94845500D01*
X149884814Y-94845500D01*
X149905327Y-94845500D01*
X149917505Y-94838467D01*
X149929321Y-94833573D01*
X149942904Y-94829935D01*
X149999935Y-94772905D01*
X149999935Y-94772903D01*
X150070430Y-94702409D01*
X150084935Y-94687904D01*
X150088573Y-94674321D01*
X150093467Y-94662505D01*
X150100500Y-94650327D01*
X150100500Y-94569674D01*
X150100500Y-94330186D01*
X150100500Y-94309673D01*
X150093469Y-94297497D01*
X150088573Y-94285676D01*
X150088091Y-94283878D01*
X150084935Y-94272096D01*
X150080376Y-94267537D01*
X150080375Y-94267535D01*
X150027905Y-94215065D01*
X150027903Y-94215064D01*
X149842409Y-94029570D01*
X149827904Y-94015065D01*
X149821672Y-94013395D01*
X149814323Y-94011426D01*
X149802506Y-94006531D01*
X149795914Y-94002725D01*
X149795911Y-94002724D01*
X149790327Y-93999500D01*
X149783879Y-93999499D01*
X149783876Y-93999499D01*
X149709679Y-93999499D01*
X149709678Y-93999499D01*
X149709674Y-93999499D01*
X149709672Y-93999499D01*
X149709671Y-93999500D01*
X149442121Y-93999500D01*
X149407473Y-93985148D01*
X149393121Y-93950500D01*
X149407473Y-93915852D01*
X149408067Y-93915257D01*
X149409002Y-93914632D01*
X149443121Y-93900500D01*
X149633876Y-93900500D01*
X149640327Y-93900500D01*
X149652505Y-93893467D01*
X149664321Y-93888573D01*
X149677904Y-93884935D01*
X149734935Y-93827905D01*
X149734935Y-93827903D01*
X149845430Y-93717409D01*
X149845430Y-93717408D01*
X149859935Y-93702904D01*
X149863573Y-93689321D01*
X149868467Y-93677505D01*
X149875500Y-93665327D01*
X149875501Y-93584673D01*
X149875500Y-93584671D01*
X149875500Y-93305186D01*
X149875500Y-93284673D01*
X149868469Y-93272497D01*
X149863573Y-93260676D01*
X149862833Y-93257913D01*
X149859935Y-93247096D01*
X149855376Y-93242537D01*
X149855375Y-93242535D01*
X149802905Y-93190065D01*
X149802903Y-93190064D01*
X149752409Y-93139570D01*
X149737904Y-93125065D01*
X149731672Y-93123395D01*
X149724323Y-93121426D01*
X149712506Y-93116531D01*
X149705914Y-93112725D01*
X149705911Y-93112724D01*
X149700327Y-93109500D01*
X149693879Y-93109499D01*
X149693876Y-93109499D01*
X149619679Y-93109499D01*
X149619678Y-93109499D01*
X149619674Y-93109499D01*
X149619672Y-93109499D01*
X149619671Y-93109500D01*
X149406319Y-93109500D01*
X149376490Y-93099374D01*
X149358989Y-93073182D01*
X149361028Y-93042063D01*
X149363419Y-93038486D01*
X149380920Y-92950500D01*
X149380862Y-92950213D01*
X149383706Y-92935910D01*
X149394327Y-92920012D01*
X150020430Y-92293911D01*
X150034935Y-92279406D01*
X150038573Y-92265823D01*
X150043467Y-92254007D01*
X150050500Y-92241829D01*
X150050501Y-92161176D01*
X150050500Y-92161174D01*
X150050500Y-91007179D01*
X150050500Y-90986666D01*
X150043469Y-90974490D01*
X150038573Y-90962669D01*
X150038174Y-90961180D01*
X150034935Y-90949089D01*
X150030376Y-90944530D01*
X150030375Y-90944528D01*
X149977905Y-90892058D01*
X149977903Y-90892057D01*
X149556052Y-90470206D01*
X149545428Y-90454305D01*
X149542585Y-90440002D01*
X149542642Y-90439717D01*
X149525141Y-90351731D01*
X149475301Y-90277140D01*
X149400710Y-90227300D01*
X149395979Y-90226359D01*
X149395977Y-90226358D01*
X149317455Y-90210740D01*
X149312724Y-90209799D01*
X149307993Y-90210740D01*
X149229470Y-90226358D01*
X149229466Y-90226359D01*
X149224738Y-90227300D01*
X149220726Y-90229980D01*
X149220725Y-90229981D01*
X149154158Y-90274459D01*
X149154155Y-90274461D01*
X149150147Y-90277140D01*
X149147468Y-90281148D01*
X149147466Y-90281151D01*
X149103142Y-90347488D01*
X149081151Y-90365535D01*
X149052841Y-90368323D01*
X149027752Y-90354913D01*
X148976154Y-90303315D01*
X148962038Y-90273469D01*
X148970061Y-90241443D01*
X148992417Y-90207986D01*
X149009918Y-90120000D01*
X148992417Y-90032014D01*
X148942577Y-89957423D01*
X148885023Y-89918967D01*
X148870559Y-89909302D01*
X148849943Y-89879165D01*
X148855891Y-89843140D01*
X148885100Y-89821230D01*
X149061423Y-89773984D01*
X149065429Y-89772527D01*
X149275643Y-89674502D01*
X149279330Y-89672373D01*
X149469324Y-89539338D01*
X149472588Y-89536599D01*
X149505276Y-89503910D01*
X149508129Y-89497021D01*
X149505274Y-89490127D01*
X148606892Y-88591745D01*
X148600000Y-88588890D01*
X148593107Y-88591745D01*
X147692393Y-89492458D01*
X147689760Y-89497020D01*
X147692393Y-89501581D01*
X147727404Y-89536592D01*
X147730681Y-89539341D01*
X147920669Y-89672373D01*
X147924356Y-89674502D01*
X148134570Y-89772527D01*
X148138576Y-89773984D01*
X148362607Y-89834013D01*
X148366810Y-89834755D01*
X148597874Y-89854971D01*
X148602130Y-89854971D01*
X148605691Y-89854659D01*
X148636516Y-89862287D01*
X148656191Y-89887213D01*
X148656453Y-89918967D01*
X148637192Y-89944213D01*
X148621433Y-89954743D01*
X148621431Y-89954744D01*
X148617423Y-89957423D01*
X148614744Y-89961431D01*
X148614742Y-89961434D01*
X148570264Y-90028001D01*
X148567583Y-90032014D01*
X148566642Y-90036742D01*
X148566641Y-90036746D01*
X148560102Y-90069624D01*
X148550082Y-90120000D01*
X148551023Y-90124731D01*
X148566641Y-90203253D01*
X148566642Y-90203255D01*
X148567583Y-90207986D01*
X148570985Y-90213077D01*
X148611998Y-90274459D01*
X148615366Y-90279499D01*
X148615367Y-90279500D01*
X148617423Y-90282577D01*
X148616811Y-90282985D01*
X148629500Y-90313619D01*
X148629500Y-90360327D01*
X148632724Y-90365911D01*
X148632725Y-90365914D01*
X148636531Y-90372506D01*
X148641426Y-90384323D01*
X148643395Y-90391674D01*
X148643396Y-90391676D01*
X148645065Y-90397904D01*
X148682141Y-90434981D01*
X148702094Y-90454934D01*
X148702100Y-90454939D01*
X149198224Y-90951063D01*
X149211634Y-90976151D01*
X149208846Y-91004462D01*
X149190799Y-91026453D01*
X149129710Y-91067271D01*
X149129707Y-91067273D01*
X149125699Y-91069952D01*
X149123020Y-91073960D01*
X149123018Y-91073963D01*
X149078540Y-91140530D01*
X149075859Y-91144543D01*
X149074918Y-91149271D01*
X149074917Y-91149275D01*
X149060715Y-91220680D01*
X149058358Y-91232529D01*
X149059299Y-91237260D01*
X149074917Y-91315782D01*
X149074918Y-91315784D01*
X149075859Y-91320515D01*
X149093739Y-91347274D01*
X149120123Y-91386762D01*
X149123642Y-91392028D01*
X149123643Y-91392029D01*
X149125699Y-91395106D01*
X149125087Y-91395514D01*
X149137776Y-91426148D01*
X149137776Y-91559089D01*
X149123424Y-91593737D01*
X148681513Y-92035648D01*
X148646865Y-92050000D01*
X148214183Y-92050000D01*
X148183632Y-92039310D01*
X148166412Y-92011905D01*
X148169895Y-91980976D01*
X148172186Y-91978105D01*
X148186807Y-91914044D01*
X148188784Y-91905385D01*
X148190013Y-91900000D01*
X148172186Y-91821895D01*
X148128205Y-91766745D01*
X148125678Y-91763576D01*
X148125677Y-91763575D01*
X148122236Y-91759260D01*
X148050057Y-91724500D01*
X147969943Y-91724500D01*
X147964970Y-91726894D01*
X147964969Y-91726895D01*
X147902738Y-91756864D01*
X147902736Y-91756865D01*
X147897764Y-91759260D01*
X147894323Y-91763573D01*
X147894321Y-91763576D01*
X147851255Y-91817579D01*
X147851253Y-91817581D01*
X147847814Y-91821895D01*
X147846586Y-91827274D01*
X147846585Y-91827277D01*
X147832204Y-91890288D01*
X147829987Y-91900000D01*
X147831216Y-91905385D01*
X147845778Y-91969188D01*
X147847814Y-91978105D01*
X147850104Y-91980976D01*
X147853588Y-92011905D01*
X147836368Y-92039310D01*
X147805817Y-92050000D01*
X147239827Y-92050000D01*
X147159173Y-92050000D01*
X147153588Y-92053223D01*
X147153585Y-92053225D01*
X147146992Y-92057032D01*
X147135179Y-92061925D01*
X147121596Y-92065565D01*
X147117038Y-92070122D01*
X147117036Y-92070124D01*
X147091310Y-92095850D01*
X147064565Y-92122595D01*
X147064564Y-92122596D01*
X147002010Y-92185150D01*
X146986117Y-92195770D01*
X146967365Y-92199500D01*
X146532635Y-92199500D01*
X146497987Y-92185148D01*
X145862839Y-91550000D01*
X146519987Y-91550000D01*
X146521216Y-91555385D01*
X146535982Y-91620082D01*
X146537814Y-91628105D01*
X146541254Y-91632419D01*
X146541255Y-91632420D01*
X146583417Y-91685290D01*
X146587764Y-91690740D01*
X146659943Y-91725500D01*
X146734537Y-91725500D01*
X146740057Y-91725500D01*
X146812236Y-91690740D01*
X146862186Y-91628105D01*
X146877698Y-91560143D01*
X146878784Y-91555385D01*
X146880013Y-91550000D01*
X146862186Y-91471895D01*
X146822617Y-91422277D01*
X146815678Y-91413576D01*
X146815677Y-91413575D01*
X146812236Y-91409260D01*
X146783692Y-91395514D01*
X146760396Y-91384295D01*
X146740057Y-91374500D01*
X146659943Y-91374500D01*
X146654970Y-91376894D01*
X146654969Y-91376895D01*
X146592738Y-91406864D01*
X146592736Y-91406865D01*
X146587764Y-91409260D01*
X146584323Y-91413573D01*
X146584321Y-91413576D01*
X146541255Y-91467579D01*
X146541253Y-91467581D01*
X146537814Y-91471895D01*
X146536586Y-91477274D01*
X146536585Y-91477277D01*
X146525065Y-91527753D01*
X146519987Y-91550000D01*
X145862839Y-91550000D01*
X144932465Y-90619626D01*
X144927904Y-90615065D01*
X144921672Y-90613395D01*
X144914323Y-90611426D01*
X144902506Y-90606531D01*
X144895914Y-90602725D01*
X144895911Y-90602724D01*
X144891193Y-90600000D01*
X146694487Y-90600000D01*
X146695716Y-90605385D01*
X146704933Y-90645770D01*
X146712314Y-90678105D01*
X146715754Y-90682419D01*
X146715755Y-90682420D01*
X146755255Y-90731952D01*
X146762264Y-90740740D01*
X146834443Y-90775500D01*
X146909037Y-90775500D01*
X146914557Y-90775500D01*
X146986736Y-90740740D01*
X147036686Y-90678105D01*
X147054513Y-90600000D01*
X147036686Y-90521895D01*
X146986736Y-90459260D01*
X146977763Y-90454939D01*
X146937500Y-90435549D01*
X146914557Y-90424500D01*
X146834443Y-90424500D01*
X146829470Y-90426894D01*
X146829469Y-90426895D01*
X146767238Y-90456864D01*
X146767236Y-90456865D01*
X146762264Y-90459260D01*
X146758823Y-90463573D01*
X146758821Y-90463576D01*
X146715755Y-90517579D01*
X146715753Y-90517581D01*
X146712314Y-90521895D01*
X146711086Y-90527274D01*
X146711085Y-90527277D01*
X146699530Y-90577905D01*
X146694487Y-90600000D01*
X144891193Y-90600000D01*
X144890327Y-90599500D01*
X144883879Y-90599499D01*
X144883876Y-90599499D01*
X144809679Y-90599499D01*
X144809678Y-90599499D01*
X144809674Y-90599499D01*
X144809672Y-90599499D01*
X144809671Y-90599500D01*
X144132635Y-90599500D01*
X144097987Y-90585148D01*
X143182465Y-89669626D01*
X143177904Y-89665065D01*
X143171672Y-89663395D01*
X143164323Y-89661426D01*
X143152506Y-89656531D01*
X143145914Y-89652725D01*
X143145911Y-89652724D01*
X143140327Y-89649500D01*
X143133879Y-89649499D01*
X143133876Y-89649499D01*
X143059679Y-89649499D01*
X143059678Y-89649499D01*
X143059674Y-89649499D01*
X143059672Y-89649499D01*
X143059671Y-89649500D01*
X142972635Y-89649500D01*
X142937987Y-89635148D01*
X142877839Y-89575000D01*
X143619987Y-89575000D01*
X143621216Y-89580385D01*
X143636313Y-89646532D01*
X143637814Y-89653105D01*
X143641254Y-89657419D01*
X143641255Y-89657420D01*
X143666623Y-89689231D01*
X143687764Y-89715740D01*
X143759943Y-89750500D01*
X143834537Y-89750500D01*
X143840057Y-89750500D01*
X143912236Y-89715740D01*
X143962186Y-89653105D01*
X143974307Y-89600000D01*
X145606844Y-89600000D01*
X145608072Y-89605380D01*
X145620452Y-89659624D01*
X145627210Y-89689231D01*
X145630654Y-89693549D01*
X145675258Y-89749481D01*
X145684276Y-89760788D01*
X145766737Y-89800500D01*
X145852743Y-89800500D01*
X145858263Y-89800500D01*
X145940724Y-89760788D01*
X145997790Y-89689231D01*
X146018156Y-89600000D01*
X145997790Y-89510769D01*
X145940724Y-89439212D01*
X145858263Y-89399500D01*
X145766737Y-89399500D01*
X145761764Y-89401894D01*
X145761763Y-89401895D01*
X145689250Y-89436816D01*
X145689248Y-89436817D01*
X145684276Y-89439212D01*
X145680835Y-89443526D01*
X145680832Y-89443529D01*
X145634537Y-89501581D01*
X145627210Y-89510769D01*
X145625981Y-89516150D01*
X145625981Y-89516152D01*
X145620689Y-89539338D01*
X145606844Y-89600000D01*
X143974307Y-89600000D01*
X143980013Y-89575000D01*
X143962186Y-89496895D01*
X143912236Y-89434260D01*
X143840057Y-89399500D01*
X143759943Y-89399500D01*
X143754970Y-89401894D01*
X143754969Y-89401895D01*
X143692738Y-89431864D01*
X143692736Y-89431865D01*
X143687764Y-89434260D01*
X143684323Y-89438573D01*
X143684321Y-89438576D01*
X143641255Y-89492579D01*
X143641253Y-89492581D01*
X143637814Y-89496895D01*
X143636586Y-89502274D01*
X143636585Y-89502277D01*
X143628126Y-89539341D01*
X143619987Y-89575000D01*
X142877839Y-89575000D01*
X142532409Y-89229570D01*
X142532409Y-89229569D01*
X142517904Y-89215065D01*
X142504323Y-89211426D01*
X142492506Y-89206531D01*
X142485914Y-89202725D01*
X142485911Y-89202724D01*
X142480327Y-89199500D01*
X142473879Y-89199499D01*
X142473876Y-89199499D01*
X142399679Y-89199499D01*
X142399678Y-89199499D01*
X142399674Y-89199499D01*
X142399672Y-89199499D01*
X142399671Y-89199500D01*
X140732635Y-89199500D01*
X140697987Y-89185148D01*
X140364852Y-88852013D01*
X140350500Y-88817365D01*
X140350500Y-88502126D01*
X147245029Y-88502126D01*
X147265244Y-88733189D01*
X147265986Y-88737392D01*
X147326015Y-88961423D01*
X147327472Y-88965429D01*
X147425497Y-89175643D01*
X147427626Y-89179330D01*
X147560658Y-89369318D01*
X147563407Y-89372595D01*
X147596086Y-89405274D01*
X147602979Y-89408129D01*
X147609871Y-89405274D01*
X148510585Y-88504561D01*
X148513218Y-88500000D01*
X148688890Y-88500000D01*
X148691745Y-88506892D01*
X149590127Y-89405274D01*
X149597021Y-89408129D01*
X149603910Y-89405276D01*
X149636599Y-89372588D01*
X149639338Y-89369324D01*
X149772373Y-89179330D01*
X149774502Y-89175643D01*
X149872527Y-88965429D01*
X149873984Y-88961423D01*
X149934013Y-88737392D01*
X149934755Y-88733189D01*
X149954971Y-88502126D01*
X149954971Y-88497874D01*
X149934755Y-88266810D01*
X149934013Y-88262607D01*
X149873984Y-88038576D01*
X149872527Y-88034570D01*
X149774502Y-87824358D01*
X149772373Y-87820670D01*
X149639341Y-87630681D01*
X149636592Y-87627404D01*
X149601581Y-87592393D01*
X149597020Y-87589760D01*
X149592458Y-87592393D01*
X148691745Y-88493107D01*
X148688890Y-88500000D01*
X148513218Y-88500000D01*
X148510585Y-88495438D01*
X147607540Y-87592393D01*
X147602978Y-87589759D01*
X147598418Y-87592392D01*
X147563401Y-87627410D01*
X147560661Y-87630676D01*
X147427626Y-87820670D01*
X147425497Y-87824358D01*
X147327472Y-88034570D01*
X147326015Y-88038576D01*
X147265986Y-88262607D01*
X147265244Y-88266810D01*
X147245029Y-88497874D01*
X147245029Y-88502126D01*
X140350500Y-88502126D01*
X140350500Y-87502978D01*
X147689759Y-87502978D01*
X147692393Y-87507540D01*
X148595438Y-88410585D01*
X148599999Y-88413218D01*
X148604561Y-88410585D01*
X149505274Y-87509871D01*
X149508129Y-87502979D01*
X149505274Y-87496086D01*
X149472595Y-87463407D01*
X149469318Y-87460658D01*
X149279330Y-87327626D01*
X149275643Y-87325497D01*
X149065429Y-87227472D01*
X149061423Y-87226015D01*
X148837392Y-87165986D01*
X148833189Y-87165244D01*
X148602126Y-87145029D01*
X148597874Y-87145029D01*
X148366810Y-87165244D01*
X148362607Y-87165986D01*
X148138576Y-87226015D01*
X148134570Y-87227472D01*
X147924358Y-87325497D01*
X147920670Y-87327626D01*
X147730676Y-87460661D01*
X147727410Y-87463401D01*
X147692392Y-87498418D01*
X147689759Y-87502978D01*
X140350500Y-87502978D01*
X140350500Y-87243619D01*
X140363188Y-87212985D01*
X140362577Y-87212577D01*
X140362576Y-87212577D01*
X140412417Y-87137986D01*
X140429918Y-87050000D01*
X140412417Y-86962014D01*
X140362577Y-86887423D01*
X140287986Y-86837583D01*
X140283255Y-86836642D01*
X140283253Y-86836641D01*
X140204731Y-86821023D01*
X140200000Y-86820082D01*
X140195269Y-86821023D01*
X140116746Y-86836641D01*
X140116742Y-86836642D01*
X140112014Y-86837583D01*
X140108003Y-86840262D01*
X140107998Y-86840265D01*
X140052222Y-86877533D01*
X140025000Y-86885791D01*
X139997778Y-86877533D01*
X139942001Y-86840265D01*
X139941998Y-86840263D01*
X139937986Y-86837583D01*
X139933255Y-86836642D01*
X139933253Y-86836641D01*
X139854731Y-86821023D01*
X139850000Y-86820082D01*
X139845269Y-86821023D01*
X139766746Y-86836641D01*
X139766742Y-86836642D01*
X139762014Y-86837583D01*
X139758002Y-86840263D01*
X139758001Y-86840264D01*
X139691434Y-86884742D01*
X139691431Y-86884744D01*
X139687423Y-86887423D01*
X139684744Y-86891431D01*
X139684742Y-86891434D01*
X139640264Y-86958001D01*
X139637583Y-86962014D01*
X139636642Y-86966742D01*
X139636641Y-86966746D01*
X139627837Y-87011010D01*
X139620082Y-87050000D01*
X139621023Y-87054731D01*
X139636641Y-87133253D01*
X139636642Y-87133255D01*
X139637583Y-87137986D01*
X139640264Y-87141998D01*
X139674999Y-87193984D01*
X139685366Y-87209499D01*
X139685367Y-87209500D01*
X139687423Y-87212577D01*
X139686811Y-87212985D01*
X139699500Y-87243619D01*
X139699500Y-87594122D01*
X139690463Y-87622477D01*
X139666684Y-87640372D01*
X139636935Y-87641207D01*
X139612191Y-87624673D01*
X139591381Y-87598579D01*
X139591379Y-87598577D01*
X139587936Y-87594260D01*
X139515757Y-87559500D01*
X139435643Y-87559500D01*
X139430670Y-87561894D01*
X139430669Y-87561895D01*
X139368438Y-87591864D01*
X139368436Y-87591865D01*
X139363464Y-87594260D01*
X139360023Y-87598573D01*
X139360021Y-87598576D01*
X139316955Y-87652579D01*
X139316953Y-87652581D01*
X139313514Y-87656895D01*
X139312286Y-87662274D01*
X139312285Y-87662277D01*
X139296916Y-87729615D01*
X139295687Y-87735000D01*
X139296916Y-87740385D01*
X139305470Y-87777865D01*
X139313514Y-87813105D01*
X139316954Y-87817419D01*
X139316955Y-87817420D01*
X139340961Y-87847523D01*
X139363464Y-87875740D01*
X139435643Y-87910500D01*
X139510237Y-87910500D01*
X139515757Y-87910500D01*
X139587936Y-87875740D01*
X139592883Y-87869536D01*
X139612191Y-87845327D01*
X139636935Y-87828793D01*
X139666684Y-87829628D01*
X139690463Y-87847523D01*
X139699500Y-87875878D01*
X139699500Y-89124122D01*
X139690463Y-89152477D01*
X139666684Y-89170372D01*
X139636935Y-89171207D01*
X139612191Y-89154673D01*
X139591381Y-89128579D01*
X139591379Y-89128577D01*
X139587936Y-89124260D01*
X139515757Y-89089500D01*
X139435643Y-89089500D01*
X139430670Y-89091894D01*
X139430669Y-89091895D01*
X139368438Y-89121864D01*
X139368436Y-89121865D01*
X139363464Y-89124260D01*
X139360023Y-89128573D01*
X139360021Y-89128576D01*
X139316955Y-89182579D01*
X139316953Y-89182581D01*
X139313514Y-89186895D01*
X139312286Y-89192274D01*
X139312285Y-89192277D01*
X139302549Y-89234935D01*
X139295687Y-89265000D01*
X139313514Y-89343105D01*
X139316954Y-89347419D01*
X139316955Y-89347420D01*
X139358487Y-89399500D01*
X139363464Y-89405740D01*
X139435643Y-89440500D01*
X139510237Y-89440500D01*
X139515757Y-89440500D01*
X139587936Y-89405740D01*
X139637886Y-89343105D01*
X139655713Y-89265000D01*
X139650248Y-89241057D01*
X139653292Y-89210143D01*
X139674316Y-89187270D01*
X139704868Y-89181637D01*
X139732667Y-89195508D01*
X139772088Y-89234929D01*
X139772100Y-89234939D01*
X140093013Y-89555852D01*
X140107365Y-89590500D01*
X140093013Y-89625148D01*
X140058365Y-89639500D01*
X139600827Y-89639500D01*
X139520173Y-89639500D01*
X139514588Y-89642723D01*
X139514585Y-89642725D01*
X139507992Y-89646532D01*
X139496179Y-89651425D01*
X139482596Y-89655065D01*
X139478038Y-89659622D01*
X139478036Y-89659624D01*
X139330489Y-89807171D01*
X139299856Y-89819859D01*
X139300000Y-89820582D01*
X139296369Y-89821304D01*
X139296367Y-89821304D01*
X139295269Y-89821523D01*
X139216746Y-89837141D01*
X139216742Y-89837142D01*
X139212014Y-89838083D01*
X139208002Y-89840763D01*
X139208001Y-89840764D01*
X139141434Y-89885242D01*
X139141431Y-89885244D01*
X139137423Y-89887923D01*
X139134744Y-89891931D01*
X139134742Y-89891934D01*
X139090264Y-89958501D01*
X139087583Y-89962514D01*
X139086642Y-89967242D01*
X139086641Y-89967246D01*
X139078126Y-90010059D01*
X139061152Y-90038377D01*
X139030067Y-90049500D01*
X137340327Y-90049500D01*
X137259673Y-90049500D01*
X137254088Y-90052723D01*
X137254085Y-90052725D01*
X137247492Y-90056532D01*
X137235679Y-90061425D01*
X137222096Y-90065065D01*
X137217538Y-90069622D01*
X137217536Y-90069624D01*
X137189624Y-90097536D01*
X137165065Y-90122095D01*
X137165064Y-90122096D01*
X137056413Y-90230748D01*
X136952013Y-90335148D01*
X136936117Y-90345770D01*
X136917365Y-90349500D01*
X135640327Y-90349500D01*
X135559673Y-90349500D01*
X135554088Y-90352723D01*
X135554085Y-90352725D01*
X135547492Y-90356532D01*
X135535679Y-90361425D01*
X135522096Y-90365065D01*
X135517538Y-90369622D01*
X135517536Y-90369624D01*
X135491270Y-90395890D01*
X135465065Y-90422095D01*
X135465064Y-90422096D01*
X135354609Y-90532552D01*
X135252013Y-90635148D01*
X135236117Y-90645770D01*
X135217365Y-90649500D01*
X134769000Y-90649500D01*
X134734352Y-90635148D01*
X134720000Y-90600500D01*
X134720000Y-89753749D01*
X134720166Y-89749920D01*
X134720500Y-89748031D01*
X134720500Y-89650000D01*
X134720500Y-89617712D01*
X134720500Y-89497020D01*
X135689760Y-89497020D01*
X135692393Y-89501581D01*
X135727404Y-89536592D01*
X135730681Y-89539341D01*
X135920669Y-89672373D01*
X135924356Y-89674502D01*
X136134570Y-89772527D01*
X136138576Y-89773984D01*
X136362607Y-89834013D01*
X136366810Y-89834755D01*
X136597874Y-89854971D01*
X136602126Y-89854971D01*
X136833189Y-89834755D01*
X136837392Y-89834013D01*
X137061423Y-89773984D01*
X137065429Y-89772527D01*
X137275643Y-89674502D01*
X137279330Y-89672373D01*
X137469324Y-89539338D01*
X137472588Y-89536599D01*
X137505276Y-89503910D01*
X137508129Y-89497021D01*
X137505274Y-89490127D01*
X136606892Y-88591745D01*
X136600000Y-88588890D01*
X136593107Y-88591745D01*
X135692393Y-89492458D01*
X135689760Y-89497020D01*
X134720500Y-89497020D01*
X134720500Y-88502126D01*
X135245029Y-88502126D01*
X135265244Y-88733189D01*
X135265986Y-88737392D01*
X135326015Y-88961423D01*
X135327472Y-88965429D01*
X135425497Y-89175643D01*
X135427626Y-89179330D01*
X135560658Y-89369318D01*
X135563407Y-89372595D01*
X135596086Y-89405274D01*
X135602979Y-89408129D01*
X135609871Y-89405274D01*
X136510585Y-88504561D01*
X136513218Y-88500000D01*
X136688890Y-88500000D01*
X136691745Y-88506892D01*
X137590127Y-89405274D01*
X137597021Y-89408129D01*
X137603910Y-89405276D01*
X137636599Y-89372588D01*
X137639338Y-89369324D01*
X137772373Y-89179330D01*
X137774502Y-89175643D01*
X137872527Y-88965429D01*
X137873984Y-88961423D01*
X137934013Y-88737392D01*
X137934755Y-88733189D01*
X137954971Y-88502126D01*
X137954971Y-88497874D01*
X137934755Y-88266810D01*
X137934013Y-88262607D01*
X137873984Y-88038576D01*
X137872527Y-88034570D01*
X137774502Y-87824358D01*
X137772373Y-87820670D01*
X137639341Y-87630681D01*
X137636592Y-87627404D01*
X137601581Y-87592393D01*
X137597020Y-87589760D01*
X137592458Y-87592393D01*
X136691745Y-88493107D01*
X136688890Y-88500000D01*
X136513218Y-88500000D01*
X136510585Y-88495438D01*
X135607540Y-87592393D01*
X135602978Y-87589759D01*
X135598418Y-87592392D01*
X135563401Y-87627410D01*
X135560661Y-87630676D01*
X135427626Y-87820670D01*
X135425497Y-87824358D01*
X135327472Y-88034570D01*
X135326015Y-88038576D01*
X135265986Y-88262607D01*
X135265244Y-88266810D01*
X135245029Y-88497874D01*
X135245029Y-88502126D01*
X134720500Y-88502126D01*
X134720500Y-88501603D01*
X134720605Y-88498398D01*
X134720952Y-88493107D01*
X134736369Y-88257871D01*
X134737206Y-88251522D01*
X134770246Y-88085423D01*
X134783914Y-88016702D01*
X134785572Y-88010515D01*
X134862539Y-87783777D01*
X134864984Y-87777874D01*
X134970892Y-87563114D01*
X134974080Y-87557593D01*
X135010572Y-87502978D01*
X135689759Y-87502978D01*
X135692393Y-87507540D01*
X136595438Y-88410585D01*
X136599999Y-88413218D01*
X136604561Y-88410585D01*
X137505274Y-87509871D01*
X137508129Y-87502979D01*
X137505274Y-87496086D01*
X137472595Y-87463407D01*
X137469318Y-87460658D01*
X137279330Y-87327626D01*
X137275643Y-87325497D01*
X137065429Y-87227472D01*
X137061423Y-87226015D01*
X136837392Y-87165986D01*
X136833189Y-87165244D01*
X136602126Y-87145029D01*
X136597874Y-87145029D01*
X136366810Y-87165244D01*
X136362607Y-87165986D01*
X136138576Y-87226015D01*
X136134570Y-87227472D01*
X135924358Y-87325497D01*
X135920670Y-87327626D01*
X135730676Y-87460661D01*
X135727410Y-87463401D01*
X135692392Y-87498418D01*
X135689759Y-87502978D01*
X135010572Y-87502978D01*
X135107112Y-87358495D01*
X135111004Y-87353424D01*
X135268882Y-87173399D01*
X135273399Y-87168882D01*
X135453424Y-87011004D01*
X135458495Y-87007112D01*
X135657593Y-86874080D01*
X135663114Y-86870892D01*
X135877874Y-86764984D01*
X135883777Y-86762539D01*
X136110518Y-86685571D01*
X136116702Y-86683914D01*
X136351527Y-86637205D01*
X136357871Y-86636369D01*
X136598397Y-86620605D01*
X136601603Y-86620500D01*
X143095562Y-86620500D01*
X143098777Y-86620500D01*
X143169051Y-86601669D01*
X143181733Y-86600000D01*
X144218267Y-86600000D01*
X144230948Y-86601669D01*
G37*
%TD.AperFunction*%
%TA.AperFunction,Conductor*%
G36*
X148384148Y-96557971D02*
G01*
X148384742Y-96558565D01*
X148387423Y-96562577D01*
X148462014Y-96612417D01*
X148550000Y-96629918D01*
X148550285Y-96629861D01*
X148564588Y-96632704D01*
X148580489Y-96643328D01*
X148715065Y-96777904D01*
X148772096Y-96834935D01*
X148785677Y-96838573D01*
X148797497Y-96843469D01*
X148809673Y-96850500D01*
X148890326Y-96850501D01*
X148890328Y-96850500D01*
X149177365Y-96850500D01*
X149212013Y-96864852D01*
X149375148Y-97027987D01*
X149389500Y-97062635D01*
X149389500Y-97657365D01*
X149375148Y-97692013D01*
X149061763Y-98005398D01*
X149027115Y-98019750D01*
X147002385Y-98019750D01*
X146967737Y-98005398D01*
X145991965Y-97029626D01*
X145987404Y-97025065D01*
X145981172Y-97023395D01*
X145973823Y-97021426D01*
X145962006Y-97016531D01*
X145955414Y-97012725D01*
X145955411Y-97012724D01*
X145949827Y-97009500D01*
X145943379Y-97009499D01*
X145943376Y-97009499D01*
X145869179Y-97009499D01*
X145869178Y-97009499D01*
X145869174Y-97009499D01*
X145869172Y-97009499D01*
X145869171Y-97009500D01*
X145100327Y-97009500D01*
X145019673Y-97009500D01*
X145014088Y-97012723D01*
X145014085Y-97012725D01*
X145007492Y-97016532D01*
X144995680Y-97021425D01*
X144988327Y-97023395D01*
X144988325Y-97023395D01*
X144982096Y-97025065D01*
X144977534Y-97029626D01*
X144971948Y-97032852D01*
X144970716Y-97030719D01*
X144949856Y-97039360D01*
X144950000Y-97040082D01*
X144946371Y-97040803D01*
X144946367Y-97040804D01*
X144945269Y-97041023D01*
X144866746Y-97056641D01*
X144866742Y-97056642D01*
X144862014Y-97057583D01*
X144858002Y-97060263D01*
X144858001Y-97060264D01*
X144791434Y-97104742D01*
X144791431Y-97104744D01*
X144787423Y-97107423D01*
X144784744Y-97111431D01*
X144784741Y-97111435D01*
X144769786Y-97133817D01*
X144739052Y-97154560D01*
X144702588Y-97147836D01*
X144681274Y-97117497D01*
X144676686Y-97097393D01*
X144630826Y-97039887D01*
X144630178Y-97039074D01*
X144630177Y-97039073D01*
X144626736Y-97034758D01*
X144616079Y-97029626D01*
X144565965Y-97005492D01*
X144554557Y-96999998D01*
X144474443Y-96999998D01*
X144469472Y-97002391D01*
X144469471Y-97002392D01*
X144432466Y-97020213D01*
X144401309Y-97024055D01*
X144374215Y-97008200D01*
X144362304Y-96979155D01*
X144370463Y-96948843D01*
X144405606Y-96896249D01*
X144420784Y-96819940D01*
X144437758Y-96791623D01*
X144468843Y-96780500D01*
X145947365Y-96780500D01*
X145982013Y-96794852D01*
X146378103Y-97190941D01*
X146765065Y-97577903D01*
X146765065Y-97577904D01*
X146822096Y-97634935D01*
X146835677Y-97638573D01*
X146847497Y-97643469D01*
X146859673Y-97650500D01*
X146940326Y-97650501D01*
X146940328Y-97650500D01*
X147809673Y-97650500D01*
X147869814Y-97650500D01*
X147890327Y-97650500D01*
X147902505Y-97643467D01*
X147914321Y-97638573D01*
X147927904Y-97634935D01*
X147984935Y-97577905D01*
X147984935Y-97577903D01*
X148270430Y-97292409D01*
X148284935Y-97277904D01*
X148288573Y-97264321D01*
X148293467Y-97252505D01*
X148300500Y-97240327D01*
X148300501Y-97159674D01*
X148300500Y-97159672D01*
X148300500Y-96592619D01*
X148314852Y-96557971D01*
X148349500Y-96543619D01*
X148384148Y-96557971D01*
G37*
%TD.AperFunction*%
%TA.AperFunction,Conductor*%
G36*
X138390152Y-91974760D02*
G01*
X138410922Y-91998446D01*
X138412979Y-92029881D01*
X138411424Y-92035682D01*
X138406532Y-92047492D01*
X138402725Y-92054085D01*
X138402723Y-92054088D01*
X138399500Y-92059673D01*
X138399499Y-92066119D01*
X138399499Y-92066123D01*
X138399499Y-92100144D01*
X138399499Y-92140326D01*
X138399500Y-92140328D01*
X138399500Y-93294870D01*
X138390989Y-93316259D01*
X138399500Y-93339530D01*
X138399500Y-93559673D01*
X138399500Y-93640327D01*
X138402724Y-93645911D01*
X138402725Y-93645914D01*
X138406531Y-93652506D01*
X138411426Y-93664323D01*
X138413395Y-93671674D01*
X138413396Y-93671676D01*
X138415065Y-93677904D01*
X138419624Y-93682463D01*
X138465149Y-93727989D01*
X138479500Y-93762637D01*
X138479500Y-96739673D01*
X138479500Y-96820327D01*
X138482724Y-96825911D01*
X138482725Y-96825914D01*
X138486531Y-96832506D01*
X138491426Y-96844323D01*
X138493395Y-96851674D01*
X138493396Y-96851676D01*
X138495065Y-96857904D01*
X138499624Y-96862463D01*
X138552094Y-96914934D01*
X138552100Y-96914939D01*
X138756671Y-97119510D01*
X138769360Y-97150143D01*
X138770082Y-97150000D01*
X138770803Y-97153628D01*
X138770804Y-97153630D01*
X138771023Y-97154731D01*
X138786641Y-97233253D01*
X138786642Y-97233255D01*
X138787583Y-97237986D01*
X138797281Y-97252500D01*
X138823672Y-97291998D01*
X138837423Y-97312577D01*
X138912014Y-97362417D01*
X139000000Y-97379918D01*
X139004731Y-97378977D01*
X139004735Y-97378977D01*
X139065191Y-97366951D01*
X139074421Y-97365115D01*
X139104931Y-97368877D01*
X139127195Y-97390074D01*
X139132451Y-97420363D01*
X139118629Y-97447821D01*
X138881303Y-97685148D01*
X138865407Y-97695770D01*
X138846655Y-97699500D01*
X136766391Y-97699500D01*
X136734083Y-97687340D01*
X136717810Y-97656896D01*
X136725649Y-97623278D01*
X136742876Y-97597494D01*
X136742876Y-97597493D01*
X136745558Y-97593480D01*
X136765000Y-97495740D01*
X136745558Y-97398000D01*
X136718350Y-97357279D01*
X136710092Y-97330057D01*
X136710092Y-94291980D01*
X136711563Y-94283320D01*
X136711512Y-94283315D01*
X136712129Y-94277831D01*
X136713954Y-94272618D01*
X136710400Y-94241070D01*
X136710092Y-94235585D01*
X136710092Y-94229757D01*
X136710092Y-94227002D01*
X136708179Y-94218625D01*
X136707263Y-94213229D01*
X136703708Y-94181668D01*
X136700770Y-94176993D01*
X136698947Y-94171782D01*
X136698995Y-94171765D01*
X136698553Y-94170696D01*
X136698507Y-94170719D01*
X136696110Y-94165742D01*
X136694882Y-94160361D01*
X136675088Y-94135541D01*
X136671907Y-94131058D01*
X136668804Y-94126120D01*
X136668803Y-94126119D01*
X136667340Y-94123790D01*
X136661273Y-94117723D01*
X136657611Y-94113626D01*
X136652218Y-94106864D01*
X136637816Y-94088804D01*
X136632842Y-94086408D01*
X136628527Y-94082967D01*
X136628558Y-94082927D01*
X136621392Y-94077842D01*
X136519921Y-93976371D01*
X136414851Y-93871302D01*
X136404230Y-93855407D01*
X136400500Y-93836655D01*
X136400500Y-93643345D01*
X136414852Y-93608697D01*
X136487584Y-93535965D01*
X136561802Y-93461746D01*
X136568965Y-93456665D01*
X136568933Y-93456625D01*
X136573246Y-93453184D01*
X136578224Y-93450788D01*
X136598029Y-93425951D01*
X136601667Y-93421882D01*
X136607748Y-93415802D01*
X136609978Y-93412253D01*
X136612312Y-93408537D01*
X136615485Y-93404062D01*
X136635290Y-93379231D01*
X136636518Y-93373844D01*
X136638914Y-93368871D01*
X136638961Y-93368893D01*
X136639402Y-93367828D01*
X136639352Y-93367811D01*
X136641174Y-93362603D01*
X136644115Y-93357924D01*
X136647670Y-93326364D01*
X136648586Y-93320973D01*
X136650500Y-93312590D01*
X136650500Y-93304004D01*
X136650808Y-93298518D01*
X136653744Y-93272460D01*
X136653743Y-93272459D01*
X136654362Y-93266974D01*
X136652538Y-93261761D01*
X136651920Y-93256277D01*
X136651971Y-93256271D01*
X136650500Y-93247612D01*
X136650500Y-93115683D01*
X136658758Y-93088461D01*
X136677794Y-93059970D01*
X136685966Y-93047740D01*
X136695520Y-92999703D01*
X136708929Y-92974618D01*
X136827930Y-92855617D01*
X136855728Y-92841747D01*
X136886280Y-92847380D01*
X136907304Y-92870252D01*
X136910350Y-92901168D01*
X136908587Y-92908893D01*
X136906528Y-92917916D01*
X136926894Y-93007147D01*
X136944776Y-93029570D01*
X136977931Y-93071145D01*
X136983960Y-93078704D01*
X137066421Y-93118416D01*
X137152427Y-93118416D01*
X137157947Y-93118416D01*
X137240408Y-93078704D01*
X137297474Y-93007147D01*
X137299105Y-93000000D01*
X137544592Y-93000000D01*
X137545534Y-93004736D01*
X137563092Y-93093007D01*
X137563093Y-93093009D01*
X137564034Y-93097740D01*
X137566713Y-93101750D01*
X137566714Y-93101751D01*
X137611067Y-93168132D01*
X137619399Y-93180601D01*
X137702260Y-93235966D01*
X137750295Y-93245520D01*
X137775381Y-93258930D01*
X137885148Y-93368697D01*
X137899500Y-93403345D01*
X137899500Y-96984317D01*
X137891242Y-97011539D01*
X137866716Y-97048245D01*
X137866714Y-97048247D01*
X137864034Y-97052260D01*
X137863092Y-97056994D01*
X137863092Y-97056995D01*
X137847175Y-97137014D01*
X137844592Y-97150000D01*
X137845534Y-97154736D01*
X137863092Y-97243007D01*
X137863093Y-97243009D01*
X137864034Y-97247740D01*
X137866713Y-97251750D01*
X137866714Y-97251751D01*
X137916264Y-97325910D01*
X137919399Y-97330601D01*
X138002260Y-97385966D01*
X138100000Y-97405408D01*
X138197740Y-97385966D01*
X138280601Y-97330601D01*
X138335966Y-97247740D01*
X138355408Y-97150000D01*
X138335966Y-97052260D01*
X138315363Y-97021425D01*
X138308758Y-97011539D01*
X138300500Y-96984317D01*
X138300500Y-93342388D01*
X138303248Y-93326208D01*
X138304250Y-93323345D01*
X138310212Y-93316080D01*
X138301808Y-93300355D01*
X138300808Y-93291478D01*
X138300500Y-93285993D01*
X138300500Y-93280165D01*
X138300500Y-93277410D01*
X138298587Y-93269033D01*
X138297671Y-93263637D01*
X138294116Y-93232076D01*
X138291178Y-93227401D01*
X138289355Y-93222190D01*
X138289403Y-93222173D01*
X138288960Y-93221103D01*
X138288914Y-93221126D01*
X138286518Y-93216150D01*
X138285290Y-93210769D01*
X138268779Y-93190065D01*
X138265486Y-93185935D01*
X138262316Y-93181468D01*
X138257748Y-93174199D01*
X138251681Y-93168132D01*
X138248028Y-93164045D01*
X138228224Y-93139212D01*
X138223249Y-93136816D01*
X138218933Y-93133374D01*
X138218964Y-93133334D01*
X138211798Y-93128249D01*
X138058930Y-92975381D01*
X138045520Y-92950295D01*
X138035966Y-92902260D01*
X137980601Y-92819399D01*
X137971751Y-92813486D01*
X137901751Y-92766714D01*
X137901750Y-92766713D01*
X137897740Y-92764034D01*
X137893009Y-92763093D01*
X137893007Y-92763092D01*
X137804736Y-92745534D01*
X137800000Y-92744592D01*
X137795264Y-92745534D01*
X137706992Y-92763092D01*
X137706988Y-92763093D01*
X137702260Y-92764034D01*
X137698250Y-92766712D01*
X137698248Y-92766714D01*
X137623410Y-92816718D01*
X137623407Y-92816720D01*
X137619399Y-92819399D01*
X137616720Y-92823407D01*
X137616718Y-92823410D01*
X137566714Y-92898248D01*
X137566712Y-92898250D01*
X137564034Y-92902260D01*
X137563093Y-92906988D01*
X137563092Y-92906992D01*
X137546184Y-92991998D01*
X137544592Y-93000000D01*
X137299105Y-93000000D01*
X137317840Y-92917916D01*
X137297474Y-92828685D01*
X137246150Y-92764328D01*
X137243851Y-92761445D01*
X137243850Y-92761444D01*
X137240408Y-92757128D01*
X137198905Y-92737141D01*
X137162920Y-92719811D01*
X137157947Y-92717416D01*
X137084429Y-92717416D01*
X137057206Y-92709158D01*
X137039159Y-92687167D01*
X137036371Y-92658856D01*
X137049781Y-92633768D01*
X137118932Y-92564618D01*
X137243697Y-92439852D01*
X137278346Y-92425500D01*
X137762612Y-92425500D01*
X137771271Y-92426971D01*
X137771277Y-92426920D01*
X137776760Y-92427537D01*
X137781974Y-92429362D01*
X137813521Y-92425808D01*
X137819007Y-92425500D01*
X137824836Y-92425500D01*
X137827590Y-92425500D01*
X137835960Y-92423589D01*
X137841367Y-92422670D01*
X137872924Y-92419116D01*
X137877598Y-92416178D01*
X137882812Y-92414354D01*
X137882829Y-92414402D01*
X137883894Y-92413961D01*
X137883872Y-92413914D01*
X137888844Y-92411519D01*
X137894231Y-92410290D01*
X137919064Y-92390485D01*
X137923537Y-92387312D01*
X137930801Y-92382748D01*
X137936877Y-92376671D01*
X137940946Y-92373033D01*
X137965788Y-92353224D01*
X137968183Y-92348249D01*
X137971626Y-92343932D01*
X137971665Y-92343963D01*
X137976747Y-92336800D01*
X138331003Y-91982545D01*
X138359255Y-91968613D01*
X138390152Y-91974760D01*
G37*
%TD.AperFunction*%
%TA.AperFunction,Conductor*%
G36*
X143853013Y-96384852D02*
G01*
X143867365Y-96419500D01*
X143853013Y-96454148D01*
X143717840Y-96589321D01*
X143683192Y-96603673D01*
X143655500Y-96603673D01*
X143649915Y-96606896D01*
X143649912Y-96606898D01*
X143643319Y-96610705D01*
X143631506Y-96615598D01*
X143617923Y-96619238D01*
X143613365Y-96623795D01*
X143613363Y-96623797D01*
X143586563Y-96650597D01*
X143560892Y-96676268D01*
X143560891Y-96676269D01*
X143125726Y-97111435D01*
X142697013Y-97540148D01*
X142681117Y-97550770D01*
X142662365Y-97554500D01*
X142186536Y-97554500D01*
X142157347Y-97544857D01*
X142139646Y-97519724D01*
X142140400Y-97488993D01*
X142155773Y-97469292D01*
X142155152Y-97468671D01*
X142158564Y-97465257D01*
X142162577Y-97462577D01*
X142212417Y-97387986D01*
X142229918Y-97300000D01*
X142212417Y-97212014D01*
X142207446Y-97204574D01*
X142199189Y-97177009D01*
X142207832Y-97149560D01*
X142230395Y-97131697D01*
X142255614Y-97129837D01*
X142256444Y-97130237D01*
X142331038Y-97130237D01*
X142336558Y-97130237D01*
X142408737Y-97095477D01*
X142458687Y-97032842D01*
X142476514Y-96954737D01*
X142458687Y-96876632D01*
X142423498Y-96832506D01*
X142412179Y-96818313D01*
X142412178Y-96818312D01*
X142408737Y-96813997D01*
X142396830Y-96808263D01*
X142356098Y-96788647D01*
X142333211Y-96765760D01*
X142329588Y-96733596D01*
X142346808Y-96706190D01*
X142377359Y-96695500D01*
X143158877Y-96695500D01*
X143165328Y-96695500D01*
X143177506Y-96688467D01*
X143189322Y-96683573D01*
X143202905Y-96679935D01*
X143259936Y-96622905D01*
X143259936Y-96622903D01*
X143497987Y-96384852D01*
X143532636Y-96370500D01*
X143818365Y-96370500D01*
X143853013Y-96384852D01*
G37*
%TD.AperFunction*%
%TA.AperFunction,Conductor*%
G36*
X148245587Y-95908758D02*
G01*
X148263634Y-95930749D01*
X148266422Y-95959060D01*
X148253012Y-95984148D01*
X148231341Y-96005819D01*
X148215065Y-96022095D01*
X148215064Y-96022096D01*
X148072096Y-96165065D01*
X148019626Y-96217534D01*
X148019624Y-96217536D01*
X148015065Y-96222096D01*
X148013396Y-96228323D01*
X148013395Y-96228326D01*
X148011425Y-96235680D01*
X148006532Y-96247492D01*
X148002725Y-96254085D01*
X148002723Y-96254088D01*
X147999500Y-96259673D01*
X147999499Y-96266119D01*
X147999499Y-96266123D01*
X147999499Y-96300601D01*
X147999499Y-96340326D01*
X147999500Y-96340328D01*
X147999500Y-97117365D01*
X147985148Y-97152013D01*
X147802013Y-97335148D01*
X147767365Y-97349500D01*
X146982635Y-97349500D01*
X146947987Y-97335148D01*
X146112465Y-96499626D01*
X146107904Y-96495065D01*
X146101672Y-96493395D01*
X146094323Y-96491426D01*
X146082506Y-96486531D01*
X146075914Y-96482725D01*
X146075911Y-96482724D01*
X146070327Y-96479500D01*
X146063879Y-96479499D01*
X146063876Y-96479499D01*
X145989679Y-96479499D01*
X145989678Y-96479499D01*
X145989674Y-96479499D01*
X145989672Y-96479499D01*
X145989671Y-96479500D01*
X145198456Y-96479500D01*
X145166148Y-96467340D01*
X145149875Y-96436896D01*
X145157714Y-96403277D01*
X145163578Y-96394500D01*
X145182594Y-96366041D01*
X145200095Y-96278055D01*
X145199154Y-96273324D01*
X145199154Y-96273319D01*
X145186372Y-96209059D01*
X145189160Y-96180748D01*
X145207207Y-96158758D01*
X145234430Y-96150500D01*
X145263429Y-96150500D01*
X145286528Y-96156286D01*
X145304171Y-96172278D01*
X145324741Y-96203064D01*
X145324742Y-96203065D01*
X145327423Y-96207077D01*
X145402014Y-96256917D01*
X145490000Y-96274418D01*
X145577986Y-96256917D01*
X145652577Y-96207077D01*
X145702417Y-96132486D01*
X145719918Y-96044500D01*
X145721713Y-96044857D01*
X145727235Y-96026654D01*
X145749226Y-96008607D01*
X145777537Y-96005819D01*
X145802625Y-96019229D01*
X145903325Y-96119930D01*
X145903327Y-96119931D01*
X145917831Y-96134435D01*
X145931219Y-96138022D01*
X145931409Y-96138073D01*
X145943228Y-96142969D01*
X145949819Y-96146774D01*
X145949820Y-96146774D01*
X145955407Y-96150000D01*
X145975921Y-96150000D01*
X146036061Y-96150000D01*
X147660173Y-96150000D01*
X147720314Y-96150000D01*
X147734376Y-96150000D01*
X147740827Y-96150000D01*
X147753005Y-96142967D01*
X147764821Y-96138073D01*
X147778404Y-96134435D01*
X147835435Y-96077405D01*
X147835435Y-96077403D01*
X147997986Y-95914852D01*
X148032635Y-95900500D01*
X148218364Y-95900500D01*
X148245587Y-95908758D01*
G37*
%TD.AperFunction*%
%TA.AperFunction,Conductor*%
G36*
X142191572Y-90858760D02*
G01*
X142209619Y-90880755D01*
X142212402Y-90909070D01*
X142198986Y-90934155D01*
X142195966Y-90937174D01*
X142195410Y-90937731D01*
X142191324Y-90941381D01*
X142170817Y-90957736D01*
X142170814Y-90957738D01*
X142166500Y-90961180D01*
X142164104Y-90966153D01*
X142160663Y-90970470D01*
X142160623Y-90970438D01*
X142155538Y-90977603D01*
X141131219Y-92001922D01*
X141124053Y-92007008D01*
X141124084Y-92007047D01*
X141119765Y-92010490D01*
X141114796Y-92012884D01*
X141111358Y-92017194D01*
X141111354Y-92017198D01*
X141094993Y-92037713D01*
X141091339Y-92041803D01*
X141087216Y-92045926D01*
X141087213Y-92045929D01*
X141085272Y-92047871D01*
X141083810Y-92050196D01*
X141083803Y-92050206D01*
X141082610Y-92052105D01*
X141075775Y-92060674D01*
X140504013Y-92632436D01*
X140476215Y-92646307D01*
X140445663Y-92640674D01*
X140424638Y-92617801D01*
X140421594Y-92586884D01*
X140422881Y-92581248D01*
X140430013Y-92550000D01*
X140412186Y-92471895D01*
X140369827Y-92418779D01*
X140365678Y-92413576D01*
X140365677Y-92413575D01*
X140362236Y-92409260D01*
X140357221Y-92406845D01*
X140304424Y-92381419D01*
X140290057Y-92374500D01*
X140209943Y-92374500D01*
X140204970Y-92376894D01*
X140204969Y-92376895D01*
X140142738Y-92406864D01*
X140142736Y-92406865D01*
X140137764Y-92409260D01*
X140134323Y-92413573D01*
X140134321Y-92413576D01*
X140091255Y-92467579D01*
X140091253Y-92467581D01*
X140087814Y-92471895D01*
X140086586Y-92477274D01*
X140086585Y-92477277D01*
X140071363Y-92543970D01*
X140069987Y-92550000D01*
X140071216Y-92555384D01*
X140071216Y-92555385D01*
X140085362Y-92617365D01*
X140087814Y-92628105D01*
X140091254Y-92632419D01*
X140091255Y-92632420D01*
X140112989Y-92659674D01*
X140137764Y-92690740D01*
X140209943Y-92725500D01*
X140213664Y-92725500D01*
X140243139Y-92746207D01*
X140249862Y-92782672D01*
X140229118Y-92813405D01*
X140223410Y-92817218D01*
X140223407Y-92817220D01*
X140219399Y-92819899D01*
X140216720Y-92823907D01*
X140216718Y-92823910D01*
X140166714Y-92898748D01*
X140166712Y-92898750D01*
X140164034Y-92902760D01*
X140163093Y-92907488D01*
X140163092Y-92907492D01*
X140145534Y-92995764D01*
X140144592Y-93000500D01*
X140145534Y-93005236D01*
X140149288Y-93024110D01*
X140164034Y-93098240D01*
X140166715Y-93102252D01*
X140166716Y-93102254D01*
X140191242Y-93138961D01*
X140199500Y-93166183D01*
X140199500Y-93296654D01*
X140195770Y-93315406D01*
X140185148Y-93331302D01*
X139738199Y-93778250D01*
X139731033Y-93783336D01*
X139731064Y-93783375D01*
X139726745Y-93786818D01*
X139721776Y-93789212D01*
X139718338Y-93793522D01*
X139718334Y-93793526D01*
X139701973Y-93814041D01*
X139698319Y-93818131D01*
X139694197Y-93822253D01*
X139694194Y-93822256D01*
X139692252Y-93824199D01*
X139690787Y-93826529D01*
X139690786Y-93826531D01*
X139687685Y-93831465D01*
X139684512Y-93835936D01*
X139668986Y-93855407D01*
X139664710Y-93860769D01*
X139663481Y-93866151D01*
X139661086Y-93871125D01*
X139661041Y-93871103D01*
X139660597Y-93872174D01*
X139660644Y-93872191D01*
X139658820Y-93877402D01*
X139655884Y-93882076D01*
X139655266Y-93887556D01*
X139655265Y-93887561D01*
X139652328Y-93913631D01*
X139651409Y-93919038D01*
X139650112Y-93924721D01*
X139650110Y-93924734D01*
X139649500Y-93927410D01*
X139649500Y-93930161D01*
X139649500Y-93935993D01*
X139649192Y-93941478D01*
X139646257Y-93967534D01*
X139645638Y-93973026D01*
X139647461Y-93978238D01*
X139648080Y-93983723D01*
X139648028Y-93983728D01*
X139649500Y-93992388D01*
X139649500Y-96146655D01*
X139645770Y-96165407D01*
X139635148Y-96181303D01*
X139288199Y-96528250D01*
X139281033Y-96533336D01*
X139281064Y-96533375D01*
X139276745Y-96536818D01*
X139271776Y-96539212D01*
X139268338Y-96543522D01*
X139268334Y-96543526D01*
X139251973Y-96564041D01*
X139248319Y-96568131D01*
X139244197Y-96572253D01*
X139244194Y-96572256D01*
X139242252Y-96574199D01*
X139240787Y-96576529D01*
X139240786Y-96576531D01*
X139237685Y-96581465D01*
X139234512Y-96585936D01*
X139218153Y-96606451D01*
X139214710Y-96610769D01*
X139213481Y-96616151D01*
X139211086Y-96621125D01*
X139211041Y-96621103D01*
X139210597Y-96622174D01*
X139210644Y-96622191D01*
X139208820Y-96627402D01*
X139205884Y-96632076D01*
X139205266Y-96637556D01*
X139205265Y-96637561D01*
X139202328Y-96663631D01*
X139201409Y-96669038D01*
X139200112Y-96674721D01*
X139200110Y-96674734D01*
X139199500Y-96677410D01*
X139199500Y-96680161D01*
X139199500Y-96685993D01*
X139199191Y-96691478D01*
X139195638Y-96723026D01*
X139197461Y-96728238D01*
X139198080Y-96733723D01*
X139198028Y-96733728D01*
X139199500Y-96742388D01*
X139199500Y-96920422D01*
X139187340Y-96952730D01*
X139156896Y-96969003D01*
X139123277Y-96961164D01*
X139087986Y-96937583D01*
X139083255Y-96936642D01*
X139083253Y-96936641D01*
X139004731Y-96921023D01*
X139003630Y-96920804D01*
X139003628Y-96920803D01*
X139000000Y-96920082D01*
X139000143Y-96919360D01*
X138969510Y-96906671D01*
X138794852Y-96732013D01*
X138780500Y-96697365D01*
X138780500Y-93646124D01*
X138780500Y-93639673D01*
X138773469Y-93627497D01*
X138768573Y-93615676D01*
X138764935Y-93602096D01*
X138760376Y-93597537D01*
X138760375Y-93597535D01*
X138714851Y-93552011D01*
X138700500Y-93517363D01*
X138700500Y-93129578D01*
X138712660Y-93097270D01*
X138743104Y-93080997D01*
X138776722Y-93088835D01*
X138812014Y-93112417D01*
X138900000Y-93129918D01*
X138987986Y-93112417D01*
X139062577Y-93062577D01*
X139112417Y-92987986D01*
X139129918Y-92900000D01*
X139112417Y-92812014D01*
X139062577Y-92737423D01*
X139063188Y-92737014D01*
X139050500Y-92706381D01*
X139050500Y-92562635D01*
X139064852Y-92527987D01*
X139143339Y-92449500D01*
X139235430Y-92357409D01*
X139235430Y-92357408D01*
X139249935Y-92342904D01*
X139253573Y-92329321D01*
X139258467Y-92317505D01*
X139265500Y-92305327D01*
X139265501Y-92224674D01*
X139265500Y-92224672D01*
X139265500Y-91367635D01*
X139269230Y-91348883D01*
X139279852Y-91332987D01*
X139424212Y-91188628D01*
X139458860Y-91174276D01*
X139577693Y-91174276D01*
X139604916Y-91182534D01*
X139622963Y-91204524D01*
X139625752Y-91232835D01*
X139619417Y-91264686D01*
X139612636Y-91298776D01*
X139613577Y-91303507D01*
X139629195Y-91382029D01*
X139629196Y-91382031D01*
X139630137Y-91386762D01*
X139679977Y-91461353D01*
X139754568Y-91511193D01*
X139842554Y-91528694D01*
X139930540Y-91511193D01*
X140005131Y-91461353D01*
X140031240Y-91422277D01*
X140048885Y-91406286D01*
X140071983Y-91400500D01*
X141006381Y-91400500D01*
X141037014Y-91413188D01*
X141037423Y-91412577D01*
X141112014Y-91462417D01*
X141200000Y-91479918D01*
X141287986Y-91462417D01*
X141362577Y-91412577D01*
X141412417Y-91337986D01*
X141429918Y-91250000D01*
X141412417Y-91162014D01*
X141362577Y-91087423D01*
X141357660Y-91084137D01*
X141349677Y-91078803D01*
X141329816Y-91051624D01*
X141332178Y-91018044D01*
X141352995Y-90996638D01*
X141352946Y-90996577D01*
X141353432Y-90996188D01*
X141355644Y-90993914D01*
X141362236Y-90990740D01*
X141412186Y-90928105D01*
X141420409Y-90892075D01*
X141435529Y-90866444D01*
X141462695Y-90854289D01*
X141467536Y-90853743D01*
X141473026Y-90854362D01*
X141478238Y-90852538D01*
X141483725Y-90851920D01*
X141483730Y-90851971D01*
X141492388Y-90850500D01*
X142164346Y-90850500D01*
X142191572Y-90858760D01*
G37*
%TD.AperFunction*%
%TA.AperFunction,Conductor*%
G36*
X143064857Y-92863116D02*
G01*
X143074500Y-92892305D01*
X143074500Y-93353717D01*
X143062340Y-93386025D01*
X143031896Y-93402298D01*
X142998278Y-93394459D01*
X142992001Y-93390265D01*
X142991998Y-93390263D01*
X142987986Y-93387583D01*
X142983255Y-93386642D01*
X142983253Y-93386641D01*
X142904731Y-93371023D01*
X142900000Y-93370082D01*
X142895269Y-93371023D01*
X142816746Y-93386641D01*
X142816742Y-93386642D01*
X142812014Y-93387583D01*
X142808002Y-93390263D01*
X142808001Y-93390264D01*
X142741434Y-93434742D01*
X142741431Y-93434744D01*
X142737423Y-93437423D01*
X142734744Y-93441431D01*
X142734742Y-93441434D01*
X142690264Y-93508001D01*
X142687583Y-93512014D01*
X142686642Y-93516742D01*
X142686641Y-93516746D01*
X142672705Y-93586811D01*
X142670082Y-93600000D01*
X142671023Y-93604731D01*
X142686641Y-93683253D01*
X142686642Y-93683255D01*
X142687583Y-93687986D01*
X142703907Y-93712417D01*
X142730504Y-93752223D01*
X142735366Y-93759499D01*
X142735367Y-93759500D01*
X142737423Y-93762577D01*
X142736811Y-93762985D01*
X142749500Y-93793619D01*
X142749500Y-94209673D01*
X142749500Y-94290327D01*
X142752724Y-94295911D01*
X142754395Y-94302146D01*
X142751673Y-94302875D01*
X142755259Y-94324644D01*
X142737025Y-94353950D01*
X142703994Y-94363964D01*
X142672556Y-94349717D01*
X142530673Y-94207834D01*
X142518431Y-94187410D01*
X142517262Y-94163627D01*
X142519774Y-94151001D01*
X142529918Y-94100000D01*
X142512417Y-94012014D01*
X142462577Y-93937423D01*
X142455414Y-93932637D01*
X142419388Y-93908565D01*
X142387986Y-93887583D01*
X142383255Y-93886642D01*
X142383253Y-93886641D01*
X142304731Y-93871023D01*
X142300000Y-93870082D01*
X142295269Y-93871023D01*
X142216746Y-93886641D01*
X142216742Y-93886642D01*
X142212014Y-93887583D01*
X142208002Y-93890263D01*
X142208001Y-93890264D01*
X142141434Y-93934742D01*
X142141431Y-93934744D01*
X142137423Y-93937423D01*
X142134744Y-93941431D01*
X142134742Y-93941434D01*
X142090264Y-94008001D01*
X142087583Y-94012014D01*
X142086642Y-94016742D01*
X142086641Y-94016746D01*
X142074678Y-94076895D01*
X142070082Y-94100000D01*
X142071023Y-94104731D01*
X142071023Y-94104734D01*
X142073167Y-94115515D01*
X142065849Y-94152296D01*
X142034668Y-94173130D01*
X141966750Y-94186640D01*
X141966745Y-94186641D01*
X141962014Y-94187583D01*
X141958002Y-94190263D01*
X141958001Y-94190264D01*
X141891434Y-94234742D01*
X141891431Y-94234744D01*
X141887423Y-94237423D01*
X141884744Y-94241431D01*
X141884742Y-94241434D01*
X141840264Y-94308001D01*
X141837583Y-94312014D01*
X141836642Y-94316742D01*
X141836641Y-94316746D01*
X141822985Y-94385406D01*
X141820082Y-94400000D01*
X141821023Y-94404731D01*
X141836641Y-94483253D01*
X141836642Y-94483255D01*
X141837583Y-94487986D01*
X141840264Y-94491998D01*
X141880959Y-94552904D01*
X141887423Y-94562577D01*
X141917605Y-94582744D01*
X141927723Y-94589504D01*
X141943714Y-94607147D01*
X141949500Y-94630246D01*
X141949500Y-95867365D01*
X141945770Y-95886117D01*
X141935148Y-95902013D01*
X141734148Y-96103012D01*
X141709059Y-96116423D01*
X141680748Y-96113634D01*
X141658758Y-96095586D01*
X141650500Y-96068363D01*
X141650500Y-96052290D01*
X141650501Y-96009674D01*
X141650500Y-96009672D01*
X141650500Y-95417117D01*
X141663188Y-95386483D01*
X141662577Y-95386075D01*
X141664203Y-95383641D01*
X141712417Y-95311484D01*
X141729918Y-95223498D01*
X141712417Y-95135512D01*
X141662577Y-95060921D01*
X141663188Y-95060512D01*
X141650500Y-95029879D01*
X141650500Y-94132635D01*
X141664852Y-94097987D01*
X142417987Y-93344852D01*
X142452635Y-93330500D01*
X142653876Y-93330500D01*
X142660327Y-93330500D01*
X142672505Y-93323467D01*
X142684321Y-93318573D01*
X142697904Y-93314935D01*
X142754935Y-93257905D01*
X142754935Y-93257903D01*
X142913611Y-93099229D01*
X142913612Y-93099226D01*
X142928115Y-93084724D01*
X142931753Y-93071144D01*
X142936650Y-93059323D01*
X142937088Y-93058565D01*
X142943680Y-93047147D01*
X142943681Y-92966493D01*
X142943680Y-92966491D01*
X142943680Y-92939527D01*
X142956368Y-92908893D01*
X142955757Y-92908485D01*
X142956420Y-92907492D01*
X142984757Y-92865082D01*
X143008992Y-92846169D01*
X143039724Y-92845415D01*
X143064857Y-92863116D01*
G37*
%TD.AperFunction*%
%TA.AperFunction,Conductor*%
G36*
X149067014Y-95463188D02*
G01*
X149067423Y-95462577D01*
X149071434Y-95465257D01*
X149084870Y-95474235D01*
X149104047Y-95499227D01*
X149104047Y-95530727D01*
X149084870Y-95555719D01*
X149041434Y-95584742D01*
X149041431Y-95584744D01*
X149040501Y-95585365D01*
X149040499Y-95585367D01*
X149037423Y-95587423D01*
X149037014Y-95586811D01*
X149006381Y-95599500D01*
X147990327Y-95599500D01*
X147909673Y-95599500D01*
X147904088Y-95602723D01*
X147904085Y-95602725D01*
X147897492Y-95606532D01*
X147885679Y-95611425D01*
X147872096Y-95615065D01*
X147867538Y-95619622D01*
X147867536Y-95619624D01*
X147838758Y-95648402D01*
X147815065Y-95672095D01*
X147815064Y-95672096D01*
X147732430Y-95754731D01*
X147652513Y-95834648D01*
X147636617Y-95845270D01*
X147617865Y-95849000D01*
X146078370Y-95849000D01*
X146059618Y-95845270D01*
X146043722Y-95834648D01*
X145956783Y-95747709D01*
X145858145Y-95649070D01*
X145843640Y-95634565D01*
X145837408Y-95632895D01*
X145830059Y-95630926D01*
X145818242Y-95626031D01*
X145811650Y-95622225D01*
X145811647Y-95622224D01*
X145806063Y-95619000D01*
X145799615Y-95618999D01*
X145799612Y-95618999D01*
X145725415Y-95618999D01*
X145725414Y-95618999D01*
X145725410Y-95618999D01*
X145725408Y-95618999D01*
X145725407Y-95619000D01*
X144710327Y-95619000D01*
X144629673Y-95619000D01*
X144624088Y-95622223D01*
X144624085Y-95622225D01*
X144617492Y-95626032D01*
X144605680Y-95630925D01*
X144602002Y-95631910D01*
X144592096Y-95634565D01*
X144587539Y-95639121D01*
X144587535Y-95639124D01*
X144561511Y-95665149D01*
X144526863Y-95679500D01*
X144511899Y-95679500D01*
X144484296Y-95670986D01*
X144466286Y-95648402D01*
X144464128Y-95619596D01*
X144478784Y-95555385D01*
X144480013Y-95550000D01*
X144470975Y-95510402D01*
X144473133Y-95481599D01*
X144491143Y-95459014D01*
X144518746Y-95450500D01*
X145870186Y-95450500D01*
X145909814Y-95450500D01*
X147930186Y-95450500D01*
X147969814Y-95450500D01*
X149036381Y-95450500D01*
X149067014Y-95463188D01*
G37*
%TD.AperFunction*%
%TA.AperFunction,Conductor*%
G36*
X148482013Y-94844852D02*
G01*
X148703013Y-95065852D01*
X148717365Y-95100500D01*
X148703013Y-95135148D01*
X148668365Y-95149500D01*
X147969814Y-95149500D01*
X147931634Y-95149500D01*
X147904411Y-95141242D01*
X147886364Y-95119251D01*
X147883576Y-95090940D01*
X147896986Y-95065852D01*
X147977512Y-94985327D01*
X148117986Y-94844852D01*
X148152635Y-94830500D01*
X148447365Y-94830500D01*
X148482013Y-94844852D01*
G37*
%TD.AperFunction*%
%TA.AperFunction,Conductor*%
G36*
X145727513Y-94165352D02*
G01*
X146067982Y-94505821D01*
X146343424Y-94781262D01*
X146357357Y-94809514D01*
X146351211Y-94840410D01*
X146327528Y-94861180D01*
X146296094Y-94863240D01*
X146289324Y-94861426D01*
X146277506Y-94856531D01*
X146270914Y-94852725D01*
X146270911Y-94852724D01*
X146265327Y-94849500D01*
X146258879Y-94849499D01*
X146258876Y-94849499D01*
X146184679Y-94849499D01*
X146184678Y-94849499D01*
X146184674Y-94849499D01*
X146184672Y-94849499D01*
X146184671Y-94849500D01*
X145809252Y-94849500D01*
X145779423Y-94839374D01*
X145761922Y-94813182D01*
X145763558Y-94788213D01*
X145762417Y-94787986D01*
X145778977Y-94704731D01*
X145779918Y-94700000D01*
X145762417Y-94612014D01*
X145712577Y-94537423D01*
X145700719Y-94529500D01*
X145660212Y-94502434D01*
X145637986Y-94487583D01*
X145633255Y-94486642D01*
X145633253Y-94486641D01*
X145554731Y-94471023D01*
X145553630Y-94470804D01*
X145553628Y-94470803D01*
X145550000Y-94470082D01*
X145550143Y-94469360D01*
X145519510Y-94456671D01*
X145457465Y-94394626D01*
X145452904Y-94390065D01*
X145446672Y-94388395D01*
X145439323Y-94386426D01*
X145427506Y-94381531D01*
X145420914Y-94377725D01*
X145420911Y-94377724D01*
X145415327Y-94374500D01*
X145408879Y-94374499D01*
X145408876Y-94374499D01*
X145334679Y-94374499D01*
X145334678Y-94374499D01*
X145334674Y-94374499D01*
X145334672Y-94374499D01*
X145334671Y-94374500D01*
X144263040Y-94374500D01*
X144235437Y-94365986D01*
X144217427Y-94343402D01*
X144215269Y-94314596D01*
X144215767Y-94312417D01*
X144230013Y-94250000D01*
X144221871Y-94214327D01*
X144224029Y-94185524D01*
X144242039Y-94162939D01*
X144264667Y-94155959D01*
X144264550Y-94155367D01*
X144264550Y-94155366D01*
X144264551Y-94155367D01*
X144286330Y-94151034D01*
X144299274Y-94151459D01*
X144299275Y-94151000D01*
X144379928Y-94151001D01*
X144379930Y-94151000D01*
X145692865Y-94151000D01*
X145727513Y-94165352D01*
G37*
%TD.AperFunction*%
%TA.AperFunction,Conductor*%
G36*
X147953012Y-94014852D02*
G01*
X147967364Y-94049500D01*
X147953012Y-94084148D01*
X147402013Y-94635148D01*
X147386117Y-94645770D01*
X147367365Y-94649500D01*
X146657635Y-94649500D01*
X146622987Y-94635148D01*
X146415874Y-94428035D01*
X146401941Y-94399781D01*
X146408089Y-94368883D01*
X146431776Y-94348115D01*
X146454673Y-94346617D01*
X146454673Y-94345500D01*
X147288876Y-94345500D01*
X147295327Y-94345500D01*
X147307505Y-94338467D01*
X147319321Y-94333573D01*
X147332904Y-94329935D01*
X147389935Y-94272905D01*
X147389935Y-94272903D01*
X147647986Y-94014852D01*
X147682635Y-94000500D01*
X147918364Y-94000500D01*
X147953012Y-94014852D01*
G37*
%TD.AperFunction*%
%TA.AperFunction,Conductor*%
G36*
X149560148Y-93424852D02*
G01*
X149574500Y-93459500D01*
X149574500Y-93542365D01*
X149560148Y-93577013D01*
X149552013Y-93585148D01*
X149517365Y-93599500D01*
X149443121Y-93599500D01*
X149412487Y-93586811D01*
X149412079Y-93587423D01*
X149409002Y-93585367D01*
X149409001Y-93585366D01*
X149407963Y-93584673D01*
X149359081Y-93552011D01*
X149337488Y-93537583D01*
X149332757Y-93536642D01*
X149332755Y-93536641D01*
X149254233Y-93521023D01*
X149249502Y-93520082D01*
X149244771Y-93521023D01*
X149166248Y-93536641D01*
X149166244Y-93536642D01*
X149161516Y-93537583D01*
X149157504Y-93540263D01*
X149157503Y-93540264D01*
X149090936Y-93584742D01*
X149090933Y-93584744D01*
X149086925Y-93587423D01*
X149084246Y-93591431D01*
X149084244Y-93591434D01*
X149039766Y-93658001D01*
X149037085Y-93662014D01*
X149036144Y-93666742D01*
X149036143Y-93666746D01*
X149021108Y-93742339D01*
X149019584Y-93750000D01*
X149020525Y-93754731D01*
X149036143Y-93833253D01*
X149036144Y-93833255D01*
X149037085Y-93837986D01*
X149048725Y-93855407D01*
X149080461Y-93902904D01*
X149086925Y-93912577D01*
X149090936Y-93915257D01*
X149090938Y-93915259D01*
X149115896Y-93931935D01*
X149135073Y-93956925D01*
X149135074Y-93988426D01*
X149115899Y-94013418D01*
X149106434Y-94019742D01*
X149106431Y-94019744D01*
X149102423Y-94022423D01*
X149099744Y-94026431D01*
X149099742Y-94026434D01*
X149057050Y-94090328D01*
X149052583Y-94097014D01*
X149051642Y-94101742D01*
X149051641Y-94101746D01*
X149037711Y-94171782D01*
X149035082Y-94185000D01*
X149036023Y-94189731D01*
X149050061Y-94260308D01*
X149046297Y-94290817D01*
X149025100Y-94313081D01*
X148994812Y-94318337D01*
X148967354Y-94304515D01*
X148682465Y-94019626D01*
X148682465Y-94019625D01*
X148677904Y-94015065D01*
X148671672Y-94013395D01*
X148664323Y-94011426D01*
X148652506Y-94006531D01*
X148645914Y-94002725D01*
X148645911Y-94002724D01*
X148640327Y-93999500D01*
X148633879Y-93999499D01*
X148633876Y-93999499D01*
X148559679Y-93999499D01*
X148559678Y-93999499D01*
X148559674Y-93999499D01*
X148559672Y-93999499D01*
X148559671Y-93999500D01*
X148281634Y-93999500D01*
X148254411Y-93991242D01*
X148236364Y-93969251D01*
X148233576Y-93940941D01*
X148246986Y-93915852D01*
X148737987Y-93424852D01*
X148772635Y-93410500D01*
X149525500Y-93410500D01*
X149560148Y-93424852D01*
G37*
%TD.AperFunction*%
%TA.AperFunction,Conductor*%
G36*
X143052013Y-91564852D02*
G01*
X143711834Y-92224672D01*
X144365065Y-92877903D01*
X144365065Y-92877904D01*
X144365067Y-92877905D01*
X144365067Y-92877906D01*
X144403013Y-92915852D01*
X144417365Y-92950500D01*
X144403013Y-92985148D01*
X144368365Y-92999500D01*
X144290327Y-92999500D01*
X144209673Y-92999500D01*
X144204088Y-93002723D01*
X144204085Y-93002725D01*
X144197492Y-93006532D01*
X144185679Y-93011425D01*
X144172096Y-93015065D01*
X144167538Y-93019622D01*
X144167536Y-93019624D01*
X144115064Y-93072096D01*
X144072096Y-93115065D01*
X144019626Y-93167534D01*
X144019624Y-93167536D01*
X144015065Y-93172096D01*
X144013396Y-93178323D01*
X144013395Y-93178326D01*
X144011425Y-93185680D01*
X144006532Y-93197492D01*
X144002725Y-93204085D01*
X144002723Y-93204088D01*
X143999500Y-93209673D01*
X143999499Y-93216119D01*
X143999499Y-93216123D01*
X143999499Y-93253325D01*
X143999499Y-93290326D01*
X143999500Y-93290328D01*
X143999500Y-93359673D01*
X143999500Y-93440327D01*
X144002724Y-93445911D01*
X144002725Y-93445914D01*
X144006531Y-93452506D01*
X144011426Y-93464323D01*
X144013395Y-93471674D01*
X144013396Y-93471676D01*
X144015065Y-93477904D01*
X144046198Y-93509038D01*
X144072094Y-93534934D01*
X144072100Y-93534939D01*
X144115065Y-93577904D01*
X144172096Y-93634935D01*
X144173199Y-93635230D01*
X144191670Y-93656760D01*
X144192734Y-93689255D01*
X144173225Y-93715263D01*
X144105985Y-93760191D01*
X144105982Y-93760193D01*
X144101974Y-93762872D01*
X144099295Y-93766880D01*
X144099293Y-93766883D01*
X144054947Y-93833253D01*
X144052134Y-93837463D01*
X144051193Y-93842191D01*
X144051192Y-93842195D01*
X144038446Y-93906277D01*
X144034633Y-93925449D01*
X144035574Y-93930180D01*
X144052134Y-94013435D01*
X144051401Y-94013580D01*
X144053676Y-94035617D01*
X144040820Y-94060501D01*
X144016435Y-94074278D01*
X144015462Y-94074500D01*
X144009943Y-94074500D01*
X144004971Y-94076894D01*
X144004968Y-94076895D01*
X143942738Y-94106864D01*
X143942736Y-94106865D01*
X143937764Y-94109260D01*
X143934323Y-94113573D01*
X143934321Y-94113576D01*
X143891256Y-94167577D01*
X143891253Y-94167581D01*
X143887814Y-94171895D01*
X143886585Y-94177278D01*
X143885193Y-94180170D01*
X143863942Y-94202231D01*
X143833742Y-94207363D01*
X143806397Y-94193558D01*
X143389852Y-93777013D01*
X143375500Y-93742365D01*
X143375500Y-92541124D01*
X143375500Y-92534673D01*
X143368469Y-92522497D01*
X143363573Y-92510676D01*
X143359935Y-92497096D01*
X143355376Y-92492537D01*
X143355375Y-92492535D01*
X143302905Y-92440065D01*
X143302903Y-92440064D01*
X142682254Y-91819415D01*
X142668843Y-91794325D01*
X142665704Y-91778543D01*
X142662417Y-91762014D01*
X142612577Y-91687423D01*
X142606336Y-91683253D01*
X142572736Y-91660802D01*
X142541964Y-91640241D01*
X142523052Y-91616008D01*
X142522298Y-91585276D01*
X142539999Y-91560143D01*
X142569188Y-91550500D01*
X143017365Y-91550500D01*
X143052013Y-91564852D01*
G37*
%TD.AperFunction*%
%TA.AperFunction,Conductor*%
G36*
X149500501Y-92279919D02*
G01*
X149500159Y-92281637D01*
X149518613Y-92287235D01*
X149536660Y-92309226D01*
X149539448Y-92337536D01*
X149526038Y-92362624D01*
X149353227Y-92535435D01*
X149181491Y-92707171D01*
X149150858Y-92719859D01*
X149151002Y-92720582D01*
X149147371Y-92721304D01*
X149147369Y-92721304D01*
X149146271Y-92721523D01*
X149067748Y-92737141D01*
X149067744Y-92737142D01*
X149063016Y-92738083D01*
X149059004Y-92740763D01*
X149059003Y-92740764D01*
X148992436Y-92785242D01*
X148992433Y-92785244D01*
X148988425Y-92787923D01*
X148985746Y-92791931D01*
X148985744Y-92791934D01*
X148941266Y-92858501D01*
X148938585Y-92862514D01*
X148937644Y-92867242D01*
X148937643Y-92867246D01*
X148924180Y-92934935D01*
X148921084Y-92950500D01*
X148922025Y-92955231D01*
X148924947Y-92969920D01*
X148938585Y-93038486D01*
X148940975Y-93042063D01*
X148943015Y-93073182D01*
X148925514Y-93099374D01*
X148895685Y-93109500D01*
X148730327Y-93109500D01*
X148649673Y-93109500D01*
X148644088Y-93112723D01*
X148644085Y-93112725D01*
X148637492Y-93116532D01*
X148625680Y-93121425D01*
X148622002Y-93122410D01*
X148612096Y-93125065D01*
X148607538Y-93129622D01*
X148607536Y-93129624D01*
X148573125Y-93164035D01*
X148555065Y-93182095D01*
X148555064Y-93182096D01*
X148296834Y-93440327D01*
X148052013Y-93685148D01*
X148036117Y-93695770D01*
X148017365Y-93699500D01*
X147640327Y-93699500D01*
X147559673Y-93699500D01*
X147554088Y-93702723D01*
X147554085Y-93702725D01*
X147547492Y-93706532D01*
X147535679Y-93711425D01*
X147522096Y-93715065D01*
X147517538Y-93719622D01*
X147517536Y-93719624D01*
X147492427Y-93744733D01*
X147465065Y-93772095D01*
X147465064Y-93772096D01*
X147330884Y-93906277D01*
X147207013Y-94030148D01*
X147191117Y-94040770D01*
X147172365Y-94044500D01*
X146577635Y-94044500D01*
X146542987Y-94030148D01*
X146046987Y-93534148D01*
X146033576Y-93509059D01*
X146036365Y-93480748D01*
X146054413Y-93458758D01*
X146081635Y-93450500D01*
X146140326Y-93450501D01*
X146140328Y-93450500D01*
X147385408Y-93450500D01*
X147445549Y-93450500D01*
X147466062Y-93450500D01*
X147478240Y-93443467D01*
X147490056Y-93438573D01*
X147503639Y-93434935D01*
X147560670Y-93377905D01*
X147560670Y-93377903D01*
X147623723Y-93314850D01*
X147658370Y-93300500D01*
X148083876Y-93300500D01*
X148090327Y-93300500D01*
X148102505Y-93293467D01*
X148114321Y-93288573D01*
X148127904Y-93284935D01*
X148184935Y-93227905D01*
X148184935Y-93227903D01*
X148488114Y-92924723D01*
X148495524Y-92918641D01*
X148541269Y-92888077D01*
X148591109Y-92813486D01*
X148608610Y-92725500D01*
X148591109Y-92637514D01*
X148587716Y-92632436D01*
X148584233Y-92627222D01*
X148576394Y-92593604D01*
X148592667Y-92563160D01*
X148624975Y-92551000D01*
X149033376Y-92551000D01*
X149039827Y-92551000D01*
X149052005Y-92543967D01*
X149063821Y-92539073D01*
X149077404Y-92535435D01*
X149096849Y-92515990D01*
X149119512Y-92493328D01*
X149135413Y-92482704D01*
X149149714Y-92479861D01*
X149150000Y-92479918D01*
X149237986Y-92462417D01*
X149312577Y-92412577D01*
X149362417Y-92337986D01*
X149369223Y-92303765D01*
X149380441Y-92281018D01*
X149401531Y-92266925D01*
X149426842Y-92265267D01*
X149500501Y-92279919D01*
G37*
%TD.AperFunction*%
%TA.AperFunction,Conductor*%
G36*
X145402013Y-93314852D02*
G01*
X145854624Y-93767463D01*
X145868557Y-93795714D01*
X145862412Y-93826609D01*
X145838731Y-93847380D01*
X145815827Y-93848883D01*
X145815827Y-93850000D01*
X145735178Y-93849999D01*
X145735174Y-93849999D01*
X145735172Y-93849999D01*
X145735171Y-93850000D01*
X144511536Y-93850000D01*
X144488438Y-93844214D01*
X144470794Y-93828223D01*
X144464051Y-93818131D01*
X144453991Y-93803076D01*
X144445839Y-93772649D01*
X144457894Y-93743546D01*
X144485175Y-93727795D01*
X144562488Y-93712417D01*
X144637079Y-93662577D01*
X144686919Y-93587986D01*
X144704420Y-93500000D01*
X144686919Y-93412014D01*
X144663337Y-93376722D01*
X144655499Y-93343104D01*
X144671772Y-93312660D01*
X144704080Y-93300500D01*
X145367365Y-93300500D01*
X145402013Y-93314852D01*
G37*
%TD.AperFunction*%
%TA.AperFunction,Conductor*%
G36*
X143015407Y-90854230D02*
G01*
X143031302Y-90864851D01*
X143353594Y-91187144D01*
X143673029Y-91506579D01*
X143678114Y-91513745D01*
X143678154Y-91513714D01*
X143681595Y-91518029D01*
X143683991Y-91523003D01*
X143688306Y-91526444D01*
X143708813Y-91542798D01*
X143712910Y-91546460D01*
X143718978Y-91552528D01*
X143721301Y-91553988D01*
X143721304Y-91553990D01*
X143726243Y-91557093D01*
X143730720Y-91560270D01*
X143755548Y-91580069D01*
X143760929Y-91581297D01*
X143765905Y-91583693D01*
X143765882Y-91583739D01*
X143766952Y-91584182D01*
X143766969Y-91584134D01*
X143772180Y-91585957D01*
X143776855Y-91588895D01*
X143782339Y-91589512D01*
X143782340Y-91589513D01*
X143788052Y-91590156D01*
X143808415Y-91592450D01*
X143813822Y-91593369D01*
X143822189Y-91595279D01*
X143830767Y-91595279D01*
X143836252Y-91595586D01*
X143867806Y-91599142D01*
X143873020Y-91597317D01*
X143878502Y-91596700D01*
X143878507Y-91596750D01*
X143887170Y-91595279D01*
X144541434Y-91595279D01*
X144576082Y-91609631D01*
X145532303Y-92565852D01*
X145546655Y-92600500D01*
X145532303Y-92635148D01*
X145497655Y-92649500D01*
X144582635Y-92649500D01*
X144547987Y-92635148D01*
X143182465Y-91269626D01*
X143177904Y-91265065D01*
X143171672Y-91263395D01*
X143164323Y-91261426D01*
X143152506Y-91256531D01*
X143145914Y-91252725D01*
X143145911Y-91252724D01*
X143140327Y-91249500D01*
X143133879Y-91249499D01*
X143133876Y-91249499D01*
X143059679Y-91249499D01*
X143059678Y-91249499D01*
X143059674Y-91249499D01*
X143059672Y-91249499D01*
X143059671Y-91249500D01*
X142945413Y-91249500D01*
X142915585Y-91239375D01*
X142898083Y-91213185D01*
X142899776Y-91187313D01*
X142898927Y-91187144D01*
X142917427Y-91094140D01*
X142918369Y-91089404D01*
X142898927Y-90991664D01*
X142896246Y-90987651D01*
X142896245Y-90987649D01*
X142855536Y-90926722D01*
X142847697Y-90893104D01*
X142863970Y-90862660D01*
X142896278Y-90850500D01*
X142996655Y-90850500D01*
X143015407Y-90854230D01*
G37*
%TD.AperFunction*%
%TA.AperFunction,Conductor*%
G36*
X159865148Y-65134852D02*
G01*
X159879500Y-65169500D01*
X159879500Y-124830500D01*
X159865148Y-124865148D01*
X159830500Y-124879500D01*
X100169500Y-124879500D01*
X100134852Y-124865148D01*
X100120500Y-124830500D01*
X100120500Y-98496945D01*
X115387018Y-98496945D01*
X115387312Y-98499122D01*
X115387313Y-98499124D01*
X115417268Y-98720263D01*
X115417269Y-98720268D01*
X115417563Y-98722437D01*
X115418238Y-98724514D01*
X115418240Y-98724523D01*
X115468596Y-98879500D01*
X115487880Y-98938851D01*
X115488917Y-98940779D01*
X115488921Y-98940787D01*
X115594670Y-99137301D01*
X115594674Y-99137308D01*
X115595710Y-99139232D01*
X115737585Y-99317138D01*
X115908948Y-99466853D01*
X116104289Y-99583564D01*
X116317330Y-99663520D01*
X116541224Y-99704150D01*
X116710671Y-99704150D01*
X116711775Y-99704150D01*
X116881635Y-99688862D01*
X117100986Y-99628325D01*
X117306003Y-99529595D01*
X117490095Y-99395843D01*
X117647347Y-99231371D01*
X117772705Y-99041463D01*
X117862138Y-98832223D01*
X117912773Y-98610377D01*
X117917867Y-98496945D01*
X118562018Y-98496945D01*
X118562312Y-98499122D01*
X118562313Y-98499124D01*
X118592268Y-98720263D01*
X118592269Y-98720268D01*
X118592563Y-98722437D01*
X118593238Y-98724514D01*
X118593240Y-98724523D01*
X118643596Y-98879500D01*
X118662880Y-98938851D01*
X118663917Y-98940779D01*
X118663921Y-98940787D01*
X118769670Y-99137301D01*
X118769674Y-99137308D01*
X118770710Y-99139232D01*
X118912585Y-99317138D01*
X119083948Y-99466853D01*
X119279289Y-99583564D01*
X119492330Y-99663520D01*
X119716224Y-99704150D01*
X119885671Y-99704150D01*
X119886775Y-99704150D01*
X120056635Y-99688862D01*
X120275986Y-99628325D01*
X120481003Y-99529595D01*
X120665095Y-99395843D01*
X120822347Y-99231371D01*
X120947705Y-99041463D01*
X121037138Y-98832223D01*
X121087773Y-98610377D01*
X121097982Y-98383055D01*
X121067437Y-98157563D01*
X121060725Y-98136907D01*
X121049374Y-98101971D01*
X120997120Y-97941149D01*
X120993305Y-97934059D01*
X120890329Y-97742698D01*
X120890326Y-97742694D01*
X120889290Y-97740768D01*
X120747415Y-97562862D01*
X120725531Y-97543743D01*
X120580313Y-97416870D01*
X120576052Y-97413147D01*
X120461859Y-97344920D01*
X120382601Y-97297565D01*
X120382599Y-97297564D01*
X120380711Y-97296436D01*
X120331333Y-97277904D01*
X120169736Y-97217255D01*
X120169732Y-97217253D01*
X120167670Y-97216480D01*
X120165510Y-97216088D01*
X120165503Y-97216086D01*
X119945938Y-97176242D01*
X119945934Y-97176241D01*
X119943776Y-97175850D01*
X119773225Y-97175850D01*
X119772144Y-97175947D01*
X119772128Y-97175948D01*
X119605552Y-97190941D01*
X119605550Y-97190941D01*
X119603365Y-97191138D01*
X119601256Y-97191719D01*
X119601245Y-97191722D01*
X119386131Y-97251090D01*
X119386123Y-97251092D01*
X119384014Y-97251675D01*
X119382046Y-97252622D01*
X119382037Y-97252626D01*
X119180976Y-97349451D01*
X119180967Y-97349456D01*
X119178997Y-97350405D01*
X119177228Y-97351690D01*
X119177220Y-97351695D01*
X118996683Y-97482864D01*
X118996674Y-97482871D01*
X118994905Y-97484157D01*
X118993388Y-97485743D01*
X118993383Y-97485748D01*
X118839175Y-97647036D01*
X118839169Y-97647042D01*
X118837653Y-97648629D01*
X118836443Y-97650461D01*
X118836439Y-97650467D01*
X118713507Y-97836699D01*
X118713501Y-97836709D01*
X118712295Y-97838537D01*
X118711435Y-97840547D01*
X118711429Y-97840560D01*
X118623725Y-98045756D01*
X118623722Y-98045763D01*
X118622862Y-98047777D01*
X118622374Y-98049910D01*
X118622372Y-98049920D01*
X118577671Y-98245770D01*
X118572227Y-98269623D01*
X118572128Y-98271814D01*
X118572128Y-98271819D01*
X118562116Y-98494747D01*
X118562116Y-98494754D01*
X118562018Y-98496945D01*
X117917867Y-98496945D01*
X117922982Y-98383055D01*
X117892437Y-98157563D01*
X117885725Y-98136907D01*
X117874374Y-98101971D01*
X117822120Y-97941149D01*
X117818305Y-97934059D01*
X117715329Y-97742698D01*
X117715326Y-97742694D01*
X117714290Y-97740768D01*
X117572415Y-97562862D01*
X117550531Y-97543743D01*
X117405313Y-97416870D01*
X117401052Y-97413147D01*
X117286859Y-97344920D01*
X117278624Y-97340000D01*
X117744592Y-97340000D01*
X117745534Y-97344736D01*
X117763092Y-97433007D01*
X117763093Y-97433009D01*
X117764034Y-97437740D01*
X117766713Y-97441750D01*
X117766714Y-97441751D01*
X117813930Y-97512417D01*
X117819399Y-97520601D01*
X117902260Y-97575966D01*
X118000000Y-97595408D01*
X118097740Y-97575966D01*
X118132476Y-97552756D01*
X118138461Y-97548758D01*
X118165683Y-97540500D01*
X118657612Y-97540500D01*
X118666271Y-97541971D01*
X118666277Y-97541920D01*
X118671760Y-97542537D01*
X118676974Y-97544362D01*
X118708521Y-97540808D01*
X118714007Y-97540500D01*
X118719836Y-97540500D01*
X118722590Y-97540500D01*
X118730960Y-97538589D01*
X118736367Y-97537670D01*
X118767924Y-97534116D01*
X118772598Y-97531178D01*
X118777812Y-97529354D01*
X118777829Y-97529402D01*
X118778894Y-97528961D01*
X118778872Y-97528914D01*
X118783844Y-97526519D01*
X118789231Y-97525290D01*
X118814064Y-97505485D01*
X118818537Y-97502312D01*
X118825801Y-97497748D01*
X118831877Y-97491671D01*
X118835946Y-97488033D01*
X118860788Y-97468224D01*
X118863183Y-97463249D01*
X118866626Y-97458932D01*
X118866665Y-97458963D01*
X118871747Y-97451800D01*
X119268697Y-97054852D01*
X119303346Y-97040500D01*
X120817612Y-97040500D01*
X120826271Y-97041971D01*
X120826277Y-97041920D01*
X120831760Y-97042537D01*
X120836974Y-97044362D01*
X120868521Y-97040808D01*
X120874007Y-97040500D01*
X120879836Y-97040500D01*
X120882590Y-97040500D01*
X120890960Y-97038589D01*
X120896367Y-97037670D01*
X120927924Y-97034116D01*
X120932598Y-97031178D01*
X120937812Y-97029354D01*
X120937829Y-97029402D01*
X120938894Y-97028961D01*
X120938872Y-97028914D01*
X120943844Y-97026519D01*
X120949231Y-97025290D01*
X120974064Y-97005485D01*
X120978537Y-97002312D01*
X120985801Y-96997748D01*
X120991877Y-96991671D01*
X120995946Y-96988033D01*
X121020788Y-96968224D01*
X121023183Y-96963249D01*
X121026626Y-96958932D01*
X121026665Y-96958963D01*
X121031747Y-96951800D01*
X127168697Y-90814852D01*
X127203346Y-90800500D01*
X131919841Y-90800500D01*
X131922590Y-90800500D01*
X131931719Y-90798416D01*
X131940096Y-90796505D01*
X131968901Y-90798663D01*
X131991486Y-90816673D01*
X132000000Y-90844276D01*
X132000000Y-91022185D01*
X131995439Y-91039195D01*
X131996646Y-91039635D01*
X131995179Y-91043662D01*
X131993037Y-91047374D01*
X131974941Y-91150000D01*
X131990700Y-91239375D01*
X131991782Y-91245508D01*
X131986943Y-91276732D01*
X131964052Y-91298510D01*
X131932627Y-91301789D01*
X131925278Y-91300112D01*
X131925265Y-91300110D01*
X131922590Y-91299500D01*
X131919841Y-91299500D01*
X127902390Y-91299500D01*
X127893727Y-91298028D01*
X127893722Y-91298079D01*
X127888238Y-91297461D01*
X127883026Y-91295637D01*
X127877539Y-91296255D01*
X127851473Y-91299192D01*
X127845987Y-91299500D01*
X127837410Y-91299500D01*
X127834731Y-91300111D01*
X127834724Y-91300112D01*
X127829045Y-91301408D01*
X127823637Y-91302327D01*
X127797558Y-91305266D01*
X127797556Y-91305266D01*
X127792076Y-91305884D01*
X127787404Y-91308819D01*
X127782192Y-91310643D01*
X127782175Y-91310597D01*
X127781103Y-91311041D01*
X127781125Y-91311086D01*
X127776150Y-91313481D01*
X127770769Y-91314710D01*
X127766453Y-91318151D01*
X127766450Y-91318153D01*
X127745947Y-91334503D01*
X127741476Y-91337676D01*
X127736529Y-91340785D01*
X127736519Y-91340792D01*
X127734199Y-91342251D01*
X127732260Y-91344189D01*
X127732257Y-91344192D01*
X127728126Y-91348323D01*
X127724036Y-91351977D01*
X127703527Y-91368333D01*
X127703523Y-91368337D01*
X127699212Y-91371776D01*
X127696817Y-91376748D01*
X127693376Y-91381064D01*
X127693336Y-91381032D01*
X127688252Y-91388196D01*
X123222829Y-95853620D01*
X123197741Y-95867030D01*
X123116992Y-95883092D01*
X123116988Y-95883093D01*
X123112260Y-95884034D01*
X123108250Y-95886712D01*
X123108248Y-95886714D01*
X123033410Y-95936718D01*
X123033407Y-95936720D01*
X123029399Y-95939399D01*
X123026720Y-95943407D01*
X123026718Y-95943410D01*
X122976714Y-96018248D01*
X122976712Y-96018250D01*
X122974034Y-96022260D01*
X122973093Y-96026988D01*
X122973092Y-96026992D01*
X122963064Y-96077409D01*
X122954592Y-96120000D01*
X122955534Y-96124736D01*
X122973092Y-96213007D01*
X122973093Y-96213009D01*
X122974034Y-96217740D01*
X122976713Y-96221750D01*
X122976714Y-96221751D01*
X123022275Y-96289940D01*
X123029399Y-96300601D01*
X123112260Y-96355966D01*
X123210000Y-96375408D01*
X123307740Y-96355966D01*
X123390601Y-96300601D01*
X123445966Y-96217740D01*
X123448070Y-96207157D01*
X123461480Y-96182067D01*
X127928697Y-91714852D01*
X127963346Y-91700500D01*
X131919841Y-91700500D01*
X131922590Y-91700500D01*
X131931719Y-91698416D01*
X131940096Y-91696505D01*
X131968901Y-91698663D01*
X131991486Y-91716673D01*
X132000000Y-91744276D01*
X132000000Y-92381419D01*
X131999256Y-92389928D01*
X131981024Y-92493328D01*
X131979500Y-92501969D01*
X131979500Y-92564618D01*
X131979500Y-99467712D01*
X131979500Y-99500000D01*
X131979500Y-99638985D01*
X131979707Y-99640560D01*
X131979708Y-99640569D01*
X132015571Y-99912981D01*
X132015573Y-99912994D01*
X132015782Y-99914577D01*
X132016196Y-99916125D01*
X132016199Y-99916136D01*
X132087308Y-100181518D01*
X132087311Y-100181529D01*
X132087726Y-100183075D01*
X132194101Y-100439886D01*
X132194907Y-100441282D01*
X132194908Y-100441284D01*
X132312042Y-100644167D01*
X132333086Y-100680615D01*
X132334059Y-100681883D01*
X132334063Y-100681889D01*
X132446951Y-100829007D01*
X132502303Y-100901143D01*
X132698857Y-101097697D01*
X132919385Y-101266914D01*
X133160114Y-101405899D01*
X133416925Y-101512274D01*
X133685423Y-101584218D01*
X133961015Y-101620500D01*
X134064618Y-101620500D01*
X134100000Y-101620500D01*
X134132288Y-101620500D01*
X139967712Y-101620500D01*
X140017325Y-101620500D01*
X140095890Y-101620500D01*
X140098031Y-101620500D01*
X140099920Y-101620166D01*
X140103749Y-101620000D01*
X143916251Y-101620000D01*
X143920079Y-101620166D01*
X143921969Y-101620500D01*
X143984618Y-101620500D01*
X144020000Y-101620500D01*
X144052288Y-101620500D01*
X151067712Y-101620500D01*
X151117325Y-101620500D01*
X151237385Y-101620500D01*
X151238985Y-101620500D01*
X151514577Y-101584218D01*
X151783075Y-101512274D01*
X152039886Y-101405899D01*
X152280615Y-101266914D01*
X152501143Y-101097697D01*
X152697697Y-100901143D01*
X152866914Y-100680615D01*
X153005899Y-100439886D01*
X153112274Y-100183075D01*
X153184218Y-99914577D01*
X153220500Y-99638985D01*
X153220500Y-99500000D01*
X153220500Y-99467712D01*
X153220500Y-93102675D01*
X153220500Y-93021969D01*
X153200744Y-92909928D01*
X153200000Y-92901419D01*
X153200000Y-92021986D01*
X153200000Y-92020335D01*
X153200059Y-92020000D01*
X153200000Y-92019665D01*
X153200000Y-91400335D01*
X153200059Y-91400000D01*
X153200000Y-91399665D01*
X153200000Y-90518581D01*
X153200744Y-90510072D01*
X153207773Y-90470206D01*
X153220500Y-90398031D01*
X153220500Y-90300000D01*
X153220500Y-90267712D01*
X153220500Y-85652675D01*
X153220500Y-85531015D01*
X153184218Y-85255423D01*
X153112274Y-84986925D01*
X153005899Y-84730114D01*
X152866914Y-84489385D01*
X152697697Y-84268857D01*
X152501143Y-84072303D01*
X152499865Y-84071322D01*
X152281889Y-83904063D01*
X152281883Y-83904059D01*
X152280615Y-83903086D01*
X152279230Y-83902286D01*
X152279225Y-83902283D01*
X152041284Y-83764908D01*
X152041282Y-83764907D01*
X152039886Y-83764101D01*
X151783075Y-83657726D01*
X151781529Y-83657311D01*
X151781518Y-83657308D01*
X151516136Y-83586199D01*
X151516125Y-83586196D01*
X151514577Y-83585782D01*
X151512994Y-83585573D01*
X151512981Y-83585571D01*
X151240569Y-83549708D01*
X151240560Y-83549707D01*
X151238985Y-83549500D01*
X151237385Y-83549500D01*
X151135345Y-83549500D01*
X151135330Y-83549497D01*
X151135295Y-83549475D01*
X151135172Y-83549475D01*
X151100546Y-83549500D01*
X151100000Y-83549500D01*
X151067712Y-83549500D01*
X151067674Y-83549520D01*
X151067658Y-83549523D01*
X144167134Y-83554487D01*
X144157282Y-83553493D01*
X144142525Y-83550474D01*
X144136408Y-83552512D01*
X144136404Y-83552513D01*
X144114745Y-83559733D01*
X144113092Y-83560252D01*
X144086660Y-83568034D01*
X144086655Y-83568036D01*
X144082027Y-83569399D01*
X144080775Y-83570843D01*
X144079969Y-83571229D01*
X144059645Y-83577943D01*
X144026598Y-83577116D01*
X144001596Y-83555489D01*
X143996020Y-83522905D01*
X143999315Y-83504222D01*
X143999315Y-83504219D01*
X144000059Y-83500000D01*
X143981963Y-83397374D01*
X143929859Y-83307126D01*
X143926575Y-83304370D01*
X143926574Y-83304369D01*
X143853312Y-83242895D01*
X143850030Y-83240141D01*
X143846004Y-83238675D01*
X143846003Y-83238675D01*
X143793648Y-83219620D01*
X143752105Y-83204500D01*
X143647895Y-83204500D01*
X143643864Y-83205966D01*
X143643864Y-83205967D01*
X143553997Y-83238675D01*
X143553993Y-83238676D01*
X143549971Y-83240141D01*
X143546690Y-83242893D01*
X143546688Y-83242895D01*
X143473425Y-83304369D01*
X143473421Y-83304373D01*
X143470141Y-83307126D01*
X143467998Y-83310837D01*
X143467996Y-83310840D01*
X143420180Y-83393661D01*
X143420178Y-83393664D01*
X143418037Y-83397374D01*
X143399941Y-83500000D01*
X143400685Y-83504219D01*
X143400685Y-83504221D01*
X143403980Y-83522910D01*
X143398402Y-83555493D01*
X143373400Y-83577119D01*
X143340354Y-83577945D01*
X143308243Y-83567337D01*
X143297100Y-83562017D01*
X143291372Y-83558331D01*
X143291368Y-83558329D01*
X143285447Y-83554520D01*
X143278405Y-83554516D01*
X143278402Y-83554515D01*
X143277518Y-83554515D01*
X143266162Y-83552668D01*
X143263594Y-83552513D01*
X143257475Y-83550474D01*
X143251158Y-83551766D01*
X143251153Y-83551766D01*
X143242700Y-83553496D01*
X143232853Y-83554490D01*
X134132327Y-83549518D01*
X134132316Y-83549516D01*
X134132288Y-83549500D01*
X134132193Y-83549500D01*
X134099210Y-83549500D01*
X134082830Y-83549491D01*
X134082741Y-83549491D01*
X134082711Y-83549499D01*
X134082705Y-83549500D01*
X133961015Y-83549500D01*
X133959440Y-83549707D01*
X133959430Y-83549708D01*
X133687018Y-83585571D01*
X133687002Y-83585574D01*
X133685423Y-83585782D01*
X133683877Y-83586196D01*
X133683863Y-83586199D01*
X133418481Y-83657308D01*
X133418466Y-83657313D01*
X133416925Y-83657726D01*
X133415446Y-83658338D01*
X133415439Y-83658341D01*
X133161603Y-83763484D01*
X133161600Y-83763485D01*
X133160114Y-83764101D01*
X133158723Y-83764903D01*
X133158715Y-83764908D01*
X132920774Y-83902283D01*
X132920762Y-83902290D01*
X132919385Y-83903086D01*
X132918123Y-83904053D01*
X132918110Y-83904063D01*
X132700134Y-84071322D01*
X132700123Y-84071330D01*
X132698857Y-84072303D01*
X132697726Y-84073433D01*
X132697718Y-84073441D01*
X132503441Y-84267718D01*
X132503433Y-84267726D01*
X132502303Y-84268857D01*
X132501330Y-84270123D01*
X132501322Y-84270134D01*
X132334063Y-84488110D01*
X132334053Y-84488123D01*
X132333086Y-84489385D01*
X132332290Y-84490762D01*
X132332283Y-84490774D01*
X132194908Y-84728715D01*
X132194903Y-84728723D01*
X132194101Y-84730114D01*
X132193485Y-84731600D01*
X132193484Y-84731603D01*
X132088341Y-84985439D01*
X132088338Y-84985446D01*
X132087726Y-84986925D01*
X132087313Y-84988466D01*
X132087308Y-84988481D01*
X132016199Y-85253863D01*
X132016196Y-85253877D01*
X132015782Y-85255423D01*
X132015574Y-85257002D01*
X132015571Y-85257018D01*
X131979708Y-85529430D01*
X131979707Y-85529440D01*
X131979500Y-85531015D01*
X131979500Y-85634618D01*
X131979500Y-89617712D01*
X131979500Y-89650000D01*
X131979500Y-89748031D01*
X131979870Y-89750134D01*
X131979871Y-89750136D01*
X131999256Y-89860072D01*
X132000000Y-89868581D01*
X132000000Y-90355724D01*
X131991486Y-90383327D01*
X131968901Y-90401337D01*
X131940096Y-90403495D01*
X131925274Y-90400112D01*
X131925268Y-90400111D01*
X131922590Y-90399500D01*
X131919841Y-90399500D01*
X127349500Y-90399500D01*
X127314852Y-90385148D01*
X127300500Y-90350500D01*
X127300500Y-85589888D01*
X127301971Y-85581228D01*
X127301920Y-85581223D01*
X127302537Y-85575739D01*
X127304362Y-85570526D01*
X127300808Y-85538978D01*
X127300500Y-85533493D01*
X127300500Y-85527665D01*
X127300500Y-85524910D01*
X127298587Y-85516533D01*
X127297671Y-85511137D01*
X127294116Y-85479576D01*
X127291178Y-85474901D01*
X127289355Y-85469690D01*
X127289403Y-85469673D01*
X127288960Y-85468603D01*
X127288914Y-85468626D01*
X127286518Y-85463650D01*
X127285290Y-85458269D01*
X127265486Y-85433435D01*
X127262316Y-85428968D01*
X127257748Y-85421699D01*
X127251680Y-85415631D01*
X127248028Y-85411545D01*
X127228224Y-85386712D01*
X127223249Y-85384316D01*
X127218933Y-85380874D01*
X127218964Y-85380834D01*
X127211798Y-85375749D01*
X121366812Y-79530763D01*
X121352990Y-79503305D01*
X121358246Y-79473016D01*
X121422396Y-79353001D01*
X121476747Y-79173831D01*
X121495099Y-78987500D01*
X122124901Y-78987500D01*
X122125137Y-78989896D01*
X122143007Y-79171340D01*
X122143253Y-79173831D01*
X122143948Y-79176124D01*
X122143950Y-79176131D01*
X122196847Y-79350506D01*
X122197604Y-79353001D01*
X122198742Y-79355130D01*
X122284579Y-79515722D01*
X122285864Y-79518125D01*
X122404643Y-79662857D01*
X122549375Y-79781636D01*
X122714499Y-79869896D01*
X122893669Y-79924247D01*
X123080000Y-79942599D01*
X123266331Y-79924247D01*
X123445501Y-79869896D01*
X123610625Y-79781636D01*
X123755357Y-79662857D01*
X123874136Y-79518125D01*
X123962396Y-79353001D01*
X124016747Y-79173831D01*
X124035099Y-78987500D01*
X124016747Y-78801169D01*
X123962396Y-78621999D01*
X123874136Y-78456875D01*
X123755357Y-78312143D01*
X123703879Y-78269896D01*
X123612487Y-78194892D01*
X123612486Y-78194891D01*
X123610625Y-78193364D01*
X123445501Y-78105104D01*
X123443193Y-78104403D01*
X123443191Y-78104403D01*
X123268631Y-78051450D01*
X123268624Y-78051448D01*
X123266331Y-78050753D01*
X123263941Y-78050517D01*
X123263938Y-78050517D01*
X123082396Y-78032637D01*
X123080000Y-78032401D01*
X123077604Y-78032637D01*
X122896061Y-78050517D01*
X122896056Y-78050517D01*
X122893669Y-78050753D01*
X122891377Y-78051448D01*
X122891368Y-78051450D01*
X122716808Y-78104403D01*
X122716802Y-78104405D01*
X122714499Y-78105104D01*
X122712373Y-78106240D01*
X122712369Y-78106242D01*
X122551499Y-78192228D01*
X122551493Y-78192231D01*
X122549375Y-78193364D01*
X122547518Y-78194887D01*
X122547512Y-78194892D01*
X122406505Y-78310614D01*
X122406500Y-78310618D01*
X122404643Y-78312143D01*
X122403118Y-78314000D01*
X122403114Y-78314005D01*
X122287392Y-78455012D01*
X122287387Y-78455018D01*
X122285864Y-78456875D01*
X122284731Y-78458993D01*
X122284728Y-78458999D01*
X122198742Y-78619869D01*
X122198740Y-78619873D01*
X122197604Y-78621999D01*
X122196905Y-78624302D01*
X122196903Y-78624308D01*
X122143950Y-78798868D01*
X122143948Y-78798877D01*
X122143253Y-78801169D01*
X122143017Y-78803556D01*
X122143017Y-78803561D01*
X122133448Y-78900718D01*
X122124901Y-78987500D01*
X121495099Y-78987500D01*
X121476747Y-78801169D01*
X121422396Y-78621999D01*
X121334136Y-78456875D01*
X121215357Y-78312143D01*
X121163879Y-78269896D01*
X121072487Y-78194892D01*
X121072486Y-78194891D01*
X121070625Y-78193364D01*
X120905501Y-78105104D01*
X120903193Y-78104403D01*
X120903191Y-78104403D01*
X120775276Y-78065600D01*
X120750143Y-78047899D01*
X120740500Y-78018710D01*
X120740500Y-77416290D01*
X120750143Y-77387101D01*
X120775276Y-77369400D01*
X120811222Y-77358495D01*
X120905501Y-77329896D01*
X121070625Y-77241636D01*
X121215357Y-77122857D01*
X121249905Y-77080760D01*
X122129500Y-77080760D01*
X122129756Y-77082517D01*
X122135633Y-77122857D01*
X122139427Y-77148893D01*
X122141097Y-77152309D01*
X122141098Y-77152312D01*
X122147351Y-77165102D01*
X122190802Y-77253983D01*
X122273517Y-77336698D01*
X122378607Y-77388073D01*
X122446740Y-77398000D01*
X123711484Y-77398000D01*
X123713260Y-77398000D01*
X123781393Y-77388073D01*
X123886483Y-77336698D01*
X123969198Y-77253983D01*
X124020573Y-77148893D01*
X124030500Y-77080760D01*
X124030500Y-75814240D01*
X124020573Y-75746107D01*
X123969198Y-75641017D01*
X123886483Y-75558302D01*
X123838228Y-75534712D01*
X123784812Y-75508598D01*
X123784809Y-75508597D01*
X123781393Y-75506927D01*
X123777628Y-75506378D01*
X123777627Y-75506378D01*
X123715017Y-75497256D01*
X123713260Y-75497000D01*
X122446740Y-75497000D01*
X122444983Y-75497255D01*
X122444982Y-75497256D01*
X122382372Y-75506378D01*
X122382369Y-75506378D01*
X122378607Y-75506927D01*
X122375192Y-75508596D01*
X122375187Y-75508598D01*
X122277166Y-75556518D01*
X122273517Y-75558302D01*
X122270646Y-75561172D01*
X122270643Y-75561175D01*
X122193675Y-75638143D01*
X122193672Y-75638146D01*
X122190802Y-75641017D01*
X122189018Y-75644665D01*
X122189018Y-75644666D01*
X122141098Y-75742687D01*
X122141096Y-75742692D01*
X122139427Y-75746107D01*
X122138878Y-75749869D01*
X122138878Y-75749872D01*
X122135362Y-75774005D01*
X122129500Y-75814240D01*
X122129500Y-77080760D01*
X121249905Y-77080760D01*
X121334136Y-76978125D01*
X121422396Y-76813001D01*
X121476747Y-76633831D01*
X121495099Y-76447500D01*
X121476747Y-76261169D01*
X121422396Y-76081999D01*
X121334136Y-75916875D01*
X121215357Y-75772143D01*
X121163879Y-75729896D01*
X121072487Y-75654892D01*
X121072486Y-75654891D01*
X121070625Y-75653364D01*
X121042148Y-75638143D01*
X120907630Y-75566242D01*
X120905501Y-75565104D01*
X120903193Y-75564403D01*
X120903191Y-75564403D01*
X120728631Y-75511450D01*
X120728624Y-75511448D01*
X120726331Y-75510753D01*
X120723941Y-75510517D01*
X120723938Y-75510517D01*
X120542396Y-75492637D01*
X120540000Y-75492401D01*
X120537604Y-75492637D01*
X120356061Y-75510517D01*
X120356056Y-75510517D01*
X120353669Y-75510753D01*
X120351377Y-75511448D01*
X120351368Y-75511450D01*
X120176808Y-75564403D01*
X120176802Y-75564405D01*
X120174499Y-75565104D01*
X120172373Y-75566240D01*
X120172369Y-75566242D01*
X120011499Y-75652228D01*
X120011493Y-75652231D01*
X120009375Y-75653364D01*
X120007518Y-75654887D01*
X120007512Y-75654892D01*
X119866505Y-75770614D01*
X119866500Y-75770618D01*
X119864643Y-75772143D01*
X119863118Y-75774000D01*
X119863114Y-75774005D01*
X119747392Y-75915012D01*
X119747387Y-75915018D01*
X119745864Y-75916875D01*
X119744731Y-75918993D01*
X119744728Y-75918999D01*
X119658742Y-76079869D01*
X119658740Y-76079873D01*
X119657604Y-76081999D01*
X119656905Y-76084302D01*
X119656903Y-76084308D01*
X119603950Y-76258868D01*
X119603948Y-76258877D01*
X119603253Y-76261169D01*
X119603017Y-76263556D01*
X119603017Y-76263561D01*
X119593448Y-76360718D01*
X119584901Y-76447500D01*
X119585137Y-76449896D01*
X119603007Y-76631340D01*
X119603253Y-76633831D01*
X119603948Y-76636124D01*
X119603950Y-76636131D01*
X119656847Y-76810506D01*
X119657604Y-76813001D01*
X119658742Y-76815130D01*
X119744579Y-76975722D01*
X119745864Y-76978125D01*
X119864643Y-77122857D01*
X120009375Y-77241636D01*
X120174499Y-77329896D01*
X120253689Y-77353918D01*
X120304724Y-77369400D01*
X120329857Y-77387101D01*
X120339500Y-77416290D01*
X120339500Y-78018710D01*
X120329857Y-78047899D01*
X120304724Y-78065600D01*
X120176808Y-78104403D01*
X120176802Y-78104405D01*
X120174499Y-78105104D01*
X120172373Y-78106240D01*
X120172369Y-78106242D01*
X120011499Y-78192228D01*
X120011493Y-78192231D01*
X120009375Y-78193364D01*
X120007518Y-78194887D01*
X120007512Y-78194892D01*
X119866505Y-78310614D01*
X119866500Y-78310618D01*
X119864643Y-78312143D01*
X119863118Y-78314000D01*
X119863114Y-78314005D01*
X119747392Y-78455012D01*
X119747387Y-78455018D01*
X119745864Y-78456875D01*
X119744731Y-78458993D01*
X119744728Y-78458999D01*
X119658742Y-78619869D01*
X119658740Y-78619873D01*
X119657604Y-78621999D01*
X119656905Y-78624302D01*
X119656903Y-78624308D01*
X119603950Y-78798868D01*
X119603948Y-78798877D01*
X119603253Y-78801169D01*
X119603017Y-78803556D01*
X119603017Y-78803561D01*
X119593448Y-78900718D01*
X119584901Y-78987500D01*
X119585137Y-78989896D01*
X119603007Y-79171340D01*
X119603253Y-79173831D01*
X119603948Y-79176124D01*
X119603950Y-79176131D01*
X119656847Y-79350506D01*
X119657604Y-79353001D01*
X119658742Y-79355130D01*
X119744579Y-79515722D01*
X119745864Y-79518125D01*
X119864643Y-79662857D01*
X120009375Y-79781636D01*
X120174499Y-79869896D01*
X120353669Y-79924247D01*
X120540000Y-79942599D01*
X120726331Y-79924247D01*
X120905501Y-79869896D01*
X121025516Y-79805745D01*
X121055805Y-79800490D01*
X121083263Y-79814312D01*
X126885148Y-85616197D01*
X126899500Y-85650845D01*
X126899500Y-90496654D01*
X126885148Y-90531302D01*
X120791303Y-96625148D01*
X120775406Y-96635770D01*
X120756655Y-96639500D01*
X119242388Y-96639500D01*
X119233728Y-96638028D01*
X119233723Y-96638080D01*
X119228238Y-96637461D01*
X119223026Y-96635638D01*
X119217539Y-96636256D01*
X119191478Y-96639192D01*
X119185993Y-96639500D01*
X119177410Y-96639500D01*
X119174734Y-96640110D01*
X119174721Y-96640112D01*
X119169038Y-96641409D01*
X119163631Y-96642328D01*
X119137561Y-96645265D01*
X119137556Y-96645266D01*
X119132076Y-96645884D01*
X119127402Y-96648820D01*
X119122191Y-96650644D01*
X119122174Y-96650597D01*
X119121103Y-96651041D01*
X119121125Y-96651086D01*
X119116150Y-96653481D01*
X119110769Y-96654710D01*
X119106453Y-96658151D01*
X119106450Y-96658153D01*
X119085947Y-96674503D01*
X119081476Y-96677676D01*
X119076529Y-96680785D01*
X119076519Y-96680792D01*
X119074199Y-96682251D01*
X119072260Y-96684189D01*
X119072257Y-96684192D01*
X119068126Y-96688323D01*
X119064036Y-96691977D01*
X119043528Y-96708333D01*
X119043526Y-96708335D01*
X119039212Y-96711776D01*
X119036817Y-96716747D01*
X119033375Y-96721064D01*
X119033335Y-96721032D01*
X119028250Y-96728198D01*
X118631303Y-97125148D01*
X118615407Y-97135770D01*
X118596655Y-97139500D01*
X118165683Y-97139500D01*
X118138461Y-97131242D01*
X118101754Y-97106716D01*
X118097740Y-97104034D01*
X118000000Y-97084592D01*
X117995264Y-97085534D01*
X117906992Y-97103092D01*
X117906988Y-97103093D01*
X117902260Y-97104034D01*
X117898250Y-97106712D01*
X117898248Y-97106714D01*
X117823410Y-97156718D01*
X117823407Y-97156720D01*
X117819399Y-97159399D01*
X117816720Y-97163407D01*
X117816718Y-97163410D01*
X117766714Y-97238248D01*
X117766712Y-97238250D01*
X117764034Y-97242260D01*
X117763093Y-97246988D01*
X117763092Y-97246992D01*
X117745557Y-97335148D01*
X117744592Y-97340000D01*
X117278624Y-97340000D01*
X117207601Y-97297565D01*
X117207599Y-97297564D01*
X117205711Y-97296436D01*
X117156333Y-97277904D01*
X116994736Y-97217255D01*
X116994732Y-97217253D01*
X116992670Y-97216480D01*
X116990510Y-97216088D01*
X116990503Y-97216086D01*
X116770938Y-97176242D01*
X116770934Y-97176241D01*
X116768776Y-97175850D01*
X116598225Y-97175850D01*
X116597144Y-97175947D01*
X116597128Y-97175948D01*
X116430552Y-97190941D01*
X116430550Y-97190941D01*
X116428365Y-97191138D01*
X116426256Y-97191719D01*
X116426245Y-97191722D01*
X116211131Y-97251090D01*
X116211123Y-97251092D01*
X116209014Y-97251675D01*
X116207046Y-97252622D01*
X116207037Y-97252626D01*
X116005976Y-97349451D01*
X116005967Y-97349456D01*
X116003997Y-97350405D01*
X116002228Y-97351690D01*
X116002220Y-97351695D01*
X115821683Y-97482864D01*
X115821674Y-97482871D01*
X115819905Y-97484157D01*
X115818388Y-97485743D01*
X115818383Y-97485748D01*
X115664175Y-97647036D01*
X115664169Y-97647042D01*
X115662653Y-97648629D01*
X115661443Y-97650461D01*
X115661439Y-97650467D01*
X115538507Y-97836699D01*
X115538501Y-97836709D01*
X115537295Y-97838537D01*
X115536435Y-97840547D01*
X115536429Y-97840560D01*
X115448725Y-98045756D01*
X115448722Y-98045763D01*
X115447862Y-98047777D01*
X115447374Y-98049910D01*
X115447372Y-98049920D01*
X115402671Y-98245770D01*
X115397227Y-98269623D01*
X115397128Y-98271814D01*
X115397128Y-98271819D01*
X115387116Y-98494747D01*
X115387116Y-98494754D01*
X115387018Y-98496945D01*
X100120500Y-98496945D01*
X100120500Y-96916000D01*
X114173064Y-96916000D01*
X114173483Y-96919183D01*
X114192303Y-97062137D01*
X114192304Y-97062141D01*
X114192723Y-97065322D01*
X114193951Y-97068287D01*
X114193952Y-97068290D01*
X114245079Y-97191722D01*
X114250359Y-97204468D01*
X114252311Y-97207012D01*
X114252314Y-97207017D01*
X114336559Y-97316806D01*
X114342045Y-97323955D01*
X114344593Y-97325910D01*
X114458982Y-97413685D01*
X114458985Y-97413687D01*
X114461532Y-97415641D01*
X114600678Y-97473277D01*
X114712508Y-97488000D01*
X114785892Y-97488000D01*
X114787492Y-97488000D01*
X114899322Y-97473277D01*
X115038468Y-97415641D01*
X115157955Y-97323955D01*
X115249641Y-97204468D01*
X115307277Y-97065322D01*
X115326936Y-96916000D01*
X115325105Y-96902096D01*
X115315657Y-96830328D01*
X115307277Y-96766678D01*
X115249641Y-96627532D01*
X115247687Y-96624985D01*
X115247685Y-96624982D01*
X115159910Y-96510593D01*
X115157955Y-96508045D01*
X115136297Y-96491426D01*
X115041017Y-96418314D01*
X115041012Y-96418311D01*
X115038468Y-96416359D01*
X115035499Y-96415129D01*
X114902290Y-96359952D01*
X114902287Y-96359951D01*
X114899322Y-96358723D01*
X114896141Y-96358304D01*
X114896137Y-96358303D01*
X114789076Y-96344208D01*
X114789067Y-96344207D01*
X114787492Y-96344000D01*
X114712508Y-96344000D01*
X114710933Y-96344207D01*
X114710923Y-96344208D01*
X114603862Y-96358303D01*
X114603856Y-96358304D01*
X114600678Y-96358723D01*
X114597714Y-96359950D01*
X114597709Y-96359952D01*
X114464500Y-96415129D01*
X114464496Y-96415131D01*
X114461532Y-96416359D01*
X114458990Y-96418308D01*
X114458982Y-96418314D01*
X114344593Y-96506089D01*
X114344589Y-96506092D01*
X114342045Y-96508045D01*
X114340092Y-96510589D01*
X114340089Y-96510593D01*
X114252314Y-96624982D01*
X114252308Y-96624990D01*
X114250359Y-96627532D01*
X114249131Y-96630496D01*
X114249129Y-96630500D01*
X114193952Y-96763709D01*
X114193950Y-96763714D01*
X114192723Y-96766678D01*
X114192304Y-96769856D01*
X114192303Y-96769862D01*
X114174489Y-96905173D01*
X114173064Y-96916000D01*
X100120500Y-96916000D01*
X100120500Y-95900000D01*
X119253064Y-95900000D01*
X119253483Y-95903183D01*
X119272303Y-96046137D01*
X119272304Y-96046141D01*
X119272723Y-96049322D01*
X119273951Y-96052287D01*
X119273952Y-96052290D01*
X119327161Y-96180748D01*
X119330359Y-96188468D01*
X119332311Y-96191012D01*
X119332314Y-96191017D01*
X119416402Y-96300601D01*
X119422045Y-96307955D01*
X119424593Y-96309910D01*
X119538982Y-96397685D01*
X119538985Y-96397687D01*
X119541532Y-96399641D01*
X119680678Y-96457277D01*
X119792508Y-96472000D01*
X119865892Y-96472000D01*
X119867492Y-96472000D01*
X119979322Y-96457277D01*
X120118468Y-96399641D01*
X120237955Y-96307955D01*
X120329641Y-96188468D01*
X120387277Y-96049322D01*
X120406936Y-95900000D01*
X120387277Y-95750678D01*
X120329641Y-95611532D01*
X120327687Y-95608985D01*
X120327685Y-95608982D01*
X120239910Y-95494593D01*
X120237955Y-95492045D01*
X120211695Y-95471895D01*
X120121017Y-95402314D01*
X120121012Y-95402311D01*
X120118468Y-95400359D01*
X120115499Y-95399129D01*
X119982290Y-95343952D01*
X119982287Y-95343951D01*
X119979322Y-95342723D01*
X119976141Y-95342304D01*
X119976137Y-95342303D01*
X119869076Y-95328208D01*
X119869067Y-95328207D01*
X119867492Y-95328000D01*
X119792508Y-95328000D01*
X119790933Y-95328207D01*
X119790923Y-95328208D01*
X119683862Y-95342303D01*
X119683856Y-95342304D01*
X119680678Y-95342723D01*
X119677714Y-95343950D01*
X119677709Y-95343952D01*
X119544500Y-95399129D01*
X119544496Y-95399131D01*
X119541532Y-95400359D01*
X119538990Y-95402308D01*
X119538982Y-95402314D01*
X119424593Y-95490089D01*
X119424589Y-95490092D01*
X119422045Y-95492045D01*
X119420092Y-95494589D01*
X119420089Y-95494593D01*
X119332314Y-95608982D01*
X119332308Y-95608990D01*
X119330359Y-95611532D01*
X119329131Y-95614496D01*
X119329129Y-95614500D01*
X119273952Y-95747709D01*
X119273950Y-95747714D01*
X119272723Y-95750678D01*
X119272304Y-95753856D01*
X119272303Y-95753862D01*
X119255290Y-95883092D01*
X119253064Y-95900000D01*
X100120500Y-95900000D01*
X100120500Y-94884000D01*
X114173064Y-94884000D01*
X114173483Y-94887183D01*
X114192303Y-95030137D01*
X114192304Y-95030141D01*
X114192723Y-95033322D01*
X114193951Y-95036287D01*
X114193952Y-95036290D01*
X114240845Y-95149500D01*
X114250359Y-95172468D01*
X114252311Y-95175012D01*
X114252314Y-95175017D01*
X114293146Y-95228229D01*
X114342045Y-95291955D01*
X114358695Y-95304731D01*
X114458982Y-95381685D01*
X114458985Y-95381687D01*
X114461532Y-95383641D01*
X114600678Y-95441277D01*
X114712508Y-95456000D01*
X114785892Y-95456000D01*
X114787492Y-95456000D01*
X114899322Y-95441277D01*
X115038468Y-95383641D01*
X115157955Y-95291955D01*
X115249641Y-95172468D01*
X115307277Y-95033322D01*
X115318905Y-94945000D01*
X119944592Y-94945000D01*
X119945534Y-94949736D01*
X119963092Y-95038007D01*
X119963093Y-95038009D01*
X119964034Y-95042740D01*
X119966713Y-95046750D01*
X119966714Y-95046751D01*
X120009323Y-95110522D01*
X120019399Y-95125601D01*
X120102260Y-95180966D01*
X120200000Y-95200408D01*
X120297740Y-95180966D01*
X120380601Y-95125601D01*
X120435966Y-95042740D01*
X120455408Y-94945000D01*
X120435966Y-94847260D01*
X120380601Y-94764399D01*
X120362755Y-94752475D01*
X120301751Y-94711714D01*
X120301750Y-94711713D01*
X120297740Y-94709034D01*
X120293009Y-94708093D01*
X120293007Y-94708092D01*
X120204736Y-94690534D01*
X120200000Y-94689592D01*
X120195264Y-94690534D01*
X120106992Y-94708092D01*
X120106988Y-94708093D01*
X120102260Y-94709034D01*
X120098250Y-94711712D01*
X120098248Y-94711714D01*
X120023410Y-94761718D01*
X120023407Y-94761720D01*
X120019399Y-94764399D01*
X120016720Y-94768407D01*
X120016718Y-94768410D01*
X119966714Y-94843248D01*
X119966712Y-94843250D01*
X119964034Y-94847260D01*
X119963093Y-94851988D01*
X119963092Y-94851992D01*
X119952614Y-94904672D01*
X119944592Y-94945000D01*
X115318905Y-94945000D01*
X115326936Y-94884000D01*
X115307277Y-94734678D01*
X115249641Y-94595532D01*
X115247687Y-94592985D01*
X115247685Y-94592982D01*
X115159910Y-94478593D01*
X115157955Y-94476045D01*
X115147946Y-94468365D01*
X115041017Y-94386314D01*
X115041012Y-94386311D01*
X115038468Y-94384359D01*
X115024263Y-94378475D01*
X114902290Y-94327952D01*
X114902287Y-94327951D01*
X114899322Y-94326723D01*
X114896141Y-94326304D01*
X114896137Y-94326303D01*
X114789076Y-94312208D01*
X114789067Y-94312207D01*
X114787492Y-94312000D01*
X114712508Y-94312000D01*
X114710933Y-94312207D01*
X114710923Y-94312208D01*
X114603862Y-94326303D01*
X114603856Y-94326304D01*
X114600678Y-94326723D01*
X114597714Y-94327950D01*
X114597709Y-94327952D01*
X114464500Y-94383129D01*
X114464496Y-94383131D01*
X114461532Y-94384359D01*
X114458990Y-94386308D01*
X114458982Y-94386314D01*
X114344593Y-94474089D01*
X114344589Y-94474092D01*
X114342045Y-94476045D01*
X114340092Y-94478589D01*
X114340089Y-94478593D01*
X114252314Y-94592982D01*
X114252308Y-94592990D01*
X114250359Y-94595532D01*
X114249131Y-94598496D01*
X114249129Y-94598500D01*
X114193952Y-94731709D01*
X114193950Y-94731714D01*
X114192723Y-94734678D01*
X114192304Y-94737856D01*
X114192303Y-94737862D01*
X114173866Y-94877905D01*
X114173064Y-94884000D01*
X100120500Y-94884000D01*
X100120500Y-93416945D01*
X115387018Y-93416945D01*
X115387312Y-93419122D01*
X115387313Y-93419124D01*
X115417268Y-93640263D01*
X115417269Y-93640268D01*
X115417563Y-93642437D01*
X115418238Y-93644514D01*
X115418240Y-93644523D01*
X115469758Y-93803077D01*
X115487880Y-93858851D01*
X115488917Y-93860779D01*
X115488921Y-93860787D01*
X115594670Y-94057301D01*
X115594674Y-94057308D01*
X115595710Y-94059232D01*
X115597075Y-94060944D01*
X115597076Y-94060945D01*
X115722836Y-94218644D01*
X115737585Y-94237138D01*
X115908948Y-94386853D01*
X116104289Y-94503564D01*
X116317330Y-94583520D01*
X116541224Y-94624150D01*
X116710671Y-94624150D01*
X116711775Y-94624150D01*
X116881635Y-94608862D01*
X117100986Y-94548325D01*
X117306003Y-94449595D01*
X117490095Y-94315843D01*
X117647347Y-94151371D01*
X117772705Y-93961463D01*
X117862138Y-93752223D01*
X117912773Y-93530377D01*
X117917867Y-93416945D01*
X118562018Y-93416945D01*
X118562312Y-93419122D01*
X118562313Y-93419124D01*
X118592268Y-93640263D01*
X118592269Y-93640268D01*
X118592563Y-93642437D01*
X118593238Y-93644514D01*
X118593240Y-93644523D01*
X118644758Y-93803077D01*
X118662880Y-93858851D01*
X118663917Y-93860779D01*
X118663921Y-93860787D01*
X118769670Y-94057301D01*
X118769674Y-94057308D01*
X118770710Y-94059232D01*
X118772075Y-94060944D01*
X118772076Y-94060945D01*
X118897836Y-94218644D01*
X118912585Y-94237138D01*
X119083948Y-94386853D01*
X119279289Y-94503564D01*
X119492330Y-94583520D01*
X119716224Y-94624150D01*
X119885671Y-94624150D01*
X119886775Y-94624150D01*
X120056635Y-94608862D01*
X120275986Y-94548325D01*
X120481003Y-94449595D01*
X120665095Y-94315843D01*
X120822347Y-94151371D01*
X120947705Y-93961463D01*
X121037138Y-93752223D01*
X121087773Y-93530377D01*
X121097982Y-93303055D01*
X121067437Y-93077563D01*
X121063326Y-93064912D01*
X121048689Y-93019863D01*
X120997120Y-92861149D01*
X120992337Y-92852260D01*
X120890329Y-92662698D01*
X120890326Y-92662694D01*
X120889290Y-92660768D01*
X120747415Y-92482862D01*
X120741022Y-92477277D01*
X120641043Y-92389928D01*
X120576052Y-92333147D01*
X120465215Y-92266925D01*
X120382601Y-92217565D01*
X120382599Y-92217564D01*
X120380711Y-92216436D01*
X120339894Y-92201117D01*
X120169736Y-92137255D01*
X120169732Y-92137253D01*
X120167670Y-92136480D01*
X120165510Y-92136088D01*
X120165503Y-92136086D01*
X119945938Y-92096242D01*
X119945934Y-92096241D01*
X119943776Y-92095850D01*
X119773225Y-92095850D01*
X119772144Y-92095947D01*
X119772128Y-92095948D01*
X119605552Y-92110941D01*
X119605550Y-92110941D01*
X119603365Y-92111138D01*
X119601256Y-92111719D01*
X119601245Y-92111722D01*
X119386131Y-92171090D01*
X119386123Y-92171092D01*
X119384014Y-92171675D01*
X119382046Y-92172622D01*
X119382037Y-92172626D01*
X119180976Y-92269451D01*
X119180967Y-92269456D01*
X119178997Y-92270405D01*
X119177228Y-92271690D01*
X119177220Y-92271695D01*
X118996683Y-92402864D01*
X118996674Y-92402871D01*
X118994905Y-92404157D01*
X118993388Y-92405743D01*
X118993383Y-92405748D01*
X118839175Y-92567036D01*
X118839169Y-92567042D01*
X118837653Y-92568629D01*
X118836443Y-92570461D01*
X118836439Y-92570467D01*
X118713507Y-92756699D01*
X118713501Y-92756709D01*
X118712295Y-92758537D01*
X118711435Y-92760547D01*
X118711429Y-92760560D01*
X118623725Y-92965756D01*
X118623722Y-92965763D01*
X118622862Y-92967777D01*
X118622374Y-92969910D01*
X118622372Y-92969920D01*
X118572717Y-93187475D01*
X118572227Y-93189623D01*
X118572128Y-93191814D01*
X118572128Y-93191819D01*
X118562116Y-93414747D01*
X118562116Y-93414754D01*
X118562018Y-93416945D01*
X117917867Y-93416945D01*
X117922982Y-93303055D01*
X117892437Y-93077563D01*
X117888326Y-93064912D01*
X117873689Y-93019863D01*
X117822120Y-92861149D01*
X117817337Y-92852260D01*
X117715329Y-92662698D01*
X117715326Y-92662694D01*
X117714290Y-92660768D01*
X117572415Y-92482862D01*
X117566022Y-92477277D01*
X117466043Y-92389928D01*
X117401052Y-92333147D01*
X117290215Y-92266925D01*
X117207601Y-92217565D01*
X117207599Y-92217564D01*
X117205711Y-92216436D01*
X117164894Y-92201117D01*
X116994736Y-92137255D01*
X116994732Y-92137253D01*
X116992670Y-92136480D01*
X116990510Y-92136088D01*
X116990503Y-92136086D01*
X116770938Y-92096242D01*
X116770934Y-92096241D01*
X116768776Y-92095850D01*
X116598225Y-92095850D01*
X116597144Y-92095947D01*
X116597128Y-92095948D01*
X116430552Y-92110941D01*
X116430550Y-92110941D01*
X116428365Y-92111138D01*
X116426256Y-92111719D01*
X116426245Y-92111722D01*
X116211131Y-92171090D01*
X116211123Y-92171092D01*
X116209014Y-92171675D01*
X116207046Y-92172622D01*
X116207037Y-92172626D01*
X116005976Y-92269451D01*
X116005967Y-92269456D01*
X116003997Y-92270405D01*
X116002228Y-92271690D01*
X116002220Y-92271695D01*
X115821683Y-92402864D01*
X115821674Y-92402871D01*
X115819905Y-92404157D01*
X115818388Y-92405743D01*
X115818383Y-92405748D01*
X115664175Y-92567036D01*
X115664169Y-92567042D01*
X115662653Y-92568629D01*
X115661443Y-92570461D01*
X115661439Y-92570467D01*
X115538507Y-92756699D01*
X115538501Y-92756709D01*
X115537295Y-92758537D01*
X115536435Y-92760547D01*
X115536429Y-92760560D01*
X115448725Y-92965756D01*
X115448722Y-92965763D01*
X115447862Y-92967777D01*
X115447374Y-92969910D01*
X115447372Y-92969920D01*
X115397717Y-93187475D01*
X115397227Y-93189623D01*
X115397128Y-93191814D01*
X115397128Y-93191819D01*
X115387116Y-93414747D01*
X115387116Y-93414754D01*
X115387018Y-93416945D01*
X100120500Y-93416945D01*
X100120500Y-79700639D01*
X112293818Y-79700639D01*
X112296907Y-79705102D01*
X112387790Y-79779688D01*
X112391777Y-79782352D01*
X112552571Y-79868299D01*
X112556993Y-79870131D01*
X112731466Y-79923057D01*
X112736159Y-79923990D01*
X112917604Y-79941861D01*
X112922396Y-79941861D01*
X113103840Y-79923990D01*
X113108533Y-79923057D01*
X113283006Y-79870131D01*
X113287428Y-79868299D01*
X113448226Y-79782350D01*
X113452204Y-79779692D01*
X113543094Y-79705099D01*
X113546180Y-79700640D01*
X113546179Y-79700639D01*
X114833818Y-79700639D01*
X114836907Y-79705102D01*
X114927790Y-79779688D01*
X114931777Y-79782352D01*
X115092571Y-79868299D01*
X115096993Y-79870131D01*
X115271466Y-79923057D01*
X115276159Y-79923990D01*
X115457604Y-79941861D01*
X115462396Y-79941861D01*
X115643840Y-79923990D01*
X115648533Y-79923057D01*
X115823006Y-79870131D01*
X115827428Y-79868299D01*
X115988226Y-79782350D01*
X115992204Y-79779692D01*
X116083094Y-79705099D01*
X116086180Y-79700640D01*
X116083545Y-79695898D01*
X115466892Y-79079245D01*
X115460000Y-79076390D01*
X115453107Y-79079245D01*
X114836453Y-79695898D01*
X114833818Y-79700639D01*
X113546179Y-79700639D01*
X113543545Y-79695898D01*
X112926892Y-79079245D01*
X112920000Y-79076390D01*
X112913107Y-79079245D01*
X112296453Y-79695898D01*
X112293818Y-79700639D01*
X100120500Y-79700639D01*
X100120500Y-78989896D01*
X111965639Y-78989896D01*
X111983509Y-79171340D01*
X111984442Y-79176033D01*
X112037368Y-79350506D01*
X112039200Y-79354928D01*
X112125147Y-79515722D01*
X112127811Y-79519709D01*
X112202396Y-79610591D01*
X112206859Y-79613680D01*
X112211600Y-79611045D01*
X112830585Y-78992061D01*
X112833218Y-78987500D01*
X112833217Y-78987499D01*
X113008890Y-78987499D01*
X113011745Y-78994392D01*
X113628398Y-79611045D01*
X113633140Y-79613680D01*
X113637599Y-79610594D01*
X113712192Y-79519704D01*
X113714850Y-79515726D01*
X113800799Y-79354928D01*
X113802631Y-79350506D01*
X113855557Y-79176033D01*
X113856490Y-79171340D01*
X113874361Y-78989896D01*
X114505639Y-78989896D01*
X114523509Y-79171340D01*
X114524442Y-79176033D01*
X114577368Y-79350506D01*
X114579200Y-79354928D01*
X114665147Y-79515722D01*
X114667811Y-79519709D01*
X114742396Y-79610591D01*
X114746859Y-79613680D01*
X114751600Y-79611045D01*
X115370585Y-78992061D01*
X115373218Y-78987500D01*
X115373217Y-78987499D01*
X115548890Y-78987499D01*
X115551745Y-78994392D01*
X116168398Y-79611045D01*
X116173140Y-79613680D01*
X116177599Y-79610594D01*
X116252192Y-79519704D01*
X116254850Y-79515726D01*
X116340799Y-79354928D01*
X116342631Y-79350506D01*
X116395557Y-79176033D01*
X116396490Y-79171340D01*
X116414361Y-78989896D01*
X116414361Y-78987500D01*
X117044901Y-78987500D01*
X117045137Y-78989896D01*
X117063007Y-79171340D01*
X117063253Y-79173831D01*
X117063948Y-79176124D01*
X117063950Y-79176131D01*
X117116847Y-79350506D01*
X117117604Y-79353001D01*
X117118742Y-79355130D01*
X117204579Y-79515722D01*
X117205864Y-79518125D01*
X117324643Y-79662857D01*
X117469375Y-79781636D01*
X117634499Y-79869896D01*
X117813669Y-79924247D01*
X118000000Y-79942599D01*
X118186331Y-79924247D01*
X118365501Y-79869896D01*
X118485516Y-79805745D01*
X118515805Y-79800490D01*
X118543263Y-79814312D01*
X122985148Y-84256198D01*
X122999500Y-84290846D01*
X122999500Y-91834317D01*
X122991242Y-91861539D01*
X122966716Y-91898245D01*
X122966714Y-91898247D01*
X122964034Y-91902260D01*
X122963092Y-91906994D01*
X122963092Y-91906995D01*
X122956527Y-91939999D01*
X122944592Y-92000000D01*
X122945534Y-92004736D01*
X122963092Y-92093007D01*
X122963093Y-92093009D01*
X122964034Y-92097740D01*
X122966713Y-92101750D01*
X122966714Y-92101751D01*
X123011399Y-92168629D01*
X123019399Y-92180601D01*
X123102260Y-92235966D01*
X123159807Y-92247413D01*
X123192931Y-92254002D01*
X123200000Y-92255408D01*
X123207069Y-92254002D01*
X123227187Y-92250000D01*
X123297740Y-92235966D01*
X123380601Y-92180601D01*
X123435966Y-92097740D01*
X123455408Y-92000000D01*
X123435966Y-91902260D01*
X123409945Y-91863316D01*
X123408758Y-91861539D01*
X123400500Y-91834317D01*
X123400500Y-84229891D01*
X123401971Y-84221228D01*
X123401921Y-84221223D01*
X123402538Y-84215741D01*
X123404363Y-84210527D01*
X123400807Y-84178973D01*
X123400500Y-84173488D01*
X123400500Y-84167665D01*
X123400500Y-84164910D01*
X123398590Y-84156543D01*
X123397671Y-84151133D01*
X123394734Y-84125061D01*
X123394733Y-84125060D01*
X123394116Y-84119576D01*
X123391178Y-84114901D01*
X123389355Y-84109690D01*
X123389403Y-84109673D01*
X123388960Y-84108603D01*
X123388914Y-84108626D01*
X123386518Y-84103650D01*
X123385290Y-84098269D01*
X123365491Y-84073441D01*
X123362314Y-84068964D01*
X123359211Y-84064025D01*
X123359209Y-84064022D01*
X123357749Y-84061699D01*
X123351680Y-84055630D01*
X123348019Y-84051534D01*
X123331666Y-84031028D01*
X123331665Y-84031027D01*
X123328224Y-84026712D01*
X123323249Y-84024316D01*
X123318934Y-84020875D01*
X123318965Y-84020835D01*
X123311800Y-84015750D01*
X118826812Y-79530763D01*
X118812990Y-79503305D01*
X118818246Y-79473016D01*
X118882396Y-79353001D01*
X118936747Y-79173831D01*
X118955099Y-78987500D01*
X118936747Y-78801169D01*
X118882396Y-78621999D01*
X118794136Y-78456875D01*
X118675357Y-78312143D01*
X118623879Y-78269896D01*
X118532487Y-78194892D01*
X118532486Y-78194891D01*
X118530625Y-78193364D01*
X118365501Y-78105104D01*
X118363193Y-78104403D01*
X118363191Y-78104403D01*
X118235276Y-78065600D01*
X118210143Y-78047899D01*
X118200500Y-78018710D01*
X118200500Y-77416290D01*
X118210143Y-77387101D01*
X118235276Y-77369400D01*
X118271222Y-77358495D01*
X118365501Y-77329896D01*
X118530625Y-77241636D01*
X118675357Y-77122857D01*
X118794136Y-76978125D01*
X118882396Y-76813001D01*
X118936747Y-76633831D01*
X118955099Y-76447500D01*
X118936747Y-76261169D01*
X118882396Y-76081999D01*
X118794136Y-75916875D01*
X118675357Y-75772143D01*
X118623879Y-75729896D01*
X118532487Y-75654892D01*
X118532486Y-75654891D01*
X118530625Y-75653364D01*
X118502148Y-75638143D01*
X118367630Y-75566242D01*
X118365501Y-75565104D01*
X118363193Y-75564403D01*
X118363191Y-75564403D01*
X118188631Y-75511450D01*
X118188624Y-75511448D01*
X118186331Y-75510753D01*
X118183941Y-75510517D01*
X118183938Y-75510517D01*
X118002396Y-75492637D01*
X118000000Y-75492401D01*
X117997604Y-75492637D01*
X117816061Y-75510517D01*
X117816056Y-75510517D01*
X117813669Y-75510753D01*
X117811377Y-75511448D01*
X117811368Y-75511450D01*
X117636808Y-75564403D01*
X117636802Y-75564405D01*
X117634499Y-75565104D01*
X117632373Y-75566240D01*
X117632369Y-75566242D01*
X117471499Y-75652228D01*
X117471493Y-75652231D01*
X117469375Y-75653364D01*
X117467518Y-75654887D01*
X117467512Y-75654892D01*
X117326505Y-75770614D01*
X117326500Y-75770618D01*
X117324643Y-75772143D01*
X117323118Y-75774000D01*
X117323114Y-75774005D01*
X117207392Y-75915012D01*
X117207387Y-75915018D01*
X117205864Y-75916875D01*
X117204731Y-75918993D01*
X117204728Y-75918999D01*
X117118742Y-76079869D01*
X117118740Y-76079873D01*
X117117604Y-76081999D01*
X117116905Y-76084302D01*
X117116903Y-76084308D01*
X117063950Y-76258868D01*
X117063948Y-76258877D01*
X117063253Y-76261169D01*
X117063017Y-76263556D01*
X117063017Y-76263561D01*
X117053448Y-76360718D01*
X117044901Y-76447500D01*
X117045137Y-76449896D01*
X117063007Y-76631340D01*
X117063253Y-76633831D01*
X117063948Y-76636124D01*
X117063950Y-76636131D01*
X117116847Y-76810506D01*
X117117604Y-76813001D01*
X117118742Y-76815130D01*
X117204579Y-76975722D01*
X117205864Y-76978125D01*
X117324643Y-77122857D01*
X117469375Y-77241636D01*
X117634499Y-77329896D01*
X117713689Y-77353918D01*
X117764724Y-77369400D01*
X117789857Y-77387101D01*
X117799500Y-77416290D01*
X117799500Y-78018710D01*
X117789857Y-78047899D01*
X117764724Y-78065600D01*
X117636808Y-78104403D01*
X117636802Y-78104405D01*
X117634499Y-78105104D01*
X117632373Y-78106240D01*
X117632369Y-78106242D01*
X117471499Y-78192228D01*
X117471493Y-78192231D01*
X117469375Y-78193364D01*
X117467518Y-78194887D01*
X117467512Y-78194892D01*
X117326505Y-78310614D01*
X117326500Y-78310618D01*
X117324643Y-78312143D01*
X117323118Y-78314000D01*
X117323114Y-78314005D01*
X117207392Y-78455012D01*
X117207387Y-78455018D01*
X117205864Y-78456875D01*
X117204731Y-78458993D01*
X117204728Y-78458999D01*
X117118742Y-78619869D01*
X117118740Y-78619873D01*
X117117604Y-78621999D01*
X117116905Y-78624302D01*
X117116903Y-78624308D01*
X117063950Y-78798868D01*
X117063948Y-78798877D01*
X117063253Y-78801169D01*
X117063017Y-78803556D01*
X117063017Y-78803561D01*
X117053448Y-78900718D01*
X117044901Y-78987500D01*
X116414361Y-78987500D01*
X116414361Y-78985104D01*
X116396490Y-78803659D01*
X116395557Y-78798966D01*
X116342631Y-78624493D01*
X116340799Y-78620071D01*
X116254852Y-78459277D01*
X116252188Y-78455290D01*
X116177602Y-78364407D01*
X116173139Y-78361318D01*
X116168398Y-78363953D01*
X115551745Y-78980607D01*
X115548890Y-78987499D01*
X115373217Y-78987499D01*
X115370585Y-78982938D01*
X114751600Y-78363953D01*
X114746859Y-78361318D01*
X114742397Y-78364406D01*
X114667807Y-78455294D01*
X114665148Y-78459275D01*
X114579200Y-78620071D01*
X114577368Y-78624493D01*
X114524442Y-78798966D01*
X114523509Y-78803659D01*
X114505639Y-78985104D01*
X114505639Y-78989896D01*
X113874361Y-78989896D01*
X113874361Y-78985104D01*
X113856490Y-78803659D01*
X113855557Y-78798966D01*
X113802631Y-78624493D01*
X113800799Y-78620071D01*
X113714852Y-78459277D01*
X113712188Y-78455290D01*
X113637602Y-78364407D01*
X113633139Y-78361318D01*
X113628398Y-78363953D01*
X113011745Y-78980607D01*
X113008890Y-78987499D01*
X112833217Y-78987499D01*
X112830585Y-78982938D01*
X112211600Y-78363953D01*
X112206859Y-78361318D01*
X112202397Y-78364406D01*
X112127807Y-78455294D01*
X112125148Y-78459275D01*
X112039200Y-78620071D01*
X112037368Y-78624493D01*
X111984442Y-78798966D01*
X111983509Y-78803659D01*
X111965639Y-78985104D01*
X111965639Y-78989896D01*
X100120500Y-78989896D01*
X100120500Y-78274359D01*
X112293818Y-78274359D01*
X112296453Y-78279100D01*
X112915438Y-78898085D01*
X112920000Y-78900718D01*
X112924561Y-78898085D01*
X113543545Y-78279100D01*
X113546180Y-78274359D01*
X114833818Y-78274359D01*
X114836453Y-78279100D01*
X115455438Y-78898085D01*
X115460000Y-78900718D01*
X115464561Y-78898085D01*
X116083545Y-78279100D01*
X116086180Y-78274359D01*
X116083091Y-78269896D01*
X115992209Y-78195311D01*
X115988222Y-78192647D01*
X115827428Y-78106700D01*
X115823006Y-78104868D01*
X115648533Y-78051942D01*
X115643840Y-78051009D01*
X115462396Y-78033139D01*
X115457604Y-78033139D01*
X115276159Y-78051009D01*
X115271466Y-78051942D01*
X115096993Y-78104868D01*
X115092571Y-78106700D01*
X114931775Y-78192648D01*
X114927794Y-78195307D01*
X114836906Y-78269897D01*
X114833818Y-78274359D01*
X113546180Y-78274359D01*
X113543091Y-78269896D01*
X113452209Y-78195311D01*
X113448222Y-78192647D01*
X113287428Y-78106700D01*
X113283006Y-78104868D01*
X113108533Y-78051942D01*
X113103840Y-78051009D01*
X112922396Y-78033139D01*
X112917604Y-78033139D01*
X112736159Y-78051009D01*
X112731466Y-78051942D01*
X112556993Y-78104868D01*
X112552571Y-78106700D01*
X112391775Y-78192648D01*
X112387794Y-78195307D01*
X112296906Y-78269897D01*
X112293818Y-78274359D01*
X100120500Y-78274359D01*
X100120500Y-77160639D01*
X112293818Y-77160639D01*
X112296907Y-77165102D01*
X112387790Y-77239688D01*
X112391777Y-77242352D01*
X112552571Y-77328299D01*
X112556993Y-77330131D01*
X112731466Y-77383057D01*
X112736159Y-77383990D01*
X112917604Y-77401861D01*
X112922396Y-77401861D01*
X113103840Y-77383990D01*
X113108533Y-77383057D01*
X113283006Y-77330131D01*
X113287428Y-77328299D01*
X113448226Y-77242350D01*
X113452204Y-77239692D01*
X113543094Y-77165099D01*
X113546180Y-77160640D01*
X113546179Y-77160639D01*
X114833818Y-77160639D01*
X114836907Y-77165102D01*
X114927790Y-77239688D01*
X114931777Y-77242352D01*
X115092571Y-77328299D01*
X115096993Y-77330131D01*
X115271466Y-77383057D01*
X115276159Y-77383990D01*
X115457604Y-77401861D01*
X115462396Y-77401861D01*
X115643840Y-77383990D01*
X115648533Y-77383057D01*
X115823006Y-77330131D01*
X115827428Y-77328299D01*
X115988226Y-77242350D01*
X115992204Y-77239692D01*
X116083094Y-77165099D01*
X116086180Y-77160640D01*
X116083545Y-77155898D01*
X115466892Y-76539245D01*
X115460000Y-76536390D01*
X115453107Y-76539245D01*
X114836453Y-77155898D01*
X114833818Y-77160639D01*
X113546179Y-77160639D01*
X113543545Y-77155898D01*
X112926892Y-76539245D01*
X112920000Y-76536390D01*
X112913107Y-76539245D01*
X112296453Y-77155898D01*
X112293818Y-77160639D01*
X100120500Y-77160639D01*
X100120500Y-76449896D01*
X111965639Y-76449896D01*
X111983509Y-76631340D01*
X111984442Y-76636033D01*
X112037368Y-76810506D01*
X112039200Y-76814928D01*
X112125147Y-76975722D01*
X112127811Y-76979709D01*
X112202396Y-77070591D01*
X112206859Y-77073680D01*
X112211600Y-77071045D01*
X112830585Y-76452061D01*
X112833218Y-76447500D01*
X112833217Y-76447499D01*
X113008890Y-76447499D01*
X113011745Y-76454392D01*
X113628398Y-77071045D01*
X113633140Y-77073680D01*
X113637599Y-77070594D01*
X113712192Y-76979704D01*
X113714850Y-76975726D01*
X113800799Y-76814928D01*
X113802631Y-76810506D01*
X113855557Y-76636033D01*
X113856490Y-76631340D01*
X113874361Y-76449896D01*
X114505639Y-76449896D01*
X114523509Y-76631340D01*
X114524442Y-76636033D01*
X114577368Y-76810506D01*
X114579200Y-76814928D01*
X114665147Y-76975722D01*
X114667811Y-76979709D01*
X114742396Y-77070591D01*
X114746859Y-77073680D01*
X114751600Y-77071045D01*
X115370585Y-76452061D01*
X115373218Y-76447500D01*
X115373217Y-76447499D01*
X115548890Y-76447499D01*
X115551745Y-76454392D01*
X116168398Y-77071045D01*
X116173140Y-77073680D01*
X116177599Y-77070594D01*
X116252192Y-76979704D01*
X116254850Y-76975726D01*
X116340799Y-76814928D01*
X116342631Y-76810506D01*
X116395557Y-76636033D01*
X116396490Y-76631340D01*
X116414361Y-76449896D01*
X116414361Y-76445104D01*
X116396490Y-76263659D01*
X116395557Y-76258966D01*
X116342631Y-76084493D01*
X116340799Y-76080071D01*
X116254852Y-75919277D01*
X116252188Y-75915290D01*
X116177602Y-75824407D01*
X116173139Y-75821318D01*
X116168398Y-75823953D01*
X115551745Y-76440607D01*
X115548890Y-76447499D01*
X115373217Y-76447499D01*
X115370585Y-76442938D01*
X114751600Y-75823953D01*
X114746859Y-75821318D01*
X114742397Y-75824406D01*
X114667807Y-75915294D01*
X114665148Y-75919275D01*
X114579200Y-76080071D01*
X114577368Y-76084493D01*
X114524442Y-76258966D01*
X114523509Y-76263659D01*
X114505639Y-76445104D01*
X114505639Y-76449896D01*
X113874361Y-76449896D01*
X113874361Y-76445104D01*
X113856490Y-76263659D01*
X113855557Y-76258966D01*
X113802631Y-76084493D01*
X113800799Y-76080071D01*
X113714852Y-75919277D01*
X113712188Y-75915290D01*
X113637602Y-75824407D01*
X113633139Y-75821318D01*
X113628398Y-75823953D01*
X113011745Y-76440607D01*
X113008890Y-76447499D01*
X112833217Y-76447499D01*
X112830585Y-76442938D01*
X112211600Y-75823953D01*
X112206859Y-75821318D01*
X112202397Y-75824406D01*
X112127807Y-75915294D01*
X112125148Y-75919275D01*
X112039200Y-76080071D01*
X112037368Y-76084493D01*
X111984442Y-76258966D01*
X111983509Y-76263659D01*
X111965639Y-76445104D01*
X111965639Y-76449896D01*
X100120500Y-76449896D01*
X100120500Y-75734359D01*
X112293818Y-75734359D01*
X112296453Y-75739100D01*
X112915438Y-76358085D01*
X112920000Y-76360718D01*
X112924561Y-76358085D01*
X113543545Y-75739100D01*
X113546180Y-75734359D01*
X114833818Y-75734359D01*
X114836453Y-75739100D01*
X115455438Y-76358085D01*
X115460000Y-76360718D01*
X115464561Y-76358085D01*
X116083545Y-75739100D01*
X116086180Y-75734359D01*
X116083091Y-75729896D01*
X115992209Y-75655311D01*
X115988222Y-75652647D01*
X115827428Y-75566700D01*
X115823006Y-75564868D01*
X115648533Y-75511942D01*
X115643840Y-75511009D01*
X115462396Y-75493139D01*
X115457604Y-75493139D01*
X115276159Y-75511009D01*
X115271466Y-75511942D01*
X115096993Y-75564868D01*
X115092571Y-75566700D01*
X114931775Y-75652648D01*
X114927794Y-75655307D01*
X114836906Y-75729897D01*
X114833818Y-75734359D01*
X113546180Y-75734359D01*
X113543091Y-75729896D01*
X113452209Y-75655311D01*
X113448222Y-75652647D01*
X113287428Y-75566700D01*
X113283006Y-75564868D01*
X113108533Y-75511942D01*
X113103840Y-75511009D01*
X112922396Y-75493139D01*
X112917604Y-75493139D01*
X112736159Y-75511009D01*
X112731466Y-75511942D01*
X112556993Y-75564868D01*
X112552571Y-75566700D01*
X112391775Y-75652648D01*
X112387794Y-75655307D01*
X112296906Y-75729897D01*
X112293818Y-75734359D01*
X100120500Y-75734359D01*
X100120500Y-65169500D01*
X100134852Y-65134852D01*
X100169500Y-65120500D01*
X159830500Y-65120500D01*
X159865148Y-65134852D01*
G37*
%TD.AperFunction*%
%TD*%
M02*
