%TF.GenerationSoftware,KiCad,Pcbnew,(7.0.0)*%
%TF.CreationDate,2023-09-06T14:08:44-04:00*%
%TF.ProjectId,headstage-neuropix1e,68656164-7374-4616-9765-2d6e6575726f,B*%
%TF.SameCoordinates,Original*%
%TF.FileFunction,Paste,Bot*%
%TF.FilePolarity,Positive*%
%FSLAX46Y46*%
G04 Gerber Fmt 4.6, Leading zero omitted, Abs format (unit mm)*
G04 Created by KiCad (PCBNEW (7.0.0)) date 2023-09-06 14:08:44*
%MOMM*%
%LPD*%
G01*
G04 APERTURE LIST*
G04 Aperture macros list*
%AMRoundRect*
0 Rectangle with rounded corners*
0 $1 Rounding radius*
0 $2 $3 $4 $5 $6 $7 $8 $9 X,Y pos of 4 corners*
0 Add a 4 corners polygon primitive as box body*
4,1,4,$2,$3,$4,$5,$6,$7,$8,$9,$2,$3,0*
0 Add four circle primitives for the rounded corners*
1,1,$1+$1,$2,$3*
1,1,$1+$1,$4,$5*
1,1,$1+$1,$6,$7*
1,1,$1+$1,$8,$9*
0 Add four rect primitives between the rounded corners*
20,1,$1+$1,$2,$3,$4,$5,0*
20,1,$1+$1,$4,$5,$6,$7,0*
20,1,$1+$1,$6,$7,$8,$9,0*
20,1,$1+$1,$8,$9,$2,$3,0*%
%AMFreePoly0*
4,1,6,0.350000,-0.250000,-0.225000,-0.250000,-0.350000,-0.125000,-0.350000,0.250000,0.350000,0.250000,0.350000,-0.250000,0.350000,-0.250000,$1*%
G04 Aperture macros list end*
%ADD10C,0.100000*%
%ADD11RoundRect,0.140000X0.170000X-0.140000X0.170000X0.140000X-0.170000X0.140000X-0.170000X-0.140000X0*%
%ADD12RoundRect,0.218750X0.218750X0.381250X-0.218750X0.381250X-0.218750X-0.381250X0.218750X-0.381250X0*%
%ADD13RoundRect,0.079500X0.079500X0.100500X-0.079500X0.100500X-0.079500X-0.100500X0.079500X-0.100500X0*%
%ADD14RoundRect,0.079500X-0.079500X-0.100500X0.079500X-0.100500X0.079500X0.100500X-0.079500X0.100500X0*%
%ADD15C,0.200000*%
%ADD16C,0.216000*%
%ADD17R,0.254000X0.675000*%
%ADD18R,0.675000X0.254000*%
%ADD19RoundRect,0.079500X0.100500X-0.079500X0.100500X0.079500X-0.100500X0.079500X-0.100500X-0.079500X0*%
%ADD20RoundRect,0.140000X-0.170000X0.140000X-0.170000X-0.140000X0.170000X-0.140000X0.170000X0.140000X0*%
%ADD21FreePoly0,180.000000*%
%ADD22R,0.700000X0.400000*%
%ADD23RoundRect,0.079500X-0.100500X0.079500X-0.100500X-0.079500X0.100500X-0.079500X0.100500X0.079500X0*%
%ADD24RoundRect,0.036000X-0.264000X0.084000X-0.264000X-0.084000X0.264000X-0.084000X0.264000X0.084000X0*%
%ADD25RoundRect,0.036000X0.084000X0.264000X-0.084000X0.264000X-0.084000X-0.264000X0.084000X-0.264000X0*%
%ADD26RoundRect,0.036000X-0.084000X-0.264000X0.084000X-0.264000X0.084000X0.264000X-0.084000X0.264000X0*%
%ADD27RoundRect,0.250000X-0.375000X-1.075000X0.375000X-1.075000X0.375000X1.075000X-0.375000X1.075000X0*%
G04 APERTURE END LIST*
%TO.C,U5*%
G36*
X147250003Y-94400003D02*
G01*
X145950003Y-94400003D01*
X145950003Y-93100003D01*
X147250003Y-93100003D01*
X147250003Y-94400003D01*
G37*
D10*
X147250003Y-94400003D02*
X145950003Y-94400003D01*
X145950003Y-93100003D01*
X147250003Y-93100003D01*
X147250003Y-94400003D01*
G36*
X147250003Y-95900000D02*
G01*
X145950003Y-95900000D01*
X145950003Y-94600000D01*
X147250003Y-94600000D01*
X147250003Y-95900000D01*
G37*
X147250003Y-95900000D02*
X145950003Y-95900000D01*
X145950003Y-94600000D01*
X147250003Y-94600000D01*
X147250003Y-95900000D01*
G36*
X148750000Y-94400003D02*
G01*
X147450000Y-94400003D01*
X147450000Y-93100003D01*
X148750000Y-93100003D01*
X148750000Y-94400003D01*
G37*
X148750000Y-94400003D02*
X147450000Y-94400003D01*
X147450000Y-93100003D01*
X148750000Y-93100003D01*
X148750000Y-94400003D01*
G36*
X148750000Y-95900000D02*
G01*
X147450000Y-95900000D01*
X147450000Y-94600000D01*
X148750000Y-94600000D01*
X148750000Y-95900000D01*
G37*
X148750000Y-95900000D02*
X147450000Y-95900000D01*
X147450000Y-94600000D01*
X148750000Y-94600000D01*
X148750000Y-95900000D01*
%TD*%
D11*
%TO.C,C3*%
X140870000Y-92390000D03*
X140870000Y-91430000D03*
%TD*%
D12*
%TO.C,L2*%
X145812500Y-88500000D03*
X143687500Y-88500000D03*
%TD*%
D13*
%TO.C,C15*%
X145765000Y-98050000D03*
X145075000Y-98050000D03*
%TD*%
D14*
%TO.C,R9*%
X143155000Y-93000000D03*
X143845000Y-93000000D03*
%TD*%
D15*
%TO.C,U1*%
X139935000Y-93415000D03*
X139935000Y-93765000D03*
X140285000Y-93415000D03*
X140285000Y-93765000D03*
%TD*%
D14*
%TO.C,R6*%
X148755000Y-90550000D03*
X149445000Y-90550000D03*
%TD*%
D16*
%TO.C,U8*%
X141800000Y-92546500D03*
X142200000Y-92546500D03*
X142000000Y-92200000D03*
X141800000Y-91853500D03*
X142200000Y-91853500D03*
%TD*%
D14*
%TO.C,C4*%
X137615000Y-91410000D03*
X138305000Y-91410000D03*
%TD*%
D13*
%TO.C,C32*%
X142345000Y-93300000D03*
X141655000Y-93300000D03*
%TD*%
D17*
%TO.C,U9*%
X136849999Y-97962499D03*
D18*
X136712499Y-97049999D03*
X136712499Y-96549999D03*
X136712499Y-96049999D03*
X136712499Y-95549999D03*
D17*
X136849999Y-94637499D03*
X137349999Y-94637499D03*
X137849999Y-94637499D03*
X138349999Y-94637499D03*
X138849999Y-94637499D03*
X139349999Y-94637499D03*
X139849999Y-94637499D03*
X140349999Y-94637499D03*
X140849999Y-94637499D03*
X141349999Y-94637499D03*
D18*
X141487499Y-95549999D03*
X141487499Y-96049999D03*
X141487499Y-96549999D03*
X141487499Y-97049999D03*
D17*
X141349999Y-97962499D03*
X140849999Y-97962499D03*
X140349999Y-97962499D03*
X139849999Y-97962499D03*
X139349999Y-97962499D03*
X138849999Y-97962499D03*
X138349999Y-97962499D03*
X137849999Y-97962499D03*
X137349999Y-97962499D03*
%TD*%
D19*
%TO.C,R16*%
X141700000Y-91145000D03*
X141700000Y-90455000D03*
%TD*%
D14*
%TO.C,R8*%
X143155000Y-91400000D03*
X143845000Y-91400000D03*
%TD*%
D20*
%TO.C,C6*%
X139190000Y-91450000D03*
X139190000Y-92410000D03*
%TD*%
D14*
%TO.C,C35*%
X137155000Y-93600000D03*
X137845000Y-93600000D03*
%TD*%
D11*
%TO.C,C18*%
X144900000Y-91080000D03*
X144900000Y-90120000D03*
%TD*%
D14*
%TO.C,R3*%
X138755000Y-90450000D03*
X139445000Y-90450000D03*
%TD*%
D19*
%TO.C,C17*%
X146450000Y-91145000D03*
X146450000Y-90455000D03*
%TD*%
D21*
%TO.C,U7*%
X143675000Y-94975000D03*
D22*
X143674999Y-96474999D03*
X142724999Y-96474999D03*
X142724999Y-94924999D03*
%TD*%
D13*
%TO.C,L3*%
X143945000Y-90600000D03*
X143255000Y-90600000D03*
%TD*%
D19*
%TO.C,C9*%
X136120000Y-92445000D03*
X136120000Y-91755000D03*
%TD*%
D14*
%TO.C,C13*%
X149335000Y-98000000D03*
X150025000Y-98000000D03*
%TD*%
%TO.C,C5*%
X137655000Y-92490000D03*
X138345000Y-92490000D03*
%TD*%
D23*
%TO.C,R17*%
X143350000Y-97305000D03*
X143350000Y-97995000D03*
%TD*%
D13*
%TO.C,C27*%
X143845000Y-92200000D03*
X143155000Y-92200000D03*
%TD*%
D19*
%TO.C,C2*%
X140030000Y-92455000D03*
X140030000Y-91765000D03*
%TD*%
D23*
%TO.C,C34*%
X135650000Y-97205000D03*
X135650000Y-97895000D03*
%TD*%
D19*
%TO.C,C31*%
X142620000Y-97985000D03*
X142620000Y-97295000D03*
%TD*%
%TO.C,C25*%
X147900000Y-91245000D03*
X147900000Y-90555000D03*
%TD*%
D13*
%TO.C,C12*%
X148625000Y-98000000D03*
X147935000Y-98000000D03*
%TD*%
%TO.C,C1*%
X139325000Y-93590000D03*
X138635000Y-93590000D03*
%TD*%
D14*
%TO.C,C29*%
X140255000Y-90450000D03*
X140945000Y-90450000D03*
%TD*%
%TO.C,R4*%
X143305000Y-89800000D03*
X143995000Y-89800000D03*
%TD*%
%TO.C,C14*%
X146505000Y-98000000D03*
X147195000Y-98000000D03*
%TD*%
D19*
%TO.C,C11*%
X136870000Y-92445000D03*
X136870000Y-91755000D03*
%TD*%
D23*
%TO.C,C33*%
X135650000Y-95705000D03*
X135650000Y-96395000D03*
%TD*%
D19*
%TO.C,C16*%
X145750000Y-91145000D03*
X145750000Y-90455000D03*
%TD*%
D24*
%TO.C,U5*%
X144950000Y-96250000D03*
X144950000Y-95750000D03*
X144950000Y-95250000D03*
X144950000Y-94750000D03*
X144950000Y-94250000D03*
X144950000Y-93750000D03*
X144950000Y-93250000D03*
X144950000Y-92750000D03*
D25*
X145600000Y-92100000D03*
X146100000Y-92100000D03*
X146600000Y-92100000D03*
X147100000Y-92100000D03*
X147600000Y-92100000D03*
X148100000Y-92100000D03*
D26*
X148600000Y-92100000D03*
D25*
X149100000Y-92100000D03*
D24*
X149750000Y-92750000D03*
X149750000Y-93250000D03*
X149750000Y-93750000D03*
X149750000Y-94250000D03*
X149750000Y-94750000D03*
X149750000Y-95250001D03*
X149750000Y-95750000D03*
X149750000Y-96250000D03*
D25*
X149100000Y-96900000D03*
X148600000Y-96900000D03*
X148100000Y-96900000D03*
X147600000Y-96900000D03*
X147100000Y-96900000D03*
X146600000Y-96900000D03*
X146100000Y-96900000D03*
X145600000Y-96900000D03*
%TD*%
D14*
%TO.C,C8*%
X136155000Y-91000000D03*
X136845000Y-91000000D03*
%TD*%
D27*
%TO.C,L1*%
X139200000Y-88500000D03*
X142000000Y-88500000D03*
%TD*%
D13*
%TO.C,R7*%
X149445000Y-91250000D03*
X148755000Y-91250000D03*
%TD*%
D14*
%TO.C,C30*%
X142855000Y-94100000D03*
X143545000Y-94100000D03*
%TD*%
D19*
%TO.C,C26*%
X147200000Y-91245000D03*
X147200000Y-90555000D03*
%TD*%
M02*
