M48
; DRILL file {KiCad (7.0.0)} date Sun Jul  9 20:13:21 2023
; FORMAT={-:-/ absolute / inch / decimal}
; #@! TF.CreationDate,2023-07-09T20:13:21-04:00
; #@! TF.GenerationSoftware,Kicad,Pcbnew,(7.0.0)
; #@! TF.FileFunction,Plated,1,4,PTH
FMAT,2
INCH
; #@! TA.AperFunction,Plated,PTH,ViaDrill
T1C0.0039
; #@! TA.AperFunction,Plated,PTH,ViaDrill
T2C0.0079
; #@! TA.AperFunction,Plated,PTH,ComponentDrill
T3C0.0394
; #@! TA.AperFunction,Plated,PTH,ComponentDrill
T4C0.0591
%
G90
G05
T1
X5.3209Y-3.685
X5.3307Y-3.6063
X5.374Y-3.6083
X5.3878Y-3.7259
X5.3937Y-3.6043
X5.4193Y-3.6083
X5.4232Y-3.5709
X5.4551Y-3.8256
X5.4626Y-3.6181
X5.4685Y-3.6575
X5.4724Y-3.8248
X5.4843Y-3.5453
X5.4912Y-3.4541
X5.4912Y-3.5144
X5.5056Y-3.5944
X5.5059Y-3.4272
X5.5059Y-3.5669
X5.5133Y-3.5763
X5.5133Y-3.6606
X5.5138Y-3.628
X5.5197Y-3.4272
X5.5217Y-3.6437
X5.5305Y-3.8277
X5.5354Y-3.7047
X5.5393Y-3.6263
X5.5433Y-3.5748
X5.5453Y-3.8268
X5.555Y-3.6614
X5.5551Y-3.6063
X5.5591Y-3.5925
X5.5594Y-3.7177
X5.561Y-3.5472
X5.561Y-3.5768
X5.5709Y-3.749
X5.5725Y-3.6289
X5.5866Y-3.7047
X5.5906Y-3.8307
X5.5925Y-3.7165
X5.5984Y-3.5443
X5.6004Y-3.8209
X5.6024Y-3.7047
X5.6043Y-3.6316
X5.6063Y-3.7638
X5.6083Y-3.6161
X5.6093Y-3.5532
X5.6103Y-3.6556
X5.6154Y-3.8323
X5.6218Y-3.6514
X5.626Y-3.685
X5.626Y-3.7579
X5.6581Y-3.778
X5.6596Y-3.7994
X5.6614Y-3.5266
X5.6713Y-3.7106
X5.6778Y-3.8094
X5.6791Y-3.5531
X5.6811Y-3.7618
X5.6827Y-3.7008
X5.6892Y-3.6816
X5.6893Y-3.8256
X5.7037Y-3.8302
X5.7047Y-3.5512
X5.7075Y-3.7905
X5.7224Y-3.5236
X5.7252Y-3.8464
X5.7255Y-3.7815
X5.7303Y-3.7283
X5.7394Y-3.7909
X5.7461Y-3.5472
X5.7461Y-3.7283
X5.7517Y-3.873
X5.7638Y-3.5453
X5.7657Y-3.5098
X5.7756Y-3.6043
X5.7795Y-3.5453
X5.7825Y-3.5669
X5.7854Y-3.5138
X5.7882Y-3.7925
X5.8031Y-3.5256
X5.8106Y-3.7102
X5.8209Y-3.7945
X5.8248Y-3.6211
X5.8307Y-3.5433
X5.8402Y-3.7406
X5.8422Y-3.6516
X5.8484Y-3.7953
X5.8579Y-3.5508
X5.8583Y-3.6595
X5.872Y-3.6319
X5.8721Y-3.6595
X5.874Y-3.7106
X5.874Y-3.7303
X5.874Y-3.75
X5.874Y-3.7697
X5.874Y-3.7894
X5.876Y-3.6909
X5.8773Y-3.6792
X5.8776Y-3.5886
X5.8785Y-3.5606
X5.8858Y-3.624
X5.9016Y-3.8406
T2
X4.0591Y-4.8071
X4.0906Y-3.3386
X4.1209Y-3.0555
X4.1516Y-2.7744
X4.1913Y-3.6744
X4.2031Y-4.4413
X4.2362Y-4.1142
X4.5102Y-3.4157
X4.6268Y-2.7531
X4.6457Y-3.8323
X4.7323Y-3.738
X4.8504Y-3.622
X4.8508Y-3.7843
X4.9874Y-2.8247
X5.0551Y-3.9764
X5.1039Y-4.3425
X5.1339Y-3.2925
X5.3209Y-3.8543
X5.3213Y-3.7512
X5.3224Y-3.7917
X5.3228Y-3.5346
X5.3228Y-3.8268
X5.3378Y-3.878
X5.3402Y-2.8976
X5.35Y-3.548
X5.3508Y-3.6657
X5.3575Y-3.7213
X5.372Y-3.6594
X5.3744Y-3.8384
X5.3902Y-3.1594
X5.3981Y-3.6582
X5.4087Y-4.2012
X5.4122Y-3.8189
X5.413Y-3.7012
X5.4134Y-3.7681
X5.4142Y-3.7941
X5.4252Y-3.6614
X5.4331Y-3.5374
X5.437Y-3.8248
X5.439Y-3.4291
X5.4449Y-3.5728
X5.4744Y-3.7996
X5.4807Y-3.7705
X5.5098Y-3.8189
X5.5271Y-3.6614
X5.5315Y-3.7894
X5.5354Y-3.7638
X5.5531Y-3.4252
X5.6167Y-3.5862
X5.6299Y-3.4409
X5.6434Y-3.7837
X5.6506Y-3.685
X5.6614Y-3.4232
X5.6831Y-3.628
X5.6857Y-3.2023
X5.6917Y-3.8582
X5.6969Y-3.4429
X5.6999Y-3.8169
X5.7008Y-3.637
X5.7165Y-2.8465
X5.7192Y-3.0764
X5.7311Y-3.4315
X5.7406Y-3.5276
X5.7528Y-3.7677
X5.7677Y-3.685
X5.785Y-3.428
X5.787Y-3.7654
X5.8071Y-3.6496
X5.8102Y-3.7654
X5.815Y-3.6791
X5.8327Y-3.8453
X5.8937Y-3.5394
X5.8996Y-3.874
X5.9055Y-3.8091
X5.926Y-3.1571
X6.0138Y-4.2102
X6.0709Y-3.9961
X6.1224Y-3.7681
X6.1339Y-3.4449
X6.1535Y-4.7992
X6.1693Y-2.7205
T3
X4.4457Y-3.0097
X4.4457Y-3.1097
X4.5457Y-3.0097
X4.5457Y-3.1097
X4.6457Y-3.0097
X4.6457Y-3.1097
X4.7457Y-3.0097
X4.7457Y-3.1097
X4.8457Y-3.0097
X4.8457Y-3.1097
T4
X5.378Y-3.4843
X5.8504Y-3.4843
T0
M30
