%TF.GenerationSoftware,KiCad,Pcbnew,(7.0.0)*%
%TF.CreationDate,2023-06-03T15:05:07-04:00*%
%TF.ProjectId,headstage-neuropix1e,68656164-7374-4616-9765-2d6e6575726f,A*%
%TF.SameCoordinates,Original*%
%TF.FileFunction,Copper,L2,Inr*%
%TF.FilePolarity,Positive*%
%FSLAX46Y46*%
G04 Gerber Fmt 4.6, Leading zero omitted, Abs format (unit mm)*
G04 Created by KiCad (PCBNEW (7.0.0)) date 2023-06-03 15:05:07*
%MOMM*%
%LPD*%
G01*
G04 APERTURE LIST*
G04 Aperture macros list*
%AMRoundRect*
0 Rectangle with rounded corners*
0 $1 Rounding radius*
0 $2 $3 $4 $5 $6 $7 $8 $9 X,Y pos of 4 corners*
0 Add a 4 corners polygon primitive as box body*
4,1,4,$2,$3,$4,$5,$6,$7,$8,$9,$2,$3,0*
0 Add four circle primitives for the rounded corners*
1,1,$1+$1,$2,$3*
1,1,$1+$1,$4,$5*
1,1,$1+$1,$6,$7*
1,1,$1+$1,$8,$9*
0 Add four rect primitives between the rounded corners*
20,1,$1+$1,$2,$3,$4,$5,0*
20,1,$1+$1,$4,$5,$6,$7,0*
20,1,$1+$1,$6,$7,$8,$9,0*
20,1,$1+$1,$8,$9,$2,$3,0*%
G04 Aperture macros list end*
%TA.AperFunction,ComponentPad*%
%ADD10C,2.500000*%
%TD*%
%TA.AperFunction,ComponentPad*%
%ADD11RoundRect,0.250000X-0.600000X0.600000X-0.600000X-0.600000X0.600000X-0.600000X0.600000X0.600000X0*%
%TD*%
%TA.AperFunction,ComponentPad*%
%ADD12C,1.700000*%
%TD*%
%TA.AperFunction,ViaPad*%
%ADD13C,0.200000*%
%TD*%
%TA.AperFunction,ViaPad*%
%ADD14C,0.300000*%
%TD*%
%TA.AperFunction,ViaPad*%
%ADD15C,0.250000*%
%TD*%
G04 APERTURE END LIST*
D10*
%TO.N,GND*%
%TO.C,TP2*%
X148600000Y-88500000D03*
%TD*%
%TO.N,GND*%
%TO.C,TP1*%
X136600000Y-88500000D03*
%TD*%
D11*
%TO.N,+4V*%
%TO.C,J3*%
X123080000Y-76447500D03*
D12*
X123080000Y-78987500D03*
%TO.N,/Neuropixels 1.0/SCL*%
X120540000Y-76447500D03*
X120540000Y-78987500D03*
%TO.N,/Neuropixels 1.0/SDA*%
X118000000Y-76447500D03*
X118000000Y-78987500D03*
%TO.N,GND*%
X115460000Y-76447500D03*
X115460000Y-78987500D03*
X112920000Y-76447500D03*
X112920000Y-78987500D03*
%TD*%
D13*
%TO.N,GND*%
X147850000Y-96380000D03*
X148800000Y-92950500D03*
X142700000Y-98110000D03*
X138560000Y-97170000D03*
D14*
X135200000Y-89780000D03*
X148150000Y-97670000D03*
X137490000Y-94010000D03*
D13*
%TO.N,+1V8*%
X135150500Y-93600000D03*
%TO.N,GND*%
X136850000Y-94637500D03*
X141210000Y-94430000D03*
D14*
X146940000Y-87070000D03*
X135910000Y-93110000D03*
X155510000Y-95710000D03*
X130400000Y-83630000D03*
X144416061Y-81338202D03*
X145266637Y-78141210D03*
X104670000Y-77610000D03*
X117520000Y-69930000D03*
X114560000Y-86760000D03*
X106460000Y-93330000D03*
X106760000Y-112810000D03*
X137380000Y-106710000D03*
X152750000Y-106940000D03*
X136910000Y-80250000D03*
X150520000Y-80190000D03*
D13*
%TO.N,Net-(D1-K)*%
X149500500Y-92050000D03*
D14*
%TO.N,GND*%
X143524500Y-93600000D03*
D13*
%TO.N,+4V*%
X139842554Y-91298776D03*
X141200000Y-91250000D03*
%TO.N,+1V8*%
X146700000Y-91550000D03*
D14*
%TO.N,GND*%
X144400000Y-98000000D03*
X149700000Y-89900000D03*
X135890000Y-90120000D03*
X138000000Y-89850000D03*
X138150000Y-87100000D03*
X141050000Y-87000000D03*
X143800000Y-86950000D03*
X143000000Y-87400000D03*
X144700000Y-87450000D03*
X145570000Y-87160000D03*
D13*
X147400000Y-89550000D03*
X148100000Y-90000000D03*
X146950000Y-89250000D03*
X146450000Y-89150000D03*
X144250000Y-90250000D03*
X144900000Y-90200000D03*
X146800000Y-90050000D03*
D14*
X144350000Y-92150000D03*
X144800000Y-92380500D03*
X150000000Y-96750000D03*
X136080000Y-94520000D03*
X135190000Y-96310000D03*
X135580000Y-98500000D03*
X149850000Y-98400000D03*
X137520000Y-96370000D03*
X139050000Y-96510000D03*
D13*
X145950000Y-94700000D03*
X142400000Y-95600000D03*
X141900000Y-94100000D03*
X141097653Y-92999500D03*
X141100000Y-91600000D03*
X148350000Y-95000000D03*
X149282373Y-93452308D03*
D14*
X147700000Y-93450000D03*
X146500000Y-93600000D03*
X146350000Y-95750000D03*
X147000000Y-95750000D03*
D13*
X146900000Y-96200000D03*
X145650000Y-96250000D03*
D14*
X144800000Y-96950000D03*
X135200000Y-97200000D03*
X135160000Y-95280000D03*
X139210000Y-95770000D03*
X137500000Y-95710000D03*
X140600000Y-95600000D03*
X139950000Y-97000000D03*
D13*
%TO.N,Net-(R12-Pad1)*%
X138900000Y-92900000D03*
X140036779Y-90836779D03*
%TO.N,+1V8*%
X149899500Y-97550000D03*
%TO.N,/Neuropixels 1.0/SCL*%
X145550000Y-94700000D03*
X139300000Y-90050500D03*
X142300000Y-97050000D03*
X142450000Y-91850000D03*
X142200000Y-90025700D03*
%TO.N,/Neuropixels 1.0/SDA*%
X141250000Y-90099500D03*
X142476943Y-90250500D03*
%TO.N,Net-(D1-K)*%
X148790466Y-90190500D03*
%TO.N,/Neuropixels 1.0/NP_{~{MUXRST}}*%
X148391059Y-92750500D03*
%TO.N,/Perpherials/GPIO0*%
X149150000Y-92250000D03*
%TO.N,/Perpherials/GPIO1*%
X149290000Y-91150000D03*
%TO.N,Net-(U4-GPIO3{slash}CLKIN)*%
X149151002Y-92950500D03*
X149312724Y-90439717D03*
D14*
%TO.N,+1.8VA*%
X147500000Y-92700500D03*
D13*
%TO.N,/Neuropixels 1.0/NP_{~{MUXRST}}*%
X140600000Y-94100000D03*
%TO.N,+1.8VA*%
X139850500Y-90599500D03*
%TO.N,+4V*%
X139475700Y-89265000D03*
X139475700Y-87735000D03*
%TO.N,/Perpherials/GPIO0*%
X139850000Y-87050000D03*
%TO.N,/Perpherials/GPIO1*%
X140200000Y-87050000D03*
D14*
%TO.N,+1.8VA*%
X138300500Y-90750000D03*
D13*
%TO.N,/Neuropixels 1.0/SDA*%
X142050000Y-94400000D03*
D14*
%TO.N,+1.8VA*%
X136509592Y-97495740D03*
D13*
%TO.N,/DC Tap & Regulation/VA_{EN}*%
X141500000Y-95223498D03*
D14*
%TO.N,+1.2VA*%
X138100000Y-97150000D03*
X137800000Y-93000000D03*
D13*
%TO.N,Net-(U2-EN2)*%
X137750000Y-90700000D03*
X135400000Y-91600000D03*
D14*
%TO.N,GND*%
X137470000Y-97000000D03*
X140500000Y-96250000D03*
D13*
X142900000Y-95450000D03*
D14*
X143350000Y-96106321D03*
D13*
%TO.N,/Neuropixels 1.0/PCLK*%
X144300000Y-95550000D03*
D14*
%TO.N,+1V8*%
X142662961Y-91089404D03*
X140387638Y-93000500D03*
X135150000Y-97900000D03*
D13*
%TO.N,/Neuropixels 1.0/MCLK*%
X146150000Y-98350000D03*
%TO.N,/Neuropixels 1.0/SYNC*%
X142000000Y-97300000D03*
X144454093Y-95806821D03*
%TO.N,/Neuropixels 1.0/D1*%
X144506823Y-93513173D03*
%TO.N,/Neuropixels 1.0/D2*%
X144339602Y-94000500D03*
%TO.N,/Neuropixels 1.0/D5*%
X142900000Y-93600000D03*
%TO.N,/Neuropixels 1.0/D6*%
X142300000Y-94100000D03*
X149200000Y-95250001D03*
%TO.N,/Neuropixels 1.0/D4*%
X143188553Y-96918204D03*
X149200000Y-95750000D03*
%TO.N,/Neuropixels 1.0/D3*%
X143950000Y-97100000D03*
X149200000Y-96250000D03*
%TO.N,/Neuropixels 1.0/D0*%
X145000000Y-97250000D03*
X148550000Y-96400000D03*
%TO.N,/Neuropixels 1.0/D5*%
X149200000Y-94750000D03*
%TO.N,/Neuropixels 1.0/D2*%
X149200000Y-94250000D03*
%TO.N,/Neuropixels 1.0/D1*%
X149249502Y-93750000D03*
%TO.N,/DC Tap & Regulation/RF+DC*%
X143800000Y-89575000D03*
%TO.N,/Neuropixels 1.0/SDA*%
X142350000Y-92243279D03*
%TO.N,GND*%
X137650000Y-91650000D03*
X136500000Y-91650000D03*
X137000000Y-91550000D03*
X140050000Y-92150000D03*
X140697383Y-92107850D03*
%TO.N,+1V8*%
X140250000Y-92550000D03*
D14*
%TO.N,+4V*%
X137112184Y-92917916D03*
%TO.N,+1.8VA*%
X136450000Y-92950000D03*
D13*
%TO.N,/Neuropixels 1.0/SDA*%
X140850000Y-97200000D03*
X144050000Y-94250000D03*
%TO.N,Net-(U4-VDDCML)*%
X147950000Y-91976277D03*
%TO.N,GND*%
X146400000Y-90050000D03*
X145950000Y-90100000D03*
X145350000Y-89500000D03*
D15*
%TO.N,/Serializer/Dout-*%
X146874500Y-90600000D03*
D14*
%TO.N,/DC Tap & Regulation/RF+DC*%
X145812500Y-89600000D03*
D13*
%TO.N,GND*%
X142501424Y-92851424D03*
X140038769Y-92979457D03*
X141541598Y-92175102D03*
%TO.N,/Neuropixels 1.0/CAL_SIGNAL*%
X139000000Y-97150000D03*
X138750000Y-91900000D03*
%TO.N,/DC Tap & Regulation/VA_{EN}*%
X142793180Y-92745908D03*
X140473576Y-97223576D03*
%TO.N,Net-(U5--)*%
X140800000Y-90799500D03*
%TO.N,Net-(R12-Pad1)*%
X141250000Y-90850000D03*
D14*
%TO.N,GND*%
X156300000Y-121900000D03*
X129640000Y-110300000D03*
X135640000Y-73600000D03*
X126680000Y-71747500D03*
X156700000Y-69100000D03*
X155800000Y-87500000D03*
X107600000Y-104500000D03*
X103100000Y-122100000D03*
X105450000Y-70470000D03*
X145200000Y-72300000D03*
X154200000Y-101500000D03*
X103900000Y-84800000D03*
X128400000Y-101000000D03*
%TO.N,+4V*%
X120200000Y-94945000D03*
%TO.N,/Neuropixels 1.0/SCL*%
X118000000Y-97340000D03*
%TO.N,/Neuropixels 1.0/SDA*%
X123200000Y-92000000D03*
X123210000Y-96120000D03*
%TD*%
%TA.AperFunction,Conductor*%
%TO.N,GND*%
G36*
X144230948Y-86601669D02*
G01*
X144301223Y-86620500D01*
X144314618Y-86620500D01*
X144350000Y-86620500D01*
X144382288Y-86620500D01*
X148567712Y-86620500D01*
X148598397Y-86620500D01*
X148601602Y-86620605D01*
X148842126Y-86636369D01*
X148848474Y-86637205D01*
X149083293Y-86683914D01*
X149089485Y-86685572D01*
X149316217Y-86762537D01*
X149322130Y-86764986D01*
X149536878Y-86870889D01*
X149542413Y-86874084D01*
X149665682Y-86956450D01*
X149741497Y-87007108D01*
X149746582Y-87011010D01*
X149926592Y-87168875D01*
X149931124Y-87173407D01*
X150088989Y-87353417D01*
X150092891Y-87358502D01*
X150210489Y-87534500D01*
X150225910Y-87557578D01*
X150229113Y-87563126D01*
X150272523Y-87651152D01*
X150335011Y-87777865D01*
X150337464Y-87783787D01*
X150414427Y-88010515D01*
X150416085Y-88016706D01*
X150462793Y-88251522D01*
X150463630Y-88257876D01*
X150479395Y-88498398D01*
X150479500Y-88501603D01*
X150479500Y-90267712D01*
X150479500Y-90300000D01*
X150479500Y-90398031D01*
X150479870Y-90400134D01*
X150479871Y-90400136D01*
X150489256Y-90453360D01*
X150490000Y-90461869D01*
X150490000Y-92958131D01*
X150489256Y-92966640D01*
X150481448Y-93010923D01*
X150479500Y-93021969D01*
X150479500Y-93024110D01*
X150479500Y-98830500D01*
X150465148Y-98865148D01*
X150430500Y-98879500D01*
X144052288Y-98879500D01*
X144020000Y-98879500D01*
X143921969Y-98879500D01*
X143919866Y-98879870D01*
X143919863Y-98879871D01*
X143809928Y-98899256D01*
X143801419Y-98900000D01*
X140218581Y-98900000D01*
X140210072Y-98899256D01*
X140100136Y-98879871D01*
X140100134Y-98879870D01*
X140098031Y-98879500D01*
X140095890Y-98879500D01*
X134769500Y-98879500D01*
X134734852Y-98865148D01*
X134720500Y-98830500D01*
X134720500Y-98350000D01*
X145944344Y-98350000D01*
X145964710Y-98439231D01*
X146021776Y-98510788D01*
X146104237Y-98550500D01*
X146190243Y-98550500D01*
X146195763Y-98550500D01*
X146278224Y-98510788D01*
X146335290Y-98439231D01*
X146355656Y-98350000D01*
X146335290Y-98260769D01*
X146278224Y-98189212D01*
X146195763Y-98149500D01*
X146104237Y-98149500D01*
X146099264Y-98151894D01*
X146099263Y-98151895D01*
X146026750Y-98186816D01*
X146026748Y-98186817D01*
X146021776Y-98189212D01*
X146018335Y-98193526D01*
X146018332Y-98193529D01*
X145968154Y-98256450D01*
X145964710Y-98260769D01*
X145944344Y-98350000D01*
X134720500Y-98350000D01*
X134720500Y-97900000D01*
X134894592Y-97900000D01*
X134895534Y-97904736D01*
X134913092Y-97993007D01*
X134913093Y-97993009D01*
X134914034Y-97997740D01*
X134969399Y-98080601D01*
X135052260Y-98135966D01*
X135150000Y-98155408D01*
X135247740Y-98135966D01*
X135330601Y-98080601D01*
X135385966Y-97997740D01*
X135405408Y-97900000D01*
X135385966Y-97802260D01*
X135330601Y-97719399D01*
X135247740Y-97664034D01*
X135243009Y-97663093D01*
X135243007Y-97663092D01*
X135154736Y-97645534D01*
X135150000Y-97644592D01*
X135145264Y-97645534D01*
X135056992Y-97663092D01*
X135056988Y-97663093D01*
X135052260Y-97664034D01*
X135048250Y-97666712D01*
X135048248Y-97666714D01*
X134973410Y-97716718D01*
X134973407Y-97716720D01*
X134969399Y-97719399D01*
X134966720Y-97723407D01*
X134966718Y-97723410D01*
X134916714Y-97798248D01*
X134916712Y-97798250D01*
X134914034Y-97802260D01*
X134913093Y-97806988D01*
X134913092Y-97806992D01*
X134895534Y-97895264D01*
X134894592Y-97900000D01*
X134720500Y-97900000D01*
X134720500Y-97495740D01*
X136254184Y-97495740D01*
X136255126Y-97500476D01*
X136272684Y-97588747D01*
X136272685Y-97588749D01*
X136273626Y-97593480D01*
X136276305Y-97597490D01*
X136276306Y-97597491D01*
X136322558Y-97666714D01*
X136328991Y-97676341D01*
X136411852Y-97731706D01*
X136509592Y-97751148D01*
X136607332Y-97731706D01*
X136690193Y-97676341D01*
X136745558Y-97593480D01*
X136754207Y-97550000D01*
X149693844Y-97550000D01*
X149714210Y-97639231D01*
X149771276Y-97710788D01*
X149853737Y-97750500D01*
X149939743Y-97750500D01*
X149945263Y-97750500D01*
X150027724Y-97710788D01*
X150084790Y-97639231D01*
X150105156Y-97550000D01*
X150084790Y-97460769D01*
X150034815Y-97398104D01*
X150031167Y-97393529D01*
X150031166Y-97393528D01*
X150027724Y-97389212D01*
X150022630Y-97386759D01*
X149950236Y-97351895D01*
X149945263Y-97349500D01*
X149853737Y-97349500D01*
X149848764Y-97351894D01*
X149848763Y-97351895D01*
X149776250Y-97386816D01*
X149776248Y-97386817D01*
X149771276Y-97389212D01*
X149767835Y-97393526D01*
X149767832Y-97393529D01*
X149724310Y-97448104D01*
X149714210Y-97460769D01*
X149712981Y-97466150D01*
X149712981Y-97466152D01*
X149705147Y-97500476D01*
X149693844Y-97550000D01*
X136754207Y-97550000D01*
X136765000Y-97495740D01*
X136745558Y-97398000D01*
X136690193Y-97315139D01*
X136683681Y-97310788D01*
X136611343Y-97262454D01*
X136611342Y-97262453D01*
X136607332Y-97259774D01*
X136602601Y-97258833D01*
X136602599Y-97258832D01*
X136514328Y-97241274D01*
X136509592Y-97240332D01*
X136504856Y-97241274D01*
X136416584Y-97258832D01*
X136416580Y-97258833D01*
X136411852Y-97259774D01*
X136407842Y-97262452D01*
X136407840Y-97262454D01*
X136333002Y-97312458D01*
X136332999Y-97312460D01*
X136328991Y-97315139D01*
X136326312Y-97319147D01*
X136326310Y-97319150D01*
X136276306Y-97393988D01*
X136276304Y-97393990D01*
X136273626Y-97398000D01*
X136272685Y-97402728D01*
X136272684Y-97402732D01*
X136255765Y-97487791D01*
X136254184Y-97495740D01*
X134720500Y-97495740D01*
X134720500Y-97150000D01*
X137844592Y-97150000D01*
X137845534Y-97154736D01*
X137863092Y-97243007D01*
X137863093Y-97243009D01*
X137864034Y-97247740D01*
X137866713Y-97251750D01*
X137866714Y-97251751D01*
X137916264Y-97325910D01*
X137919399Y-97330601D01*
X138002260Y-97385966D01*
X138100000Y-97405408D01*
X138197740Y-97385966D01*
X138280601Y-97330601D01*
X138335966Y-97247740D01*
X138355408Y-97150000D01*
X138794344Y-97150000D01*
X138795572Y-97155380D01*
X138809887Y-97218102D01*
X138814710Y-97239231D01*
X138840614Y-97271713D01*
X138867464Y-97305382D01*
X138871776Y-97310788D01*
X138954237Y-97350500D01*
X139040243Y-97350500D01*
X139045763Y-97350500D01*
X139128224Y-97310788D01*
X139185290Y-97239231D01*
X139188863Y-97223576D01*
X140267920Y-97223576D01*
X140269148Y-97228956D01*
X140286839Y-97306470D01*
X140288286Y-97312807D01*
X140345352Y-97384364D01*
X140427813Y-97424076D01*
X140513819Y-97424076D01*
X140519339Y-97424076D01*
X140601800Y-97384364D01*
X140632881Y-97345389D01*
X140656744Y-97329119D01*
X140685630Y-97329119D01*
X140709497Y-97345391D01*
X140713495Y-97350405D01*
X140721776Y-97360788D01*
X140804237Y-97400500D01*
X140890243Y-97400500D01*
X140895763Y-97400500D01*
X140978224Y-97360788D01*
X141026702Y-97300000D01*
X141794344Y-97300000D01*
X141795572Y-97305380D01*
X141812613Y-97380046D01*
X141814710Y-97389231D01*
X141834212Y-97413685D01*
X141861660Y-97448104D01*
X141871776Y-97460788D01*
X141954237Y-97500500D01*
X142040243Y-97500500D01*
X142045763Y-97500500D01*
X142128224Y-97460788D01*
X142185290Y-97389231D01*
X142205656Y-97300000D01*
X142205043Y-97297318D01*
X142212941Y-97271713D01*
X142235528Y-97253701D01*
X142254237Y-97252301D01*
X142254237Y-97250500D01*
X142340243Y-97250500D01*
X142345763Y-97250500D01*
X142428224Y-97210788D01*
X142485290Y-97139231D01*
X142505656Y-97050000D01*
X142485290Y-96960769D01*
X142451345Y-96918204D01*
X142982897Y-96918204D01*
X142984125Y-96923584D01*
X143001998Y-97001895D01*
X143003263Y-97007435D01*
X143006707Y-97011753D01*
X143050847Y-97067103D01*
X143060329Y-97078992D01*
X143142790Y-97118704D01*
X143228796Y-97118704D01*
X143234316Y-97118704D01*
X143273154Y-97100000D01*
X143744344Y-97100000D01*
X143764710Y-97189231D01*
X143786127Y-97216086D01*
X143815007Y-97252301D01*
X143821776Y-97260788D01*
X143904237Y-97300500D01*
X143990243Y-97300500D01*
X143995763Y-97300500D01*
X144078224Y-97260788D01*
X144086827Y-97250000D01*
X144794344Y-97250000D01*
X144797353Y-97263183D01*
X144811824Y-97326589D01*
X144814710Y-97339231D01*
X144843243Y-97375009D01*
X144867485Y-97405408D01*
X144871776Y-97410788D01*
X144954237Y-97450500D01*
X145040243Y-97450500D01*
X145045763Y-97450500D01*
X145128224Y-97410788D01*
X145185290Y-97339231D01*
X145205656Y-97250000D01*
X145185290Y-97160769D01*
X145128224Y-97089212D01*
X145107002Y-97078992D01*
X145061320Y-97056992D01*
X145045763Y-97049500D01*
X144954237Y-97049500D01*
X144949264Y-97051894D01*
X144949263Y-97051895D01*
X144876750Y-97086816D01*
X144876748Y-97086817D01*
X144871776Y-97089212D01*
X144868335Y-97093526D01*
X144868332Y-97093529D01*
X144818154Y-97156450D01*
X144814710Y-97160769D01*
X144813481Y-97166150D01*
X144813481Y-97166152D01*
X144801818Y-97217255D01*
X144794344Y-97250000D01*
X144086827Y-97250000D01*
X144135290Y-97189231D01*
X144155656Y-97100000D01*
X144135290Y-97010769D01*
X144078224Y-96939212D01*
X143995763Y-96899500D01*
X143904237Y-96899500D01*
X143899264Y-96901894D01*
X143899263Y-96901895D01*
X143826750Y-96936816D01*
X143826748Y-96936817D01*
X143821776Y-96939212D01*
X143818335Y-96943526D01*
X143818332Y-96943529D01*
X143768154Y-97006450D01*
X143764710Y-97010769D01*
X143763481Y-97016150D01*
X143763481Y-97016152D01*
X143755323Y-97051895D01*
X143744344Y-97100000D01*
X143273154Y-97100000D01*
X143316777Y-97078992D01*
X143373843Y-97007435D01*
X143394209Y-96918204D01*
X143373843Y-96828973D01*
X143326703Y-96769862D01*
X143320220Y-96761733D01*
X143320219Y-96761732D01*
X143316777Y-96757416D01*
X143234316Y-96717704D01*
X143142790Y-96717704D01*
X143137817Y-96720098D01*
X143137816Y-96720099D01*
X143065303Y-96755020D01*
X143065301Y-96755021D01*
X143060329Y-96757416D01*
X143056888Y-96761730D01*
X143056885Y-96761733D01*
X143006707Y-96824654D01*
X143003263Y-96828973D01*
X142982897Y-96918204D01*
X142451345Y-96918204D01*
X142433266Y-96895534D01*
X142431667Y-96893529D01*
X142431666Y-96893528D01*
X142428224Y-96889212D01*
X142345763Y-96849500D01*
X142254237Y-96849500D01*
X142249264Y-96851894D01*
X142249263Y-96851895D01*
X142176750Y-96886816D01*
X142176748Y-96886817D01*
X142171776Y-96889212D01*
X142168335Y-96893526D01*
X142168332Y-96893529D01*
X142121787Y-96951895D01*
X142114710Y-96960769D01*
X142113481Y-96966150D01*
X142113481Y-96966152D01*
X142108765Y-96986816D01*
X142094344Y-97050000D01*
X142094956Y-97052681D01*
X142087054Y-97078293D01*
X142064461Y-97096303D01*
X142045763Y-97097698D01*
X142045763Y-97099500D01*
X141954237Y-97099500D01*
X141949264Y-97101894D01*
X141949263Y-97101895D01*
X141876750Y-97136816D01*
X141876748Y-97136817D01*
X141871776Y-97139212D01*
X141868335Y-97143526D01*
X141868332Y-97143529D01*
X141818154Y-97206450D01*
X141814710Y-97210769D01*
X141813481Y-97216150D01*
X141813481Y-97216152D01*
X141804911Y-97253701D01*
X141794344Y-97300000D01*
X141026702Y-97300000D01*
X141035290Y-97289231D01*
X141055656Y-97200000D01*
X141035290Y-97110769D01*
X140978224Y-97039212D01*
X140895763Y-96999500D01*
X140804237Y-96999500D01*
X140799264Y-97001894D01*
X140799263Y-97001895D01*
X140726750Y-97036816D01*
X140726748Y-97036817D01*
X140721776Y-97039212D01*
X140690694Y-97078185D01*
X140666830Y-97094456D01*
X140637944Y-97094456D01*
X140614079Y-97078185D01*
X140601800Y-97062788D01*
X140586417Y-97055380D01*
X140524312Y-97025471D01*
X140519339Y-97023076D01*
X140427813Y-97023076D01*
X140422840Y-97025470D01*
X140422839Y-97025471D01*
X140350326Y-97060392D01*
X140350324Y-97060393D01*
X140345352Y-97062788D01*
X140341911Y-97067102D01*
X140341908Y-97067105D01*
X140291730Y-97130026D01*
X140288286Y-97134345D01*
X140287057Y-97139726D01*
X140287057Y-97139728D01*
X140275324Y-97191138D01*
X140267920Y-97223576D01*
X139188863Y-97223576D01*
X139205656Y-97150000D01*
X139185290Y-97060769D01*
X139128224Y-96989212D01*
X139045763Y-96949500D01*
X138954237Y-96949500D01*
X138949264Y-96951894D01*
X138949263Y-96951895D01*
X138876750Y-96986816D01*
X138876748Y-96986817D01*
X138871776Y-96989212D01*
X138868335Y-96993526D01*
X138868332Y-96993529D01*
X138818154Y-97056450D01*
X138814710Y-97060769D01*
X138813481Y-97066150D01*
X138813481Y-97066152D01*
X138803298Y-97110769D01*
X138794344Y-97150000D01*
X138355408Y-97150000D01*
X138352785Y-97136816D01*
X138341123Y-97078185D01*
X138335966Y-97052260D01*
X138280601Y-96969399D01*
X138275741Y-96966152D01*
X138201751Y-96916714D01*
X138201750Y-96916713D01*
X138197740Y-96914034D01*
X138193009Y-96913093D01*
X138193007Y-96913092D01*
X138104736Y-96895534D01*
X138100000Y-96894592D01*
X138095264Y-96895534D01*
X138006992Y-96913092D01*
X138006988Y-96913093D01*
X138002260Y-96914034D01*
X137998250Y-96916712D01*
X137998248Y-96916714D01*
X137923410Y-96966718D01*
X137923407Y-96966720D01*
X137919399Y-96969399D01*
X137916720Y-96973407D01*
X137916718Y-96973410D01*
X137866714Y-97048248D01*
X137866712Y-97048250D01*
X137864034Y-97052260D01*
X137863093Y-97056988D01*
X137863092Y-97056992D01*
X137846738Y-97139212D01*
X137844592Y-97150000D01*
X134720500Y-97150000D01*
X134720500Y-96400000D01*
X148344344Y-96400000D01*
X148345572Y-96405380D01*
X148360729Y-96471791D01*
X148364710Y-96489231D01*
X148421776Y-96560788D01*
X148504237Y-96600500D01*
X148590243Y-96600500D01*
X148595763Y-96600500D01*
X148678224Y-96560788D01*
X148735290Y-96489231D01*
X148755656Y-96400000D01*
X148735290Y-96310769D01*
X148686827Y-96250000D01*
X148994344Y-96250000D01*
X149014710Y-96339231D01*
X149029920Y-96358303D01*
X149063172Y-96400000D01*
X149071776Y-96410788D01*
X149154237Y-96450500D01*
X149240243Y-96450500D01*
X149245763Y-96450500D01*
X149328224Y-96410788D01*
X149385290Y-96339231D01*
X149405656Y-96250000D01*
X149385290Y-96160769D01*
X149328224Y-96089212D01*
X149245763Y-96049500D01*
X149154237Y-96049500D01*
X149149264Y-96051894D01*
X149149263Y-96051895D01*
X149076750Y-96086816D01*
X149076748Y-96086817D01*
X149071776Y-96089212D01*
X149068335Y-96093526D01*
X149068332Y-96093529D01*
X149018154Y-96156450D01*
X149014710Y-96160769D01*
X149013481Y-96166150D01*
X149013481Y-96166152D01*
X148998428Y-96232105D01*
X148994344Y-96250000D01*
X148686827Y-96250000D01*
X148678224Y-96239212D01*
X148595763Y-96199500D01*
X148504237Y-96199500D01*
X148499264Y-96201894D01*
X148499263Y-96201895D01*
X148426750Y-96236816D01*
X148426748Y-96236817D01*
X148421776Y-96239212D01*
X148418335Y-96243526D01*
X148418332Y-96243529D01*
X148368987Y-96305406D01*
X148364710Y-96310769D01*
X148363481Y-96316150D01*
X148363481Y-96316152D01*
X148350172Y-96374466D01*
X148344344Y-96400000D01*
X134720500Y-96400000D01*
X134720500Y-95550000D01*
X144094344Y-95550000D01*
X144095572Y-95555380D01*
X144110369Y-95620214D01*
X144114710Y-95639231D01*
X144171776Y-95710788D01*
X144225387Y-95736606D01*
X144248273Y-95759491D01*
X144251898Y-95791653D01*
X144249665Y-95801436D01*
X144249665Y-95801441D01*
X144248437Y-95806821D01*
X144249665Y-95812201D01*
X144249665Y-95812202D01*
X144261837Y-95865534D01*
X144268803Y-95896052D01*
X144280555Y-95910788D01*
X144312224Y-95950500D01*
X144325869Y-95967609D01*
X144408330Y-96007321D01*
X144494336Y-96007321D01*
X144499856Y-96007321D01*
X144582317Y-95967609D01*
X144639383Y-95896052D01*
X144659749Y-95806821D01*
X144646780Y-95750000D01*
X148994344Y-95750000D01*
X149014710Y-95839231D01*
X149043242Y-95875009D01*
X149063467Y-95900370D01*
X149071776Y-95910788D01*
X149154237Y-95950500D01*
X149240243Y-95950500D01*
X149245763Y-95950500D01*
X149328224Y-95910788D01*
X149385290Y-95839231D01*
X149405656Y-95750000D01*
X149385290Y-95660769D01*
X149328224Y-95589212D01*
X149245763Y-95549500D01*
X149154237Y-95549500D01*
X149149264Y-95551894D01*
X149149263Y-95551895D01*
X149076750Y-95586816D01*
X149076748Y-95586817D01*
X149071776Y-95589212D01*
X149068335Y-95593526D01*
X149068332Y-95593529D01*
X149023019Y-95650350D01*
X149014710Y-95660769D01*
X148994344Y-95750000D01*
X144646780Y-95750000D01*
X144639383Y-95717590D01*
X144594069Y-95660769D01*
X144585760Y-95650350D01*
X144585759Y-95650349D01*
X144582317Y-95646033D01*
X144557013Y-95633847D01*
X144528705Y-95620214D01*
X144505818Y-95597327D01*
X144502195Y-95565163D01*
X144504427Y-95555383D01*
X144505656Y-95550000D01*
X144485290Y-95460769D01*
X144428224Y-95389212D01*
X144422968Y-95386681D01*
X144350736Y-95351895D01*
X144345763Y-95349500D01*
X144254237Y-95349500D01*
X144249264Y-95351894D01*
X144249263Y-95351895D01*
X144176750Y-95386816D01*
X144176748Y-95386817D01*
X144171776Y-95389212D01*
X144168335Y-95393526D01*
X144168332Y-95393529D01*
X144118680Y-95455791D01*
X144114710Y-95460769D01*
X144113481Y-95466150D01*
X144113481Y-95466152D01*
X144106990Y-95494593D01*
X144094344Y-95550000D01*
X134720500Y-95550000D01*
X134720500Y-95223498D01*
X141294344Y-95223498D01*
X141295572Y-95228878D01*
X141309968Y-95291955D01*
X141314710Y-95312729D01*
X141339610Y-95343952D01*
X141344034Y-95349500D01*
X141371776Y-95384286D01*
X141454237Y-95423998D01*
X141540243Y-95423998D01*
X141545763Y-95423998D01*
X141628224Y-95384286D01*
X141685290Y-95312729D01*
X141699607Y-95250001D01*
X148994344Y-95250001D01*
X148995572Y-95255381D01*
X149009646Y-95317047D01*
X149014710Y-95339232D01*
X149022899Y-95349500D01*
X149054568Y-95389212D01*
X149071776Y-95410789D01*
X149154237Y-95450501D01*
X149240243Y-95450501D01*
X149245763Y-95450501D01*
X149328224Y-95410789D01*
X149385290Y-95339232D01*
X149405656Y-95250001D01*
X149385290Y-95160770D01*
X149328224Y-95089213D01*
X149245763Y-95049501D01*
X149154237Y-95049501D01*
X149149264Y-95051895D01*
X149149263Y-95051896D01*
X149076750Y-95086817D01*
X149076748Y-95086818D01*
X149071776Y-95089213D01*
X149068335Y-95093527D01*
X149068332Y-95093530D01*
X149018154Y-95156451D01*
X149014710Y-95160770D01*
X149013481Y-95166151D01*
X149013481Y-95166153D01*
X149005878Y-95199466D01*
X148994344Y-95250001D01*
X141699607Y-95250001D01*
X141705656Y-95223498D01*
X141685290Y-95134267D01*
X141628224Y-95062710D01*
X141545763Y-95022998D01*
X141454237Y-95022998D01*
X141449264Y-95025392D01*
X141449263Y-95025393D01*
X141376750Y-95060314D01*
X141376748Y-95060315D01*
X141371776Y-95062710D01*
X141368335Y-95067024D01*
X141368332Y-95067027D01*
X141318154Y-95129948D01*
X141314710Y-95134267D01*
X141313481Y-95139648D01*
X141313481Y-95139650D01*
X141305991Y-95172468D01*
X141294344Y-95223498D01*
X134720500Y-95223498D01*
X134720500Y-94700000D01*
X145344344Y-94700000D01*
X145364710Y-94789231D01*
X145368154Y-94793549D01*
X145410987Y-94847260D01*
X145421776Y-94860788D01*
X145504237Y-94900500D01*
X145590243Y-94900500D01*
X145595763Y-94900500D01*
X145678224Y-94860788D01*
X145735290Y-94789231D01*
X145744244Y-94750000D01*
X148994344Y-94750000D01*
X149014710Y-94839231D01*
X149043243Y-94875009D01*
X149061660Y-94898104D01*
X149071776Y-94910788D01*
X149154237Y-94950500D01*
X149240243Y-94950500D01*
X149245763Y-94950500D01*
X149328224Y-94910788D01*
X149385290Y-94839231D01*
X149405656Y-94750000D01*
X149385290Y-94660769D01*
X149328224Y-94589212D01*
X149314793Y-94582744D01*
X149250736Y-94551895D01*
X149245763Y-94549500D01*
X149154237Y-94549500D01*
X149149264Y-94551894D01*
X149149263Y-94551895D01*
X149076750Y-94586816D01*
X149076748Y-94586817D01*
X149071776Y-94589212D01*
X149068335Y-94593526D01*
X149068332Y-94593529D01*
X149018154Y-94656450D01*
X149014710Y-94660769D01*
X148994344Y-94750000D01*
X145744244Y-94750000D01*
X145755656Y-94700000D01*
X145735290Y-94610769D01*
X145678224Y-94539212D01*
X145595763Y-94499500D01*
X145504237Y-94499500D01*
X145499264Y-94501894D01*
X145499263Y-94501895D01*
X145426750Y-94536816D01*
X145426748Y-94536817D01*
X145421776Y-94539212D01*
X145418335Y-94543526D01*
X145418332Y-94543529D01*
X145376861Y-94595532D01*
X145364710Y-94610769D01*
X145363481Y-94616150D01*
X145363481Y-94616152D01*
X145361656Y-94624150D01*
X145344344Y-94700000D01*
X134720500Y-94700000D01*
X134720500Y-94400000D01*
X141844344Y-94400000D01*
X141845572Y-94405380D01*
X141855663Y-94449595D01*
X141864710Y-94489231D01*
X141876758Y-94504338D01*
X141912302Y-94548909D01*
X141921776Y-94560788D01*
X142004237Y-94600500D01*
X142090243Y-94600500D01*
X142095763Y-94600500D01*
X142178224Y-94560788D01*
X142235290Y-94489231D01*
X142255656Y-94400000D01*
X142254428Y-94394620D01*
X142254428Y-94394617D01*
X142246619Y-94360404D01*
X142248777Y-94331598D01*
X142266787Y-94309014D01*
X142294390Y-94300500D01*
X142340243Y-94300500D01*
X142345763Y-94300500D01*
X142428224Y-94260788D01*
X142436827Y-94250000D01*
X143844344Y-94250000D01*
X143845572Y-94255380D01*
X143859008Y-94314251D01*
X143864710Y-94339231D01*
X143868154Y-94343549D01*
X143913172Y-94400000D01*
X143921776Y-94410788D01*
X144004237Y-94450500D01*
X144090243Y-94450500D01*
X144095763Y-94450500D01*
X144178224Y-94410788D01*
X144235290Y-94339231D01*
X144255656Y-94250000D01*
X148994344Y-94250000D01*
X148995572Y-94255380D01*
X149009008Y-94314251D01*
X149014710Y-94339231D01*
X149018154Y-94343549D01*
X149063172Y-94400000D01*
X149071776Y-94410788D01*
X149154237Y-94450500D01*
X149240243Y-94450500D01*
X149245763Y-94450500D01*
X149328224Y-94410788D01*
X149385290Y-94339231D01*
X149405656Y-94250000D01*
X149385290Y-94160769D01*
X149332537Y-94094620D01*
X149331667Y-94093529D01*
X149331666Y-94093528D01*
X149328224Y-94089212D01*
X149245763Y-94049500D01*
X149154237Y-94049500D01*
X149149264Y-94051894D01*
X149149263Y-94051895D01*
X149076750Y-94086816D01*
X149076748Y-94086817D01*
X149071776Y-94089212D01*
X149068335Y-94093526D01*
X149068332Y-94093529D01*
X149020935Y-94152963D01*
X149014710Y-94160769D01*
X149013481Y-94166150D01*
X149013481Y-94166152D01*
X148998428Y-94232105D01*
X148994344Y-94250000D01*
X144255656Y-94250000D01*
X144255219Y-94248088D01*
X144268780Y-94215352D01*
X144303428Y-94201000D01*
X144379845Y-94201000D01*
X144385365Y-94201000D01*
X144467826Y-94161288D01*
X144524892Y-94089731D01*
X144545258Y-94000500D01*
X144524892Y-93911269D01*
X144467826Y-93839712D01*
X144455647Y-93833847D01*
X144390338Y-93802395D01*
X144385365Y-93800000D01*
X144293839Y-93800000D01*
X144288866Y-93802394D01*
X144288865Y-93802395D01*
X144216352Y-93837316D01*
X144216350Y-93837317D01*
X144211378Y-93839712D01*
X144207937Y-93844026D01*
X144207934Y-93844029D01*
X144158139Y-93906470D01*
X144154312Y-93911269D01*
X144133946Y-94000500D01*
X144134382Y-94002411D01*
X144120822Y-94035148D01*
X144086174Y-94049500D01*
X144004237Y-94049500D01*
X143999264Y-94051894D01*
X143999263Y-94051895D01*
X143926750Y-94086816D01*
X143926748Y-94086817D01*
X143921776Y-94089212D01*
X143918335Y-94093526D01*
X143918332Y-94093529D01*
X143870935Y-94152963D01*
X143864710Y-94160769D01*
X143863481Y-94166150D01*
X143863481Y-94166152D01*
X143848428Y-94232105D01*
X143844344Y-94250000D01*
X142436827Y-94250000D01*
X142485290Y-94189231D01*
X142505656Y-94100000D01*
X142485290Y-94010769D01*
X142428224Y-93939212D01*
X142345763Y-93899500D01*
X142254237Y-93899500D01*
X142249264Y-93901894D01*
X142249263Y-93901895D01*
X142176750Y-93936816D01*
X142176748Y-93936817D01*
X142171776Y-93939212D01*
X142168335Y-93943526D01*
X142168332Y-93943529D01*
X142122899Y-94000500D01*
X142114710Y-94010769D01*
X142113481Y-94016150D01*
X142113481Y-94016152D01*
X142103649Y-94059232D01*
X142094344Y-94100000D01*
X142095572Y-94105380D01*
X142095572Y-94105383D01*
X142103381Y-94139596D01*
X142101223Y-94168402D01*
X142083213Y-94190986D01*
X142055610Y-94199500D01*
X142004237Y-94199500D01*
X141999264Y-94201894D01*
X141999263Y-94201895D01*
X141926750Y-94236816D01*
X141926748Y-94236817D01*
X141921776Y-94239212D01*
X141918335Y-94243526D01*
X141918332Y-94243529D01*
X141874810Y-94298104D01*
X141864710Y-94310769D01*
X141863481Y-94316150D01*
X141863481Y-94316152D01*
X141858214Y-94339231D01*
X141844344Y-94400000D01*
X134720500Y-94400000D01*
X134720500Y-94100000D01*
X140394344Y-94100000D01*
X140414710Y-94189231D01*
X140435541Y-94215352D01*
X140463172Y-94250000D01*
X140471776Y-94260788D01*
X140554237Y-94300500D01*
X140640243Y-94300500D01*
X140645763Y-94300500D01*
X140728224Y-94260788D01*
X140785290Y-94189231D01*
X140805656Y-94100000D01*
X140785290Y-94010769D01*
X140728224Y-93939212D01*
X140645763Y-93899500D01*
X140554237Y-93899500D01*
X140549264Y-93901894D01*
X140549263Y-93901895D01*
X140476750Y-93936816D01*
X140476748Y-93936817D01*
X140471776Y-93939212D01*
X140468335Y-93943526D01*
X140468332Y-93943529D01*
X140422899Y-94000500D01*
X140414710Y-94010769D01*
X140413481Y-94016150D01*
X140413481Y-94016152D01*
X140403649Y-94059232D01*
X140394344Y-94100000D01*
X134720500Y-94100000D01*
X134720500Y-93600000D01*
X134944844Y-93600000D01*
X134965210Y-93689231D01*
X134984702Y-93713673D01*
X135013735Y-93750079D01*
X135022276Y-93760788D01*
X135104737Y-93800500D01*
X135190743Y-93800500D01*
X135196263Y-93800500D01*
X135278724Y-93760788D01*
X135335790Y-93689231D01*
X135356156Y-93600000D01*
X142694344Y-93600000D01*
X142714710Y-93689231D01*
X142734202Y-93713673D01*
X142763235Y-93750079D01*
X142771776Y-93760788D01*
X142854237Y-93800500D01*
X142940243Y-93800500D01*
X142945763Y-93800500D01*
X143028224Y-93760788D01*
X143036827Y-93750000D01*
X149043846Y-93750000D01*
X149064212Y-93839231D01*
X149121278Y-93910788D01*
X149203739Y-93950500D01*
X149289745Y-93950500D01*
X149295265Y-93950500D01*
X149377726Y-93910788D01*
X149434792Y-93839231D01*
X149455158Y-93750000D01*
X149434792Y-93660769D01*
X149390620Y-93605380D01*
X149381169Y-93593529D01*
X149381168Y-93593528D01*
X149377726Y-93589212D01*
X149295265Y-93549500D01*
X149203739Y-93549500D01*
X149198766Y-93551894D01*
X149198765Y-93551895D01*
X149126252Y-93586816D01*
X149126250Y-93586817D01*
X149121278Y-93589212D01*
X149117837Y-93593526D01*
X149117834Y-93593529D01*
X149067656Y-93656450D01*
X149064212Y-93660769D01*
X149062983Y-93666150D01*
X149062983Y-93666152D01*
X149057716Y-93689231D01*
X149043846Y-93750000D01*
X143036827Y-93750000D01*
X143085290Y-93689231D01*
X143105656Y-93600000D01*
X143085839Y-93513173D01*
X144301167Y-93513173D01*
X144321533Y-93602404D01*
X144324977Y-93606722D01*
X144368078Y-93660769D01*
X144378599Y-93673961D01*
X144461060Y-93713673D01*
X144547066Y-93713673D01*
X144552586Y-93713673D01*
X144635047Y-93673961D01*
X144692113Y-93602404D01*
X144712479Y-93513173D01*
X144692113Y-93423942D01*
X144635047Y-93352385D01*
X144552586Y-93312673D01*
X144461060Y-93312673D01*
X144456087Y-93315067D01*
X144456086Y-93315068D01*
X144383573Y-93349989D01*
X144383571Y-93349990D01*
X144378599Y-93352385D01*
X144375158Y-93356699D01*
X144375155Y-93356702D01*
X144327113Y-93416945D01*
X144321533Y-93423942D01*
X144320304Y-93429323D01*
X144320304Y-93429325D01*
X144317062Y-93443529D01*
X144301167Y-93513173D01*
X143085839Y-93513173D01*
X143085290Y-93510769D01*
X143028224Y-93439212D01*
X142945763Y-93399500D01*
X142854237Y-93399500D01*
X142849264Y-93401894D01*
X142849263Y-93401895D01*
X142776750Y-93436816D01*
X142776748Y-93436817D01*
X142771776Y-93439212D01*
X142768335Y-93443526D01*
X142768332Y-93443529D01*
X142718154Y-93506450D01*
X142714710Y-93510769D01*
X142713481Y-93516150D01*
X142713481Y-93516152D01*
X142705870Y-93549500D01*
X142694344Y-93600000D01*
X135356156Y-93600000D01*
X135335790Y-93510769D01*
X135278724Y-93439212D01*
X135196263Y-93399500D01*
X135104737Y-93399500D01*
X135099764Y-93401894D01*
X135099763Y-93401895D01*
X135027250Y-93436816D01*
X135027248Y-93436817D01*
X135022276Y-93439212D01*
X135018835Y-93443526D01*
X135018832Y-93443529D01*
X134968654Y-93506450D01*
X134965210Y-93510769D01*
X134963981Y-93516150D01*
X134963981Y-93516152D01*
X134956370Y-93549500D01*
X134944844Y-93600000D01*
X134720500Y-93600000D01*
X134720500Y-92950000D01*
X136194592Y-92950000D01*
X136195534Y-92954736D01*
X136213092Y-93043007D01*
X136213093Y-93043009D01*
X136214034Y-93047740D01*
X136216713Y-93051750D01*
X136216714Y-93051751D01*
X136262315Y-93120000D01*
X136269399Y-93130601D01*
X136352260Y-93185966D01*
X136450000Y-93205408D01*
X136547740Y-93185966D01*
X136630601Y-93130601D01*
X136685966Y-93047740D01*
X136705408Y-92950000D01*
X136699026Y-92917916D01*
X136856776Y-92917916D01*
X136857718Y-92922652D01*
X136875276Y-93010923D01*
X136875277Y-93010925D01*
X136876218Y-93015656D01*
X136878897Y-93019666D01*
X136878898Y-93019667D01*
X136903488Y-93056470D01*
X136931583Y-93098517D01*
X137014444Y-93153882D01*
X137112184Y-93173324D01*
X137209924Y-93153882D01*
X137292785Y-93098517D01*
X137348150Y-93015656D01*
X137351264Y-93000000D01*
X137544592Y-93000000D01*
X137545534Y-93004736D01*
X137563092Y-93093007D01*
X137563093Y-93093009D01*
X137564034Y-93097740D01*
X137566713Y-93101750D01*
X137566714Y-93101751D01*
X137614536Y-93173324D01*
X137619399Y-93180601D01*
X137702260Y-93235966D01*
X137800000Y-93255408D01*
X137897740Y-93235966D01*
X137980601Y-93180601D01*
X138035966Y-93097740D01*
X138053235Y-93010923D01*
X138054466Y-93004736D01*
X138055408Y-93000000D01*
X138035966Y-92902260D01*
X138034456Y-92900000D01*
X138694344Y-92900000D01*
X138714710Y-92989231D01*
X138723697Y-93000500D01*
X138750689Y-93034347D01*
X138771776Y-93060788D01*
X138854237Y-93100500D01*
X138940243Y-93100500D01*
X138945763Y-93100500D01*
X139028224Y-93060788D01*
X139085290Y-92989231D01*
X139105656Y-92900000D01*
X139085290Y-92810769D01*
X139045147Y-92760433D01*
X139031667Y-92743529D01*
X139031666Y-92743528D01*
X139028224Y-92739212D01*
X138945763Y-92699500D01*
X138854237Y-92699500D01*
X138849264Y-92701894D01*
X138849263Y-92701895D01*
X138776750Y-92736816D01*
X138776748Y-92736817D01*
X138771776Y-92739212D01*
X138768335Y-92743526D01*
X138768332Y-92743529D01*
X138721503Y-92802251D01*
X138714710Y-92810769D01*
X138713481Y-92816150D01*
X138713481Y-92816152D01*
X138701955Y-92866652D01*
X138694344Y-92900000D01*
X138034456Y-92900000D01*
X137980601Y-92819399D01*
X137975759Y-92816164D01*
X137901751Y-92766714D01*
X137901750Y-92766713D01*
X137897740Y-92764034D01*
X137893009Y-92763093D01*
X137893007Y-92763092D01*
X137804736Y-92745534D01*
X137800000Y-92744592D01*
X137795264Y-92745534D01*
X137706992Y-92763092D01*
X137706988Y-92763093D01*
X137702260Y-92764034D01*
X137698250Y-92766712D01*
X137698248Y-92766714D01*
X137623410Y-92816718D01*
X137623407Y-92816720D01*
X137619399Y-92819399D01*
X137616720Y-92823407D01*
X137616718Y-92823410D01*
X137566714Y-92898248D01*
X137566712Y-92898250D01*
X137564034Y-92902260D01*
X137563093Y-92906988D01*
X137563092Y-92906992D01*
X137550575Y-92969920D01*
X137544592Y-93000000D01*
X137351264Y-93000000D01*
X137367592Y-92917916D01*
X137364310Y-92901419D01*
X137349091Y-92824908D01*
X137348150Y-92820176D01*
X137292785Y-92737315D01*
X137256668Y-92713183D01*
X137213935Y-92684630D01*
X137213934Y-92684629D01*
X137209924Y-92681950D01*
X137205193Y-92681009D01*
X137205191Y-92681008D01*
X137116920Y-92663450D01*
X137112184Y-92662508D01*
X137107448Y-92663450D01*
X137019176Y-92681008D01*
X137019172Y-92681009D01*
X137014444Y-92681950D01*
X137010434Y-92684628D01*
X137010432Y-92684630D01*
X136935594Y-92734634D01*
X136935591Y-92734636D01*
X136931583Y-92737315D01*
X136928904Y-92741323D01*
X136928902Y-92741326D01*
X136878898Y-92816164D01*
X136878896Y-92816166D01*
X136876218Y-92820176D01*
X136875277Y-92824904D01*
X136875276Y-92824908D01*
X136859204Y-92905709D01*
X136856776Y-92917916D01*
X136699026Y-92917916D01*
X136685966Y-92852260D01*
X136630601Y-92769399D01*
X136621910Y-92763592D01*
X136551751Y-92716714D01*
X136551750Y-92716713D01*
X136547740Y-92714034D01*
X136543009Y-92713093D01*
X136543007Y-92713092D01*
X136454736Y-92695534D01*
X136450000Y-92694592D01*
X136445264Y-92695534D01*
X136356992Y-92713092D01*
X136356988Y-92713093D01*
X136352260Y-92714034D01*
X136348250Y-92716712D01*
X136348248Y-92716714D01*
X136273410Y-92766718D01*
X136273407Y-92766720D01*
X136269399Y-92769399D01*
X136266720Y-92773407D01*
X136266718Y-92773410D01*
X136216714Y-92848248D01*
X136216712Y-92848250D01*
X136214034Y-92852260D01*
X136213093Y-92856988D01*
X136213092Y-92856992D01*
X136203151Y-92906970D01*
X136194592Y-92950000D01*
X134720500Y-92950000D01*
X134720500Y-92550000D01*
X140044344Y-92550000D01*
X140064710Y-92639231D01*
X140086578Y-92666652D01*
X140109794Y-92695764D01*
X140121776Y-92710788D01*
X140171292Y-92734634D01*
X140191647Y-92744437D01*
X140213707Y-92765686D01*
X140218839Y-92795883D01*
X140206798Y-92819739D01*
X140207037Y-92819899D01*
X140205733Y-92821849D01*
X140205729Y-92821855D01*
X140204360Y-92823904D01*
X140204358Y-92823907D01*
X140154352Y-92898748D01*
X140154350Y-92898750D01*
X140151672Y-92902760D01*
X140150731Y-92907488D01*
X140150730Y-92907492D01*
X140133172Y-92995764D01*
X140132230Y-93000500D01*
X140133172Y-93005236D01*
X140150730Y-93093507D01*
X140150731Y-93093509D01*
X140151672Y-93098240D01*
X140154351Y-93102250D01*
X140154352Y-93102251D01*
X140201840Y-93173324D01*
X140207037Y-93181101D01*
X140289898Y-93236466D01*
X140365942Y-93251592D01*
X140380388Y-93254466D01*
X140387638Y-93255908D01*
X140394888Y-93254466D01*
X140402977Y-93252856D01*
X140485378Y-93236466D01*
X140568239Y-93181101D01*
X140623604Y-93098240D01*
X140643046Y-93000500D01*
X140642004Y-92995264D01*
X140634170Y-92955880D01*
X140623604Y-92902760D01*
X140568239Y-92819899D01*
X140563478Y-92816718D01*
X140489389Y-92767214D01*
X140489388Y-92767213D01*
X140485378Y-92764534D01*
X140480645Y-92763592D01*
X140480644Y-92763592D01*
X140434821Y-92754477D01*
X140420448Y-92745908D01*
X142587524Y-92745908D01*
X142588752Y-92751288D01*
X142604297Y-92819399D01*
X142607890Y-92835139D01*
X142630299Y-92863238D01*
X142660747Y-92901419D01*
X142664956Y-92906696D01*
X142747417Y-92946408D01*
X142833423Y-92946408D01*
X142838943Y-92946408D01*
X142921404Y-92906696D01*
X142978470Y-92835139D01*
X142998836Y-92745908D01*
X142988472Y-92700500D01*
X147244592Y-92700500D01*
X147245534Y-92705236D01*
X147263092Y-92793507D01*
X147263093Y-92793509D01*
X147264034Y-92798240D01*
X147266713Y-92802250D01*
X147266714Y-92802251D01*
X147309744Y-92866652D01*
X147319399Y-92881101D01*
X147402260Y-92936466D01*
X147500000Y-92955908D01*
X147597740Y-92936466D01*
X147680601Y-92881101D01*
X147735966Y-92798240D01*
X147745462Y-92750500D01*
X148185403Y-92750500D01*
X148190632Y-92773410D01*
X148201242Y-92819899D01*
X148205769Y-92839731D01*
X148224516Y-92863238D01*
X148259172Y-92906696D01*
X148262835Y-92911288D01*
X148345296Y-92951000D01*
X148431302Y-92951000D01*
X148436822Y-92951000D01*
X148437860Y-92950500D01*
X148945346Y-92950500D01*
X148946574Y-92955880D01*
X148961132Y-93019667D01*
X148965712Y-93039731D01*
X148969156Y-93044049D01*
X149014730Y-93101197D01*
X149022778Y-93111288D01*
X149105239Y-93151000D01*
X149191245Y-93151000D01*
X149196765Y-93151000D01*
X149279226Y-93111288D01*
X149336292Y-93039731D01*
X149356658Y-92950500D01*
X149336292Y-92861269D01*
X149286027Y-92798240D01*
X149282669Y-92794029D01*
X149282668Y-92794028D01*
X149279226Y-92789712D01*
X149196765Y-92750000D01*
X149105239Y-92750000D01*
X149100266Y-92752394D01*
X149100265Y-92752395D01*
X149027752Y-92787316D01*
X149027750Y-92787317D01*
X149022778Y-92789712D01*
X149019337Y-92794026D01*
X149019334Y-92794029D01*
X148969156Y-92856950D01*
X148965712Y-92861269D01*
X148964483Y-92866650D01*
X148964483Y-92866652D01*
X148960574Y-92883781D01*
X148945346Y-92950500D01*
X148437860Y-92950500D01*
X148519283Y-92911288D01*
X148576349Y-92839731D01*
X148596715Y-92750500D01*
X148576349Y-92661269D01*
X148519283Y-92589712D01*
X148436822Y-92550000D01*
X148345296Y-92550000D01*
X148340323Y-92552394D01*
X148340322Y-92552395D01*
X148267809Y-92587316D01*
X148267807Y-92587317D01*
X148262835Y-92589712D01*
X148259394Y-92594026D01*
X148259391Y-92594029D01*
X148212875Y-92652358D01*
X148205769Y-92661269D01*
X148204540Y-92666650D01*
X148204540Y-92666652D01*
X148195734Y-92705236D01*
X148185403Y-92750500D01*
X147745462Y-92750500D01*
X147754140Y-92706876D01*
X147754466Y-92705236D01*
X147755408Y-92700500D01*
X147735966Y-92602760D01*
X147680601Y-92519899D01*
X147653766Y-92501969D01*
X147601751Y-92467214D01*
X147601750Y-92467213D01*
X147597740Y-92464534D01*
X147593009Y-92463593D01*
X147593007Y-92463592D01*
X147504736Y-92446034D01*
X147500000Y-92445092D01*
X147495264Y-92446034D01*
X147406992Y-92463592D01*
X147406988Y-92463593D01*
X147402260Y-92464534D01*
X147398250Y-92467212D01*
X147398248Y-92467214D01*
X147323410Y-92517218D01*
X147323407Y-92517220D01*
X147319399Y-92519899D01*
X147316720Y-92523907D01*
X147316718Y-92523910D01*
X147266714Y-92598748D01*
X147266712Y-92598750D01*
X147264034Y-92602760D01*
X147263093Y-92607488D01*
X147263092Y-92607492D01*
X147252238Y-92662060D01*
X147244592Y-92700500D01*
X142988472Y-92700500D01*
X142978470Y-92656677D01*
X142921404Y-92585120D01*
X142838943Y-92545408D01*
X142747417Y-92545408D01*
X142742444Y-92547802D01*
X142742443Y-92547803D01*
X142669930Y-92582724D01*
X142669928Y-92582725D01*
X142664956Y-92585120D01*
X142661515Y-92589434D01*
X142661512Y-92589437D01*
X142618361Y-92643547D01*
X142607890Y-92656677D01*
X142606661Y-92662058D01*
X142606661Y-92662060D01*
X142601510Y-92684630D01*
X142587524Y-92745908D01*
X140420448Y-92745908D01*
X140406649Y-92737681D01*
X140395383Y-92706876D01*
X140406071Y-92675869D01*
X140435290Y-92639231D01*
X140455656Y-92550000D01*
X140435290Y-92460769D01*
X140391411Y-92405748D01*
X140381667Y-92393529D01*
X140381666Y-92393528D01*
X140378224Y-92389212D01*
X140295763Y-92349500D01*
X140204237Y-92349500D01*
X140199264Y-92351894D01*
X140199263Y-92351895D01*
X140126750Y-92386816D01*
X140126748Y-92386817D01*
X140121776Y-92389212D01*
X140118335Y-92393526D01*
X140118332Y-92393529D01*
X140080170Y-92441383D01*
X140064710Y-92460769D01*
X140063481Y-92466150D01*
X140063481Y-92466152D01*
X140054818Y-92504110D01*
X140044344Y-92550000D01*
X134720500Y-92550000D01*
X134720500Y-92504110D01*
X134720500Y-92501969D01*
X134720166Y-92500079D01*
X134720000Y-92496251D01*
X134720000Y-92243279D01*
X142144344Y-92243279D01*
X142164710Y-92332510D01*
X142193243Y-92368288D01*
X142207135Y-92385709D01*
X142221776Y-92404067D01*
X142304237Y-92443779D01*
X142390243Y-92443779D01*
X142395763Y-92443779D01*
X142478224Y-92404067D01*
X142535290Y-92332510D01*
X142554122Y-92250000D01*
X148944344Y-92250000D01*
X148964710Y-92339231D01*
X148993242Y-92375009D01*
X149017756Y-92405748D01*
X149021776Y-92410788D01*
X149104237Y-92450500D01*
X149190243Y-92450500D01*
X149195763Y-92450500D01*
X149278224Y-92410788D01*
X149335290Y-92339231D01*
X149351693Y-92267361D01*
X149366135Y-92242348D01*
X149392161Y-92229814D01*
X149420724Y-92234119D01*
X149454737Y-92250500D01*
X149540743Y-92250500D01*
X149546263Y-92250500D01*
X149628724Y-92210788D01*
X149685790Y-92139231D01*
X149706156Y-92050000D01*
X149685790Y-91960769D01*
X149628724Y-91889212D01*
X149546263Y-91849500D01*
X149454737Y-91849500D01*
X149449764Y-91851894D01*
X149449763Y-91851895D01*
X149377250Y-91886816D01*
X149377248Y-91886817D01*
X149372276Y-91889212D01*
X149368835Y-91893526D01*
X149368832Y-91893529D01*
X149318654Y-91956450D01*
X149315210Y-91960769D01*
X149313982Y-91966148D01*
X149313979Y-91966155D01*
X149298806Y-92032636D01*
X149284363Y-92057652D01*
X149258338Y-92070185D01*
X149229775Y-92065879D01*
X149200738Y-92051895D01*
X149200734Y-92051894D01*
X149195763Y-92049500D01*
X149104237Y-92049500D01*
X149099264Y-92051894D01*
X149099263Y-92051895D01*
X149026750Y-92086816D01*
X149026748Y-92086817D01*
X149021776Y-92089212D01*
X149018335Y-92093526D01*
X149018332Y-92093529D01*
X148970070Y-92154048D01*
X148964710Y-92160769D01*
X148963481Y-92166150D01*
X148963481Y-92166152D01*
X148952005Y-92216436D01*
X148944344Y-92250000D01*
X142554122Y-92250000D01*
X142555656Y-92243279D01*
X142535290Y-92154048D01*
X142502965Y-92113515D01*
X142492413Y-92086629D01*
X142498841Y-92058467D01*
X142520016Y-92038820D01*
X142578224Y-92010788D01*
X142605746Y-91976277D01*
X147744344Y-91976277D01*
X147745572Y-91981657D01*
X147761284Y-92050500D01*
X147764710Y-92065508D01*
X147821776Y-92137065D01*
X147904237Y-92176777D01*
X147990243Y-92176777D01*
X147995763Y-92176777D01*
X148078224Y-92137065D01*
X148135290Y-92065508D01*
X148155656Y-91976277D01*
X148135290Y-91887046D01*
X148078224Y-91815489D01*
X148042124Y-91798104D01*
X148000736Y-91778172D01*
X147995763Y-91775777D01*
X147904237Y-91775777D01*
X147899264Y-91778171D01*
X147899263Y-91778172D01*
X147826750Y-91813093D01*
X147826748Y-91813094D01*
X147821776Y-91815489D01*
X147818335Y-91819803D01*
X147818332Y-91819806D01*
X147789963Y-91855380D01*
X147764710Y-91887046D01*
X147763481Y-91892427D01*
X147763481Y-91892429D01*
X147754028Y-91933847D01*
X147744344Y-91976277D01*
X142605746Y-91976277D01*
X142635290Y-91939231D01*
X142655656Y-91850000D01*
X142635290Y-91760769D01*
X142578224Y-91689212D01*
X142495763Y-91649500D01*
X142404237Y-91649500D01*
X142399264Y-91651894D01*
X142399263Y-91651895D01*
X142326750Y-91686816D01*
X142326748Y-91686817D01*
X142321776Y-91689212D01*
X142318335Y-91693526D01*
X142318332Y-91693529D01*
X142274810Y-91748104D01*
X142264710Y-91760769D01*
X142263481Y-91766150D01*
X142263481Y-91766152D01*
X142255642Y-91800500D01*
X142244344Y-91850000D01*
X142264710Y-91939231D01*
X142297033Y-91979762D01*
X142307586Y-92006648D01*
X142301159Y-92034810D01*
X142279984Y-92054458D01*
X142226751Y-92080094D01*
X142226747Y-92080096D01*
X142221776Y-92082491D01*
X142218335Y-92086805D01*
X142218332Y-92086808D01*
X142168154Y-92149729D01*
X142164710Y-92154048D01*
X142163481Y-92159429D01*
X142163481Y-92159431D01*
X142150471Y-92216436D01*
X142144344Y-92243279D01*
X134720000Y-92243279D01*
X134720000Y-91900000D01*
X138544344Y-91900000D01*
X138564710Y-91989231D01*
X138583812Y-92013184D01*
X138616727Y-92054458D01*
X138621776Y-92060788D01*
X138704237Y-92100500D01*
X138790243Y-92100500D01*
X138795763Y-92100500D01*
X138878224Y-92060788D01*
X138935290Y-91989231D01*
X138955656Y-91900000D01*
X138935290Y-91810769D01*
X138883266Y-91745534D01*
X138881667Y-91743529D01*
X138881666Y-91743528D01*
X138878224Y-91739212D01*
X138795763Y-91699500D01*
X138704237Y-91699500D01*
X138699264Y-91701894D01*
X138699263Y-91701895D01*
X138626750Y-91736816D01*
X138626748Y-91736817D01*
X138621776Y-91739212D01*
X138618335Y-91743526D01*
X138618332Y-91743529D01*
X138574810Y-91798104D01*
X138564710Y-91810769D01*
X138563481Y-91816150D01*
X138563481Y-91816152D01*
X138556984Y-91844620D01*
X138544344Y-91900000D01*
X134720000Y-91900000D01*
X134720000Y-91600000D01*
X135194344Y-91600000D01*
X135214710Y-91689231D01*
X135243242Y-91725009D01*
X135261660Y-91748104D01*
X135271776Y-91760788D01*
X135354237Y-91800500D01*
X135440243Y-91800500D01*
X135445763Y-91800500D01*
X135528224Y-91760788D01*
X135585290Y-91689231D01*
X135605656Y-91600000D01*
X135594244Y-91550000D01*
X146494344Y-91550000D01*
X146514710Y-91639231D01*
X146543242Y-91675009D01*
X146554584Y-91689231D01*
X146571776Y-91710788D01*
X146654237Y-91750500D01*
X146740243Y-91750500D01*
X146745763Y-91750500D01*
X146828224Y-91710788D01*
X146885290Y-91639231D01*
X146905656Y-91550000D01*
X146885290Y-91460769D01*
X146838339Y-91401895D01*
X146831667Y-91393529D01*
X146831666Y-91393528D01*
X146828224Y-91389212D01*
X146745763Y-91349500D01*
X146654237Y-91349500D01*
X146649264Y-91351894D01*
X146649263Y-91351895D01*
X146576750Y-91386816D01*
X146576748Y-91386817D01*
X146571776Y-91389212D01*
X146568335Y-91393526D01*
X146568332Y-91393529D01*
X146518154Y-91456450D01*
X146514710Y-91460769D01*
X146494344Y-91550000D01*
X135594244Y-91550000D01*
X135585290Y-91510769D01*
X135528224Y-91439212D01*
X135445763Y-91399500D01*
X135354237Y-91399500D01*
X135349264Y-91401894D01*
X135349263Y-91401895D01*
X135276750Y-91436816D01*
X135276748Y-91436817D01*
X135271776Y-91439212D01*
X135268335Y-91443526D01*
X135268332Y-91443529D01*
X135218154Y-91506450D01*
X135214710Y-91510769D01*
X135194344Y-91600000D01*
X134720000Y-91600000D01*
X134720000Y-91298776D01*
X139636898Y-91298776D01*
X139657264Y-91388007D01*
X139668340Y-91401895D01*
X139707101Y-91450500D01*
X139714330Y-91459564D01*
X139796791Y-91499276D01*
X139882797Y-91499276D01*
X139888317Y-91499276D01*
X139970778Y-91459564D01*
X140027844Y-91388007D01*
X140048210Y-91298776D01*
X140027844Y-91209545D01*
X139983722Y-91154219D01*
X139974221Y-91142305D01*
X139974220Y-91142304D01*
X139970778Y-91137988D01*
X139888317Y-91098276D01*
X139796791Y-91098276D01*
X139791818Y-91100670D01*
X139791817Y-91100671D01*
X139719304Y-91135592D01*
X139719302Y-91135593D01*
X139714330Y-91137988D01*
X139710889Y-91142302D01*
X139710886Y-91142305D01*
X139660708Y-91205226D01*
X139657264Y-91209545D01*
X139656035Y-91214926D01*
X139656035Y-91214928D01*
X139647431Y-91252626D01*
X139636898Y-91298776D01*
X134720000Y-91298776D01*
X134720000Y-90700000D01*
X137544344Y-90700000D01*
X137546688Y-90710269D01*
X137558626Y-90762577D01*
X137564710Y-90789231D01*
X137577190Y-90804880D01*
X137618051Y-90856118D01*
X137621776Y-90860788D01*
X137704237Y-90900500D01*
X137790243Y-90900500D01*
X137795763Y-90900500D01*
X137878224Y-90860788D01*
X137935290Y-90789231D01*
X137944244Y-90750000D01*
X138045092Y-90750000D01*
X138046034Y-90754736D01*
X138063592Y-90843007D01*
X138063593Y-90843009D01*
X138064534Y-90847740D01*
X138067213Y-90851750D01*
X138067214Y-90851751D01*
X138113975Y-90921736D01*
X138119899Y-90930601D01*
X138202760Y-90985966D01*
X138300500Y-91005408D01*
X138398240Y-90985966D01*
X138481101Y-90930601D01*
X138536466Y-90847740D01*
X138554625Y-90756450D01*
X138554966Y-90754736D01*
X138555908Y-90750000D01*
X138536466Y-90652260D01*
X138501214Y-90599500D01*
X139644844Y-90599500D01*
X139646072Y-90604880D01*
X139663287Y-90680308D01*
X139665210Y-90688731D01*
X139683596Y-90711786D01*
X139716408Y-90752931D01*
X139722276Y-90760288D01*
X139771196Y-90783847D01*
X139804612Y-90799940D01*
X139824841Y-90818018D01*
X139830299Y-90836966D01*
X139831123Y-90836779D01*
X139845666Y-90900500D01*
X139851489Y-90926010D01*
X139857288Y-90933281D01*
X139900053Y-90986907D01*
X139908555Y-90997567D01*
X139991016Y-91037279D01*
X140077022Y-91037279D01*
X140082542Y-91037279D01*
X140165003Y-90997567D01*
X140222069Y-90926010D01*
X140242435Y-90836779D01*
X140233926Y-90799500D01*
X140594344Y-90799500D01*
X140614710Y-90888731D01*
X140618154Y-90893049D01*
X140665082Y-90951895D01*
X140671776Y-90960288D01*
X140754237Y-91000000D01*
X140840243Y-91000000D01*
X140845763Y-91000000D01*
X140928224Y-90960288D01*
X140974638Y-90902086D01*
X141005642Y-90884187D01*
X141040548Y-90892154D01*
X141060716Y-90921736D01*
X141063479Y-90933843D01*
X141063481Y-90933847D01*
X141064710Y-90939231D01*
X141113173Y-91000000D01*
X141114779Y-91002014D01*
X141125333Y-91028902D01*
X141118906Y-91057064D01*
X141097731Y-91076712D01*
X141076751Y-91086815D01*
X141076747Y-91086817D01*
X141071776Y-91089212D01*
X141068335Y-91093526D01*
X141068332Y-91093529D01*
X141018154Y-91156450D01*
X141014710Y-91160769D01*
X141013481Y-91166150D01*
X141013481Y-91166152D01*
X141004563Y-91205226D01*
X140994344Y-91250000D01*
X140995572Y-91255380D01*
X141006704Y-91304156D01*
X141014710Y-91339231D01*
X141043242Y-91375009D01*
X141063439Y-91400335D01*
X141071776Y-91410788D01*
X141154237Y-91450500D01*
X141240243Y-91450500D01*
X141245763Y-91450500D01*
X141328224Y-91410788D01*
X141385290Y-91339231D01*
X141405656Y-91250000D01*
X141385290Y-91160769D01*
X141335218Y-91097983D01*
X141331851Y-91089404D01*
X142407553Y-91089404D01*
X142408495Y-91094140D01*
X142426053Y-91182411D01*
X142426054Y-91182413D01*
X142426995Y-91187144D01*
X142429674Y-91191154D01*
X142429675Y-91191155D01*
X142465398Y-91244620D01*
X142482360Y-91270005D01*
X142565221Y-91325370D01*
X142634904Y-91339231D01*
X142656611Y-91343549D01*
X142662961Y-91344812D01*
X142669311Y-91343549D01*
X142691018Y-91339231D01*
X142760701Y-91325370D01*
X142843562Y-91270005D01*
X142898927Y-91187144D01*
X142906316Y-91150000D01*
X149084344Y-91150000D01*
X149104710Y-91239231D01*
X149129252Y-91270005D01*
X149152196Y-91298776D01*
X149161776Y-91310788D01*
X149244237Y-91350500D01*
X149330243Y-91350500D01*
X149335763Y-91350500D01*
X149418224Y-91310788D01*
X149475290Y-91239231D01*
X149495656Y-91150000D01*
X149475290Y-91060769D01*
X149430389Y-91004466D01*
X149421667Y-90993529D01*
X149421666Y-90993528D01*
X149418224Y-90989212D01*
X149335763Y-90949500D01*
X149244237Y-90949500D01*
X149239264Y-90951894D01*
X149239263Y-90951895D01*
X149166750Y-90986816D01*
X149166748Y-90986817D01*
X149161776Y-90989212D01*
X149158335Y-90993526D01*
X149158332Y-90993529D01*
X149108154Y-91056450D01*
X149104710Y-91060769D01*
X149103481Y-91066150D01*
X149103481Y-91066152D01*
X149096149Y-91098276D01*
X149084344Y-91150000D01*
X142906316Y-91150000D01*
X142918369Y-91089404D01*
X142898927Y-90991664D01*
X142843562Y-90908803D01*
X142831135Y-90900500D01*
X142764712Y-90856118D01*
X142764711Y-90856117D01*
X142760701Y-90853438D01*
X142755970Y-90852497D01*
X142755968Y-90852496D01*
X142667697Y-90834938D01*
X142662961Y-90833996D01*
X142658225Y-90834938D01*
X142569953Y-90852496D01*
X142569949Y-90852497D01*
X142565221Y-90853438D01*
X142561211Y-90856116D01*
X142561209Y-90856118D01*
X142486371Y-90906122D01*
X142486368Y-90906124D01*
X142482360Y-90908803D01*
X142479681Y-90912811D01*
X142479679Y-90912814D01*
X142429675Y-90987652D01*
X142429673Y-90987654D01*
X142426995Y-90991664D01*
X142426054Y-90996392D01*
X142426053Y-90996396D01*
X142415074Y-91051593D01*
X142407553Y-91089404D01*
X141331851Y-91089404D01*
X141324666Y-91071096D01*
X141331094Y-91042934D01*
X141352267Y-91023288D01*
X141378224Y-91010788D01*
X141435290Y-90939231D01*
X141455656Y-90850000D01*
X141435290Y-90760769D01*
X141378224Y-90689212D01*
X141366045Y-90683347D01*
X141300736Y-90651895D01*
X141295763Y-90649500D01*
X141204237Y-90649500D01*
X141199264Y-90651894D01*
X141199263Y-90651895D01*
X141126750Y-90686816D01*
X141126748Y-90686817D01*
X141121776Y-90689212D01*
X141118334Y-90693527D01*
X141118334Y-90693528D01*
X141075363Y-90747411D01*
X141044356Y-90765312D01*
X141009450Y-90757344D01*
X140989282Y-90727761D01*
X140989225Y-90727510D01*
X140985290Y-90710269D01*
X140942802Y-90656992D01*
X140931667Y-90643029D01*
X140931666Y-90643028D01*
X140928224Y-90638712D01*
X140847839Y-90600000D01*
X146644582Y-90600000D01*
X146645523Y-90604731D01*
X146661141Y-90683253D01*
X146661142Y-90683255D01*
X146662083Y-90687986D01*
X146711923Y-90762577D01*
X146786514Y-90812417D01*
X146874500Y-90829918D01*
X146962486Y-90812417D01*
X147037077Y-90762577D01*
X147086917Y-90687986D01*
X147104418Y-90600000D01*
X147086917Y-90512014D01*
X147038610Y-90439717D01*
X149107068Y-90439717D01*
X149127434Y-90528948D01*
X149184500Y-90600505D01*
X149266961Y-90640217D01*
X149352967Y-90640217D01*
X149358487Y-90640217D01*
X149440948Y-90600505D01*
X149498014Y-90528948D01*
X149518380Y-90439717D01*
X149498014Y-90350486D01*
X149440948Y-90278929D01*
X149358487Y-90239217D01*
X149266961Y-90239217D01*
X149261988Y-90241611D01*
X149261987Y-90241612D01*
X149189474Y-90276533D01*
X149189472Y-90276534D01*
X149184500Y-90278929D01*
X149181059Y-90283243D01*
X149181056Y-90283246D01*
X149136011Y-90339731D01*
X149127434Y-90350486D01*
X149126205Y-90355867D01*
X149126205Y-90355869D01*
X149114542Y-90406970D01*
X149107068Y-90439717D01*
X147038610Y-90439717D01*
X147037077Y-90437423D01*
X147032458Y-90434337D01*
X146979573Y-90399000D01*
X146962486Y-90387583D01*
X146957755Y-90386642D01*
X146957753Y-90386641D01*
X146879231Y-90371023D01*
X146874500Y-90370082D01*
X146869769Y-90371023D01*
X146791246Y-90386641D01*
X146791242Y-90386642D01*
X146786514Y-90387583D01*
X146782502Y-90390263D01*
X146782501Y-90390264D01*
X146715934Y-90434742D01*
X146715931Y-90434744D01*
X146711923Y-90437423D01*
X146709244Y-90441431D01*
X146709242Y-90441434D01*
X146664764Y-90508001D01*
X146662083Y-90512014D01*
X146661142Y-90516742D01*
X146661141Y-90516746D01*
X146649871Y-90573410D01*
X146644582Y-90600000D01*
X140847839Y-90600000D01*
X140845763Y-90599000D01*
X140754237Y-90599000D01*
X140749264Y-90601394D01*
X140749263Y-90601395D01*
X140676750Y-90636316D01*
X140676748Y-90636317D01*
X140671776Y-90638712D01*
X140668335Y-90643026D01*
X140668332Y-90643029D01*
X140622899Y-90700000D01*
X140614710Y-90710269D01*
X140613481Y-90715650D01*
X140613481Y-90715652D01*
X140602147Y-90765312D01*
X140594344Y-90799500D01*
X140233926Y-90799500D01*
X140222069Y-90747548D01*
X140173636Y-90686816D01*
X140168446Y-90680308D01*
X140168445Y-90680307D01*
X140165003Y-90675991D01*
X140115726Y-90652260D01*
X140082667Y-90636339D01*
X140062438Y-90618261D01*
X140056979Y-90599312D01*
X140056156Y-90599500D01*
X140035790Y-90510269D01*
X139978724Y-90438712D01*
X139970480Y-90434742D01*
X139921779Y-90411288D01*
X139896263Y-90399000D01*
X139804737Y-90399000D01*
X139799764Y-90401394D01*
X139799763Y-90401395D01*
X139727250Y-90436316D01*
X139727248Y-90436317D01*
X139722276Y-90438712D01*
X139718835Y-90443026D01*
X139718832Y-90443029D01*
X139677712Y-90494592D01*
X139665210Y-90510269D01*
X139663981Y-90515650D01*
X139663981Y-90515652D01*
X139659961Y-90533266D01*
X139644844Y-90599500D01*
X138501214Y-90599500D01*
X138481101Y-90569399D01*
X138398240Y-90514034D01*
X138393509Y-90513093D01*
X138393507Y-90513092D01*
X138305236Y-90495534D01*
X138300500Y-90494592D01*
X138295764Y-90495534D01*
X138207492Y-90513092D01*
X138207488Y-90513093D01*
X138202760Y-90514034D01*
X138198750Y-90516712D01*
X138198748Y-90516714D01*
X138123910Y-90566718D01*
X138123907Y-90566720D01*
X138119899Y-90569399D01*
X138117220Y-90573407D01*
X138117218Y-90573410D01*
X138067214Y-90648248D01*
X138067212Y-90648250D01*
X138064534Y-90652260D01*
X138063593Y-90656988D01*
X138063592Y-90656992D01*
X138051486Y-90717856D01*
X138045372Y-90727510D01*
X138047449Y-90738146D01*
X138045092Y-90750000D01*
X137944244Y-90750000D01*
X137951619Y-90717685D01*
X137955774Y-90711786D01*
X137954428Y-90708296D01*
X137954428Y-90705380D01*
X137955656Y-90700000D01*
X137935290Y-90610769D01*
X137878224Y-90539212D01*
X137795763Y-90499500D01*
X137704237Y-90499500D01*
X137699264Y-90501894D01*
X137699263Y-90501895D01*
X137626750Y-90536816D01*
X137626748Y-90536817D01*
X137621776Y-90539212D01*
X137618335Y-90543526D01*
X137618332Y-90543529D01*
X137570985Y-90602900D01*
X137564710Y-90610769D01*
X137563481Y-90616150D01*
X137563481Y-90616152D01*
X137558332Y-90638712D01*
X137544344Y-90700000D01*
X134720000Y-90700000D01*
X134720000Y-90050500D01*
X139094344Y-90050500D01*
X139114710Y-90139731D01*
X139136179Y-90166652D01*
X139157230Y-90193049D01*
X139171776Y-90211288D01*
X139254237Y-90251000D01*
X139340243Y-90251000D01*
X139345763Y-90251000D01*
X139428224Y-90211288D01*
X139485290Y-90139731D01*
X139494472Y-90099500D01*
X141044344Y-90099500D01*
X141051205Y-90129563D01*
X141063212Y-90182170D01*
X141064710Y-90188731D01*
X141081185Y-90209389D01*
X141118260Y-90255880D01*
X141121776Y-90260288D01*
X141204237Y-90300000D01*
X141290243Y-90300000D01*
X141295763Y-90300000D01*
X141378224Y-90260288D01*
X141435290Y-90188731D01*
X141455656Y-90099500D01*
X141438812Y-90025700D01*
X141994344Y-90025700D01*
X142014710Y-90114931D01*
X142071776Y-90186488D01*
X142154237Y-90226200D01*
X142159757Y-90226200D01*
X142226664Y-90226200D01*
X142257215Y-90236890D01*
X142274436Y-90264297D01*
X142291653Y-90339731D01*
X142295097Y-90344049D01*
X142338146Y-90398031D01*
X142348719Y-90411288D01*
X142431180Y-90451000D01*
X142517186Y-90451000D01*
X142522706Y-90451000D01*
X142605167Y-90411288D01*
X142662233Y-90339731D01*
X142682599Y-90250500D01*
X142668905Y-90190500D01*
X148584810Y-90190500D01*
X148605176Y-90279731D01*
X148633709Y-90315509D01*
X148648731Y-90334347D01*
X148662242Y-90351288D01*
X148744703Y-90391000D01*
X148830709Y-90391000D01*
X148836229Y-90391000D01*
X148918690Y-90351288D01*
X148975756Y-90279731D01*
X148996122Y-90190500D01*
X148975756Y-90101269D01*
X148918690Y-90029712D01*
X148836229Y-89990000D01*
X148744703Y-89990000D01*
X148739730Y-89992394D01*
X148739729Y-89992395D01*
X148667216Y-90027316D01*
X148667214Y-90027317D01*
X148662242Y-90029712D01*
X148658801Y-90034026D01*
X148658798Y-90034029D01*
X148610877Y-90094120D01*
X148605176Y-90101269D01*
X148603947Y-90106650D01*
X148603947Y-90106652D01*
X148601072Y-90119249D01*
X148584810Y-90190500D01*
X142668905Y-90190500D01*
X142662233Y-90161269D01*
X142620985Y-90109547D01*
X142608610Y-90094029D01*
X142608609Y-90094028D01*
X142605167Y-90089712D01*
X142522706Y-90050000D01*
X142450279Y-90050000D01*
X142419728Y-90039310D01*
X142402507Y-90011903D01*
X142390950Y-89961269D01*
X142385290Y-89936469D01*
X142328224Y-89864912D01*
X142245763Y-89825200D01*
X142154237Y-89825200D01*
X142149264Y-89827594D01*
X142149263Y-89827595D01*
X142076750Y-89862516D01*
X142076748Y-89862517D01*
X142071776Y-89864912D01*
X142068335Y-89869226D01*
X142068332Y-89869229D01*
X142018154Y-89932150D01*
X142014710Y-89936469D01*
X142013481Y-89941850D01*
X142013481Y-89941852D01*
X141998852Y-90005950D01*
X141994344Y-90025700D01*
X141438812Y-90025700D01*
X141435290Y-90010269D01*
X141378224Y-89938712D01*
X141295763Y-89899000D01*
X141204237Y-89899000D01*
X141199264Y-89901394D01*
X141199263Y-89901395D01*
X141126750Y-89936316D01*
X141126748Y-89936317D01*
X141121776Y-89938712D01*
X141118335Y-89943026D01*
X141118332Y-89943029D01*
X141080874Y-89990000D01*
X141064710Y-90010269D01*
X141063481Y-90015650D01*
X141063481Y-90015652D01*
X141055642Y-90050000D01*
X141044344Y-90099500D01*
X139494472Y-90099500D01*
X139505656Y-90050500D01*
X139485290Y-89961269D01*
X139428224Y-89889712D01*
X139345763Y-89850000D01*
X139254237Y-89850000D01*
X139249264Y-89852394D01*
X139249263Y-89852395D01*
X139176750Y-89887316D01*
X139176748Y-89887317D01*
X139171776Y-89889712D01*
X139168335Y-89894026D01*
X139168332Y-89894029D01*
X139129256Y-89943029D01*
X139114710Y-89961269D01*
X139094344Y-90050500D01*
X134720000Y-90050500D01*
X134720000Y-89753749D01*
X134720166Y-89749920D01*
X134720500Y-89748031D01*
X134720500Y-89650000D01*
X134720500Y-89617712D01*
X134720500Y-89497020D01*
X135689760Y-89497020D01*
X135692393Y-89501581D01*
X135727404Y-89536592D01*
X135730681Y-89539341D01*
X135920669Y-89672373D01*
X135924356Y-89674502D01*
X136134570Y-89772527D01*
X136138576Y-89773984D01*
X136362607Y-89834013D01*
X136366810Y-89834755D01*
X136597874Y-89854971D01*
X136602126Y-89854971D01*
X136833189Y-89834755D01*
X136837392Y-89834013D01*
X137061423Y-89773984D01*
X137065429Y-89772527D01*
X137275643Y-89674502D01*
X137279330Y-89672373D01*
X137418393Y-89575000D01*
X143594344Y-89575000D01*
X143614710Y-89664231D01*
X143671776Y-89735788D01*
X143754237Y-89775500D01*
X143840243Y-89775500D01*
X143845763Y-89775500D01*
X143928224Y-89735788D01*
X143985290Y-89664231D01*
X143999950Y-89600000D01*
X145557092Y-89600000D01*
X145558034Y-89604736D01*
X145575592Y-89693007D01*
X145575593Y-89693009D01*
X145576534Y-89697740D01*
X145579213Y-89701750D01*
X145579214Y-89701751D01*
X145628490Y-89775500D01*
X145631899Y-89780601D01*
X145714760Y-89835966D01*
X145812500Y-89855408D01*
X145910240Y-89835966D01*
X145993101Y-89780601D01*
X146048466Y-89697740D01*
X146067908Y-89600000D01*
X146048466Y-89502260D01*
X146044965Y-89497020D01*
X147689760Y-89497020D01*
X147692393Y-89501581D01*
X147727404Y-89536592D01*
X147730681Y-89539341D01*
X147920669Y-89672373D01*
X147924356Y-89674502D01*
X148134570Y-89772527D01*
X148138576Y-89773984D01*
X148362607Y-89834013D01*
X148366810Y-89834755D01*
X148597874Y-89854971D01*
X148602126Y-89854971D01*
X148833189Y-89834755D01*
X148837392Y-89834013D01*
X149061423Y-89773984D01*
X149065429Y-89772527D01*
X149275643Y-89674502D01*
X149279330Y-89672373D01*
X149469324Y-89539338D01*
X149472588Y-89536599D01*
X149505276Y-89503910D01*
X149508129Y-89497021D01*
X149505274Y-89490127D01*
X148606892Y-88591745D01*
X148600000Y-88588890D01*
X148593107Y-88591745D01*
X147692393Y-89492458D01*
X147689760Y-89497020D01*
X146044965Y-89497020D01*
X145993101Y-89419399D01*
X145910240Y-89364034D01*
X145905509Y-89363093D01*
X145905507Y-89363092D01*
X145817236Y-89345534D01*
X145812500Y-89344592D01*
X145807764Y-89345534D01*
X145719492Y-89363092D01*
X145719488Y-89363093D01*
X145714760Y-89364034D01*
X145710750Y-89366712D01*
X145710748Y-89366714D01*
X145635910Y-89416718D01*
X145635907Y-89416720D01*
X145631899Y-89419399D01*
X145629220Y-89423407D01*
X145629218Y-89423410D01*
X145579214Y-89498248D01*
X145579212Y-89498250D01*
X145576534Y-89502260D01*
X145575593Y-89506988D01*
X145575592Y-89506992D01*
X145569158Y-89539341D01*
X145557092Y-89600000D01*
X143999950Y-89600000D01*
X144005656Y-89575000D01*
X143985290Y-89485769D01*
X143928224Y-89414212D01*
X143909664Y-89405274D01*
X143850736Y-89376895D01*
X143845763Y-89374500D01*
X143754237Y-89374500D01*
X143749264Y-89376894D01*
X143749263Y-89376895D01*
X143676750Y-89411816D01*
X143676748Y-89411817D01*
X143671776Y-89414212D01*
X143668335Y-89418526D01*
X143668332Y-89418529D01*
X143630874Y-89465500D01*
X143614710Y-89485769D01*
X143613481Y-89491150D01*
X143613481Y-89491152D01*
X143602483Y-89539338D01*
X143594344Y-89575000D01*
X137418393Y-89575000D01*
X137469324Y-89539338D01*
X137472588Y-89536599D01*
X137505276Y-89503910D01*
X137508129Y-89497021D01*
X137505274Y-89490127D01*
X136606892Y-88591745D01*
X136600000Y-88588890D01*
X136593107Y-88591745D01*
X135692393Y-89492458D01*
X135689760Y-89497020D01*
X134720500Y-89497020D01*
X134720500Y-88502126D01*
X135245029Y-88502126D01*
X135265244Y-88733189D01*
X135265986Y-88737392D01*
X135326015Y-88961423D01*
X135327472Y-88965429D01*
X135425497Y-89175643D01*
X135427626Y-89179330D01*
X135560658Y-89369318D01*
X135563407Y-89372595D01*
X135596086Y-89405274D01*
X135602979Y-89408129D01*
X135609871Y-89405274D01*
X136510585Y-88504561D01*
X136513218Y-88500000D01*
X136688890Y-88500000D01*
X136691745Y-88506892D01*
X137590127Y-89405274D01*
X137597021Y-89408129D01*
X137603910Y-89405276D01*
X137636599Y-89372588D01*
X137639338Y-89369324D01*
X137712386Y-89265000D01*
X139270044Y-89265000D01*
X139290410Y-89354231D01*
X139308484Y-89376895D01*
X139342380Y-89419399D01*
X139347476Y-89425788D01*
X139429937Y-89465500D01*
X139515943Y-89465500D01*
X139521463Y-89465500D01*
X139603924Y-89425788D01*
X139660990Y-89354231D01*
X139681356Y-89265000D01*
X139660990Y-89175769D01*
X139603924Y-89104212D01*
X139521463Y-89064500D01*
X139429937Y-89064500D01*
X139424964Y-89066894D01*
X139424963Y-89066895D01*
X139352450Y-89101816D01*
X139352448Y-89101817D01*
X139347476Y-89104212D01*
X139344035Y-89108526D01*
X139344032Y-89108529D01*
X139293854Y-89171450D01*
X139290410Y-89175769D01*
X139270044Y-89265000D01*
X137712386Y-89265000D01*
X137772373Y-89179330D01*
X137774502Y-89175643D01*
X137872527Y-88965429D01*
X137873984Y-88961423D01*
X137934013Y-88737392D01*
X137934755Y-88733189D01*
X137954971Y-88502126D01*
X147245029Y-88502126D01*
X147265244Y-88733189D01*
X147265986Y-88737392D01*
X147326015Y-88961423D01*
X147327472Y-88965429D01*
X147425497Y-89175643D01*
X147427626Y-89179330D01*
X147560658Y-89369318D01*
X147563407Y-89372595D01*
X147596086Y-89405274D01*
X147602979Y-89408129D01*
X147609871Y-89405274D01*
X148510585Y-88504561D01*
X148513218Y-88500000D01*
X148688890Y-88500000D01*
X148691745Y-88506892D01*
X149590127Y-89405274D01*
X149597021Y-89408129D01*
X149603910Y-89405276D01*
X149636599Y-89372588D01*
X149639338Y-89369324D01*
X149772373Y-89179330D01*
X149774502Y-89175643D01*
X149872527Y-88965429D01*
X149873984Y-88961423D01*
X149934013Y-88737392D01*
X149934755Y-88733189D01*
X149954971Y-88502126D01*
X149954971Y-88497874D01*
X149934755Y-88266810D01*
X149934013Y-88262607D01*
X149873984Y-88038576D01*
X149872527Y-88034570D01*
X149774502Y-87824358D01*
X149772373Y-87820670D01*
X149639341Y-87630681D01*
X149636592Y-87627404D01*
X149601581Y-87592393D01*
X149597020Y-87589760D01*
X149592458Y-87592393D01*
X148691745Y-88493107D01*
X148688890Y-88500000D01*
X148513218Y-88500000D01*
X148510585Y-88495438D01*
X147607540Y-87592393D01*
X147602978Y-87589759D01*
X147598418Y-87592392D01*
X147563401Y-87627410D01*
X147560661Y-87630676D01*
X147427626Y-87820670D01*
X147425497Y-87824358D01*
X147327472Y-88034570D01*
X147326015Y-88038576D01*
X147265986Y-88262607D01*
X147265244Y-88266810D01*
X147245029Y-88497874D01*
X147245029Y-88502126D01*
X137954971Y-88502126D01*
X137954971Y-88497874D01*
X137934755Y-88266810D01*
X137934013Y-88262607D01*
X137873984Y-88038576D01*
X137872527Y-88034570D01*
X137774502Y-87824358D01*
X137772373Y-87820670D01*
X137712386Y-87735000D01*
X139270044Y-87735000D01*
X139290410Y-87824231D01*
X139347476Y-87895788D01*
X139429937Y-87935500D01*
X139515943Y-87935500D01*
X139521463Y-87935500D01*
X139603924Y-87895788D01*
X139660990Y-87824231D01*
X139681356Y-87735000D01*
X139660990Y-87645769D01*
X139603924Y-87574212D01*
X139580910Y-87563129D01*
X139526436Y-87536895D01*
X139521463Y-87534500D01*
X139429937Y-87534500D01*
X139424964Y-87536894D01*
X139424963Y-87536895D01*
X139352450Y-87571816D01*
X139352448Y-87571817D01*
X139347476Y-87574212D01*
X139344035Y-87578526D01*
X139344032Y-87578529D01*
X139293854Y-87641450D01*
X139290410Y-87645769D01*
X139270044Y-87735000D01*
X137712386Y-87735000D01*
X137639341Y-87630681D01*
X137636592Y-87627404D01*
X137601581Y-87592393D01*
X137597020Y-87589760D01*
X137592458Y-87592393D01*
X136691745Y-88493107D01*
X136688890Y-88500000D01*
X136513218Y-88500000D01*
X136510585Y-88495438D01*
X135607540Y-87592393D01*
X135602978Y-87589759D01*
X135598418Y-87592392D01*
X135563401Y-87627410D01*
X135560661Y-87630676D01*
X135427626Y-87820670D01*
X135425497Y-87824358D01*
X135327472Y-88034570D01*
X135326015Y-88038576D01*
X135265986Y-88262607D01*
X135265244Y-88266810D01*
X135245029Y-88497874D01*
X135245029Y-88502126D01*
X134720500Y-88502126D01*
X134720500Y-88501603D01*
X134720605Y-88498398D01*
X134720952Y-88493107D01*
X134736369Y-88257871D01*
X134737206Y-88251522D01*
X134770246Y-88085423D01*
X134783914Y-88016702D01*
X134785572Y-88010515D01*
X134811036Y-87935500D01*
X134862539Y-87783777D01*
X134864984Y-87777874D01*
X134970892Y-87563114D01*
X134974080Y-87557593D01*
X135010572Y-87502978D01*
X135689759Y-87502978D01*
X135692393Y-87507540D01*
X136595438Y-88410585D01*
X136599999Y-88413218D01*
X136604561Y-88410585D01*
X137505274Y-87509871D01*
X137508129Y-87502979D01*
X137508129Y-87502978D01*
X147689759Y-87502978D01*
X147692393Y-87507540D01*
X148595438Y-88410585D01*
X148599999Y-88413218D01*
X148604561Y-88410585D01*
X149505274Y-87509871D01*
X149508129Y-87502979D01*
X149505274Y-87496086D01*
X149472595Y-87463407D01*
X149469318Y-87460658D01*
X149279330Y-87327626D01*
X149275643Y-87325497D01*
X149065429Y-87227472D01*
X149061423Y-87226015D01*
X148837392Y-87165986D01*
X148833189Y-87165244D01*
X148602126Y-87145029D01*
X148597874Y-87145029D01*
X148366810Y-87165244D01*
X148362607Y-87165986D01*
X148138576Y-87226015D01*
X148134570Y-87227472D01*
X147924358Y-87325497D01*
X147920670Y-87327626D01*
X147730676Y-87460661D01*
X147727410Y-87463401D01*
X147692392Y-87498418D01*
X147689759Y-87502978D01*
X137508129Y-87502978D01*
X137505274Y-87496086D01*
X137472595Y-87463407D01*
X137469318Y-87460658D01*
X137279330Y-87327626D01*
X137275643Y-87325497D01*
X137065429Y-87227472D01*
X137061423Y-87226015D01*
X136837392Y-87165986D01*
X136833189Y-87165244D01*
X136602126Y-87145029D01*
X136597874Y-87145029D01*
X136366810Y-87165244D01*
X136362607Y-87165986D01*
X136138576Y-87226015D01*
X136134570Y-87227472D01*
X135924358Y-87325497D01*
X135920670Y-87327626D01*
X135730676Y-87460661D01*
X135727410Y-87463401D01*
X135692392Y-87498418D01*
X135689759Y-87502978D01*
X135010572Y-87502978D01*
X135107112Y-87358495D01*
X135111004Y-87353424D01*
X135268882Y-87173399D01*
X135273399Y-87168882D01*
X135408958Y-87050000D01*
X139644344Y-87050000D01*
X139664710Y-87139231D01*
X139685455Y-87165244D01*
X139713309Y-87200172D01*
X139721776Y-87210788D01*
X139804237Y-87250500D01*
X139890243Y-87250500D01*
X139895763Y-87250500D01*
X139978224Y-87210788D01*
X139986690Y-87200171D01*
X140010557Y-87183900D01*
X140039443Y-87183900D01*
X140063309Y-87200171D01*
X140071776Y-87210788D01*
X140154237Y-87250500D01*
X140240243Y-87250500D01*
X140245763Y-87250500D01*
X140328224Y-87210788D01*
X140385290Y-87139231D01*
X140405656Y-87050000D01*
X140385290Y-86960769D01*
X140328224Y-86889212D01*
X140296821Y-86874089D01*
X140250736Y-86851895D01*
X140245763Y-86849500D01*
X140154237Y-86849500D01*
X140149264Y-86851894D01*
X140149263Y-86851895D01*
X140076750Y-86886816D01*
X140076748Y-86886817D01*
X140071776Y-86889212D01*
X140068335Y-86893526D01*
X140068332Y-86893529D01*
X140063309Y-86899829D01*
X140039443Y-86916101D01*
X140010557Y-86916101D01*
X139986691Y-86899829D01*
X139981667Y-86893529D01*
X139981666Y-86893528D01*
X139978224Y-86889212D01*
X139946821Y-86874089D01*
X139900736Y-86851895D01*
X139895763Y-86849500D01*
X139804237Y-86849500D01*
X139799264Y-86851894D01*
X139799263Y-86851895D01*
X139726750Y-86886816D01*
X139726748Y-86886817D01*
X139721776Y-86889212D01*
X139718335Y-86893526D01*
X139718332Y-86893529D01*
X139675000Y-86947866D01*
X139664710Y-86960769D01*
X139663481Y-86966150D01*
X139663481Y-86966152D01*
X139653726Y-87008892D01*
X139644344Y-87050000D01*
X135408958Y-87050000D01*
X135453424Y-87011004D01*
X135458495Y-87007112D01*
X135657593Y-86874080D01*
X135663114Y-86870892D01*
X135877874Y-86764984D01*
X135883777Y-86762539D01*
X136110518Y-86685571D01*
X136116702Y-86683914D01*
X136351527Y-86637205D01*
X136357871Y-86636369D01*
X136598397Y-86620605D01*
X136601603Y-86620500D01*
X143095562Y-86620500D01*
X143098777Y-86620500D01*
X143169051Y-86601669D01*
X143181733Y-86600000D01*
X144218267Y-86600000D01*
X144230948Y-86601669D01*
G37*
%TD.AperFunction*%
%TA.AperFunction,Conductor*%
G36*
X159865148Y-65134852D02*
G01*
X159879500Y-65169500D01*
X159879500Y-124830500D01*
X159865148Y-124865148D01*
X159830500Y-124879500D01*
X100169500Y-124879500D01*
X100134852Y-124865148D01*
X100120500Y-124830500D01*
X100120500Y-98496945D01*
X115387018Y-98496945D01*
X115387312Y-98499122D01*
X115387313Y-98499124D01*
X115417268Y-98720263D01*
X115417269Y-98720268D01*
X115417563Y-98722437D01*
X115418238Y-98724514D01*
X115418240Y-98724523D01*
X115468596Y-98879500D01*
X115487880Y-98938851D01*
X115488917Y-98940779D01*
X115488921Y-98940787D01*
X115594670Y-99137301D01*
X115594674Y-99137308D01*
X115595710Y-99139232D01*
X115737585Y-99317138D01*
X115908948Y-99466853D01*
X116104289Y-99583564D01*
X116317330Y-99663520D01*
X116541224Y-99704150D01*
X116710671Y-99704150D01*
X116711775Y-99704150D01*
X116881635Y-99688862D01*
X117100986Y-99628325D01*
X117306003Y-99529595D01*
X117490095Y-99395843D01*
X117647347Y-99231371D01*
X117772705Y-99041463D01*
X117862138Y-98832223D01*
X117912773Y-98610377D01*
X117917867Y-98496945D01*
X118562018Y-98496945D01*
X118562312Y-98499122D01*
X118562313Y-98499124D01*
X118592268Y-98720263D01*
X118592269Y-98720268D01*
X118592563Y-98722437D01*
X118593238Y-98724514D01*
X118593240Y-98724523D01*
X118643596Y-98879500D01*
X118662880Y-98938851D01*
X118663917Y-98940779D01*
X118663921Y-98940787D01*
X118769670Y-99137301D01*
X118769674Y-99137308D01*
X118770710Y-99139232D01*
X118912585Y-99317138D01*
X119083948Y-99466853D01*
X119279289Y-99583564D01*
X119492330Y-99663520D01*
X119716224Y-99704150D01*
X119885671Y-99704150D01*
X119886775Y-99704150D01*
X120056635Y-99688862D01*
X120275986Y-99628325D01*
X120481003Y-99529595D01*
X120665095Y-99395843D01*
X120822347Y-99231371D01*
X120947705Y-99041463D01*
X121037138Y-98832223D01*
X121087773Y-98610377D01*
X121097982Y-98383055D01*
X121067437Y-98157563D01*
X121060725Y-98136907D01*
X121043301Y-98083281D01*
X120997120Y-97941149D01*
X120996078Y-97939212D01*
X120890329Y-97742698D01*
X120890326Y-97742694D01*
X120889290Y-97740768D01*
X120747415Y-97562862D01*
X120576052Y-97413147D01*
X120462648Y-97345391D01*
X120382601Y-97297565D01*
X120382599Y-97297564D01*
X120380711Y-97296436D01*
X120314837Y-97271713D01*
X120169736Y-97217255D01*
X120169732Y-97217253D01*
X120167670Y-97216480D01*
X120165510Y-97216088D01*
X120165503Y-97216086D01*
X119945938Y-97176242D01*
X119945934Y-97176241D01*
X119943776Y-97175850D01*
X119773225Y-97175850D01*
X119772144Y-97175947D01*
X119772128Y-97175948D01*
X119605552Y-97190941D01*
X119605550Y-97190941D01*
X119603365Y-97191138D01*
X119601256Y-97191719D01*
X119601245Y-97191722D01*
X119386131Y-97251090D01*
X119386123Y-97251092D01*
X119384014Y-97251675D01*
X119382046Y-97252622D01*
X119382037Y-97252626D01*
X119180976Y-97349451D01*
X119180967Y-97349456D01*
X119178997Y-97350405D01*
X119177228Y-97351690D01*
X119177220Y-97351695D01*
X118996683Y-97482864D01*
X118996674Y-97482871D01*
X118994905Y-97484157D01*
X118993388Y-97485743D01*
X118993383Y-97485748D01*
X118839175Y-97647036D01*
X118839169Y-97647042D01*
X118837653Y-97648629D01*
X118836443Y-97650461D01*
X118836439Y-97650467D01*
X118713507Y-97836699D01*
X118713501Y-97836709D01*
X118712295Y-97838537D01*
X118711435Y-97840547D01*
X118711429Y-97840560D01*
X118623725Y-98045756D01*
X118623722Y-98045763D01*
X118622862Y-98047777D01*
X118622374Y-98049910D01*
X118622372Y-98049920D01*
X118574248Y-98260769D01*
X118572227Y-98269623D01*
X118572128Y-98271814D01*
X118572128Y-98271819D01*
X118562116Y-98494747D01*
X118562116Y-98494754D01*
X118562018Y-98496945D01*
X117917867Y-98496945D01*
X117922982Y-98383055D01*
X117892437Y-98157563D01*
X117885725Y-98136907D01*
X117868301Y-98083281D01*
X117822120Y-97941149D01*
X117821078Y-97939212D01*
X117715329Y-97742698D01*
X117715326Y-97742694D01*
X117714290Y-97740768D01*
X117572415Y-97562862D01*
X117401052Y-97413147D01*
X117287648Y-97345391D01*
X117278625Y-97340000D01*
X117744592Y-97340000D01*
X117745534Y-97344736D01*
X117763092Y-97433007D01*
X117763093Y-97433009D01*
X117764034Y-97437740D01*
X117766713Y-97441750D01*
X117766714Y-97441751D01*
X117802787Y-97495740D01*
X117819399Y-97520601D01*
X117902260Y-97575966D01*
X118000000Y-97595408D01*
X118097740Y-97575966D01*
X118180601Y-97520601D01*
X118235966Y-97437740D01*
X118253796Y-97348104D01*
X118254466Y-97344736D01*
X118255408Y-97340000D01*
X118254071Y-97333281D01*
X118248522Y-97305382D01*
X118235966Y-97242260D01*
X118180601Y-97159399D01*
X118176187Y-97156450D01*
X118101751Y-97106714D01*
X118101750Y-97106713D01*
X118097740Y-97104034D01*
X118093009Y-97103093D01*
X118093007Y-97103092D01*
X118004736Y-97085534D01*
X118000000Y-97084592D01*
X117995264Y-97085534D01*
X117906992Y-97103092D01*
X117906988Y-97103093D01*
X117902260Y-97104034D01*
X117898250Y-97106712D01*
X117898248Y-97106714D01*
X117823410Y-97156718D01*
X117823407Y-97156720D01*
X117819399Y-97159399D01*
X117816720Y-97163407D01*
X117816718Y-97163410D01*
X117766714Y-97238248D01*
X117766712Y-97238250D01*
X117764034Y-97242260D01*
X117763093Y-97246988D01*
X117763092Y-97246992D01*
X117745816Y-97333847D01*
X117744592Y-97340000D01*
X117278625Y-97340000D01*
X117207601Y-97297565D01*
X117207599Y-97297564D01*
X117205711Y-97296436D01*
X117139837Y-97271713D01*
X116994736Y-97217255D01*
X116994732Y-97217253D01*
X116992670Y-97216480D01*
X116990510Y-97216088D01*
X116990503Y-97216086D01*
X116770938Y-97176242D01*
X116770934Y-97176241D01*
X116768776Y-97175850D01*
X116598225Y-97175850D01*
X116597144Y-97175947D01*
X116597128Y-97175948D01*
X116430552Y-97190941D01*
X116430550Y-97190941D01*
X116428365Y-97191138D01*
X116426256Y-97191719D01*
X116426245Y-97191722D01*
X116211131Y-97251090D01*
X116211123Y-97251092D01*
X116209014Y-97251675D01*
X116207046Y-97252622D01*
X116207037Y-97252626D01*
X116005976Y-97349451D01*
X116005967Y-97349456D01*
X116003997Y-97350405D01*
X116002228Y-97351690D01*
X116002220Y-97351695D01*
X115821683Y-97482864D01*
X115821674Y-97482871D01*
X115819905Y-97484157D01*
X115818388Y-97485743D01*
X115818383Y-97485748D01*
X115664175Y-97647036D01*
X115664169Y-97647042D01*
X115662653Y-97648629D01*
X115661443Y-97650461D01*
X115661439Y-97650467D01*
X115538507Y-97836699D01*
X115538501Y-97836709D01*
X115537295Y-97838537D01*
X115536435Y-97840547D01*
X115536429Y-97840560D01*
X115448725Y-98045756D01*
X115448722Y-98045763D01*
X115447862Y-98047777D01*
X115447374Y-98049910D01*
X115447372Y-98049920D01*
X115399248Y-98260769D01*
X115397227Y-98269623D01*
X115397128Y-98271814D01*
X115397128Y-98271819D01*
X115387116Y-98494747D01*
X115387116Y-98494754D01*
X115387018Y-98496945D01*
X100120500Y-98496945D01*
X100120500Y-96916000D01*
X114173064Y-96916000D01*
X114173483Y-96919183D01*
X114192303Y-97062137D01*
X114192304Y-97062141D01*
X114192723Y-97065322D01*
X114193951Y-97068287D01*
X114193952Y-97068290D01*
X114245079Y-97191722D01*
X114250359Y-97204468D01*
X114252311Y-97207012D01*
X114252314Y-97207017D01*
X114333223Y-97312458D01*
X114342045Y-97323955D01*
X114356783Y-97335264D01*
X114458982Y-97413685D01*
X114458985Y-97413687D01*
X114461532Y-97415641D01*
X114600678Y-97473277D01*
X114712508Y-97488000D01*
X114785892Y-97488000D01*
X114787492Y-97488000D01*
X114899322Y-97473277D01*
X115038468Y-97415641D01*
X115157955Y-97323955D01*
X115249641Y-97204468D01*
X115307277Y-97065322D01*
X115326936Y-96916000D01*
X115307277Y-96766678D01*
X115249641Y-96627532D01*
X115247687Y-96624985D01*
X115247685Y-96624982D01*
X115159910Y-96510593D01*
X115157955Y-96508045D01*
X115139064Y-96493549D01*
X115041017Y-96418314D01*
X115041012Y-96418311D01*
X115038468Y-96416359D01*
X115035499Y-96415129D01*
X114902290Y-96359952D01*
X114902287Y-96359951D01*
X114899322Y-96358723D01*
X114896141Y-96358304D01*
X114896137Y-96358303D01*
X114789076Y-96344208D01*
X114789067Y-96344207D01*
X114787492Y-96344000D01*
X114712508Y-96344000D01*
X114710933Y-96344207D01*
X114710923Y-96344208D01*
X114603862Y-96358303D01*
X114603856Y-96358304D01*
X114600678Y-96358723D01*
X114597714Y-96359950D01*
X114597709Y-96359952D01*
X114464500Y-96415129D01*
X114464496Y-96415131D01*
X114461532Y-96416359D01*
X114458990Y-96418308D01*
X114458982Y-96418314D01*
X114344593Y-96506089D01*
X114344589Y-96506092D01*
X114342045Y-96508045D01*
X114340092Y-96510589D01*
X114340089Y-96510593D01*
X114252314Y-96624982D01*
X114252308Y-96624990D01*
X114250359Y-96627532D01*
X114249131Y-96630496D01*
X114249129Y-96630500D01*
X114193952Y-96763709D01*
X114193950Y-96763714D01*
X114192723Y-96766678D01*
X114192304Y-96769856D01*
X114192303Y-96769862D01*
X114176906Y-96886816D01*
X114173064Y-96916000D01*
X100120500Y-96916000D01*
X100120500Y-95900000D01*
X119253064Y-95900000D01*
X119253483Y-95903183D01*
X119272303Y-96046137D01*
X119272304Y-96046141D01*
X119272723Y-96049322D01*
X119273951Y-96052287D01*
X119273952Y-96052290D01*
X119321115Y-96166152D01*
X119330359Y-96188468D01*
X119332311Y-96191012D01*
X119332314Y-96191017D01*
X119416402Y-96300601D01*
X119422045Y-96307955D01*
X119445813Y-96326193D01*
X119538982Y-96397685D01*
X119538985Y-96397687D01*
X119541532Y-96399641D01*
X119680678Y-96457277D01*
X119792508Y-96472000D01*
X119865892Y-96472000D01*
X119867492Y-96472000D01*
X119979322Y-96457277D01*
X120118468Y-96399641D01*
X120237955Y-96307955D01*
X120329641Y-96188468D01*
X120358001Y-96120000D01*
X122954592Y-96120000D01*
X122955534Y-96124736D01*
X122973092Y-96213007D01*
X122973093Y-96213009D01*
X122974034Y-96217740D01*
X123029399Y-96300601D01*
X123112260Y-96355966D01*
X123210000Y-96375408D01*
X123307740Y-96355966D01*
X123390601Y-96300601D01*
X123445966Y-96217740D01*
X123465408Y-96120000D01*
X123445966Y-96022260D01*
X123390601Y-95939399D01*
X123351365Y-95913183D01*
X123311751Y-95886714D01*
X123311750Y-95886713D01*
X123307740Y-95884034D01*
X123303009Y-95883093D01*
X123303007Y-95883092D01*
X123214736Y-95865534D01*
X123210000Y-95864592D01*
X123205264Y-95865534D01*
X123116992Y-95883092D01*
X123116988Y-95883093D01*
X123112260Y-95884034D01*
X123108250Y-95886712D01*
X123108248Y-95886714D01*
X123033410Y-95936718D01*
X123033407Y-95936720D01*
X123029399Y-95939399D01*
X123026720Y-95943407D01*
X123026718Y-95943410D01*
X122976714Y-96018248D01*
X122976712Y-96018250D01*
X122974034Y-96022260D01*
X122973093Y-96026988D01*
X122973092Y-96026992D01*
X122961193Y-96086816D01*
X122954592Y-96120000D01*
X120358001Y-96120000D01*
X120387277Y-96049322D01*
X120406936Y-95900000D01*
X120387277Y-95750678D01*
X120329641Y-95611532D01*
X120327687Y-95608985D01*
X120327685Y-95608982D01*
X120239910Y-95494593D01*
X120237955Y-95492045D01*
X120191567Y-95456450D01*
X120121017Y-95402314D01*
X120121012Y-95402311D01*
X120118468Y-95400359D01*
X120091557Y-95389212D01*
X119982290Y-95343952D01*
X119982287Y-95343951D01*
X119979322Y-95342723D01*
X119976141Y-95342304D01*
X119976137Y-95342303D01*
X119869076Y-95328208D01*
X119869067Y-95328207D01*
X119867492Y-95328000D01*
X119792508Y-95328000D01*
X119790933Y-95328207D01*
X119790923Y-95328208D01*
X119683862Y-95342303D01*
X119683856Y-95342304D01*
X119680678Y-95342723D01*
X119677714Y-95343950D01*
X119677709Y-95343952D01*
X119544500Y-95399129D01*
X119544496Y-95399131D01*
X119541532Y-95400359D01*
X119538990Y-95402308D01*
X119538982Y-95402314D01*
X119424593Y-95490089D01*
X119424589Y-95490092D01*
X119422045Y-95492045D01*
X119420092Y-95494589D01*
X119420089Y-95494593D01*
X119332314Y-95608982D01*
X119332308Y-95608990D01*
X119330359Y-95611532D01*
X119329131Y-95614496D01*
X119329129Y-95614500D01*
X119273952Y-95747709D01*
X119273950Y-95747714D01*
X119272723Y-95750678D01*
X119272304Y-95753856D01*
X119272303Y-95753862D01*
X119255290Y-95883092D01*
X119253064Y-95900000D01*
X100120500Y-95900000D01*
X100120500Y-94884000D01*
X114173064Y-94884000D01*
X114173483Y-94887183D01*
X114192303Y-95030137D01*
X114192304Y-95030141D01*
X114192723Y-95033322D01*
X114193951Y-95036287D01*
X114193952Y-95036290D01*
X114247743Y-95166153D01*
X114250359Y-95172468D01*
X114252311Y-95175012D01*
X114252314Y-95175017D01*
X114340089Y-95289406D01*
X114342045Y-95291955D01*
X114344593Y-95293910D01*
X114458982Y-95381685D01*
X114458985Y-95381687D01*
X114461532Y-95383641D01*
X114600678Y-95441277D01*
X114712508Y-95456000D01*
X114785892Y-95456000D01*
X114787492Y-95456000D01*
X114899322Y-95441277D01*
X115038468Y-95383641D01*
X115157955Y-95291955D01*
X115249641Y-95172468D01*
X115307277Y-95033322D01*
X115318905Y-94945000D01*
X119944592Y-94945000D01*
X119945534Y-94949736D01*
X119963092Y-95038007D01*
X119963093Y-95038009D01*
X119964034Y-95042740D01*
X120019399Y-95125601D01*
X120102260Y-95180966D01*
X120200000Y-95200408D01*
X120297740Y-95180966D01*
X120380601Y-95125601D01*
X120435966Y-95042740D01*
X120455408Y-94945000D01*
X120435966Y-94847260D01*
X120380601Y-94764399D01*
X120297740Y-94709034D01*
X120293009Y-94708093D01*
X120293007Y-94708092D01*
X120204736Y-94690534D01*
X120200000Y-94689592D01*
X120195264Y-94690534D01*
X120106992Y-94708092D01*
X120106988Y-94708093D01*
X120102260Y-94709034D01*
X120098250Y-94711712D01*
X120098248Y-94711714D01*
X120023410Y-94761718D01*
X120023407Y-94761720D01*
X120019399Y-94764399D01*
X120016720Y-94768407D01*
X120016718Y-94768410D01*
X119966714Y-94843248D01*
X119966712Y-94843250D01*
X119964034Y-94847260D01*
X119963093Y-94851988D01*
X119963092Y-94851992D01*
X119952256Y-94906470D01*
X119944592Y-94945000D01*
X115318905Y-94945000D01*
X115326936Y-94884000D01*
X115307277Y-94734678D01*
X115249641Y-94595532D01*
X115247687Y-94592985D01*
X115247685Y-94592982D01*
X115159910Y-94478593D01*
X115157955Y-94476045D01*
X115124727Y-94450548D01*
X115041017Y-94386314D01*
X115041012Y-94386311D01*
X115038468Y-94384359D01*
X115035499Y-94383129D01*
X114902290Y-94327952D01*
X114902287Y-94327951D01*
X114899322Y-94326723D01*
X114896141Y-94326304D01*
X114896137Y-94326303D01*
X114789076Y-94312208D01*
X114789067Y-94312207D01*
X114787492Y-94312000D01*
X114712508Y-94312000D01*
X114710933Y-94312207D01*
X114710923Y-94312208D01*
X114603862Y-94326303D01*
X114603856Y-94326304D01*
X114600678Y-94326723D01*
X114597714Y-94327950D01*
X114597709Y-94327952D01*
X114464500Y-94383129D01*
X114464496Y-94383131D01*
X114461532Y-94384359D01*
X114458990Y-94386308D01*
X114458982Y-94386314D01*
X114344593Y-94474089D01*
X114344589Y-94474092D01*
X114342045Y-94476045D01*
X114340092Y-94478589D01*
X114340089Y-94478593D01*
X114252314Y-94592982D01*
X114252308Y-94592990D01*
X114250359Y-94595532D01*
X114249131Y-94598496D01*
X114249129Y-94598500D01*
X114193952Y-94731709D01*
X114193950Y-94731714D01*
X114192723Y-94734678D01*
X114192304Y-94737856D01*
X114192303Y-94737862D01*
X114177901Y-94847260D01*
X114173064Y-94884000D01*
X100120500Y-94884000D01*
X100120500Y-93416945D01*
X115387018Y-93416945D01*
X115387312Y-93419122D01*
X115387313Y-93419124D01*
X115417268Y-93640263D01*
X115417269Y-93640268D01*
X115417563Y-93642437D01*
X115418238Y-93644514D01*
X115418240Y-93644523D01*
X115468142Y-93798104D01*
X115487880Y-93858851D01*
X115488917Y-93860779D01*
X115488921Y-93860787D01*
X115594670Y-94057301D01*
X115594674Y-94057308D01*
X115595710Y-94059232D01*
X115597075Y-94060944D01*
X115597076Y-94060945D01*
X115699380Y-94189231D01*
X115737585Y-94237138D01*
X115908948Y-94386853D01*
X116104289Y-94503564D01*
X116317330Y-94583520D01*
X116541224Y-94624150D01*
X116710671Y-94624150D01*
X116711775Y-94624150D01*
X116881635Y-94608862D01*
X117100986Y-94548325D01*
X117306003Y-94449595D01*
X117490095Y-94315843D01*
X117647347Y-94151371D01*
X117772705Y-93961463D01*
X117862138Y-93752223D01*
X117912773Y-93530377D01*
X117917867Y-93416945D01*
X118562018Y-93416945D01*
X118562312Y-93419122D01*
X118562313Y-93419124D01*
X118592268Y-93640263D01*
X118592269Y-93640268D01*
X118592563Y-93642437D01*
X118593238Y-93644514D01*
X118593240Y-93644523D01*
X118643142Y-93798104D01*
X118662880Y-93858851D01*
X118663917Y-93860779D01*
X118663921Y-93860787D01*
X118769670Y-94057301D01*
X118769674Y-94057308D01*
X118770710Y-94059232D01*
X118772075Y-94060944D01*
X118772076Y-94060945D01*
X118874380Y-94189231D01*
X118912585Y-94237138D01*
X119083948Y-94386853D01*
X119279289Y-94503564D01*
X119492330Y-94583520D01*
X119716224Y-94624150D01*
X119885671Y-94624150D01*
X119886775Y-94624150D01*
X120056635Y-94608862D01*
X120275986Y-94548325D01*
X120481003Y-94449595D01*
X120665095Y-94315843D01*
X120822347Y-94151371D01*
X120947705Y-93961463D01*
X121037138Y-93752223D01*
X121087773Y-93530377D01*
X121097982Y-93303055D01*
X121067437Y-93077563D01*
X121061986Y-93060788D01*
X121045784Y-93010923D01*
X120997120Y-92861149D01*
X120994883Y-92856992D01*
X120890329Y-92662698D01*
X120890326Y-92662694D01*
X120889290Y-92660768D01*
X120747415Y-92482862D01*
X120722127Y-92460769D01*
X120597511Y-92351895D01*
X120576052Y-92333147D01*
X120445892Y-92255380D01*
X120382601Y-92217565D01*
X120382599Y-92217564D01*
X120380711Y-92216436D01*
X120354157Y-92206470D01*
X120169736Y-92137255D01*
X120169732Y-92137253D01*
X120167670Y-92136480D01*
X120165510Y-92136088D01*
X120165503Y-92136086D01*
X119945938Y-92096242D01*
X119945934Y-92096241D01*
X119943776Y-92095850D01*
X119773225Y-92095850D01*
X119772144Y-92095947D01*
X119772128Y-92095948D01*
X119605552Y-92110941D01*
X119605550Y-92110941D01*
X119603365Y-92111138D01*
X119601256Y-92111719D01*
X119601245Y-92111722D01*
X119386131Y-92171090D01*
X119386123Y-92171092D01*
X119384014Y-92171675D01*
X119382046Y-92172622D01*
X119382037Y-92172626D01*
X119180976Y-92269451D01*
X119180967Y-92269456D01*
X119178997Y-92270405D01*
X119177228Y-92271690D01*
X119177220Y-92271695D01*
X118996683Y-92402864D01*
X118996674Y-92402871D01*
X118994905Y-92404157D01*
X118993388Y-92405743D01*
X118993383Y-92405748D01*
X118839175Y-92567036D01*
X118839169Y-92567042D01*
X118837653Y-92568629D01*
X118836443Y-92570461D01*
X118836439Y-92570467D01*
X118713507Y-92756699D01*
X118713501Y-92756709D01*
X118712295Y-92758537D01*
X118711435Y-92760547D01*
X118711429Y-92760560D01*
X118623725Y-92965756D01*
X118623722Y-92965763D01*
X118622862Y-92967777D01*
X118622374Y-92969910D01*
X118622372Y-92969920D01*
X118572847Y-93186907D01*
X118572227Y-93189623D01*
X118572128Y-93191814D01*
X118572128Y-93191819D01*
X118562116Y-93414747D01*
X118562116Y-93414754D01*
X118562018Y-93416945D01*
X117917867Y-93416945D01*
X117922982Y-93303055D01*
X117892437Y-93077563D01*
X117886986Y-93060788D01*
X117870784Y-93010923D01*
X117822120Y-92861149D01*
X117819883Y-92856992D01*
X117715329Y-92662698D01*
X117715326Y-92662694D01*
X117714290Y-92660768D01*
X117572415Y-92482862D01*
X117547127Y-92460769D01*
X117422511Y-92351895D01*
X117401052Y-92333147D01*
X117270892Y-92255380D01*
X117207601Y-92217565D01*
X117207599Y-92217564D01*
X117205711Y-92216436D01*
X117179157Y-92206470D01*
X116994736Y-92137255D01*
X116994732Y-92137253D01*
X116992670Y-92136480D01*
X116990510Y-92136088D01*
X116990503Y-92136086D01*
X116770938Y-92096242D01*
X116770934Y-92096241D01*
X116768776Y-92095850D01*
X116598225Y-92095850D01*
X116597144Y-92095947D01*
X116597128Y-92095948D01*
X116430552Y-92110941D01*
X116430550Y-92110941D01*
X116428365Y-92111138D01*
X116426256Y-92111719D01*
X116426245Y-92111722D01*
X116211131Y-92171090D01*
X116211123Y-92171092D01*
X116209014Y-92171675D01*
X116207046Y-92172622D01*
X116207037Y-92172626D01*
X116005976Y-92269451D01*
X116005967Y-92269456D01*
X116003997Y-92270405D01*
X116002228Y-92271690D01*
X116002220Y-92271695D01*
X115821683Y-92402864D01*
X115821674Y-92402871D01*
X115819905Y-92404157D01*
X115818388Y-92405743D01*
X115818383Y-92405748D01*
X115664175Y-92567036D01*
X115664169Y-92567042D01*
X115662653Y-92568629D01*
X115661443Y-92570461D01*
X115661439Y-92570467D01*
X115538507Y-92756699D01*
X115538501Y-92756709D01*
X115537295Y-92758537D01*
X115536435Y-92760547D01*
X115536429Y-92760560D01*
X115448725Y-92965756D01*
X115448722Y-92965763D01*
X115447862Y-92967777D01*
X115447374Y-92969910D01*
X115447372Y-92969920D01*
X115397847Y-93186907D01*
X115397227Y-93189623D01*
X115397128Y-93191814D01*
X115397128Y-93191819D01*
X115387116Y-93414747D01*
X115387116Y-93414754D01*
X115387018Y-93416945D01*
X100120500Y-93416945D01*
X100120500Y-92000000D01*
X122944592Y-92000000D01*
X122945534Y-92004736D01*
X122963092Y-92093007D01*
X122963093Y-92093009D01*
X122964034Y-92097740D01*
X122966713Y-92101750D01*
X122966714Y-92101751D01*
X123009744Y-92166152D01*
X123019399Y-92180601D01*
X123102260Y-92235966D01*
X123200000Y-92255408D01*
X123297740Y-92235966D01*
X123380601Y-92180601D01*
X123435966Y-92097740D01*
X123452356Y-92015339D01*
X123454466Y-92004736D01*
X123455408Y-92000000D01*
X123435966Y-91902260D01*
X123380601Y-91819399D01*
X123375741Y-91816152D01*
X123301751Y-91766714D01*
X123301750Y-91766713D01*
X123297740Y-91764034D01*
X123293009Y-91763093D01*
X123293007Y-91763092D01*
X123204736Y-91745534D01*
X123200000Y-91744592D01*
X123195264Y-91745534D01*
X123106992Y-91763092D01*
X123106988Y-91763093D01*
X123102260Y-91764034D01*
X123098250Y-91766712D01*
X123098248Y-91766714D01*
X123023410Y-91816718D01*
X123023407Y-91816720D01*
X123019399Y-91819399D01*
X123016720Y-91823407D01*
X123016718Y-91823410D01*
X122966714Y-91898248D01*
X122966712Y-91898250D01*
X122964034Y-91902260D01*
X122963093Y-91906988D01*
X122963092Y-91906992D01*
X122951325Y-91966152D01*
X122944592Y-92000000D01*
X100120500Y-92000000D01*
X100120500Y-91150000D01*
X131974941Y-91150000D01*
X131993037Y-91252626D01*
X131995180Y-91256338D01*
X131996646Y-91260365D01*
X131995439Y-91260804D01*
X132000000Y-91277815D01*
X132000000Y-92381419D01*
X131999256Y-92389928D01*
X131985816Y-92466152D01*
X131979500Y-92501969D01*
X131979500Y-92564618D01*
X131979500Y-99467712D01*
X131979500Y-99500000D01*
X131979500Y-99638985D01*
X131979707Y-99640560D01*
X131979708Y-99640569D01*
X132015571Y-99912981D01*
X132015573Y-99912994D01*
X132015782Y-99914577D01*
X132016196Y-99916125D01*
X132016199Y-99916136D01*
X132087308Y-100181518D01*
X132087311Y-100181529D01*
X132087726Y-100183075D01*
X132194101Y-100439886D01*
X132194907Y-100441282D01*
X132194908Y-100441284D01*
X132312042Y-100644167D01*
X132333086Y-100680615D01*
X132334059Y-100681883D01*
X132334063Y-100681889D01*
X132446951Y-100829007D01*
X132502303Y-100901143D01*
X132698857Y-101097697D01*
X132919385Y-101266914D01*
X133160114Y-101405899D01*
X133416925Y-101512274D01*
X133685423Y-101584218D01*
X133961015Y-101620500D01*
X134064618Y-101620500D01*
X134100000Y-101620500D01*
X134132288Y-101620500D01*
X139967712Y-101620500D01*
X140017325Y-101620500D01*
X140095890Y-101620500D01*
X140098031Y-101620500D01*
X140099920Y-101620166D01*
X140103749Y-101620000D01*
X143916251Y-101620000D01*
X143920079Y-101620166D01*
X143921969Y-101620500D01*
X143984618Y-101620500D01*
X144020000Y-101620500D01*
X144052288Y-101620500D01*
X151067712Y-101620500D01*
X151117325Y-101620500D01*
X151237385Y-101620500D01*
X151238985Y-101620500D01*
X151514577Y-101584218D01*
X151783075Y-101512274D01*
X152039886Y-101405899D01*
X152280615Y-101266914D01*
X152501143Y-101097697D01*
X152697697Y-100901143D01*
X152866914Y-100680615D01*
X153005899Y-100439886D01*
X153112274Y-100183075D01*
X153184218Y-99914577D01*
X153220500Y-99638985D01*
X153220500Y-99500000D01*
X153220500Y-99467712D01*
X153220500Y-93102675D01*
X153220500Y-93021969D01*
X153200744Y-92909928D01*
X153200000Y-92901419D01*
X153200000Y-92021986D01*
X153200000Y-92020335D01*
X153200059Y-92020000D01*
X153200000Y-92019665D01*
X153200000Y-91400335D01*
X153200059Y-91400000D01*
X153200000Y-91399665D01*
X153200000Y-90518581D01*
X153200744Y-90510072D01*
X153203307Y-90495534D01*
X153220500Y-90398031D01*
X153220500Y-90300000D01*
X153220500Y-90267712D01*
X153220500Y-85652675D01*
X153220500Y-85531015D01*
X153184218Y-85255423D01*
X153112274Y-84986925D01*
X153005899Y-84730114D01*
X152866914Y-84489385D01*
X152697697Y-84268857D01*
X152501143Y-84072303D01*
X152462049Y-84042305D01*
X152281889Y-83904063D01*
X152281883Y-83904059D01*
X152280615Y-83903086D01*
X152279230Y-83902286D01*
X152279225Y-83902283D01*
X152041284Y-83764908D01*
X152041282Y-83764907D01*
X152039886Y-83764101D01*
X151783075Y-83657726D01*
X151781529Y-83657311D01*
X151781518Y-83657308D01*
X151516136Y-83586199D01*
X151516125Y-83586196D01*
X151514577Y-83585782D01*
X151512994Y-83585573D01*
X151512981Y-83585571D01*
X151240569Y-83549708D01*
X151240560Y-83549707D01*
X151238985Y-83549500D01*
X151237385Y-83549500D01*
X151135345Y-83549500D01*
X151135330Y-83549497D01*
X151135295Y-83549475D01*
X151135172Y-83549475D01*
X151100546Y-83549500D01*
X151100000Y-83549500D01*
X151067712Y-83549500D01*
X151067674Y-83549520D01*
X151067658Y-83549523D01*
X144167134Y-83554487D01*
X144157282Y-83553493D01*
X144142525Y-83550474D01*
X144136408Y-83552512D01*
X144136404Y-83552513D01*
X144114745Y-83559733D01*
X144113092Y-83560252D01*
X144086660Y-83568034D01*
X144086655Y-83568036D01*
X144082027Y-83569399D01*
X144080775Y-83570843D01*
X144079969Y-83571229D01*
X144059645Y-83577943D01*
X144026598Y-83577116D01*
X144001596Y-83555489D01*
X143996020Y-83522905D01*
X143999315Y-83504222D01*
X143999315Y-83504219D01*
X144000059Y-83500000D01*
X143981963Y-83397374D01*
X143929859Y-83307126D01*
X143926575Y-83304370D01*
X143926574Y-83304369D01*
X143853312Y-83242895D01*
X143850030Y-83240141D01*
X143846004Y-83238675D01*
X143846003Y-83238675D01*
X143793648Y-83219620D01*
X143752105Y-83204500D01*
X143647895Y-83204500D01*
X143643864Y-83205966D01*
X143643864Y-83205967D01*
X143553997Y-83238675D01*
X143553993Y-83238676D01*
X143549971Y-83240141D01*
X143546690Y-83242893D01*
X143546688Y-83242895D01*
X143473425Y-83304369D01*
X143473421Y-83304373D01*
X143470141Y-83307126D01*
X143467998Y-83310837D01*
X143467996Y-83310840D01*
X143420180Y-83393661D01*
X143420178Y-83393664D01*
X143418037Y-83397374D01*
X143399941Y-83500000D01*
X143400685Y-83504219D01*
X143400685Y-83504221D01*
X143403980Y-83522910D01*
X143398402Y-83555493D01*
X143373400Y-83577119D01*
X143340354Y-83577945D01*
X143308243Y-83567337D01*
X143297100Y-83562017D01*
X143291372Y-83558331D01*
X143291368Y-83558329D01*
X143285447Y-83554520D01*
X143278405Y-83554516D01*
X143278402Y-83554515D01*
X143277518Y-83554515D01*
X143266162Y-83552668D01*
X143263594Y-83552513D01*
X143257475Y-83550474D01*
X143251158Y-83551766D01*
X143251153Y-83551766D01*
X143242700Y-83553496D01*
X143232853Y-83554490D01*
X134132327Y-83549518D01*
X134132316Y-83549516D01*
X134132288Y-83549500D01*
X134132193Y-83549500D01*
X134099210Y-83549500D01*
X134082830Y-83549491D01*
X134082741Y-83549491D01*
X134082711Y-83549499D01*
X134082705Y-83549500D01*
X133961015Y-83549500D01*
X133959440Y-83549707D01*
X133959430Y-83549708D01*
X133687018Y-83585571D01*
X133687002Y-83585574D01*
X133685423Y-83585782D01*
X133683877Y-83586196D01*
X133683863Y-83586199D01*
X133418481Y-83657308D01*
X133418466Y-83657313D01*
X133416925Y-83657726D01*
X133415446Y-83658338D01*
X133415439Y-83658341D01*
X133161603Y-83763484D01*
X133161600Y-83763485D01*
X133160114Y-83764101D01*
X133158723Y-83764903D01*
X133158715Y-83764908D01*
X132920774Y-83902283D01*
X132920762Y-83902290D01*
X132919385Y-83903086D01*
X132918123Y-83904053D01*
X132918110Y-83904063D01*
X132700134Y-84071322D01*
X132700123Y-84071330D01*
X132698857Y-84072303D01*
X132697726Y-84073433D01*
X132697718Y-84073441D01*
X132503441Y-84267718D01*
X132503433Y-84267726D01*
X132502303Y-84268857D01*
X132501330Y-84270123D01*
X132501322Y-84270134D01*
X132334063Y-84488110D01*
X132334053Y-84488123D01*
X132333086Y-84489385D01*
X132332290Y-84490762D01*
X132332283Y-84490774D01*
X132194908Y-84728715D01*
X132194903Y-84728723D01*
X132194101Y-84730114D01*
X132193485Y-84731600D01*
X132193484Y-84731603D01*
X132088341Y-84985439D01*
X132088338Y-84985446D01*
X132087726Y-84986925D01*
X132087313Y-84988466D01*
X132087308Y-84988481D01*
X132016199Y-85253863D01*
X132016196Y-85253877D01*
X132015782Y-85255423D01*
X132015574Y-85257002D01*
X132015571Y-85257018D01*
X131979708Y-85529430D01*
X131979707Y-85529440D01*
X131979500Y-85531015D01*
X131979500Y-85634618D01*
X131979500Y-89617712D01*
X131979500Y-89650000D01*
X131979500Y-89748031D01*
X131979870Y-89750134D01*
X131979871Y-89750136D01*
X131999256Y-89860072D01*
X132000000Y-89868581D01*
X132000000Y-91022185D01*
X131995439Y-91039195D01*
X131996646Y-91039635D01*
X131995179Y-91043662D01*
X131993037Y-91047374D01*
X131974941Y-91150000D01*
X100120500Y-91150000D01*
X100120500Y-79700639D01*
X112293818Y-79700639D01*
X112296907Y-79705102D01*
X112387790Y-79779688D01*
X112391777Y-79782352D01*
X112552571Y-79868299D01*
X112556993Y-79870131D01*
X112731466Y-79923057D01*
X112736159Y-79923990D01*
X112917604Y-79941861D01*
X112922396Y-79941861D01*
X113103840Y-79923990D01*
X113108533Y-79923057D01*
X113283006Y-79870131D01*
X113287428Y-79868299D01*
X113448226Y-79782350D01*
X113452204Y-79779692D01*
X113543094Y-79705099D01*
X113546180Y-79700640D01*
X113546179Y-79700639D01*
X114833818Y-79700639D01*
X114836907Y-79705102D01*
X114927790Y-79779688D01*
X114931777Y-79782352D01*
X115092571Y-79868299D01*
X115096993Y-79870131D01*
X115271466Y-79923057D01*
X115276159Y-79923990D01*
X115457604Y-79941861D01*
X115462396Y-79941861D01*
X115643840Y-79923990D01*
X115648533Y-79923057D01*
X115823006Y-79870131D01*
X115827428Y-79868299D01*
X115988226Y-79782350D01*
X115992204Y-79779692D01*
X116083094Y-79705099D01*
X116086180Y-79700640D01*
X116083545Y-79695898D01*
X115466892Y-79079245D01*
X115460000Y-79076390D01*
X115453107Y-79079245D01*
X114836453Y-79695898D01*
X114833818Y-79700639D01*
X113546179Y-79700639D01*
X113543545Y-79695898D01*
X112926892Y-79079245D01*
X112920000Y-79076390D01*
X112913107Y-79079245D01*
X112296453Y-79695898D01*
X112293818Y-79700639D01*
X100120500Y-79700639D01*
X100120500Y-78989896D01*
X111965639Y-78989896D01*
X111983509Y-79171340D01*
X111984442Y-79176033D01*
X112037368Y-79350506D01*
X112039200Y-79354928D01*
X112125147Y-79515722D01*
X112127811Y-79519709D01*
X112202396Y-79610591D01*
X112206859Y-79613680D01*
X112211600Y-79611045D01*
X112830585Y-78992061D01*
X112833218Y-78987500D01*
X112833217Y-78987499D01*
X113008890Y-78987499D01*
X113011745Y-78994392D01*
X113628398Y-79611045D01*
X113633140Y-79613680D01*
X113637599Y-79610594D01*
X113712192Y-79519704D01*
X113714850Y-79515726D01*
X113800799Y-79354928D01*
X113802631Y-79350506D01*
X113855557Y-79176033D01*
X113856490Y-79171340D01*
X113874361Y-78989896D01*
X114505639Y-78989896D01*
X114523509Y-79171340D01*
X114524442Y-79176033D01*
X114577368Y-79350506D01*
X114579200Y-79354928D01*
X114665147Y-79515722D01*
X114667811Y-79519709D01*
X114742396Y-79610591D01*
X114746859Y-79613680D01*
X114751600Y-79611045D01*
X115370585Y-78992061D01*
X115373218Y-78987500D01*
X115373217Y-78987499D01*
X115548890Y-78987499D01*
X115551745Y-78994392D01*
X116168398Y-79611045D01*
X116173140Y-79613680D01*
X116177599Y-79610594D01*
X116252192Y-79519704D01*
X116254850Y-79515726D01*
X116340799Y-79354928D01*
X116342631Y-79350506D01*
X116395557Y-79176033D01*
X116396490Y-79171340D01*
X116414361Y-78989896D01*
X116414361Y-78987500D01*
X117044901Y-78987500D01*
X117045137Y-78989896D01*
X117063007Y-79171340D01*
X117063253Y-79173831D01*
X117063948Y-79176124D01*
X117063950Y-79176131D01*
X117116847Y-79350506D01*
X117117604Y-79353001D01*
X117118742Y-79355130D01*
X117204579Y-79515722D01*
X117205864Y-79518125D01*
X117324643Y-79662857D01*
X117469375Y-79781636D01*
X117634499Y-79869896D01*
X117813669Y-79924247D01*
X118000000Y-79942599D01*
X118186331Y-79924247D01*
X118365501Y-79869896D01*
X118530625Y-79781636D01*
X118675357Y-79662857D01*
X118794136Y-79518125D01*
X118882396Y-79353001D01*
X118936747Y-79173831D01*
X118955099Y-78987500D01*
X119584901Y-78987500D01*
X119585137Y-78989896D01*
X119603007Y-79171340D01*
X119603253Y-79173831D01*
X119603948Y-79176124D01*
X119603950Y-79176131D01*
X119656847Y-79350506D01*
X119657604Y-79353001D01*
X119658742Y-79355130D01*
X119744579Y-79515722D01*
X119745864Y-79518125D01*
X119864643Y-79662857D01*
X120009375Y-79781636D01*
X120174499Y-79869896D01*
X120353669Y-79924247D01*
X120540000Y-79942599D01*
X120726331Y-79924247D01*
X120905501Y-79869896D01*
X121070625Y-79781636D01*
X121215357Y-79662857D01*
X121334136Y-79518125D01*
X121422396Y-79353001D01*
X121476747Y-79173831D01*
X121495099Y-78987500D01*
X122124901Y-78987500D01*
X122125137Y-78989896D01*
X122143007Y-79171340D01*
X122143253Y-79173831D01*
X122143948Y-79176124D01*
X122143950Y-79176131D01*
X122196847Y-79350506D01*
X122197604Y-79353001D01*
X122198742Y-79355130D01*
X122284579Y-79515722D01*
X122285864Y-79518125D01*
X122404643Y-79662857D01*
X122549375Y-79781636D01*
X122714499Y-79869896D01*
X122893669Y-79924247D01*
X123080000Y-79942599D01*
X123266331Y-79924247D01*
X123445501Y-79869896D01*
X123610625Y-79781636D01*
X123755357Y-79662857D01*
X123874136Y-79518125D01*
X123962396Y-79353001D01*
X124016747Y-79173831D01*
X124035099Y-78987500D01*
X124016747Y-78801169D01*
X123962396Y-78621999D01*
X123874136Y-78456875D01*
X123755357Y-78312143D01*
X123703879Y-78269896D01*
X123612487Y-78194892D01*
X123612486Y-78194891D01*
X123610625Y-78193364D01*
X123445501Y-78105104D01*
X123443193Y-78104403D01*
X123443191Y-78104403D01*
X123268631Y-78051450D01*
X123268624Y-78051448D01*
X123266331Y-78050753D01*
X123263941Y-78050517D01*
X123263938Y-78050517D01*
X123082396Y-78032637D01*
X123080000Y-78032401D01*
X123077604Y-78032637D01*
X122896061Y-78050517D01*
X122896056Y-78050517D01*
X122893669Y-78050753D01*
X122891377Y-78051448D01*
X122891368Y-78051450D01*
X122716808Y-78104403D01*
X122716802Y-78104405D01*
X122714499Y-78105104D01*
X122712373Y-78106240D01*
X122712369Y-78106242D01*
X122551499Y-78192228D01*
X122551493Y-78192231D01*
X122549375Y-78193364D01*
X122547518Y-78194887D01*
X122547512Y-78194892D01*
X122406505Y-78310614D01*
X122406500Y-78310618D01*
X122404643Y-78312143D01*
X122403118Y-78314000D01*
X122403114Y-78314005D01*
X122287392Y-78455012D01*
X122287387Y-78455018D01*
X122285864Y-78456875D01*
X122284731Y-78458993D01*
X122284728Y-78458999D01*
X122198742Y-78619869D01*
X122198740Y-78619873D01*
X122197604Y-78621999D01*
X122196905Y-78624302D01*
X122196903Y-78624308D01*
X122143950Y-78798868D01*
X122143948Y-78798877D01*
X122143253Y-78801169D01*
X122143017Y-78803556D01*
X122143017Y-78803561D01*
X122133448Y-78900718D01*
X122124901Y-78987500D01*
X121495099Y-78987500D01*
X121476747Y-78801169D01*
X121422396Y-78621999D01*
X121334136Y-78456875D01*
X121215357Y-78312143D01*
X121163879Y-78269896D01*
X121072487Y-78194892D01*
X121072486Y-78194891D01*
X121070625Y-78193364D01*
X120905501Y-78105104D01*
X120903193Y-78104403D01*
X120903191Y-78104403D01*
X120728631Y-78051450D01*
X120728624Y-78051448D01*
X120726331Y-78050753D01*
X120723941Y-78050517D01*
X120723938Y-78050517D01*
X120542396Y-78032637D01*
X120540000Y-78032401D01*
X120537604Y-78032637D01*
X120356061Y-78050517D01*
X120356056Y-78050517D01*
X120353669Y-78050753D01*
X120351377Y-78051448D01*
X120351368Y-78051450D01*
X120176808Y-78104403D01*
X120176802Y-78104405D01*
X120174499Y-78105104D01*
X120172373Y-78106240D01*
X120172369Y-78106242D01*
X120011499Y-78192228D01*
X120011493Y-78192231D01*
X120009375Y-78193364D01*
X120007518Y-78194887D01*
X120007512Y-78194892D01*
X119866505Y-78310614D01*
X119866500Y-78310618D01*
X119864643Y-78312143D01*
X119863118Y-78314000D01*
X119863114Y-78314005D01*
X119747392Y-78455012D01*
X119747387Y-78455018D01*
X119745864Y-78456875D01*
X119744731Y-78458993D01*
X119744728Y-78458999D01*
X119658742Y-78619869D01*
X119658740Y-78619873D01*
X119657604Y-78621999D01*
X119656905Y-78624302D01*
X119656903Y-78624308D01*
X119603950Y-78798868D01*
X119603948Y-78798877D01*
X119603253Y-78801169D01*
X119603017Y-78803556D01*
X119603017Y-78803561D01*
X119593448Y-78900718D01*
X119584901Y-78987500D01*
X118955099Y-78987500D01*
X118936747Y-78801169D01*
X118882396Y-78621999D01*
X118794136Y-78456875D01*
X118675357Y-78312143D01*
X118623879Y-78269896D01*
X118532487Y-78194892D01*
X118532486Y-78194891D01*
X118530625Y-78193364D01*
X118365501Y-78105104D01*
X118363193Y-78104403D01*
X118363191Y-78104403D01*
X118188631Y-78051450D01*
X118188624Y-78051448D01*
X118186331Y-78050753D01*
X118183941Y-78050517D01*
X118183938Y-78050517D01*
X118002396Y-78032637D01*
X118000000Y-78032401D01*
X117997604Y-78032637D01*
X117816061Y-78050517D01*
X117816056Y-78050517D01*
X117813669Y-78050753D01*
X117811377Y-78051448D01*
X117811368Y-78051450D01*
X117636808Y-78104403D01*
X117636802Y-78104405D01*
X117634499Y-78105104D01*
X117632373Y-78106240D01*
X117632369Y-78106242D01*
X117471499Y-78192228D01*
X117471493Y-78192231D01*
X117469375Y-78193364D01*
X117467518Y-78194887D01*
X117467512Y-78194892D01*
X117326505Y-78310614D01*
X117326500Y-78310618D01*
X117324643Y-78312143D01*
X117323118Y-78314000D01*
X117323114Y-78314005D01*
X117207392Y-78455012D01*
X117207387Y-78455018D01*
X117205864Y-78456875D01*
X117204731Y-78458993D01*
X117204728Y-78458999D01*
X117118742Y-78619869D01*
X117118740Y-78619873D01*
X117117604Y-78621999D01*
X117116905Y-78624302D01*
X117116903Y-78624308D01*
X117063950Y-78798868D01*
X117063948Y-78798877D01*
X117063253Y-78801169D01*
X117063017Y-78803556D01*
X117063017Y-78803561D01*
X117053448Y-78900718D01*
X117044901Y-78987500D01*
X116414361Y-78987500D01*
X116414361Y-78985104D01*
X116396490Y-78803659D01*
X116395557Y-78798966D01*
X116342631Y-78624493D01*
X116340799Y-78620071D01*
X116254852Y-78459277D01*
X116252188Y-78455290D01*
X116177602Y-78364407D01*
X116173139Y-78361318D01*
X116168398Y-78363953D01*
X115551745Y-78980607D01*
X115548890Y-78987499D01*
X115373217Y-78987499D01*
X115370585Y-78982938D01*
X114751600Y-78363953D01*
X114746859Y-78361318D01*
X114742397Y-78364406D01*
X114667807Y-78455294D01*
X114665148Y-78459275D01*
X114579200Y-78620071D01*
X114577368Y-78624493D01*
X114524442Y-78798966D01*
X114523509Y-78803659D01*
X114505639Y-78985104D01*
X114505639Y-78989896D01*
X113874361Y-78989896D01*
X113874361Y-78985104D01*
X113856490Y-78803659D01*
X113855557Y-78798966D01*
X113802631Y-78624493D01*
X113800799Y-78620071D01*
X113714852Y-78459277D01*
X113712188Y-78455290D01*
X113637602Y-78364407D01*
X113633139Y-78361318D01*
X113628398Y-78363953D01*
X113011745Y-78980607D01*
X113008890Y-78987499D01*
X112833217Y-78987499D01*
X112830585Y-78982938D01*
X112211600Y-78363953D01*
X112206859Y-78361318D01*
X112202397Y-78364406D01*
X112127807Y-78455294D01*
X112125148Y-78459275D01*
X112039200Y-78620071D01*
X112037368Y-78624493D01*
X111984442Y-78798966D01*
X111983509Y-78803659D01*
X111965639Y-78985104D01*
X111965639Y-78989896D01*
X100120500Y-78989896D01*
X100120500Y-78274359D01*
X112293818Y-78274359D01*
X112296453Y-78279100D01*
X112915438Y-78898085D01*
X112920000Y-78900718D01*
X112924561Y-78898085D01*
X113543545Y-78279100D01*
X113546180Y-78274359D01*
X114833818Y-78274359D01*
X114836453Y-78279100D01*
X115455438Y-78898085D01*
X115460000Y-78900718D01*
X115464561Y-78898085D01*
X116083545Y-78279100D01*
X116086180Y-78274359D01*
X116083091Y-78269896D01*
X115992209Y-78195311D01*
X115988222Y-78192647D01*
X115827428Y-78106700D01*
X115823006Y-78104868D01*
X115648533Y-78051942D01*
X115643840Y-78051009D01*
X115462396Y-78033139D01*
X115457604Y-78033139D01*
X115276159Y-78051009D01*
X115271466Y-78051942D01*
X115096993Y-78104868D01*
X115092571Y-78106700D01*
X114931775Y-78192648D01*
X114927794Y-78195307D01*
X114836906Y-78269897D01*
X114833818Y-78274359D01*
X113546180Y-78274359D01*
X113543091Y-78269896D01*
X113452209Y-78195311D01*
X113448222Y-78192647D01*
X113287428Y-78106700D01*
X113283006Y-78104868D01*
X113108533Y-78051942D01*
X113103840Y-78051009D01*
X112922396Y-78033139D01*
X112917604Y-78033139D01*
X112736159Y-78051009D01*
X112731466Y-78051942D01*
X112556993Y-78104868D01*
X112552571Y-78106700D01*
X112391775Y-78192648D01*
X112387794Y-78195307D01*
X112296906Y-78269897D01*
X112293818Y-78274359D01*
X100120500Y-78274359D01*
X100120500Y-77160639D01*
X112293818Y-77160639D01*
X112296907Y-77165102D01*
X112387790Y-77239688D01*
X112391777Y-77242352D01*
X112552571Y-77328299D01*
X112556993Y-77330131D01*
X112731466Y-77383057D01*
X112736159Y-77383990D01*
X112917604Y-77401861D01*
X112922396Y-77401861D01*
X113103840Y-77383990D01*
X113108533Y-77383057D01*
X113283006Y-77330131D01*
X113287428Y-77328299D01*
X113448226Y-77242350D01*
X113452204Y-77239692D01*
X113543094Y-77165099D01*
X113546180Y-77160640D01*
X113546179Y-77160639D01*
X114833818Y-77160639D01*
X114836907Y-77165102D01*
X114927790Y-77239688D01*
X114931777Y-77242352D01*
X115092571Y-77328299D01*
X115096993Y-77330131D01*
X115271466Y-77383057D01*
X115276159Y-77383990D01*
X115457604Y-77401861D01*
X115462396Y-77401861D01*
X115643840Y-77383990D01*
X115648533Y-77383057D01*
X115823006Y-77330131D01*
X115827428Y-77328299D01*
X115988226Y-77242350D01*
X115992204Y-77239692D01*
X116083094Y-77165099D01*
X116086180Y-77160640D01*
X116083545Y-77155898D01*
X115466892Y-76539245D01*
X115460000Y-76536390D01*
X115453107Y-76539245D01*
X114836453Y-77155898D01*
X114833818Y-77160639D01*
X113546179Y-77160639D01*
X113543545Y-77155898D01*
X112926892Y-76539245D01*
X112920000Y-76536390D01*
X112913107Y-76539245D01*
X112296453Y-77155898D01*
X112293818Y-77160639D01*
X100120500Y-77160639D01*
X100120500Y-76449896D01*
X111965639Y-76449896D01*
X111983509Y-76631340D01*
X111984442Y-76636033D01*
X112037368Y-76810506D01*
X112039200Y-76814928D01*
X112125147Y-76975722D01*
X112127811Y-76979709D01*
X112202396Y-77070591D01*
X112206859Y-77073680D01*
X112211600Y-77071045D01*
X112830585Y-76452061D01*
X112833218Y-76447500D01*
X112833217Y-76447499D01*
X113008890Y-76447499D01*
X113011745Y-76454392D01*
X113628398Y-77071045D01*
X113633140Y-77073680D01*
X113637599Y-77070594D01*
X113712192Y-76979704D01*
X113714850Y-76975726D01*
X113800799Y-76814928D01*
X113802631Y-76810506D01*
X113855557Y-76636033D01*
X113856490Y-76631340D01*
X113874361Y-76449896D01*
X114505639Y-76449896D01*
X114523509Y-76631340D01*
X114524442Y-76636033D01*
X114577368Y-76810506D01*
X114579200Y-76814928D01*
X114665147Y-76975722D01*
X114667811Y-76979709D01*
X114742396Y-77070591D01*
X114746859Y-77073680D01*
X114751600Y-77071045D01*
X115370585Y-76452061D01*
X115373218Y-76447500D01*
X115373217Y-76447499D01*
X115548890Y-76447499D01*
X115551745Y-76454392D01*
X116168398Y-77071045D01*
X116173140Y-77073680D01*
X116177599Y-77070594D01*
X116252192Y-76979704D01*
X116254850Y-76975726D01*
X116340799Y-76814928D01*
X116342631Y-76810506D01*
X116395557Y-76636033D01*
X116396490Y-76631340D01*
X116414361Y-76449896D01*
X116414361Y-76447500D01*
X117044901Y-76447500D01*
X117045137Y-76449896D01*
X117063007Y-76631340D01*
X117063253Y-76633831D01*
X117063948Y-76636124D01*
X117063950Y-76636131D01*
X117116847Y-76810506D01*
X117117604Y-76813001D01*
X117118742Y-76815130D01*
X117204579Y-76975722D01*
X117205864Y-76978125D01*
X117324643Y-77122857D01*
X117469375Y-77241636D01*
X117634499Y-77329896D01*
X117813669Y-77384247D01*
X118000000Y-77402599D01*
X118186331Y-77384247D01*
X118365501Y-77329896D01*
X118530625Y-77241636D01*
X118675357Y-77122857D01*
X118794136Y-76978125D01*
X118882396Y-76813001D01*
X118936747Y-76633831D01*
X118955099Y-76447500D01*
X119584901Y-76447500D01*
X119585137Y-76449896D01*
X119603007Y-76631340D01*
X119603253Y-76633831D01*
X119603948Y-76636124D01*
X119603950Y-76636131D01*
X119656847Y-76810506D01*
X119657604Y-76813001D01*
X119658742Y-76815130D01*
X119744579Y-76975722D01*
X119745864Y-76978125D01*
X119864643Y-77122857D01*
X120009375Y-77241636D01*
X120174499Y-77329896D01*
X120353669Y-77384247D01*
X120540000Y-77402599D01*
X120726331Y-77384247D01*
X120905501Y-77329896D01*
X121070625Y-77241636D01*
X121215357Y-77122857D01*
X121249905Y-77080760D01*
X122129500Y-77080760D01*
X122129756Y-77082517D01*
X122135633Y-77122857D01*
X122139427Y-77148893D01*
X122141097Y-77152309D01*
X122141098Y-77152312D01*
X122147351Y-77165102D01*
X122190802Y-77253983D01*
X122273517Y-77336698D01*
X122378607Y-77388073D01*
X122446740Y-77398000D01*
X123711484Y-77398000D01*
X123713260Y-77398000D01*
X123781393Y-77388073D01*
X123886483Y-77336698D01*
X123969198Y-77253983D01*
X124020573Y-77148893D01*
X124030500Y-77080760D01*
X124030500Y-75814240D01*
X124020573Y-75746107D01*
X123969198Y-75641017D01*
X123886483Y-75558302D01*
X123838228Y-75534712D01*
X123784812Y-75508598D01*
X123784809Y-75508597D01*
X123781393Y-75506927D01*
X123777628Y-75506378D01*
X123777627Y-75506378D01*
X123715017Y-75497256D01*
X123713260Y-75497000D01*
X122446740Y-75497000D01*
X122444983Y-75497255D01*
X122444982Y-75497256D01*
X122382372Y-75506378D01*
X122382369Y-75506378D01*
X122378607Y-75506927D01*
X122375192Y-75508596D01*
X122375187Y-75508598D01*
X122277166Y-75556518D01*
X122273517Y-75558302D01*
X122270646Y-75561172D01*
X122270643Y-75561175D01*
X122193675Y-75638143D01*
X122193672Y-75638146D01*
X122190802Y-75641017D01*
X122189018Y-75644665D01*
X122189018Y-75644666D01*
X122141098Y-75742687D01*
X122141096Y-75742692D01*
X122139427Y-75746107D01*
X122138878Y-75749869D01*
X122138878Y-75749872D01*
X122135362Y-75774005D01*
X122129500Y-75814240D01*
X122129500Y-77080760D01*
X121249905Y-77080760D01*
X121334136Y-76978125D01*
X121422396Y-76813001D01*
X121476747Y-76633831D01*
X121495099Y-76447500D01*
X121476747Y-76261169D01*
X121422396Y-76081999D01*
X121334136Y-75916875D01*
X121215357Y-75772143D01*
X121163879Y-75729896D01*
X121072487Y-75654892D01*
X121072486Y-75654891D01*
X121070625Y-75653364D01*
X121042148Y-75638143D01*
X120907630Y-75566242D01*
X120905501Y-75565104D01*
X120903193Y-75564403D01*
X120903191Y-75564403D01*
X120728631Y-75511450D01*
X120728624Y-75511448D01*
X120726331Y-75510753D01*
X120723941Y-75510517D01*
X120723938Y-75510517D01*
X120542396Y-75492637D01*
X120540000Y-75492401D01*
X120537604Y-75492637D01*
X120356061Y-75510517D01*
X120356056Y-75510517D01*
X120353669Y-75510753D01*
X120351377Y-75511448D01*
X120351368Y-75511450D01*
X120176808Y-75564403D01*
X120176802Y-75564405D01*
X120174499Y-75565104D01*
X120172373Y-75566240D01*
X120172369Y-75566242D01*
X120011499Y-75652228D01*
X120011493Y-75652231D01*
X120009375Y-75653364D01*
X120007518Y-75654887D01*
X120007512Y-75654892D01*
X119866505Y-75770614D01*
X119866500Y-75770618D01*
X119864643Y-75772143D01*
X119863118Y-75774000D01*
X119863114Y-75774005D01*
X119747392Y-75915012D01*
X119747387Y-75915018D01*
X119745864Y-75916875D01*
X119744731Y-75918993D01*
X119744728Y-75918999D01*
X119658742Y-76079869D01*
X119658740Y-76079873D01*
X119657604Y-76081999D01*
X119656905Y-76084302D01*
X119656903Y-76084308D01*
X119603950Y-76258868D01*
X119603948Y-76258877D01*
X119603253Y-76261169D01*
X119603017Y-76263556D01*
X119603017Y-76263561D01*
X119593448Y-76360718D01*
X119584901Y-76447500D01*
X118955099Y-76447500D01*
X118936747Y-76261169D01*
X118882396Y-76081999D01*
X118794136Y-75916875D01*
X118675357Y-75772143D01*
X118623879Y-75729896D01*
X118532487Y-75654892D01*
X118532486Y-75654891D01*
X118530625Y-75653364D01*
X118502148Y-75638143D01*
X118367630Y-75566242D01*
X118365501Y-75565104D01*
X118363193Y-75564403D01*
X118363191Y-75564403D01*
X118188631Y-75511450D01*
X118188624Y-75511448D01*
X118186331Y-75510753D01*
X118183941Y-75510517D01*
X118183938Y-75510517D01*
X118002396Y-75492637D01*
X118000000Y-75492401D01*
X117997604Y-75492637D01*
X117816061Y-75510517D01*
X117816056Y-75510517D01*
X117813669Y-75510753D01*
X117811377Y-75511448D01*
X117811368Y-75511450D01*
X117636808Y-75564403D01*
X117636802Y-75564405D01*
X117634499Y-75565104D01*
X117632373Y-75566240D01*
X117632369Y-75566242D01*
X117471499Y-75652228D01*
X117471493Y-75652231D01*
X117469375Y-75653364D01*
X117467518Y-75654887D01*
X117467512Y-75654892D01*
X117326505Y-75770614D01*
X117326500Y-75770618D01*
X117324643Y-75772143D01*
X117323118Y-75774000D01*
X117323114Y-75774005D01*
X117207392Y-75915012D01*
X117207387Y-75915018D01*
X117205864Y-75916875D01*
X117204731Y-75918993D01*
X117204728Y-75918999D01*
X117118742Y-76079869D01*
X117118740Y-76079873D01*
X117117604Y-76081999D01*
X117116905Y-76084302D01*
X117116903Y-76084308D01*
X117063950Y-76258868D01*
X117063948Y-76258877D01*
X117063253Y-76261169D01*
X117063017Y-76263556D01*
X117063017Y-76263561D01*
X117053448Y-76360718D01*
X117044901Y-76447500D01*
X116414361Y-76447500D01*
X116414361Y-76445104D01*
X116396490Y-76263659D01*
X116395557Y-76258966D01*
X116342631Y-76084493D01*
X116340799Y-76080071D01*
X116254852Y-75919277D01*
X116252188Y-75915290D01*
X116177602Y-75824407D01*
X116173139Y-75821318D01*
X116168398Y-75823953D01*
X115551745Y-76440607D01*
X115548890Y-76447499D01*
X115373217Y-76447499D01*
X115370585Y-76442938D01*
X114751600Y-75823953D01*
X114746859Y-75821318D01*
X114742397Y-75824406D01*
X114667807Y-75915294D01*
X114665148Y-75919275D01*
X114579200Y-76080071D01*
X114577368Y-76084493D01*
X114524442Y-76258966D01*
X114523509Y-76263659D01*
X114505639Y-76445104D01*
X114505639Y-76449896D01*
X113874361Y-76449896D01*
X113874361Y-76445104D01*
X113856490Y-76263659D01*
X113855557Y-76258966D01*
X113802631Y-76084493D01*
X113800799Y-76080071D01*
X113714852Y-75919277D01*
X113712188Y-75915290D01*
X113637602Y-75824407D01*
X113633139Y-75821318D01*
X113628398Y-75823953D01*
X113011745Y-76440607D01*
X113008890Y-76447499D01*
X112833217Y-76447499D01*
X112830585Y-76442938D01*
X112211600Y-75823953D01*
X112206859Y-75821318D01*
X112202397Y-75824406D01*
X112127807Y-75915294D01*
X112125148Y-75919275D01*
X112039200Y-76080071D01*
X112037368Y-76084493D01*
X111984442Y-76258966D01*
X111983509Y-76263659D01*
X111965639Y-76445104D01*
X111965639Y-76449896D01*
X100120500Y-76449896D01*
X100120500Y-75734359D01*
X112293818Y-75734359D01*
X112296453Y-75739100D01*
X112915438Y-76358085D01*
X112920000Y-76360718D01*
X112924561Y-76358085D01*
X113543545Y-75739100D01*
X113546180Y-75734359D01*
X114833818Y-75734359D01*
X114836453Y-75739100D01*
X115455438Y-76358085D01*
X115460000Y-76360718D01*
X115464561Y-76358085D01*
X116083545Y-75739100D01*
X116086180Y-75734359D01*
X116083091Y-75729896D01*
X115992209Y-75655311D01*
X115988222Y-75652647D01*
X115827428Y-75566700D01*
X115823006Y-75564868D01*
X115648533Y-75511942D01*
X115643840Y-75511009D01*
X115462396Y-75493139D01*
X115457604Y-75493139D01*
X115276159Y-75511009D01*
X115271466Y-75511942D01*
X115096993Y-75564868D01*
X115092571Y-75566700D01*
X114931775Y-75652648D01*
X114927794Y-75655307D01*
X114836906Y-75729897D01*
X114833818Y-75734359D01*
X113546180Y-75734359D01*
X113543091Y-75729896D01*
X113452209Y-75655311D01*
X113448222Y-75652647D01*
X113287428Y-75566700D01*
X113283006Y-75564868D01*
X113108533Y-75511942D01*
X113103840Y-75511009D01*
X112922396Y-75493139D01*
X112917604Y-75493139D01*
X112736159Y-75511009D01*
X112731466Y-75511942D01*
X112556993Y-75564868D01*
X112552571Y-75566700D01*
X112391775Y-75652648D01*
X112387794Y-75655307D01*
X112296906Y-75729897D01*
X112293818Y-75734359D01*
X100120500Y-75734359D01*
X100120500Y-65169500D01*
X100134852Y-65134852D01*
X100169500Y-65120500D01*
X159830500Y-65120500D01*
X159865148Y-65134852D01*
G37*
%TD.AperFunction*%
%TD*%
M02*
