%TF.GenerationSoftware,KiCad,Pcbnew,7.0.6*%
%TF.CreationDate,2023-09-10T10:14:11-04:00*%
%TF.ProjectId,headstage-neuropix1e,68656164-7374-4616-9765-2d6e6575726f,B*%
%TF.SameCoordinates,Original*%
%TF.FileFunction,Copper,L2,Inr*%
%TF.FilePolarity,Positive*%
%FSLAX46Y46*%
G04 Gerber Fmt 4.6, Leading zero omitted, Abs format (unit mm)*
G04 Created by KiCad (PCBNEW 7.0.6) date 2023-09-10 10:14:11*
%MOMM*%
%LPD*%
G01*
G04 APERTURE LIST*
G04 Aperture macros list*
%AMRoundRect*
0 Rectangle with rounded corners*
0 $1 Rounding radius*
0 $2 $3 $4 $5 $6 $7 $8 $9 X,Y pos of 4 corners*
0 Add a 4 corners polygon primitive as box body*
4,1,4,$2,$3,$4,$5,$6,$7,$8,$9,$2,$3,0*
0 Add four circle primitives for the rounded corners*
1,1,$1+$1,$2,$3*
1,1,$1+$1,$4,$5*
1,1,$1+$1,$6,$7*
1,1,$1+$1,$8,$9*
0 Add four rect primitives between the rounded corners*
20,1,$1+$1,$2,$3,$4,$5,0*
20,1,$1+$1,$4,$5,$6,$7,0*
20,1,$1+$1,$6,$7,$8,$9,0*
20,1,$1+$1,$8,$9,$2,$3,0*%
G04 Aperture macros list end*
%TA.AperFunction,ComponentPad*%
%ADD10C,2.500000*%
%TD*%
%TA.AperFunction,ComponentPad*%
%ADD11RoundRect,0.250000X-0.600000X0.600000X-0.600000X-0.600000X0.600000X-0.600000X0.600000X0.600000X0*%
%TD*%
%TA.AperFunction,ComponentPad*%
%ADD12C,1.700000*%
%TD*%
%TA.AperFunction,ViaPad*%
%ADD13C,0.300000*%
%TD*%
%TA.AperFunction,ViaPad*%
%ADD14C,0.250000*%
%TD*%
G04 APERTURE END LIST*
D10*
%TO.N,GND*%
%TO.C,TP1*%
X136600000Y-88500000D03*
%TD*%
D11*
%TO.N,+4V*%
%TO.C,J3*%
X123080000Y-76447500D03*
D12*
X123080000Y-78987500D03*
%TO.N,/Neuropixels 1.0/SCL*%
X120540000Y-76447500D03*
X120540000Y-78987500D03*
%TO.N,/Neuropixels 1.0/SDA*%
X118000000Y-76447500D03*
X118000000Y-78987500D03*
%TO.N,GND*%
X115460000Y-76447500D03*
X115460000Y-78987500D03*
X112920000Y-76447500D03*
X112920000Y-78987500D03*
%TD*%
D10*
%TO.N,GND*%
%TO.C,TP2*%
X148600000Y-88500000D03*
%TD*%
D13*
%TO.N,GND*%
X146990000Y-95640000D03*
X104670000Y-77610000D03*
X152750000Y-106940000D03*
D14*
X146890000Y-88250000D03*
D13*
X144416061Y-81338202D03*
X130400000Y-83630000D03*
D14*
X150070000Y-89260000D03*
X134975500Y-91950000D03*
D13*
X135160000Y-95280000D03*
D14*
X147512132Y-94349665D03*
D13*
X156300000Y-121900000D03*
D14*
X141834896Y-94124533D03*
D13*
X140493550Y-95522998D03*
X144590000Y-98100500D03*
X140490000Y-96050000D03*
X129640000Y-110300000D03*
X135910000Y-93110000D03*
X144800000Y-92380500D03*
X136859092Y-95550000D03*
D14*
X148340000Y-95010000D03*
D13*
X135390000Y-98510000D03*
X106460000Y-93330000D03*
X137380000Y-106710000D03*
D14*
X144880000Y-90270000D03*
D13*
X144700000Y-87450000D03*
X135640000Y-73600000D03*
X135200000Y-97200000D03*
D14*
X146950000Y-89250000D03*
X147020000Y-96330000D03*
D13*
X138330000Y-96590000D03*
D14*
X140040000Y-91890000D03*
D13*
X141050000Y-87000000D03*
X146500000Y-93600000D03*
D14*
X142400000Y-95600000D03*
X148900000Y-93590000D03*
D13*
X150520000Y-80190000D03*
D14*
X145950000Y-94700000D03*
X146450000Y-89150000D03*
D13*
X138000000Y-89850000D03*
D14*
X139614453Y-93024500D03*
D13*
X150000000Y-96750000D03*
D14*
X138080000Y-87680000D03*
D13*
X155510000Y-95710000D03*
X138440000Y-97170000D03*
X106760000Y-112810000D03*
X149850000Y-98400000D03*
D14*
X147710000Y-96340000D03*
D13*
X145340000Y-93660000D03*
X147700000Y-93450000D03*
X147580000Y-95640000D03*
D14*
X142900000Y-95450000D03*
X136830000Y-91840000D03*
X141568020Y-92308292D03*
X142630000Y-97340000D03*
D13*
X136160092Y-94530000D03*
X126680000Y-71747500D03*
X135200000Y-89780000D03*
X156700000Y-69100000D03*
X155800000Y-87500000D03*
D14*
X148800000Y-92950500D03*
X146800000Y-90050000D03*
D13*
X140310000Y-96450000D03*
X143000000Y-87400000D03*
X146120000Y-95699500D03*
D14*
X142444101Y-92894101D03*
X145950000Y-90100000D03*
X145320000Y-89380000D03*
X145780000Y-96290000D03*
D13*
X135890000Y-90120000D03*
D14*
X148100000Y-90000000D03*
D13*
X138990000Y-96490000D03*
X107600000Y-104500000D03*
X148150000Y-97670000D03*
X146940000Y-87070000D03*
X103100000Y-122100000D03*
X145266637Y-78141210D03*
X149700000Y-89900000D03*
X144310000Y-91350000D03*
X143524500Y-93600000D03*
D14*
X146400000Y-90050000D03*
D13*
X137220000Y-97050000D03*
D14*
X138780000Y-94020000D03*
D13*
X136910000Y-80250000D03*
D14*
X138040500Y-91920000D03*
X141070000Y-93025498D03*
X143300899Y-91989101D03*
D13*
X145570000Y-87160000D03*
D14*
X144280000Y-90250000D03*
D13*
X105450000Y-70470000D03*
D14*
X144840000Y-96930000D03*
D13*
X137480000Y-96470000D03*
X143800000Y-86950000D03*
D14*
X143590000Y-96500000D03*
D13*
X117520000Y-69930000D03*
D14*
X141210000Y-94430000D03*
D13*
X145200000Y-72300000D03*
X154200000Y-101500000D03*
X135190000Y-96310000D03*
D14*
X141100000Y-91600000D03*
D13*
X103900000Y-84800000D03*
D14*
X147400000Y-89550000D03*
D13*
X128400000Y-101000000D03*
X143230000Y-96010000D03*
D14*
X136850000Y-94637500D03*
D13*
X139070000Y-86840000D03*
X139030000Y-95680000D03*
X114560000Y-86760000D03*
X137490000Y-94010000D03*
X137440000Y-86960000D03*
%TO.N,+1V8*%
X140474059Y-92959710D03*
X137471779Y-90951779D03*
X137590000Y-92420000D03*
D14*
X135505500Y-94637298D03*
D13*
%TO.N,+1.2VA*%
X136247871Y-91301612D03*
D14*
%TO.N,+1V2*%
X135617490Y-93803077D03*
D13*
X138460000Y-95710000D03*
X137590000Y-91420000D03*
D14*
%TO.N,+4V*%
X135711619Y-91548996D03*
D13*
X120200000Y-94945000D03*
X137590000Y-91920000D03*
X138730517Y-91170645D03*
D14*
%TO.N,/Neuropixels 1.0/SDA*%
X138314130Y-90444500D03*
D13*
X123200000Y-92000000D03*
X123210000Y-96120000D03*
%TO.N,/Neuropixels 1.0/SCL*%
X118000000Y-97340000D03*
D14*
X137757636Y-90135500D03*
D13*
%TO.N,+1.8VA*%
X135950000Y-92390000D03*
%TD*%
%TA.AperFunction,Conductor*%
%TO.N,GND*%
G36*
X144517752Y-86582952D02*
G01*
X144601918Y-86617816D01*
X144766233Y-86650500D01*
X144830186Y-86650500D01*
X148565649Y-86650500D01*
X148599199Y-86650500D01*
X148600784Y-86650551D01*
X148839807Y-86666218D01*
X148842983Y-86666636D01*
X149077125Y-86713209D01*
X149080200Y-86714034D01*
X149306253Y-86790769D01*
X149309216Y-86791997D01*
X149333694Y-86804068D01*
X149523313Y-86897577D01*
X149526083Y-86899176D01*
X149724568Y-87031800D01*
X149727110Y-87033751D01*
X149906590Y-87191150D01*
X149908849Y-87193409D01*
X149937927Y-87226566D01*
X150066246Y-87372886D01*
X150068199Y-87375431D01*
X150200820Y-87573912D01*
X150202424Y-87576690D01*
X150308002Y-87790783D01*
X150309230Y-87793746D01*
X150385965Y-88019799D01*
X150386792Y-88022884D01*
X150416557Y-88172523D01*
X150433362Y-88257011D01*
X150433781Y-88260191D01*
X150440974Y-88369919D01*
X150449448Y-88499215D01*
X150449500Y-88500800D01*
X150449500Y-90265649D01*
X150449500Y-90300000D01*
X150449500Y-90400656D01*
X150449501Y-90400661D01*
X150449687Y-90402788D01*
X150449563Y-90402798D01*
X150450000Y-90407778D01*
X150450000Y-93012222D01*
X150449564Y-93017204D01*
X150449686Y-93017215D01*
X150449500Y-93019340D01*
X150449500Y-98800500D01*
X150435148Y-98835148D01*
X150400500Y-98849500D01*
X143919340Y-98849500D01*
X143917215Y-98849686D01*
X143917204Y-98849564D01*
X143912222Y-98850000D01*
X140107778Y-98850000D01*
X140102795Y-98849564D01*
X140102785Y-98849686D01*
X140100660Y-98849500D01*
X140100656Y-98849500D01*
X140019814Y-98849500D01*
X134799500Y-98849500D01*
X134764852Y-98835148D01*
X134750500Y-98800500D01*
X134750500Y-98347373D01*
X146005740Y-98347373D01*
X146023565Y-98425474D01*
X146023569Y-98425481D01*
X146073517Y-98488112D01*
X146073519Y-98488113D01*
X146145691Y-98522870D01*
X146145693Y-98522870D01*
X146145696Y-98522872D01*
X146145698Y-98522872D01*
X146225808Y-98522872D01*
X146225810Y-98522872D01*
X146297989Y-98488112D01*
X146347939Y-98425477D01*
X146357623Y-98383052D01*
X146365766Y-98347373D01*
X146365766Y-98347370D01*
X146347940Y-98269269D01*
X146347936Y-98269262D01*
X146297988Y-98206631D01*
X146297986Y-98206630D01*
X146225814Y-98171873D01*
X146225811Y-98171872D01*
X146225810Y-98171872D01*
X146145696Y-98171872D01*
X146145695Y-98171872D01*
X146145691Y-98171873D01*
X146073519Y-98206630D01*
X146073517Y-98206631D01*
X146023569Y-98269262D01*
X146023565Y-98269269D01*
X146005740Y-98347370D01*
X146005740Y-98347373D01*
X134750500Y-98347373D01*
X134750500Y-97900000D01*
X134944344Y-97900000D01*
X134964710Y-97989231D01*
X134964712Y-97989235D01*
X135021774Y-98060786D01*
X135021776Y-98060788D01*
X135104234Y-98100499D01*
X135104235Y-98100499D01*
X135104237Y-98100500D01*
X135104239Y-98100500D01*
X135195761Y-98100500D01*
X135195763Y-98100500D01*
X135278224Y-98060788D01*
X135335290Y-97989231D01*
X135355656Y-97900000D01*
X135335290Y-97810769D01*
X135335288Y-97810767D01*
X135335287Y-97810764D01*
X135278225Y-97739213D01*
X135278223Y-97739211D01*
X135195765Y-97699500D01*
X145239987Y-97699500D01*
X145257812Y-97777602D01*
X145257816Y-97777609D01*
X145307764Y-97840240D01*
X145307766Y-97840241D01*
X145379938Y-97874998D01*
X145379940Y-97874998D01*
X145379943Y-97875000D01*
X145379945Y-97875000D01*
X145460055Y-97875000D01*
X145460057Y-97875000D01*
X145532236Y-97840240D01*
X145582186Y-97777605D01*
X145600013Y-97699500D01*
X145598014Y-97690740D01*
X145582187Y-97621397D01*
X145582183Y-97621390D01*
X145532235Y-97558759D01*
X145532233Y-97558758D01*
X145514049Y-97550001D01*
X149719487Y-97550001D01*
X149737312Y-97628102D01*
X149737316Y-97628109D01*
X149787264Y-97690740D01*
X149787266Y-97690741D01*
X149859438Y-97725498D01*
X149859440Y-97725498D01*
X149859443Y-97725500D01*
X149859445Y-97725500D01*
X149939555Y-97725500D01*
X149939557Y-97725500D01*
X150011736Y-97690740D01*
X150061686Y-97628105D01*
X150071003Y-97587288D01*
X150079513Y-97550001D01*
X150079513Y-97549998D01*
X150061687Y-97471897D01*
X150061683Y-97471890D01*
X150011735Y-97409259D01*
X150011733Y-97409258D01*
X149939561Y-97374501D01*
X149939558Y-97374500D01*
X149939557Y-97374500D01*
X149859443Y-97374500D01*
X149859442Y-97374500D01*
X149859438Y-97374501D01*
X149787266Y-97409258D01*
X149787264Y-97409259D01*
X149737316Y-97471890D01*
X149737312Y-97471897D01*
X149719487Y-97549998D01*
X149719487Y-97550001D01*
X145514049Y-97550001D01*
X145460061Y-97524001D01*
X145460058Y-97524000D01*
X145460057Y-97524000D01*
X145379943Y-97524000D01*
X145379942Y-97524000D01*
X145379938Y-97524001D01*
X145307766Y-97558758D01*
X145307764Y-97558759D01*
X145257816Y-97621390D01*
X145257812Y-97621397D01*
X145239987Y-97699498D01*
X145239987Y-97699500D01*
X135195765Y-97699500D01*
X135195763Y-97699500D01*
X135104237Y-97699500D01*
X135104234Y-97699500D01*
X135021776Y-97739211D01*
X135021774Y-97739213D01*
X134964712Y-97810764D01*
X134964710Y-97810768D01*
X134944344Y-97900000D01*
X134750500Y-97900000D01*
X134750500Y-97426502D01*
X136303936Y-97426502D01*
X136314297Y-97471897D01*
X136324302Y-97515733D01*
X136324304Y-97515737D01*
X136381366Y-97587288D01*
X136381368Y-97587290D01*
X136463826Y-97627001D01*
X136463827Y-97627001D01*
X136463829Y-97627002D01*
X136463831Y-97627002D01*
X136555353Y-97627002D01*
X136555355Y-97627002D01*
X136637816Y-97587290D01*
X136694882Y-97515733D01*
X136715248Y-97426502D01*
X136694882Y-97337271D01*
X136694880Y-97337269D01*
X136694879Y-97337266D01*
X136637817Y-97265715D01*
X136637815Y-97265713D01*
X136555357Y-97226002D01*
X136555355Y-97226002D01*
X136463829Y-97226002D01*
X136463826Y-97226002D01*
X136381368Y-97265713D01*
X136381366Y-97265715D01*
X136324304Y-97337266D01*
X136324302Y-97337270D01*
X136307534Y-97410740D01*
X136303936Y-97426502D01*
X134750500Y-97426502D01*
X134750500Y-97063949D01*
X137658695Y-97063949D01*
X137679061Y-97153180D01*
X137679063Y-97153184D01*
X137736125Y-97224735D01*
X137736127Y-97224737D01*
X137818585Y-97264448D01*
X137818586Y-97264448D01*
X137818588Y-97264449D01*
X137818590Y-97264449D01*
X137910112Y-97264449D01*
X137910114Y-97264449D01*
X137992575Y-97224737D01*
X138043202Y-97161254D01*
X138049638Y-97153184D01*
X138049638Y-97153183D01*
X138049641Y-97153180D01*
X138050367Y-97150001D01*
X138819987Y-97150001D01*
X138837812Y-97228102D01*
X138837816Y-97228109D01*
X138887764Y-97290740D01*
X138887766Y-97290741D01*
X138959938Y-97325498D01*
X138959940Y-97325498D01*
X138959943Y-97325500D01*
X138959945Y-97325500D01*
X139040055Y-97325500D01*
X139040057Y-97325500D01*
X139112236Y-97290740D01*
X139160360Y-97230395D01*
X139162183Y-97228109D01*
X139162183Y-97228108D01*
X139162186Y-97228105D01*
X139163604Y-97221895D01*
X139180013Y-97150001D01*
X139180013Y-97149998D01*
X139164037Y-97080001D01*
X140109987Y-97080001D01*
X140127812Y-97158102D01*
X140127816Y-97158109D01*
X140177764Y-97220740D01*
X140177766Y-97220741D01*
X140249938Y-97255498D01*
X140249940Y-97255498D01*
X140249943Y-97255500D01*
X140249945Y-97255500D01*
X140330055Y-97255500D01*
X140330057Y-97255500D01*
X140402236Y-97220740D01*
X140418775Y-97200001D01*
X140669987Y-97200001D01*
X140687812Y-97278102D01*
X140687816Y-97278109D01*
X140737764Y-97340740D01*
X140737766Y-97340741D01*
X140809938Y-97375498D01*
X140809940Y-97375498D01*
X140809943Y-97375500D01*
X140809945Y-97375500D01*
X140890055Y-97375500D01*
X140890057Y-97375500D01*
X140962236Y-97340740D01*
X140994724Y-97300001D01*
X141819987Y-97300001D01*
X141837812Y-97378102D01*
X141837816Y-97378109D01*
X141887764Y-97440740D01*
X141887766Y-97440741D01*
X141959938Y-97475498D01*
X141959940Y-97475498D01*
X141959943Y-97475500D01*
X141959945Y-97475500D01*
X142040055Y-97475500D01*
X142040057Y-97475500D01*
X142112236Y-97440740D01*
X142162186Y-97378105D01*
X142168374Y-97350996D01*
X142180013Y-97300001D01*
X142180013Y-97299998D01*
X142162187Y-97221897D01*
X142162185Y-97221893D01*
X142144724Y-97199998D01*
X142125186Y-97175499D01*
X144334487Y-97175499D01*
X144352312Y-97253600D01*
X144352316Y-97253607D01*
X144402264Y-97316238D01*
X144402266Y-97316239D01*
X144474438Y-97350996D01*
X144474440Y-97350996D01*
X144474443Y-97350998D01*
X144474445Y-97350998D01*
X144554555Y-97350998D01*
X144554557Y-97350998D01*
X144626736Y-97316238D01*
X144668037Y-97264449D01*
X144676684Y-97253606D01*
X144676684Y-97253604D01*
X144676686Y-97253603D01*
X144676686Y-97253600D01*
X144676838Y-97253287D01*
X144677189Y-97252972D01*
X144680129Y-97249287D01*
X144680754Y-97249786D01*
X144704800Y-97228295D01*
X144742244Y-97230395D01*
X144767236Y-97258357D01*
X144768317Y-97264717D01*
X144768758Y-97264617D01*
X144787812Y-97348102D01*
X144787816Y-97348109D01*
X144837764Y-97410740D01*
X144837766Y-97410741D01*
X144909938Y-97445498D01*
X144909940Y-97445498D01*
X144909943Y-97445500D01*
X144909945Y-97445500D01*
X144990055Y-97445500D01*
X144990057Y-97445500D01*
X145062236Y-97410740D01*
X145109879Y-97350998D01*
X145112183Y-97348109D01*
X145112183Y-97348108D01*
X145112186Y-97348105D01*
X145114037Y-97339998D01*
X145130013Y-97270001D01*
X145130013Y-97269998D01*
X145112187Y-97191897D01*
X145112183Y-97191890D01*
X145063015Y-97130237D01*
X145062236Y-97129260D01*
X145062235Y-97129259D01*
X145062233Y-97129258D01*
X144990061Y-97094501D01*
X144990058Y-97094500D01*
X144990057Y-97094500D01*
X144909943Y-97094500D01*
X144909942Y-97094500D01*
X144909938Y-97094501D01*
X144837766Y-97129258D01*
X144837764Y-97129259D01*
X144787813Y-97191894D01*
X144787660Y-97192213D01*
X144787309Y-97192525D01*
X144784371Y-97196211D01*
X144783744Y-97195711D01*
X144759696Y-97217203D01*
X144722253Y-97215100D01*
X144697263Y-97187136D01*
X144696182Y-97180780D01*
X144695742Y-97180881D01*
X144676687Y-97097395D01*
X144676683Y-97097388D01*
X144626735Y-97034757D01*
X144626733Y-97034756D01*
X144554561Y-96999999D01*
X144554558Y-96999998D01*
X144554557Y-96999998D01*
X144474443Y-96999998D01*
X144474442Y-96999998D01*
X144474438Y-96999999D01*
X144402266Y-97034756D01*
X144402264Y-97034757D01*
X144352316Y-97097388D01*
X144352312Y-97097395D01*
X144334487Y-97175496D01*
X144334487Y-97175499D01*
X142125186Y-97175499D01*
X142117822Y-97166265D01*
X142116378Y-97161254D01*
X142040061Y-97124501D01*
X142040058Y-97124500D01*
X142040057Y-97124500D01*
X141959943Y-97124500D01*
X141959942Y-97124500D01*
X141959938Y-97124501D01*
X141887766Y-97159258D01*
X141887764Y-97159259D01*
X141837816Y-97221890D01*
X141837812Y-97221897D01*
X141819987Y-97299998D01*
X141819987Y-97300001D01*
X140994724Y-97300001D01*
X141012186Y-97278105D01*
X141014037Y-97269998D01*
X141030013Y-97200001D01*
X141030013Y-97199998D01*
X141012187Y-97121897D01*
X141012183Y-97121890D01*
X140967070Y-97065322D01*
X140962236Y-97059260D01*
X140962235Y-97059259D01*
X140962233Y-97059258D01*
X140890061Y-97024501D01*
X140890058Y-97024500D01*
X140890057Y-97024500D01*
X140809943Y-97024500D01*
X140809942Y-97024500D01*
X140809938Y-97024501D01*
X140737766Y-97059258D01*
X140737764Y-97059259D01*
X140687816Y-97121890D01*
X140687812Y-97121897D01*
X140669987Y-97199998D01*
X140669987Y-97200001D01*
X140418775Y-97200001D01*
X140452186Y-97158105D01*
X140454037Y-97149998D01*
X140470013Y-97080001D01*
X140470013Y-97079998D01*
X140452187Y-97001897D01*
X140452183Y-97001890D01*
X140414579Y-96954738D01*
X142116488Y-96954738D01*
X142134313Y-97032839D01*
X142134317Y-97032846D01*
X142178677Y-97088470D01*
X142180121Y-97093482D01*
X142256439Y-97130235D01*
X142256441Y-97130235D01*
X142256444Y-97130237D01*
X142256446Y-97130237D01*
X142336556Y-97130237D01*
X142336558Y-97130237D01*
X142408737Y-97095477D01*
X142458687Y-97032842D01*
X142464070Y-97009260D01*
X142476514Y-96954738D01*
X142476514Y-96954735D01*
X142458688Y-96876634D01*
X142458684Y-96876627D01*
X142408736Y-96813996D01*
X142408734Y-96813995D01*
X142396834Y-96808264D01*
X144013176Y-96808264D01*
X144031001Y-96886365D01*
X144031005Y-96886372D01*
X144080953Y-96949003D01*
X144080955Y-96949004D01*
X144153127Y-96983761D01*
X144153129Y-96983761D01*
X144153132Y-96983763D01*
X144153134Y-96983763D01*
X144233244Y-96983763D01*
X144233246Y-96983763D01*
X144305425Y-96949003D01*
X144355375Y-96886368D01*
X144357599Y-96876627D01*
X144373202Y-96808264D01*
X144373202Y-96808261D01*
X144355376Y-96730160D01*
X144355372Y-96730153D01*
X144305424Y-96667522D01*
X144305422Y-96667521D01*
X144233250Y-96632764D01*
X144233247Y-96632763D01*
X144233246Y-96632763D01*
X144153132Y-96632763D01*
X144153131Y-96632763D01*
X144153127Y-96632764D01*
X144080955Y-96667521D01*
X144080953Y-96667522D01*
X144031005Y-96730153D01*
X144031001Y-96730160D01*
X144013176Y-96808261D01*
X144013176Y-96808264D01*
X142396834Y-96808264D01*
X142336562Y-96779238D01*
X142336559Y-96779237D01*
X142336558Y-96779237D01*
X142256444Y-96779237D01*
X142256443Y-96779237D01*
X142256439Y-96779238D01*
X142184267Y-96813995D01*
X142184265Y-96813996D01*
X142134317Y-96876627D01*
X142134313Y-96876634D01*
X142116488Y-96954735D01*
X142116488Y-96954738D01*
X140414579Y-96954738D01*
X140402235Y-96939259D01*
X140402233Y-96939258D01*
X140330061Y-96904501D01*
X140330058Y-96904500D01*
X140330057Y-96904500D01*
X140249943Y-96904500D01*
X140249942Y-96904500D01*
X140249938Y-96904501D01*
X140177766Y-96939258D01*
X140177764Y-96939259D01*
X140127816Y-97001890D01*
X140127812Y-97001897D01*
X140109987Y-97079998D01*
X140109987Y-97080001D01*
X139164037Y-97080001D01*
X139162187Y-97071897D01*
X139162183Y-97071890D01*
X139112235Y-97009259D01*
X139112233Y-97009258D01*
X139040061Y-96974501D01*
X139040058Y-96974500D01*
X139040057Y-96974500D01*
X138959943Y-96974500D01*
X138959942Y-96974500D01*
X138959938Y-96974501D01*
X138887766Y-97009258D01*
X138887764Y-97009259D01*
X138837816Y-97071890D01*
X138837812Y-97071897D01*
X138819987Y-97149998D01*
X138819987Y-97150001D01*
X138050367Y-97150001D01*
X138070007Y-97063949D01*
X138049641Y-96974718D01*
X138049639Y-96974716D01*
X138049638Y-96974713D01*
X137992576Y-96903162D01*
X137992574Y-96903160D01*
X137910116Y-96863449D01*
X137910114Y-96863449D01*
X137818588Y-96863449D01*
X137818585Y-96863449D01*
X137736127Y-96903160D01*
X137736125Y-96903162D01*
X137679063Y-96974713D01*
X137679061Y-96974717D01*
X137658695Y-97063949D01*
X134750500Y-97063949D01*
X134750500Y-96278056D01*
X144790164Y-96278056D01*
X144807989Y-96356157D01*
X144807993Y-96356164D01*
X144857941Y-96418795D01*
X144857943Y-96418796D01*
X144930115Y-96453553D01*
X144930117Y-96453553D01*
X144930120Y-96453555D01*
X144930122Y-96453555D01*
X145010232Y-96453555D01*
X145010234Y-96453555D01*
X145082413Y-96418795D01*
X145097401Y-96400001D01*
X148369987Y-96400001D01*
X148387812Y-96478102D01*
X148387816Y-96478109D01*
X148437764Y-96540740D01*
X148437766Y-96540741D01*
X148509938Y-96575498D01*
X148509940Y-96575498D01*
X148509943Y-96575500D01*
X148509945Y-96575500D01*
X148590055Y-96575500D01*
X148590057Y-96575500D01*
X148662236Y-96540740D01*
X148712186Y-96478105D01*
X148713580Y-96472000D01*
X148730013Y-96400001D01*
X148730013Y-96399998D01*
X148712187Y-96321897D01*
X148712183Y-96321890D01*
X148662235Y-96259259D01*
X148662233Y-96259258D01*
X148643011Y-96250001D01*
X149019987Y-96250001D01*
X149037812Y-96328102D01*
X149037816Y-96328109D01*
X149087764Y-96390740D01*
X149087766Y-96390741D01*
X149159938Y-96425498D01*
X149159940Y-96425498D01*
X149159943Y-96425500D01*
X149159945Y-96425500D01*
X149240055Y-96425500D01*
X149240057Y-96425500D01*
X149312236Y-96390740D01*
X149362186Y-96328105D01*
X149363604Y-96321895D01*
X149380013Y-96250001D01*
X149380013Y-96249998D01*
X149362187Y-96171897D01*
X149362183Y-96171890D01*
X149312235Y-96109259D01*
X149312233Y-96109258D01*
X149240061Y-96074501D01*
X149240058Y-96074500D01*
X149240057Y-96074500D01*
X149159943Y-96074500D01*
X149159942Y-96074500D01*
X149159938Y-96074501D01*
X149087766Y-96109258D01*
X149087764Y-96109259D01*
X149037816Y-96171890D01*
X149037812Y-96171897D01*
X149019987Y-96249998D01*
X149019987Y-96250001D01*
X148643011Y-96250001D01*
X148590061Y-96224501D01*
X148590058Y-96224500D01*
X148590057Y-96224500D01*
X148509943Y-96224500D01*
X148509942Y-96224500D01*
X148509938Y-96224501D01*
X148437766Y-96259258D01*
X148437764Y-96259259D01*
X148387816Y-96321890D01*
X148387812Y-96321897D01*
X148369987Y-96399998D01*
X148369987Y-96400001D01*
X145097401Y-96400001D01*
X145132363Y-96356160D01*
X145132408Y-96355966D01*
X145150190Y-96278056D01*
X145150190Y-96278053D01*
X145132364Y-96199952D01*
X145132360Y-96199945D01*
X145082412Y-96137314D01*
X145082410Y-96137313D01*
X145010238Y-96102556D01*
X145010235Y-96102555D01*
X145010234Y-96102555D01*
X144930120Y-96102555D01*
X144930119Y-96102555D01*
X144930115Y-96102556D01*
X144857943Y-96137313D01*
X144857941Y-96137314D01*
X144807993Y-96199945D01*
X144807989Y-96199952D01*
X144790164Y-96278053D01*
X144790164Y-96278056D01*
X134750500Y-96278056D01*
X134750500Y-95710001D01*
X138204592Y-95710001D01*
X138224033Y-95807739D01*
X138279398Y-95890601D01*
X138362260Y-95945966D01*
X138459998Y-95965408D01*
X138460000Y-95965408D01*
X138460002Y-95965408D01*
X138525160Y-95952446D01*
X138557740Y-95945966D01*
X138558436Y-95945501D01*
X143537357Y-95945501D01*
X143555182Y-96023602D01*
X143555186Y-96023609D01*
X143605134Y-96086240D01*
X143605136Y-96086241D01*
X143677308Y-96120998D01*
X143677310Y-96120998D01*
X143677313Y-96121000D01*
X143677315Y-96121000D01*
X143757425Y-96121000D01*
X143757427Y-96121000D01*
X143829606Y-96086240D01*
X143862892Y-96044501D01*
X145309987Y-96044501D01*
X145327812Y-96122602D01*
X145327816Y-96122609D01*
X145377764Y-96185240D01*
X145377766Y-96185241D01*
X145449938Y-96219998D01*
X145449940Y-96219998D01*
X145449943Y-96220000D01*
X145449945Y-96220000D01*
X145530055Y-96220000D01*
X145530057Y-96220000D01*
X145602236Y-96185240D01*
X145652186Y-96122605D01*
X145652553Y-96121000D01*
X145670013Y-96044501D01*
X145670013Y-96044498D01*
X145652187Y-95966397D01*
X145652183Y-95966390D01*
X145602235Y-95903759D01*
X145602233Y-95903758D01*
X145530061Y-95869001D01*
X145530058Y-95869000D01*
X145530057Y-95869000D01*
X145449943Y-95869000D01*
X145449942Y-95869000D01*
X145449938Y-95869001D01*
X145377766Y-95903758D01*
X145377764Y-95903759D01*
X145327816Y-95966390D01*
X145327812Y-95966397D01*
X145309987Y-96044498D01*
X145309987Y-96044501D01*
X143862892Y-96044501D01*
X143879556Y-96023605D01*
X143892614Y-95966397D01*
X143897383Y-95945501D01*
X143897383Y-95945498D01*
X143879557Y-95867397D01*
X143879553Y-95867390D01*
X143829605Y-95804759D01*
X143829603Y-95804758D01*
X143757431Y-95770001D01*
X143757428Y-95770000D01*
X143757427Y-95770000D01*
X143677313Y-95770000D01*
X143677312Y-95770000D01*
X143677308Y-95770001D01*
X143605136Y-95804758D01*
X143605134Y-95804759D01*
X143555186Y-95867390D01*
X143555182Y-95867397D01*
X143537357Y-95945498D01*
X143537357Y-95945501D01*
X138558436Y-95945501D01*
X138640601Y-95890601D01*
X138695966Y-95807740D01*
X138707451Y-95750001D01*
X149019987Y-95750001D01*
X149037812Y-95828102D01*
X149037816Y-95828109D01*
X149087764Y-95890740D01*
X149087766Y-95890741D01*
X149159938Y-95925498D01*
X149159940Y-95925498D01*
X149159943Y-95925500D01*
X149159945Y-95925500D01*
X149240055Y-95925500D01*
X149240057Y-95925500D01*
X149312236Y-95890740D01*
X149362186Y-95828105D01*
X149366835Y-95807739D01*
X149380013Y-95750001D01*
X149380013Y-95749998D01*
X149362187Y-95671897D01*
X149362183Y-95671890D01*
X149312235Y-95609259D01*
X149312233Y-95609258D01*
X149240061Y-95574501D01*
X149240058Y-95574500D01*
X149240057Y-95574500D01*
X149159943Y-95574500D01*
X149159942Y-95574500D01*
X149159938Y-95574501D01*
X149087766Y-95609258D01*
X149087764Y-95609259D01*
X149037816Y-95671890D01*
X149037812Y-95671897D01*
X149019987Y-95749998D01*
X149019987Y-95750001D01*
X138707451Y-95750001D01*
X138715408Y-95710000D01*
X138707828Y-95671895D01*
X138695966Y-95612260D01*
X138654367Y-95550001D01*
X144119987Y-95550001D01*
X144137812Y-95628102D01*
X144137816Y-95628109D01*
X144187764Y-95690740D01*
X144187766Y-95690741D01*
X144259938Y-95725498D01*
X144259940Y-95725498D01*
X144259943Y-95725500D01*
X144259945Y-95725500D01*
X144340055Y-95725500D01*
X144340057Y-95725500D01*
X144412236Y-95690740D01*
X144462186Y-95628105D01*
X144466488Y-95609260D01*
X144480013Y-95550001D01*
X144480013Y-95549998D01*
X144462187Y-95471897D01*
X144462183Y-95471890D01*
X144412235Y-95409259D01*
X144412233Y-95409258D01*
X144340061Y-95374501D01*
X144340058Y-95374500D01*
X144340057Y-95374500D01*
X144259943Y-95374500D01*
X144259942Y-95374500D01*
X144259938Y-95374501D01*
X144187766Y-95409258D01*
X144187764Y-95409259D01*
X144137816Y-95471890D01*
X144137812Y-95471897D01*
X144119987Y-95549998D01*
X144119987Y-95550001D01*
X138654367Y-95550001D01*
X138640601Y-95529398D01*
X138557739Y-95474033D01*
X138460002Y-95454592D01*
X138459998Y-95454592D01*
X138362260Y-95474033D01*
X138279398Y-95529398D01*
X138224033Y-95612260D01*
X138204592Y-95709998D01*
X138204592Y-95710001D01*
X134750500Y-95710001D01*
X134750500Y-95223499D01*
X141319987Y-95223499D01*
X141337812Y-95301600D01*
X141337816Y-95301607D01*
X141387764Y-95364238D01*
X141387766Y-95364239D01*
X141459938Y-95398996D01*
X141459940Y-95398996D01*
X141459943Y-95398998D01*
X141459945Y-95398998D01*
X141540055Y-95398998D01*
X141540057Y-95398998D01*
X141612236Y-95364238D01*
X141662186Y-95301603D01*
X141662552Y-95300001D01*
X149049987Y-95300001D01*
X149067812Y-95378102D01*
X149067816Y-95378109D01*
X149117764Y-95440740D01*
X149117766Y-95440741D01*
X149189938Y-95475498D01*
X149189940Y-95475498D01*
X149189943Y-95475500D01*
X149189945Y-95475500D01*
X149270055Y-95475500D01*
X149270057Y-95475500D01*
X149342236Y-95440740D01*
X149392186Y-95378105D01*
X149410013Y-95300000D01*
X149408177Y-95291954D01*
X149392187Y-95221897D01*
X149392183Y-95221890D01*
X149342235Y-95159259D01*
X149342233Y-95159258D01*
X149270061Y-95124501D01*
X149270058Y-95124500D01*
X149270057Y-95124500D01*
X149189943Y-95124500D01*
X149189942Y-95124500D01*
X149189938Y-95124501D01*
X149117766Y-95159258D01*
X149117764Y-95159259D01*
X149067816Y-95221890D01*
X149067812Y-95221897D01*
X149049987Y-95299998D01*
X149049987Y-95300001D01*
X141662552Y-95300001D01*
X141662553Y-95299998D01*
X141680013Y-95223499D01*
X141680013Y-95223496D01*
X141662187Y-95145395D01*
X141662183Y-95145388D01*
X141612235Y-95082757D01*
X141612233Y-95082756D01*
X141540061Y-95047999D01*
X141540058Y-95047998D01*
X141540057Y-95047998D01*
X141459943Y-95047998D01*
X141459942Y-95047998D01*
X141459938Y-95047999D01*
X141387766Y-95082756D01*
X141387764Y-95082757D01*
X141337816Y-95145388D01*
X141337812Y-95145395D01*
X141319987Y-95223496D01*
X141319987Y-95223499D01*
X134750500Y-95223499D01*
X134750500Y-94637298D01*
X135275582Y-94637298D01*
X135288054Y-94700000D01*
X135293083Y-94725284D01*
X135342922Y-94799875D01*
X135385168Y-94828102D01*
X135417514Y-94849715D01*
X135505500Y-94867216D01*
X135593486Y-94849715D01*
X135668077Y-94799875D01*
X135717917Y-94725284D01*
X135722946Y-94700001D01*
X145369987Y-94700001D01*
X145387812Y-94778102D01*
X145387816Y-94778109D01*
X145437764Y-94840740D01*
X145437766Y-94840741D01*
X145509938Y-94875498D01*
X145509940Y-94875498D01*
X145509943Y-94875500D01*
X145509945Y-94875500D01*
X145590055Y-94875500D01*
X145590057Y-94875500D01*
X145662236Y-94840740D01*
X145712186Y-94778105D01*
X145715315Y-94764399D01*
X145718601Y-94750001D01*
X149019987Y-94750001D01*
X149037812Y-94828102D01*
X149037816Y-94828109D01*
X149087764Y-94890740D01*
X149087766Y-94890741D01*
X149159938Y-94925498D01*
X149159940Y-94925498D01*
X149159943Y-94925500D01*
X149159945Y-94925500D01*
X149240055Y-94925500D01*
X149240057Y-94925500D01*
X149312236Y-94890740D01*
X149362186Y-94828105D01*
X149368630Y-94799875D01*
X149380013Y-94750001D01*
X149380013Y-94749998D01*
X149362187Y-94671897D01*
X149362183Y-94671890D01*
X149312235Y-94609259D01*
X149312233Y-94609258D01*
X149240061Y-94574501D01*
X149240058Y-94574500D01*
X149240057Y-94574500D01*
X149159943Y-94574500D01*
X149159942Y-94574500D01*
X149159938Y-94574501D01*
X149087766Y-94609258D01*
X149087764Y-94609259D01*
X149037816Y-94671890D01*
X149037812Y-94671897D01*
X149019987Y-94749998D01*
X149019987Y-94750001D01*
X145718601Y-94750001D01*
X145730013Y-94700001D01*
X145730013Y-94699998D01*
X145712187Y-94621897D01*
X145712183Y-94621890D01*
X145662235Y-94559259D01*
X145662233Y-94559258D01*
X145590061Y-94524501D01*
X145590058Y-94524500D01*
X145590057Y-94524500D01*
X145509943Y-94524500D01*
X145509942Y-94524500D01*
X145509938Y-94524501D01*
X145437766Y-94559258D01*
X145437764Y-94559259D01*
X145387816Y-94621890D01*
X145387812Y-94621897D01*
X145369987Y-94699998D01*
X145369987Y-94700001D01*
X135722946Y-94700001D01*
X135735418Y-94637298D01*
X135717917Y-94549312D01*
X135701338Y-94524500D01*
X135668077Y-94474720D01*
X135593486Y-94424881D01*
X135593485Y-94424881D01*
X135505500Y-94407380D01*
X135505499Y-94407380D01*
X135417513Y-94424881D01*
X135342922Y-94474720D01*
X135293083Y-94549311D01*
X135281239Y-94608860D01*
X135275582Y-94637298D01*
X134750500Y-94637298D01*
X134750500Y-94400001D01*
X141869987Y-94400001D01*
X141887812Y-94478102D01*
X141887816Y-94478109D01*
X141937764Y-94540740D01*
X141937766Y-94540741D01*
X142009938Y-94575498D01*
X142009940Y-94575498D01*
X142009943Y-94575500D01*
X142009945Y-94575500D01*
X142090055Y-94575500D01*
X142090057Y-94575500D01*
X142162236Y-94540740D01*
X142212186Y-94478105D01*
X142212657Y-94476044D01*
X142230013Y-94400001D01*
X142230012Y-94399998D01*
X142215269Y-94335402D01*
X142221552Y-94298430D01*
X142252138Y-94276728D01*
X142263041Y-94275500D01*
X142340055Y-94275500D01*
X142340057Y-94275500D01*
X142393006Y-94250001D01*
X143869987Y-94250001D01*
X143887812Y-94328102D01*
X143887816Y-94328109D01*
X143937764Y-94390740D01*
X143937766Y-94390741D01*
X144009938Y-94425498D01*
X144009940Y-94425498D01*
X144009943Y-94425500D01*
X144009945Y-94425500D01*
X144090055Y-94425500D01*
X144090057Y-94425500D01*
X144162236Y-94390740D01*
X144212186Y-94328105D01*
X144212502Y-94326723D01*
X144230013Y-94250001D01*
X144230013Y-94249998D01*
X144212187Y-94171898D01*
X144211856Y-94171211D01*
X144211799Y-94170198D01*
X144210958Y-94166513D01*
X144211583Y-94166370D01*
X144209752Y-94133767D01*
X144234741Y-94105802D01*
X144256003Y-94100949D01*
X144304606Y-94100949D01*
X144304608Y-94100949D01*
X144376787Y-94066189D01*
X144423259Y-94007915D01*
X144426734Y-94003558D01*
X144426734Y-94003557D01*
X144426737Y-94003554D01*
X144435388Y-93965654D01*
X144444564Y-93925450D01*
X144444564Y-93925447D01*
X144426738Y-93847346D01*
X144426734Y-93847339D01*
X144376786Y-93784708D01*
X144376784Y-93784707D01*
X144304718Y-93750001D01*
X149069489Y-93750001D01*
X149087314Y-93828102D01*
X149087318Y-93828109D01*
X149111835Y-93858851D01*
X149137266Y-93890740D01*
X149209445Y-93925500D01*
X149209447Y-93925500D01*
X149212734Y-93927083D01*
X149237724Y-93955047D01*
X149235622Y-93992491D01*
X149212735Y-94015378D01*
X149152765Y-94044259D01*
X149152764Y-94044259D01*
X149102816Y-94106890D01*
X149102812Y-94106897D01*
X149084987Y-94184998D01*
X149084987Y-94185001D01*
X149102812Y-94263102D01*
X149102816Y-94263109D01*
X149152764Y-94325740D01*
X149152766Y-94325741D01*
X149224938Y-94360498D01*
X149224940Y-94360498D01*
X149224943Y-94360500D01*
X149224945Y-94360500D01*
X149305055Y-94360500D01*
X149305057Y-94360500D01*
X149377236Y-94325740D01*
X149427186Y-94263105D01*
X149432291Y-94240741D01*
X149445013Y-94185001D01*
X149445013Y-94184998D01*
X149427187Y-94106897D01*
X149427183Y-94106890D01*
X149377235Y-94044259D01*
X149377233Y-94044258D01*
X149301767Y-94007915D01*
X149276777Y-93979952D01*
X149278880Y-93942508D01*
X149301765Y-93919621D01*
X149361738Y-93890740D01*
X149411688Y-93828105D01*
X149417401Y-93803077D01*
X149429515Y-93750001D01*
X149429515Y-93749998D01*
X149411689Y-93671897D01*
X149411685Y-93671890D01*
X149361737Y-93609259D01*
X149361735Y-93609258D01*
X149289563Y-93574501D01*
X149289560Y-93574500D01*
X149289559Y-93574500D01*
X149209445Y-93574500D01*
X149209444Y-93574500D01*
X149209440Y-93574501D01*
X149137268Y-93609258D01*
X149137266Y-93609259D01*
X149087318Y-93671890D01*
X149087314Y-93671897D01*
X149069489Y-93749998D01*
X149069489Y-93750001D01*
X144304718Y-93750001D01*
X144304612Y-93749950D01*
X144304609Y-93749949D01*
X144304608Y-93749949D01*
X144224494Y-93749949D01*
X144224493Y-93749949D01*
X144224489Y-93749950D01*
X144152317Y-93784707D01*
X144152315Y-93784708D01*
X144102367Y-93847339D01*
X144102363Y-93847346D01*
X144084538Y-93925447D01*
X144084538Y-93925450D01*
X144102363Y-94003550D01*
X144102695Y-94004238D01*
X144102751Y-94005250D01*
X144103593Y-94008936D01*
X144102967Y-94009078D01*
X144104799Y-94041682D01*
X144079810Y-94069647D01*
X144058548Y-94074500D01*
X144009943Y-94074500D01*
X144009942Y-94074500D01*
X144009938Y-94074501D01*
X143937766Y-94109258D01*
X143937764Y-94109259D01*
X143887816Y-94171890D01*
X143887812Y-94171897D01*
X143869987Y-94249998D01*
X143869987Y-94250001D01*
X142393006Y-94250001D01*
X142412236Y-94240740D01*
X142462186Y-94178105D01*
X142463604Y-94171895D01*
X142480013Y-94100001D01*
X142480013Y-94099998D01*
X142462187Y-94021897D01*
X142462183Y-94021890D01*
X142412235Y-93959259D01*
X142412233Y-93959258D01*
X142340061Y-93924501D01*
X142340058Y-93924500D01*
X142340057Y-93924500D01*
X142259943Y-93924500D01*
X142259942Y-93924500D01*
X142259938Y-93924501D01*
X142187766Y-93959258D01*
X142187764Y-93959259D01*
X142137816Y-94021890D01*
X142137812Y-94021897D01*
X142119987Y-94099998D01*
X142119987Y-94100000D01*
X142122101Y-94109260D01*
X142134731Y-94164597D01*
X142128448Y-94201570D01*
X142097862Y-94223272D01*
X142086959Y-94224500D01*
X142009943Y-94224500D01*
X142009942Y-94224500D01*
X142009938Y-94224501D01*
X141937766Y-94259258D01*
X141937764Y-94259259D01*
X141887816Y-94321890D01*
X141887812Y-94321897D01*
X141869987Y-94399998D01*
X141869987Y-94400001D01*
X134750500Y-94400001D01*
X134750500Y-94100001D01*
X140419987Y-94100001D01*
X140437812Y-94178102D01*
X140437816Y-94178109D01*
X140487764Y-94240740D01*
X140487766Y-94240741D01*
X140559938Y-94275498D01*
X140559940Y-94275498D01*
X140559943Y-94275500D01*
X140559945Y-94275500D01*
X140640055Y-94275500D01*
X140640057Y-94275500D01*
X140712236Y-94240740D01*
X140762186Y-94178105D01*
X140763604Y-94171895D01*
X140780013Y-94100001D01*
X140780013Y-94099998D01*
X140762187Y-94021897D01*
X140762183Y-94021890D01*
X140712235Y-93959259D01*
X140712233Y-93959258D01*
X140640061Y-93924501D01*
X140640058Y-93924500D01*
X140640057Y-93924500D01*
X140559943Y-93924500D01*
X140559942Y-93924500D01*
X140559938Y-93924501D01*
X140487766Y-93959258D01*
X140487764Y-93959259D01*
X140437816Y-94021890D01*
X140437812Y-94021897D01*
X140419987Y-94099998D01*
X140419987Y-94100001D01*
X134750500Y-94100001D01*
X134750500Y-93803077D01*
X135387572Y-93803077D01*
X135405073Y-93891063D01*
X135454912Y-93965654D01*
X135495077Y-93992491D01*
X135529504Y-94015494D01*
X135617490Y-94032995D01*
X135705476Y-94015494D01*
X135780067Y-93965654D01*
X135829907Y-93891063D01*
X135847408Y-93803077D01*
X135829907Y-93715091D01*
X135813368Y-93690338D01*
X135780067Y-93640499D01*
X135719456Y-93600001D01*
X142719987Y-93600001D01*
X142737812Y-93678102D01*
X142737816Y-93678109D01*
X142787764Y-93740740D01*
X142787766Y-93740741D01*
X142859938Y-93775498D01*
X142859940Y-93775498D01*
X142859943Y-93775500D01*
X142859945Y-93775500D01*
X142940055Y-93775500D01*
X142940057Y-93775500D01*
X143012236Y-93740740D01*
X143062186Y-93678105D01*
X143063604Y-93671895D01*
X143080013Y-93600001D01*
X143080013Y-93599998D01*
X143062187Y-93521897D01*
X143062183Y-93521890D01*
X143044727Y-93500001D01*
X144294489Y-93500001D01*
X144312314Y-93578102D01*
X144312318Y-93578109D01*
X144362266Y-93640740D01*
X144362268Y-93640741D01*
X144434440Y-93675498D01*
X144434442Y-93675498D01*
X144434445Y-93675500D01*
X144434447Y-93675500D01*
X144514557Y-93675500D01*
X144514559Y-93675500D01*
X144586738Y-93640740D01*
X144636688Y-93578105D01*
X144654515Y-93500000D01*
X144654515Y-93499998D01*
X144636689Y-93421897D01*
X144636685Y-93421890D01*
X144586737Y-93359259D01*
X144586735Y-93359258D01*
X144514563Y-93324501D01*
X144514560Y-93324500D01*
X144514559Y-93324500D01*
X144434445Y-93324500D01*
X144434444Y-93324500D01*
X144434440Y-93324501D01*
X144362268Y-93359258D01*
X144362266Y-93359259D01*
X144312318Y-93421890D01*
X144312314Y-93421897D01*
X144294489Y-93499998D01*
X144294489Y-93500001D01*
X143044727Y-93500001D01*
X143012235Y-93459259D01*
X143012233Y-93459258D01*
X142940061Y-93424501D01*
X142940058Y-93424500D01*
X142940057Y-93424500D01*
X142859943Y-93424500D01*
X142859942Y-93424500D01*
X142859938Y-93424501D01*
X142787766Y-93459258D01*
X142787764Y-93459259D01*
X142737816Y-93521890D01*
X142737812Y-93521897D01*
X142719987Y-93599998D01*
X142719987Y-93600001D01*
X135719456Y-93600001D01*
X135705476Y-93590660D01*
X135617490Y-93573159D01*
X135617489Y-93573159D01*
X135529503Y-93590660D01*
X135454912Y-93640499D01*
X135405073Y-93715090D01*
X135387572Y-93803077D01*
X134750500Y-93803077D01*
X134750500Y-93019094D01*
X136373438Y-93019094D01*
X136393804Y-93108325D01*
X136393806Y-93108329D01*
X136450868Y-93179880D01*
X136450870Y-93179882D01*
X136533328Y-93219593D01*
X136533329Y-93219593D01*
X136533331Y-93219594D01*
X136533333Y-93219594D01*
X136624855Y-93219594D01*
X136624857Y-93219594D01*
X136707318Y-93179882D01*
X136743111Y-93135000D01*
X137729344Y-93135000D01*
X137749710Y-93224231D01*
X137749712Y-93224235D01*
X137806774Y-93295786D01*
X137806776Y-93295788D01*
X137889234Y-93335499D01*
X137889235Y-93335499D01*
X137889237Y-93335500D01*
X137889239Y-93335500D01*
X137980761Y-93335500D01*
X137980763Y-93335500D01*
X138063224Y-93295788D01*
X138120290Y-93224231D01*
X138140656Y-93135000D01*
X138120290Y-93045769D01*
X138120288Y-93045767D01*
X138120287Y-93045764D01*
X138079086Y-92994102D01*
X138845487Y-92994102D01*
X138863312Y-93072203D01*
X138863316Y-93072210D01*
X138913264Y-93134841D01*
X138913266Y-93134842D01*
X138985438Y-93169599D01*
X138985440Y-93169599D01*
X138985443Y-93169601D01*
X138985445Y-93169601D01*
X139065555Y-93169601D01*
X139065557Y-93169601D01*
X139137736Y-93134841D01*
X139187686Y-93072206D01*
X139193721Y-93045768D01*
X139205513Y-92994102D01*
X139205513Y-92994099D01*
X139197664Y-92959711D01*
X140218651Y-92959711D01*
X140238092Y-93057449D01*
X140293457Y-93140311D01*
X140376319Y-93195676D01*
X140474057Y-93215118D01*
X140474059Y-93215118D01*
X140474061Y-93215118D01*
X140539218Y-93202156D01*
X140571799Y-93195676D01*
X140654660Y-93140311D01*
X140710025Y-93057450D01*
X140722626Y-92994101D01*
X140729467Y-92959711D01*
X140729467Y-92959708D01*
X140727636Y-92950501D01*
X148970989Y-92950501D01*
X148988814Y-93028602D01*
X148988818Y-93028609D01*
X149038766Y-93091240D01*
X149038768Y-93091241D01*
X149110940Y-93125998D01*
X149110942Y-93125998D01*
X149110945Y-93126000D01*
X149110947Y-93126000D01*
X149191057Y-93126000D01*
X149191059Y-93126000D01*
X149263238Y-93091240D01*
X149305213Y-93038604D01*
X149313185Y-93028609D01*
X149313185Y-93028608D01*
X149313188Y-93028605D01*
X149315301Y-93019350D01*
X149331015Y-92950501D01*
X149331015Y-92950498D01*
X149313189Y-92872397D01*
X149313185Y-92872390D01*
X149263237Y-92809759D01*
X149263235Y-92809758D01*
X149191063Y-92775001D01*
X149191060Y-92775000D01*
X149191059Y-92775000D01*
X149110945Y-92775000D01*
X149110944Y-92775000D01*
X149110940Y-92775001D01*
X149038768Y-92809758D01*
X149038766Y-92809759D01*
X148988818Y-92872390D01*
X148988814Y-92872397D01*
X148970989Y-92950498D01*
X148970989Y-92950501D01*
X140727636Y-92950501D01*
X140710025Y-92861970D01*
X140654660Y-92779108D01*
X140604973Y-92745909D01*
X142613167Y-92745909D01*
X142630992Y-92824010D01*
X142630996Y-92824017D01*
X142680944Y-92886648D01*
X142680946Y-92886649D01*
X142753118Y-92921406D01*
X142753120Y-92921406D01*
X142753123Y-92921408D01*
X142753125Y-92921408D01*
X142833235Y-92921408D01*
X142833237Y-92921408D01*
X142905416Y-92886648D01*
X142955366Y-92824013D01*
X142956602Y-92818601D01*
X142973193Y-92745909D01*
X142973193Y-92745906D01*
X142962829Y-92700500D01*
X147294344Y-92700500D01*
X147314710Y-92789731D01*
X147314712Y-92789735D01*
X147371774Y-92861286D01*
X147371776Y-92861288D01*
X147454234Y-92900999D01*
X147454235Y-92900999D01*
X147454237Y-92901000D01*
X147454239Y-92901000D01*
X147545761Y-92901000D01*
X147545763Y-92901000D01*
X147628224Y-92861288D01*
X147685290Y-92789731D01*
X147699950Y-92725501D01*
X148198679Y-92725501D01*
X148216504Y-92803602D01*
X148216508Y-92803609D01*
X148266456Y-92866240D01*
X148266458Y-92866241D01*
X148338630Y-92900998D01*
X148338632Y-92900998D01*
X148338635Y-92901000D01*
X148338637Y-92901000D01*
X148418747Y-92901000D01*
X148418749Y-92901000D01*
X148490928Y-92866240D01*
X148540878Y-92803605D01*
X148540974Y-92803187D01*
X148558705Y-92725501D01*
X148558705Y-92725498D01*
X148540879Y-92647397D01*
X148540875Y-92647390D01*
X148490927Y-92584759D01*
X148490925Y-92584758D01*
X148418753Y-92550001D01*
X148418750Y-92550000D01*
X148418749Y-92550000D01*
X148338635Y-92550000D01*
X148338634Y-92550000D01*
X148338630Y-92550001D01*
X148266458Y-92584758D01*
X148266456Y-92584759D01*
X148216508Y-92647390D01*
X148216504Y-92647397D01*
X148198679Y-92725498D01*
X148198679Y-92725501D01*
X147699950Y-92725501D01*
X147705656Y-92700500D01*
X147685290Y-92611269D01*
X147685288Y-92611267D01*
X147685287Y-92611264D01*
X147628225Y-92539713D01*
X147628223Y-92539711D01*
X147545765Y-92500000D01*
X147545763Y-92500000D01*
X147454237Y-92500000D01*
X147454234Y-92500000D01*
X147371776Y-92539711D01*
X147371774Y-92539713D01*
X147314712Y-92611264D01*
X147314710Y-92611268D01*
X147294344Y-92700500D01*
X142962829Y-92700500D01*
X142955367Y-92667805D01*
X142955363Y-92667798D01*
X142905415Y-92605167D01*
X142905413Y-92605166D01*
X142833241Y-92570409D01*
X142833238Y-92570408D01*
X142833237Y-92570408D01*
X142753123Y-92570408D01*
X142753122Y-92570408D01*
X142753118Y-92570409D01*
X142680946Y-92605166D01*
X142680944Y-92605167D01*
X142630996Y-92667798D01*
X142630992Y-92667805D01*
X142613167Y-92745906D01*
X142613167Y-92745909D01*
X140604973Y-92745909D01*
X140571798Y-92723743D01*
X140474061Y-92704302D01*
X140474057Y-92704302D01*
X140376319Y-92723743D01*
X140293457Y-92779108D01*
X140238092Y-92861970D01*
X140218651Y-92959708D01*
X140218651Y-92959711D01*
X139197664Y-92959711D01*
X139187687Y-92915998D01*
X139187683Y-92915991D01*
X139141680Y-92858307D01*
X139137736Y-92853361D01*
X139137735Y-92853360D01*
X139137733Y-92853359D01*
X139065561Y-92818602D01*
X139065558Y-92818601D01*
X139065557Y-92818601D01*
X138985443Y-92818601D01*
X138985442Y-92818601D01*
X138985438Y-92818602D01*
X138913266Y-92853359D01*
X138913264Y-92853360D01*
X138863316Y-92915991D01*
X138863312Y-92915998D01*
X138845487Y-92994099D01*
X138845487Y-92994102D01*
X138079086Y-92994102D01*
X138063225Y-92974213D01*
X138063223Y-92974211D01*
X137980765Y-92934500D01*
X137980763Y-92934500D01*
X137889237Y-92934500D01*
X137889234Y-92934500D01*
X137806776Y-92974211D01*
X137806774Y-92974213D01*
X137749712Y-93045764D01*
X137749710Y-93045768D01*
X137729344Y-93135000D01*
X136743111Y-93135000D01*
X136764384Y-93108325D01*
X136778793Y-93045192D01*
X136800494Y-93014608D01*
X136837467Y-93008325D01*
X136847824Y-93011950D01*
X136884859Y-93029785D01*
X136884861Y-93029785D01*
X136884864Y-93029787D01*
X136884866Y-93029787D01*
X136976388Y-93029787D01*
X136976390Y-93029787D01*
X137058851Y-92990075D01*
X137103172Y-92934500D01*
X137115914Y-92918522D01*
X137115914Y-92918521D01*
X137115917Y-92918518D01*
X137136283Y-92829287D01*
X137115917Y-92740056D01*
X137115915Y-92740054D01*
X137115914Y-92740051D01*
X137058852Y-92668500D01*
X137058850Y-92668498D01*
X136976392Y-92628787D01*
X136976390Y-92628787D01*
X136884864Y-92628787D01*
X136884861Y-92628787D01*
X136802403Y-92668498D01*
X136802401Y-92668500D01*
X136745339Y-92740051D01*
X136745335Y-92740058D01*
X136730927Y-92803187D01*
X136709225Y-92833773D01*
X136672252Y-92840054D01*
X136661896Y-92836431D01*
X136624857Y-92818594D01*
X136533331Y-92818594D01*
X136533328Y-92818594D01*
X136450870Y-92858305D01*
X136450868Y-92858307D01*
X136393806Y-92929858D01*
X136393804Y-92929862D01*
X136373438Y-93019094D01*
X134750500Y-93019094D01*
X134750500Y-92499340D01*
X134750314Y-92497215D01*
X134750435Y-92497204D01*
X134750000Y-92492222D01*
X134750000Y-92390001D01*
X135694592Y-92390001D01*
X135714033Y-92487739D01*
X135769398Y-92570601D01*
X135852260Y-92625966D01*
X135949998Y-92645408D01*
X135950000Y-92645408D01*
X135950002Y-92645408D01*
X136033558Y-92628787D01*
X136047740Y-92625966D01*
X136130601Y-92570601D01*
X136185966Y-92487740D01*
X136205408Y-92390000D01*
X136204218Y-92384020D01*
X136185966Y-92292260D01*
X136130601Y-92209398D01*
X136047739Y-92154033D01*
X135950002Y-92134592D01*
X135949998Y-92134592D01*
X135852260Y-92154033D01*
X135769398Y-92209398D01*
X135714033Y-92292260D01*
X135694592Y-92389998D01*
X135694592Y-92390001D01*
X134750000Y-92390001D01*
X134750000Y-91548996D01*
X135481701Y-91548996D01*
X135499202Y-91636982D01*
X135549041Y-91711573D01*
X135598459Y-91744592D01*
X135623633Y-91761413D01*
X135711619Y-91778914D01*
X135799605Y-91761413D01*
X135874196Y-91711573D01*
X135924036Y-91636982D01*
X135941537Y-91548996D01*
X135924036Y-91461010D01*
X135896633Y-91419998D01*
X135874196Y-91386418D01*
X135799605Y-91336579D01*
X135711619Y-91319078D01*
X135623632Y-91336579D01*
X135549041Y-91386418D01*
X135499202Y-91461009D01*
X135481701Y-91548996D01*
X134750000Y-91548996D01*
X134750000Y-91301613D01*
X135992463Y-91301613D01*
X136011904Y-91399351D01*
X136067269Y-91482213D01*
X136150131Y-91537578D01*
X136247869Y-91557020D01*
X136247871Y-91557020D01*
X136247873Y-91557020D01*
X136313030Y-91544058D01*
X136345611Y-91537578D01*
X136428472Y-91482213D01*
X136483837Y-91399352D01*
X136496324Y-91336579D01*
X136503279Y-91301613D01*
X136503279Y-91301610D01*
X136483837Y-91203872D01*
X136428472Y-91121010D01*
X136345610Y-91065645D01*
X136247873Y-91046204D01*
X136247869Y-91046204D01*
X136150131Y-91065645D01*
X136067269Y-91121010D01*
X136011904Y-91203872D01*
X135992463Y-91301610D01*
X135992463Y-91301613D01*
X134750000Y-91301613D01*
X134750000Y-90951780D01*
X137216371Y-90951780D01*
X137235812Y-91049518D01*
X137291177Y-91132380D01*
X137378051Y-91190426D01*
X137377416Y-91191376D01*
X137400124Y-91214085D01*
X137400122Y-91251588D01*
X137395595Y-91260057D01*
X137354033Y-91322260D01*
X137334592Y-91419998D01*
X137334592Y-91420001D01*
X137354033Y-91517739D01*
X137409397Y-91600599D01*
X137409398Y-91600599D01*
X137409399Y-91600601D01*
X137452286Y-91629257D01*
X137473122Y-91660439D01*
X137465807Y-91697221D01*
X137452287Y-91710741D01*
X137409397Y-91739399D01*
X137354033Y-91822260D01*
X137334592Y-91919998D01*
X137334592Y-91920001D01*
X137354033Y-92017739D01*
X137409397Y-92100600D01*
X137452287Y-92129258D01*
X137473122Y-92160440D01*
X137465806Y-92197223D01*
X137452287Y-92210742D01*
X137409397Y-92239399D01*
X137354033Y-92322260D01*
X137334592Y-92419998D01*
X137334592Y-92420001D01*
X137354033Y-92517739D01*
X137409398Y-92600601D01*
X137492260Y-92655966D01*
X137589998Y-92675408D01*
X137590000Y-92675408D01*
X137590002Y-92675408D01*
X137663609Y-92660766D01*
X137687740Y-92655966D01*
X137770601Y-92600601D01*
X137825966Y-92517740D01*
X137844314Y-92425500D01*
X137845408Y-92420001D01*
X137845408Y-92419998D01*
X137825966Y-92322260D01*
X137773195Y-92243280D01*
X142169987Y-92243280D01*
X142187812Y-92321381D01*
X142187816Y-92321388D01*
X142237764Y-92384019D01*
X142237766Y-92384020D01*
X142309938Y-92418777D01*
X142309940Y-92418777D01*
X142309943Y-92418779D01*
X142309945Y-92418779D01*
X142390055Y-92418779D01*
X142390057Y-92418779D01*
X142462236Y-92384019D01*
X142506829Y-92328102D01*
X142512183Y-92321388D01*
X142512183Y-92321387D01*
X142512186Y-92321384D01*
X142518834Y-92292260D01*
X142528479Y-92250001D01*
X148969987Y-92250001D01*
X148987812Y-92328102D01*
X148987816Y-92328109D01*
X149037764Y-92390740D01*
X149037766Y-92390741D01*
X149109938Y-92425498D01*
X149109940Y-92425498D01*
X149109943Y-92425500D01*
X149109945Y-92425500D01*
X149190055Y-92425500D01*
X149190057Y-92425500D01*
X149262236Y-92390740D01*
X149312186Y-92328105D01*
X149320368Y-92292260D01*
X149330013Y-92250001D01*
X149330013Y-92244479D01*
X149331391Y-92244479D01*
X149336545Y-92214134D01*
X149367129Y-92192429D01*
X149399296Y-92196052D01*
X149460443Y-92225500D01*
X149460445Y-92225500D01*
X149540555Y-92225500D01*
X149540557Y-92225500D01*
X149612736Y-92190740D01*
X149657513Y-92134592D01*
X149662683Y-92128109D01*
X149662683Y-92128108D01*
X149662686Y-92128105D01*
X149666559Y-92111139D01*
X149680513Y-92050001D01*
X149680513Y-92049998D01*
X149662687Y-91971897D01*
X149662683Y-91971890D01*
X149612735Y-91909259D01*
X149612733Y-91909258D01*
X149540561Y-91874501D01*
X149540558Y-91874500D01*
X149540557Y-91874500D01*
X149460443Y-91874500D01*
X149460442Y-91874500D01*
X149460438Y-91874501D01*
X149388266Y-91909258D01*
X149388264Y-91909259D01*
X149338316Y-91971890D01*
X149338312Y-91971897D01*
X149320487Y-92049998D01*
X149320487Y-92055521D01*
X149319109Y-92055521D01*
X149313950Y-92085872D01*
X149283362Y-92107571D01*
X149251203Y-92103946D01*
X149190060Y-92074501D01*
X149190058Y-92074500D01*
X149190057Y-92074500D01*
X149109943Y-92074500D01*
X149109942Y-92074500D01*
X149109938Y-92074501D01*
X149037766Y-92109258D01*
X149037764Y-92109259D01*
X148987816Y-92171890D01*
X148987812Y-92171897D01*
X148969987Y-92249998D01*
X148969987Y-92250001D01*
X142528479Y-92250001D01*
X142530013Y-92243280D01*
X142530013Y-92243277D01*
X142512187Y-92165176D01*
X142512185Y-92165172D01*
X142499229Y-92148927D01*
X142463164Y-92103702D01*
X142452782Y-92067669D01*
X142470922Y-92034845D01*
X142485133Y-92028001D01*
X142485083Y-92027896D01*
X142529962Y-92006282D01*
X142562236Y-91990740D01*
X142612186Y-91928105D01*
X142614037Y-91919998D01*
X142623166Y-91880001D01*
X146264487Y-91880001D01*
X146282312Y-91958102D01*
X146282316Y-91958109D01*
X146332264Y-92020740D01*
X146332266Y-92020741D01*
X146404438Y-92055498D01*
X146404440Y-92055498D01*
X146404443Y-92055500D01*
X146404445Y-92055500D01*
X146484555Y-92055500D01*
X146484557Y-92055500D01*
X146556736Y-92020740D01*
X146606686Y-91958105D01*
X146613533Y-91928109D01*
X146619948Y-91900001D01*
X147829987Y-91900001D01*
X147847812Y-91978102D01*
X147847816Y-91978109D01*
X147897764Y-92040740D01*
X147897766Y-92040741D01*
X147969938Y-92075498D01*
X147969940Y-92075498D01*
X147969943Y-92075500D01*
X147969945Y-92075500D01*
X148050055Y-92075500D01*
X148050057Y-92075500D01*
X148122236Y-92040740D01*
X148172186Y-91978105D01*
X148173604Y-91971895D01*
X148190013Y-91900001D01*
X148190013Y-91899998D01*
X148172187Y-91821897D01*
X148172183Y-91821890D01*
X148122235Y-91759259D01*
X148122233Y-91759258D01*
X148050061Y-91724501D01*
X148050058Y-91724500D01*
X148050057Y-91724500D01*
X147969943Y-91724500D01*
X147969942Y-91724500D01*
X147969938Y-91724501D01*
X147897766Y-91759258D01*
X147897764Y-91759259D01*
X147847816Y-91821890D01*
X147847812Y-91821897D01*
X147829987Y-91899998D01*
X147829987Y-91900001D01*
X146619948Y-91900001D01*
X146624513Y-91880001D01*
X146624513Y-91879998D01*
X146606687Y-91801897D01*
X146606683Y-91801890D01*
X146556735Y-91739259D01*
X146556733Y-91739258D01*
X146484561Y-91704501D01*
X146484558Y-91704500D01*
X146484557Y-91704500D01*
X146404443Y-91704500D01*
X146404442Y-91704500D01*
X146404438Y-91704501D01*
X146332266Y-91739258D01*
X146332264Y-91739259D01*
X146282316Y-91801890D01*
X146282312Y-91801897D01*
X146264487Y-91879998D01*
X146264487Y-91880001D01*
X142623166Y-91880001D01*
X142630013Y-91850001D01*
X142630013Y-91849998D01*
X142612187Y-91771897D01*
X142612183Y-91771890D01*
X142570736Y-91719918D01*
X142562236Y-91709260D01*
X142562235Y-91709259D01*
X142562233Y-91709258D01*
X142490061Y-91674501D01*
X142490058Y-91674500D01*
X142490057Y-91674500D01*
X142409943Y-91674500D01*
X142409942Y-91674500D01*
X142409938Y-91674501D01*
X142337766Y-91709258D01*
X142337764Y-91709259D01*
X142287816Y-91771890D01*
X142287812Y-91771897D01*
X142269987Y-91849998D01*
X142269987Y-91850001D01*
X142287812Y-91928102D01*
X142287814Y-91928106D01*
X142305179Y-91949880D01*
X142336834Y-91989574D01*
X142347217Y-92025609D01*
X142329077Y-92058433D01*
X142314866Y-92065278D01*
X142314917Y-92065383D01*
X142237766Y-92102537D01*
X142237764Y-92102538D01*
X142187816Y-92165169D01*
X142187812Y-92165176D01*
X142169987Y-92243277D01*
X142169987Y-92243280D01*
X137773195Y-92243280D01*
X137770601Y-92239398D01*
X137727713Y-92210742D01*
X137706877Y-92179560D01*
X137714193Y-92142778D01*
X137727713Y-92129258D01*
X137770601Y-92100601D01*
X137780442Y-92085872D01*
X137825966Y-92017740D01*
X137843796Y-91928105D01*
X137845408Y-91920001D01*
X137845408Y-91919998D01*
X137837452Y-91880001D01*
X138595487Y-91880001D01*
X138613312Y-91958102D01*
X138613316Y-91958109D01*
X138663264Y-92020740D01*
X138663266Y-92020741D01*
X138735438Y-92055498D01*
X138735440Y-92055498D01*
X138735443Y-92055500D01*
X138735445Y-92055500D01*
X138815555Y-92055500D01*
X138815557Y-92055500D01*
X138887736Y-92020740D01*
X138937686Y-91958105D01*
X138944533Y-91928109D01*
X138955513Y-91880001D01*
X138955513Y-91879998D01*
X138937687Y-91801897D01*
X138937683Y-91801890D01*
X138887735Y-91739259D01*
X138887733Y-91739258D01*
X138815561Y-91704501D01*
X138815558Y-91704500D01*
X138815557Y-91704500D01*
X138735443Y-91704500D01*
X138735442Y-91704500D01*
X138735438Y-91704501D01*
X138663266Y-91739258D01*
X138663264Y-91739259D01*
X138613316Y-91801890D01*
X138613312Y-91801897D01*
X138595487Y-91879998D01*
X138595487Y-91880001D01*
X137837452Y-91880001D01*
X137825966Y-91822260D01*
X137770601Y-91739398D01*
X137727713Y-91710742D01*
X137706877Y-91679560D01*
X137714193Y-91642778D01*
X137727713Y-91629258D01*
X137770601Y-91600601D01*
X137799720Y-91557020D01*
X137825966Y-91517740D01*
X137835687Y-91468870D01*
X137845408Y-91420001D01*
X137845408Y-91419998D01*
X137825966Y-91322260D01*
X137770601Y-91239398D01*
X137683728Y-91181353D01*
X137684361Y-91180404D01*
X137674606Y-91170646D01*
X138475109Y-91170646D01*
X138494550Y-91268384D01*
X138549915Y-91351246D01*
X138632777Y-91406611D01*
X138730515Y-91426053D01*
X138730517Y-91426053D01*
X138730519Y-91426053D01*
X138821138Y-91408027D01*
X138828257Y-91406611D01*
X138911118Y-91351246D01*
X138966483Y-91268385D01*
X138977284Y-91214085D01*
X138985925Y-91170646D01*
X138985925Y-91170643D01*
X138969765Y-91089404D01*
X142457305Y-91089404D01*
X142477671Y-91178635D01*
X142477673Y-91178639D01*
X142534735Y-91250190D01*
X142534737Y-91250192D01*
X142617195Y-91289903D01*
X142617196Y-91289903D01*
X142617198Y-91289904D01*
X142617200Y-91289904D01*
X142708722Y-91289904D01*
X142708724Y-91289904D01*
X142791185Y-91250192D01*
X142805270Y-91232530D01*
X149108263Y-91232530D01*
X149126088Y-91310631D01*
X149126092Y-91310638D01*
X149176040Y-91373269D01*
X149176042Y-91373270D01*
X149248214Y-91408027D01*
X149248216Y-91408027D01*
X149248219Y-91408029D01*
X149248221Y-91408029D01*
X149328331Y-91408029D01*
X149328333Y-91408029D01*
X149400512Y-91373269D01*
X149450462Y-91310634D01*
X149452522Y-91301612D01*
X149468289Y-91232530D01*
X149468289Y-91232527D01*
X149450463Y-91154426D01*
X149450459Y-91154419D01*
X149400511Y-91091788D01*
X149400509Y-91091787D01*
X149328337Y-91057030D01*
X149328334Y-91057029D01*
X149328333Y-91057029D01*
X149248219Y-91057029D01*
X149248218Y-91057029D01*
X149248214Y-91057030D01*
X149176042Y-91091787D01*
X149176040Y-91091788D01*
X149126092Y-91154419D01*
X149126088Y-91154426D01*
X149108263Y-91232527D01*
X149108263Y-91232530D01*
X142805270Y-91232530D01*
X142843945Y-91184034D01*
X142848248Y-91178639D01*
X142848248Y-91178638D01*
X142848251Y-91178635D01*
X142868617Y-91089404D01*
X142848251Y-91000173D01*
X142848249Y-91000171D01*
X142848248Y-91000168D01*
X142791186Y-90928617D01*
X142791184Y-90928615D01*
X142708726Y-90888904D01*
X142708724Y-90888904D01*
X142617198Y-90888904D01*
X142617195Y-90888904D01*
X142534737Y-90928615D01*
X142534735Y-90928617D01*
X142477673Y-91000168D01*
X142477671Y-91000172D01*
X142457305Y-91089404D01*
X138969765Y-91089404D01*
X138966483Y-91072905D01*
X138911118Y-90990043D01*
X138828256Y-90934678D01*
X138730519Y-90915237D01*
X138730515Y-90915237D01*
X138632777Y-90934678D01*
X138549915Y-90990043D01*
X138494550Y-91072905D01*
X138475109Y-91170643D01*
X138475109Y-91170646D01*
X137674606Y-91170646D01*
X137661652Y-91157687D01*
X137661658Y-91120184D01*
X137666177Y-91111729D01*
X137707745Y-91049519D01*
X137724310Y-90966241D01*
X137727187Y-90951780D01*
X137727187Y-90951777D01*
X137717166Y-90901398D01*
X139846583Y-90901398D01*
X139864408Y-90979499D01*
X139864412Y-90979506D01*
X139914360Y-91042137D01*
X139914362Y-91042138D01*
X139986534Y-91076895D01*
X139986536Y-91076895D01*
X139986539Y-91076897D01*
X139986541Y-91076897D01*
X140066651Y-91076897D01*
X140066653Y-91076897D01*
X140138832Y-91042137D01*
X140188782Y-90979502D01*
X140195110Y-90951780D01*
X140206609Y-90901398D01*
X140206609Y-90901395D01*
X140189287Y-90825501D01*
X140619987Y-90825501D01*
X140637812Y-90903602D01*
X140637816Y-90903609D01*
X140687764Y-90966240D01*
X140687766Y-90966241D01*
X140759938Y-91000998D01*
X140759940Y-91000998D01*
X140759943Y-91001000D01*
X140759945Y-91001000D01*
X140840055Y-91001000D01*
X140840057Y-91001000D01*
X140912236Y-90966240D01*
X140962186Y-90903605D01*
X140962690Y-90901397D01*
X140974433Y-90849950D01*
X140981834Y-90839518D01*
X141065654Y-90839518D01*
X141069975Y-90849949D01*
X141087812Y-90928102D01*
X141087816Y-90928109D01*
X141137764Y-90990740D01*
X141137766Y-90990741D01*
X141209938Y-91025498D01*
X141209940Y-91025498D01*
X141209943Y-91025500D01*
X141209945Y-91025500D01*
X141290055Y-91025500D01*
X141290057Y-91025500D01*
X141362236Y-90990740D01*
X141411778Y-90928617D01*
X141412183Y-90928109D01*
X141412183Y-90928108D01*
X141412186Y-90928105D01*
X141418283Y-90901395D01*
X141430013Y-90850001D01*
X141430013Y-90849998D01*
X141412187Y-90771897D01*
X141412183Y-90771890D01*
X141362235Y-90709259D01*
X141362233Y-90709258D01*
X141290061Y-90674501D01*
X141290058Y-90674500D01*
X141290057Y-90674500D01*
X141209943Y-90674500D01*
X141209942Y-90674500D01*
X141209938Y-90674501D01*
X141137766Y-90709258D01*
X141137764Y-90709259D01*
X141087816Y-90771890D01*
X141087812Y-90771898D01*
X141075566Y-90825550D01*
X141065654Y-90839518D01*
X140981834Y-90839518D01*
X140984344Y-90835981D01*
X140980023Y-90825549D01*
X140980012Y-90825502D01*
X140980013Y-90825500D01*
X140962186Y-90747395D01*
X140962184Y-90747393D01*
X140962183Y-90747390D01*
X140912235Y-90684759D01*
X140912233Y-90684758D01*
X140840061Y-90650001D01*
X140840058Y-90650000D01*
X140840057Y-90650000D01*
X140759943Y-90650000D01*
X140759942Y-90650000D01*
X140759938Y-90650001D01*
X140687766Y-90684758D01*
X140687764Y-90684759D01*
X140637816Y-90747390D01*
X140637812Y-90747397D01*
X140619987Y-90825498D01*
X140619987Y-90825501D01*
X140189287Y-90825501D01*
X140188783Y-90823294D01*
X140188779Y-90823287D01*
X140138831Y-90760656D01*
X140138829Y-90760655D01*
X140066657Y-90725898D01*
X140066654Y-90725897D01*
X140066653Y-90725897D01*
X139986539Y-90725897D01*
X139986538Y-90725897D01*
X139986534Y-90725898D01*
X139914362Y-90760655D01*
X139914360Y-90760656D01*
X139864412Y-90823287D01*
X139864408Y-90823294D01*
X139846583Y-90901395D01*
X139846583Y-90901398D01*
X137717166Y-90901398D01*
X137707745Y-90854039D01*
X137652380Y-90771177D01*
X137569518Y-90715812D01*
X137471781Y-90696371D01*
X137471777Y-90696371D01*
X137374039Y-90715812D01*
X137291177Y-90771177D01*
X137235812Y-90854039D01*
X137216371Y-90951777D01*
X137216371Y-90951780D01*
X134750000Y-90951780D01*
X134750000Y-90444500D01*
X138084212Y-90444500D01*
X138101713Y-90532486D01*
X138151552Y-90607077D01*
X138191086Y-90633492D01*
X138226144Y-90656917D01*
X138314130Y-90674418D01*
X138402116Y-90656917D01*
X138476707Y-90607077D01*
X138481435Y-90600001D01*
X146694487Y-90600001D01*
X146712312Y-90678102D01*
X146712316Y-90678109D01*
X146762264Y-90740740D01*
X146762266Y-90740741D01*
X146834438Y-90775498D01*
X146834440Y-90775498D01*
X146834443Y-90775500D01*
X146834445Y-90775500D01*
X146914555Y-90775500D01*
X146914557Y-90775500D01*
X146986736Y-90740740D01*
X147036686Y-90678105D01*
X147041523Y-90656916D01*
X147054513Y-90600001D01*
X147054513Y-90599998D01*
X147036687Y-90521897D01*
X147036683Y-90521890D01*
X146986735Y-90459259D01*
X146986733Y-90459258D01*
X146925982Y-90430001D01*
X149109987Y-90430001D01*
X149127812Y-90508102D01*
X149127816Y-90508109D01*
X149177764Y-90570740D01*
X149177766Y-90570741D01*
X149249938Y-90605498D01*
X149249940Y-90605498D01*
X149249943Y-90605500D01*
X149249945Y-90605500D01*
X149330055Y-90605500D01*
X149330057Y-90605500D01*
X149402236Y-90570740D01*
X149452186Y-90508105D01*
X149457346Y-90485500D01*
X149470013Y-90430001D01*
X149470013Y-90429998D01*
X149452187Y-90351897D01*
X149452183Y-90351890D01*
X149402235Y-90289259D01*
X149402233Y-90289258D01*
X149330061Y-90254501D01*
X149330058Y-90254500D01*
X149330057Y-90254500D01*
X149249943Y-90254500D01*
X149249942Y-90254500D01*
X149249938Y-90254501D01*
X149177766Y-90289258D01*
X149177764Y-90289259D01*
X149127816Y-90351890D01*
X149127812Y-90351897D01*
X149109987Y-90429998D01*
X149109987Y-90430001D01*
X146925982Y-90430001D01*
X146914561Y-90424501D01*
X146914558Y-90424500D01*
X146914557Y-90424500D01*
X146834443Y-90424500D01*
X146834442Y-90424500D01*
X146834438Y-90424501D01*
X146762266Y-90459258D01*
X146762264Y-90459259D01*
X146712316Y-90521890D01*
X146712312Y-90521897D01*
X146694487Y-90599998D01*
X146694487Y-90600001D01*
X138481435Y-90600001D01*
X138526547Y-90532486D01*
X138544048Y-90444500D01*
X138526547Y-90356514D01*
X138495468Y-90310001D01*
X138476707Y-90281922D01*
X138402116Y-90232083D01*
X138314130Y-90214582D01*
X138226143Y-90232083D01*
X138151552Y-90281922D01*
X138101713Y-90356513D01*
X138084212Y-90444500D01*
X134750000Y-90444500D01*
X134750000Y-90135500D01*
X137527718Y-90135500D01*
X137545219Y-90223486D01*
X137595058Y-90298077D01*
X137644898Y-90331378D01*
X137669650Y-90347917D01*
X137757636Y-90365418D01*
X137845622Y-90347917D01*
X137920213Y-90298077D01*
X137970053Y-90223486D01*
X137987554Y-90135500D01*
X137970053Y-90047514D01*
X137965033Y-90040001D01*
X138924487Y-90040001D01*
X138942312Y-90118102D01*
X138942316Y-90118109D01*
X138992264Y-90180740D01*
X138992266Y-90180741D01*
X139064438Y-90215498D01*
X139064440Y-90215498D01*
X139064443Y-90215500D01*
X139064445Y-90215500D01*
X139144555Y-90215500D01*
X139144557Y-90215500D01*
X139216736Y-90180740D01*
X139265175Y-90120000D01*
X139266683Y-90118109D01*
X139266683Y-90118108D01*
X139266686Y-90118105D01*
X139270933Y-90099501D01*
X141069987Y-90099501D01*
X141087812Y-90177602D01*
X141087816Y-90177609D01*
X141137764Y-90240240D01*
X141137766Y-90240241D01*
X141209938Y-90274998D01*
X141209940Y-90274998D01*
X141209943Y-90275000D01*
X141209945Y-90275000D01*
X141290055Y-90275000D01*
X141290057Y-90275000D01*
X141362236Y-90240240D01*
X141412186Y-90177605D01*
X141417945Y-90152376D01*
X141430013Y-90099501D01*
X141430013Y-90099498D01*
X141424256Y-90074275D01*
X142038890Y-90074275D01*
X142056715Y-90152376D01*
X142056719Y-90152383D01*
X142106667Y-90215014D01*
X142106669Y-90215015D01*
X142178841Y-90249772D01*
X142178843Y-90249772D01*
X142178846Y-90249774D01*
X142178848Y-90249774D01*
X142249232Y-90249774D01*
X142283880Y-90264126D01*
X142298232Y-90298774D01*
X142297004Y-90309676D01*
X142296930Y-90310000D01*
X142296930Y-90310001D01*
X142314755Y-90388102D01*
X142314759Y-90388109D01*
X142364707Y-90450740D01*
X142364709Y-90450741D01*
X142436881Y-90485498D01*
X142436883Y-90485498D01*
X142436886Y-90485500D01*
X142436888Y-90485500D01*
X142516998Y-90485500D01*
X142517000Y-90485500D01*
X142589179Y-90450740D01*
X142639129Y-90388105D01*
X142644308Y-90365417D01*
X142656956Y-90310001D01*
X142656956Y-90309998D01*
X142639130Y-90231897D01*
X142639126Y-90231890D01*
X142589178Y-90169259D01*
X142589176Y-90169258D01*
X142517004Y-90134501D01*
X142517001Y-90134500D01*
X142517000Y-90134500D01*
X142446614Y-90134500D01*
X142411966Y-90120148D01*
X142411905Y-90120001D01*
X148599987Y-90120001D01*
X148617812Y-90198102D01*
X148617816Y-90198109D01*
X148667764Y-90260740D01*
X148667766Y-90260741D01*
X148739938Y-90295498D01*
X148739940Y-90295498D01*
X148739943Y-90295500D01*
X148739945Y-90295500D01*
X148820055Y-90295500D01*
X148820057Y-90295500D01*
X148892236Y-90260740D01*
X148942186Y-90198105D01*
X148946150Y-90180741D01*
X148960013Y-90120001D01*
X148960013Y-90119998D01*
X148942187Y-90041897D01*
X148942183Y-90041890D01*
X148892235Y-89979259D01*
X148892233Y-89979258D01*
X148820061Y-89944501D01*
X148820058Y-89944500D01*
X148820057Y-89944500D01*
X148739943Y-89944500D01*
X148739942Y-89944500D01*
X148739938Y-89944501D01*
X148667766Y-89979258D01*
X148667764Y-89979259D01*
X148617816Y-90041890D01*
X148617812Y-90041897D01*
X148599987Y-90119998D01*
X148599987Y-90120001D01*
X142411905Y-90120001D01*
X142397614Y-90085500D01*
X142398842Y-90074598D01*
X142398916Y-90074273D01*
X142398916Y-90074272D01*
X142381090Y-89996171D01*
X142381086Y-89996164D01*
X142331138Y-89933533D01*
X142331136Y-89933532D01*
X142258964Y-89898775D01*
X142258961Y-89898774D01*
X142258960Y-89898774D01*
X142178846Y-89898774D01*
X142178845Y-89898774D01*
X142178841Y-89898775D01*
X142106669Y-89933532D01*
X142106667Y-89933533D01*
X142056719Y-89996164D01*
X142056715Y-89996171D01*
X142038890Y-90074272D01*
X142038890Y-90074275D01*
X141424256Y-90074275D01*
X141412187Y-90021397D01*
X141412183Y-90021390D01*
X141362235Y-89958759D01*
X141362233Y-89958758D01*
X141290061Y-89924001D01*
X141290058Y-89924000D01*
X141290057Y-89924000D01*
X141209943Y-89924000D01*
X141209942Y-89924000D01*
X141209938Y-89924001D01*
X141137766Y-89958758D01*
X141137764Y-89958759D01*
X141087816Y-90021390D01*
X141087812Y-90021397D01*
X141069987Y-90099498D01*
X141069987Y-90099501D01*
X139270933Y-90099501D01*
X139284513Y-90040001D01*
X139284513Y-90039998D01*
X139266687Y-89961897D01*
X139266683Y-89961890D01*
X139216735Y-89899259D01*
X139216733Y-89899258D01*
X139144561Y-89864501D01*
X139144558Y-89864500D01*
X139144557Y-89864500D01*
X139064443Y-89864500D01*
X139064442Y-89864500D01*
X139064438Y-89864501D01*
X138992266Y-89899258D01*
X138992264Y-89899259D01*
X138942316Y-89961890D01*
X138942312Y-89961897D01*
X138924487Y-90039998D01*
X138924487Y-90040001D01*
X137965033Y-90040001D01*
X137935747Y-89996171D01*
X137920213Y-89972922D01*
X137845622Y-89923083D01*
X137757636Y-89905582D01*
X137669649Y-89923083D01*
X137595058Y-89972922D01*
X137545219Y-90047513D01*
X137527718Y-90135500D01*
X134750000Y-90135500D01*
X134750000Y-89757778D01*
X134750436Y-89752798D01*
X134750313Y-89752788D01*
X134750498Y-89750661D01*
X134750500Y-89750656D01*
X134750500Y-89650000D01*
X134750500Y-89615649D01*
X134750500Y-88500801D01*
X134750526Y-88500000D01*
X135244843Y-88500000D01*
X135265431Y-88735323D01*
X135265432Y-88735329D01*
X135326566Y-88963483D01*
X135326568Y-88963488D01*
X135426398Y-89177577D01*
X135426405Y-89177589D01*
X135561885Y-89371072D01*
X135561891Y-89371079D01*
X135602979Y-89412167D01*
X136135233Y-88879912D01*
X136172075Y-88927925D01*
X136220086Y-88964765D01*
X135687832Y-89497019D01*
X135728927Y-89538114D01*
X135922410Y-89673594D01*
X135922422Y-89673601D01*
X136136511Y-89773431D01*
X136136516Y-89773433D01*
X136364670Y-89834567D01*
X136364676Y-89834568D01*
X136600000Y-89855156D01*
X136835323Y-89834568D01*
X136835329Y-89834567D01*
X137063483Y-89773433D01*
X137063488Y-89773431D01*
X137277577Y-89673601D01*
X137277589Y-89673594D01*
X137418392Y-89575001D01*
X143619987Y-89575001D01*
X143637812Y-89653102D01*
X143637816Y-89653109D01*
X143687764Y-89715740D01*
X143687766Y-89715741D01*
X143759938Y-89750498D01*
X143759940Y-89750498D01*
X143759943Y-89750500D01*
X143759945Y-89750500D01*
X143840055Y-89750500D01*
X143840057Y-89750500D01*
X143912236Y-89715740D01*
X143962186Y-89653105D01*
X143970736Y-89615648D01*
X143974307Y-89600000D01*
X145606844Y-89600000D01*
X145627210Y-89689231D01*
X145627212Y-89689235D01*
X145684274Y-89760786D01*
X145684276Y-89760788D01*
X145766734Y-89800499D01*
X145766735Y-89800499D01*
X145766737Y-89800500D01*
X145766739Y-89800500D01*
X145858261Y-89800500D01*
X145858263Y-89800500D01*
X145940724Y-89760788D01*
X145997790Y-89689231D01*
X146018156Y-89600000D01*
X145997790Y-89510769D01*
X145997788Y-89510767D01*
X145997787Y-89510764D01*
X145940725Y-89439213D01*
X145940723Y-89439211D01*
X145858265Y-89399500D01*
X145858263Y-89399500D01*
X145766737Y-89399500D01*
X145766734Y-89399500D01*
X145684276Y-89439211D01*
X145684274Y-89439213D01*
X145627212Y-89510764D01*
X145627210Y-89510768D01*
X145606844Y-89600000D01*
X143974307Y-89600000D01*
X143980013Y-89575001D01*
X143980013Y-89574998D01*
X143962187Y-89496897D01*
X143962183Y-89496890D01*
X143912235Y-89434259D01*
X143912233Y-89434258D01*
X143840061Y-89399501D01*
X143840058Y-89399500D01*
X143840057Y-89399500D01*
X143759943Y-89399500D01*
X143759942Y-89399500D01*
X143759938Y-89399501D01*
X143687766Y-89434258D01*
X143687764Y-89434259D01*
X143637816Y-89496890D01*
X143637812Y-89496897D01*
X143619987Y-89574998D01*
X143619987Y-89575001D01*
X137418392Y-89575001D01*
X137471076Y-89538111D01*
X137512167Y-89497019D01*
X136979913Y-88964765D01*
X137027925Y-88927925D01*
X137064765Y-88879913D01*
X137597019Y-89412167D01*
X137597020Y-89412167D01*
X137638111Y-89371076D01*
X137712387Y-89265001D01*
X139295687Y-89265001D01*
X139313512Y-89343102D01*
X139313516Y-89343109D01*
X139363464Y-89405740D01*
X139363466Y-89405741D01*
X139435638Y-89440498D01*
X139435640Y-89440498D01*
X139435643Y-89440500D01*
X139435645Y-89440500D01*
X139515755Y-89440500D01*
X139515757Y-89440500D01*
X139587936Y-89405740D01*
X139637886Y-89343105D01*
X139655713Y-89265000D01*
X139655713Y-89264998D01*
X139637887Y-89186897D01*
X139637883Y-89186890D01*
X139587935Y-89124259D01*
X139587933Y-89124258D01*
X139515761Y-89089501D01*
X139515758Y-89089500D01*
X139515757Y-89089500D01*
X139435643Y-89089500D01*
X139435642Y-89089500D01*
X139435638Y-89089501D01*
X139363466Y-89124258D01*
X139363464Y-89124259D01*
X139313516Y-89186890D01*
X139313512Y-89186897D01*
X139295687Y-89264998D01*
X139295687Y-89265001D01*
X137712387Y-89265001D01*
X137773594Y-89177589D01*
X137773601Y-89177577D01*
X137873431Y-88963488D01*
X137873433Y-88963483D01*
X137934567Y-88735329D01*
X137934568Y-88735323D01*
X137955156Y-88500000D01*
X147244843Y-88500000D01*
X147265431Y-88735323D01*
X147265432Y-88735329D01*
X147326566Y-88963483D01*
X147326568Y-88963488D01*
X147426398Y-89177577D01*
X147426405Y-89177589D01*
X147561885Y-89371072D01*
X147561891Y-89371079D01*
X147602979Y-89412167D01*
X148135233Y-88879912D01*
X148172075Y-88927925D01*
X148220086Y-88964765D01*
X147687832Y-89497020D01*
X147728920Y-89538108D01*
X147728927Y-89538114D01*
X147922410Y-89673594D01*
X147922422Y-89673601D01*
X148136511Y-89773431D01*
X148136516Y-89773433D01*
X148364670Y-89834567D01*
X148364676Y-89834568D01*
X148600000Y-89855156D01*
X148835323Y-89834568D01*
X148835329Y-89834567D01*
X149063483Y-89773433D01*
X149063488Y-89773431D01*
X149277577Y-89673601D01*
X149277589Y-89673594D01*
X149471076Y-89538111D01*
X149512167Y-89497019D01*
X148979913Y-88964765D01*
X149027925Y-88927925D01*
X149064765Y-88879913D01*
X149597019Y-89412167D01*
X149597020Y-89412167D01*
X149638111Y-89371076D01*
X149773594Y-89177589D01*
X149773601Y-89177577D01*
X149873431Y-88963488D01*
X149873433Y-88963483D01*
X149934567Y-88735329D01*
X149934568Y-88735323D01*
X149955156Y-88500000D01*
X149934568Y-88264676D01*
X149934567Y-88264670D01*
X149873433Y-88036516D01*
X149873432Y-88036511D01*
X149773601Y-87822423D01*
X149773594Y-87822411D01*
X149638114Y-87628927D01*
X149638108Y-87628920D01*
X149597020Y-87587832D01*
X149064765Y-88120086D01*
X149027925Y-88072075D01*
X148979912Y-88035234D01*
X149512167Y-87502980D01*
X149512167Y-87502979D01*
X149471073Y-87461886D01*
X149471072Y-87461885D01*
X149277589Y-87326405D01*
X149277577Y-87326398D01*
X149063488Y-87226568D01*
X149063483Y-87226566D01*
X148835329Y-87165432D01*
X148835323Y-87165431D01*
X148599999Y-87144843D01*
X148364676Y-87165431D01*
X148364670Y-87165432D01*
X148136516Y-87226566D01*
X148136511Y-87226567D01*
X147922423Y-87326398D01*
X147922411Y-87326405D01*
X147728927Y-87461885D01*
X147728926Y-87461886D01*
X147687832Y-87502979D01*
X148220087Y-88035234D01*
X148172075Y-88072075D01*
X148135233Y-88120086D01*
X147602979Y-87587832D01*
X147561886Y-87628926D01*
X147561885Y-87628927D01*
X147426405Y-87822411D01*
X147426398Y-87822423D01*
X147326567Y-88036511D01*
X147326566Y-88036516D01*
X147265432Y-88264670D01*
X147265431Y-88264676D01*
X147244843Y-88500000D01*
X137955156Y-88500000D01*
X137934568Y-88264676D01*
X137934567Y-88264670D01*
X137873433Y-88036516D01*
X137873432Y-88036511D01*
X137773601Y-87822423D01*
X137773594Y-87822411D01*
X137712388Y-87735001D01*
X139295687Y-87735001D01*
X139313512Y-87813102D01*
X139313516Y-87813109D01*
X139363464Y-87875740D01*
X139363466Y-87875741D01*
X139435638Y-87910498D01*
X139435640Y-87910498D01*
X139435643Y-87910500D01*
X139435645Y-87910500D01*
X139515755Y-87910500D01*
X139515757Y-87910500D01*
X139587936Y-87875740D01*
X139637886Y-87813105D01*
X139642652Y-87792227D01*
X139655713Y-87735001D01*
X139655713Y-87734998D01*
X139637887Y-87656897D01*
X139637883Y-87656890D01*
X139587935Y-87594259D01*
X139587933Y-87594258D01*
X139515761Y-87559501D01*
X139515758Y-87559500D01*
X139515757Y-87559500D01*
X139435643Y-87559500D01*
X139435642Y-87559500D01*
X139435638Y-87559501D01*
X139363466Y-87594258D01*
X139363464Y-87594259D01*
X139313516Y-87656890D01*
X139313512Y-87656897D01*
X139295687Y-87734998D01*
X139295687Y-87735001D01*
X137712388Y-87735001D01*
X137638114Y-87628927D01*
X137638108Y-87628920D01*
X137597020Y-87587832D01*
X137064765Y-88120086D01*
X137027925Y-88072075D01*
X136979911Y-88035233D01*
X137512167Y-87502979D01*
X137471079Y-87461891D01*
X137471072Y-87461885D01*
X137277589Y-87326405D01*
X137277577Y-87326398D01*
X137063488Y-87226568D01*
X137063483Y-87226566D01*
X136835329Y-87165432D01*
X136835323Y-87165431D01*
X136599999Y-87144843D01*
X136364676Y-87165431D01*
X136364670Y-87165432D01*
X136136516Y-87226566D01*
X136136511Y-87226567D01*
X135922423Y-87326398D01*
X135922411Y-87326405D01*
X135728927Y-87461885D01*
X135728926Y-87461886D01*
X135687832Y-87502979D01*
X136220087Y-88035234D01*
X136172075Y-88072075D01*
X136135234Y-88120086D01*
X135602979Y-87587832D01*
X135561886Y-87628926D01*
X135561885Y-87628927D01*
X135426405Y-87822411D01*
X135426398Y-87822423D01*
X135326567Y-88036511D01*
X135326566Y-88036516D01*
X135265432Y-88264670D01*
X135265431Y-88264676D01*
X135244843Y-88500000D01*
X134750526Y-88500000D01*
X134750551Y-88499215D01*
X134766218Y-88260190D01*
X134766637Y-88257011D01*
X134813210Y-88022870D01*
X134814034Y-88019799D01*
X134890771Y-87793741D01*
X134891997Y-87790783D01*
X134997580Y-87576679D01*
X134999172Y-87573923D01*
X135131807Y-87375421D01*
X135133745Y-87372896D01*
X135291158Y-87193400D01*
X135293400Y-87191158D01*
X135454359Y-87050001D01*
X139669987Y-87050001D01*
X139687812Y-87128102D01*
X139687816Y-87128109D01*
X139737764Y-87190740D01*
X139737766Y-87190741D01*
X139809938Y-87225498D01*
X139809940Y-87225498D01*
X139809943Y-87225500D01*
X139809945Y-87225500D01*
X139890055Y-87225500D01*
X139890057Y-87225500D01*
X139962236Y-87190740D01*
X139986690Y-87160075D01*
X140019514Y-87141934D01*
X140055551Y-87152317D01*
X140063309Y-87160075D01*
X140087764Y-87190740D01*
X140087766Y-87190741D01*
X140159938Y-87225498D01*
X140159940Y-87225498D01*
X140159943Y-87225500D01*
X140159945Y-87225500D01*
X140240055Y-87225500D01*
X140240057Y-87225500D01*
X140312236Y-87190740D01*
X140362186Y-87128105D01*
X140380013Y-87050000D01*
X140363257Y-86976587D01*
X140362187Y-86971897D01*
X140362183Y-86971890D01*
X140312235Y-86909259D01*
X140312233Y-86909258D01*
X140240061Y-86874501D01*
X140240058Y-86874500D01*
X140240057Y-86874500D01*
X140159943Y-86874500D01*
X140159942Y-86874500D01*
X140159938Y-86874501D01*
X140087766Y-86909258D01*
X140063309Y-86939925D01*
X140030485Y-86958065D01*
X139994448Y-86947682D01*
X139986691Y-86939925D01*
X139981768Y-86933752D01*
X139962236Y-86909260D01*
X139962233Y-86909258D01*
X139890061Y-86874501D01*
X139890058Y-86874500D01*
X139890057Y-86874500D01*
X139809943Y-86874500D01*
X139809942Y-86874500D01*
X139809938Y-86874501D01*
X139737766Y-86909258D01*
X139737764Y-86909259D01*
X139687816Y-86971890D01*
X139687812Y-86971897D01*
X139669987Y-87049998D01*
X139669987Y-87050001D01*
X135454359Y-87050001D01*
X135472896Y-87033745D01*
X135475421Y-87031807D01*
X135673923Y-86899172D01*
X135676679Y-86897580D01*
X135890784Y-86791996D01*
X135893741Y-86790771D01*
X136119802Y-86714032D01*
X136122870Y-86713210D01*
X136357018Y-86666636D01*
X136360190Y-86666218D01*
X136599215Y-86650551D01*
X136600801Y-86650500D01*
X142633766Y-86650500D01*
X142633767Y-86650500D01*
X142708434Y-86635648D01*
X142791442Y-86619137D01*
X142828224Y-86626453D01*
X142834880Y-86636416D01*
X142835649Y-86635648D01*
X142850001Y-86650000D01*
X144450001Y-86650000D01*
X144450001Y-86628223D01*
X144464353Y-86593575D01*
X144499001Y-86579223D01*
X144517752Y-86582952D01*
G37*
%TD.AperFunction*%
%TA.AperFunction,Conductor*%
G36*
X159835148Y-65164852D02*
G01*
X159849500Y-65199500D01*
X159849500Y-124800500D01*
X159835148Y-124835148D01*
X159800500Y-124849500D01*
X100199500Y-124849500D01*
X100164852Y-124835148D01*
X100150500Y-124800500D01*
X100150500Y-98496947D01*
X115387018Y-98496947D01*
X115417563Y-98722439D01*
X115487880Y-98938850D01*
X115487880Y-98938851D01*
X115595710Y-99139232D01*
X115737585Y-99317138D01*
X115908948Y-99466853D01*
X116104289Y-99583564D01*
X116175066Y-99610127D01*
X116317326Y-99663519D01*
X116317328Y-99663519D01*
X116317330Y-99663520D01*
X116541224Y-99704150D01*
X116541229Y-99704150D01*
X116711769Y-99704150D01*
X116711775Y-99704150D01*
X116881635Y-99688862D01*
X117100986Y-99628325D01*
X117306003Y-99529595D01*
X117490095Y-99395843D01*
X117647347Y-99231371D01*
X117772705Y-99041463D01*
X117862138Y-98832223D01*
X117912773Y-98610377D01*
X117917867Y-98496947D01*
X118562018Y-98496947D01*
X118592563Y-98722439D01*
X118662880Y-98938850D01*
X118662880Y-98938851D01*
X118770710Y-99139232D01*
X118912585Y-99317138D01*
X119083948Y-99466853D01*
X119279289Y-99583564D01*
X119350066Y-99610127D01*
X119492326Y-99663519D01*
X119492328Y-99663519D01*
X119492330Y-99663520D01*
X119716224Y-99704150D01*
X119716229Y-99704150D01*
X119886769Y-99704150D01*
X119886775Y-99704150D01*
X120056635Y-99688862D01*
X120275986Y-99628325D01*
X120481003Y-99529595D01*
X120665095Y-99395843D01*
X120822347Y-99231371D01*
X120947705Y-99041463D01*
X121037138Y-98832223D01*
X121087773Y-98610377D01*
X121097982Y-98383055D01*
X121067437Y-98157563D01*
X120997120Y-97941149D01*
X120889290Y-97740768D01*
X120747415Y-97562862D01*
X120576052Y-97413147D01*
X120511368Y-97374500D01*
X120380712Y-97296436D01*
X120167673Y-97216480D01*
X120083709Y-97201243D01*
X119943776Y-97175850D01*
X119773225Y-97175850D01*
X119603365Y-97191138D01*
X119603363Y-97191138D01*
X119603357Y-97191139D01*
X119384018Y-97251673D01*
X119179000Y-97350403D01*
X119178997Y-97350404D01*
X119178997Y-97350405D01*
X119145832Y-97374501D01*
X118994902Y-97484159D01*
X118837652Y-97648628D01*
X118712295Y-97838537D01*
X118712292Y-97838542D01*
X118622861Y-98047776D01*
X118622860Y-98047781D01*
X118572227Y-98269619D01*
X118562018Y-98496947D01*
X117917867Y-98496947D01*
X117922982Y-98383055D01*
X117892437Y-98157563D01*
X117822120Y-97941149D01*
X117714290Y-97740768D01*
X117572415Y-97562862D01*
X117401052Y-97413147D01*
X117336368Y-97374500D01*
X117278627Y-97340001D01*
X117744592Y-97340001D01*
X117764033Y-97437739D01*
X117819398Y-97520601D01*
X117902260Y-97575966D01*
X117999998Y-97595408D01*
X118000000Y-97595408D01*
X118000002Y-97595408D01*
X118065159Y-97582446D01*
X118097740Y-97575966D01*
X118180601Y-97520601D01*
X118235966Y-97437740D01*
X118253796Y-97348105D01*
X118255408Y-97340001D01*
X118255408Y-97339998D01*
X118235966Y-97242260D01*
X118180601Y-97159398D01*
X118097739Y-97104033D01*
X118000002Y-97084592D01*
X117999998Y-97084592D01*
X117902260Y-97104033D01*
X117819398Y-97159398D01*
X117764033Y-97242260D01*
X117744592Y-97339998D01*
X117744592Y-97340001D01*
X117278627Y-97340001D01*
X117205712Y-97296436D01*
X116992673Y-97216480D01*
X116908709Y-97201243D01*
X116768776Y-97175850D01*
X116598225Y-97175850D01*
X116428365Y-97191138D01*
X116428363Y-97191138D01*
X116428357Y-97191139D01*
X116209018Y-97251673D01*
X116004000Y-97350403D01*
X116003997Y-97350404D01*
X116003997Y-97350405D01*
X115970832Y-97374501D01*
X115819902Y-97484159D01*
X115662652Y-97648628D01*
X115537295Y-97838537D01*
X115537292Y-97838542D01*
X115447861Y-98047776D01*
X115447860Y-98047781D01*
X115397227Y-98269619D01*
X115387018Y-98496947D01*
X100150500Y-98496947D01*
X100150500Y-96915999D01*
X114173064Y-96915999D01*
X114192722Y-97065321D01*
X114250356Y-97204463D01*
X114250359Y-97204468D01*
X114336123Y-97316238D01*
X114342045Y-97323955D01*
X114461532Y-97415641D01*
X114461534Y-97415641D01*
X114461536Y-97415643D01*
X114533613Y-97445498D01*
X114600678Y-97473277D01*
X114712508Y-97488000D01*
X114712510Y-97488000D01*
X114787489Y-97488000D01*
X114787492Y-97488000D01*
X114899322Y-97473277D01*
X115038468Y-97415641D01*
X115157955Y-97323955D01*
X115249641Y-97204468D01*
X115307277Y-97065322D01*
X115326936Y-96916000D01*
X115307277Y-96766678D01*
X115266206Y-96667523D01*
X115249643Y-96627536D01*
X115249640Y-96627531D01*
X115157955Y-96508045D01*
X115157954Y-96508044D01*
X115038468Y-96416359D01*
X115038463Y-96416356D01*
X114899321Y-96358722D01*
X114813510Y-96347425D01*
X114787492Y-96344000D01*
X114712508Y-96344000D01*
X114689200Y-96347068D01*
X114600678Y-96358722D01*
X114461536Y-96416356D01*
X114461531Y-96416359D01*
X114342045Y-96508044D01*
X114342044Y-96508045D01*
X114250359Y-96627531D01*
X114250356Y-96627536D01*
X114192722Y-96766678D01*
X114173064Y-96915999D01*
X100150500Y-96915999D01*
X100150500Y-95900000D01*
X119253064Y-95900000D01*
X119272722Y-96049321D01*
X119330356Y-96188463D01*
X119330359Y-96188468D01*
X119399102Y-96278056D01*
X119422045Y-96307955D01*
X119541532Y-96399641D01*
X119541534Y-96399641D01*
X119541536Y-96399643D01*
X119587776Y-96418796D01*
X119680678Y-96457277D01*
X119792508Y-96472000D01*
X119792510Y-96472000D01*
X119867489Y-96472000D01*
X119867492Y-96472000D01*
X119979322Y-96457277D01*
X120118468Y-96399641D01*
X120237955Y-96307955D01*
X120329641Y-96188468D01*
X120358001Y-96120001D01*
X122954592Y-96120001D01*
X122974033Y-96217739D01*
X123029398Y-96300601D01*
X123112260Y-96355966D01*
X123209998Y-96375408D01*
X123210000Y-96375408D01*
X123210002Y-96375408D01*
X123275159Y-96362446D01*
X123307740Y-96355966D01*
X123390601Y-96300601D01*
X123445966Y-96217740D01*
X123464890Y-96122605D01*
X123465408Y-96120001D01*
X123465408Y-96119998D01*
X123445966Y-96022260D01*
X123390601Y-95939398D01*
X123307739Y-95884033D01*
X123210002Y-95864592D01*
X123209998Y-95864592D01*
X123112260Y-95884033D01*
X123029398Y-95939398D01*
X122974033Y-96022260D01*
X122954592Y-96119998D01*
X122954592Y-96120001D01*
X120358001Y-96120001D01*
X120387277Y-96049322D01*
X120406936Y-95900000D01*
X120387277Y-95750678D01*
X120354642Y-95671890D01*
X120329643Y-95611536D01*
X120329640Y-95611531D01*
X120327897Y-95609260D01*
X120237955Y-95492045D01*
X120214481Y-95474033D01*
X120118468Y-95400359D01*
X120118463Y-95400356D01*
X119979321Y-95342722D01*
X119893510Y-95331425D01*
X119867492Y-95328000D01*
X119792508Y-95328000D01*
X119769200Y-95331068D01*
X119680678Y-95342722D01*
X119541536Y-95400356D01*
X119541531Y-95400359D01*
X119422045Y-95492044D01*
X119422044Y-95492045D01*
X119330359Y-95611531D01*
X119330356Y-95611536D01*
X119272722Y-95750678D01*
X119253064Y-95900000D01*
X100150500Y-95900000D01*
X100150500Y-94884000D01*
X114173064Y-94884000D01*
X114175652Y-94903658D01*
X114192722Y-95033321D01*
X114250356Y-95172463D01*
X114250359Y-95172468D01*
X114342045Y-95291955D01*
X114461532Y-95383641D01*
X114461534Y-95383641D01*
X114461536Y-95383643D01*
X114599382Y-95440740D01*
X114600678Y-95441277D01*
X114712508Y-95456000D01*
X114712510Y-95456000D01*
X114787489Y-95456000D01*
X114787492Y-95456000D01*
X114899322Y-95441277D01*
X115038468Y-95383641D01*
X115157955Y-95291955D01*
X115249641Y-95172468D01*
X115307277Y-95033322D01*
X115318905Y-94945001D01*
X119944592Y-94945001D01*
X119964033Y-95042739D01*
X120019398Y-95125601D01*
X120102260Y-95180966D01*
X120199998Y-95200408D01*
X120200000Y-95200408D01*
X120200002Y-95200408D01*
X120265160Y-95187446D01*
X120297740Y-95180966D01*
X120380601Y-95125601D01*
X120435966Y-95042740D01*
X120455408Y-94945000D01*
X120435966Y-94847260D01*
X120389757Y-94778102D01*
X120380601Y-94764398D01*
X120297739Y-94709033D01*
X120200002Y-94689592D01*
X120199998Y-94689592D01*
X120102260Y-94709033D01*
X120019398Y-94764398D01*
X119964033Y-94847260D01*
X119944592Y-94944998D01*
X119944592Y-94945001D01*
X115318905Y-94945001D01*
X115326936Y-94884000D01*
X115307277Y-94734678D01*
X115281272Y-94671895D01*
X115249643Y-94595536D01*
X115249640Y-94595531D01*
X115233502Y-94574500D01*
X115157955Y-94476045D01*
X115156228Y-94474720D01*
X115038468Y-94384359D01*
X115038463Y-94384356D01*
X114899321Y-94326722D01*
X114813510Y-94315425D01*
X114787492Y-94312000D01*
X114712508Y-94312000D01*
X114689200Y-94315068D01*
X114600678Y-94326722D01*
X114461536Y-94384356D01*
X114461531Y-94384359D01*
X114342045Y-94476044D01*
X114342044Y-94476045D01*
X114250359Y-94595531D01*
X114250356Y-94595536D01*
X114192722Y-94734678D01*
X114174183Y-94875498D01*
X114173064Y-94884000D01*
X100150500Y-94884000D01*
X100150500Y-93416947D01*
X115387018Y-93416947D01*
X115417563Y-93642439D01*
X115484141Y-93847344D01*
X115487880Y-93858851D01*
X115595710Y-94059232D01*
X115737585Y-94237138D01*
X115908948Y-94386853D01*
X116104289Y-94503564D01*
X116160073Y-94524500D01*
X116317326Y-94583519D01*
X116317328Y-94583519D01*
X116317330Y-94583520D01*
X116541224Y-94624150D01*
X116541229Y-94624150D01*
X116711769Y-94624150D01*
X116711775Y-94624150D01*
X116881635Y-94608862D01*
X117100986Y-94548325D01*
X117306003Y-94449595D01*
X117490095Y-94315843D01*
X117647347Y-94151371D01*
X117772705Y-93961463D01*
X117862138Y-93752223D01*
X117912773Y-93530377D01*
X117917867Y-93416947D01*
X118562018Y-93416947D01*
X118592563Y-93642439D01*
X118659141Y-93847344D01*
X118662880Y-93858851D01*
X118770710Y-94059232D01*
X118912585Y-94237138D01*
X119083948Y-94386853D01*
X119279289Y-94503564D01*
X119335073Y-94524500D01*
X119492326Y-94583519D01*
X119492328Y-94583519D01*
X119492330Y-94583520D01*
X119716224Y-94624150D01*
X119716229Y-94624150D01*
X119886769Y-94624150D01*
X119886775Y-94624150D01*
X120056635Y-94608862D01*
X120275986Y-94548325D01*
X120481003Y-94449595D01*
X120665095Y-94315843D01*
X120822347Y-94151371D01*
X120947705Y-93961463D01*
X121037138Y-93752223D01*
X121087773Y-93530377D01*
X121097982Y-93303055D01*
X121067437Y-93077563D01*
X120997120Y-92861149D01*
X120889290Y-92660768D01*
X120747415Y-92482862D01*
X120576052Y-92333147D01*
X120471040Y-92270405D01*
X120380712Y-92216436D01*
X120167673Y-92136480D01*
X120083709Y-92121243D01*
X119943776Y-92095850D01*
X119773225Y-92095850D01*
X119603365Y-92111138D01*
X119603363Y-92111138D01*
X119603357Y-92111139D01*
X119384018Y-92171673D01*
X119179000Y-92270403D01*
X119178997Y-92270404D01*
X119178997Y-92270405D01*
X119136769Y-92301086D01*
X118994902Y-92404159D01*
X118837652Y-92568628D01*
X118712295Y-92758537D01*
X118712292Y-92758542D01*
X118622861Y-92967776D01*
X118622860Y-92967781D01*
X118572227Y-93189619D01*
X118562018Y-93416947D01*
X117917867Y-93416947D01*
X117922982Y-93303055D01*
X117892437Y-93077563D01*
X117822120Y-92861149D01*
X117714290Y-92660768D01*
X117572415Y-92482862D01*
X117401052Y-92333147D01*
X117296040Y-92270405D01*
X117205712Y-92216436D01*
X116992673Y-92136480D01*
X116908709Y-92121243D01*
X116768776Y-92095850D01*
X116598225Y-92095850D01*
X116428365Y-92111138D01*
X116428363Y-92111138D01*
X116428357Y-92111139D01*
X116209018Y-92171673D01*
X116004000Y-92270403D01*
X116003997Y-92270404D01*
X116003997Y-92270405D01*
X115961769Y-92301086D01*
X115819902Y-92404159D01*
X115662652Y-92568628D01*
X115537295Y-92758537D01*
X115537292Y-92758542D01*
X115447861Y-92967776D01*
X115447860Y-92967781D01*
X115397227Y-93189619D01*
X115387018Y-93416947D01*
X100150500Y-93416947D01*
X100150500Y-92000001D01*
X122944592Y-92000001D01*
X122964033Y-92097739D01*
X123019398Y-92180601D01*
X123102260Y-92235966D01*
X123199998Y-92255408D01*
X123200000Y-92255408D01*
X123200002Y-92255408D01*
X123280486Y-92239398D01*
X123297740Y-92235966D01*
X123380601Y-92180601D01*
X123435966Y-92097740D01*
X123451282Y-92020741D01*
X123455408Y-92000001D01*
X123455408Y-91999998D01*
X123435966Y-91902260D01*
X123380601Y-91819398D01*
X123297739Y-91764033D01*
X123200002Y-91744592D01*
X123199998Y-91744592D01*
X123102260Y-91764033D01*
X123019398Y-91819398D01*
X122964033Y-91902260D01*
X122944592Y-91999998D01*
X122944592Y-92000001D01*
X100150500Y-92000001D01*
X100150500Y-91150000D01*
X131944479Y-91150000D01*
X131964412Y-91263047D01*
X131993435Y-91313314D01*
X132000000Y-91337814D01*
X132000000Y-92249746D01*
X131997045Y-92266505D01*
X131984458Y-92301086D01*
X131949500Y-92499343D01*
X131949499Y-92499350D01*
X131949500Y-96074500D01*
X131949500Y-99465649D01*
X131949500Y-99500000D01*
X131949500Y-99630081D01*
X131980858Y-99888346D01*
X131980859Y-99888347D01*
X131980860Y-99888351D01*
X132043118Y-100140943D01*
X132043118Y-100140945D01*
X132043120Y-100140950D01*
X132135375Y-100384206D01*
X132256278Y-100614569D01*
X132256282Y-100614575D01*
X132256285Y-100614580D01*
X132404064Y-100828673D01*
X132404071Y-100828682D01*
X132469678Y-100902737D01*
X132576587Y-101023413D01*
X132771322Y-101195932D01*
X132985431Y-101343722D01*
X133215794Y-101464625D01*
X133459050Y-101556880D01*
X133711653Y-101619141D01*
X133969919Y-101650500D01*
X133969923Y-101650500D01*
X140100650Y-101650500D01*
X140100656Y-101650500D01*
X140269413Y-101620743D01*
X140277921Y-101620000D01*
X141018855Y-101620000D01*
X141035613Y-101622954D01*
X141042606Y-101625500D01*
X141157394Y-101625500D01*
X141164386Y-101622954D01*
X141181145Y-101620000D01*
X141638855Y-101620000D01*
X141655613Y-101622954D01*
X141662606Y-101625500D01*
X141777394Y-101625500D01*
X141784386Y-101622954D01*
X141801145Y-101620000D01*
X142218855Y-101620000D01*
X142235613Y-101622954D01*
X142242606Y-101625500D01*
X142357394Y-101625500D01*
X142364386Y-101622954D01*
X142381145Y-101620000D01*
X142838855Y-101620000D01*
X142855613Y-101622954D01*
X142862606Y-101625500D01*
X142977394Y-101625500D01*
X142984386Y-101622954D01*
X143001145Y-101620000D01*
X143742079Y-101620000D01*
X143750586Y-101620743D01*
X143919344Y-101650500D01*
X143919350Y-101650500D01*
X151230077Y-101650500D01*
X151230081Y-101650500D01*
X151488347Y-101619141D01*
X151740950Y-101556880D01*
X151984206Y-101464625D01*
X152214569Y-101343722D01*
X152428678Y-101195932D01*
X152623413Y-101023413D01*
X152795932Y-100828678D01*
X152943722Y-100614569D01*
X153064625Y-100384206D01*
X153156880Y-100140950D01*
X153219141Y-99888347D01*
X153250500Y-99630081D01*
X153250500Y-99500000D01*
X153250500Y-99465649D01*
X153250500Y-93100186D01*
X153250500Y-93019344D01*
X153215543Y-92821091D01*
X153209178Y-92803602D01*
X153202955Y-92786505D01*
X153200000Y-92769746D01*
X153200000Y-92164513D01*
X153206564Y-92140013D01*
X153210588Y-92133045D01*
X153230521Y-92020000D01*
X153210588Y-91906955D01*
X153207877Y-91902260D01*
X153206563Y-91899983D01*
X153200000Y-91875485D01*
X153200000Y-91544513D01*
X153206564Y-91520013D01*
X153210588Y-91513045D01*
X153230521Y-91400000D01*
X153210588Y-91286955D01*
X153206563Y-91279983D01*
X153200000Y-91255485D01*
X153200000Y-90650252D01*
X153202954Y-90633494D01*
X153215543Y-90598909D01*
X153250500Y-90400656D01*
X153250500Y-90300000D01*
X153250500Y-90265649D01*
X153250500Y-90265648D01*
X153250500Y-85650186D01*
X153250500Y-85650185D01*
X153250500Y-85539919D01*
X153219141Y-85281653D01*
X153156880Y-85029050D01*
X153064625Y-84785794D01*
X152943722Y-84555431D01*
X152810347Y-84362206D01*
X152795935Y-84341326D01*
X152795928Y-84341317D01*
X152673118Y-84202693D01*
X152623413Y-84146587D01*
X152502737Y-84039678D01*
X152428682Y-83974071D01*
X152428673Y-83974064D01*
X152214580Y-83826285D01*
X152214575Y-83826282D01*
X152214569Y-83826278D01*
X151984206Y-83705375D01*
X151965437Y-83698257D01*
X151880918Y-83666203D01*
X151740950Y-83613120D01*
X151740947Y-83613119D01*
X151740944Y-83613118D01*
X151488351Y-83550860D01*
X151488347Y-83550859D01*
X151480721Y-83549933D01*
X151230081Y-83519500D01*
X151230077Y-83519500D01*
X151121293Y-83519500D01*
X151121278Y-83519499D01*
X151119806Y-83519499D01*
X151100365Y-83519500D01*
X151063877Y-83519500D01*
X151063857Y-83519501D01*
X146446264Y-83519739D01*
X146411615Y-83505389D01*
X146399216Y-83484441D01*
X146355439Y-83334134D01*
X146355437Y-83334126D01*
X146259033Y-83137249D01*
X146259030Y-83137245D01*
X146259029Y-83137243D01*
X146130369Y-82959772D01*
X146130368Y-82959771D01*
X146107970Y-82937983D01*
X145973234Y-82806920D01*
X145973231Y-82806918D01*
X145973229Y-82806916D01*
X145792267Y-82683208D01*
X145792266Y-82683207D01*
X145592806Y-82592284D01*
X145592794Y-82592279D01*
X145380721Y-82536823D01*
X145380724Y-82536823D01*
X145162278Y-82518467D01*
X145162276Y-82518467D01*
X144943919Y-82537753D01*
X144732072Y-82594117D01*
X144533004Y-82685890D01*
X144532996Y-82685894D01*
X144352561Y-82810373D01*
X144196078Y-82963895D01*
X144074113Y-83133649D01*
X144042240Y-83153413D01*
X144005728Y-83144852D01*
X143991884Y-83129558D01*
X143953195Y-83062547D01*
X143953194Y-83062545D01*
X143865261Y-82988760D01*
X143757394Y-82949500D01*
X143642606Y-82949500D01*
X143534737Y-82988760D01*
X143446808Y-83062541D01*
X143446804Y-83062546D01*
X143408114Y-83129561D01*
X143378361Y-83152391D01*
X143341179Y-83147496D01*
X143325885Y-83133652D01*
X143320510Y-83126171D01*
X143203919Y-82963895D01*
X143047439Y-82810377D01*
X143047437Y-82810375D01*
X142867002Y-82685896D01*
X142866994Y-82685892D01*
X142667926Y-82594119D01*
X142456080Y-82537755D01*
X142237722Y-82518469D01*
X142019278Y-82536825D01*
X141807205Y-82592282D01*
X141807197Y-82592284D01*
X141607732Y-82683211D01*
X141426771Y-82806918D01*
X141269632Y-82959772D01*
X141269631Y-82959773D01*
X141140972Y-83137244D01*
X141140967Y-83137253D01*
X141044567Y-83334119D01*
X141044562Y-83334134D01*
X141000784Y-83484443D01*
X140977316Y-83513696D01*
X140953737Y-83519741D01*
X134134352Y-83519500D01*
X134134351Y-83519500D01*
X134108432Y-83519500D01*
X134080191Y-83519499D01*
X134080190Y-83519499D01*
X134078719Y-83519499D01*
X134078704Y-83519500D01*
X133969919Y-83519500D01*
X133763306Y-83544587D01*
X133711652Y-83550859D01*
X133711648Y-83550860D01*
X133459056Y-83613118D01*
X133459054Y-83613118D01*
X133215798Y-83705373D01*
X133215789Y-83705377D01*
X132985440Y-83826273D01*
X132985419Y-83826285D01*
X132771326Y-83974064D01*
X132771317Y-83974071D01*
X132576587Y-84146587D01*
X132404071Y-84341317D01*
X132404064Y-84341326D01*
X132256285Y-84555419D01*
X132256273Y-84555440D01*
X132135377Y-84785789D01*
X132135373Y-84785798D01*
X132043118Y-85029054D01*
X132043118Y-85029056D01*
X131980860Y-85281648D01*
X131980859Y-85281653D01*
X131960358Y-85450500D01*
X131949500Y-85539923D01*
X131949500Y-89750656D01*
X131984457Y-89948911D01*
X131989184Y-89961897D01*
X131997045Y-89983494D01*
X132000000Y-90000252D01*
X132000000Y-90962184D01*
X131993435Y-90986684D01*
X131964412Y-91036952D01*
X131944479Y-91150000D01*
X100150500Y-91150000D01*
X100150500Y-78987500D01*
X111965403Y-78987500D01*
X111983745Y-79173733D01*
X111983745Y-79173734D01*
X112038066Y-79352805D01*
X112038069Y-79352812D01*
X112126284Y-79517849D01*
X112126286Y-79517852D01*
X112206750Y-79615895D01*
X112206751Y-79615896D01*
X112524980Y-79297666D01*
X112538239Y-79318298D01*
X112611003Y-79381348D01*
X112291603Y-79700748D01*
X112389650Y-79781216D01*
X112554687Y-79869430D01*
X112554694Y-79869433D01*
X112733766Y-79923754D01*
X112920000Y-79942097D01*
X113106233Y-79923754D01*
X113106234Y-79923754D01*
X113285305Y-79869433D01*
X113285312Y-79869430D01*
X113450343Y-79781218D01*
X113450347Y-79781216D01*
X113548395Y-79700748D01*
X113228995Y-79381348D01*
X113301761Y-79318298D01*
X113315019Y-79297666D01*
X113633248Y-79615895D01*
X113713716Y-79517847D01*
X113713718Y-79517843D01*
X113801930Y-79352812D01*
X113801933Y-79352805D01*
X113856254Y-79173734D01*
X113856254Y-79173733D01*
X113874597Y-78987500D01*
X114505403Y-78987500D01*
X114523745Y-79173733D01*
X114523745Y-79173734D01*
X114578066Y-79352805D01*
X114578069Y-79352812D01*
X114666284Y-79517849D01*
X114666286Y-79517852D01*
X114746750Y-79615895D01*
X115064979Y-79297665D01*
X115078239Y-79318298D01*
X115151003Y-79381348D01*
X114831603Y-79700748D01*
X114929650Y-79781216D01*
X115094687Y-79869430D01*
X115094694Y-79869433D01*
X115273766Y-79923754D01*
X115460000Y-79942097D01*
X115646233Y-79923754D01*
X115646234Y-79923754D01*
X115825305Y-79869433D01*
X115825312Y-79869430D01*
X115990343Y-79781218D01*
X115990347Y-79781216D01*
X116088395Y-79700748D01*
X115768995Y-79381348D01*
X115841761Y-79318298D01*
X115855019Y-79297666D01*
X116173248Y-79615895D01*
X116253716Y-79517847D01*
X116253718Y-79517843D01*
X116341930Y-79352812D01*
X116341933Y-79352805D01*
X116396254Y-79173734D01*
X116396254Y-79173733D01*
X116414597Y-78987500D01*
X117044901Y-78987500D01*
X117063253Y-79173831D01*
X117063253Y-79173832D01*
X117117604Y-79353002D01*
X117205863Y-79518124D01*
X117205868Y-79518131D01*
X117268775Y-79594782D01*
X117324643Y-79662857D01*
X117407590Y-79730930D01*
X117469368Y-79781631D01*
X117469375Y-79781636D01*
X117634499Y-79869896D01*
X117813669Y-79924247D01*
X118000000Y-79942599D01*
X118186331Y-79924247D01*
X118365501Y-79869896D01*
X118530625Y-79781636D01*
X118675357Y-79662857D01*
X118794136Y-79518125D01*
X118882396Y-79353001D01*
X118936747Y-79173831D01*
X118955099Y-78987500D01*
X119584901Y-78987500D01*
X119603253Y-79173831D01*
X119603253Y-79173832D01*
X119657604Y-79353002D01*
X119745863Y-79518124D01*
X119745868Y-79518131D01*
X119808775Y-79594782D01*
X119864643Y-79662857D01*
X119947590Y-79730930D01*
X120009368Y-79781631D01*
X120009375Y-79781636D01*
X120174499Y-79869896D01*
X120353669Y-79924247D01*
X120540000Y-79942599D01*
X120726331Y-79924247D01*
X120905501Y-79869896D01*
X121070625Y-79781636D01*
X121215357Y-79662857D01*
X121334136Y-79518125D01*
X121422396Y-79353001D01*
X121476747Y-79173831D01*
X121495099Y-78987500D01*
X122124901Y-78987500D01*
X122143253Y-79173831D01*
X122143253Y-79173832D01*
X122197604Y-79353002D01*
X122285863Y-79518124D01*
X122285868Y-79518131D01*
X122348775Y-79594782D01*
X122404643Y-79662857D01*
X122487590Y-79730930D01*
X122549368Y-79781631D01*
X122549375Y-79781636D01*
X122714499Y-79869896D01*
X122893669Y-79924247D01*
X123080000Y-79942599D01*
X123266331Y-79924247D01*
X123445501Y-79869896D01*
X123610625Y-79781636D01*
X123755357Y-79662857D01*
X123874136Y-79518125D01*
X123962396Y-79353001D01*
X124016747Y-79173831D01*
X124035099Y-78987500D01*
X124016747Y-78801169D01*
X123962396Y-78621999D01*
X123874136Y-78456875D01*
X123874131Y-78456868D01*
X123793895Y-78359102D01*
X123755357Y-78312143D01*
X123687282Y-78256275D01*
X123610631Y-78193368D01*
X123610624Y-78193363D01*
X123445502Y-78105104D01*
X123266331Y-78050753D01*
X123080000Y-78032401D01*
X122893668Y-78050753D01*
X122893667Y-78050753D01*
X122714497Y-78105104D01*
X122549375Y-78193363D01*
X122549368Y-78193368D01*
X122404643Y-78312143D01*
X122285868Y-78456868D01*
X122285863Y-78456875D01*
X122197604Y-78621997D01*
X122143253Y-78801167D01*
X122143253Y-78801168D01*
X122124901Y-78987499D01*
X122124901Y-78987500D01*
X121495099Y-78987500D01*
X121476747Y-78801169D01*
X121422396Y-78621999D01*
X121334136Y-78456875D01*
X121334131Y-78456868D01*
X121253895Y-78359102D01*
X121215357Y-78312143D01*
X121147282Y-78256275D01*
X121070631Y-78193368D01*
X121070624Y-78193363D01*
X120905502Y-78105104D01*
X120726331Y-78050753D01*
X120540000Y-78032401D01*
X120353668Y-78050753D01*
X120353667Y-78050753D01*
X120174497Y-78105104D01*
X120009375Y-78193363D01*
X120009368Y-78193368D01*
X119864643Y-78312143D01*
X119745868Y-78456868D01*
X119745863Y-78456875D01*
X119657604Y-78621997D01*
X119603253Y-78801167D01*
X119603253Y-78801168D01*
X119584901Y-78987499D01*
X119584901Y-78987500D01*
X118955099Y-78987500D01*
X118936747Y-78801169D01*
X118882396Y-78621999D01*
X118794136Y-78456875D01*
X118794131Y-78456868D01*
X118713895Y-78359102D01*
X118675357Y-78312143D01*
X118607282Y-78256275D01*
X118530631Y-78193368D01*
X118530624Y-78193363D01*
X118365502Y-78105104D01*
X118186331Y-78050753D01*
X118000000Y-78032401D01*
X117813668Y-78050753D01*
X117813667Y-78050753D01*
X117634497Y-78105104D01*
X117469375Y-78193363D01*
X117469368Y-78193368D01*
X117324643Y-78312143D01*
X117205868Y-78456868D01*
X117205863Y-78456875D01*
X117117604Y-78621997D01*
X117063253Y-78801167D01*
X117063253Y-78801168D01*
X117044901Y-78987499D01*
X117044901Y-78987500D01*
X116414597Y-78987500D01*
X116414597Y-78987499D01*
X116396254Y-78801266D01*
X116396254Y-78801265D01*
X116341933Y-78622194D01*
X116341930Y-78622187D01*
X116253716Y-78457150D01*
X116173248Y-78359103D01*
X115855019Y-78677331D01*
X115841761Y-78656702D01*
X115768994Y-78593650D01*
X116088395Y-78274250D01*
X115990352Y-78193786D01*
X115990349Y-78193784D01*
X115825312Y-78105569D01*
X115825305Y-78105566D01*
X115646233Y-78051245D01*
X115460000Y-78032903D01*
X115273766Y-78051245D01*
X115273765Y-78051245D01*
X115094694Y-78105566D01*
X115094687Y-78105569D01*
X114929648Y-78193785D01*
X114831603Y-78274249D01*
X114831603Y-78274250D01*
X115151004Y-78593651D01*
X115078239Y-78656702D01*
X115064980Y-78677332D01*
X114746750Y-78359102D01*
X114746749Y-78359103D01*
X114666285Y-78457148D01*
X114578069Y-78622187D01*
X114578066Y-78622194D01*
X114523745Y-78801265D01*
X114523745Y-78801266D01*
X114505403Y-78987499D01*
X114505403Y-78987500D01*
X113874597Y-78987500D01*
X113874597Y-78987499D01*
X113856254Y-78801266D01*
X113856254Y-78801265D01*
X113801933Y-78622194D01*
X113801930Y-78622187D01*
X113713716Y-78457150D01*
X113633248Y-78359103D01*
X113315019Y-78677332D01*
X113301761Y-78656702D01*
X113228995Y-78593650D01*
X113548395Y-78274251D01*
X113548395Y-78274250D01*
X113450352Y-78193786D01*
X113450349Y-78193784D01*
X113285312Y-78105569D01*
X113285305Y-78105566D01*
X113106233Y-78051245D01*
X112920000Y-78032903D01*
X112733766Y-78051245D01*
X112733765Y-78051245D01*
X112554694Y-78105566D01*
X112554687Y-78105569D01*
X112389648Y-78193785D01*
X112291603Y-78274249D01*
X112291603Y-78274250D01*
X112611004Y-78593651D01*
X112538239Y-78656702D01*
X112524980Y-78677332D01*
X112206750Y-78359103D01*
X112206749Y-78359103D01*
X112126285Y-78457148D01*
X112038069Y-78622187D01*
X112038066Y-78622194D01*
X111983745Y-78801265D01*
X111983745Y-78801266D01*
X111965403Y-78987499D01*
X111965403Y-78987500D01*
X100150500Y-78987500D01*
X100150500Y-76447500D01*
X111965403Y-76447500D01*
X111983745Y-76633733D01*
X111983745Y-76633734D01*
X112038066Y-76812805D01*
X112038069Y-76812812D01*
X112126284Y-76977849D01*
X112126286Y-76977852D01*
X112206750Y-77075895D01*
X112524979Y-76757665D01*
X112538239Y-76778298D01*
X112611003Y-76841348D01*
X112291603Y-77160748D01*
X112389650Y-77241216D01*
X112554687Y-77329430D01*
X112554694Y-77329433D01*
X112733766Y-77383754D01*
X112920000Y-77402097D01*
X113106233Y-77383754D01*
X113106234Y-77383754D01*
X113285305Y-77329433D01*
X113285312Y-77329430D01*
X113450343Y-77241218D01*
X113450347Y-77241216D01*
X113548395Y-77160748D01*
X113228995Y-76841348D01*
X113301761Y-76778298D01*
X113315019Y-76757666D01*
X113633248Y-77075895D01*
X113713716Y-76977847D01*
X113713718Y-76977843D01*
X113801930Y-76812812D01*
X113801933Y-76812805D01*
X113856254Y-76633734D01*
X113856254Y-76633733D01*
X113874597Y-76447500D01*
X114505403Y-76447500D01*
X114523745Y-76633733D01*
X114523745Y-76633734D01*
X114578066Y-76812805D01*
X114578069Y-76812812D01*
X114666284Y-76977849D01*
X114666286Y-76977852D01*
X114746750Y-77075895D01*
X114746751Y-77075896D01*
X115064980Y-76757666D01*
X115078239Y-76778298D01*
X115151003Y-76841348D01*
X114831603Y-77160748D01*
X114929650Y-77241216D01*
X115094687Y-77329430D01*
X115094694Y-77329433D01*
X115273766Y-77383754D01*
X115460000Y-77402097D01*
X115646233Y-77383754D01*
X115646234Y-77383754D01*
X115825305Y-77329433D01*
X115825312Y-77329430D01*
X115990343Y-77241218D01*
X115990347Y-77241216D01*
X116088395Y-77160748D01*
X115768995Y-76841348D01*
X115841761Y-76778298D01*
X115855019Y-76757666D01*
X116173248Y-77075895D01*
X116253716Y-76977847D01*
X116253718Y-76977843D01*
X116341930Y-76812812D01*
X116341933Y-76812805D01*
X116396254Y-76633734D01*
X116396254Y-76633733D01*
X116414597Y-76447500D01*
X117044901Y-76447500D01*
X117063253Y-76633831D01*
X117063253Y-76633832D01*
X117117604Y-76813002D01*
X117205863Y-76978124D01*
X117205868Y-76978131D01*
X117268775Y-77054782D01*
X117324643Y-77122857D01*
X117407590Y-77190930D01*
X117469368Y-77241631D01*
X117469375Y-77241636D01*
X117634499Y-77329896D01*
X117813669Y-77384247D01*
X118000000Y-77402599D01*
X118186331Y-77384247D01*
X118365501Y-77329896D01*
X118530625Y-77241636D01*
X118675357Y-77122857D01*
X118794136Y-76978125D01*
X118882396Y-76813001D01*
X118936747Y-76633831D01*
X118955099Y-76447500D01*
X119584901Y-76447500D01*
X119603253Y-76633831D01*
X119603253Y-76633832D01*
X119657604Y-76813002D01*
X119745863Y-76978124D01*
X119745868Y-76978131D01*
X119808775Y-77054782D01*
X119864643Y-77122857D01*
X119947590Y-77190930D01*
X120009368Y-77241631D01*
X120009375Y-77241636D01*
X120174499Y-77329896D01*
X120353669Y-77384247D01*
X120540000Y-77402599D01*
X120726331Y-77384247D01*
X120905501Y-77329896D01*
X121070625Y-77241636D01*
X121215357Y-77122857D01*
X121249904Y-77080761D01*
X122129500Y-77080761D01*
X122139427Y-77148894D01*
X122139428Y-77148896D01*
X122165114Y-77201437D01*
X122190802Y-77253983D01*
X122273517Y-77336698D01*
X122378607Y-77388073D01*
X122426884Y-77395106D01*
X122446738Y-77398000D01*
X122446740Y-77398000D01*
X123713262Y-77398000D01*
X123730590Y-77395474D01*
X123781393Y-77388073D01*
X123886483Y-77336698D01*
X123969198Y-77253983D01*
X124020573Y-77148893D01*
X124030500Y-77080760D01*
X124030500Y-75814240D01*
X124020573Y-75746107D01*
X123969198Y-75641017D01*
X123886483Y-75558302D01*
X123790226Y-75511245D01*
X123781396Y-75506928D01*
X123781394Y-75506927D01*
X123713262Y-75497000D01*
X123713260Y-75497000D01*
X122446740Y-75497000D01*
X122446738Y-75497000D01*
X122378605Y-75506927D01*
X122378603Y-75506928D01*
X122273519Y-75558301D01*
X122273515Y-75558303D01*
X122190803Y-75641015D01*
X122190801Y-75641019D01*
X122139428Y-75746103D01*
X122139427Y-75746105D01*
X122129500Y-75814238D01*
X122129500Y-77080761D01*
X121249904Y-77080761D01*
X121334136Y-76978125D01*
X121422396Y-76813001D01*
X121476747Y-76633831D01*
X121495099Y-76447500D01*
X121476747Y-76261169D01*
X121422396Y-76081999D01*
X121334136Y-75916875D01*
X121334131Y-75916868D01*
X121249905Y-75814240D01*
X121215357Y-75772143D01*
X121147282Y-75716275D01*
X121070631Y-75653368D01*
X121070624Y-75653363D01*
X120905502Y-75565104D01*
X120726331Y-75510753D01*
X120540000Y-75492401D01*
X120353668Y-75510753D01*
X120353667Y-75510753D01*
X120174497Y-75565104D01*
X120009375Y-75653363D01*
X120009368Y-75653368D01*
X119864643Y-75772143D01*
X119745868Y-75916868D01*
X119745863Y-75916875D01*
X119657604Y-76081997D01*
X119603253Y-76261167D01*
X119603253Y-76261168D01*
X119584901Y-76447499D01*
X119584901Y-76447500D01*
X118955099Y-76447500D01*
X118936747Y-76261169D01*
X118882396Y-76081999D01*
X118794136Y-75916875D01*
X118794131Y-75916868D01*
X118709905Y-75814240D01*
X118675357Y-75772143D01*
X118607282Y-75716275D01*
X118530631Y-75653368D01*
X118530624Y-75653363D01*
X118365502Y-75565104D01*
X118186331Y-75510753D01*
X118000000Y-75492401D01*
X117813668Y-75510753D01*
X117813667Y-75510753D01*
X117634497Y-75565104D01*
X117469375Y-75653363D01*
X117469368Y-75653368D01*
X117324643Y-75772143D01*
X117205868Y-75916868D01*
X117205863Y-75916875D01*
X117117604Y-76081997D01*
X117063253Y-76261167D01*
X117063253Y-76261168D01*
X117044901Y-76447499D01*
X117044901Y-76447500D01*
X116414597Y-76447500D01*
X116414597Y-76447499D01*
X116396254Y-76261266D01*
X116396254Y-76261265D01*
X116341933Y-76082194D01*
X116341930Y-76082187D01*
X116253716Y-75917150D01*
X116173248Y-75819103D01*
X115855019Y-76137332D01*
X115841761Y-76116702D01*
X115768995Y-76053650D01*
X116088395Y-75734251D01*
X116088395Y-75734250D01*
X115990352Y-75653786D01*
X115990349Y-75653784D01*
X115825312Y-75565569D01*
X115825305Y-75565566D01*
X115646233Y-75511245D01*
X115460000Y-75492903D01*
X115273766Y-75511245D01*
X115273765Y-75511245D01*
X115094694Y-75565566D01*
X115094687Y-75565569D01*
X114929648Y-75653785D01*
X114831603Y-75734249D01*
X114831603Y-75734250D01*
X115151004Y-76053651D01*
X115078239Y-76116702D01*
X115064980Y-76137332D01*
X114746750Y-75819103D01*
X114746749Y-75819103D01*
X114666285Y-75917148D01*
X114578069Y-76082187D01*
X114578066Y-76082194D01*
X114523745Y-76261265D01*
X114523745Y-76261266D01*
X114505403Y-76447499D01*
X114505403Y-76447500D01*
X113874597Y-76447500D01*
X113874597Y-76447499D01*
X113856254Y-76261266D01*
X113856254Y-76261265D01*
X113801933Y-76082194D01*
X113801930Y-76082187D01*
X113713716Y-75917150D01*
X113633248Y-75819103D01*
X113315019Y-76137332D01*
X113301761Y-76116702D01*
X113228994Y-76053650D01*
X113548395Y-75734250D01*
X113450352Y-75653786D01*
X113450349Y-75653784D01*
X113285312Y-75565569D01*
X113285305Y-75565566D01*
X113106233Y-75511245D01*
X112920000Y-75492903D01*
X112733766Y-75511245D01*
X112733765Y-75511245D01*
X112554694Y-75565566D01*
X112554687Y-75565569D01*
X112389648Y-75653785D01*
X112291603Y-75734249D01*
X112291603Y-75734251D01*
X112611003Y-76053651D01*
X112538239Y-76116702D01*
X112524980Y-76137332D01*
X112206751Y-75819103D01*
X112206749Y-75819103D01*
X112126285Y-75917148D01*
X112038069Y-76082187D01*
X112038066Y-76082194D01*
X111983745Y-76261265D01*
X111983745Y-76261266D01*
X111965403Y-76447499D01*
X111965403Y-76447500D01*
X100150500Y-76447500D01*
X100150500Y-65199500D01*
X100164852Y-65164852D01*
X100199500Y-65150500D01*
X159800500Y-65150500D01*
X159835148Y-65164852D01*
G37*
%TD.AperFunction*%
%TD*%
M02*
