%TF.GenerationSoftware,KiCad,Pcbnew,7.0.6*%
%TF.CreationDate,2023-09-10T10:14:12-04:00*%
%TF.ProjectId,headstage-neuropix1e,68656164-7374-4616-9765-2d6e6575726f,B*%
%TF.SameCoordinates,Original*%
%TF.FileFunction,AssemblyDrawing,Bot*%
%FSLAX46Y46*%
G04 Gerber Fmt 4.6, Leading zero omitted, Abs format (unit mm)*
G04 Created by KiCad (PCBNEW 7.0.6) date 2023-09-10 10:14:12*
%MOMM*%
%LPD*%
G01*
G04 APERTURE LIST*
%ADD10C,0.040000*%
%ADD11C,0.150000*%
%ADD12C,0.100000*%
G04 APERTURE END LIST*
D10*
X144791666Y-88613574D02*
X144910714Y-88613574D01*
X144910714Y-88613574D02*
X144910714Y-88363574D01*
X144720237Y-88387384D02*
X144708333Y-88375479D01*
X144708333Y-88375479D02*
X144684523Y-88363574D01*
X144684523Y-88363574D02*
X144624999Y-88363574D01*
X144624999Y-88363574D02*
X144601190Y-88375479D01*
X144601190Y-88375479D02*
X144589285Y-88387384D01*
X144589285Y-88387384D02*
X144577380Y-88411193D01*
X144577380Y-88411193D02*
X144577380Y-88435003D01*
X144577380Y-88435003D02*
X144589285Y-88470717D01*
X144589285Y-88470717D02*
X144732142Y-88613574D01*
X144732142Y-88613574D02*
X144577380Y-88613574D01*
X145580714Y-97459765D02*
X145592618Y-97471670D01*
X145592618Y-97471670D02*
X145628333Y-97483574D01*
X145628333Y-97483574D02*
X145652142Y-97483574D01*
X145652142Y-97483574D02*
X145687856Y-97471670D01*
X145687856Y-97471670D02*
X145711666Y-97447860D01*
X145711666Y-97447860D02*
X145723571Y-97424050D01*
X145723571Y-97424050D02*
X145735475Y-97376431D01*
X145735475Y-97376431D02*
X145735475Y-97340717D01*
X145735475Y-97340717D02*
X145723571Y-97293098D01*
X145723571Y-97293098D02*
X145711666Y-97269289D01*
X145711666Y-97269289D02*
X145687856Y-97245479D01*
X145687856Y-97245479D02*
X145652142Y-97233574D01*
X145652142Y-97233574D02*
X145628333Y-97233574D01*
X145628333Y-97233574D02*
X145592618Y-97245479D01*
X145592618Y-97245479D02*
X145580714Y-97257384D01*
X145342618Y-97483574D02*
X145485475Y-97483574D01*
X145414047Y-97483574D02*
X145414047Y-97233574D01*
X145414047Y-97233574D02*
X145437856Y-97269289D01*
X145437856Y-97269289D02*
X145461666Y-97293098D01*
X145461666Y-97293098D02*
X145485475Y-97305003D01*
X145116428Y-97233574D02*
X145235476Y-97233574D01*
X145235476Y-97233574D02*
X145247380Y-97352622D01*
X145247380Y-97352622D02*
X145235476Y-97340717D01*
X145235476Y-97340717D02*
X145211666Y-97328812D01*
X145211666Y-97328812D02*
X145152142Y-97328812D01*
X145152142Y-97328812D02*
X145128333Y-97340717D01*
X145128333Y-97340717D02*
X145116428Y-97352622D01*
X145116428Y-97352622D02*
X145104523Y-97376431D01*
X145104523Y-97376431D02*
X145104523Y-97435955D01*
X145104523Y-97435955D02*
X145116428Y-97459765D01*
X145116428Y-97459765D02*
X145128333Y-97471670D01*
X145128333Y-97471670D02*
X145152142Y-97483574D01*
X145152142Y-97483574D02*
X145211666Y-97483574D01*
X145211666Y-97483574D02*
X145235476Y-97471670D01*
X145235476Y-97471670D02*
X145247380Y-97459765D01*
X144141666Y-93113574D02*
X144224999Y-92994527D01*
X144284523Y-93113574D02*
X144284523Y-92863574D01*
X144284523Y-92863574D02*
X144189285Y-92863574D01*
X144189285Y-92863574D02*
X144165475Y-92875479D01*
X144165475Y-92875479D02*
X144153570Y-92887384D01*
X144153570Y-92887384D02*
X144141666Y-92911193D01*
X144141666Y-92911193D02*
X144141666Y-92946908D01*
X144141666Y-92946908D02*
X144153570Y-92970717D01*
X144153570Y-92970717D02*
X144165475Y-92982622D01*
X144165475Y-92982622D02*
X144189285Y-92994527D01*
X144189285Y-92994527D02*
X144284523Y-92994527D01*
X144022618Y-93113574D02*
X143974999Y-93113574D01*
X143974999Y-93113574D02*
X143951189Y-93101670D01*
X143951189Y-93101670D02*
X143939285Y-93089765D01*
X143939285Y-93089765D02*
X143915475Y-93054050D01*
X143915475Y-93054050D02*
X143903570Y-93006431D01*
X143903570Y-93006431D02*
X143903570Y-92911193D01*
X143903570Y-92911193D02*
X143915475Y-92887384D01*
X143915475Y-92887384D02*
X143927380Y-92875479D01*
X143927380Y-92875479D02*
X143951189Y-92863574D01*
X143951189Y-92863574D02*
X143998808Y-92863574D01*
X143998808Y-92863574D02*
X144022618Y-92875479D01*
X144022618Y-92875479D02*
X144034523Y-92887384D01*
X144034523Y-92887384D02*
X144046427Y-92911193D01*
X144046427Y-92911193D02*
X144046427Y-92970717D01*
X144046427Y-92970717D02*
X144034523Y-92994527D01*
X144034523Y-92994527D02*
X144022618Y-93006431D01*
X144022618Y-93006431D02*
X143998808Y-93018336D01*
X143998808Y-93018336D02*
X143951189Y-93018336D01*
X143951189Y-93018336D02*
X143927380Y-93006431D01*
X143927380Y-93006431D02*
X143915475Y-92994527D01*
X143915475Y-92994527D02*
X143903570Y-92970717D01*
X139973574Y-93399523D02*
X140175955Y-93399523D01*
X140175955Y-93399523D02*
X140199765Y-93411428D01*
X140199765Y-93411428D02*
X140211670Y-93423333D01*
X140211670Y-93423333D02*
X140223574Y-93447142D01*
X140223574Y-93447142D02*
X140223574Y-93494761D01*
X140223574Y-93494761D02*
X140211670Y-93518571D01*
X140211670Y-93518571D02*
X140199765Y-93530476D01*
X140199765Y-93530476D02*
X140175955Y-93542380D01*
X140175955Y-93542380D02*
X139973574Y-93542380D01*
X140223574Y-93792381D02*
X140223574Y-93649524D01*
X140223574Y-93720952D02*
X139973574Y-93720952D01*
X139973574Y-93720952D02*
X140009289Y-93697143D01*
X140009289Y-93697143D02*
X140033098Y-93673333D01*
X140033098Y-93673333D02*
X140045003Y-93649524D01*
X149141666Y-91013574D02*
X149224999Y-90894527D01*
X149284523Y-91013574D02*
X149284523Y-90763574D01*
X149284523Y-90763574D02*
X149189285Y-90763574D01*
X149189285Y-90763574D02*
X149165475Y-90775479D01*
X149165475Y-90775479D02*
X149153570Y-90787384D01*
X149153570Y-90787384D02*
X149141666Y-90811193D01*
X149141666Y-90811193D02*
X149141666Y-90846908D01*
X149141666Y-90846908D02*
X149153570Y-90870717D01*
X149153570Y-90870717D02*
X149165475Y-90882622D01*
X149165475Y-90882622D02*
X149189285Y-90894527D01*
X149189285Y-90894527D02*
X149284523Y-90894527D01*
X148927380Y-90763574D02*
X148974999Y-90763574D01*
X148974999Y-90763574D02*
X148998808Y-90775479D01*
X148998808Y-90775479D02*
X149010713Y-90787384D01*
X149010713Y-90787384D02*
X149034523Y-90823098D01*
X149034523Y-90823098D02*
X149046427Y-90870717D01*
X149046427Y-90870717D02*
X149046427Y-90965955D01*
X149046427Y-90965955D02*
X149034523Y-90989765D01*
X149034523Y-90989765D02*
X149022618Y-91001670D01*
X149022618Y-91001670D02*
X148998808Y-91013574D01*
X148998808Y-91013574D02*
X148951189Y-91013574D01*
X148951189Y-91013574D02*
X148927380Y-91001670D01*
X148927380Y-91001670D02*
X148915475Y-90989765D01*
X148915475Y-90989765D02*
X148903570Y-90965955D01*
X148903570Y-90965955D02*
X148903570Y-90906431D01*
X148903570Y-90906431D02*
X148915475Y-90882622D01*
X148915475Y-90882622D02*
X148927380Y-90870717D01*
X148927380Y-90870717D02*
X148951189Y-90858812D01*
X148951189Y-90858812D02*
X148998808Y-90858812D01*
X148998808Y-90858812D02*
X149022618Y-90870717D01*
X149022618Y-90870717D02*
X149034523Y-90882622D01*
X149034523Y-90882622D02*
X149046427Y-90906431D01*
X142190476Y-92063574D02*
X142190476Y-92265955D01*
X142190476Y-92265955D02*
X142178571Y-92289765D01*
X142178571Y-92289765D02*
X142166666Y-92301670D01*
X142166666Y-92301670D02*
X142142857Y-92313574D01*
X142142857Y-92313574D02*
X142095238Y-92313574D01*
X142095238Y-92313574D02*
X142071428Y-92301670D01*
X142071428Y-92301670D02*
X142059523Y-92289765D01*
X142059523Y-92289765D02*
X142047619Y-92265955D01*
X142047619Y-92265955D02*
X142047619Y-92063574D01*
X141892856Y-92170717D02*
X141916666Y-92158812D01*
X141916666Y-92158812D02*
X141928571Y-92146908D01*
X141928571Y-92146908D02*
X141940475Y-92123098D01*
X141940475Y-92123098D02*
X141940475Y-92111193D01*
X141940475Y-92111193D02*
X141928571Y-92087384D01*
X141928571Y-92087384D02*
X141916666Y-92075479D01*
X141916666Y-92075479D02*
X141892856Y-92063574D01*
X141892856Y-92063574D02*
X141845237Y-92063574D01*
X141845237Y-92063574D02*
X141821428Y-92075479D01*
X141821428Y-92075479D02*
X141809523Y-92087384D01*
X141809523Y-92087384D02*
X141797618Y-92111193D01*
X141797618Y-92111193D02*
X141797618Y-92123098D01*
X141797618Y-92123098D02*
X141809523Y-92146908D01*
X141809523Y-92146908D02*
X141821428Y-92158812D01*
X141821428Y-92158812D02*
X141845237Y-92170717D01*
X141845237Y-92170717D02*
X141892856Y-92170717D01*
X141892856Y-92170717D02*
X141916666Y-92182622D01*
X141916666Y-92182622D02*
X141928571Y-92194527D01*
X141928571Y-92194527D02*
X141940475Y-92218336D01*
X141940475Y-92218336D02*
X141940475Y-92265955D01*
X141940475Y-92265955D02*
X141928571Y-92289765D01*
X141928571Y-92289765D02*
X141916666Y-92301670D01*
X141916666Y-92301670D02*
X141892856Y-92313574D01*
X141892856Y-92313574D02*
X141845237Y-92313574D01*
X141845237Y-92313574D02*
X141821428Y-92301670D01*
X141821428Y-92301670D02*
X141809523Y-92289765D01*
X141809523Y-92289765D02*
X141797618Y-92265955D01*
X141797618Y-92265955D02*
X141797618Y-92218336D01*
X141797618Y-92218336D02*
X141809523Y-92194527D01*
X141809523Y-92194527D02*
X141821428Y-92182622D01*
X141821428Y-92182622D02*
X141845237Y-92170717D01*
D11*
X138555238Y-90814819D02*
X139126666Y-90814819D01*
X138840952Y-90814819D02*
X138840952Y-89814819D01*
X138840952Y-89814819D02*
X138936190Y-89957676D01*
X138936190Y-89957676D02*
X139031428Y-90052914D01*
X139031428Y-90052914D02*
X139126666Y-90100533D01*
X137698095Y-90148152D02*
X137698095Y-90814819D01*
X138126666Y-90148152D02*
X138126666Y-90671961D01*
X138126666Y-90671961D02*
X138079047Y-90767200D01*
X138079047Y-90767200D02*
X137983809Y-90814819D01*
X137983809Y-90814819D02*
X137840952Y-90814819D01*
X137840952Y-90814819D02*
X137745714Y-90767200D01*
X137745714Y-90767200D02*
X137698095Y-90719580D01*
X136888571Y-90291009D02*
X137221904Y-90291009D01*
X137221904Y-90814819D02*
X137221904Y-89814819D01*
X137221904Y-89814819D02*
X136745714Y-89814819D01*
D10*
X138001666Y-92179765D02*
X138013570Y-92191670D01*
X138013570Y-92191670D02*
X138049285Y-92203574D01*
X138049285Y-92203574D02*
X138073094Y-92203574D01*
X138073094Y-92203574D02*
X138108808Y-92191670D01*
X138108808Y-92191670D02*
X138132618Y-92167860D01*
X138132618Y-92167860D02*
X138144523Y-92144050D01*
X138144523Y-92144050D02*
X138156427Y-92096431D01*
X138156427Y-92096431D02*
X138156427Y-92060717D01*
X138156427Y-92060717D02*
X138144523Y-92013098D01*
X138144523Y-92013098D02*
X138132618Y-91989289D01*
X138132618Y-91989289D02*
X138108808Y-91965479D01*
X138108808Y-91965479D02*
X138073094Y-91953574D01*
X138073094Y-91953574D02*
X138049285Y-91953574D01*
X138049285Y-91953574D02*
X138013570Y-91965479D01*
X138013570Y-91965479D02*
X138001666Y-91977384D01*
X137787380Y-92036908D02*
X137787380Y-92203574D01*
X137846904Y-91941670D02*
X137906427Y-92120241D01*
X137906427Y-92120241D02*
X137751666Y-92120241D01*
X142175714Y-93889765D02*
X142187618Y-93901670D01*
X142187618Y-93901670D02*
X142223333Y-93913574D01*
X142223333Y-93913574D02*
X142247142Y-93913574D01*
X142247142Y-93913574D02*
X142282856Y-93901670D01*
X142282856Y-93901670D02*
X142306666Y-93877860D01*
X142306666Y-93877860D02*
X142318571Y-93854050D01*
X142318571Y-93854050D02*
X142330475Y-93806431D01*
X142330475Y-93806431D02*
X142330475Y-93770717D01*
X142330475Y-93770717D02*
X142318571Y-93723098D01*
X142318571Y-93723098D02*
X142306666Y-93699289D01*
X142306666Y-93699289D02*
X142282856Y-93675479D01*
X142282856Y-93675479D02*
X142247142Y-93663574D01*
X142247142Y-93663574D02*
X142223333Y-93663574D01*
X142223333Y-93663574D02*
X142187618Y-93675479D01*
X142187618Y-93675479D02*
X142175714Y-93687384D01*
X142092380Y-93663574D02*
X141937618Y-93663574D01*
X141937618Y-93663574D02*
X142020952Y-93758812D01*
X142020952Y-93758812D02*
X141985237Y-93758812D01*
X141985237Y-93758812D02*
X141961428Y-93770717D01*
X141961428Y-93770717D02*
X141949523Y-93782622D01*
X141949523Y-93782622D02*
X141937618Y-93806431D01*
X141937618Y-93806431D02*
X141937618Y-93865955D01*
X141937618Y-93865955D02*
X141949523Y-93889765D01*
X141949523Y-93889765D02*
X141961428Y-93901670D01*
X141961428Y-93901670D02*
X141985237Y-93913574D01*
X141985237Y-93913574D02*
X142056666Y-93913574D01*
X142056666Y-93913574D02*
X142080475Y-93901670D01*
X142080475Y-93901670D02*
X142092380Y-93889765D01*
X141842380Y-93687384D02*
X141830476Y-93675479D01*
X141830476Y-93675479D02*
X141806666Y-93663574D01*
X141806666Y-93663574D02*
X141747142Y-93663574D01*
X141747142Y-93663574D02*
X141723333Y-93675479D01*
X141723333Y-93675479D02*
X141711428Y-93687384D01*
X141711428Y-93687384D02*
X141699523Y-93711193D01*
X141699523Y-93711193D02*
X141699523Y-93735003D01*
X141699523Y-93735003D02*
X141711428Y-93770717D01*
X141711428Y-93770717D02*
X141854285Y-93913574D01*
X141854285Y-93913574D02*
X141699523Y-93913574D01*
X139290476Y-96163574D02*
X139290476Y-96365955D01*
X139290476Y-96365955D02*
X139278571Y-96389765D01*
X139278571Y-96389765D02*
X139266666Y-96401670D01*
X139266666Y-96401670D02*
X139242857Y-96413574D01*
X139242857Y-96413574D02*
X139195238Y-96413574D01*
X139195238Y-96413574D02*
X139171428Y-96401670D01*
X139171428Y-96401670D02*
X139159523Y-96389765D01*
X139159523Y-96389765D02*
X139147619Y-96365955D01*
X139147619Y-96365955D02*
X139147619Y-96163574D01*
X139016666Y-96413574D02*
X138969047Y-96413574D01*
X138969047Y-96413574D02*
X138945237Y-96401670D01*
X138945237Y-96401670D02*
X138933333Y-96389765D01*
X138933333Y-96389765D02*
X138909523Y-96354050D01*
X138909523Y-96354050D02*
X138897618Y-96306431D01*
X138897618Y-96306431D02*
X138897618Y-96211193D01*
X138897618Y-96211193D02*
X138909523Y-96187384D01*
X138909523Y-96187384D02*
X138921428Y-96175479D01*
X138921428Y-96175479D02*
X138945237Y-96163574D01*
X138945237Y-96163574D02*
X138992856Y-96163574D01*
X138992856Y-96163574D02*
X139016666Y-96175479D01*
X139016666Y-96175479D02*
X139028571Y-96187384D01*
X139028571Y-96187384D02*
X139040475Y-96211193D01*
X139040475Y-96211193D02*
X139040475Y-96270717D01*
X139040475Y-96270717D02*
X139028571Y-96294527D01*
X139028571Y-96294527D02*
X139016666Y-96306431D01*
X139016666Y-96306431D02*
X138992856Y-96318336D01*
X138992856Y-96318336D02*
X138945237Y-96318336D01*
X138945237Y-96318336D02*
X138921428Y-96306431D01*
X138921428Y-96306431D02*
X138909523Y-96294527D01*
X138909523Y-96294527D02*
X138897618Y-96270717D01*
X141860714Y-91513574D02*
X141944047Y-91394527D01*
X142003571Y-91513574D02*
X142003571Y-91263574D01*
X142003571Y-91263574D02*
X141908333Y-91263574D01*
X141908333Y-91263574D02*
X141884523Y-91275479D01*
X141884523Y-91275479D02*
X141872618Y-91287384D01*
X141872618Y-91287384D02*
X141860714Y-91311193D01*
X141860714Y-91311193D02*
X141860714Y-91346908D01*
X141860714Y-91346908D02*
X141872618Y-91370717D01*
X141872618Y-91370717D02*
X141884523Y-91382622D01*
X141884523Y-91382622D02*
X141908333Y-91394527D01*
X141908333Y-91394527D02*
X142003571Y-91394527D01*
X141622618Y-91513574D02*
X141765475Y-91513574D01*
X141694047Y-91513574D02*
X141694047Y-91263574D01*
X141694047Y-91263574D02*
X141717856Y-91299289D01*
X141717856Y-91299289D02*
X141741666Y-91323098D01*
X141741666Y-91323098D02*
X141765475Y-91335003D01*
X141408333Y-91263574D02*
X141455952Y-91263574D01*
X141455952Y-91263574D02*
X141479761Y-91275479D01*
X141479761Y-91275479D02*
X141491666Y-91287384D01*
X141491666Y-91287384D02*
X141515476Y-91323098D01*
X141515476Y-91323098D02*
X141527380Y-91370717D01*
X141527380Y-91370717D02*
X141527380Y-91465955D01*
X141527380Y-91465955D02*
X141515476Y-91489765D01*
X141515476Y-91489765D02*
X141503571Y-91501670D01*
X141503571Y-91501670D02*
X141479761Y-91513574D01*
X141479761Y-91513574D02*
X141432142Y-91513574D01*
X141432142Y-91513574D02*
X141408333Y-91501670D01*
X141408333Y-91501670D02*
X141396428Y-91489765D01*
X141396428Y-91489765D02*
X141384523Y-91465955D01*
X141384523Y-91465955D02*
X141384523Y-91406431D01*
X141384523Y-91406431D02*
X141396428Y-91382622D01*
X141396428Y-91382622D02*
X141408333Y-91370717D01*
X141408333Y-91370717D02*
X141432142Y-91358812D01*
X141432142Y-91358812D02*
X141479761Y-91358812D01*
X141479761Y-91358812D02*
X141503571Y-91370717D01*
X141503571Y-91370717D02*
X141515476Y-91382622D01*
X141515476Y-91382622D02*
X141527380Y-91406431D01*
X144141666Y-91513574D02*
X144224999Y-91394527D01*
X144284523Y-91513574D02*
X144284523Y-91263574D01*
X144284523Y-91263574D02*
X144189285Y-91263574D01*
X144189285Y-91263574D02*
X144165475Y-91275479D01*
X144165475Y-91275479D02*
X144153570Y-91287384D01*
X144153570Y-91287384D02*
X144141666Y-91311193D01*
X144141666Y-91311193D02*
X144141666Y-91346908D01*
X144141666Y-91346908D02*
X144153570Y-91370717D01*
X144153570Y-91370717D02*
X144165475Y-91382622D01*
X144165475Y-91382622D02*
X144189285Y-91394527D01*
X144189285Y-91394527D02*
X144284523Y-91394527D01*
X143998808Y-91370717D02*
X144022618Y-91358812D01*
X144022618Y-91358812D02*
X144034523Y-91346908D01*
X144034523Y-91346908D02*
X144046427Y-91323098D01*
X144046427Y-91323098D02*
X144046427Y-91311193D01*
X144046427Y-91311193D02*
X144034523Y-91287384D01*
X144034523Y-91287384D02*
X144022618Y-91275479D01*
X144022618Y-91275479D02*
X143998808Y-91263574D01*
X143998808Y-91263574D02*
X143951189Y-91263574D01*
X143951189Y-91263574D02*
X143927380Y-91275479D01*
X143927380Y-91275479D02*
X143915475Y-91287384D01*
X143915475Y-91287384D02*
X143903570Y-91311193D01*
X143903570Y-91311193D02*
X143903570Y-91323098D01*
X143903570Y-91323098D02*
X143915475Y-91346908D01*
X143915475Y-91346908D02*
X143927380Y-91358812D01*
X143927380Y-91358812D02*
X143951189Y-91370717D01*
X143951189Y-91370717D02*
X143998808Y-91370717D01*
X143998808Y-91370717D02*
X144022618Y-91382622D01*
X144022618Y-91382622D02*
X144034523Y-91394527D01*
X144034523Y-91394527D02*
X144046427Y-91418336D01*
X144046427Y-91418336D02*
X144046427Y-91465955D01*
X144046427Y-91465955D02*
X144034523Y-91489765D01*
X144034523Y-91489765D02*
X144022618Y-91501670D01*
X144022618Y-91501670D02*
X143998808Y-91513574D01*
X143998808Y-91513574D02*
X143951189Y-91513574D01*
X143951189Y-91513574D02*
X143927380Y-91501670D01*
X143927380Y-91501670D02*
X143915475Y-91489765D01*
X143915475Y-91489765D02*
X143903570Y-91465955D01*
X143903570Y-91465955D02*
X143903570Y-91418336D01*
X143903570Y-91418336D02*
X143915475Y-91394527D01*
X143915475Y-91394527D02*
X143927380Y-91382622D01*
X143927380Y-91382622D02*
X143951189Y-91370717D01*
D11*
X140804819Y-90858571D02*
X140804819Y-90287143D01*
X140804819Y-90572857D02*
X139804819Y-90572857D01*
X139804819Y-90572857D02*
X139947676Y-90477619D01*
X139947676Y-90477619D02*
X140042914Y-90382381D01*
X140042914Y-90382381D02*
X140090533Y-90287143D01*
X139804819Y-91477619D02*
X139804819Y-91572857D01*
X139804819Y-91572857D02*
X139852438Y-91668095D01*
X139852438Y-91668095D02*
X139900057Y-91715714D01*
X139900057Y-91715714D02*
X139995295Y-91763333D01*
X139995295Y-91763333D02*
X140185771Y-91810952D01*
X140185771Y-91810952D02*
X140423866Y-91810952D01*
X140423866Y-91810952D02*
X140614342Y-91763333D01*
X140614342Y-91763333D02*
X140709580Y-91715714D01*
X140709580Y-91715714D02*
X140757200Y-91668095D01*
X140757200Y-91668095D02*
X140804819Y-91572857D01*
X140804819Y-91572857D02*
X140804819Y-91477619D01*
X140804819Y-91477619D02*
X140757200Y-91382381D01*
X140757200Y-91382381D02*
X140709580Y-91334762D01*
X140709580Y-91334762D02*
X140614342Y-91287143D01*
X140614342Y-91287143D02*
X140423866Y-91239524D01*
X140423866Y-91239524D02*
X140185771Y-91239524D01*
X140185771Y-91239524D02*
X139995295Y-91287143D01*
X139995295Y-91287143D02*
X139900057Y-91334762D01*
X139900057Y-91334762D02*
X139852438Y-91382381D01*
X139852438Y-91382381D02*
X139804819Y-91477619D01*
X140138152Y-92668095D02*
X140804819Y-92668095D01*
X140138152Y-92239524D02*
X140661961Y-92239524D01*
X140661961Y-92239524D02*
X140757200Y-92287143D01*
X140757200Y-92287143D02*
X140804819Y-92382381D01*
X140804819Y-92382381D02*
X140804819Y-92525238D01*
X140804819Y-92525238D02*
X140757200Y-92620476D01*
X140757200Y-92620476D02*
X140709580Y-92668095D01*
X140281009Y-93477619D02*
X140281009Y-93144286D01*
X140804819Y-93144286D02*
X139804819Y-93144286D01*
X139804819Y-93144286D02*
X139804819Y-93620476D01*
D10*
X139279765Y-91888333D02*
X139291670Y-91876429D01*
X139291670Y-91876429D02*
X139303574Y-91840714D01*
X139303574Y-91840714D02*
X139303574Y-91816905D01*
X139303574Y-91816905D02*
X139291670Y-91781191D01*
X139291670Y-91781191D02*
X139267860Y-91757381D01*
X139267860Y-91757381D02*
X139244050Y-91745476D01*
X139244050Y-91745476D02*
X139196431Y-91733572D01*
X139196431Y-91733572D02*
X139160717Y-91733572D01*
X139160717Y-91733572D02*
X139113098Y-91745476D01*
X139113098Y-91745476D02*
X139089289Y-91757381D01*
X139089289Y-91757381D02*
X139065479Y-91781191D01*
X139065479Y-91781191D02*
X139053574Y-91816905D01*
X139053574Y-91816905D02*
X139053574Y-91840714D01*
X139053574Y-91840714D02*
X139065479Y-91876429D01*
X139065479Y-91876429D02*
X139077384Y-91888333D01*
X139053574Y-92102619D02*
X139053574Y-92055000D01*
X139053574Y-92055000D02*
X139065479Y-92031191D01*
X139065479Y-92031191D02*
X139077384Y-92019286D01*
X139077384Y-92019286D02*
X139113098Y-91995476D01*
X139113098Y-91995476D02*
X139160717Y-91983572D01*
X139160717Y-91983572D02*
X139255955Y-91983572D01*
X139255955Y-91983572D02*
X139279765Y-91995476D01*
X139279765Y-91995476D02*
X139291670Y-92007381D01*
X139291670Y-92007381D02*
X139303574Y-92031191D01*
X139303574Y-92031191D02*
X139303574Y-92078810D01*
X139303574Y-92078810D02*
X139291670Y-92102619D01*
X139291670Y-92102619D02*
X139279765Y-92114524D01*
X139279765Y-92114524D02*
X139255955Y-92126429D01*
X139255955Y-92126429D02*
X139196431Y-92126429D01*
X139196431Y-92126429D02*
X139172622Y-92114524D01*
X139172622Y-92114524D02*
X139160717Y-92102619D01*
X139160717Y-92102619D02*
X139148812Y-92078810D01*
X139148812Y-92078810D02*
X139148812Y-92031191D01*
X139148812Y-92031191D02*
X139160717Y-92007381D01*
X139160717Y-92007381D02*
X139172622Y-91995476D01*
X139172622Y-91995476D02*
X139196431Y-91983572D01*
X137660714Y-94089765D02*
X137672618Y-94101670D01*
X137672618Y-94101670D02*
X137708333Y-94113574D01*
X137708333Y-94113574D02*
X137732142Y-94113574D01*
X137732142Y-94113574D02*
X137767856Y-94101670D01*
X137767856Y-94101670D02*
X137791666Y-94077860D01*
X137791666Y-94077860D02*
X137803571Y-94054050D01*
X137803571Y-94054050D02*
X137815475Y-94006431D01*
X137815475Y-94006431D02*
X137815475Y-93970717D01*
X137815475Y-93970717D02*
X137803571Y-93923098D01*
X137803571Y-93923098D02*
X137791666Y-93899289D01*
X137791666Y-93899289D02*
X137767856Y-93875479D01*
X137767856Y-93875479D02*
X137732142Y-93863574D01*
X137732142Y-93863574D02*
X137708333Y-93863574D01*
X137708333Y-93863574D02*
X137672618Y-93875479D01*
X137672618Y-93875479D02*
X137660714Y-93887384D01*
X137577380Y-93863574D02*
X137422618Y-93863574D01*
X137422618Y-93863574D02*
X137505952Y-93958812D01*
X137505952Y-93958812D02*
X137470237Y-93958812D01*
X137470237Y-93958812D02*
X137446428Y-93970717D01*
X137446428Y-93970717D02*
X137434523Y-93982622D01*
X137434523Y-93982622D02*
X137422618Y-94006431D01*
X137422618Y-94006431D02*
X137422618Y-94065955D01*
X137422618Y-94065955D02*
X137434523Y-94089765D01*
X137434523Y-94089765D02*
X137446428Y-94101670D01*
X137446428Y-94101670D02*
X137470237Y-94113574D01*
X137470237Y-94113574D02*
X137541666Y-94113574D01*
X137541666Y-94113574D02*
X137565475Y-94101670D01*
X137565475Y-94101670D02*
X137577380Y-94089765D01*
X137196428Y-93863574D02*
X137315476Y-93863574D01*
X137315476Y-93863574D02*
X137327380Y-93982622D01*
X137327380Y-93982622D02*
X137315476Y-93970717D01*
X137315476Y-93970717D02*
X137291666Y-93958812D01*
X137291666Y-93958812D02*
X137232142Y-93958812D01*
X137232142Y-93958812D02*
X137208333Y-93970717D01*
X137208333Y-93970717D02*
X137196428Y-93982622D01*
X137196428Y-93982622D02*
X137184523Y-94006431D01*
X137184523Y-94006431D02*
X137184523Y-94065955D01*
X137184523Y-94065955D02*
X137196428Y-94089765D01*
X137196428Y-94089765D02*
X137208333Y-94101670D01*
X137208333Y-94101670D02*
X137232142Y-94113574D01*
X137232142Y-94113574D02*
X137291666Y-94113574D01*
X137291666Y-94113574D02*
X137315476Y-94101670D01*
X137315476Y-94101670D02*
X137327380Y-94089765D01*
X145004765Y-90449285D02*
X145016670Y-90437381D01*
X145016670Y-90437381D02*
X145028574Y-90401666D01*
X145028574Y-90401666D02*
X145028574Y-90377857D01*
X145028574Y-90377857D02*
X145016670Y-90342143D01*
X145016670Y-90342143D02*
X144992860Y-90318333D01*
X144992860Y-90318333D02*
X144969050Y-90306428D01*
X144969050Y-90306428D02*
X144921431Y-90294524D01*
X144921431Y-90294524D02*
X144885717Y-90294524D01*
X144885717Y-90294524D02*
X144838098Y-90306428D01*
X144838098Y-90306428D02*
X144814289Y-90318333D01*
X144814289Y-90318333D02*
X144790479Y-90342143D01*
X144790479Y-90342143D02*
X144778574Y-90377857D01*
X144778574Y-90377857D02*
X144778574Y-90401666D01*
X144778574Y-90401666D02*
X144790479Y-90437381D01*
X144790479Y-90437381D02*
X144802384Y-90449285D01*
X145028574Y-90687381D02*
X145028574Y-90544524D01*
X145028574Y-90615952D02*
X144778574Y-90615952D01*
X144778574Y-90615952D02*
X144814289Y-90592143D01*
X144814289Y-90592143D02*
X144838098Y-90568333D01*
X144838098Y-90568333D02*
X144850003Y-90544524D01*
X144885717Y-90830238D02*
X144873812Y-90806428D01*
X144873812Y-90806428D02*
X144861908Y-90794523D01*
X144861908Y-90794523D02*
X144838098Y-90782619D01*
X144838098Y-90782619D02*
X144826193Y-90782619D01*
X144826193Y-90782619D02*
X144802384Y-90794523D01*
X144802384Y-90794523D02*
X144790479Y-90806428D01*
X144790479Y-90806428D02*
X144778574Y-90830238D01*
X144778574Y-90830238D02*
X144778574Y-90877857D01*
X144778574Y-90877857D02*
X144790479Y-90901666D01*
X144790479Y-90901666D02*
X144802384Y-90913571D01*
X144802384Y-90913571D02*
X144826193Y-90925476D01*
X144826193Y-90925476D02*
X144838098Y-90925476D01*
X144838098Y-90925476D02*
X144861908Y-90913571D01*
X144861908Y-90913571D02*
X144873812Y-90901666D01*
X144873812Y-90901666D02*
X144885717Y-90877857D01*
X144885717Y-90877857D02*
X144885717Y-90830238D01*
X144885717Y-90830238D02*
X144897622Y-90806428D01*
X144897622Y-90806428D02*
X144909527Y-90794523D01*
X144909527Y-90794523D02*
X144933336Y-90782619D01*
X144933336Y-90782619D02*
X144980955Y-90782619D01*
X144980955Y-90782619D02*
X145004765Y-90794523D01*
X145004765Y-90794523D02*
X145016670Y-90806428D01*
X145016670Y-90806428D02*
X145028574Y-90830238D01*
X145028574Y-90830238D02*
X145028574Y-90877857D01*
X145028574Y-90877857D02*
X145016670Y-90901666D01*
X145016670Y-90901666D02*
X145004765Y-90913571D01*
X145004765Y-90913571D02*
X144980955Y-90925476D01*
X144980955Y-90925476D02*
X144933336Y-90925476D01*
X144933336Y-90925476D02*
X144909527Y-90913571D01*
X144909527Y-90913571D02*
X144897622Y-90901666D01*
X144897622Y-90901666D02*
X144885717Y-90877857D01*
X139146666Y-91013574D02*
X139229999Y-90894527D01*
X139289523Y-91013574D02*
X139289523Y-90763574D01*
X139289523Y-90763574D02*
X139194285Y-90763574D01*
X139194285Y-90763574D02*
X139170475Y-90775479D01*
X139170475Y-90775479D02*
X139158570Y-90787384D01*
X139158570Y-90787384D02*
X139146666Y-90811193D01*
X139146666Y-90811193D02*
X139146666Y-90846908D01*
X139146666Y-90846908D02*
X139158570Y-90870717D01*
X139158570Y-90870717D02*
X139170475Y-90882622D01*
X139170475Y-90882622D02*
X139194285Y-90894527D01*
X139194285Y-90894527D02*
X139289523Y-90894527D01*
X139063332Y-90763574D02*
X138908570Y-90763574D01*
X138908570Y-90763574D02*
X138991904Y-90858812D01*
X138991904Y-90858812D02*
X138956189Y-90858812D01*
X138956189Y-90858812D02*
X138932380Y-90870717D01*
X138932380Y-90870717D02*
X138920475Y-90882622D01*
X138920475Y-90882622D02*
X138908570Y-90906431D01*
X138908570Y-90906431D02*
X138908570Y-90965955D01*
X138908570Y-90965955D02*
X138920475Y-90989765D01*
X138920475Y-90989765D02*
X138932380Y-91001670D01*
X138932380Y-91001670D02*
X138956189Y-91013574D01*
X138956189Y-91013574D02*
X139027618Y-91013574D01*
X139027618Y-91013574D02*
X139051427Y-91001670D01*
X139051427Y-91001670D02*
X139063332Y-90989765D01*
X146534765Y-89899285D02*
X146546670Y-89887381D01*
X146546670Y-89887381D02*
X146558574Y-89851666D01*
X146558574Y-89851666D02*
X146558574Y-89827857D01*
X146558574Y-89827857D02*
X146546670Y-89792143D01*
X146546670Y-89792143D02*
X146522860Y-89768333D01*
X146522860Y-89768333D02*
X146499050Y-89756428D01*
X146499050Y-89756428D02*
X146451431Y-89744524D01*
X146451431Y-89744524D02*
X146415717Y-89744524D01*
X146415717Y-89744524D02*
X146368098Y-89756428D01*
X146368098Y-89756428D02*
X146344289Y-89768333D01*
X146344289Y-89768333D02*
X146320479Y-89792143D01*
X146320479Y-89792143D02*
X146308574Y-89827857D01*
X146308574Y-89827857D02*
X146308574Y-89851666D01*
X146308574Y-89851666D02*
X146320479Y-89887381D01*
X146320479Y-89887381D02*
X146332384Y-89899285D01*
X146558574Y-90137381D02*
X146558574Y-89994524D01*
X146558574Y-90065952D02*
X146308574Y-90065952D01*
X146308574Y-90065952D02*
X146344289Y-90042143D01*
X146344289Y-90042143D02*
X146368098Y-90018333D01*
X146368098Y-90018333D02*
X146380003Y-89994524D01*
X146308574Y-90220714D02*
X146308574Y-90387380D01*
X146308574Y-90387380D02*
X146558574Y-90280238D01*
X143390476Y-95563574D02*
X143390476Y-95765955D01*
X143390476Y-95765955D02*
X143378571Y-95789765D01*
X143378571Y-95789765D02*
X143366666Y-95801670D01*
X143366666Y-95801670D02*
X143342857Y-95813574D01*
X143342857Y-95813574D02*
X143295238Y-95813574D01*
X143295238Y-95813574D02*
X143271428Y-95801670D01*
X143271428Y-95801670D02*
X143259523Y-95789765D01*
X143259523Y-95789765D02*
X143247619Y-95765955D01*
X143247619Y-95765955D02*
X143247619Y-95563574D01*
X143152380Y-95563574D02*
X142985714Y-95563574D01*
X142985714Y-95563574D02*
X143092856Y-95813574D01*
X143953574Y-97511667D02*
X144132146Y-97511667D01*
X144132146Y-97511667D02*
X144167860Y-97499762D01*
X144167860Y-97499762D02*
X144191670Y-97475953D01*
X144191670Y-97475953D02*
X144203574Y-97440238D01*
X144203574Y-97440238D02*
X144203574Y-97416429D01*
X144203574Y-97630714D02*
X143953574Y-97630714D01*
X143953574Y-97630714D02*
X143953574Y-97725952D01*
X143953574Y-97725952D02*
X143965479Y-97749762D01*
X143965479Y-97749762D02*
X143977384Y-97761667D01*
X143977384Y-97761667D02*
X144001193Y-97773571D01*
X144001193Y-97773571D02*
X144036908Y-97773571D01*
X144036908Y-97773571D02*
X144060717Y-97761667D01*
X144060717Y-97761667D02*
X144072622Y-97749762D01*
X144072622Y-97749762D02*
X144084527Y-97725952D01*
X144084527Y-97725952D02*
X144084527Y-97630714D01*
X144203574Y-98011667D02*
X144203574Y-97868810D01*
X144203574Y-97940238D02*
X143953574Y-97940238D01*
X143953574Y-97940238D02*
X143989289Y-97916429D01*
X143989289Y-97916429D02*
X144013098Y-97892619D01*
X144013098Y-97892619D02*
X144025003Y-97868810D01*
X144241666Y-90713574D02*
X144360714Y-90713574D01*
X144360714Y-90713574D02*
X144360714Y-90463574D01*
X144182142Y-90463574D02*
X144027380Y-90463574D01*
X144027380Y-90463574D02*
X144110714Y-90558812D01*
X144110714Y-90558812D02*
X144074999Y-90558812D01*
X144074999Y-90558812D02*
X144051190Y-90570717D01*
X144051190Y-90570717D02*
X144039285Y-90582622D01*
X144039285Y-90582622D02*
X144027380Y-90606431D01*
X144027380Y-90606431D02*
X144027380Y-90665955D01*
X144027380Y-90665955D02*
X144039285Y-90689765D01*
X144039285Y-90689765D02*
X144051190Y-90701670D01*
X144051190Y-90701670D02*
X144074999Y-90713574D01*
X144074999Y-90713574D02*
X144146428Y-90713574D01*
X144146428Y-90713574D02*
X144170237Y-90701670D01*
X144170237Y-90701670D02*
X144182142Y-90689765D01*
X136111666Y-92789765D02*
X136123570Y-92801670D01*
X136123570Y-92801670D02*
X136159285Y-92813574D01*
X136159285Y-92813574D02*
X136183094Y-92813574D01*
X136183094Y-92813574D02*
X136218808Y-92801670D01*
X136218808Y-92801670D02*
X136242618Y-92777860D01*
X136242618Y-92777860D02*
X136254523Y-92754050D01*
X136254523Y-92754050D02*
X136266427Y-92706431D01*
X136266427Y-92706431D02*
X136266427Y-92670717D01*
X136266427Y-92670717D02*
X136254523Y-92623098D01*
X136254523Y-92623098D02*
X136242618Y-92599289D01*
X136242618Y-92599289D02*
X136218808Y-92575479D01*
X136218808Y-92575479D02*
X136183094Y-92563574D01*
X136183094Y-92563574D02*
X136159285Y-92563574D01*
X136159285Y-92563574D02*
X136123570Y-92575479D01*
X136123570Y-92575479D02*
X136111666Y-92587384D01*
X135992618Y-92813574D02*
X135944999Y-92813574D01*
X135944999Y-92813574D02*
X135921189Y-92801670D01*
X135921189Y-92801670D02*
X135909285Y-92789765D01*
X135909285Y-92789765D02*
X135885475Y-92754050D01*
X135885475Y-92754050D02*
X135873570Y-92706431D01*
X135873570Y-92706431D02*
X135873570Y-92611193D01*
X135873570Y-92611193D02*
X135885475Y-92587384D01*
X135885475Y-92587384D02*
X135897380Y-92575479D01*
X135897380Y-92575479D02*
X135921189Y-92563574D01*
X135921189Y-92563574D02*
X135968808Y-92563574D01*
X135968808Y-92563574D02*
X135992618Y-92575479D01*
X135992618Y-92575479D02*
X136004523Y-92587384D01*
X136004523Y-92587384D02*
X136016427Y-92611193D01*
X136016427Y-92611193D02*
X136016427Y-92670717D01*
X136016427Y-92670717D02*
X136004523Y-92694527D01*
X136004523Y-92694527D02*
X135992618Y-92706431D01*
X135992618Y-92706431D02*
X135968808Y-92718336D01*
X135968808Y-92718336D02*
X135921189Y-92718336D01*
X135921189Y-92718336D02*
X135897380Y-92706431D01*
X135897380Y-92706431D02*
X135885475Y-92694527D01*
X135885475Y-92694527D02*
X135873570Y-92670717D01*
X149860714Y-97689765D02*
X149872618Y-97701670D01*
X149872618Y-97701670D02*
X149908333Y-97713574D01*
X149908333Y-97713574D02*
X149932142Y-97713574D01*
X149932142Y-97713574D02*
X149967856Y-97701670D01*
X149967856Y-97701670D02*
X149991666Y-97677860D01*
X149991666Y-97677860D02*
X150003571Y-97654050D01*
X150003571Y-97654050D02*
X150015475Y-97606431D01*
X150015475Y-97606431D02*
X150015475Y-97570717D01*
X150015475Y-97570717D02*
X150003571Y-97523098D01*
X150003571Y-97523098D02*
X149991666Y-97499289D01*
X149991666Y-97499289D02*
X149967856Y-97475479D01*
X149967856Y-97475479D02*
X149932142Y-97463574D01*
X149932142Y-97463574D02*
X149908333Y-97463574D01*
X149908333Y-97463574D02*
X149872618Y-97475479D01*
X149872618Y-97475479D02*
X149860714Y-97487384D01*
X149622618Y-97713574D02*
X149765475Y-97713574D01*
X149694047Y-97713574D02*
X149694047Y-97463574D01*
X149694047Y-97463574D02*
X149717856Y-97499289D01*
X149717856Y-97499289D02*
X149741666Y-97523098D01*
X149741666Y-97523098D02*
X149765475Y-97535003D01*
X149539285Y-97463574D02*
X149384523Y-97463574D01*
X149384523Y-97463574D02*
X149467857Y-97558812D01*
X149467857Y-97558812D02*
X149432142Y-97558812D01*
X149432142Y-97558812D02*
X149408333Y-97570717D01*
X149408333Y-97570717D02*
X149396428Y-97582622D01*
X149396428Y-97582622D02*
X149384523Y-97606431D01*
X149384523Y-97606431D02*
X149384523Y-97665955D01*
X149384523Y-97665955D02*
X149396428Y-97689765D01*
X149396428Y-97689765D02*
X149408333Y-97701670D01*
X149408333Y-97701670D02*
X149432142Y-97713574D01*
X149432142Y-97713574D02*
X149503571Y-97713574D01*
X149503571Y-97713574D02*
X149527380Y-97701670D01*
X149527380Y-97701670D02*
X149539285Y-97689765D01*
X138041666Y-92179765D02*
X138053570Y-92191670D01*
X138053570Y-92191670D02*
X138089285Y-92203574D01*
X138089285Y-92203574D02*
X138113094Y-92203574D01*
X138113094Y-92203574D02*
X138148808Y-92191670D01*
X138148808Y-92191670D02*
X138172618Y-92167860D01*
X138172618Y-92167860D02*
X138184523Y-92144050D01*
X138184523Y-92144050D02*
X138196427Y-92096431D01*
X138196427Y-92096431D02*
X138196427Y-92060717D01*
X138196427Y-92060717D02*
X138184523Y-92013098D01*
X138184523Y-92013098D02*
X138172618Y-91989289D01*
X138172618Y-91989289D02*
X138148808Y-91965479D01*
X138148808Y-91965479D02*
X138113094Y-91953574D01*
X138113094Y-91953574D02*
X138089285Y-91953574D01*
X138089285Y-91953574D02*
X138053570Y-91965479D01*
X138053570Y-91965479D02*
X138041666Y-91977384D01*
X137815475Y-91953574D02*
X137934523Y-91953574D01*
X137934523Y-91953574D02*
X137946427Y-92072622D01*
X137946427Y-92072622D02*
X137934523Y-92060717D01*
X137934523Y-92060717D02*
X137910713Y-92048812D01*
X137910713Y-92048812D02*
X137851189Y-92048812D01*
X137851189Y-92048812D02*
X137827380Y-92060717D01*
X137827380Y-92060717D02*
X137815475Y-92072622D01*
X137815475Y-92072622D02*
X137803570Y-92096431D01*
X137803570Y-92096431D02*
X137803570Y-92155955D01*
X137803570Y-92155955D02*
X137815475Y-92179765D01*
X137815475Y-92179765D02*
X137827380Y-92191670D01*
X137827380Y-92191670D02*
X137851189Y-92203574D01*
X137851189Y-92203574D02*
X137910713Y-92203574D01*
X137910713Y-92203574D02*
X137934523Y-92191670D01*
X137934523Y-92191670D02*
X137946427Y-92179765D01*
X143510714Y-97213574D02*
X143594047Y-97094527D01*
X143653571Y-97213574D02*
X143653571Y-96963574D01*
X143653571Y-96963574D02*
X143558333Y-96963574D01*
X143558333Y-96963574D02*
X143534523Y-96975479D01*
X143534523Y-96975479D02*
X143522618Y-96987384D01*
X143522618Y-96987384D02*
X143510714Y-97011193D01*
X143510714Y-97011193D02*
X143510714Y-97046908D01*
X143510714Y-97046908D02*
X143522618Y-97070717D01*
X143522618Y-97070717D02*
X143534523Y-97082622D01*
X143534523Y-97082622D02*
X143558333Y-97094527D01*
X143558333Y-97094527D02*
X143653571Y-97094527D01*
X143272618Y-97213574D02*
X143415475Y-97213574D01*
X143344047Y-97213574D02*
X143344047Y-96963574D01*
X143344047Y-96963574D02*
X143367856Y-96999289D01*
X143367856Y-96999289D02*
X143391666Y-97023098D01*
X143391666Y-97023098D02*
X143415475Y-97035003D01*
X143189285Y-96963574D02*
X143022619Y-96963574D01*
X143022619Y-96963574D02*
X143129761Y-97213574D01*
X144460714Y-92289765D02*
X144472618Y-92301670D01*
X144472618Y-92301670D02*
X144508333Y-92313574D01*
X144508333Y-92313574D02*
X144532142Y-92313574D01*
X144532142Y-92313574D02*
X144567856Y-92301670D01*
X144567856Y-92301670D02*
X144591666Y-92277860D01*
X144591666Y-92277860D02*
X144603571Y-92254050D01*
X144603571Y-92254050D02*
X144615475Y-92206431D01*
X144615475Y-92206431D02*
X144615475Y-92170717D01*
X144615475Y-92170717D02*
X144603571Y-92123098D01*
X144603571Y-92123098D02*
X144591666Y-92099289D01*
X144591666Y-92099289D02*
X144567856Y-92075479D01*
X144567856Y-92075479D02*
X144532142Y-92063574D01*
X144532142Y-92063574D02*
X144508333Y-92063574D01*
X144508333Y-92063574D02*
X144472618Y-92075479D01*
X144472618Y-92075479D02*
X144460714Y-92087384D01*
X144365475Y-92087384D02*
X144353571Y-92075479D01*
X144353571Y-92075479D02*
X144329761Y-92063574D01*
X144329761Y-92063574D02*
X144270237Y-92063574D01*
X144270237Y-92063574D02*
X144246428Y-92075479D01*
X144246428Y-92075479D02*
X144234523Y-92087384D01*
X144234523Y-92087384D02*
X144222618Y-92111193D01*
X144222618Y-92111193D02*
X144222618Y-92135003D01*
X144222618Y-92135003D02*
X144234523Y-92170717D01*
X144234523Y-92170717D02*
X144377380Y-92313574D01*
X144377380Y-92313574D02*
X144222618Y-92313574D01*
X144139285Y-92063574D02*
X143972619Y-92063574D01*
X143972619Y-92063574D02*
X144079761Y-92313574D01*
X140799765Y-92068333D02*
X140811670Y-92056429D01*
X140811670Y-92056429D02*
X140823574Y-92020714D01*
X140823574Y-92020714D02*
X140823574Y-91996905D01*
X140823574Y-91996905D02*
X140811670Y-91961191D01*
X140811670Y-91961191D02*
X140787860Y-91937381D01*
X140787860Y-91937381D02*
X140764050Y-91925476D01*
X140764050Y-91925476D02*
X140716431Y-91913572D01*
X140716431Y-91913572D02*
X140680717Y-91913572D01*
X140680717Y-91913572D02*
X140633098Y-91925476D01*
X140633098Y-91925476D02*
X140609289Y-91937381D01*
X140609289Y-91937381D02*
X140585479Y-91961191D01*
X140585479Y-91961191D02*
X140573574Y-91996905D01*
X140573574Y-91996905D02*
X140573574Y-92020714D01*
X140573574Y-92020714D02*
X140585479Y-92056429D01*
X140585479Y-92056429D02*
X140597384Y-92068333D01*
X140597384Y-92163572D02*
X140585479Y-92175476D01*
X140585479Y-92175476D02*
X140573574Y-92199286D01*
X140573574Y-92199286D02*
X140573574Y-92258810D01*
X140573574Y-92258810D02*
X140585479Y-92282619D01*
X140585479Y-92282619D02*
X140597384Y-92294524D01*
X140597384Y-92294524D02*
X140621193Y-92306429D01*
X140621193Y-92306429D02*
X140645003Y-92306429D01*
X140645003Y-92306429D02*
X140680717Y-92294524D01*
X140680717Y-92294524D02*
X140823574Y-92151667D01*
X140823574Y-92151667D02*
X140823574Y-92306429D01*
X135815714Y-97089765D02*
X135827618Y-97101670D01*
X135827618Y-97101670D02*
X135863333Y-97113574D01*
X135863333Y-97113574D02*
X135887142Y-97113574D01*
X135887142Y-97113574D02*
X135922856Y-97101670D01*
X135922856Y-97101670D02*
X135946666Y-97077860D01*
X135946666Y-97077860D02*
X135958571Y-97054050D01*
X135958571Y-97054050D02*
X135970475Y-97006431D01*
X135970475Y-97006431D02*
X135970475Y-96970717D01*
X135970475Y-96970717D02*
X135958571Y-96923098D01*
X135958571Y-96923098D02*
X135946666Y-96899289D01*
X135946666Y-96899289D02*
X135922856Y-96875479D01*
X135922856Y-96875479D02*
X135887142Y-96863574D01*
X135887142Y-96863574D02*
X135863333Y-96863574D01*
X135863333Y-96863574D02*
X135827618Y-96875479D01*
X135827618Y-96875479D02*
X135815714Y-96887384D01*
X135732380Y-96863574D02*
X135577618Y-96863574D01*
X135577618Y-96863574D02*
X135660952Y-96958812D01*
X135660952Y-96958812D02*
X135625237Y-96958812D01*
X135625237Y-96958812D02*
X135601428Y-96970717D01*
X135601428Y-96970717D02*
X135589523Y-96982622D01*
X135589523Y-96982622D02*
X135577618Y-97006431D01*
X135577618Y-97006431D02*
X135577618Y-97065955D01*
X135577618Y-97065955D02*
X135589523Y-97089765D01*
X135589523Y-97089765D02*
X135601428Y-97101670D01*
X135601428Y-97101670D02*
X135625237Y-97113574D01*
X135625237Y-97113574D02*
X135696666Y-97113574D01*
X135696666Y-97113574D02*
X135720475Y-97101670D01*
X135720475Y-97101670D02*
X135732380Y-97089765D01*
X135363333Y-96946908D02*
X135363333Y-97113574D01*
X135422857Y-96851670D02*
X135482380Y-97030241D01*
X135482380Y-97030241D02*
X135327619Y-97030241D01*
X142660714Y-97189765D02*
X142672618Y-97201670D01*
X142672618Y-97201670D02*
X142708333Y-97213574D01*
X142708333Y-97213574D02*
X142732142Y-97213574D01*
X142732142Y-97213574D02*
X142767856Y-97201670D01*
X142767856Y-97201670D02*
X142791666Y-97177860D01*
X142791666Y-97177860D02*
X142803571Y-97154050D01*
X142803571Y-97154050D02*
X142815475Y-97106431D01*
X142815475Y-97106431D02*
X142815475Y-97070717D01*
X142815475Y-97070717D02*
X142803571Y-97023098D01*
X142803571Y-97023098D02*
X142791666Y-96999289D01*
X142791666Y-96999289D02*
X142767856Y-96975479D01*
X142767856Y-96975479D02*
X142732142Y-96963574D01*
X142732142Y-96963574D02*
X142708333Y-96963574D01*
X142708333Y-96963574D02*
X142672618Y-96975479D01*
X142672618Y-96975479D02*
X142660714Y-96987384D01*
X142577380Y-96963574D02*
X142422618Y-96963574D01*
X142422618Y-96963574D02*
X142505952Y-97058812D01*
X142505952Y-97058812D02*
X142470237Y-97058812D01*
X142470237Y-97058812D02*
X142446428Y-97070717D01*
X142446428Y-97070717D02*
X142434523Y-97082622D01*
X142434523Y-97082622D02*
X142422618Y-97106431D01*
X142422618Y-97106431D02*
X142422618Y-97165955D01*
X142422618Y-97165955D02*
X142434523Y-97189765D01*
X142434523Y-97189765D02*
X142446428Y-97201670D01*
X142446428Y-97201670D02*
X142470237Y-97213574D01*
X142470237Y-97213574D02*
X142541666Y-97213574D01*
X142541666Y-97213574D02*
X142565475Y-97201670D01*
X142565475Y-97201670D02*
X142577380Y-97189765D01*
X142184523Y-97213574D02*
X142327380Y-97213574D01*
X142255952Y-97213574D02*
X142255952Y-96963574D01*
X142255952Y-96963574D02*
X142279761Y-96999289D01*
X142279761Y-96999289D02*
X142303571Y-97023098D01*
X142303571Y-97023098D02*
X142327380Y-97035003D01*
X147974765Y-90009285D02*
X147986670Y-89997381D01*
X147986670Y-89997381D02*
X147998574Y-89961666D01*
X147998574Y-89961666D02*
X147998574Y-89937857D01*
X147998574Y-89937857D02*
X147986670Y-89902143D01*
X147986670Y-89902143D02*
X147962860Y-89878333D01*
X147962860Y-89878333D02*
X147939050Y-89866428D01*
X147939050Y-89866428D02*
X147891431Y-89854524D01*
X147891431Y-89854524D02*
X147855717Y-89854524D01*
X147855717Y-89854524D02*
X147808098Y-89866428D01*
X147808098Y-89866428D02*
X147784289Y-89878333D01*
X147784289Y-89878333D02*
X147760479Y-89902143D01*
X147760479Y-89902143D02*
X147748574Y-89937857D01*
X147748574Y-89937857D02*
X147748574Y-89961666D01*
X147748574Y-89961666D02*
X147760479Y-89997381D01*
X147760479Y-89997381D02*
X147772384Y-90009285D01*
X147772384Y-90104524D02*
X147760479Y-90116428D01*
X147760479Y-90116428D02*
X147748574Y-90140238D01*
X147748574Y-90140238D02*
X147748574Y-90199762D01*
X147748574Y-90199762D02*
X147760479Y-90223571D01*
X147760479Y-90223571D02*
X147772384Y-90235476D01*
X147772384Y-90235476D02*
X147796193Y-90247381D01*
X147796193Y-90247381D02*
X147820003Y-90247381D01*
X147820003Y-90247381D02*
X147855717Y-90235476D01*
X147855717Y-90235476D02*
X147998574Y-90092619D01*
X147998574Y-90092619D02*
X147998574Y-90247381D01*
X147748574Y-90473571D02*
X147748574Y-90354523D01*
X147748574Y-90354523D02*
X147867622Y-90342619D01*
X147867622Y-90342619D02*
X147855717Y-90354523D01*
X147855717Y-90354523D02*
X147843812Y-90378333D01*
X147843812Y-90378333D02*
X147843812Y-90437857D01*
X147843812Y-90437857D02*
X147855717Y-90461666D01*
X147855717Y-90461666D02*
X147867622Y-90473571D01*
X147867622Y-90473571D02*
X147891431Y-90485476D01*
X147891431Y-90485476D02*
X147950955Y-90485476D01*
X147950955Y-90485476D02*
X147974765Y-90473571D01*
X147974765Y-90473571D02*
X147986670Y-90461666D01*
X147986670Y-90461666D02*
X147998574Y-90437857D01*
X147998574Y-90437857D02*
X147998574Y-90378333D01*
X147998574Y-90378333D02*
X147986670Y-90354523D01*
X147986670Y-90354523D02*
X147974765Y-90342619D01*
X148425714Y-97689765D02*
X148437618Y-97701670D01*
X148437618Y-97701670D02*
X148473333Y-97713574D01*
X148473333Y-97713574D02*
X148497142Y-97713574D01*
X148497142Y-97713574D02*
X148532856Y-97701670D01*
X148532856Y-97701670D02*
X148556666Y-97677860D01*
X148556666Y-97677860D02*
X148568571Y-97654050D01*
X148568571Y-97654050D02*
X148580475Y-97606431D01*
X148580475Y-97606431D02*
X148580475Y-97570717D01*
X148580475Y-97570717D02*
X148568571Y-97523098D01*
X148568571Y-97523098D02*
X148556666Y-97499289D01*
X148556666Y-97499289D02*
X148532856Y-97475479D01*
X148532856Y-97475479D02*
X148497142Y-97463574D01*
X148497142Y-97463574D02*
X148473333Y-97463574D01*
X148473333Y-97463574D02*
X148437618Y-97475479D01*
X148437618Y-97475479D02*
X148425714Y-97487384D01*
X148187618Y-97713574D02*
X148330475Y-97713574D01*
X148259047Y-97713574D02*
X148259047Y-97463574D01*
X148259047Y-97463574D02*
X148282856Y-97499289D01*
X148282856Y-97499289D02*
X148306666Y-97523098D01*
X148306666Y-97523098D02*
X148330475Y-97535003D01*
X148092380Y-97487384D02*
X148080476Y-97475479D01*
X148080476Y-97475479D02*
X148056666Y-97463574D01*
X148056666Y-97463574D02*
X147997142Y-97463574D01*
X147997142Y-97463574D02*
X147973333Y-97475479D01*
X147973333Y-97475479D02*
X147961428Y-97487384D01*
X147961428Y-97487384D02*
X147949523Y-97511193D01*
X147949523Y-97511193D02*
X147949523Y-97535003D01*
X147949523Y-97535003D02*
X147961428Y-97570717D01*
X147961428Y-97570717D02*
X148104285Y-97713574D01*
X148104285Y-97713574D02*
X147949523Y-97713574D01*
X139021666Y-92999765D02*
X139033570Y-93011670D01*
X139033570Y-93011670D02*
X139069285Y-93023574D01*
X139069285Y-93023574D02*
X139093094Y-93023574D01*
X139093094Y-93023574D02*
X139128808Y-93011670D01*
X139128808Y-93011670D02*
X139152618Y-92987860D01*
X139152618Y-92987860D02*
X139164523Y-92964050D01*
X139164523Y-92964050D02*
X139176427Y-92916431D01*
X139176427Y-92916431D02*
X139176427Y-92880717D01*
X139176427Y-92880717D02*
X139164523Y-92833098D01*
X139164523Y-92833098D02*
X139152618Y-92809289D01*
X139152618Y-92809289D02*
X139128808Y-92785479D01*
X139128808Y-92785479D02*
X139093094Y-92773574D01*
X139093094Y-92773574D02*
X139069285Y-92773574D01*
X139069285Y-92773574D02*
X139033570Y-92785479D01*
X139033570Y-92785479D02*
X139021666Y-92797384D01*
X138783570Y-93023574D02*
X138926427Y-93023574D01*
X138854999Y-93023574D02*
X138854999Y-92773574D01*
X138854999Y-92773574D02*
X138878808Y-92809289D01*
X138878808Y-92809289D02*
X138902618Y-92833098D01*
X138902618Y-92833098D02*
X138926427Y-92845003D01*
X140760714Y-90989765D02*
X140772618Y-91001670D01*
X140772618Y-91001670D02*
X140808333Y-91013574D01*
X140808333Y-91013574D02*
X140832142Y-91013574D01*
X140832142Y-91013574D02*
X140867856Y-91001670D01*
X140867856Y-91001670D02*
X140891666Y-90977860D01*
X140891666Y-90977860D02*
X140903571Y-90954050D01*
X140903571Y-90954050D02*
X140915475Y-90906431D01*
X140915475Y-90906431D02*
X140915475Y-90870717D01*
X140915475Y-90870717D02*
X140903571Y-90823098D01*
X140903571Y-90823098D02*
X140891666Y-90799289D01*
X140891666Y-90799289D02*
X140867856Y-90775479D01*
X140867856Y-90775479D02*
X140832142Y-90763574D01*
X140832142Y-90763574D02*
X140808333Y-90763574D01*
X140808333Y-90763574D02*
X140772618Y-90775479D01*
X140772618Y-90775479D02*
X140760714Y-90787384D01*
X140665475Y-90787384D02*
X140653571Y-90775479D01*
X140653571Y-90775479D02*
X140629761Y-90763574D01*
X140629761Y-90763574D02*
X140570237Y-90763574D01*
X140570237Y-90763574D02*
X140546428Y-90775479D01*
X140546428Y-90775479D02*
X140534523Y-90787384D01*
X140534523Y-90787384D02*
X140522618Y-90811193D01*
X140522618Y-90811193D02*
X140522618Y-90835003D01*
X140522618Y-90835003D02*
X140534523Y-90870717D01*
X140534523Y-90870717D02*
X140677380Y-91013574D01*
X140677380Y-91013574D02*
X140522618Y-91013574D01*
X140403571Y-91013574D02*
X140355952Y-91013574D01*
X140355952Y-91013574D02*
X140332142Y-91001670D01*
X140332142Y-91001670D02*
X140320238Y-90989765D01*
X140320238Y-90989765D02*
X140296428Y-90954050D01*
X140296428Y-90954050D02*
X140284523Y-90906431D01*
X140284523Y-90906431D02*
X140284523Y-90811193D01*
X140284523Y-90811193D02*
X140296428Y-90787384D01*
X140296428Y-90787384D02*
X140308333Y-90775479D01*
X140308333Y-90775479D02*
X140332142Y-90763574D01*
X140332142Y-90763574D02*
X140379761Y-90763574D01*
X140379761Y-90763574D02*
X140403571Y-90775479D01*
X140403571Y-90775479D02*
X140415476Y-90787384D01*
X140415476Y-90787384D02*
X140427380Y-90811193D01*
X140427380Y-90811193D02*
X140427380Y-90870717D01*
X140427380Y-90870717D02*
X140415476Y-90894527D01*
X140415476Y-90894527D02*
X140403571Y-90906431D01*
X140403571Y-90906431D02*
X140379761Y-90918336D01*
X140379761Y-90918336D02*
X140332142Y-90918336D01*
X140332142Y-90918336D02*
X140308333Y-90906431D01*
X140308333Y-90906431D02*
X140296428Y-90894527D01*
X140296428Y-90894527D02*
X140284523Y-90870717D01*
X144241666Y-89913574D02*
X144324999Y-89794527D01*
X144384523Y-89913574D02*
X144384523Y-89663574D01*
X144384523Y-89663574D02*
X144289285Y-89663574D01*
X144289285Y-89663574D02*
X144265475Y-89675479D01*
X144265475Y-89675479D02*
X144253570Y-89687384D01*
X144253570Y-89687384D02*
X144241666Y-89711193D01*
X144241666Y-89711193D02*
X144241666Y-89746908D01*
X144241666Y-89746908D02*
X144253570Y-89770717D01*
X144253570Y-89770717D02*
X144265475Y-89782622D01*
X144265475Y-89782622D02*
X144289285Y-89794527D01*
X144289285Y-89794527D02*
X144384523Y-89794527D01*
X144027380Y-89746908D02*
X144027380Y-89913574D01*
X144086904Y-89651670D02*
X144146427Y-89830241D01*
X144146427Y-89830241D02*
X143991666Y-89830241D01*
X147020714Y-97754765D02*
X147032618Y-97766670D01*
X147032618Y-97766670D02*
X147068333Y-97778574D01*
X147068333Y-97778574D02*
X147092142Y-97778574D01*
X147092142Y-97778574D02*
X147127856Y-97766670D01*
X147127856Y-97766670D02*
X147151666Y-97742860D01*
X147151666Y-97742860D02*
X147163571Y-97719050D01*
X147163571Y-97719050D02*
X147175475Y-97671431D01*
X147175475Y-97671431D02*
X147175475Y-97635717D01*
X147175475Y-97635717D02*
X147163571Y-97588098D01*
X147163571Y-97588098D02*
X147151666Y-97564289D01*
X147151666Y-97564289D02*
X147127856Y-97540479D01*
X147127856Y-97540479D02*
X147092142Y-97528574D01*
X147092142Y-97528574D02*
X147068333Y-97528574D01*
X147068333Y-97528574D02*
X147032618Y-97540479D01*
X147032618Y-97540479D02*
X147020714Y-97552384D01*
X146782618Y-97778574D02*
X146925475Y-97778574D01*
X146854047Y-97778574D02*
X146854047Y-97528574D01*
X146854047Y-97528574D02*
X146877856Y-97564289D01*
X146877856Y-97564289D02*
X146901666Y-97588098D01*
X146901666Y-97588098D02*
X146925475Y-97600003D01*
X146568333Y-97611908D02*
X146568333Y-97778574D01*
X146627857Y-97516670D02*
X146687380Y-97695241D01*
X146687380Y-97695241D02*
X146532619Y-97695241D01*
X137030714Y-92789765D02*
X137042618Y-92801670D01*
X137042618Y-92801670D02*
X137078333Y-92813574D01*
X137078333Y-92813574D02*
X137102142Y-92813574D01*
X137102142Y-92813574D02*
X137137856Y-92801670D01*
X137137856Y-92801670D02*
X137161666Y-92777860D01*
X137161666Y-92777860D02*
X137173571Y-92754050D01*
X137173571Y-92754050D02*
X137185475Y-92706431D01*
X137185475Y-92706431D02*
X137185475Y-92670717D01*
X137185475Y-92670717D02*
X137173571Y-92623098D01*
X137173571Y-92623098D02*
X137161666Y-92599289D01*
X137161666Y-92599289D02*
X137137856Y-92575479D01*
X137137856Y-92575479D02*
X137102142Y-92563574D01*
X137102142Y-92563574D02*
X137078333Y-92563574D01*
X137078333Y-92563574D02*
X137042618Y-92575479D01*
X137042618Y-92575479D02*
X137030714Y-92587384D01*
X136792618Y-92813574D02*
X136935475Y-92813574D01*
X136864047Y-92813574D02*
X136864047Y-92563574D01*
X136864047Y-92563574D02*
X136887856Y-92599289D01*
X136887856Y-92599289D02*
X136911666Y-92623098D01*
X136911666Y-92623098D02*
X136935475Y-92635003D01*
X136554523Y-92813574D02*
X136697380Y-92813574D01*
X136625952Y-92813574D02*
X136625952Y-92563574D01*
X136625952Y-92563574D02*
X136649761Y-92599289D01*
X136649761Y-92599289D02*
X136673571Y-92623098D01*
X136673571Y-92623098D02*
X136697380Y-92635003D01*
X140959765Y-91868333D02*
X140971670Y-91856429D01*
X140971670Y-91856429D02*
X140983574Y-91820714D01*
X140983574Y-91820714D02*
X140983574Y-91796905D01*
X140983574Y-91796905D02*
X140971670Y-91761191D01*
X140971670Y-91761191D02*
X140947860Y-91737381D01*
X140947860Y-91737381D02*
X140924050Y-91725476D01*
X140924050Y-91725476D02*
X140876431Y-91713572D01*
X140876431Y-91713572D02*
X140840717Y-91713572D01*
X140840717Y-91713572D02*
X140793098Y-91725476D01*
X140793098Y-91725476D02*
X140769289Y-91737381D01*
X140769289Y-91737381D02*
X140745479Y-91761191D01*
X140745479Y-91761191D02*
X140733574Y-91796905D01*
X140733574Y-91796905D02*
X140733574Y-91820714D01*
X140733574Y-91820714D02*
X140745479Y-91856429D01*
X140745479Y-91856429D02*
X140757384Y-91868333D01*
X140733574Y-91951667D02*
X140733574Y-92106429D01*
X140733574Y-92106429D02*
X140828812Y-92023095D01*
X140828812Y-92023095D02*
X140828812Y-92058810D01*
X140828812Y-92058810D02*
X140840717Y-92082619D01*
X140840717Y-92082619D02*
X140852622Y-92094524D01*
X140852622Y-92094524D02*
X140876431Y-92106429D01*
X140876431Y-92106429D02*
X140935955Y-92106429D01*
X140935955Y-92106429D02*
X140959765Y-92094524D01*
X140959765Y-92094524D02*
X140971670Y-92082619D01*
X140971670Y-92082619D02*
X140983574Y-92058810D01*
X140983574Y-92058810D02*
X140983574Y-91987381D01*
X140983574Y-91987381D02*
X140971670Y-91963572D01*
X140971670Y-91963572D02*
X140959765Y-91951667D01*
X135815714Y-95619765D02*
X135827618Y-95631670D01*
X135827618Y-95631670D02*
X135863333Y-95643574D01*
X135863333Y-95643574D02*
X135887142Y-95643574D01*
X135887142Y-95643574D02*
X135922856Y-95631670D01*
X135922856Y-95631670D02*
X135946666Y-95607860D01*
X135946666Y-95607860D02*
X135958571Y-95584050D01*
X135958571Y-95584050D02*
X135970475Y-95536431D01*
X135970475Y-95536431D02*
X135970475Y-95500717D01*
X135970475Y-95500717D02*
X135958571Y-95453098D01*
X135958571Y-95453098D02*
X135946666Y-95429289D01*
X135946666Y-95429289D02*
X135922856Y-95405479D01*
X135922856Y-95405479D02*
X135887142Y-95393574D01*
X135887142Y-95393574D02*
X135863333Y-95393574D01*
X135863333Y-95393574D02*
X135827618Y-95405479D01*
X135827618Y-95405479D02*
X135815714Y-95417384D01*
X135732380Y-95393574D02*
X135577618Y-95393574D01*
X135577618Y-95393574D02*
X135660952Y-95488812D01*
X135660952Y-95488812D02*
X135625237Y-95488812D01*
X135625237Y-95488812D02*
X135601428Y-95500717D01*
X135601428Y-95500717D02*
X135589523Y-95512622D01*
X135589523Y-95512622D02*
X135577618Y-95536431D01*
X135577618Y-95536431D02*
X135577618Y-95595955D01*
X135577618Y-95595955D02*
X135589523Y-95619765D01*
X135589523Y-95619765D02*
X135601428Y-95631670D01*
X135601428Y-95631670D02*
X135625237Y-95643574D01*
X135625237Y-95643574D02*
X135696666Y-95643574D01*
X135696666Y-95643574D02*
X135720475Y-95631670D01*
X135720475Y-95631670D02*
X135732380Y-95619765D01*
X135494285Y-95393574D02*
X135339523Y-95393574D01*
X135339523Y-95393574D02*
X135422857Y-95488812D01*
X135422857Y-95488812D02*
X135387142Y-95488812D01*
X135387142Y-95488812D02*
X135363333Y-95500717D01*
X135363333Y-95500717D02*
X135351428Y-95512622D01*
X135351428Y-95512622D02*
X135339523Y-95536431D01*
X135339523Y-95536431D02*
X135339523Y-95595955D01*
X135339523Y-95595955D02*
X135351428Y-95619765D01*
X135351428Y-95619765D02*
X135363333Y-95631670D01*
X135363333Y-95631670D02*
X135387142Y-95643574D01*
X135387142Y-95643574D02*
X135458571Y-95643574D01*
X135458571Y-95643574D02*
X135482380Y-95631670D01*
X135482380Y-95631670D02*
X135494285Y-95619765D01*
X145834765Y-89899285D02*
X145846670Y-89887381D01*
X145846670Y-89887381D02*
X145858574Y-89851666D01*
X145858574Y-89851666D02*
X145858574Y-89827857D01*
X145858574Y-89827857D02*
X145846670Y-89792143D01*
X145846670Y-89792143D02*
X145822860Y-89768333D01*
X145822860Y-89768333D02*
X145799050Y-89756428D01*
X145799050Y-89756428D02*
X145751431Y-89744524D01*
X145751431Y-89744524D02*
X145715717Y-89744524D01*
X145715717Y-89744524D02*
X145668098Y-89756428D01*
X145668098Y-89756428D02*
X145644289Y-89768333D01*
X145644289Y-89768333D02*
X145620479Y-89792143D01*
X145620479Y-89792143D02*
X145608574Y-89827857D01*
X145608574Y-89827857D02*
X145608574Y-89851666D01*
X145608574Y-89851666D02*
X145620479Y-89887381D01*
X145620479Y-89887381D02*
X145632384Y-89899285D01*
X145858574Y-90137381D02*
X145858574Y-89994524D01*
X145858574Y-90065952D02*
X145608574Y-90065952D01*
X145608574Y-90065952D02*
X145644289Y-90042143D01*
X145644289Y-90042143D02*
X145668098Y-90018333D01*
X145668098Y-90018333D02*
X145680003Y-89994524D01*
X145608574Y-90351666D02*
X145608574Y-90304047D01*
X145608574Y-90304047D02*
X145620479Y-90280238D01*
X145620479Y-90280238D02*
X145632384Y-90268333D01*
X145632384Y-90268333D02*
X145668098Y-90244523D01*
X145668098Y-90244523D02*
X145715717Y-90232619D01*
X145715717Y-90232619D02*
X145810955Y-90232619D01*
X145810955Y-90232619D02*
X145834765Y-90244523D01*
X145834765Y-90244523D02*
X145846670Y-90256428D01*
X145846670Y-90256428D02*
X145858574Y-90280238D01*
X145858574Y-90280238D02*
X145858574Y-90327857D01*
X145858574Y-90327857D02*
X145846670Y-90351666D01*
X145846670Y-90351666D02*
X145834765Y-90363571D01*
X145834765Y-90363571D02*
X145810955Y-90375476D01*
X145810955Y-90375476D02*
X145751431Y-90375476D01*
X145751431Y-90375476D02*
X145727622Y-90363571D01*
X145727622Y-90363571D02*
X145715717Y-90351666D01*
X145715717Y-90351666D02*
X145703812Y-90327857D01*
X145703812Y-90327857D02*
X145703812Y-90280238D01*
X145703812Y-90280238D02*
X145715717Y-90256428D01*
X145715717Y-90256428D02*
X145727622Y-90244523D01*
X145727622Y-90244523D02*
X145751431Y-90232619D01*
X147159523Y-94636425D02*
X147159523Y-94434044D01*
X147159523Y-94434044D02*
X147171428Y-94410234D01*
X147171428Y-94410234D02*
X147183333Y-94398330D01*
X147183333Y-94398330D02*
X147207142Y-94386425D01*
X147207142Y-94386425D02*
X147254761Y-94386425D01*
X147254761Y-94386425D02*
X147278571Y-94398330D01*
X147278571Y-94398330D02*
X147290476Y-94410234D01*
X147290476Y-94410234D02*
X147302380Y-94434044D01*
X147302380Y-94434044D02*
X147302380Y-94636425D01*
X147540476Y-94636425D02*
X147421428Y-94636425D01*
X147421428Y-94636425D02*
X147409524Y-94517377D01*
X147409524Y-94517377D02*
X147421428Y-94529282D01*
X147421428Y-94529282D02*
X147445238Y-94541187D01*
X147445238Y-94541187D02*
X147504762Y-94541187D01*
X147504762Y-94541187D02*
X147528571Y-94529282D01*
X147528571Y-94529282D02*
X147540476Y-94517377D01*
X147540476Y-94517377D02*
X147552381Y-94493568D01*
X147552381Y-94493568D02*
X147552381Y-94434044D01*
X147552381Y-94434044D02*
X147540476Y-94410234D01*
X147540476Y-94410234D02*
X147528571Y-94398330D01*
X147528571Y-94398330D02*
X147504762Y-94386425D01*
X147504762Y-94386425D02*
X147445238Y-94386425D01*
X147445238Y-94386425D02*
X147421428Y-94398330D01*
X147421428Y-94398330D02*
X147409524Y-94410234D01*
X147159523Y-94636425D02*
X147159523Y-94434044D01*
X147159523Y-94434044D02*
X147171428Y-94410234D01*
X147171428Y-94410234D02*
X147183333Y-94398330D01*
X147183333Y-94398330D02*
X147207142Y-94386425D01*
X147207142Y-94386425D02*
X147254761Y-94386425D01*
X147254761Y-94386425D02*
X147278571Y-94398330D01*
X147278571Y-94398330D02*
X147290476Y-94410234D01*
X147290476Y-94410234D02*
X147302380Y-94434044D01*
X147302380Y-94434044D02*
X147302380Y-94636425D01*
X147540476Y-94636425D02*
X147421428Y-94636425D01*
X147421428Y-94636425D02*
X147409524Y-94517377D01*
X147409524Y-94517377D02*
X147421428Y-94529282D01*
X147421428Y-94529282D02*
X147445238Y-94541187D01*
X147445238Y-94541187D02*
X147504762Y-94541187D01*
X147504762Y-94541187D02*
X147528571Y-94529282D01*
X147528571Y-94529282D02*
X147540476Y-94517377D01*
X147540476Y-94517377D02*
X147552381Y-94493568D01*
X147552381Y-94493568D02*
X147552381Y-94434044D01*
X147552381Y-94434044D02*
X147540476Y-94410234D01*
X147540476Y-94410234D02*
X147528571Y-94398330D01*
X147528571Y-94398330D02*
X147504762Y-94386425D01*
X147504762Y-94386425D02*
X147445238Y-94386425D01*
X147445238Y-94386425D02*
X147421428Y-94398330D01*
X147421428Y-94398330D02*
X147409524Y-94410234D01*
X135989765Y-91008333D02*
X136001670Y-90996429D01*
X136001670Y-90996429D02*
X136013574Y-90960714D01*
X136013574Y-90960714D02*
X136013574Y-90936905D01*
X136013574Y-90936905D02*
X136001670Y-90901191D01*
X136001670Y-90901191D02*
X135977860Y-90877381D01*
X135977860Y-90877381D02*
X135954050Y-90865476D01*
X135954050Y-90865476D02*
X135906431Y-90853572D01*
X135906431Y-90853572D02*
X135870717Y-90853572D01*
X135870717Y-90853572D02*
X135823098Y-90865476D01*
X135823098Y-90865476D02*
X135799289Y-90877381D01*
X135799289Y-90877381D02*
X135775479Y-90901191D01*
X135775479Y-90901191D02*
X135763574Y-90936905D01*
X135763574Y-90936905D02*
X135763574Y-90960714D01*
X135763574Y-90960714D02*
X135775479Y-90996429D01*
X135775479Y-90996429D02*
X135787384Y-91008333D01*
X135870717Y-91151191D02*
X135858812Y-91127381D01*
X135858812Y-91127381D02*
X135846908Y-91115476D01*
X135846908Y-91115476D02*
X135823098Y-91103572D01*
X135823098Y-91103572D02*
X135811193Y-91103572D01*
X135811193Y-91103572D02*
X135787384Y-91115476D01*
X135787384Y-91115476D02*
X135775479Y-91127381D01*
X135775479Y-91127381D02*
X135763574Y-91151191D01*
X135763574Y-91151191D02*
X135763574Y-91198810D01*
X135763574Y-91198810D02*
X135775479Y-91222619D01*
X135775479Y-91222619D02*
X135787384Y-91234524D01*
X135787384Y-91234524D02*
X135811193Y-91246429D01*
X135811193Y-91246429D02*
X135823098Y-91246429D01*
X135823098Y-91246429D02*
X135846908Y-91234524D01*
X135846908Y-91234524D02*
X135858812Y-91222619D01*
X135858812Y-91222619D02*
X135870717Y-91198810D01*
X135870717Y-91198810D02*
X135870717Y-91151191D01*
X135870717Y-91151191D02*
X135882622Y-91127381D01*
X135882622Y-91127381D02*
X135894527Y-91115476D01*
X135894527Y-91115476D02*
X135918336Y-91103572D01*
X135918336Y-91103572D02*
X135965955Y-91103572D01*
X135965955Y-91103572D02*
X135989765Y-91115476D01*
X135989765Y-91115476D02*
X136001670Y-91127381D01*
X136001670Y-91127381D02*
X136013574Y-91151191D01*
X136013574Y-91151191D02*
X136013574Y-91198810D01*
X136013574Y-91198810D02*
X136001670Y-91222619D01*
X136001670Y-91222619D02*
X135989765Y-91234524D01*
X135989765Y-91234524D02*
X135965955Y-91246429D01*
X135965955Y-91246429D02*
X135918336Y-91246429D01*
X135918336Y-91246429D02*
X135894527Y-91234524D01*
X135894527Y-91234524D02*
X135882622Y-91222619D01*
X135882622Y-91222619D02*
X135870717Y-91198810D01*
X140641666Y-88608574D02*
X140760714Y-88608574D01*
X140760714Y-88608574D02*
X140760714Y-88358574D01*
X140427380Y-88608574D02*
X140570237Y-88608574D01*
X140498809Y-88608574D02*
X140498809Y-88358574D01*
X140498809Y-88358574D02*
X140522618Y-88394289D01*
X140522618Y-88394289D02*
X140546428Y-88418098D01*
X140546428Y-88418098D02*
X140570237Y-88430003D01*
X149156666Y-91813574D02*
X149239999Y-91694527D01*
X149299523Y-91813574D02*
X149299523Y-91563574D01*
X149299523Y-91563574D02*
X149204285Y-91563574D01*
X149204285Y-91563574D02*
X149180475Y-91575479D01*
X149180475Y-91575479D02*
X149168570Y-91587384D01*
X149168570Y-91587384D02*
X149156666Y-91611193D01*
X149156666Y-91611193D02*
X149156666Y-91646908D01*
X149156666Y-91646908D02*
X149168570Y-91670717D01*
X149168570Y-91670717D02*
X149180475Y-91682622D01*
X149180475Y-91682622D02*
X149204285Y-91694527D01*
X149204285Y-91694527D02*
X149299523Y-91694527D01*
X149073332Y-91563574D02*
X148906666Y-91563574D01*
X148906666Y-91563574D02*
X149013808Y-91813574D01*
X144160714Y-94189765D02*
X144172618Y-94201670D01*
X144172618Y-94201670D02*
X144208333Y-94213574D01*
X144208333Y-94213574D02*
X144232142Y-94213574D01*
X144232142Y-94213574D02*
X144267856Y-94201670D01*
X144267856Y-94201670D02*
X144291666Y-94177860D01*
X144291666Y-94177860D02*
X144303571Y-94154050D01*
X144303571Y-94154050D02*
X144315475Y-94106431D01*
X144315475Y-94106431D02*
X144315475Y-94070717D01*
X144315475Y-94070717D02*
X144303571Y-94023098D01*
X144303571Y-94023098D02*
X144291666Y-93999289D01*
X144291666Y-93999289D02*
X144267856Y-93975479D01*
X144267856Y-93975479D02*
X144232142Y-93963574D01*
X144232142Y-93963574D02*
X144208333Y-93963574D01*
X144208333Y-93963574D02*
X144172618Y-93975479D01*
X144172618Y-93975479D02*
X144160714Y-93987384D01*
X144077380Y-93963574D02*
X143922618Y-93963574D01*
X143922618Y-93963574D02*
X144005952Y-94058812D01*
X144005952Y-94058812D02*
X143970237Y-94058812D01*
X143970237Y-94058812D02*
X143946428Y-94070717D01*
X143946428Y-94070717D02*
X143934523Y-94082622D01*
X143934523Y-94082622D02*
X143922618Y-94106431D01*
X143922618Y-94106431D02*
X143922618Y-94165955D01*
X143922618Y-94165955D02*
X143934523Y-94189765D01*
X143934523Y-94189765D02*
X143946428Y-94201670D01*
X143946428Y-94201670D02*
X143970237Y-94213574D01*
X143970237Y-94213574D02*
X144041666Y-94213574D01*
X144041666Y-94213574D02*
X144065475Y-94201670D01*
X144065475Y-94201670D02*
X144077380Y-94189765D01*
X143767857Y-93963574D02*
X143744047Y-93963574D01*
X143744047Y-93963574D02*
X143720238Y-93975479D01*
X143720238Y-93975479D02*
X143708333Y-93987384D01*
X143708333Y-93987384D02*
X143696428Y-94011193D01*
X143696428Y-94011193D02*
X143684523Y-94058812D01*
X143684523Y-94058812D02*
X143684523Y-94118336D01*
X143684523Y-94118336D02*
X143696428Y-94165955D01*
X143696428Y-94165955D02*
X143708333Y-94189765D01*
X143708333Y-94189765D02*
X143720238Y-94201670D01*
X143720238Y-94201670D02*
X143744047Y-94213574D01*
X143744047Y-94213574D02*
X143767857Y-94213574D01*
X143767857Y-94213574D02*
X143791666Y-94201670D01*
X143791666Y-94201670D02*
X143803571Y-94189765D01*
X143803571Y-94189765D02*
X143815476Y-94165955D01*
X143815476Y-94165955D02*
X143827380Y-94118336D01*
X143827380Y-94118336D02*
X143827380Y-94058812D01*
X143827380Y-94058812D02*
X143815476Y-94011193D01*
X143815476Y-94011193D02*
X143803571Y-93987384D01*
X143803571Y-93987384D02*
X143791666Y-93975479D01*
X143791666Y-93975479D02*
X143767857Y-93963574D01*
X147284765Y-89999285D02*
X147296670Y-89987381D01*
X147296670Y-89987381D02*
X147308574Y-89951666D01*
X147308574Y-89951666D02*
X147308574Y-89927857D01*
X147308574Y-89927857D02*
X147296670Y-89892143D01*
X147296670Y-89892143D02*
X147272860Y-89868333D01*
X147272860Y-89868333D02*
X147249050Y-89856428D01*
X147249050Y-89856428D02*
X147201431Y-89844524D01*
X147201431Y-89844524D02*
X147165717Y-89844524D01*
X147165717Y-89844524D02*
X147118098Y-89856428D01*
X147118098Y-89856428D02*
X147094289Y-89868333D01*
X147094289Y-89868333D02*
X147070479Y-89892143D01*
X147070479Y-89892143D02*
X147058574Y-89927857D01*
X147058574Y-89927857D02*
X147058574Y-89951666D01*
X147058574Y-89951666D02*
X147070479Y-89987381D01*
X147070479Y-89987381D02*
X147082384Y-89999285D01*
X147082384Y-90094524D02*
X147070479Y-90106428D01*
X147070479Y-90106428D02*
X147058574Y-90130238D01*
X147058574Y-90130238D02*
X147058574Y-90189762D01*
X147058574Y-90189762D02*
X147070479Y-90213571D01*
X147070479Y-90213571D02*
X147082384Y-90225476D01*
X147082384Y-90225476D02*
X147106193Y-90237381D01*
X147106193Y-90237381D02*
X147130003Y-90237381D01*
X147130003Y-90237381D02*
X147165717Y-90225476D01*
X147165717Y-90225476D02*
X147308574Y-90082619D01*
X147308574Y-90082619D02*
X147308574Y-90237381D01*
X147058574Y-90451666D02*
X147058574Y-90404047D01*
X147058574Y-90404047D02*
X147070479Y-90380238D01*
X147070479Y-90380238D02*
X147082384Y-90368333D01*
X147082384Y-90368333D02*
X147118098Y-90344523D01*
X147118098Y-90344523D02*
X147165717Y-90332619D01*
X147165717Y-90332619D02*
X147260955Y-90332619D01*
X147260955Y-90332619D02*
X147284765Y-90344523D01*
X147284765Y-90344523D02*
X147296670Y-90356428D01*
X147296670Y-90356428D02*
X147308574Y-90380238D01*
X147308574Y-90380238D02*
X147308574Y-90427857D01*
X147308574Y-90427857D02*
X147296670Y-90451666D01*
X147296670Y-90451666D02*
X147284765Y-90463571D01*
X147284765Y-90463571D02*
X147260955Y-90475476D01*
X147260955Y-90475476D02*
X147201431Y-90475476D01*
X147201431Y-90475476D02*
X147177622Y-90463571D01*
X147177622Y-90463571D02*
X147165717Y-90451666D01*
X147165717Y-90451666D02*
X147153812Y-90427857D01*
X147153812Y-90427857D02*
X147153812Y-90380238D01*
X147153812Y-90380238D02*
X147165717Y-90356428D01*
X147165717Y-90356428D02*
X147177622Y-90344523D01*
X147177622Y-90344523D02*
X147201431Y-90332619D01*
D12*
%TO.C,L2*%
X145750000Y-88950000D02*
X145750000Y-88050000D01*
X145750000Y-88050000D02*
X143750000Y-88050000D01*
X143750000Y-88950000D02*
X145750000Y-88950000D01*
X143750000Y-88050000D02*
X143750000Y-88950000D01*
%TO.C,C15*%
X145720000Y-98200000D02*
X145720000Y-97900000D01*
X145720000Y-97900000D02*
X145120000Y-97900000D01*
X145120000Y-98200000D02*
X145720000Y-98200000D01*
X145120000Y-97900000D02*
X145120000Y-98200000D01*
%TO.C,R9*%
X143200000Y-92850000D02*
X143200000Y-93150000D01*
X143200000Y-93150000D02*
X143800000Y-93150000D01*
X143800000Y-92850000D02*
X143200000Y-92850000D01*
X143800000Y-93150000D02*
X143800000Y-92850000D01*
%TO.C,U1*%
X140430000Y-93910000D02*
X139790000Y-93910000D01*
X139790000Y-93540000D01*
X140060000Y-93270000D01*
X140430000Y-93270000D01*
X140430000Y-93910000D01*
%TO.C,R6*%
X148800000Y-90400000D02*
X148800000Y-90700000D01*
X148800000Y-90700000D02*
X149400000Y-90700000D01*
X149400000Y-90400000D02*
X148800000Y-90400000D01*
X149400000Y-90700000D02*
X149400000Y-90400000D01*
%TO.C,U8*%
X141500000Y-91700000D02*
X141500000Y-92450000D01*
X141500000Y-92450000D02*
X141750000Y-92700000D01*
X141750000Y-92700000D02*
X142500000Y-92700000D01*
X142500000Y-91700000D02*
X141500000Y-91700000D01*
X142500000Y-92700000D02*
X142500000Y-91700000D01*
%TO.C,C4*%
X137660000Y-91260000D02*
X137660000Y-91560000D01*
X137660000Y-91560000D02*
X138260000Y-91560000D01*
X138260000Y-91260000D02*
X137660000Y-91260000D01*
X138260000Y-91560000D02*
X138260000Y-91260000D01*
%TO.C,C32*%
X142300000Y-93450000D02*
X142300000Y-93150000D01*
X142300000Y-93150000D02*
X141700000Y-93150000D01*
X141700000Y-93450000D02*
X142300000Y-93450000D01*
X141700000Y-93150000D02*
X141700000Y-93450000D01*
%TO.C,U9*%
X136500000Y-94400000D02*
X141700000Y-94400000D01*
X136500000Y-97700000D02*
X136500000Y-94400000D01*
X136500000Y-97700000D02*
X137000000Y-98200000D01*
X141700000Y-94400000D02*
X141700000Y-98200000D01*
X141700000Y-98200000D02*
X137000000Y-98200000D01*
%TO.C,R16*%
X141550000Y-91100000D02*
X141850000Y-91100000D01*
X141850000Y-91100000D02*
X141850000Y-90500000D01*
X141550000Y-90500000D02*
X141550000Y-91100000D01*
X141850000Y-90500000D02*
X141550000Y-90500000D01*
%TO.C,R8*%
X143200000Y-91250000D02*
X143200000Y-91550000D01*
X143200000Y-91550000D02*
X143800000Y-91550000D01*
X143800000Y-91250000D02*
X143200000Y-91250000D01*
X143800000Y-91550000D02*
X143800000Y-91250000D01*
%TO.C,C6*%
X139440000Y-91430000D02*
X138940000Y-91430000D01*
X138940000Y-91430000D02*
X138940000Y-92430000D01*
X139440000Y-92430000D02*
X139440000Y-91430000D01*
X138940000Y-92430000D02*
X139440000Y-92430000D01*
%TO.C,C35*%
X137200000Y-93450000D02*
X137200000Y-93750000D01*
X137200000Y-93750000D02*
X137800000Y-93750000D01*
X137800000Y-93450000D02*
X137200000Y-93450000D01*
X137800000Y-93750000D02*
X137800000Y-93450000D01*
%TO.C,C18*%
X144650000Y-91100000D02*
X145150000Y-91100000D01*
X145150000Y-91100000D02*
X145150000Y-90100000D01*
X144650000Y-90100000D02*
X144650000Y-91100000D01*
X145150000Y-90100000D02*
X144650000Y-90100000D01*
%TO.C,R3*%
X138800000Y-90300000D02*
X138800000Y-90600000D01*
X138800000Y-90600000D02*
X139400000Y-90600000D01*
X139400000Y-90300000D02*
X138800000Y-90300000D01*
X139400000Y-90600000D02*
X139400000Y-90300000D01*
%TO.C,C17*%
X146300000Y-91100000D02*
X146600000Y-91100000D01*
X146600000Y-91100000D02*
X146600000Y-90500000D01*
X146300000Y-90500000D02*
X146300000Y-91100000D01*
X146600000Y-90500000D02*
X146300000Y-90500000D01*
%TO.C,U7*%
X144000000Y-96700000D02*
X144000000Y-95225000D01*
X143475000Y-94700000D02*
X144000000Y-95225000D01*
X143475000Y-94700000D02*
X142400000Y-94700000D01*
X142400000Y-96700000D02*
X144000000Y-96700000D01*
X142400000Y-94700000D02*
X142400000Y-96700000D01*
%TO.C,L3*%
X143900000Y-90750000D02*
X143900000Y-90450000D01*
X143900000Y-90450000D02*
X143300000Y-90450000D01*
X143300000Y-90750000D02*
X143900000Y-90750000D01*
X143300000Y-90450000D02*
X143300000Y-90750000D01*
%TO.C,C9*%
X135970000Y-92400000D02*
X136270000Y-92400000D01*
X136270000Y-92400000D02*
X136270000Y-91800000D01*
X135970000Y-91800000D02*
X135970000Y-92400000D01*
X136270000Y-91800000D02*
X135970000Y-91800000D01*
%TO.C,C13*%
X149380000Y-97850000D02*
X149380000Y-98150000D01*
X149380000Y-98150000D02*
X149980000Y-98150000D01*
X149980000Y-97850000D02*
X149380000Y-97850000D01*
X149980000Y-98150000D02*
X149980000Y-97850000D01*
%TO.C,C5*%
X137700000Y-92340000D02*
X137700000Y-92640000D01*
X137700000Y-92640000D02*
X138300000Y-92640000D01*
X138300000Y-92340000D02*
X137700000Y-92340000D01*
X138300000Y-92640000D02*
X138300000Y-92340000D01*
%TO.C,R17*%
X143500000Y-97350000D02*
X143200000Y-97350000D01*
X143200000Y-97350000D02*
X143200000Y-97950000D01*
X143500000Y-97950000D02*
X143500000Y-97350000D01*
X143200000Y-97950000D02*
X143500000Y-97950000D01*
%TO.C,C27*%
X143800000Y-92350000D02*
X143800000Y-92050000D01*
X143800000Y-92050000D02*
X143200000Y-92050000D01*
X143200000Y-92350000D02*
X143800000Y-92350000D01*
X143200000Y-92050000D02*
X143200000Y-92350000D01*
%TO.C,C2*%
X139880000Y-92410000D02*
X140180000Y-92410000D01*
X140180000Y-92410000D02*
X140180000Y-91810000D01*
X139880000Y-91810000D02*
X139880000Y-92410000D01*
X140180000Y-91810000D02*
X139880000Y-91810000D01*
%TO.C,C34*%
X135800000Y-97250000D02*
X135500000Y-97250000D01*
X135500000Y-97250000D02*
X135500000Y-97850000D01*
X135800000Y-97850000D02*
X135800000Y-97250000D01*
X135500000Y-97850000D02*
X135800000Y-97850000D01*
%TO.C,C31*%
X142470000Y-97940000D02*
X142770000Y-97940000D01*
X142770000Y-97940000D02*
X142770000Y-97340000D01*
X142470000Y-97340000D02*
X142470000Y-97940000D01*
X142770000Y-97340000D02*
X142470000Y-97340000D01*
%TO.C,C25*%
X147750000Y-91200000D02*
X148050000Y-91200000D01*
X148050000Y-91200000D02*
X148050000Y-90600000D01*
X147750000Y-90600000D02*
X147750000Y-91200000D01*
X148050000Y-90600000D02*
X147750000Y-90600000D01*
%TO.C,C12*%
X148580000Y-98150000D02*
X148580000Y-97850000D01*
X148580000Y-97850000D02*
X147980000Y-97850000D01*
X147980000Y-98150000D02*
X148580000Y-98150000D01*
X147980000Y-97850000D02*
X147980000Y-98150000D01*
%TO.C,C1*%
X139280000Y-93740000D02*
X139280000Y-93440000D01*
X139280000Y-93440000D02*
X138680000Y-93440000D01*
X138680000Y-93740000D02*
X139280000Y-93740000D01*
X138680000Y-93440000D02*
X138680000Y-93740000D01*
%TO.C,C29*%
X140300000Y-90300000D02*
X140300000Y-90600000D01*
X140300000Y-90600000D02*
X140900000Y-90600000D01*
X140900000Y-90300000D02*
X140300000Y-90300000D01*
X140900000Y-90600000D02*
X140900000Y-90300000D01*
%TO.C,R4*%
X143350000Y-89650000D02*
X143350000Y-89950000D01*
X143350000Y-89950000D02*
X143950000Y-89950000D01*
X143950000Y-89650000D02*
X143350000Y-89650000D01*
X143950000Y-89950000D02*
X143950000Y-89650000D01*
%TO.C,C14*%
X146550000Y-97850000D02*
X146550000Y-98150000D01*
X146550000Y-98150000D02*
X147150000Y-98150000D01*
X147150000Y-97850000D02*
X146550000Y-97850000D01*
X147150000Y-98150000D02*
X147150000Y-97850000D01*
%TO.C,C11*%
X136720000Y-92400000D02*
X137020000Y-92400000D01*
X137020000Y-92400000D02*
X137020000Y-91800000D01*
X136720000Y-91800000D02*
X136720000Y-92400000D01*
X137020000Y-91800000D02*
X136720000Y-91800000D01*
%TO.C,C3*%
X140620000Y-92410000D02*
X141120000Y-92410000D01*
X141120000Y-92410000D02*
X141120000Y-91410000D01*
X140620000Y-91410000D02*
X140620000Y-92410000D01*
X141120000Y-91410000D02*
X140620000Y-91410000D01*
%TO.C,C33*%
X135800000Y-95750000D02*
X135500000Y-95750000D01*
X135500000Y-95750000D02*
X135500000Y-96350000D01*
X135800000Y-96350000D02*
X135800000Y-95750000D01*
X135500000Y-96350000D02*
X135800000Y-96350000D01*
%TO.C,C16*%
X145600000Y-91100000D02*
X145900000Y-91100000D01*
X145900000Y-91100000D02*
X145900000Y-90500000D01*
X145600000Y-90500000D02*
X145600000Y-91100000D01*
X145900000Y-90500000D02*
X145600000Y-90500000D01*
%TO.C,U5*%
X144800000Y-91950000D02*
X144800000Y-96000000D01*
X144800000Y-91950000D02*
X149900000Y-91950000D01*
X144800000Y-96000000D02*
X145850000Y-97050000D01*
X145850000Y-97050000D02*
X149900000Y-97050000D01*
X149900000Y-91950000D02*
X149900000Y-97050000D01*
%TO.C,C8*%
X136200000Y-90850000D02*
X136200000Y-91150000D01*
X136200000Y-91150000D02*
X136800000Y-91150000D01*
X136800000Y-90850000D02*
X136200000Y-90850000D01*
X136800000Y-91150000D02*
X136800000Y-90850000D01*
%TO.C,L1*%
X139000000Y-87250000D02*
X139000000Y-89750000D01*
X139000000Y-89750000D02*
X142200000Y-89750000D01*
X142200000Y-87250000D02*
X139000000Y-87250000D01*
X142200000Y-89750000D02*
X142200000Y-87250000D01*
%TO.C,R7*%
X149400000Y-91400000D02*
X149400000Y-91100000D01*
X149400000Y-91100000D02*
X148800000Y-91100000D01*
X148800000Y-91400000D02*
X149400000Y-91400000D01*
X148800000Y-91100000D02*
X148800000Y-91400000D01*
%TO.C,C30*%
X142900000Y-93950000D02*
X142900000Y-94250000D01*
X142900000Y-94250000D02*
X143500000Y-94250000D01*
X143500000Y-93950000D02*
X142900000Y-93950000D01*
X143500000Y-94250000D02*
X143500000Y-93950000D01*
%TO.C,C26*%
X147050000Y-91200000D02*
X147350000Y-91200000D01*
X147350000Y-91200000D02*
X147350000Y-90600000D01*
X147050000Y-90600000D02*
X147050000Y-91200000D01*
X147350000Y-90600000D02*
X147050000Y-90600000D01*
%TD*%
M02*
