%TF.GenerationSoftware,KiCad,Pcbnew,7.0.6*%
%TF.CreationDate,2023-09-10T10:14:11-04:00*%
%TF.ProjectId,headstage-neuropix1e,68656164-7374-4616-9765-2d6e6575726f,B*%
%TF.SameCoordinates,Original*%
%TF.FileFunction,Copper,L3,Inr*%
%TF.FilePolarity,Positive*%
%FSLAX46Y46*%
G04 Gerber Fmt 4.6, Leading zero omitted, Abs format (unit mm)*
G04 Created by KiCad (PCBNEW 7.0.6) date 2023-09-10 10:14:11*
%MOMM*%
%LPD*%
G01*
G04 APERTURE LIST*
G04 Aperture macros list*
%AMRoundRect*
0 Rectangle with rounded corners*
0 $1 Rounding radius*
0 $2 $3 $4 $5 $6 $7 $8 $9 X,Y pos of 4 corners*
0 Add a 4 corners polygon primitive as box body*
4,1,4,$2,$3,$4,$5,$6,$7,$8,$9,$2,$3,0*
0 Add four circle primitives for the rounded corners*
1,1,$1+$1,$2,$3*
1,1,$1+$1,$4,$5*
1,1,$1+$1,$6,$7*
1,1,$1+$1,$8,$9*
0 Add four rect primitives between the rounded corners*
20,1,$1+$1,$2,$3,$4,$5,0*
20,1,$1+$1,$4,$5,$6,$7,0*
20,1,$1+$1,$6,$7,$8,$9,0*
20,1,$1+$1,$8,$9,$2,$3,0*%
G04 Aperture macros list end*
%TA.AperFunction,ComponentPad*%
%ADD10C,2.500000*%
%TD*%
%TA.AperFunction,ComponentPad*%
%ADD11RoundRect,0.250000X-0.600000X0.600000X-0.600000X-0.600000X0.600000X-0.600000X0.600000X0.600000X0*%
%TD*%
%TA.AperFunction,ComponentPad*%
%ADD12C,1.700000*%
%TD*%
%TA.AperFunction,ViaPad*%
%ADD13C,0.300000*%
%TD*%
%TA.AperFunction,ViaPad*%
%ADD14C,0.250000*%
%TD*%
%TA.AperFunction,Conductor*%
%ADD15C,0.200000*%
%TD*%
%TA.AperFunction,Conductor*%
%ADD16C,0.100000*%
%TD*%
G04 APERTURE END LIST*
D10*
%TO.N,GND*%
%TO.C,TP1*%
X136600000Y-88500000D03*
%TD*%
D11*
%TO.N,+4V*%
%TO.C,J3*%
X123080000Y-76447500D03*
D12*
X123080000Y-78987500D03*
%TO.N,/Neuropixels 1.0/SCL*%
X120540000Y-76447500D03*
X120540000Y-78987500D03*
%TO.N,/Neuropixels 1.0/SDA*%
X118000000Y-76447500D03*
X118000000Y-78987500D03*
%TO.N,GND*%
X115460000Y-76447500D03*
X115460000Y-78987500D03*
X112920000Y-76447500D03*
X112920000Y-78987500D03*
%TD*%
D10*
%TO.N,GND*%
%TO.C,TP2*%
X148600000Y-88500000D03*
%TD*%
D13*
%TO.N,GND*%
X146990000Y-95640000D03*
X104670000Y-77610000D03*
X152750000Y-106940000D03*
D14*
X146890000Y-88250000D03*
D13*
X144416061Y-81338202D03*
X130400000Y-83630000D03*
D14*
X150070000Y-89260000D03*
X134975500Y-91950000D03*
D13*
X135160000Y-95280000D03*
D14*
X147512132Y-94349665D03*
D13*
X156300000Y-121900000D03*
D14*
X141834896Y-94124533D03*
D13*
X140493550Y-95522998D03*
X144590000Y-98100500D03*
X140490000Y-96050000D03*
X129640000Y-110300000D03*
X135910000Y-93110000D03*
X144800000Y-92380500D03*
X136859092Y-95550000D03*
D14*
X148340000Y-95010000D03*
D13*
X135390000Y-98510000D03*
X106460000Y-93330000D03*
X137380000Y-106710000D03*
D14*
X144880000Y-90270000D03*
D13*
X144700000Y-87450000D03*
X135640000Y-73600000D03*
X135200000Y-97200000D03*
D14*
X146950000Y-89250000D03*
X147020000Y-96330000D03*
D13*
X138330000Y-96590000D03*
D14*
X140040000Y-91890000D03*
D13*
X141050000Y-87000000D03*
X146500000Y-93600000D03*
D14*
X142400000Y-95600000D03*
X148900000Y-93590000D03*
D13*
X150520000Y-80190000D03*
D14*
X145950000Y-94700000D03*
X146450000Y-89150000D03*
D13*
X138000000Y-89850000D03*
D14*
X139614453Y-93024500D03*
D13*
X150000000Y-96750000D03*
D14*
X138080000Y-87680000D03*
D13*
X155510000Y-95710000D03*
X138440000Y-97170000D03*
X106760000Y-112810000D03*
X149850000Y-98400000D03*
D14*
X147710000Y-96340000D03*
D13*
X145340000Y-93660000D03*
X147700000Y-93450000D03*
X147580000Y-95640000D03*
D14*
X142900000Y-95450000D03*
X136830000Y-91840000D03*
X141568020Y-92308292D03*
X142630000Y-97340000D03*
D13*
X136160092Y-94530000D03*
X126680000Y-71747500D03*
X135200000Y-89780000D03*
X156700000Y-69100000D03*
X155800000Y-87500000D03*
D14*
X148800000Y-92950500D03*
X146800000Y-90050000D03*
D13*
X140310000Y-96450000D03*
X143000000Y-87400000D03*
X146120000Y-95699500D03*
D14*
X142444101Y-92894101D03*
X145950000Y-90100000D03*
X145320000Y-89380000D03*
X145780000Y-96290000D03*
D13*
X135890000Y-90120000D03*
D14*
X148100000Y-90000000D03*
D13*
X138990000Y-96490000D03*
X107600000Y-104500000D03*
X148150000Y-97670000D03*
X146940000Y-87070000D03*
X103100000Y-122100000D03*
X145266637Y-78141210D03*
X149700000Y-89900000D03*
X144310000Y-91350000D03*
X143524500Y-93600000D03*
D14*
X146400000Y-90050000D03*
D13*
X137220000Y-97050000D03*
D14*
X138780000Y-94020000D03*
D13*
X136910000Y-80250000D03*
D14*
X138040500Y-91920000D03*
X141070000Y-93025498D03*
X143300899Y-91989101D03*
D13*
X145570000Y-87160000D03*
D14*
X144280000Y-90250000D03*
D13*
X105450000Y-70470000D03*
D14*
X144840000Y-96930000D03*
D13*
X137480000Y-96470000D03*
X143800000Y-86950000D03*
D14*
X143590000Y-96500000D03*
D13*
X117520000Y-69930000D03*
D14*
X141210000Y-94430000D03*
D13*
X145200000Y-72300000D03*
X154200000Y-101500000D03*
X135190000Y-96310000D03*
D14*
X141100000Y-91600000D03*
D13*
X103900000Y-84800000D03*
D14*
X147400000Y-89550000D03*
D13*
X128400000Y-101000000D03*
X143230000Y-96010000D03*
D14*
X136850000Y-94637500D03*
D13*
X139070000Y-86840000D03*
X139030000Y-95680000D03*
X114560000Y-86760000D03*
X137490000Y-94010000D03*
X137440000Y-86960000D03*
%TO.N,+1V8*%
X135150000Y-97900000D03*
X140474059Y-92959710D03*
X137471779Y-90951779D03*
X137590000Y-92420000D03*
X147500000Y-92700500D03*
X142662961Y-91089404D03*
D14*
X135505500Y-94637298D03*
D13*
%TO.N,+1.2VA*%
X137935000Y-93135000D03*
X136247871Y-91301612D03*
X137864351Y-97063949D03*
D14*
%TO.N,Net-(D1-K)*%
X149500500Y-92050000D03*
X148780000Y-90120000D03*
%TO.N,+1V2*%
X135617490Y-93803077D03*
D13*
X138460000Y-95710000D03*
X137590000Y-91420000D03*
D14*
%TO.N,+4V*%
X135711619Y-91548996D03*
D13*
X120200000Y-94945000D03*
X137590000Y-91920000D03*
X136930627Y-92829287D03*
X138730517Y-91170645D03*
D14*
%TO.N,/Neuropixels 1.0/CAL_SIGNAL*%
X138775500Y-91880000D03*
X139000000Y-97150000D03*
%TO.N,/DC Tap & Regulation/VA_{EN}*%
X142793180Y-92745908D03*
X141500000Y-95223498D03*
X140290000Y-97080000D03*
%TO.N,/Neuropixels 1.0/NP_{~{MUXRST}}*%
X148378692Y-92725500D03*
X140600000Y-94100000D03*
%TO.N,/Neuropixels 1.0/SDA*%
X138314130Y-90444500D03*
X142476943Y-90310000D03*
X141250000Y-90099500D03*
D13*
X123200000Y-92000000D03*
D14*
X140850000Y-97200000D03*
X142050000Y-94400000D03*
D13*
X123210000Y-96120000D03*
%TO.N,/Neuropixels 1.0/SCL*%
X118000000Y-97340000D03*
D14*
X145550000Y-94700000D03*
X142218903Y-90074274D03*
X137757636Y-90135500D03*
X142450000Y-91850000D03*
X139104500Y-90040000D03*
%TO.N,/Neuropixels 1.0/SYNC*%
X145490000Y-96044500D03*
X142000000Y-97300000D03*
%TO.N,/Neuropixels 1.0/D6*%
X149230000Y-95300000D03*
X142300000Y-94100000D03*
%TO.N,/Neuropixels 1.0/D5*%
X142900000Y-93600000D03*
X149200000Y-94750000D03*
%TO.N,/Neuropixels 1.0/D4*%
X143717370Y-95945500D03*
X149200000Y-95750000D03*
%TO.N,/Neuropixels 1.0/D3*%
X144193189Y-96808263D03*
X149200000Y-96250000D03*
%TO.N,/Neuropixels 1.0/D2*%
X144264551Y-93925449D03*
X149265000Y-94185000D03*
%TO.N,/Neuropixels 1.0/D1*%
X149249502Y-93750000D03*
X144474502Y-93500000D03*
%TO.N,/Neuropixels 1.0/D0*%
X148550000Y-96400000D03*
X144950000Y-97270000D03*
%TO.N,/Perpherials/GPIO0*%
X139850000Y-87050000D03*
X149150000Y-92250000D03*
%TO.N,/Perpherials/GPIO1*%
X149288276Y-91232529D03*
X140200000Y-87050000D03*
%TO.N,Net-(R12-Pad1)*%
X140026596Y-90901397D03*
X139025500Y-92994101D03*
%TO.N,Net-(U5-GPIO3{slash}CLKIN)*%
X149151002Y-92950500D03*
X149290000Y-90430000D03*
D13*
%TO.N,+1.8VA*%
X135950000Y-92390000D03*
X136579094Y-93019094D03*
X136509592Y-97426502D03*
D14*
%TO.N,/Neuropixels 1.0/DCLK*%
X144970177Y-96278055D03*
X145420000Y-97699500D03*
%TD*%
D15*
%TO.N,+1V8*%
X139850000Y-97000000D02*
X138950000Y-97900000D01*
X139629355Y-90820645D02*
X139927062Y-90522938D01*
D16*
X135500000Y-97880000D02*
X135520000Y-97900000D01*
D15*
X146110000Y-92940000D02*
X144890000Y-91720000D01*
X140419500Y-93000500D02*
X140400000Y-93000500D01*
X142660000Y-91086443D02*
X142662961Y-91089404D01*
X138950000Y-97900000D02*
X135520000Y-97900000D01*
D16*
X135500000Y-94642798D02*
X135500000Y-97880000D01*
D15*
X147260500Y-92940000D02*
X146110000Y-92940000D01*
X142660000Y-90650000D02*
X142660000Y-91086443D01*
X140400000Y-93000500D02*
X140400000Y-93400000D01*
X137602913Y-90820645D02*
X139629355Y-90820645D01*
X143100000Y-90650000D02*
X142660000Y-90650000D01*
X140400000Y-93400000D02*
X139850000Y-93950000D01*
X139927062Y-90522938D02*
X140480000Y-90522938D01*
X135520000Y-97900000D02*
X135150000Y-97900000D01*
X147500000Y-92700500D02*
X147260500Y-92940000D01*
D16*
X135505500Y-94637298D02*
X135500000Y-94642798D01*
D15*
X140474059Y-92959710D02*
X140474059Y-90528879D01*
X140474059Y-90528879D02*
X140480000Y-90522938D01*
X141450000Y-90650000D02*
X142660000Y-90650000D01*
X144170000Y-91720000D02*
X143100000Y-90650000D01*
X144890000Y-91720000D02*
X144170000Y-91720000D01*
X139850000Y-93950000D02*
X139850000Y-97000000D01*
X140480000Y-90522938D02*
X141322938Y-90522938D01*
X137471779Y-90951779D02*
X137602913Y-90820645D01*
X141322938Y-90522938D02*
X141450000Y-90650000D01*
%TO.N,+1.2VA*%
X137935000Y-94445000D02*
X137935000Y-93135000D01*
X136247871Y-91301612D02*
X136247871Y-91737871D01*
X136247871Y-91737871D02*
X136810500Y-92300500D01*
X137864351Y-97063949D02*
X137864351Y-94515649D01*
X136810500Y-92300500D02*
X136940500Y-92300500D01*
X137864351Y-94515649D02*
X137935000Y-94445000D01*
X136940500Y-92300500D02*
X137775000Y-93135000D01*
X137775000Y-93135000D02*
X137935000Y-93135000D01*
D16*
%TO.N,Net-(D1-K)*%
X148780000Y-90320000D02*
X149570000Y-91110000D01*
X149570000Y-91980500D02*
X149500500Y-92050000D01*
X149570000Y-91110000D02*
X149570000Y-91980500D01*
X148780000Y-90120000D02*
X148780000Y-90320000D01*
D15*
%TO.N,+1V2*%
X138365000Y-91575000D02*
X138365000Y-93140736D01*
X138450000Y-93225736D02*
X138450000Y-95700000D01*
X138365000Y-93140736D02*
X138450000Y-93225736D01*
X138210000Y-91420000D02*
X138365000Y-91575000D01*
X137590000Y-91420000D02*
X138210000Y-91420000D01*
X138450000Y-95700000D02*
X138460000Y-95710000D01*
%TO.N,+4V*%
X135711619Y-91656644D02*
X135711619Y-91548996D01*
X136655475Y-92600500D02*
X135711619Y-91656644D01*
X136701840Y-92600500D02*
X136655475Y-92600500D01*
X136930627Y-92829287D02*
X136701840Y-92600500D01*
D16*
%TO.N,/Neuropixels 1.0/CAL_SIGNAL*%
X139440000Y-96710000D02*
X139000000Y-97150000D01*
X138775500Y-91880000D02*
X138775500Y-92855192D01*
X139440000Y-93940000D02*
X139440000Y-96710000D01*
X138750500Y-92880192D02*
X138750500Y-93108010D01*
X138775500Y-93275500D02*
X139440000Y-93940000D01*
X138775500Y-92855192D02*
X138750500Y-92880192D01*
X138750500Y-93108010D02*
X138775500Y-93133010D01*
X138775500Y-93133010D02*
X138775500Y-93275500D01*
%TO.N,/DC Tap & Regulation/VA_{EN}*%
X142370000Y-93180000D02*
X142620000Y-93180000D01*
X140290000Y-97070000D02*
X141500000Y-95860000D01*
X140290000Y-97080000D02*
X140290000Y-97070000D01*
X141500000Y-94050000D02*
X142370000Y-93180000D01*
X142620000Y-93180000D02*
X142793180Y-93006820D01*
X142793180Y-93006820D02*
X142793180Y-92745908D01*
X141500000Y-95223498D02*
X141500000Y-94050000D01*
X141500000Y-95860000D02*
X141500000Y-95223498D01*
%TO.N,/Neuropixels 1.0/NP_{~{MUXRST}}*%
X146070000Y-93300000D02*
X145570000Y-92800000D01*
X142000000Y-92700000D02*
X140600000Y-94100000D01*
X148378692Y-92821308D02*
X148050000Y-93150000D01*
X148378692Y-92725500D02*
X148378692Y-92821308D01*
X142000000Y-91800000D02*
X142000000Y-92700000D01*
X145570000Y-92800000D02*
X144500000Y-92800000D01*
X147575735Y-93150000D02*
X147425735Y-93300000D01*
X144500000Y-92800000D02*
X143100000Y-91400000D01*
X148050000Y-93150000D02*
X147575735Y-93150000D01*
X142400000Y-91400000D02*
X142000000Y-91800000D01*
X147425735Y-93300000D02*
X146070000Y-93300000D01*
X143100000Y-91400000D02*
X142400000Y-91400000D01*
%TO.N,/Neuropixels 1.0/SDA*%
X140850000Y-97200000D02*
X142100000Y-95950000D01*
D15*
X118000000Y-76447500D02*
X118000000Y-78987500D01*
X123210000Y-96120000D02*
X123240000Y-96120000D01*
D16*
X138314130Y-90444500D02*
X139505500Y-90444500D01*
X137380000Y-90570000D02*
X138188630Y-90570000D01*
D15*
X118000000Y-78987500D02*
X123200000Y-84187500D01*
D16*
X138188630Y-90570000D02*
X138314130Y-90444500D01*
D15*
X123240000Y-96120000D02*
X127860000Y-91500000D01*
D16*
X135530000Y-90970000D02*
X136980000Y-90970000D01*
X131927995Y-91527995D02*
X132545524Y-91527995D01*
X142100000Y-95950000D02*
X142100000Y-94450000D01*
X134968494Y-91531506D02*
X135530000Y-90970000D01*
X134171506Y-91531506D02*
X134968494Y-91531506D01*
X142476943Y-90310000D02*
X142436943Y-90350000D01*
X142436943Y-90350000D02*
X141600000Y-90350000D01*
X132545524Y-91527995D02*
X132703519Y-91370000D01*
D15*
X123200000Y-84187500D02*
X123200000Y-92000000D01*
D16*
X131900000Y-91500000D02*
X131927995Y-91527995D01*
X141600000Y-90350000D02*
X141349500Y-90099500D01*
X141349500Y-90099500D02*
X141250000Y-90099500D01*
X139850500Y-90099500D02*
X141250000Y-90099500D01*
X132703519Y-91370000D02*
X134010000Y-91370000D01*
X139505500Y-90444500D02*
X139850500Y-90099500D01*
D15*
X127860000Y-91500000D02*
X131900000Y-91500000D01*
D16*
X142100000Y-94450000D02*
X142050000Y-94400000D01*
X136980000Y-90970000D02*
X137380000Y-90570000D01*
X134010000Y-91370000D02*
X134171506Y-91531506D01*
%TO.N,/Neuropixels 1.0/SCL*%
X136820000Y-90680000D02*
X135270000Y-90680000D01*
X138974500Y-90170000D02*
X137710000Y-90170000D01*
X135185918Y-90764082D02*
X135225000Y-90725000D01*
X139104500Y-90040000D02*
X139354500Y-89790000D01*
X139354500Y-89790000D02*
X141934629Y-89790000D01*
D15*
X131900000Y-90600000D02*
X127100000Y-90600000D01*
D16*
X143225000Y-92575000D02*
X142500000Y-91850000D01*
X135270000Y-90680000D02*
X135225000Y-90725000D01*
D15*
X127100000Y-85547500D02*
X127100000Y-90600000D01*
D16*
X145550000Y-94700000D02*
X145375000Y-94525000D01*
X137726193Y-90153807D02*
X137710000Y-90170000D01*
D15*
X127100000Y-90600000D02*
X120860000Y-96840000D01*
X120540000Y-78987500D02*
X127100000Y-85547500D01*
D16*
X143225000Y-93825000D02*
X143225000Y-92575000D01*
D15*
X119200000Y-96840000D02*
X118700000Y-97340000D01*
D16*
X137330000Y-90170000D02*
X136820000Y-90680000D01*
X131900000Y-90600000D02*
X132323277Y-90600000D01*
D15*
X120860000Y-96840000D02*
X119200000Y-96840000D01*
D16*
X132603277Y-90880000D02*
X134090000Y-90880000D01*
X134090000Y-90880000D02*
X134205918Y-90764082D01*
D15*
X120540000Y-76447500D02*
X120540000Y-78987500D01*
D16*
X143925000Y-94525000D02*
X143225000Y-93825000D01*
X132323277Y-90600000D02*
X132603277Y-90880000D01*
X142500000Y-91850000D02*
X142450000Y-91850000D01*
X139104500Y-90040000D02*
X138974500Y-90170000D01*
X145375000Y-94525000D02*
X143925000Y-94525000D01*
X141934629Y-89790000D02*
X142218903Y-90074274D01*
X137710000Y-90170000D02*
X137330000Y-90170000D01*
D15*
X118000000Y-97340000D02*
X118700000Y-97340000D01*
D16*
X134205918Y-90764082D02*
X135185918Y-90764082D01*
%TO.N,/Neuropixels 1.0/SYNC*%
X145445500Y-96000000D02*
X145490000Y-96044500D01*
X142000000Y-97300000D02*
X142000000Y-96790000D01*
X142245000Y-96545000D02*
X143125001Y-96545000D01*
X144300000Y-96220000D02*
X144490000Y-96030000D01*
X144490000Y-96030000D02*
X144820000Y-96030000D01*
X143125001Y-96545000D02*
X143450001Y-96220000D01*
X144820000Y-96030000D02*
X144850000Y-96000000D01*
X142000000Y-96790000D02*
X142245000Y-96545000D01*
X144850000Y-96000000D02*
X145445500Y-96000000D01*
X143450001Y-96220000D02*
X144300000Y-96220000D01*
%TO.N,/Neuropixels 1.0/D6*%
X142300000Y-94190000D02*
X142300000Y-94100000D01*
X142640000Y-94530000D02*
X143410000Y-95300000D01*
X143410000Y-95300000D02*
X145890000Y-95300000D01*
X142640000Y-94530000D02*
X142300000Y-94190000D01*
X147950000Y-95300000D02*
X149150001Y-95300000D01*
X149150001Y-95300000D02*
X149230000Y-95300000D01*
X147950000Y-95300000D02*
X145890000Y-95300000D01*
%TO.N,/Neuropixels 1.0/D5*%
X148850000Y-95000000D02*
X149250000Y-95000000D01*
X143650000Y-95000000D02*
X146225000Y-95000000D01*
X149250000Y-95000000D02*
X149305000Y-94945000D01*
X146225000Y-95000000D02*
X146295000Y-95070000D01*
X147680000Y-95070000D02*
X148070000Y-94680000D01*
X142900000Y-94250000D02*
X143650000Y-95000000D01*
X142900000Y-93600000D02*
X142900000Y-94250000D01*
X149305000Y-94855000D02*
X149305000Y-94945000D01*
X146295000Y-95070000D02*
X147680000Y-95070000D01*
X148070000Y-94680000D02*
X148530000Y-94680000D01*
X148530000Y-94680000D02*
X148850000Y-95000000D01*
X149200000Y-94750000D02*
X149305000Y-94855000D01*
%TO.N,/Neuropixels 1.0/D4*%
X144609500Y-95830000D02*
X144670000Y-95769500D01*
X144670000Y-95769500D02*
X145765736Y-95769500D01*
X143717370Y-95945500D02*
X143721870Y-95950000D01*
X147950000Y-95750000D02*
X149200000Y-95750000D01*
X143721870Y-95950000D02*
X144220000Y-95950000D01*
X144340000Y-95830000D02*
X144609500Y-95830000D01*
X145765736Y-95769500D02*
X145995735Y-95999500D01*
X147700500Y-95999500D02*
X147950000Y-95750000D01*
X144220000Y-95950000D02*
X144340000Y-95830000D01*
X145995735Y-95999500D02*
X147700500Y-95999500D01*
%TO.N,/Neuropixels 1.0/D3*%
X146030000Y-96630000D02*
X146900000Y-97500000D01*
X148150000Y-97200000D02*
X148150000Y-96300000D01*
X148150000Y-96300000D02*
X148350000Y-96100000D01*
X146900000Y-97500000D02*
X147850000Y-97500000D01*
X149050000Y-96100000D02*
X149200000Y-96250000D01*
X147850000Y-97500000D02*
X148150000Y-97200000D01*
X144193189Y-96808263D02*
X144371452Y-96630000D01*
X144371452Y-96630000D02*
X146030000Y-96630000D01*
X148350000Y-96100000D02*
X149050000Y-96100000D01*
%TO.N,/Neuropixels 1.0/D2*%
X149950000Y-94610000D02*
X149865000Y-94695000D01*
X149300000Y-94150000D02*
X149265000Y-94185000D01*
X148100000Y-94150000D02*
X148600000Y-94150000D01*
X149950000Y-94350000D02*
X149750000Y-94150000D01*
X144264551Y-93925449D02*
X144339602Y-94000500D01*
X148925000Y-94475000D02*
X149475000Y-94475000D01*
X149750000Y-94150000D02*
X149300000Y-94150000D01*
X145775500Y-94000500D02*
X146575000Y-94800000D01*
X149475000Y-94475000D02*
X149695000Y-94695000D01*
X146575000Y-94800000D02*
X147450000Y-94800000D01*
X149950000Y-94350000D02*
X149950000Y-94610000D01*
X149865000Y-94695000D02*
X149695000Y-94695000D01*
X148600000Y-94150000D02*
X148925000Y-94475000D01*
X147450000Y-94800000D02*
X148100000Y-94150000D01*
X144339602Y-94000500D02*
X145775500Y-94000500D01*
%TO.N,/Neuropixels 1.0/D1*%
X149725000Y-93625000D02*
X149600000Y-93750000D01*
X147600000Y-93850000D02*
X148100000Y-93850000D01*
X148690000Y-93260000D02*
X149660000Y-93260000D01*
X149725000Y-93325000D02*
X149725000Y-93625000D01*
X146495000Y-94195000D02*
X147255000Y-94195000D01*
X144150000Y-93250000D02*
X144250000Y-93150000D01*
X144150000Y-93400000D02*
X144150000Y-93250000D01*
X144450000Y-93500000D02*
X144250000Y-93500000D01*
X149600000Y-93750000D02*
X149249502Y-93750000D01*
X144250000Y-93500000D02*
X144150000Y-93400000D01*
X144250000Y-93150000D02*
X145450000Y-93150000D01*
X147255000Y-94195000D02*
X147600000Y-93850000D01*
X148100000Y-93850000D02*
X148690000Y-93260000D01*
X149660000Y-93260000D02*
X149725000Y-93325000D01*
X145450000Y-93150000D02*
X146495000Y-94195000D01*
%TO.N,/Neuropixels 1.0/D0*%
X146919750Y-98170250D02*
X145909500Y-97160000D01*
X149540000Y-96980000D02*
X149540000Y-97740000D01*
X149540000Y-97740000D02*
X149109750Y-98170250D01*
X148550000Y-96400000D02*
X148850000Y-96700000D01*
X149260000Y-96700000D02*
X149540000Y-96980000D01*
X149109750Y-98170250D02*
X146919750Y-98170250D01*
X145060000Y-97160000D02*
X144950000Y-97270000D01*
X145909500Y-97160000D02*
X145060000Y-97160000D01*
X148850000Y-96700000D02*
X149260000Y-96700000D01*
%TO.N,/Perpherials/GPIO0*%
X148999500Y-92400500D02*
X149150000Y-92250000D01*
X139850000Y-89100000D02*
X140320000Y-89570000D01*
X147150000Y-92600000D02*
X147349500Y-92400500D01*
X146203554Y-92600000D02*
X147150000Y-92600000D01*
X147349500Y-92400500D02*
X148999500Y-92400500D01*
X143850000Y-91000000D02*
X144603554Y-91000000D01*
X144603554Y-91000000D02*
X146203554Y-92600000D01*
X140320000Y-89570000D02*
X142150000Y-89570000D01*
X139850000Y-87050000D02*
X139850000Y-89100000D01*
X142900000Y-90050000D02*
X143850000Y-91000000D01*
X142150000Y-89570000D02*
X142630000Y-90050000D01*
X142630000Y-90050000D02*
X142900000Y-90050000D01*
%TO.N,/Perpherials/GPIO1*%
X140650000Y-89350000D02*
X140200000Y-88900000D01*
X142290000Y-89350000D02*
X140650000Y-89350000D01*
X144850000Y-90750000D02*
X143960000Y-90750000D01*
X140200000Y-88900000D02*
X140200000Y-87050000D01*
X148729500Y-92200500D02*
X147199500Y-92200500D01*
X143010000Y-89800000D02*
X142740000Y-89800000D01*
X142740000Y-89800000D02*
X142290000Y-89350000D01*
X147199500Y-92200500D02*
X147050000Y-92350000D01*
X143960000Y-90750000D02*
X143010000Y-89800000D01*
X147050000Y-92350000D02*
X146450000Y-92350000D01*
X146450000Y-92350000D02*
X144850000Y-90750000D01*
X149288276Y-91641724D02*
X148729500Y-92200500D01*
X149288276Y-91232529D02*
X149288276Y-91641724D01*
%TO.N,Net-(R12-Pad1)*%
X139025500Y-92994101D02*
X139050000Y-92969601D01*
X139050000Y-91490000D02*
X139411004Y-91128996D01*
X139411004Y-91128996D02*
X139798996Y-91128996D01*
X139798996Y-91128996D02*
X140026596Y-90901397D01*
X139050000Y-92969601D02*
X139050000Y-91490000D01*
%TO.N,Net-(U5-GPIO3{slash}CLKIN)*%
X149900000Y-91040000D02*
X149900000Y-92201502D01*
X149900000Y-92201502D02*
X149151002Y-92950500D01*
X149290000Y-90430000D02*
X149900000Y-91040000D01*
D15*
%TO.N,+1.8VA*%
X136509592Y-94249592D02*
X136509592Y-97426502D01*
X136579094Y-93019094D02*
X136579094Y-94180090D01*
X136579094Y-94180090D02*
X136509592Y-94249592D01*
D16*
%TO.N,/Neuropixels 1.0/DCLK*%
X143490000Y-97790000D02*
X142880000Y-98400000D01*
X142745000Y-97705000D02*
X142050000Y-97705000D01*
X141810000Y-98240000D02*
X141970000Y-98400000D01*
X143765327Y-96754673D02*
X143760000Y-96754673D01*
X145420000Y-97699500D02*
X145329500Y-97790000D01*
X145329500Y-97790000D02*
X143490000Y-97790000D01*
X142880000Y-98400000D02*
X142610000Y-98400000D01*
X144828232Y-96420000D02*
X144100000Y-96420000D01*
X143695827Y-96754173D02*
X142745000Y-97705000D01*
X141970000Y-98400000D02*
X142610000Y-98400000D01*
X142050000Y-97705000D02*
X141810000Y-97945000D01*
X144970177Y-96278055D02*
X144828232Y-96420000D01*
X141810000Y-97945000D02*
X141810000Y-98240000D01*
X143740000Y-96754173D02*
X143695827Y-96754173D01*
X144100000Y-96420000D02*
X143765327Y-96754673D01*
%TD*%
%TA.AperFunction,Conductor*%
%TO.N,GND*%
G36*
X144517752Y-86582952D02*
G01*
X144601918Y-86617816D01*
X144766233Y-86650500D01*
X144830186Y-86650500D01*
X148565649Y-86650500D01*
X148599199Y-86650500D01*
X148600784Y-86650551D01*
X148839807Y-86666218D01*
X148842983Y-86666636D01*
X149077125Y-86713209D01*
X149080200Y-86714034D01*
X149306253Y-86790769D01*
X149309216Y-86791997D01*
X149401656Y-86837583D01*
X149523313Y-86897577D01*
X149526083Y-86899176D01*
X149620126Y-86962014D01*
X149724568Y-87031800D01*
X149727110Y-87033751D01*
X149906590Y-87191150D01*
X149908849Y-87193409D01*
X150025477Y-87326398D01*
X150066246Y-87372886D01*
X150068199Y-87375431D01*
X150200820Y-87573912D01*
X150202424Y-87576690D01*
X150308002Y-87790783D01*
X150309230Y-87793746D01*
X150385965Y-88019799D01*
X150386792Y-88022884D01*
X150416557Y-88172523D01*
X150433362Y-88257011D01*
X150433781Y-88260191D01*
X150440974Y-88369919D01*
X150449448Y-88499215D01*
X150449500Y-88500800D01*
X150449500Y-90265649D01*
X150449500Y-90300000D01*
X150449500Y-90400656D01*
X150449501Y-90400661D01*
X150449687Y-90402788D01*
X150449563Y-90402798D01*
X150450000Y-90407778D01*
X150450000Y-93012222D01*
X150449564Y-93017204D01*
X150449686Y-93017215D01*
X150449500Y-93019340D01*
X150449500Y-98800500D01*
X150435148Y-98835148D01*
X150400500Y-98849500D01*
X143919340Y-98849500D01*
X143917215Y-98849686D01*
X143917204Y-98849564D01*
X143912222Y-98850000D01*
X140107778Y-98850000D01*
X140102795Y-98849564D01*
X140102785Y-98849686D01*
X140100660Y-98849500D01*
X140100656Y-98849500D01*
X140019814Y-98849500D01*
X134799500Y-98849500D01*
X134764852Y-98835148D01*
X134750500Y-98800500D01*
X134750500Y-93803077D01*
X135387572Y-93803077D01*
X135405073Y-93891063D01*
X135454912Y-93965654D01*
X135491713Y-93990243D01*
X135529504Y-94015494D01*
X135617490Y-94032995D01*
X135705476Y-94015494D01*
X135780067Y-93965654D01*
X135829907Y-93891063D01*
X135847408Y-93803077D01*
X135829907Y-93715091D01*
X135795016Y-93662873D01*
X135780067Y-93640499D01*
X135705476Y-93590660D01*
X135693420Y-93588262D01*
X135617490Y-93573159D01*
X135617489Y-93573159D01*
X135529503Y-93590660D01*
X135454912Y-93640499D01*
X135405073Y-93715090D01*
X135387572Y-93803077D01*
X134750500Y-93803077D01*
X134750500Y-92499340D01*
X134750314Y-92497215D01*
X134750435Y-92497204D01*
X134750000Y-92492222D01*
X134750000Y-91731006D01*
X134764352Y-91696358D01*
X134799000Y-91682006D01*
X135008821Y-91682006D01*
X135020995Y-91674975D01*
X135032813Y-91670080D01*
X135046398Y-91666441D01*
X135103429Y-91609411D01*
X135103429Y-91609409D01*
X135110318Y-91602521D01*
X135110320Y-91602517D01*
X135577986Y-91134852D01*
X135612635Y-91120500D01*
X135975940Y-91120500D01*
X136010588Y-91134852D01*
X136024940Y-91169500D01*
X136016682Y-91196722D01*
X136011904Y-91203872D01*
X135992463Y-91301610D01*
X135992463Y-91301613D01*
X136011904Y-91399350D01*
X136011904Y-91399351D01*
X136011905Y-91399352D01*
X136039113Y-91440072D01*
X136047371Y-91467294D01*
X136047371Y-91590550D01*
X136033019Y-91625198D01*
X135998371Y-91639550D01*
X135963724Y-91625200D01*
X135958606Y-91620082D01*
X135951094Y-91612570D01*
X135936742Y-91577924D01*
X135937682Y-91568372D01*
X135941537Y-91548996D01*
X135924036Y-91461010D01*
X135896633Y-91419998D01*
X135874196Y-91386418D01*
X135799605Y-91336579D01*
X135711619Y-91319078D01*
X135623632Y-91336579D01*
X135549041Y-91386418D01*
X135499202Y-91461009D01*
X135482593Y-91544513D01*
X135481701Y-91548996D01*
X135497559Y-91628721D01*
X135499202Y-91636982D01*
X135502729Y-91642260D01*
X135510678Y-91663985D01*
X135510964Y-91666523D01*
X135511119Y-91669274D01*
X135511119Y-91679234D01*
X135512357Y-91684659D01*
X135513334Y-91688940D01*
X135513794Y-91691650D01*
X135517502Y-91724566D01*
X135517504Y-91724570D01*
X135519296Y-91727422D01*
X135525578Y-91742588D01*
X135526328Y-91745874D01*
X135546982Y-91771774D01*
X135548572Y-91774014D01*
X135553870Y-91782443D01*
X135553871Y-91782445D01*
X135560908Y-91789482D01*
X135562730Y-91791520D01*
X135576594Y-91808904D01*
X135583396Y-91817433D01*
X135586428Y-91818893D01*
X135599820Y-91828394D01*
X135853921Y-92082495D01*
X135868273Y-92117143D01*
X135853921Y-92151791D01*
X135846496Y-92157885D01*
X135769397Y-92209399D01*
X135714033Y-92292260D01*
X135694592Y-92389998D01*
X135694592Y-92390001D01*
X135714033Y-92487739D01*
X135769398Y-92570601D01*
X135852260Y-92625966D01*
X135949998Y-92645408D01*
X135950000Y-92645408D01*
X135950002Y-92645408D01*
X136015159Y-92632446D01*
X136047740Y-92625966D01*
X136130601Y-92570601D01*
X136182116Y-92493501D01*
X136213295Y-92472668D01*
X136250078Y-92479983D01*
X136257504Y-92486078D01*
X136483015Y-92711589D01*
X136497367Y-92746237D01*
X136483015Y-92780885D01*
X136475590Y-92786979D01*
X136398491Y-92838493D01*
X136343127Y-92921354D01*
X136323686Y-93019092D01*
X136323686Y-93019095D01*
X136343127Y-93116832D01*
X136343127Y-93116833D01*
X136343128Y-93116834D01*
X136370336Y-93157554D01*
X136378594Y-93184776D01*
X136378594Y-94075135D01*
X136367902Y-94105689D01*
X136360709Y-94114706D01*
X136358879Y-94116754D01*
X136351850Y-94123782D01*
X136351842Y-94123793D01*
X136346548Y-94132217D01*
X136344959Y-94134456D01*
X136324303Y-94160360D01*
X136324301Y-94160363D01*
X136323550Y-94163654D01*
X136317273Y-94178806D01*
X136315476Y-94181665D01*
X136315475Y-94181667D01*
X136311766Y-94214586D01*
X136311306Y-94217293D01*
X136309092Y-94226999D01*
X136309092Y-94236960D01*
X136308938Y-94239704D01*
X136305229Y-94272619D01*
X136306341Y-94275794D01*
X136309092Y-94291980D01*
X136309092Y-97260819D01*
X136300834Y-97288040D01*
X136286217Y-97309918D01*
X136273625Y-97328763D01*
X136254184Y-97426500D01*
X136254184Y-97426503D01*
X136273625Y-97524241D01*
X136328989Y-97607102D01*
X136332964Y-97609758D01*
X136353799Y-97640940D01*
X136346483Y-97677723D01*
X136315301Y-97698558D01*
X136305741Y-97699500D01*
X135699500Y-97699500D01*
X135664852Y-97685148D01*
X135650500Y-97650500D01*
X135650500Y-94837748D01*
X135664852Y-94803100D01*
X135664854Y-94803097D01*
X135668073Y-94799877D01*
X135668077Y-94799875D01*
X135717917Y-94725284D01*
X135735418Y-94637298D01*
X135717917Y-94549312D01*
X135695507Y-94515773D01*
X135668077Y-94474720D01*
X135593486Y-94424881D01*
X135578866Y-94421973D01*
X135505500Y-94407380D01*
X135505499Y-94407380D01*
X135417513Y-94424881D01*
X135342922Y-94474720D01*
X135293083Y-94549311D01*
X135276010Y-94635148D01*
X135275582Y-94637298D01*
X135293083Y-94725284D01*
X135341242Y-94797360D01*
X135349500Y-94824581D01*
X135349500Y-97640355D01*
X135335148Y-97675003D01*
X135300500Y-97689355D01*
X135273278Y-97681097D01*
X135247739Y-97664033D01*
X135150002Y-97644592D01*
X135149998Y-97644592D01*
X135052260Y-97664033D01*
X134969398Y-97719398D01*
X134914033Y-97802260D01*
X134894592Y-97899998D01*
X134894592Y-97900001D01*
X134914033Y-97997739D01*
X134969398Y-98080601D01*
X135052260Y-98135966D01*
X135149998Y-98155408D01*
X135150000Y-98155408D01*
X135150002Y-98155408D01*
X135198869Y-98145687D01*
X135247740Y-98135966D01*
X135288461Y-98108757D01*
X135315683Y-98100500D01*
X135497410Y-98100500D01*
X138907611Y-98100500D01*
X138923796Y-98103250D01*
X138926974Y-98104362D01*
X138959889Y-98100653D01*
X138962632Y-98100500D01*
X138972591Y-98100500D01*
X138974310Y-98100107D01*
X138982310Y-98098280D01*
X138984997Y-98097824D01*
X139017924Y-98094116D01*
X139020775Y-98092323D01*
X139035948Y-98086038D01*
X139039231Y-98085290D01*
X139065139Y-98064628D01*
X139067358Y-98063052D01*
X139075801Y-98057748D01*
X139082849Y-98050698D01*
X139084870Y-98048892D01*
X139110788Y-98028224D01*
X139112249Y-98025189D01*
X139121747Y-98011800D01*
X139961801Y-97171747D01*
X139975192Y-97162248D01*
X139978224Y-97160788D01*
X139990816Y-97144997D01*
X140023640Y-97126855D01*
X140059677Y-97137237D01*
X140075696Y-97163541D01*
X140075735Y-97163526D01*
X140075837Y-97163774D01*
X140077186Y-97165988D01*
X140077583Y-97167986D01*
X140127422Y-97242577D01*
X140176968Y-97275682D01*
X140202014Y-97292417D01*
X140290000Y-97309918D01*
X140377986Y-97292417D01*
X140452577Y-97242577D01*
X140502417Y-97167986D01*
X140519918Y-97080000D01*
X140519917Y-97079998D01*
X140519918Y-97079997D01*
X140519918Y-97075174D01*
X140522111Y-97075174D01*
X140527851Y-97046317D01*
X140533940Y-97038897D01*
X141620430Y-95952409D01*
X141620430Y-95952408D01*
X141627322Y-95945517D01*
X141627322Y-95945516D01*
X141627338Y-95945500D01*
X141634935Y-95937904D01*
X141638573Y-95924323D01*
X141643470Y-95912501D01*
X141645103Y-95909674D01*
X141650500Y-95900327D01*
X141650500Y-95819674D01*
X141650500Y-95819673D01*
X141650500Y-95418449D01*
X141661737Y-95391318D01*
X141659896Y-95390088D01*
X141674762Y-95367838D01*
X141712417Y-95311484D01*
X141729918Y-95223498D01*
X141712417Y-95135512D01*
X141662577Y-95060921D01*
X141662576Y-95060920D01*
X141659896Y-95056909D01*
X141661737Y-95055678D01*
X141650500Y-95028548D01*
X141650500Y-94132634D01*
X141664851Y-94097987D01*
X142417986Y-93344852D01*
X142452635Y-93330500D01*
X142660327Y-93330500D01*
X142672501Y-93323469D01*
X142684319Y-93318574D01*
X142697904Y-93314935D01*
X142754935Y-93257905D01*
X142754935Y-93257903D01*
X142761825Y-93251014D01*
X142761829Y-93251009D01*
X142794274Y-93218564D01*
X142913611Y-93099229D01*
X142913611Y-93099227D01*
X142917642Y-93095197D01*
X142917643Y-93095194D01*
X142928115Y-93084724D01*
X142931753Y-93071141D01*
X142936646Y-93059328D01*
X142943680Y-93047147D01*
X142943681Y-92966493D01*
X142943680Y-92966491D01*
X142943680Y-92940859D01*
X142954917Y-92913729D01*
X142953076Y-92912499D01*
X142984758Y-92865082D01*
X143015940Y-92844246D01*
X143052722Y-92851562D01*
X143073558Y-92882744D01*
X143074500Y-92892304D01*
X143074500Y-93353717D01*
X143060148Y-93388365D01*
X143025500Y-93402717D01*
X142998278Y-93394460D01*
X142987986Y-93387583D01*
X142900000Y-93370082D01*
X142812013Y-93387583D01*
X142737422Y-93437422D01*
X142687583Y-93512013D01*
X142670082Y-93600000D01*
X142687583Y-93687986D01*
X142740104Y-93766590D01*
X142738262Y-93767820D01*
X142749500Y-93794950D01*
X142749500Y-94209673D01*
X142749500Y-94290327D01*
X142749500Y-94290328D01*
X142749501Y-94290329D01*
X142749641Y-94290572D01*
X142749713Y-94291121D01*
X142751170Y-94296557D01*
X142750454Y-94296748D01*
X142754535Y-94327754D01*
X142731703Y-94357506D01*
X142694521Y-94362400D01*
X142672557Y-94349718D01*
X142530672Y-94207833D01*
X142516320Y-94173185D01*
X142517261Y-94163630D01*
X142529918Y-94100000D01*
X142512417Y-94012014D01*
X142486070Y-93972583D01*
X142462577Y-93937422D01*
X142387986Y-93887583D01*
X142374668Y-93884934D01*
X142300000Y-93870082D01*
X142299999Y-93870082D01*
X142212013Y-93887583D01*
X142137422Y-93937422D01*
X142087583Y-94012013D01*
X142085470Y-94022635D01*
X142070082Y-94100000D01*
X142071923Y-94109258D01*
X142073168Y-94115514D01*
X142065851Y-94152297D01*
X142034668Y-94173131D01*
X141991767Y-94181665D01*
X141962013Y-94187583D01*
X141887422Y-94237422D01*
X141837583Y-94312013D01*
X141820082Y-94400000D01*
X141837583Y-94487986D01*
X141887423Y-94562578D01*
X141927722Y-94589504D01*
X141948558Y-94620686D01*
X141949500Y-94630246D01*
X141949500Y-95867364D01*
X141935148Y-95902012D01*
X140881430Y-96955730D01*
X140854300Y-96966967D01*
X140854733Y-96969141D01*
X140850000Y-96970082D01*
X140815351Y-96976974D01*
X140762013Y-96987583D01*
X140687422Y-97037422D01*
X140637583Y-97112013D01*
X140620082Y-97200000D01*
X140637583Y-97287986D01*
X140687422Y-97362577D01*
X140737262Y-97395878D01*
X140762014Y-97412417D01*
X140850000Y-97429918D01*
X140937986Y-97412417D01*
X141012577Y-97362577D01*
X141062417Y-97287986D01*
X141079918Y-97200000D01*
X141079917Y-97199998D01*
X141080859Y-97195267D01*
X141083031Y-97195699D01*
X141094270Y-97168568D01*
X141648910Y-96613929D01*
X142220430Y-96042409D01*
X142234935Y-96027904D01*
X142238574Y-96014319D01*
X142243471Y-96002499D01*
X142250500Y-95990327D01*
X142250500Y-95952408D01*
X142250501Y-95909674D01*
X142250500Y-95909672D01*
X142250500Y-94520684D01*
X142258759Y-94493460D01*
X142259029Y-94493056D01*
X142262417Y-94487986D01*
X142264894Y-94475528D01*
X142285729Y-94444347D01*
X142322511Y-94437029D01*
X142347601Y-94450440D01*
X142519570Y-94622409D01*
X143275065Y-95377904D01*
X143332096Y-95434935D01*
X143345678Y-95438573D01*
X143357491Y-95443466D01*
X143369673Y-95450500D01*
X143390186Y-95450500D01*
X144081253Y-95450500D01*
X144115901Y-95464852D01*
X144130253Y-95499500D01*
X144129025Y-95510401D01*
X144121768Y-95542200D01*
X144119987Y-95550001D01*
X144137812Y-95628102D01*
X144137814Y-95628106D01*
X144154533Y-95649070D01*
X144178800Y-95679500D01*
X144187766Y-95690742D01*
X144188656Y-95691452D01*
X144189387Y-95692774D01*
X144191207Y-95695057D01*
X144190819Y-95695366D01*
X144206795Y-95724276D01*
X144196411Y-95760313D01*
X144192752Y-95764407D01*
X144172013Y-95785147D01*
X144137365Y-95799500D01*
X143916820Y-95799500D01*
X143882172Y-95785148D01*
X143882169Y-95785145D01*
X143879947Y-95782922D01*
X143805356Y-95733083D01*
X143717370Y-95715582D01*
X143629383Y-95733083D01*
X143554792Y-95782922D01*
X143504953Y-95857513D01*
X143498372Y-95890601D01*
X143487452Y-95945500D01*
X143499455Y-96005847D01*
X143500469Y-96010941D01*
X143493152Y-96047723D01*
X143461969Y-96068559D01*
X143452410Y-96069500D01*
X143409672Y-96069500D01*
X143397495Y-96076531D01*
X143385679Y-96081425D01*
X143372099Y-96085063D01*
X143372098Y-96085064D01*
X143372096Y-96085065D01*
X143372097Y-96085065D01*
X143315066Y-96142095D01*
X143315065Y-96142096D01*
X143192310Y-96264852D01*
X143077014Y-96380148D01*
X143042366Y-96394500D01*
X142204671Y-96394500D01*
X142192494Y-96401531D01*
X142180678Y-96406425D01*
X142167098Y-96410063D01*
X142167097Y-96410064D01*
X142110065Y-96467095D01*
X141865066Y-96712093D01*
X141865064Y-96712097D01*
X141861425Y-96725678D01*
X141856531Y-96737494D01*
X141849500Y-96749671D01*
X141849499Y-96749674D01*
X141849499Y-96840069D01*
X141849500Y-96840074D01*
X141849500Y-97105049D01*
X141838267Y-97132183D01*
X141840104Y-97133411D01*
X141837423Y-97137422D01*
X141837423Y-97137423D01*
X141792628Y-97204463D01*
X141787583Y-97212014D01*
X141770082Y-97300000D01*
X141787583Y-97387986D01*
X141837422Y-97462577D01*
X141867114Y-97482416D01*
X141912014Y-97512417D01*
X141920298Y-97514064D01*
X141951481Y-97534898D01*
X141958799Y-97571680D01*
X141945389Y-97596771D01*
X141935058Y-97607102D01*
X141915065Y-97627095D01*
X141915064Y-97627096D01*
X141852805Y-97689355D01*
X141675066Y-97867093D01*
X141675064Y-97867097D01*
X141671425Y-97880678D01*
X141666531Y-97892494D01*
X141659500Y-97904671D01*
X141659499Y-97904674D01*
X141659499Y-97995069D01*
X141659500Y-97995074D01*
X141659500Y-98280327D01*
X141666531Y-98292505D01*
X141671425Y-98304322D01*
X141675063Y-98317900D01*
X141675064Y-98317902D01*
X141675065Y-98317904D01*
X141732095Y-98374935D01*
X141738986Y-98381826D01*
X141738989Y-98381828D01*
X141828172Y-98471010D01*
X141828173Y-98471012D01*
X141835065Y-98477904D01*
X141892096Y-98534935D01*
X141905678Y-98538573D01*
X141917491Y-98543466D01*
X141929673Y-98550500D01*
X141929674Y-98550500D01*
X142920327Y-98550500D01*
X142932501Y-98543469D01*
X142944319Y-98538574D01*
X142957904Y-98534935D01*
X143014935Y-98477905D01*
X143014935Y-98477903D01*
X143021824Y-98471015D01*
X143021828Y-98471010D01*
X143145465Y-98347373D01*
X146005740Y-98347373D01*
X146023565Y-98425474D01*
X146023569Y-98425481D01*
X146073517Y-98488112D01*
X146073519Y-98488113D01*
X146145691Y-98522870D01*
X146145693Y-98522870D01*
X146145696Y-98522872D01*
X146145698Y-98522872D01*
X146225808Y-98522872D01*
X146225810Y-98522872D01*
X146297989Y-98488112D01*
X146347939Y-98425477D01*
X146357623Y-98383052D01*
X146365766Y-98347373D01*
X146365766Y-98347370D01*
X146347940Y-98269269D01*
X146347936Y-98269262D01*
X146297988Y-98206631D01*
X146297986Y-98206630D01*
X146225814Y-98171873D01*
X146225811Y-98171872D01*
X146225810Y-98171872D01*
X146145696Y-98171872D01*
X146145695Y-98171872D01*
X146145691Y-98171873D01*
X146073519Y-98206630D01*
X146073517Y-98206631D01*
X146023569Y-98269262D01*
X146023565Y-98269269D01*
X146005740Y-98347370D01*
X146005740Y-98347373D01*
X143145465Y-98347373D01*
X143537986Y-97954852D01*
X143572635Y-97940500D01*
X145369827Y-97940500D01*
X145380983Y-97934058D01*
X145415047Y-97928433D01*
X145416213Y-97928664D01*
X145420000Y-97929418D01*
X145507986Y-97911917D01*
X145582577Y-97862077D01*
X145632417Y-97787486D01*
X145649918Y-97699500D01*
X145632417Y-97611514D01*
X145605801Y-97571680D01*
X145582577Y-97536922D01*
X145507986Y-97487083D01*
X145420000Y-97469582D01*
X145332013Y-97487083D01*
X145257422Y-97536922D01*
X145218345Y-97595408D01*
X145208757Y-97609758D01*
X145204902Y-97615527D01*
X145203310Y-97614463D01*
X145181995Y-97635773D01*
X145163250Y-97639500D01*
X143449671Y-97639500D01*
X143437494Y-97646531D01*
X143425678Y-97651425D01*
X143412098Y-97655063D01*
X143412097Y-97655064D01*
X143355065Y-97712095D01*
X143355064Y-97712096D01*
X142832013Y-98235148D01*
X142797365Y-98249500D01*
X142052635Y-98249500D01*
X142017987Y-98235148D01*
X141974852Y-98192013D01*
X141960500Y-98157365D01*
X141960500Y-98027634D01*
X141974851Y-97992987D01*
X142097987Y-97869851D01*
X142132635Y-97855500D01*
X142785327Y-97855500D01*
X142797501Y-97848469D01*
X142809319Y-97843574D01*
X142822904Y-97839935D01*
X142879935Y-97782905D01*
X142879935Y-97782903D01*
X142886824Y-97776015D01*
X142886826Y-97776011D01*
X143743313Y-96919525D01*
X143777962Y-96905173D01*
X143805654Y-96905173D01*
X143817828Y-96898142D01*
X143829646Y-96893247D01*
X143843231Y-96889608D01*
X143892029Y-96840810D01*
X143926676Y-96826459D01*
X143961324Y-96840811D01*
X143974734Y-96865899D01*
X143980771Y-96896247D01*
X144030611Y-96970840D01*
X144070883Y-96997748D01*
X144105203Y-97020680D01*
X144193189Y-97038181D01*
X144281175Y-97020680D01*
X144302430Y-97006477D01*
X144339211Y-96999161D01*
X144370394Y-97019997D01*
X144377711Y-97056779D01*
X144367962Y-97077771D01*
X144352314Y-97097391D01*
X144352312Y-97097395D01*
X144334487Y-97175496D01*
X144334487Y-97175499D01*
X144352312Y-97253600D01*
X144352316Y-97253607D01*
X144402264Y-97316238D01*
X144402266Y-97316239D01*
X144474438Y-97350996D01*
X144474440Y-97350996D01*
X144474443Y-97350998D01*
X144474445Y-97350998D01*
X144554555Y-97350998D01*
X144554557Y-97350998D01*
X144577392Y-97340001D01*
X144626733Y-97316240D01*
X144626733Y-97316239D01*
X144626736Y-97316238D01*
X144643025Y-97295811D01*
X144675846Y-97277672D01*
X144711884Y-97288054D01*
X144729391Y-97316805D01*
X144737581Y-97357983D01*
X144787422Y-97432577D01*
X144825001Y-97457686D01*
X144862014Y-97482417D01*
X144950000Y-97499918D01*
X145037986Y-97482417D01*
X145112577Y-97432577D01*
X145162417Y-97357986D01*
X145163807Y-97350998D01*
X145164018Y-97349939D01*
X145184854Y-97318757D01*
X145212076Y-97310500D01*
X145826865Y-97310500D01*
X145861513Y-97324852D01*
X146784815Y-98248154D01*
X146841846Y-98305185D01*
X146855428Y-98308823D01*
X146867241Y-98313716D01*
X146879423Y-98320750D01*
X146879424Y-98320750D01*
X149150077Y-98320750D01*
X149162251Y-98313719D01*
X149174069Y-98308824D01*
X149187654Y-98305185D01*
X149244685Y-98248155D01*
X149244685Y-98248153D01*
X149251574Y-98241265D01*
X149251576Y-98241261D01*
X149660430Y-97832409D01*
X149660430Y-97832408D01*
X149667322Y-97825517D01*
X149667322Y-97825516D01*
X149674935Y-97817904D01*
X149678573Y-97804323D01*
X149683470Y-97792501D01*
X149689013Y-97782903D01*
X149690500Y-97780327D01*
X149690500Y-97709434D01*
X149704852Y-97674787D01*
X149739500Y-97660435D01*
X149774148Y-97674787D01*
X149777809Y-97678884D01*
X149787264Y-97690740D01*
X149787266Y-97690741D01*
X149859438Y-97725498D01*
X149859440Y-97725498D01*
X149859443Y-97725500D01*
X149859445Y-97725500D01*
X149939555Y-97725500D01*
X149939557Y-97725500D01*
X150011736Y-97690740D01*
X150061686Y-97628105D01*
X150061917Y-97627096D01*
X150079513Y-97550001D01*
X150079513Y-97549998D01*
X150061687Y-97471897D01*
X150061683Y-97471890D01*
X150014835Y-97413146D01*
X150011736Y-97409260D01*
X150011735Y-97409259D01*
X150011733Y-97409258D01*
X149939561Y-97374501D01*
X149939558Y-97374500D01*
X149939557Y-97374500D01*
X149859443Y-97374500D01*
X149859442Y-97374500D01*
X149859438Y-97374501D01*
X149787267Y-97409257D01*
X149787264Y-97409259D01*
X149787264Y-97409260D01*
X149777807Y-97421117D01*
X149744984Y-97439256D01*
X149708947Y-97428873D01*
X149690808Y-97396048D01*
X149690500Y-97390564D01*
X149690500Y-96939674D01*
X149690500Y-96939673D01*
X149683466Y-96927491D01*
X149678573Y-96915678D01*
X149674935Y-96902096D01*
X149617905Y-96845065D01*
X149617903Y-96845064D01*
X149615111Y-96842272D01*
X149615111Y-96842271D01*
X149615108Y-96842269D01*
X149484615Y-96711776D01*
X149352409Y-96579570D01*
X149343339Y-96570500D01*
X149337905Y-96565065D01*
X149337902Y-96565063D01*
X149324322Y-96561425D01*
X149312505Y-96556531D01*
X149306590Y-96553116D01*
X149300327Y-96549500D01*
X149300326Y-96549499D01*
X149294742Y-96546276D01*
X149295690Y-96544633D01*
X149273195Y-96527364D01*
X149268307Y-96490181D01*
X149288412Y-96462132D01*
X149356917Y-96416359D01*
X149362576Y-96412578D01*
X149364256Y-96410064D01*
X149412417Y-96337986D01*
X149429918Y-96250000D01*
X149412417Y-96162014D01*
X149386166Y-96122726D01*
X149362577Y-96087422D01*
X149316816Y-96056846D01*
X149292712Y-96040741D01*
X149271878Y-96009560D01*
X149279194Y-95972777D01*
X149292711Y-95959259D01*
X149362577Y-95912577D01*
X149412417Y-95837986D01*
X149429918Y-95750000D01*
X149412417Y-95662014D01*
X149390529Y-95629256D01*
X149362577Y-95587422D01*
X149345129Y-95575764D01*
X149324293Y-95544581D01*
X149331610Y-95507799D01*
X149345130Y-95494280D01*
X149392576Y-95462578D01*
X149394368Y-95459896D01*
X149442417Y-95387986D01*
X149459918Y-95300000D01*
X149442417Y-95212014D01*
X149399581Y-95147905D01*
X149389896Y-95133410D01*
X149391184Y-95132549D01*
X149379293Y-95103842D01*
X149393645Y-95069194D01*
X149393645Y-95069193D01*
X149401917Y-95060921D01*
X149425430Y-95037409D01*
X149425429Y-95037409D01*
X149439935Y-95022904D01*
X149443573Y-95009323D01*
X149448470Y-94997501D01*
X149455500Y-94985327D01*
X149455500Y-94945001D01*
X149455501Y-94904674D01*
X149455500Y-94904672D01*
X149455500Y-94835186D01*
X149455500Y-94835185D01*
X149455500Y-94814673D01*
X149448466Y-94802491D01*
X149443573Y-94790678D01*
X149441758Y-94783901D01*
X149446656Y-94746720D01*
X149476410Y-94723892D01*
X149513592Y-94728790D01*
X149523737Y-94736575D01*
X149553172Y-94766010D01*
X149553173Y-94766012D01*
X149560065Y-94772904D01*
X149617096Y-94829935D01*
X149630678Y-94833573D01*
X149642491Y-94838466D01*
X149654673Y-94845500D01*
X149735326Y-94845501D01*
X149735328Y-94845500D01*
X149824673Y-94845500D01*
X149905327Y-94845500D01*
X149917501Y-94838469D01*
X149929319Y-94833574D01*
X149942904Y-94829935D01*
X149999935Y-94772905D01*
X149999935Y-94772903D01*
X150006823Y-94766016D01*
X150006825Y-94766012D01*
X150070430Y-94702409D01*
X150084935Y-94687904D01*
X150088574Y-94674319D01*
X150093471Y-94662499D01*
X150093752Y-94662014D01*
X150100500Y-94650327D01*
X150100500Y-94569674D01*
X150100500Y-94569673D01*
X150100500Y-94330186D01*
X150100500Y-94330185D01*
X150100500Y-94309673D01*
X150093466Y-94297491D01*
X150088573Y-94285678D01*
X150084935Y-94272096D01*
X150027905Y-94215065D01*
X150027903Y-94215064D01*
X150025111Y-94212272D01*
X150025111Y-94212271D01*
X150025108Y-94212269D01*
X149936621Y-94123782D01*
X149842409Y-94029570D01*
X149831536Y-94018697D01*
X149827905Y-94015065D01*
X149827902Y-94015063D01*
X149814322Y-94011425D01*
X149802505Y-94006531D01*
X149790327Y-93999500D01*
X149790324Y-93999499D01*
X149703973Y-93999499D01*
X149703965Y-93999500D01*
X149443452Y-93999500D01*
X149408804Y-93985148D01*
X149394452Y-93950500D01*
X149408804Y-93915852D01*
X149409804Y-93914852D01*
X149444452Y-93900500D01*
X149640327Y-93900500D01*
X149652501Y-93893469D01*
X149664319Y-93888574D01*
X149677904Y-93884935D01*
X149734935Y-93827905D01*
X149734935Y-93827903D01*
X149741822Y-93821017D01*
X149741824Y-93821013D01*
X149845430Y-93717409D01*
X149845430Y-93717408D01*
X149859935Y-93702904D01*
X149863573Y-93689323D01*
X149868470Y-93677501D01*
X149875500Y-93665327D01*
X149875500Y-93634935D01*
X149875501Y-93584673D01*
X149875500Y-93584671D01*
X149875500Y-93305186D01*
X149875500Y-93305185D01*
X149875500Y-93284673D01*
X149868466Y-93272491D01*
X149863573Y-93260678D01*
X149859935Y-93247096D01*
X149802905Y-93190065D01*
X149802903Y-93190064D01*
X149800111Y-93187272D01*
X149800111Y-93187271D01*
X149800108Y-93187269D01*
X149780880Y-93168041D01*
X149752409Y-93139570D01*
X149745156Y-93132317D01*
X149737905Y-93125065D01*
X149737902Y-93125063D01*
X149724322Y-93121425D01*
X149712505Y-93116531D01*
X149700327Y-93109500D01*
X149700324Y-93109499D01*
X149613973Y-93109499D01*
X149613965Y-93109500D01*
X149407337Y-93109500D01*
X149372689Y-93095148D01*
X149358337Y-93060500D01*
X149362069Y-93041744D01*
X149363418Y-93038487D01*
X149363417Y-93038487D01*
X149363419Y-93038486D01*
X149380920Y-92950500D01*
X149380919Y-92950498D01*
X149381861Y-92945767D01*
X149384033Y-92946199D01*
X149395272Y-92919068D01*
X149704781Y-92609560D01*
X150020430Y-92293911D01*
X150034935Y-92279406D01*
X150038574Y-92265821D01*
X150043471Y-92254001D01*
X150045782Y-92250000D01*
X150050500Y-92241829D01*
X150050501Y-92161176D01*
X150050500Y-92161174D01*
X150050500Y-91020186D01*
X150050500Y-90999673D01*
X150043466Y-90987491D01*
X150038573Y-90975678D01*
X150034935Y-90962096D01*
X149977905Y-90905065D01*
X149977903Y-90905064D01*
X149975111Y-90902272D01*
X149975111Y-90902271D01*
X149975108Y-90902269D01*
X149534270Y-90461431D01*
X149523032Y-90434301D01*
X149520859Y-90434734D01*
X149519917Y-90430001D01*
X149519918Y-90430000D01*
X149502417Y-90342014D01*
X149462703Y-90282577D01*
X149452577Y-90267422D01*
X149377986Y-90217583D01*
X149290000Y-90200082D01*
X149202013Y-90217583D01*
X149127422Y-90267422D01*
X149085628Y-90329974D01*
X149054446Y-90350809D01*
X149017663Y-90343493D01*
X149010238Y-90337399D01*
X148976154Y-90303315D01*
X148961802Y-90268667D01*
X148970059Y-90241445D01*
X148992417Y-90207986D01*
X149009918Y-90120000D01*
X148992417Y-90032014D01*
X148957041Y-89979070D01*
X148942576Y-89957421D01*
X148870560Y-89909303D01*
X148849724Y-89878121D01*
X148857040Y-89841339D01*
X148885100Y-89821231D01*
X149063483Y-89773433D01*
X149063488Y-89773431D01*
X149277577Y-89673601D01*
X149277589Y-89673594D01*
X149471076Y-89538111D01*
X149512167Y-89497019D01*
X148979913Y-88964765D01*
X149027925Y-88927925D01*
X149064765Y-88879913D01*
X149597019Y-89412167D01*
X149597020Y-89412167D01*
X149638111Y-89371076D01*
X149773594Y-89177589D01*
X149773601Y-89177577D01*
X149873431Y-88963488D01*
X149873433Y-88963483D01*
X149934567Y-88735329D01*
X149934568Y-88735323D01*
X149955156Y-88500000D01*
X149934568Y-88264676D01*
X149934567Y-88264670D01*
X149873433Y-88036516D01*
X149873432Y-88036511D01*
X149773601Y-87822423D01*
X149773594Y-87822411D01*
X149638114Y-87628927D01*
X149638108Y-87628920D01*
X149597020Y-87587832D01*
X149064765Y-88120086D01*
X149027925Y-88072075D01*
X148979912Y-88035234D01*
X149512167Y-87502980D01*
X149512167Y-87502979D01*
X149471073Y-87461886D01*
X149471072Y-87461885D01*
X149277589Y-87326405D01*
X149277577Y-87326398D01*
X149063488Y-87226568D01*
X149063483Y-87226566D01*
X148835329Y-87165432D01*
X148835323Y-87165431D01*
X148599999Y-87144843D01*
X148364676Y-87165431D01*
X148364670Y-87165432D01*
X148136516Y-87226566D01*
X148136511Y-87226567D01*
X147922423Y-87326398D01*
X147922411Y-87326405D01*
X147728927Y-87461885D01*
X147728926Y-87461886D01*
X147687832Y-87502979D01*
X148220087Y-88035234D01*
X148172075Y-88072075D01*
X148135233Y-88120086D01*
X147602979Y-87587832D01*
X147561886Y-87628926D01*
X147561885Y-87628927D01*
X147426405Y-87822411D01*
X147426398Y-87822423D01*
X147326567Y-88036511D01*
X147326566Y-88036516D01*
X147265432Y-88264670D01*
X147265431Y-88264676D01*
X147244843Y-88500000D01*
X147265431Y-88735323D01*
X147265432Y-88735329D01*
X147326566Y-88963483D01*
X147326568Y-88963488D01*
X147426398Y-89177577D01*
X147426405Y-89177589D01*
X147561885Y-89371072D01*
X147561891Y-89371079D01*
X147602979Y-89412167D01*
X148135233Y-88879912D01*
X148172075Y-88927925D01*
X148220086Y-88964765D01*
X147687832Y-89497020D01*
X147728920Y-89538108D01*
X147728927Y-89538114D01*
X147922410Y-89673594D01*
X147922422Y-89673601D01*
X148136511Y-89773431D01*
X148136516Y-89773433D01*
X148364670Y-89834567D01*
X148364676Y-89834568D01*
X148599999Y-89855156D01*
X148605697Y-89854658D01*
X148641464Y-89865936D01*
X148658782Y-89899201D01*
X148647504Y-89934968D01*
X148637191Y-89944214D01*
X148617422Y-89957422D01*
X148567583Y-90032013D01*
X148550082Y-90120000D01*
X148567583Y-90207986D01*
X148620104Y-90286590D01*
X148618262Y-90287820D01*
X148629500Y-90314951D01*
X148629500Y-90360327D01*
X148636531Y-90372505D01*
X148641425Y-90384322D01*
X148645063Y-90397900D01*
X148645064Y-90397902D01*
X148645065Y-90397904D01*
X148702095Y-90454935D01*
X148708986Y-90461826D01*
X148708989Y-90461828D01*
X149198224Y-90951063D01*
X149212576Y-90985711D01*
X149198224Y-91020359D01*
X149190799Y-91026453D01*
X149125698Y-91069951D01*
X149075859Y-91144542D01*
X149058358Y-91232529D01*
X149075859Y-91320515D01*
X149128380Y-91399119D01*
X149126538Y-91400349D01*
X149137776Y-91427480D01*
X149137776Y-91559089D01*
X149123424Y-91593737D01*
X148681513Y-92035648D01*
X148646865Y-92050000D01*
X148215546Y-92050000D01*
X148180898Y-92035648D01*
X148166546Y-92001000D01*
X148171399Y-91979738D01*
X148172183Y-91978107D01*
X148172186Y-91978105D01*
X148182058Y-91934852D01*
X148190013Y-91900001D01*
X148190013Y-91899998D01*
X148172187Y-91821897D01*
X148172183Y-91821890D01*
X148122235Y-91759259D01*
X148122233Y-91759258D01*
X148050061Y-91724501D01*
X148050058Y-91724500D01*
X148050057Y-91724500D01*
X147969943Y-91724500D01*
X147969942Y-91724500D01*
X147969938Y-91724501D01*
X147897766Y-91759258D01*
X147897764Y-91759259D01*
X147847816Y-91821890D01*
X147847812Y-91821897D01*
X147829987Y-91899998D01*
X147829987Y-91900001D01*
X147847812Y-91978101D01*
X147848601Y-91979738D01*
X147848736Y-91982148D01*
X147849042Y-91983487D01*
X147848814Y-91983538D01*
X147850705Y-92017182D01*
X147825716Y-92045147D01*
X147804454Y-92050000D01*
X147159171Y-92050000D01*
X147146994Y-92057031D01*
X147135178Y-92061925D01*
X147121598Y-92065563D01*
X147121597Y-92065564D01*
X147121595Y-92065565D01*
X147121596Y-92065565D01*
X147064565Y-92122595D01*
X147064564Y-92122596D01*
X147002011Y-92185148D01*
X146967365Y-92199500D01*
X146532635Y-92199500D01*
X146497987Y-92185148D01*
X146451987Y-92139148D01*
X146437635Y-92104500D01*
X146451987Y-92069852D01*
X146479563Y-92058429D01*
X146479175Y-92056728D01*
X146484552Y-92055500D01*
X146484557Y-92055500D01*
X146556736Y-92020740D01*
X146606686Y-91958105D01*
X146611994Y-91934852D01*
X146624513Y-91880001D01*
X146624513Y-91879998D01*
X146606687Y-91801897D01*
X146606683Y-91801890D01*
X146562011Y-91745875D01*
X146556736Y-91739260D01*
X146556735Y-91739259D01*
X146556733Y-91739258D01*
X146484561Y-91704501D01*
X146484558Y-91704500D01*
X146484557Y-91704500D01*
X146404443Y-91704500D01*
X146404442Y-91704500D01*
X146404438Y-91704501D01*
X146332266Y-91739258D01*
X146332264Y-91739259D01*
X146282316Y-91801890D01*
X146282312Y-91801897D01*
X146270900Y-91851897D01*
X146249198Y-91882483D01*
X146212225Y-91888764D01*
X146188481Y-91875641D01*
X145255854Y-90943015D01*
X144942409Y-90629570D01*
X144932984Y-90620145D01*
X144927905Y-90615065D01*
X144927902Y-90615063D01*
X144914322Y-90611425D01*
X144902505Y-90606531D01*
X144891195Y-90600001D01*
X146694487Y-90600001D01*
X146712312Y-90678102D01*
X146712316Y-90678109D01*
X146762264Y-90740740D01*
X146762266Y-90740741D01*
X146834438Y-90775498D01*
X146834440Y-90775498D01*
X146834443Y-90775500D01*
X146834445Y-90775500D01*
X146914555Y-90775500D01*
X146914557Y-90775500D01*
X146986736Y-90740740D01*
X147036686Y-90678105D01*
X147043044Y-90650252D01*
X147054513Y-90600001D01*
X147054513Y-90599998D01*
X147036687Y-90521897D01*
X147036683Y-90521890D01*
X146986735Y-90459259D01*
X146986733Y-90459258D01*
X146914561Y-90424501D01*
X146914558Y-90424500D01*
X146914557Y-90424500D01*
X146834443Y-90424500D01*
X146834442Y-90424500D01*
X146834438Y-90424501D01*
X146762266Y-90459258D01*
X146762264Y-90459259D01*
X146712316Y-90521890D01*
X146712312Y-90521897D01*
X146694487Y-90599998D01*
X146694487Y-90600001D01*
X144891195Y-90600001D01*
X144890327Y-90599500D01*
X144890324Y-90599499D01*
X144803973Y-90599499D01*
X144803965Y-90599500D01*
X144042635Y-90599500D01*
X144007987Y-90585148D01*
X143563780Y-90140941D01*
X143102409Y-89679570D01*
X143095156Y-89672317D01*
X143087905Y-89665065D01*
X143087902Y-89665063D01*
X143074322Y-89661425D01*
X143062505Y-89656531D01*
X143050327Y-89649500D01*
X143050324Y-89649499D01*
X142963973Y-89649499D01*
X142963965Y-89649500D01*
X142822635Y-89649500D01*
X142787987Y-89635148D01*
X142727840Y-89575001D01*
X143619987Y-89575001D01*
X143637812Y-89653102D01*
X143637816Y-89653109D01*
X143687764Y-89715740D01*
X143687766Y-89715741D01*
X143759938Y-89750498D01*
X143759940Y-89750498D01*
X143759943Y-89750500D01*
X143759945Y-89750500D01*
X143840055Y-89750500D01*
X143840057Y-89750500D01*
X143912236Y-89715740D01*
X143962186Y-89653105D01*
X143962570Y-89651425D01*
X143974307Y-89600000D01*
X145606844Y-89600000D01*
X145627210Y-89689231D01*
X145627212Y-89689235D01*
X145684274Y-89760786D01*
X145684276Y-89760788D01*
X145766734Y-89800499D01*
X145766735Y-89800499D01*
X145766737Y-89800500D01*
X145766739Y-89800500D01*
X145858261Y-89800500D01*
X145858263Y-89800500D01*
X145940724Y-89760788D01*
X145997790Y-89689231D01*
X146018156Y-89600000D01*
X145997790Y-89510769D01*
X145997788Y-89510767D01*
X145997787Y-89510764D01*
X145940725Y-89439213D01*
X145940723Y-89439211D01*
X145858265Y-89399500D01*
X145858263Y-89399500D01*
X145766737Y-89399500D01*
X145766734Y-89399500D01*
X145684276Y-89439211D01*
X145684274Y-89439213D01*
X145627212Y-89510764D01*
X145627210Y-89510768D01*
X145606844Y-89600000D01*
X143974307Y-89600000D01*
X143980013Y-89575001D01*
X143980013Y-89574998D01*
X143962187Y-89496897D01*
X143962183Y-89496890D01*
X143912235Y-89434259D01*
X143912233Y-89434258D01*
X143840061Y-89399501D01*
X143840058Y-89399500D01*
X143840057Y-89399500D01*
X143759943Y-89399500D01*
X143759942Y-89399500D01*
X143759938Y-89399501D01*
X143687766Y-89434258D01*
X143687764Y-89434259D01*
X143637816Y-89496890D01*
X143637812Y-89496897D01*
X143619987Y-89574998D01*
X143619987Y-89575001D01*
X142727840Y-89575001D01*
X142587097Y-89434258D01*
X142382409Y-89229570D01*
X142375156Y-89222317D01*
X142367905Y-89215065D01*
X142367902Y-89215063D01*
X142354322Y-89211425D01*
X142342505Y-89206531D01*
X142330327Y-89199500D01*
X142330324Y-89199499D01*
X142243973Y-89199499D01*
X142243965Y-89199500D01*
X140732635Y-89199500D01*
X140697987Y-89185148D01*
X140364852Y-88852013D01*
X140350500Y-88817365D01*
X140350500Y-87244951D01*
X140361737Y-87217820D01*
X140359896Y-87216590D01*
X140376897Y-87191145D01*
X140412417Y-87137986D01*
X140429918Y-87050000D01*
X140412417Y-86962014D01*
X140375000Y-86906015D01*
X140362577Y-86887422D01*
X140287986Y-86837583D01*
X140200000Y-86820082D01*
X140112012Y-86837583D01*
X140052222Y-86877533D01*
X140015440Y-86884849D01*
X139997778Y-86877533D01*
X139937987Y-86837583D01*
X139850000Y-86820082D01*
X139762013Y-86837583D01*
X139687422Y-86887422D01*
X139637583Y-86962013D01*
X139620082Y-87050000D01*
X139637583Y-87137986D01*
X139690104Y-87216590D01*
X139688262Y-87217820D01*
X139699500Y-87244951D01*
X139699500Y-87594123D01*
X139685148Y-87628771D01*
X139650500Y-87643123D01*
X139615852Y-87628771D01*
X139612191Y-87624675D01*
X139605109Y-87615794D01*
X139587936Y-87594260D01*
X139587935Y-87594259D01*
X139587933Y-87594257D01*
X139515761Y-87559501D01*
X139515758Y-87559500D01*
X139515757Y-87559500D01*
X139435643Y-87559500D01*
X139435642Y-87559500D01*
X139435638Y-87559501D01*
X139363466Y-87594258D01*
X139363464Y-87594259D01*
X139313516Y-87656890D01*
X139313512Y-87656897D01*
X139295687Y-87734998D01*
X139295687Y-87735001D01*
X139313512Y-87813102D01*
X139313516Y-87813109D01*
X139363464Y-87875740D01*
X139363466Y-87875741D01*
X139435638Y-87910498D01*
X139435640Y-87910498D01*
X139435643Y-87910500D01*
X139435645Y-87910500D01*
X139515755Y-87910500D01*
X139515757Y-87910500D01*
X139537560Y-87900000D01*
X139587933Y-87875742D01*
X139587933Y-87875741D01*
X139587936Y-87875740D01*
X139612192Y-87845323D01*
X139645014Y-87827184D01*
X139681051Y-87837566D01*
X139699192Y-87870390D01*
X139699500Y-87875876D01*
X139699500Y-89124123D01*
X139685148Y-89158771D01*
X139650500Y-89173123D01*
X139615852Y-89158771D01*
X139612191Y-89154675D01*
X139600749Y-89140327D01*
X139587936Y-89124260D01*
X139587935Y-89124259D01*
X139587933Y-89124257D01*
X139515761Y-89089501D01*
X139515758Y-89089500D01*
X139515757Y-89089500D01*
X139435643Y-89089500D01*
X139435642Y-89089500D01*
X139435638Y-89089501D01*
X139363466Y-89124258D01*
X139363464Y-89124259D01*
X139313516Y-89186890D01*
X139313512Y-89186897D01*
X139295687Y-89264998D01*
X139295687Y-89265001D01*
X139313512Y-89343102D01*
X139313516Y-89343109D01*
X139363464Y-89405740D01*
X139363466Y-89405741D01*
X139435638Y-89440498D01*
X139435640Y-89440498D01*
X139435643Y-89440500D01*
X139435645Y-89440500D01*
X139515755Y-89440500D01*
X139515757Y-89440500D01*
X139587936Y-89405740D01*
X139637886Y-89343105D01*
X139655713Y-89265000D01*
X139650424Y-89241828D01*
X139650249Y-89241059D01*
X139656531Y-89204085D01*
X139687116Y-89182384D01*
X139724090Y-89188666D01*
X139732667Y-89195506D01*
X139744703Y-89207543D01*
X139778983Y-89241824D01*
X139778989Y-89241828D01*
X140093013Y-89555852D01*
X140107365Y-89590500D01*
X140093013Y-89625148D01*
X140058365Y-89639500D01*
X139314171Y-89639500D01*
X139301994Y-89646531D01*
X139290178Y-89651425D01*
X139276598Y-89655063D01*
X139276597Y-89655064D01*
X139219565Y-89712095D01*
X139135930Y-89795730D01*
X139108800Y-89806967D01*
X139109233Y-89809141D01*
X139104500Y-89810082D01*
X139048449Y-89821231D01*
X139016513Y-89827583D01*
X138941922Y-89877422D01*
X138892083Y-89952013D01*
X138892081Y-89952018D01*
X138886504Y-89980059D01*
X138865669Y-90011242D01*
X138838446Y-90019500D01*
X137977526Y-90019500D01*
X137942878Y-90005148D01*
X137936784Y-89997723D01*
X137920213Y-89972922D01*
X137845622Y-89923083D01*
X137757636Y-89905582D01*
X137669649Y-89923083D01*
X137595058Y-89972922D01*
X137578488Y-89997723D01*
X137547306Y-90018558D01*
X137537746Y-90019500D01*
X137289671Y-90019500D01*
X137277494Y-90026531D01*
X137265678Y-90031425D01*
X137252098Y-90035063D01*
X137252097Y-90035064D01*
X137252095Y-90035065D01*
X137252096Y-90035065D01*
X137195065Y-90092095D01*
X137195064Y-90092096D01*
X136977161Y-90310000D01*
X136772013Y-90515148D01*
X136737365Y-90529500D01*
X135229671Y-90529500D01*
X135217494Y-90536531D01*
X135205678Y-90541425D01*
X135192098Y-90545063D01*
X135192096Y-90545065D01*
X135137928Y-90599231D01*
X135103282Y-90613582D01*
X134799000Y-90613582D01*
X134764352Y-90599230D01*
X134750000Y-90564582D01*
X134750000Y-89757778D01*
X134750436Y-89752798D01*
X134750313Y-89752788D01*
X134750498Y-89750661D01*
X134750500Y-89750656D01*
X134750500Y-89650000D01*
X134750500Y-89615649D01*
X134750500Y-88500801D01*
X134750526Y-88500000D01*
X135244843Y-88500000D01*
X135265431Y-88735323D01*
X135265432Y-88735329D01*
X135326566Y-88963483D01*
X135326568Y-88963488D01*
X135426398Y-89177577D01*
X135426405Y-89177589D01*
X135561885Y-89371072D01*
X135561891Y-89371079D01*
X135602979Y-89412167D01*
X136135233Y-88879912D01*
X136172075Y-88927925D01*
X136220086Y-88964765D01*
X135687832Y-89497019D01*
X135728927Y-89538114D01*
X135922410Y-89673594D01*
X135922422Y-89673601D01*
X136136511Y-89773431D01*
X136136516Y-89773433D01*
X136364670Y-89834567D01*
X136364676Y-89834568D01*
X136600000Y-89855156D01*
X136835323Y-89834568D01*
X136835329Y-89834567D01*
X137063483Y-89773433D01*
X137063488Y-89773431D01*
X137277577Y-89673601D01*
X137277589Y-89673594D01*
X137471076Y-89538111D01*
X137512167Y-89497019D01*
X136979913Y-88964765D01*
X137027925Y-88927925D01*
X137064765Y-88879913D01*
X137597019Y-89412167D01*
X137597020Y-89412167D01*
X137638111Y-89371076D01*
X137773594Y-89177589D01*
X137773601Y-89177577D01*
X137873431Y-88963488D01*
X137873433Y-88963483D01*
X137934567Y-88735329D01*
X137934568Y-88735323D01*
X137955156Y-88500000D01*
X137934568Y-88264676D01*
X137934567Y-88264670D01*
X137873433Y-88036516D01*
X137873432Y-88036511D01*
X137773601Y-87822423D01*
X137773594Y-87822411D01*
X137638114Y-87628927D01*
X137638108Y-87628920D01*
X137597020Y-87587832D01*
X137064765Y-88120086D01*
X137027925Y-88072075D01*
X136979911Y-88035233D01*
X137512167Y-87502979D01*
X137471079Y-87461891D01*
X137471072Y-87461885D01*
X137277589Y-87326405D01*
X137277577Y-87326398D01*
X137063488Y-87226568D01*
X137063483Y-87226566D01*
X136835329Y-87165432D01*
X136835323Y-87165431D01*
X136599999Y-87144843D01*
X136364676Y-87165431D01*
X136364670Y-87165432D01*
X136136516Y-87226566D01*
X136136511Y-87226567D01*
X135922423Y-87326398D01*
X135922411Y-87326405D01*
X135728927Y-87461885D01*
X135728926Y-87461886D01*
X135687832Y-87502979D01*
X136220087Y-88035234D01*
X136172075Y-88072075D01*
X136135234Y-88120086D01*
X135602979Y-87587832D01*
X135561886Y-87628926D01*
X135561885Y-87628927D01*
X135426405Y-87822411D01*
X135426398Y-87822423D01*
X135326567Y-88036511D01*
X135326566Y-88036516D01*
X135265432Y-88264670D01*
X135265431Y-88264676D01*
X135244843Y-88500000D01*
X134750526Y-88500000D01*
X134750551Y-88499215D01*
X134766218Y-88260190D01*
X134766637Y-88257011D01*
X134813210Y-88022870D01*
X134814034Y-88019799D01*
X134890771Y-87793741D01*
X134891997Y-87790783D01*
X134997580Y-87576679D01*
X134999172Y-87573923D01*
X135131807Y-87375421D01*
X135133745Y-87372896D01*
X135291158Y-87193400D01*
X135293400Y-87191158D01*
X135472896Y-87033745D01*
X135475421Y-87031807D01*
X135673923Y-86899172D01*
X135676679Y-86897580D01*
X135890784Y-86791996D01*
X135893741Y-86790771D01*
X136119802Y-86714032D01*
X136122870Y-86713210D01*
X136357018Y-86666636D01*
X136360190Y-86666218D01*
X136599215Y-86650551D01*
X136600801Y-86650500D01*
X142633766Y-86650500D01*
X142633767Y-86650500D01*
X142708434Y-86635648D01*
X142791442Y-86619137D01*
X142828224Y-86626453D01*
X142834880Y-86636416D01*
X142835649Y-86635648D01*
X142850001Y-86650000D01*
X144450001Y-86650000D01*
X144450001Y-86628223D01*
X144464353Y-86593575D01*
X144499001Y-86579223D01*
X144517752Y-86582952D01*
G37*
%TD.AperFunction*%
%TA.AperFunction,Conductor*%
G36*
X148384148Y-96559303D02*
G01*
X148387421Y-96562576D01*
X148412855Y-96579570D01*
X148462014Y-96612417D01*
X148550000Y-96629918D01*
X148550001Y-96629917D01*
X148554734Y-96630859D01*
X148554301Y-96633032D01*
X148581430Y-96644270D01*
X148715065Y-96777904D01*
X148772096Y-96834935D01*
X148785678Y-96838573D01*
X148797491Y-96843466D01*
X148809673Y-96850500D01*
X148890326Y-96850501D01*
X148890328Y-96850500D01*
X149177365Y-96850500D01*
X149212013Y-96864852D01*
X149375148Y-97027987D01*
X149389500Y-97062635D01*
X149389500Y-97657364D01*
X149375148Y-97692012D01*
X149061763Y-98005398D01*
X149027115Y-98019750D01*
X147002385Y-98019750D01*
X146967737Y-98005398D01*
X146486580Y-97524241D01*
X146001909Y-97039570D01*
X145994656Y-97032317D01*
X145987405Y-97025065D01*
X145987402Y-97025063D01*
X145973822Y-97021425D01*
X145962005Y-97016531D01*
X145949827Y-97009500D01*
X145949824Y-97009499D01*
X145863473Y-97009499D01*
X145863465Y-97009500D01*
X145019671Y-97009500D01*
X145007494Y-97016531D01*
X144995678Y-97021425D01*
X144982098Y-97025063D01*
X144982095Y-97025065D01*
X144981431Y-97025730D01*
X144979710Y-97026442D01*
X144976511Y-97028290D01*
X144976267Y-97027868D01*
X144954300Y-97036967D01*
X144954733Y-97039141D01*
X144950000Y-97040082D01*
X144891565Y-97051704D01*
X144862013Y-97057583D01*
X144787421Y-97107423D01*
X144769786Y-97133816D01*
X144738603Y-97154651D01*
X144701821Y-97147333D01*
X144681274Y-97117496D01*
X144676686Y-97097393D01*
X144676684Y-97097391D01*
X144676683Y-97097388D01*
X144628860Y-97037422D01*
X144626736Y-97034758D01*
X144626735Y-97034757D01*
X144626733Y-97034756D01*
X144554561Y-96999999D01*
X144554558Y-96999998D01*
X144554557Y-96999998D01*
X144474443Y-96999998D01*
X144474442Y-96999998D01*
X144432466Y-97020213D01*
X144395022Y-97022315D01*
X144367058Y-96997325D01*
X144364956Y-96959881D01*
X144370462Y-96948845D01*
X144405606Y-96896249D01*
X144420784Y-96819940D01*
X144441620Y-96788758D01*
X144468843Y-96780500D01*
X145947365Y-96780500D01*
X145982013Y-96794852D01*
X146765065Y-97577904D01*
X146822096Y-97634935D01*
X146835678Y-97638573D01*
X146847491Y-97643466D01*
X146859673Y-97650500D01*
X146940326Y-97650501D01*
X146940328Y-97650500D01*
X147809673Y-97650500D01*
X147890327Y-97650500D01*
X147902501Y-97643469D01*
X147914319Y-97638574D01*
X147927904Y-97634935D01*
X147984935Y-97577905D01*
X147984935Y-97577903D01*
X147991824Y-97571015D01*
X147991826Y-97571011D01*
X148270430Y-97292409D01*
X148270430Y-97292408D01*
X148277322Y-97285517D01*
X148277322Y-97285516D01*
X148284935Y-97277904D01*
X148288573Y-97264323D01*
X148293470Y-97252501D01*
X148300500Y-97240327D01*
X148300500Y-97204463D01*
X148300501Y-97159674D01*
X148300500Y-97159672D01*
X148300500Y-96593950D01*
X148314852Y-96559303D01*
X148349500Y-96544951D01*
X148384148Y-96559303D01*
G37*
%TD.AperFunction*%
%TA.AperFunction,Conductor*%
G36*
X137250807Y-92894357D02*
G01*
X137603250Y-93246800D01*
X137612748Y-93260185D01*
X137614211Y-93263223D01*
X137614212Y-93263224D01*
X137640109Y-93283877D01*
X137642159Y-93285709D01*
X137649198Y-93292748D01*
X137657641Y-93298053D01*
X137659867Y-93299632D01*
X137668601Y-93306598D01*
X137683613Y-93318571D01*
X137685769Y-93320290D01*
X137687641Y-93320717D01*
X137689054Y-93321040D01*
X137704218Y-93327321D01*
X137711568Y-93331939D01*
X137733271Y-93362524D01*
X137734500Y-93373429D01*
X137734500Y-94339754D01*
X137723808Y-94370308D01*
X137715468Y-94380763D01*
X137713638Y-94382811D01*
X137706609Y-94389839D01*
X137706601Y-94389850D01*
X137701307Y-94398274D01*
X137699718Y-94400513D01*
X137679062Y-94426417D01*
X137679060Y-94426420D01*
X137678309Y-94429711D01*
X137672032Y-94444863D01*
X137670235Y-94447722D01*
X137670234Y-94447724D01*
X137666525Y-94480643D01*
X137666065Y-94483350D01*
X137663851Y-94493056D01*
X137663851Y-94503017D01*
X137663697Y-94505761D01*
X137659988Y-94538676D01*
X137661100Y-94541851D01*
X137663851Y-94558037D01*
X137663851Y-96898266D01*
X137655593Y-96925487D01*
X137646115Y-96939674D01*
X137628384Y-96966210D01*
X137608943Y-97063947D01*
X137608943Y-97063950D01*
X137628384Y-97161688D01*
X137683749Y-97244550D01*
X137766611Y-97299915D01*
X137864349Y-97319357D01*
X137864351Y-97319357D01*
X137864353Y-97319357D01*
X137929510Y-97306395D01*
X137962091Y-97299915D01*
X138044952Y-97244550D01*
X138100317Y-97161689D01*
X138111584Y-97105049D01*
X138119759Y-97063950D01*
X138119759Y-97063947D01*
X138100718Y-96968224D01*
X138100317Y-96966209D01*
X138073108Y-96925487D01*
X138064851Y-96898266D01*
X138064851Y-94620893D01*
X138075538Y-94590345D01*
X138083888Y-94579874D01*
X138085694Y-94577854D01*
X138092749Y-94570801D01*
X138098051Y-94562361D01*
X138099632Y-94560134D01*
X138120290Y-94534231D01*
X138121038Y-94530948D01*
X138127323Y-94515775D01*
X138129116Y-94512924D01*
X138132826Y-94479983D01*
X138133283Y-94477298D01*
X138135500Y-94467590D01*
X138135500Y-94457638D01*
X138135654Y-94454893D01*
X138139363Y-94421973D01*
X138138250Y-94418793D01*
X138135500Y-94402609D01*
X138135500Y-93314561D01*
X138149852Y-93279913D01*
X138184500Y-93265561D01*
X138219148Y-93279913D01*
X138222805Y-93284005D01*
X138229775Y-93292745D01*
X138238810Y-93304075D01*
X138249500Y-93334625D01*
X138249500Y-95559282D01*
X138241242Y-95586505D01*
X138224033Y-95612259D01*
X138204592Y-95709998D01*
X138204592Y-95710001D01*
X138224033Y-95807739D01*
X138279398Y-95890601D01*
X138362260Y-95945966D01*
X138459998Y-95965408D01*
X138460000Y-95965408D01*
X138460002Y-95965408D01*
X138525354Y-95952408D01*
X138557740Y-95945966D01*
X138640601Y-95890601D01*
X138695966Y-95807740D01*
X138707451Y-95750000D01*
X138715408Y-95710001D01*
X138715408Y-95709998D01*
X138695966Y-95612260D01*
X138658758Y-95556572D01*
X138650500Y-95529350D01*
X138650500Y-93481634D01*
X138664852Y-93446986D01*
X138699500Y-93432634D01*
X138734146Y-93446985D01*
X139014955Y-93727794D01*
X139275148Y-93987987D01*
X139289500Y-94022635D01*
X139289500Y-96627364D01*
X139275148Y-96662012D01*
X139031430Y-96905730D01*
X139004300Y-96916967D01*
X139004733Y-96919141D01*
X139000000Y-96920082D01*
X138943592Y-96931302D01*
X138912013Y-96937583D01*
X138837422Y-96987422D01*
X138787583Y-97062013D01*
X138770938Y-97145698D01*
X138770082Y-97150000D01*
X138772822Y-97163774D01*
X138787583Y-97237986D01*
X138837422Y-97312577D01*
X138878466Y-97340001D01*
X138912014Y-97362417D01*
X139000000Y-97379918D01*
X139000001Y-97379917D01*
X139000002Y-97379918D01*
X139000003Y-97379918D01*
X139074422Y-97365115D01*
X139111204Y-97372431D01*
X139132039Y-97403614D01*
X139124723Y-97440396D01*
X139118629Y-97447821D01*
X138881303Y-97685148D01*
X138846655Y-97699500D01*
X136713443Y-97699500D01*
X136678795Y-97685148D01*
X136664443Y-97650500D01*
X136678795Y-97615852D01*
X136686220Y-97609758D01*
X136690194Y-97607102D01*
X136714310Y-97571008D01*
X136745558Y-97524242D01*
X136757304Y-97465191D01*
X136765000Y-97426503D01*
X136765000Y-97426500D01*
X136751371Y-97357986D01*
X136745558Y-97328762D01*
X136718349Y-97288040D01*
X136710092Y-97260819D01*
X136710092Y-94354545D01*
X136720780Y-94323997D01*
X136727282Y-94315843D01*
X136727975Y-94314973D01*
X136729796Y-94312936D01*
X136736843Y-94305891D01*
X136742145Y-94297451D01*
X136743726Y-94295224D01*
X136764384Y-94269321D01*
X136765132Y-94266038D01*
X136771417Y-94250865D01*
X136773210Y-94248014D01*
X136776922Y-94215065D01*
X136777377Y-94212388D01*
X136779594Y-94202680D01*
X136779594Y-94192728D01*
X136779748Y-94189983D01*
X136780019Y-94187583D01*
X136783457Y-94157064D01*
X136782344Y-94153883D01*
X136779594Y-94137699D01*
X136779594Y-93184776D01*
X136787851Y-93157554D01*
X136815060Y-93116834D01*
X136816047Y-93111867D01*
X136836879Y-93080684D01*
X136873660Y-93073364D01*
X136873666Y-93073365D01*
X136930625Y-93084695D01*
X136930627Y-93084695D01*
X136930629Y-93084695D01*
X136998751Y-93071144D01*
X137028367Y-93065253D01*
X137111228Y-93009888D01*
X137166593Y-92927027D01*
X137168100Y-92919446D01*
X137188934Y-92888264D01*
X137225716Y-92880946D01*
X137250807Y-92894357D01*
G37*
%TD.AperFunction*%
%TA.AperFunction,Conductor*%
G36*
X143853013Y-96384852D02*
G01*
X143867365Y-96419500D01*
X143853013Y-96454148D01*
X143717840Y-96589321D01*
X143683192Y-96603673D01*
X143655498Y-96603673D01*
X143643321Y-96610704D01*
X143631505Y-96615598D01*
X143617925Y-96619236D01*
X143617924Y-96619237D01*
X143617922Y-96619238D01*
X143617923Y-96619238D01*
X143560892Y-96676268D01*
X143560891Y-96676269D01*
X143125147Y-97112014D01*
X142697013Y-97540148D01*
X142662365Y-97554500D01*
X142186536Y-97554500D01*
X142151888Y-97540148D01*
X142137536Y-97505500D01*
X142151888Y-97470852D01*
X142159314Y-97464757D01*
X142162577Y-97462577D01*
X142212417Y-97387986D01*
X142229918Y-97300000D01*
X142212417Y-97212014D01*
X142208438Y-97206060D01*
X142201124Y-97169278D01*
X142221960Y-97138096D01*
X142250923Y-97132336D01*
X142250923Y-97130237D01*
X142336556Y-97130237D01*
X142336558Y-97130237D01*
X142408737Y-97095477D01*
X142455035Y-97037422D01*
X142458684Y-97032846D01*
X142458684Y-97032845D01*
X142458687Y-97032842D01*
X142459823Y-97027868D01*
X142476514Y-96954738D01*
X142476514Y-96954735D01*
X142458688Y-96876634D01*
X142458684Y-96876627D01*
X142408736Y-96813996D01*
X142408734Y-96813995D01*
X142356099Y-96788647D01*
X142331109Y-96760684D01*
X142333212Y-96723240D01*
X142361175Y-96698250D01*
X142377359Y-96695500D01*
X143165328Y-96695500D01*
X143177502Y-96688469D01*
X143189320Y-96683574D01*
X143202905Y-96679935D01*
X143259936Y-96622905D01*
X143259936Y-96622903D01*
X143266825Y-96616015D01*
X143266827Y-96616011D01*
X143497987Y-96384852D01*
X143532636Y-96370500D01*
X143818365Y-96370500D01*
X143853013Y-96384852D01*
G37*
%TD.AperFunction*%
%TA.AperFunction,Conductor*%
G36*
X148253013Y-95914852D02*
G01*
X148267365Y-95949500D01*
X148253013Y-95984147D01*
X148223996Y-96013164D01*
X148215065Y-96022095D01*
X148015066Y-96222093D01*
X148015064Y-96222097D01*
X148011425Y-96235678D01*
X148006531Y-96247494D01*
X147999500Y-96259671D01*
X147999499Y-96259674D01*
X147999499Y-96350069D01*
X147999500Y-96350074D01*
X147999500Y-97117364D01*
X147985148Y-97152012D01*
X147802013Y-97335148D01*
X147767365Y-97349500D01*
X146982635Y-97349500D01*
X146947987Y-97335148D01*
X146535754Y-96922915D01*
X146122409Y-96509570D01*
X146115156Y-96502317D01*
X146107905Y-96495065D01*
X146107902Y-96495063D01*
X146094322Y-96491425D01*
X146082505Y-96486531D01*
X146070327Y-96479500D01*
X146070324Y-96479499D01*
X145983973Y-96479499D01*
X145983965Y-96479500D01*
X145198456Y-96479500D01*
X145163808Y-96465148D01*
X145149456Y-96430500D01*
X145157714Y-96403278D01*
X145176335Y-96375408D01*
X145182594Y-96366041D01*
X145200095Y-96278055D01*
X145186371Y-96209058D01*
X145193688Y-96172277D01*
X145224871Y-96151441D01*
X145234430Y-96150500D01*
X145263429Y-96150500D01*
X145298077Y-96164852D01*
X145304168Y-96172273D01*
X145327423Y-96207077D01*
X145402014Y-96256917D01*
X145490000Y-96274418D01*
X145577986Y-96256917D01*
X145652577Y-96207077D01*
X145702417Y-96132486D01*
X145719918Y-96044500D01*
X145719917Y-96044496D01*
X145719947Y-96044347D01*
X145740782Y-96013164D01*
X145777565Y-96005847D01*
X145802654Y-96019258D01*
X145853910Y-96070515D01*
X145906116Y-96122721D01*
X145906122Y-96122726D01*
X145917829Y-96134434D01*
X145917830Y-96134434D01*
X145917831Y-96134435D01*
X145921399Y-96135390D01*
X145931410Y-96138074D01*
X145943229Y-96142969D01*
X145955405Y-96149999D01*
X145955407Y-96150000D01*
X147740827Y-96150000D01*
X147753001Y-96142969D01*
X147764819Y-96138074D01*
X147778404Y-96134435D01*
X147835435Y-96077405D01*
X147835435Y-96077403D01*
X147842324Y-96070515D01*
X147842326Y-96070511D01*
X147997986Y-95914852D01*
X148032635Y-95900500D01*
X148218365Y-95900500D01*
X148253013Y-95914852D01*
G37*
%TD.AperFunction*%
%TA.AperFunction,Conductor*%
G36*
X141063693Y-90834783D02*
G01*
X141069975Y-90849949D01*
X141087812Y-90928102D01*
X141087816Y-90928109D01*
X141137764Y-90990740D01*
X141137766Y-90990741D01*
X141209938Y-91025498D01*
X141209940Y-91025498D01*
X141209943Y-91025500D01*
X141209945Y-91025500D01*
X141290055Y-91025500D01*
X141290057Y-91025500D01*
X141362236Y-90990740D01*
X141412186Y-90928105D01*
X141420377Y-90892217D01*
X141442078Y-90861633D01*
X141467634Y-90855800D01*
X141467542Y-90854980D01*
X141473025Y-90854362D01*
X141473025Y-90854361D01*
X141473026Y-90854362D01*
X141476203Y-90853250D01*
X141492389Y-90850500D01*
X142410500Y-90850500D01*
X142445148Y-90864852D01*
X142459500Y-90899500D01*
X142459500Y-90928152D01*
X142451242Y-90955374D01*
X142426994Y-90991664D01*
X142407553Y-91089402D01*
X142407553Y-91089405D01*
X142427750Y-91190940D01*
X142420434Y-91227723D01*
X142389252Y-91248558D01*
X142379692Y-91249500D01*
X142359671Y-91249500D01*
X142347494Y-91256531D01*
X142335678Y-91261425D01*
X142322098Y-91265063D01*
X142322097Y-91265064D01*
X142265065Y-91322095D01*
X142265064Y-91322096D01*
X141922096Y-91665065D01*
X141865064Y-91722096D01*
X141865064Y-91722097D01*
X141861425Y-91735678D01*
X141856531Y-91747494D01*
X141849500Y-91759671D01*
X141849499Y-91759674D01*
X141849499Y-91850069D01*
X141849500Y-91850074D01*
X141849500Y-92617363D01*
X141835148Y-92652011D01*
X140631430Y-93855730D01*
X140604300Y-93866967D01*
X140604733Y-93869141D01*
X140600000Y-93870082D01*
X140541565Y-93881704D01*
X140512013Y-93887583D01*
X140437422Y-93937422D01*
X140387583Y-94012013D01*
X140370082Y-94100000D01*
X140387583Y-94187986D01*
X140437422Y-94262577D01*
X140481428Y-94291980D01*
X140512014Y-94312417D01*
X140600000Y-94329918D01*
X140687986Y-94312417D01*
X140762577Y-94262577D01*
X140812417Y-94187986D01*
X140829918Y-94100000D01*
X140829917Y-94099998D01*
X140830859Y-94095267D01*
X140833031Y-94095699D01*
X140844270Y-94068568D01*
X141474268Y-93438571D01*
X142120430Y-92792409D01*
X142134935Y-92777904D01*
X142138574Y-92764319D01*
X142143471Y-92752499D01*
X142144778Y-92750237D01*
X142150500Y-92740327D01*
X142150501Y-92659674D01*
X142150500Y-92659672D01*
X142150500Y-92414626D01*
X142164852Y-92379978D01*
X142199500Y-92365626D01*
X142234148Y-92379978D01*
X142237750Y-92384008D01*
X142237763Y-92384017D01*
X142237764Y-92384019D01*
X142237765Y-92384019D01*
X142237766Y-92384020D01*
X142309938Y-92418777D01*
X142309940Y-92418777D01*
X142309943Y-92418779D01*
X142309945Y-92418779D01*
X142390055Y-92418779D01*
X142390057Y-92418779D01*
X142462236Y-92384019D01*
X142511200Y-92322620D01*
X142512183Y-92321388D01*
X142512183Y-92321387D01*
X142512186Y-92321384D01*
X142516879Y-92300826D01*
X142530013Y-92243280D01*
X142530013Y-92243276D01*
X142523372Y-92214180D01*
X142529654Y-92177207D01*
X142560240Y-92155506D01*
X142597213Y-92161788D01*
X142605786Y-92168625D01*
X142790964Y-92353802D01*
X142878653Y-92441491D01*
X142893005Y-92476139D01*
X142878653Y-92510787D01*
X142844005Y-92525139D01*
X142834446Y-92524198D01*
X142793180Y-92515990D01*
X142705193Y-92533491D01*
X142630602Y-92583330D01*
X142580763Y-92657921D01*
X142568300Y-92720582D01*
X142563262Y-92745908D01*
X142564123Y-92750237D01*
X142580763Y-92833895D01*
X142627516Y-92903867D01*
X142634832Y-92940649D01*
X142621422Y-92965737D01*
X142572012Y-93015148D01*
X142537366Y-93029500D01*
X142329671Y-93029500D01*
X142317494Y-93036531D01*
X142305678Y-93041425D01*
X142292098Y-93045063D01*
X142292097Y-93045064D01*
X142235065Y-93102095D01*
X142235064Y-93102096D01*
X141422096Y-93915065D01*
X141365064Y-93972096D01*
X141365064Y-93972097D01*
X141361425Y-93985678D01*
X141356531Y-93997494D01*
X141349500Y-94009671D01*
X141349499Y-94009674D01*
X141349499Y-94100069D01*
X141349500Y-94100074D01*
X141349500Y-95028548D01*
X141338262Y-95055678D01*
X141340104Y-95056909D01*
X141337423Y-95060920D01*
X141337423Y-95060921D01*
X141326075Y-95077905D01*
X141287583Y-95135512D01*
X141270082Y-95223498D01*
X141287583Y-95311484D01*
X141340104Y-95390088D01*
X141338262Y-95391318D01*
X141349500Y-95418449D01*
X141349500Y-95777364D01*
X141335148Y-95812012D01*
X140309346Y-96837813D01*
X140284258Y-96851223D01*
X140202015Y-96867582D01*
X140126723Y-96917890D01*
X140089940Y-96925206D01*
X140058758Y-96904371D01*
X140050500Y-96877148D01*
X140050500Y-94053345D01*
X140064852Y-94018697D01*
X140282550Y-93800999D01*
X140511801Y-93571747D01*
X140525192Y-93562248D01*
X140528222Y-93560789D01*
X140528222Y-93560788D01*
X140528224Y-93560788D01*
X140548888Y-93534875D01*
X140550694Y-93532854D01*
X140557748Y-93525802D01*
X140563048Y-93517363D01*
X140564626Y-93515139D01*
X140585290Y-93489231D01*
X140586039Y-93485947D01*
X140592326Y-93470770D01*
X140594115Y-93467924D01*
X140597824Y-93434994D01*
X140598278Y-93432320D01*
X140600500Y-93422590D01*
X140600500Y-93412629D01*
X140600654Y-93409884D01*
X140601462Y-93402717D01*
X140604362Y-93376974D01*
X140604274Y-93376723D01*
X140603249Y-93373791D01*
X140600500Y-93357610D01*
X140600500Y-93202689D01*
X140614852Y-93168041D01*
X140622271Y-93161951D01*
X140654660Y-93140311D01*
X140710025Y-93057450D01*
X140729467Y-92959710D01*
X140727635Y-92950501D01*
X140713530Y-92879592D01*
X140710025Y-92861970D01*
X140682816Y-92821248D01*
X140674559Y-92794027D01*
X140674559Y-91037864D01*
X140688911Y-91003216D01*
X140723559Y-90988864D01*
X140744819Y-90993716D01*
X140759943Y-91001000D01*
X140759945Y-91001000D01*
X140840055Y-91001000D01*
X140840057Y-91001000D01*
X140912236Y-90966240D01*
X140961022Y-90905065D01*
X140962183Y-90903609D01*
X140962183Y-90903608D01*
X140962186Y-90903605D01*
X140962490Y-90902272D01*
X140974433Y-90849950D01*
X140996134Y-90819364D01*
X141033107Y-90813082D01*
X141063693Y-90834783D01*
G37*
%TD.AperFunction*%
%TA.AperFunction,Conductor*%
G36*
X149062180Y-95461737D02*
G01*
X149063411Y-95459896D01*
X149067422Y-95462576D01*
X149067423Y-95462577D01*
X149084871Y-95474235D01*
X149105706Y-95505417D01*
X149098390Y-95542200D01*
X149084871Y-95555719D01*
X149079539Y-95559282D01*
X149037425Y-95587422D01*
X149033411Y-95590104D01*
X149032180Y-95588262D01*
X149005050Y-95599500D01*
X147909671Y-95599500D01*
X147897494Y-95606531D01*
X147885678Y-95611425D01*
X147872098Y-95615063D01*
X147872097Y-95615064D01*
X147872095Y-95615065D01*
X147872096Y-95615065D01*
X147815065Y-95672095D01*
X147815064Y-95672096D01*
X147726848Y-95760313D01*
X147652513Y-95834648D01*
X147617865Y-95849000D01*
X146078370Y-95849000D01*
X146043722Y-95834648D01*
X145959074Y-95750000D01*
X145858145Y-95649070D01*
X145850892Y-95641817D01*
X145843641Y-95634565D01*
X145843638Y-95634563D01*
X145830058Y-95630925D01*
X145818241Y-95626031D01*
X145806063Y-95619000D01*
X145806060Y-95618999D01*
X145719709Y-95618999D01*
X145719701Y-95619000D01*
X144629671Y-95619000D01*
X144617494Y-95626031D01*
X144605678Y-95630925D01*
X144592098Y-95634563D01*
X144592095Y-95634565D01*
X144592096Y-95634565D01*
X144561510Y-95665149D01*
X144526864Y-95679500D01*
X144511900Y-95679500D01*
X144477252Y-95665148D01*
X144462900Y-95630500D01*
X144464128Y-95619597D01*
X144468715Y-95599500D01*
X144480013Y-95550000D01*
X144470975Y-95510402D01*
X144477258Y-95473430D01*
X144507844Y-95451728D01*
X144518747Y-95450500D01*
X145870186Y-95450500D01*
X147930186Y-95450500D01*
X149035050Y-95450500D01*
X149062180Y-95461737D01*
G37*
%TD.AperFunction*%
%TA.AperFunction,Conductor*%
G36*
X148482013Y-94844852D02*
G01*
X148703013Y-95065852D01*
X148717365Y-95100500D01*
X148703013Y-95135148D01*
X148668365Y-95149500D01*
X147931634Y-95149500D01*
X147896986Y-95135148D01*
X147882634Y-95100500D01*
X147896986Y-95065852D01*
X147977512Y-94985327D01*
X148117986Y-94844852D01*
X148152635Y-94830500D01*
X148447365Y-94830500D01*
X148482013Y-94844852D01*
G37*
%TD.AperFunction*%
%TA.AperFunction,Conductor*%
G36*
X144379928Y-94151001D02*
G01*
X144379930Y-94151000D01*
X145692865Y-94151000D01*
X145727513Y-94165352D01*
X146343422Y-94781261D01*
X146357774Y-94815909D01*
X146343422Y-94850557D01*
X146308774Y-94864909D01*
X146296092Y-94863239D01*
X146289322Y-94861425D01*
X146277505Y-94856531D01*
X146265327Y-94849500D01*
X146265324Y-94849499D01*
X146178973Y-94849499D01*
X146178965Y-94849500D01*
X145809888Y-94849500D01*
X145775240Y-94835148D01*
X145760888Y-94800500D01*
X145761829Y-94790941D01*
X145763229Y-94783902D01*
X145779918Y-94700000D01*
X145762417Y-94612014D01*
X145743377Y-94583519D01*
X145712577Y-94537422D01*
X145637986Y-94487583D01*
X145550000Y-94470082D01*
X145549998Y-94470082D01*
X145545267Y-94469141D01*
X145545699Y-94466967D01*
X145518569Y-94455730D01*
X145495473Y-94432634D01*
X145467409Y-94404570D01*
X145457339Y-94394500D01*
X145452905Y-94390065D01*
X145452902Y-94390063D01*
X145439322Y-94386425D01*
X145427505Y-94381531D01*
X145415327Y-94374500D01*
X145415324Y-94374499D01*
X145328973Y-94374499D01*
X145328965Y-94374500D01*
X144263041Y-94374500D01*
X144228393Y-94360148D01*
X144214041Y-94325500D01*
X144215269Y-94314597D01*
X144215427Y-94313906D01*
X144230013Y-94250000D01*
X144227142Y-94237423D01*
X144222065Y-94215179D01*
X144228346Y-94178206D01*
X144258932Y-94156504D01*
X144260276Y-94156217D01*
X144264549Y-94155366D01*
X144264551Y-94155367D01*
X144282626Y-94151771D01*
X144292821Y-94152109D01*
X144292822Y-94151000D01*
X144299275Y-94151000D01*
X144379928Y-94151001D01*
G37*
%TD.AperFunction*%
%TA.AperFunction,Conductor*%
G36*
X147953012Y-94014852D02*
G01*
X147967364Y-94049500D01*
X147953011Y-94084148D01*
X147677013Y-94360148D01*
X147402013Y-94635148D01*
X147367365Y-94649500D01*
X146657635Y-94649500D01*
X146622987Y-94635148D01*
X146416987Y-94429148D01*
X146402635Y-94394500D01*
X146416987Y-94359852D01*
X146451635Y-94345500D01*
X147295327Y-94345500D01*
X147307501Y-94338469D01*
X147319319Y-94333574D01*
X147332904Y-94329935D01*
X147389935Y-94272905D01*
X147389935Y-94272903D01*
X147396824Y-94266015D01*
X147396826Y-94266011D01*
X147647986Y-94014852D01*
X147682635Y-94000500D01*
X147918364Y-94000500D01*
X147953012Y-94014852D01*
G37*
%TD.AperFunction*%
%TA.AperFunction,Conductor*%
G36*
X149560148Y-93424852D02*
G01*
X149574500Y-93459500D01*
X149574500Y-93542364D01*
X149560150Y-93577010D01*
X149552015Y-93585146D01*
X149517368Y-93599500D01*
X149444452Y-93599500D01*
X149417321Y-93588262D01*
X149416091Y-93590104D01*
X149412079Y-93587423D01*
X149337488Y-93537583D01*
X149249502Y-93520082D01*
X149161515Y-93537583D01*
X149086924Y-93587422D01*
X149037085Y-93662013D01*
X149019584Y-93750000D01*
X149037085Y-93837986D01*
X149080461Y-93902904D01*
X149086925Y-93912577D01*
X149115896Y-93931935D01*
X149136732Y-93963117D01*
X149129417Y-93999899D01*
X149115898Y-94013418D01*
X149102423Y-94022421D01*
X149052583Y-94097013D01*
X149036867Y-94176028D01*
X149035082Y-94185000D01*
X149050061Y-94260310D01*
X149042745Y-94297091D01*
X149011562Y-94317927D01*
X148974780Y-94310610D01*
X148967355Y-94304516D01*
X148830204Y-94167365D01*
X148692409Y-94029570D01*
X148681536Y-94018697D01*
X148677905Y-94015065D01*
X148677902Y-94015063D01*
X148664322Y-94011425D01*
X148652505Y-94006531D01*
X148640327Y-93999500D01*
X148640324Y-93999499D01*
X148553973Y-93999499D01*
X148553965Y-93999500D01*
X148281634Y-93999500D01*
X148246986Y-93985148D01*
X148232634Y-93950500D01*
X148246986Y-93915852D01*
X148737987Y-93424852D01*
X148772635Y-93410500D01*
X149525500Y-93410500D01*
X149560148Y-93424852D01*
G37*
%TD.AperFunction*%
%TA.AperFunction,Conductor*%
G36*
X143052013Y-91564852D02*
G01*
X144403013Y-92915852D01*
X144417365Y-92950500D01*
X144403013Y-92985148D01*
X144368365Y-92999500D01*
X144209671Y-92999500D01*
X144197494Y-93006531D01*
X144185678Y-93011425D01*
X144172098Y-93015063D01*
X144172097Y-93015064D01*
X144115065Y-93072095D01*
X144015066Y-93172093D01*
X144015064Y-93172097D01*
X144011425Y-93185678D01*
X144006531Y-93197494D01*
X143999500Y-93209671D01*
X143999499Y-93209674D01*
X143999499Y-93300069D01*
X143999500Y-93300074D01*
X143999500Y-93440327D01*
X144006531Y-93452505D01*
X144011425Y-93464322D01*
X144015063Y-93477900D01*
X144015064Y-93477902D01*
X144015065Y-93477904D01*
X144072095Y-93534935D01*
X144078986Y-93541826D01*
X144078989Y-93541828D01*
X144176658Y-93639497D01*
X144175067Y-93641087D01*
X144191784Y-93662873D01*
X144186890Y-93700055D01*
X144171677Y-93716298D01*
X144101973Y-93762871D01*
X144052134Y-93837462D01*
X144037194Y-93912576D01*
X144034633Y-93925449D01*
X144052134Y-94013435D01*
X144052134Y-94013436D01*
X144052633Y-94015941D01*
X144045316Y-94052723D01*
X144015224Y-94072829D01*
X144015325Y-94073272D01*
X144014166Y-94073536D01*
X144014133Y-94073559D01*
X144014017Y-94073570D01*
X144009938Y-94074501D01*
X143937766Y-94109258D01*
X143937764Y-94109259D01*
X143887816Y-94171890D01*
X143885419Y-94176869D01*
X143883674Y-94176028D01*
X143866675Y-94199976D01*
X143829700Y-94206249D01*
X143805967Y-94193128D01*
X143389852Y-93777012D01*
X143375500Y-93742364D01*
X143375500Y-92534674D01*
X143375500Y-92534673D01*
X143368466Y-92522491D01*
X143363573Y-92510678D01*
X143359935Y-92497096D01*
X143302905Y-92440065D01*
X143302903Y-92440064D01*
X143300111Y-92437272D01*
X143300111Y-92437271D01*
X143300108Y-92437269D01*
X142682254Y-91819415D01*
X142668843Y-91794327D01*
X142662417Y-91762014D01*
X142641698Y-91731006D01*
X142612577Y-91687422D01*
X142556102Y-91649688D01*
X142541964Y-91640241D01*
X142521130Y-91609060D01*
X142528446Y-91572277D01*
X142559628Y-91551442D01*
X142569188Y-91550500D01*
X143017365Y-91550500D01*
X143052013Y-91564852D01*
G37*
%TD.AperFunction*%
%TA.AperFunction,Conductor*%
G36*
X149500500Y-92279918D02*
G01*
X149500503Y-92279917D01*
X149500874Y-92279991D01*
X149532057Y-92300826D01*
X149539374Y-92337609D01*
X149525963Y-92362698D01*
X149182432Y-92706230D01*
X149155302Y-92717467D01*
X149155735Y-92719641D01*
X149151002Y-92720582D01*
X149092567Y-92732204D01*
X149063015Y-92738083D01*
X148988424Y-92787922D01*
X148938585Y-92862513D01*
X148921084Y-92950500D01*
X148938585Y-93038487D01*
X148939935Y-93041744D01*
X148939939Y-93079247D01*
X148913423Y-93105768D01*
X148894667Y-93109500D01*
X148649671Y-93109500D01*
X148637494Y-93116531D01*
X148625678Y-93121425D01*
X148612098Y-93125063D01*
X148612097Y-93125064D01*
X148612095Y-93125065D01*
X148612096Y-93125065D01*
X148555065Y-93182095D01*
X148555064Y-93182096D01*
X148296834Y-93440327D01*
X148052013Y-93685148D01*
X148017365Y-93699500D01*
X147559671Y-93699500D01*
X147547494Y-93706531D01*
X147535678Y-93711425D01*
X147522098Y-93715063D01*
X147522097Y-93715064D01*
X147522095Y-93715065D01*
X147522096Y-93715065D01*
X147465065Y-93772095D01*
X147465064Y-93772096D01*
X147334257Y-93902904D01*
X147207013Y-94030148D01*
X147172365Y-94044500D01*
X146577635Y-94044500D01*
X146542987Y-94030148D01*
X146046987Y-93534148D01*
X146032635Y-93499500D01*
X146046987Y-93464852D01*
X146081633Y-93450500D01*
X146110326Y-93450501D01*
X146110328Y-93450500D01*
X147385408Y-93450500D01*
X147466062Y-93450500D01*
X147478236Y-93443469D01*
X147490054Y-93438574D01*
X147503639Y-93434935D01*
X147560670Y-93377905D01*
X147560670Y-93377903D01*
X147567558Y-93371016D01*
X147567560Y-93371012D01*
X147623723Y-93314850D01*
X147658370Y-93300500D01*
X148090327Y-93300500D01*
X148102501Y-93293469D01*
X148114319Y-93288574D01*
X148127904Y-93284935D01*
X148184935Y-93227905D01*
X148184935Y-93227903D01*
X148191824Y-93221015D01*
X148191826Y-93221011D01*
X148488114Y-92924723D01*
X148495524Y-92918641D01*
X148541269Y-92888077D01*
X148591109Y-92813486D01*
X148608610Y-92725500D01*
X148591109Y-92637514D01*
X148584231Y-92627221D01*
X148576917Y-92590439D01*
X148597753Y-92559257D01*
X148624975Y-92551000D01*
X149039827Y-92551000D01*
X149052001Y-92543969D01*
X149063819Y-92539074D01*
X149077404Y-92535435D01*
X149118571Y-92494268D01*
X149145699Y-92483032D01*
X149145267Y-92480859D01*
X149149998Y-92479917D01*
X149150000Y-92479918D01*
X149237986Y-92462417D01*
X149312577Y-92412577D01*
X149362417Y-92337986D01*
X149369223Y-92303764D01*
X149390059Y-92272583D01*
X149426839Y-92265266D01*
X149500500Y-92279918D01*
G37*
%TD.AperFunction*%
%TA.AperFunction,Conductor*%
G36*
X140259207Y-91063237D02*
G01*
X140273559Y-91097885D01*
X140273559Y-92794027D01*
X140265301Y-92821248D01*
X140249306Y-92845186D01*
X140238092Y-92861971D01*
X140235119Y-92876912D01*
X140225374Y-92897896D01*
X140214708Y-92911271D01*
X140210781Y-92928479D01*
X140207159Y-92938830D01*
X140201541Y-92950500D01*
X140199500Y-92954738D01*
X140199500Y-93296653D01*
X140185148Y-93331301D01*
X139738199Y-93778250D01*
X139724816Y-93787747D01*
X139721778Y-93789210D01*
X139721774Y-93789213D01*
X139701118Y-93815114D01*
X139699288Y-93817162D01*
X139692258Y-93824192D01*
X139692250Y-93824201D01*
X139686956Y-93832625D01*
X139685367Y-93834864D01*
X139664707Y-93860772D01*
X139663757Y-93862746D01*
X139661590Y-93864681D01*
X139661269Y-93865085D01*
X139661200Y-93865030D01*
X139635790Y-93887733D01*
X139598347Y-93885626D01*
X139577175Y-93865977D01*
X139574935Y-93862097D01*
X139574935Y-93862096D01*
X139517905Y-93805065D01*
X139517903Y-93805064D01*
X139515111Y-93802272D01*
X139515111Y-93802271D01*
X139515108Y-93802269D01*
X139016386Y-93303547D01*
X139002034Y-93268899D01*
X139016386Y-93234251D01*
X139041470Y-93220842D01*
X139113486Y-93206518D01*
X139188077Y-93156678D01*
X139237917Y-93082087D01*
X139255418Y-92994101D01*
X139237917Y-92906115D01*
X139208758Y-92862475D01*
X139200500Y-92835252D01*
X139200500Y-91572634D01*
X139214851Y-91537987D01*
X139458990Y-91293847D01*
X139493639Y-91279496D01*
X139839323Y-91279496D01*
X139851497Y-91272465D01*
X139863315Y-91267570D01*
X139876900Y-91263931D01*
X139933931Y-91206901D01*
X139933931Y-91206899D01*
X139940819Y-91200012D01*
X139940821Y-91200008D01*
X139995165Y-91145665D01*
X140022295Y-91134428D01*
X140021863Y-91132256D01*
X140026594Y-91131314D01*
X140026596Y-91131315D01*
X140114582Y-91113814D01*
X140189173Y-91063974D01*
X140189173Y-91063973D01*
X140189911Y-91063237D01*
X140190872Y-91062838D01*
X140193186Y-91061293D01*
X140193493Y-91061753D01*
X140224559Y-91048885D01*
X140259207Y-91063237D01*
G37*
%TD.AperFunction*%
%TA.AperFunction,Conductor*%
G36*
X145402013Y-93314852D02*
G01*
X145853513Y-93766351D01*
X145867865Y-93800999D01*
X145853513Y-93835647D01*
X145818865Y-93849999D01*
X145729473Y-93849999D01*
X145729465Y-93850000D01*
X144511536Y-93850000D01*
X144476888Y-93835648D01*
X144470794Y-93828223D01*
X144463403Y-93817162D01*
X144453990Y-93803075D01*
X144446674Y-93766294D01*
X144467510Y-93735111D01*
X144485168Y-93727796D01*
X144562488Y-93712417D01*
X144637079Y-93662577D01*
X144686919Y-93587986D01*
X144704420Y-93500000D01*
X144686919Y-93412014D01*
X144663337Y-93376722D01*
X144656022Y-93339940D01*
X144676857Y-93308758D01*
X144704080Y-93300500D01*
X145367365Y-93300500D01*
X145402013Y-93314852D01*
G37*
%TD.AperFunction*%
%TA.AperFunction,Conductor*%
G36*
X138141301Y-91634850D02*
G01*
X138150146Y-91643695D01*
X138164500Y-91678341D01*
X138164500Y-92895400D01*
X138150148Y-92930048D01*
X138115500Y-92944400D01*
X138088278Y-92936142D01*
X138032739Y-92899033D01*
X137935002Y-92879592D01*
X137935000Y-92879592D01*
X137900749Y-92886405D01*
X137850705Y-92896359D01*
X137813923Y-92889042D01*
X137806498Y-92882948D01*
X137662293Y-92738743D01*
X137647941Y-92704095D01*
X137662293Y-92669447D01*
X137683421Y-92658154D01*
X137683280Y-92657813D01*
X137686752Y-92656374D01*
X137687384Y-92656036D01*
X137687740Y-92655966D01*
X137770601Y-92600601D01*
X137825966Y-92517740D01*
X137843836Y-92427904D01*
X137845408Y-92420001D01*
X137845408Y-92419998D01*
X137825966Y-92322260D01*
X137770601Y-92239398D01*
X137727713Y-92210742D01*
X137706877Y-92179560D01*
X137714193Y-92142778D01*
X137727713Y-92129258D01*
X137770601Y-92100601D01*
X137782699Y-92082495D01*
X137825966Y-92017740D01*
X137841395Y-91940174D01*
X137845408Y-91920001D01*
X137845408Y-91919998D01*
X137825966Y-91822260D01*
X137770602Y-91739399D01*
X137727711Y-91710741D01*
X137706876Y-91679559D01*
X137714192Y-91642776D01*
X137727759Y-91629226D01*
X137728516Y-91628720D01*
X137755683Y-91620500D01*
X138106655Y-91620500D01*
X138141301Y-91634850D01*
G37*
%TD.AperFunction*%
%TA.AperFunction,Conductor*%
G36*
X143031303Y-90864852D02*
G01*
X143998249Y-91831798D01*
X144007749Y-91845187D01*
X144009211Y-91848223D01*
X144035109Y-91868877D01*
X144037158Y-91870709D01*
X144044199Y-91877750D01*
X144052630Y-91883047D01*
X144054873Y-91884638D01*
X144080769Y-91905290D01*
X144080771Y-91905290D01*
X144080772Y-91905291D01*
X144084054Y-91906040D01*
X144099220Y-91912321D01*
X144102076Y-91914116D01*
X144135000Y-91917825D01*
X144137704Y-91918284D01*
X144147410Y-91920500D01*
X144157363Y-91920500D01*
X144160105Y-91920653D01*
X144193027Y-91924363D01*
X144196207Y-91923250D01*
X144212392Y-91920500D01*
X144786655Y-91920500D01*
X144821303Y-91934852D01*
X145452302Y-92565852D01*
X145466654Y-92600500D01*
X145452302Y-92635148D01*
X145417654Y-92649500D01*
X144582635Y-92649500D01*
X144547987Y-92635148D01*
X143870941Y-91958102D01*
X143192409Y-91279570D01*
X143182078Y-91269239D01*
X143177905Y-91265065D01*
X143177902Y-91265063D01*
X143164322Y-91261425D01*
X143152505Y-91256531D01*
X143140327Y-91249500D01*
X143140324Y-91249499D01*
X143053973Y-91249499D01*
X143053965Y-91249500D01*
X142946230Y-91249500D01*
X142911582Y-91235148D01*
X142897230Y-91200500D01*
X142898172Y-91190940D01*
X142918369Y-91089405D01*
X142918369Y-91089402D01*
X142898927Y-90991664D01*
X142868758Y-90946511D01*
X142860500Y-90919289D01*
X142860500Y-90899500D01*
X142874852Y-90864852D01*
X142909500Y-90850500D01*
X142996655Y-90850500D01*
X143031303Y-90864852D01*
G37*
%TD.AperFunction*%
%TA.AperFunction,Conductor*%
G36*
X137219963Y-91012170D02*
G01*
X137233373Y-91037257D01*
X137235812Y-91049518D01*
X137291177Y-91132380D01*
X137378051Y-91190426D01*
X137377416Y-91191376D01*
X137400124Y-91214085D01*
X137400122Y-91251588D01*
X137395595Y-91260057D01*
X137354033Y-91322260D01*
X137334592Y-91419998D01*
X137334592Y-91420001D01*
X137354033Y-91517739D01*
X137409397Y-91600599D01*
X137409398Y-91600599D01*
X137409399Y-91600601D01*
X137452286Y-91629257D01*
X137473122Y-91660439D01*
X137465807Y-91697221D01*
X137452287Y-91710741D01*
X137409397Y-91739399D01*
X137354033Y-91822260D01*
X137334592Y-91919998D01*
X137334592Y-91920001D01*
X137354033Y-92017739D01*
X137409397Y-92100600D01*
X137452287Y-92129258D01*
X137473122Y-92160440D01*
X137465806Y-92197223D01*
X137452287Y-92210742D01*
X137409397Y-92239399D01*
X137354033Y-92322260D01*
X137353962Y-92322620D01*
X137353758Y-92322925D01*
X137352186Y-92326720D01*
X137351431Y-92326407D01*
X137333124Y-92353802D01*
X137296342Y-92361116D01*
X137271256Y-92347706D01*
X137112250Y-92188701D01*
X137102749Y-92175309D01*
X137101289Y-92172277D01*
X137098434Y-92170000D01*
X137075376Y-92151611D01*
X137073338Y-92149789D01*
X137066301Y-92142752D01*
X137066299Y-92142751D01*
X137057870Y-92137453D01*
X137055630Y-92135863D01*
X137029730Y-92115209D01*
X137026444Y-92114459D01*
X137011278Y-92108177D01*
X137008426Y-92106385D01*
X137008422Y-92106383D01*
X136975506Y-92102675D01*
X136972796Y-92102215D01*
X136963090Y-92100000D01*
X136953132Y-92100000D01*
X136950389Y-92099846D01*
X136946279Y-92099383D01*
X136917472Y-92096137D01*
X136915944Y-92096310D01*
X136913982Y-92095744D01*
X136911988Y-92095520D01*
X136912026Y-92095180D01*
X136879907Y-92085923D01*
X136875815Y-92082265D01*
X136462723Y-91669173D01*
X136448371Y-91634525D01*
X136448371Y-91467294D01*
X136456628Y-91440072D01*
X136483837Y-91399352D01*
X136499805Y-91319078D01*
X136503279Y-91301613D01*
X136503279Y-91301610D01*
X136483837Y-91203872D01*
X136479060Y-91196722D01*
X136471744Y-91159940D01*
X136492580Y-91128758D01*
X136519802Y-91120500D01*
X137020327Y-91120500D01*
X137032501Y-91113469D01*
X137044319Y-91108574D01*
X137057904Y-91104935D01*
X137114935Y-91047905D01*
X137114935Y-91047903D01*
X137121824Y-91041015D01*
X137121826Y-91041011D01*
X137150668Y-91012169D01*
X137185315Y-90997818D01*
X137219963Y-91012170D01*
G37*
%TD.AperFunction*%
%TA.AperFunction,Conductor*%
G36*
X144555567Y-91164852D02*
G01*
X144826567Y-91435852D01*
X144840919Y-91470500D01*
X144826567Y-91505148D01*
X144791919Y-91519500D01*
X144273346Y-91519500D01*
X144238698Y-91505148D01*
X143967698Y-91234148D01*
X143953346Y-91199500D01*
X143967698Y-91164852D01*
X144002346Y-91150500D01*
X144520919Y-91150500D01*
X144555567Y-91164852D01*
G37*
%TD.AperFunction*%
%TA.AperFunction,Conductor*%
G36*
X159835148Y-65164852D02*
G01*
X159849500Y-65199500D01*
X159849500Y-124800500D01*
X159835148Y-124835148D01*
X159800500Y-124849500D01*
X100199500Y-124849500D01*
X100164852Y-124835148D01*
X100150500Y-124800500D01*
X100150500Y-98496947D01*
X115387018Y-98496947D01*
X115417563Y-98722439D01*
X115487880Y-98938850D01*
X115487880Y-98938851D01*
X115595710Y-99139232D01*
X115737585Y-99317138D01*
X115908948Y-99466853D01*
X116104289Y-99583564D01*
X116175066Y-99610127D01*
X116317326Y-99663519D01*
X116317328Y-99663519D01*
X116317330Y-99663520D01*
X116541224Y-99704150D01*
X116541229Y-99704150D01*
X116711769Y-99704150D01*
X116711775Y-99704150D01*
X116881635Y-99688862D01*
X117100986Y-99628325D01*
X117306003Y-99529595D01*
X117490095Y-99395843D01*
X117647347Y-99231371D01*
X117772705Y-99041463D01*
X117862138Y-98832223D01*
X117912773Y-98610377D01*
X117917867Y-98496947D01*
X118562018Y-98496947D01*
X118592563Y-98722439D01*
X118662880Y-98938850D01*
X118662880Y-98938851D01*
X118770710Y-99139232D01*
X118912585Y-99317138D01*
X119083948Y-99466853D01*
X119279289Y-99583564D01*
X119350066Y-99610127D01*
X119492326Y-99663519D01*
X119492328Y-99663519D01*
X119492330Y-99663520D01*
X119716224Y-99704150D01*
X119716229Y-99704150D01*
X119886769Y-99704150D01*
X119886775Y-99704150D01*
X120056635Y-99688862D01*
X120275986Y-99628325D01*
X120481003Y-99529595D01*
X120665095Y-99395843D01*
X120822347Y-99231371D01*
X120947705Y-99041463D01*
X121037138Y-98832223D01*
X121087773Y-98610377D01*
X121097982Y-98383055D01*
X121067437Y-98157563D01*
X120997120Y-97941149D01*
X120889290Y-97740768D01*
X120747415Y-97562862D01*
X120576052Y-97413147D01*
X120491412Y-97362577D01*
X120380712Y-97296436D01*
X120167673Y-97216480D01*
X120076856Y-97200000D01*
X119943776Y-97175850D01*
X119773225Y-97175850D01*
X119603365Y-97191138D01*
X119603363Y-97191138D01*
X119603357Y-97191139D01*
X119384018Y-97251673D01*
X119179000Y-97350403D01*
X119178997Y-97350404D01*
X119178997Y-97350405D01*
X119105762Y-97403614D01*
X118994902Y-97484159D01*
X118837652Y-97648628D01*
X118712295Y-97838537D01*
X118712292Y-97838542D01*
X118622861Y-98047776D01*
X118622860Y-98047781D01*
X118572227Y-98269619D01*
X118562018Y-98496947D01*
X117917867Y-98496947D01*
X117922982Y-98383055D01*
X117892437Y-98157563D01*
X117822120Y-97941149D01*
X117714290Y-97740768D01*
X117572415Y-97562862D01*
X117401052Y-97413147D01*
X117316412Y-97362577D01*
X117278627Y-97340001D01*
X117744592Y-97340001D01*
X117764033Y-97437739D01*
X117819398Y-97520601D01*
X117902260Y-97575966D01*
X117999998Y-97595408D01*
X118000000Y-97595408D01*
X118000002Y-97595408D01*
X118048870Y-97585687D01*
X118097740Y-97575966D01*
X118138461Y-97548757D01*
X118165683Y-97540500D01*
X118657611Y-97540500D01*
X118673796Y-97543250D01*
X118676974Y-97544362D01*
X118709889Y-97540653D01*
X118712632Y-97540500D01*
X118722591Y-97540500D01*
X118724310Y-97540107D01*
X118732310Y-97538280D01*
X118734997Y-97537824D01*
X118767924Y-97534116D01*
X118770775Y-97532323D01*
X118785948Y-97526038D01*
X118789231Y-97525290D01*
X118815139Y-97504628D01*
X118817358Y-97503052D01*
X118825801Y-97497748D01*
X118832849Y-97490698D01*
X118834870Y-97488892D01*
X118860788Y-97468224D01*
X118862249Y-97465189D01*
X118871747Y-97451800D01*
X119268697Y-97054852D01*
X119303346Y-97040500D01*
X120817611Y-97040500D01*
X120833796Y-97043250D01*
X120836974Y-97044362D01*
X120869889Y-97040653D01*
X120872632Y-97040500D01*
X120882591Y-97040500D01*
X120884421Y-97040082D01*
X120892310Y-97038280D01*
X120894997Y-97037824D01*
X120927924Y-97034116D01*
X120930775Y-97032323D01*
X120945948Y-97026038D01*
X120949231Y-97025290D01*
X120975139Y-97004628D01*
X120977358Y-97003052D01*
X120985801Y-96997748D01*
X120992849Y-96990698D01*
X120994870Y-96988892D01*
X121020788Y-96968224D01*
X121022249Y-96965189D01*
X121031747Y-96951800D01*
X127168697Y-90814852D01*
X127203346Y-90800500D01*
X131922592Y-90800500D01*
X131922592Y-90800499D01*
X131931436Y-90798480D01*
X131940096Y-90796505D01*
X131977070Y-90802787D01*
X131998771Y-90833372D01*
X132000000Y-90844276D01*
X132000000Y-90962184D01*
X131993435Y-90986684D01*
X131964412Y-91036952D01*
X131947774Y-91131315D01*
X131944479Y-91150000D01*
X131959283Y-91233959D01*
X131960700Y-91241991D01*
X131952582Y-91278605D01*
X131920953Y-91298756D01*
X131912444Y-91299500D01*
X127902391Y-91299500D01*
X127886207Y-91296750D01*
X127883026Y-91295637D01*
X127850104Y-91299346D01*
X127847362Y-91299500D01*
X127837409Y-91299500D01*
X127827708Y-91301713D01*
X127825001Y-91302173D01*
X127792079Y-91305883D01*
X127792074Y-91305885D01*
X127789214Y-91307682D01*
X127774062Y-91313958D01*
X127770771Y-91314709D01*
X127770766Y-91314711D01*
X127744875Y-91335359D01*
X127742636Y-91336947D01*
X127734197Y-91342251D01*
X127727157Y-91349292D01*
X127725109Y-91351122D01*
X127699213Y-91371774D01*
X127699210Y-91371778D01*
X127697748Y-91374814D01*
X127688251Y-91388197D01*
X123222830Y-95853619D01*
X123197742Y-95867029D01*
X123112260Y-95884033D01*
X123029398Y-95939398D01*
X122974033Y-96022260D01*
X122954592Y-96119998D01*
X122954592Y-96120001D01*
X122974033Y-96217739D01*
X123029398Y-96300601D01*
X123112260Y-96355966D01*
X123209998Y-96375408D01*
X123210000Y-96375408D01*
X123210002Y-96375408D01*
X123275706Y-96362338D01*
X123307740Y-96355966D01*
X123390601Y-96300601D01*
X123445966Y-96217740D01*
X123448071Y-96207152D01*
X123461480Y-96182067D01*
X127928697Y-91714852D01*
X127963346Y-91700500D01*
X131922592Y-91700500D01*
X131922592Y-91700499D01*
X131931436Y-91698480D01*
X131940096Y-91696505D01*
X131977070Y-91702787D01*
X131998771Y-91733372D01*
X132000000Y-91744276D01*
X132000000Y-92249746D01*
X131997045Y-92266505D01*
X131984458Y-92301086D01*
X131984457Y-92301090D01*
X131984457Y-92301091D01*
X131976238Y-92347706D01*
X131949500Y-92499343D01*
X131949499Y-92499350D01*
X131949500Y-96068559D01*
X131949500Y-99465649D01*
X131949500Y-99500000D01*
X131949500Y-99630081D01*
X131980858Y-99888346D01*
X131980859Y-99888347D01*
X131980860Y-99888351D01*
X132043118Y-100140943D01*
X132043118Y-100140945D01*
X132043120Y-100140950D01*
X132135375Y-100384206D01*
X132256278Y-100614569D01*
X132256282Y-100614575D01*
X132256285Y-100614580D01*
X132404064Y-100828673D01*
X132404071Y-100828682D01*
X132469678Y-100902737D01*
X132576587Y-101023413D01*
X132771322Y-101195932D01*
X132985431Y-101343722D01*
X133215794Y-101464625D01*
X133459050Y-101556880D01*
X133711653Y-101619141D01*
X133969919Y-101650500D01*
X133969923Y-101650500D01*
X140100650Y-101650500D01*
X140100656Y-101650500D01*
X140269413Y-101620743D01*
X140277921Y-101620000D01*
X141018855Y-101620000D01*
X141035613Y-101622954D01*
X141042606Y-101625500D01*
X141157394Y-101625500D01*
X141164386Y-101622954D01*
X141181145Y-101620000D01*
X141638855Y-101620000D01*
X141655613Y-101622954D01*
X141662606Y-101625500D01*
X141777394Y-101625500D01*
X141784386Y-101622954D01*
X141801145Y-101620000D01*
X142218855Y-101620000D01*
X142235613Y-101622954D01*
X142242606Y-101625500D01*
X142357394Y-101625500D01*
X142364386Y-101622954D01*
X142381145Y-101620000D01*
X142838855Y-101620000D01*
X142855613Y-101622954D01*
X142862606Y-101625500D01*
X142977394Y-101625500D01*
X142984386Y-101622954D01*
X143001145Y-101620000D01*
X143742079Y-101620000D01*
X143750586Y-101620743D01*
X143919344Y-101650500D01*
X143919350Y-101650500D01*
X151230077Y-101650500D01*
X151230081Y-101650500D01*
X151488347Y-101619141D01*
X151740950Y-101556880D01*
X151984206Y-101464625D01*
X152214569Y-101343722D01*
X152428678Y-101195932D01*
X152623413Y-101023413D01*
X152795932Y-100828678D01*
X152943722Y-100614569D01*
X153064625Y-100384206D01*
X153156880Y-100140950D01*
X153219141Y-99888347D01*
X153250500Y-99630081D01*
X153250500Y-99500000D01*
X153250500Y-99465649D01*
X153250500Y-93100186D01*
X153250500Y-93019344D01*
X153215543Y-92821091D01*
X153203471Y-92787923D01*
X153202955Y-92786505D01*
X153200000Y-92769746D01*
X153200000Y-92164513D01*
X153206564Y-92140013D01*
X153210588Y-92133045D01*
X153230521Y-92020000D01*
X153210588Y-91906955D01*
X153207877Y-91902260D01*
X153206563Y-91899983D01*
X153200000Y-91875485D01*
X153200000Y-91544513D01*
X153206564Y-91520013D01*
X153210588Y-91513045D01*
X153230521Y-91400000D01*
X153210588Y-91286955D01*
X153206563Y-91279983D01*
X153200000Y-91255485D01*
X153200000Y-90650252D01*
X153202954Y-90633494D01*
X153215543Y-90598909D01*
X153250500Y-90400656D01*
X153250500Y-90300000D01*
X153250500Y-90265649D01*
X153250500Y-90265648D01*
X153250500Y-85650186D01*
X153250500Y-85650185D01*
X153250500Y-85539919D01*
X153219141Y-85281653D01*
X153156880Y-85029050D01*
X153064625Y-84785794D01*
X152943722Y-84555431D01*
X152810347Y-84362206D01*
X152795935Y-84341326D01*
X152795928Y-84341317D01*
X152689839Y-84221567D01*
X152623413Y-84146587D01*
X152475728Y-84015750D01*
X152428682Y-83974071D01*
X152428673Y-83974064D01*
X152214580Y-83826285D01*
X152214575Y-83826282D01*
X152214569Y-83826278D01*
X151984206Y-83705375D01*
X151965437Y-83698257D01*
X151880918Y-83666203D01*
X151740950Y-83613120D01*
X151740947Y-83613119D01*
X151740944Y-83613118D01*
X151488351Y-83550860D01*
X151488347Y-83550859D01*
X151480721Y-83549933D01*
X151230081Y-83519500D01*
X151230077Y-83519500D01*
X151121293Y-83519500D01*
X151121278Y-83519499D01*
X151119806Y-83519499D01*
X151100365Y-83519500D01*
X151063877Y-83519500D01*
X151063857Y-83519501D01*
X146446264Y-83519739D01*
X146411615Y-83505389D01*
X146399216Y-83484441D01*
X146355439Y-83334134D01*
X146355437Y-83334126D01*
X146259033Y-83137249D01*
X146259030Y-83137245D01*
X146259029Y-83137243D01*
X146130369Y-82959772D01*
X146130368Y-82959771D01*
X146107970Y-82937983D01*
X145973234Y-82806920D01*
X145973231Y-82806918D01*
X145973229Y-82806916D01*
X145792267Y-82683208D01*
X145792266Y-82683207D01*
X145592806Y-82592284D01*
X145592794Y-82592279D01*
X145380721Y-82536823D01*
X145380724Y-82536823D01*
X145162278Y-82518467D01*
X145162276Y-82518467D01*
X144943919Y-82537753D01*
X144732072Y-82594117D01*
X144533004Y-82685890D01*
X144532996Y-82685894D01*
X144352561Y-82810373D01*
X144196078Y-82963895D01*
X144074113Y-83133649D01*
X144042240Y-83153413D01*
X144005728Y-83144852D01*
X143991884Y-83129558D01*
X143953195Y-83062547D01*
X143953194Y-83062545D01*
X143865261Y-82988760D01*
X143757394Y-82949500D01*
X143642606Y-82949500D01*
X143534737Y-82988760D01*
X143446808Y-83062541D01*
X143446804Y-83062546D01*
X143408114Y-83129561D01*
X143378361Y-83152391D01*
X143341179Y-83147496D01*
X143325885Y-83133652D01*
X143320510Y-83126171D01*
X143203919Y-82963895D01*
X143047439Y-82810377D01*
X143047437Y-82810375D01*
X142867002Y-82685896D01*
X142866994Y-82685892D01*
X142667926Y-82594119D01*
X142456080Y-82537755D01*
X142237722Y-82518469D01*
X142019278Y-82536825D01*
X141807205Y-82592282D01*
X141807197Y-82592284D01*
X141607732Y-82683211D01*
X141426771Y-82806918D01*
X141269632Y-82959772D01*
X141269631Y-82959773D01*
X141140972Y-83137244D01*
X141140967Y-83137253D01*
X141044567Y-83334119D01*
X141044562Y-83334134D01*
X141000784Y-83484443D01*
X140977316Y-83513696D01*
X140953737Y-83519741D01*
X134134352Y-83519500D01*
X134134351Y-83519500D01*
X134108432Y-83519500D01*
X134080191Y-83519499D01*
X134080190Y-83519499D01*
X134078719Y-83519499D01*
X134078704Y-83519500D01*
X133969919Y-83519500D01*
X133763306Y-83544587D01*
X133711652Y-83550859D01*
X133711648Y-83550860D01*
X133459056Y-83613118D01*
X133459054Y-83613118D01*
X133215798Y-83705373D01*
X133215789Y-83705377D01*
X132985440Y-83826273D01*
X132985419Y-83826285D01*
X132771326Y-83974064D01*
X132771317Y-83974071D01*
X132576587Y-84146587D01*
X132404071Y-84341317D01*
X132404064Y-84341326D01*
X132256285Y-84555419D01*
X132256273Y-84555440D01*
X132135377Y-84785789D01*
X132135373Y-84785798D01*
X132043118Y-85029054D01*
X132043118Y-85029056D01*
X131980860Y-85281648D01*
X131980859Y-85281653D01*
X131949781Y-85537612D01*
X131949500Y-85539923D01*
X131949500Y-89750656D01*
X131984457Y-89948911D01*
X131988223Y-89959256D01*
X131997045Y-89983494D01*
X132000000Y-90000252D01*
X132000000Y-90355723D01*
X131985648Y-90390371D01*
X131951000Y-90404723D01*
X131940099Y-90403495D01*
X131922592Y-90399500D01*
X131922590Y-90399500D01*
X127349500Y-90399500D01*
X127314852Y-90385148D01*
X127300500Y-90350500D01*
X127300499Y-85589890D01*
X127303250Y-85573702D01*
X127304362Y-85570526D01*
X127300653Y-85537610D01*
X127300500Y-85534868D01*
X127300500Y-85524909D01*
X127300160Y-85523421D01*
X127298280Y-85515186D01*
X127297825Y-85512506D01*
X127294116Y-85479576D01*
X127292321Y-85476719D01*
X127286040Y-85461554D01*
X127285291Y-85458272D01*
X127285290Y-85458271D01*
X127285290Y-85458269D01*
X127273514Y-85443502D01*
X127264630Y-85432361D01*
X127263042Y-85430124D01*
X127257748Y-85421699D01*
X127250700Y-85414651D01*
X127248880Y-85412614D01*
X127228224Y-85386712D01*
X127228222Y-85386711D01*
X127225185Y-85385248D01*
X127211798Y-85375749D01*
X121366812Y-79530763D01*
X121352460Y-79496115D01*
X121358246Y-79473016D01*
X121358693Y-79472180D01*
X121422396Y-79353001D01*
X121476747Y-79173831D01*
X121495099Y-78987500D01*
X122124901Y-78987500D01*
X122143253Y-79173831D01*
X122143253Y-79173832D01*
X122197604Y-79353002D01*
X122285863Y-79518124D01*
X122285868Y-79518131D01*
X122348775Y-79594782D01*
X122404643Y-79662857D01*
X122487590Y-79730930D01*
X122549368Y-79781631D01*
X122549375Y-79781636D01*
X122714499Y-79869896D01*
X122893669Y-79924247D01*
X123080000Y-79942599D01*
X123266331Y-79924247D01*
X123445501Y-79869896D01*
X123610625Y-79781636D01*
X123755357Y-79662857D01*
X123874136Y-79518125D01*
X123962396Y-79353001D01*
X124016747Y-79173831D01*
X124035099Y-78987500D01*
X124016747Y-78801169D01*
X123962396Y-78621999D01*
X123874136Y-78456875D01*
X123874131Y-78456868D01*
X123793895Y-78359102D01*
X123755357Y-78312143D01*
X123687282Y-78256275D01*
X123610631Y-78193368D01*
X123610624Y-78193363D01*
X123445502Y-78105104D01*
X123266331Y-78050753D01*
X123080000Y-78032401D01*
X122893668Y-78050753D01*
X122893667Y-78050753D01*
X122714497Y-78105104D01*
X122549375Y-78193363D01*
X122549368Y-78193368D01*
X122404643Y-78312143D01*
X122285868Y-78456868D01*
X122285863Y-78456875D01*
X122197604Y-78621997D01*
X122143253Y-78801167D01*
X122143253Y-78801168D01*
X122124901Y-78987499D01*
X122124901Y-78987500D01*
X121495099Y-78987500D01*
X121476747Y-78801169D01*
X121422396Y-78621999D01*
X121334136Y-78456875D01*
X121334131Y-78456868D01*
X121253895Y-78359102D01*
X121215357Y-78312143D01*
X121147282Y-78256275D01*
X121070631Y-78193368D01*
X121070624Y-78193363D01*
X120905502Y-78105104D01*
X120775275Y-78065600D01*
X120746285Y-78041808D01*
X120740500Y-78018713D01*
X120740500Y-77416288D01*
X120754852Y-77381640D01*
X120775272Y-77369399D01*
X120905501Y-77329896D01*
X121070625Y-77241636D01*
X121215357Y-77122857D01*
X121249904Y-77080761D01*
X122129500Y-77080761D01*
X122139427Y-77148894D01*
X122139428Y-77148896D01*
X122165114Y-77201437D01*
X122190802Y-77253983D01*
X122273517Y-77336698D01*
X122378607Y-77388073D01*
X122426884Y-77395106D01*
X122446738Y-77398000D01*
X122446740Y-77398000D01*
X123713262Y-77398000D01*
X123730590Y-77395474D01*
X123781393Y-77388073D01*
X123886483Y-77336698D01*
X123969198Y-77253983D01*
X124020573Y-77148893D01*
X124030500Y-77080760D01*
X124030500Y-75814240D01*
X124020573Y-75746107D01*
X123969198Y-75641017D01*
X123886483Y-75558302D01*
X123790226Y-75511245D01*
X123781396Y-75506928D01*
X123781394Y-75506927D01*
X123713262Y-75497000D01*
X123713260Y-75497000D01*
X122446740Y-75497000D01*
X122446738Y-75497000D01*
X122378605Y-75506927D01*
X122378603Y-75506928D01*
X122273519Y-75558301D01*
X122273515Y-75558303D01*
X122190803Y-75641015D01*
X122190801Y-75641019D01*
X122139428Y-75746103D01*
X122139427Y-75746105D01*
X122129500Y-75814238D01*
X122129500Y-77080761D01*
X121249904Y-77080761D01*
X121334136Y-76978125D01*
X121422396Y-76813001D01*
X121476747Y-76633831D01*
X121495099Y-76447500D01*
X121476747Y-76261169D01*
X121422396Y-76081999D01*
X121334136Y-75916875D01*
X121334131Y-75916868D01*
X121249905Y-75814240D01*
X121215357Y-75772143D01*
X121147282Y-75716275D01*
X121070631Y-75653368D01*
X121070624Y-75653363D01*
X120905502Y-75565104D01*
X120726331Y-75510753D01*
X120540000Y-75492401D01*
X120353668Y-75510753D01*
X120353667Y-75510753D01*
X120174497Y-75565104D01*
X120009375Y-75653363D01*
X120009368Y-75653368D01*
X119864643Y-75772143D01*
X119745868Y-75916868D01*
X119745863Y-75916875D01*
X119657604Y-76081997D01*
X119603253Y-76261167D01*
X119603253Y-76261168D01*
X119584901Y-76447499D01*
X119584901Y-76447500D01*
X119603253Y-76633831D01*
X119603253Y-76633832D01*
X119657604Y-76813002D01*
X119745863Y-76978124D01*
X119745868Y-76978131D01*
X119808775Y-77054782D01*
X119864643Y-77122857D01*
X119947590Y-77190930D01*
X120009368Y-77241631D01*
X120009375Y-77241636D01*
X120174499Y-77329896D01*
X120304725Y-77369399D01*
X120333714Y-77393189D01*
X120339500Y-77416288D01*
X120339500Y-78018710D01*
X120325148Y-78053358D01*
X120304724Y-78065600D01*
X120174497Y-78105104D01*
X120009375Y-78193363D01*
X120009368Y-78193368D01*
X119864643Y-78312143D01*
X119745868Y-78456868D01*
X119745863Y-78456875D01*
X119657604Y-78621997D01*
X119603253Y-78801167D01*
X119603253Y-78801168D01*
X119584901Y-78987499D01*
X119584901Y-78987500D01*
X119603253Y-79173831D01*
X119603253Y-79173832D01*
X119657604Y-79353002D01*
X119745863Y-79518124D01*
X119745868Y-79518131D01*
X119808775Y-79594782D01*
X119864643Y-79662857D01*
X119947590Y-79730930D01*
X120009368Y-79781631D01*
X120009375Y-79781636D01*
X120174499Y-79869896D01*
X120353669Y-79924247D01*
X120540000Y-79942599D01*
X120726331Y-79924247D01*
X120905501Y-79869896D01*
X121025516Y-79805745D01*
X121062839Y-79802070D01*
X121083263Y-79814312D01*
X126885148Y-85616197D01*
X126899500Y-85650845D01*
X126899500Y-90496654D01*
X126885148Y-90531302D01*
X120791303Y-96625148D01*
X120756655Y-96639500D01*
X119242389Y-96639500D01*
X119226204Y-96636750D01*
X119223025Y-96635637D01*
X119193085Y-96639010D01*
X119190110Y-96639346D01*
X119187368Y-96639500D01*
X119177407Y-96639500D01*
X119167701Y-96641714D01*
X119164994Y-96642174D01*
X119132075Y-96645883D01*
X119132073Y-96645884D01*
X119129214Y-96647681D01*
X119114062Y-96653958D01*
X119110771Y-96654709D01*
X119110766Y-96654711D01*
X119084875Y-96675359D01*
X119082636Y-96676947D01*
X119074197Y-96682251D01*
X119067157Y-96689291D01*
X119065109Y-96691122D01*
X119039212Y-96711776D01*
X119039210Y-96711777D01*
X119037745Y-96714820D01*
X119028250Y-96728198D01*
X118631303Y-97125148D01*
X118596655Y-97139500D01*
X118165683Y-97139500D01*
X118138461Y-97131242D01*
X118097740Y-97104034D01*
X118097739Y-97104033D01*
X118097738Y-97104033D01*
X118000002Y-97084592D01*
X117999998Y-97084592D01*
X117902260Y-97104033D01*
X117819398Y-97159398D01*
X117764033Y-97242260D01*
X117744592Y-97339998D01*
X117744592Y-97340001D01*
X117278627Y-97340001D01*
X117205712Y-97296436D01*
X116992673Y-97216480D01*
X116901856Y-97200000D01*
X116768776Y-97175850D01*
X116598225Y-97175850D01*
X116428365Y-97191138D01*
X116428363Y-97191138D01*
X116428357Y-97191139D01*
X116209018Y-97251673D01*
X116004000Y-97350403D01*
X116003997Y-97350404D01*
X116003997Y-97350405D01*
X115930762Y-97403614D01*
X115819902Y-97484159D01*
X115662652Y-97648628D01*
X115537295Y-97838537D01*
X115537292Y-97838542D01*
X115447861Y-98047776D01*
X115447860Y-98047781D01*
X115397227Y-98269619D01*
X115387018Y-98496947D01*
X100150500Y-98496947D01*
X100150500Y-96916000D01*
X114173064Y-96916000D01*
X114173842Y-96921909D01*
X114192722Y-97065321D01*
X114250356Y-97204463D01*
X114250359Y-97204468D01*
X114336558Y-97316805D01*
X114342045Y-97323955D01*
X114461532Y-97415641D01*
X114461534Y-97415641D01*
X114461536Y-97415643D01*
X114597329Y-97471890D01*
X114600678Y-97473277D01*
X114712508Y-97488000D01*
X114712510Y-97488000D01*
X114787489Y-97488000D01*
X114787492Y-97488000D01*
X114899322Y-97473277D01*
X115038468Y-97415641D01*
X115157955Y-97323955D01*
X115249641Y-97204468D01*
X115307277Y-97065322D01*
X115326936Y-96916000D01*
X115307277Y-96766678D01*
X115300233Y-96749673D01*
X115249643Y-96627536D01*
X115249640Y-96627531D01*
X115247811Y-96625148D01*
X115157955Y-96508045D01*
X115136295Y-96491425D01*
X115038468Y-96416359D01*
X115038463Y-96416356D01*
X114899321Y-96358722D01*
X114813510Y-96347425D01*
X114787492Y-96344000D01*
X114712508Y-96344000D01*
X114689200Y-96347068D01*
X114600678Y-96358722D01*
X114461536Y-96416356D01*
X114461531Y-96416359D01*
X114342045Y-96508044D01*
X114342044Y-96508045D01*
X114250359Y-96627531D01*
X114250356Y-96627536D01*
X114192722Y-96766678D01*
X114174595Y-96904371D01*
X114173064Y-96916000D01*
X100150500Y-96916000D01*
X100150500Y-95900000D01*
X119253064Y-95900000D01*
X119272722Y-96049321D01*
X119330356Y-96188463D01*
X119330359Y-96188468D01*
X119384997Y-96259674D01*
X119422045Y-96307955D01*
X119541532Y-96399641D01*
X119541534Y-96399641D01*
X119541536Y-96399643D01*
X119616032Y-96430500D01*
X119680678Y-96457277D01*
X119792508Y-96472000D01*
X119792510Y-96472000D01*
X119867489Y-96472000D01*
X119867492Y-96472000D01*
X119979322Y-96457277D01*
X120118468Y-96399641D01*
X120237955Y-96307955D01*
X120329641Y-96188468D01*
X120387277Y-96049322D01*
X120406936Y-95900000D01*
X120387277Y-95750678D01*
X120364238Y-95695057D01*
X120329643Y-95611536D01*
X120329640Y-95611531D01*
X120325803Y-95606531D01*
X120237955Y-95492045D01*
X120190980Y-95456000D01*
X120118468Y-95400359D01*
X120118463Y-95400356D01*
X119979321Y-95342722D01*
X119893510Y-95331425D01*
X119867492Y-95328000D01*
X119792508Y-95328000D01*
X119769200Y-95331068D01*
X119680678Y-95342722D01*
X119541536Y-95400356D01*
X119541531Y-95400359D01*
X119422045Y-95492044D01*
X119422044Y-95492045D01*
X119330359Y-95611531D01*
X119330356Y-95611536D01*
X119272722Y-95750678D01*
X119253064Y-95900000D01*
X100150500Y-95900000D01*
X100150500Y-94883999D01*
X114173064Y-94883999D01*
X114192722Y-95033321D01*
X114250356Y-95172463D01*
X114250359Y-95172468D01*
X114342045Y-95291955D01*
X114461532Y-95383641D01*
X114461534Y-95383641D01*
X114461536Y-95383643D01*
X114598182Y-95440243D01*
X114600678Y-95441277D01*
X114712508Y-95456000D01*
X114712510Y-95456000D01*
X114787489Y-95456000D01*
X114787492Y-95456000D01*
X114899322Y-95441277D01*
X115038468Y-95383641D01*
X115157955Y-95291955D01*
X115249641Y-95172468D01*
X115307277Y-95033322D01*
X115318905Y-94945001D01*
X119944592Y-94945001D01*
X119964033Y-95042739D01*
X120019398Y-95125601D01*
X120102260Y-95180966D01*
X120199998Y-95200408D01*
X120200000Y-95200408D01*
X120200002Y-95200408D01*
X120265160Y-95187446D01*
X120297740Y-95180966D01*
X120380601Y-95125601D01*
X120435966Y-95042740D01*
X120455408Y-94945000D01*
X120439144Y-94863239D01*
X120435966Y-94847260D01*
X120380601Y-94764398D01*
X120297739Y-94709033D01*
X120200002Y-94689592D01*
X120199998Y-94689592D01*
X120102260Y-94709033D01*
X120019398Y-94764398D01*
X119964033Y-94847260D01*
X119944592Y-94944998D01*
X119944592Y-94945001D01*
X115318905Y-94945001D01*
X115326936Y-94884000D01*
X115307277Y-94734678D01*
X115282279Y-94674327D01*
X115249643Y-94595536D01*
X115249640Y-94595531D01*
X115245015Y-94589504D01*
X115157955Y-94476045D01*
X115156228Y-94474720D01*
X115038468Y-94384359D01*
X115038463Y-94384356D01*
X114899321Y-94326722D01*
X114810134Y-94314981D01*
X114787492Y-94312000D01*
X114712508Y-94312000D01*
X114690845Y-94314852D01*
X114600678Y-94326722D01*
X114461536Y-94384356D01*
X114461531Y-94384359D01*
X114342045Y-94476044D01*
X114342044Y-94476045D01*
X114250359Y-94595531D01*
X114250356Y-94595536D01*
X114192722Y-94734678D01*
X114173064Y-94883999D01*
X100150500Y-94883999D01*
X100150500Y-93416947D01*
X115387018Y-93416947D01*
X115417563Y-93642439D01*
X115477824Y-93827903D01*
X115487880Y-93858851D01*
X115595710Y-94059232D01*
X115737585Y-94237138D01*
X115908948Y-94386853D01*
X116025117Y-94456261D01*
X116086706Y-94493059D01*
X116104289Y-94503564D01*
X116136820Y-94515773D01*
X116317326Y-94583519D01*
X116317328Y-94583519D01*
X116317330Y-94583520D01*
X116541224Y-94624150D01*
X116541229Y-94624150D01*
X116711769Y-94624150D01*
X116711775Y-94624150D01*
X116881635Y-94608862D01*
X117100986Y-94548325D01*
X117306003Y-94449595D01*
X117490095Y-94315843D01*
X117647347Y-94151371D01*
X117772705Y-93961463D01*
X117862138Y-93752223D01*
X117912773Y-93530377D01*
X117917867Y-93416947D01*
X118562018Y-93416947D01*
X118592563Y-93642439D01*
X118652824Y-93827903D01*
X118662880Y-93858851D01*
X118770710Y-94059232D01*
X118912585Y-94237138D01*
X119083948Y-94386853D01*
X119200117Y-94456261D01*
X119261706Y-94493059D01*
X119279289Y-94503564D01*
X119311820Y-94515773D01*
X119492326Y-94583519D01*
X119492328Y-94583519D01*
X119492330Y-94583520D01*
X119716224Y-94624150D01*
X119716229Y-94624150D01*
X119886769Y-94624150D01*
X119886775Y-94624150D01*
X120056635Y-94608862D01*
X120275986Y-94548325D01*
X120481003Y-94449595D01*
X120665095Y-94315843D01*
X120822347Y-94151371D01*
X120947705Y-93961463D01*
X121037138Y-93752223D01*
X121087773Y-93530377D01*
X121097982Y-93303055D01*
X121067437Y-93077563D01*
X120997120Y-92861149D01*
X120889290Y-92660768D01*
X120747415Y-92482862D01*
X120576052Y-92333147D01*
X120471040Y-92270405D01*
X120380712Y-92216436D01*
X120167673Y-92136480D01*
X120061112Y-92117143D01*
X119943776Y-92095850D01*
X119773225Y-92095850D01*
X119603365Y-92111138D01*
X119603363Y-92111138D01*
X119603357Y-92111139D01*
X119384018Y-92171673D01*
X119179000Y-92270403D01*
X119178997Y-92270404D01*
X119178997Y-92270405D01*
X119146644Y-92293911D01*
X118994902Y-92404159D01*
X118837652Y-92568628D01*
X118712295Y-92758537D01*
X118712292Y-92758542D01*
X118622861Y-92967776D01*
X118622860Y-92967781D01*
X118572227Y-93189619D01*
X118567133Y-93303052D01*
X118562240Y-93412014D01*
X118562018Y-93416947D01*
X117917867Y-93416947D01*
X117922982Y-93303055D01*
X117892437Y-93077563D01*
X117822120Y-92861149D01*
X117714290Y-92660768D01*
X117572415Y-92482862D01*
X117401052Y-92333147D01*
X117296040Y-92270405D01*
X117205712Y-92216436D01*
X116992673Y-92136480D01*
X116886112Y-92117143D01*
X116768776Y-92095850D01*
X116598225Y-92095850D01*
X116428365Y-92111138D01*
X116428363Y-92111138D01*
X116428357Y-92111139D01*
X116209018Y-92171673D01*
X116004000Y-92270403D01*
X116003997Y-92270404D01*
X116003997Y-92270405D01*
X115971644Y-92293911D01*
X115819902Y-92404159D01*
X115662652Y-92568628D01*
X115537295Y-92758537D01*
X115537292Y-92758542D01*
X115447861Y-92967776D01*
X115447860Y-92967781D01*
X115397227Y-93189619D01*
X115392133Y-93303052D01*
X115387240Y-93412014D01*
X115387018Y-93416947D01*
X100150500Y-93416947D01*
X100150500Y-78987500D01*
X111965403Y-78987500D01*
X111983745Y-79173733D01*
X111983745Y-79173734D01*
X112038066Y-79352805D01*
X112038069Y-79352812D01*
X112126284Y-79517849D01*
X112126286Y-79517852D01*
X112206750Y-79615895D01*
X112206751Y-79615896D01*
X112524980Y-79297666D01*
X112538239Y-79318298D01*
X112611003Y-79381348D01*
X112291603Y-79700748D01*
X112389650Y-79781216D01*
X112554687Y-79869430D01*
X112554694Y-79869433D01*
X112733766Y-79923754D01*
X112920000Y-79942097D01*
X113106233Y-79923754D01*
X113106234Y-79923754D01*
X113285305Y-79869433D01*
X113285312Y-79869430D01*
X113450343Y-79781218D01*
X113450347Y-79781216D01*
X113548395Y-79700748D01*
X113228995Y-79381348D01*
X113301761Y-79318298D01*
X113315019Y-79297666D01*
X113633248Y-79615895D01*
X113713716Y-79517847D01*
X113713718Y-79517843D01*
X113801930Y-79352812D01*
X113801933Y-79352805D01*
X113856254Y-79173734D01*
X113856254Y-79173733D01*
X113874597Y-78987500D01*
X114505403Y-78987500D01*
X114523745Y-79173733D01*
X114523745Y-79173734D01*
X114578066Y-79352805D01*
X114578069Y-79352812D01*
X114666284Y-79517849D01*
X114666286Y-79517852D01*
X114746750Y-79615895D01*
X115064979Y-79297665D01*
X115078239Y-79318298D01*
X115151003Y-79381348D01*
X114831603Y-79700748D01*
X114929650Y-79781216D01*
X115094687Y-79869430D01*
X115094694Y-79869433D01*
X115273766Y-79923754D01*
X115460000Y-79942097D01*
X115646233Y-79923754D01*
X115646234Y-79923754D01*
X115825305Y-79869433D01*
X115825312Y-79869430D01*
X115990343Y-79781218D01*
X115990347Y-79781216D01*
X116088395Y-79700748D01*
X115768995Y-79381348D01*
X115841761Y-79318298D01*
X115855019Y-79297666D01*
X116173248Y-79615895D01*
X116253716Y-79517847D01*
X116253718Y-79517843D01*
X116341930Y-79352812D01*
X116341933Y-79352805D01*
X116396254Y-79173734D01*
X116396254Y-79173733D01*
X116414597Y-78987500D01*
X117044901Y-78987500D01*
X117063253Y-79173831D01*
X117063253Y-79173832D01*
X117117604Y-79353002D01*
X117205863Y-79518124D01*
X117205868Y-79518131D01*
X117268775Y-79594782D01*
X117324643Y-79662857D01*
X117407590Y-79730930D01*
X117469368Y-79781631D01*
X117469375Y-79781636D01*
X117634499Y-79869896D01*
X117813669Y-79924247D01*
X118000000Y-79942599D01*
X118186331Y-79924247D01*
X118365501Y-79869896D01*
X118485516Y-79805745D01*
X118522839Y-79802070D01*
X118543263Y-79814312D01*
X122985148Y-84256197D01*
X122999500Y-84290845D01*
X122999500Y-91834317D01*
X122991242Y-91861538D01*
X122985115Y-91870709D01*
X122964033Y-91902261D01*
X122944592Y-91999998D01*
X122944592Y-92000001D01*
X122964033Y-92097739D01*
X123019398Y-92180601D01*
X123102260Y-92235966D01*
X123199998Y-92255408D01*
X123200000Y-92255408D01*
X123200002Y-92255408D01*
X123280486Y-92239398D01*
X123297740Y-92235966D01*
X123380601Y-92180601D01*
X123435966Y-92097740D01*
X123451282Y-92020741D01*
X123455408Y-92000001D01*
X123455408Y-91999998D01*
X123436900Y-91906955D01*
X123435966Y-91902260D01*
X123408757Y-91861538D01*
X123400500Y-91834317D01*
X123400500Y-84229891D01*
X123403251Y-84213705D01*
X123404363Y-84210527D01*
X123400654Y-84177606D01*
X123400500Y-84174861D01*
X123400500Y-84164910D01*
X123398286Y-84155212D01*
X123397825Y-84152499D01*
X123394116Y-84119577D01*
X123394115Y-84119574D01*
X123392321Y-84116719D01*
X123386040Y-84101554D01*
X123385291Y-84098272D01*
X123385290Y-84098271D01*
X123385290Y-84098269D01*
X123364638Y-84072372D01*
X123363047Y-84070130D01*
X123357750Y-84061699D01*
X123350709Y-84054658D01*
X123348877Y-84052609D01*
X123328223Y-84026711D01*
X123325187Y-84025249D01*
X123311800Y-84015750D01*
X118826812Y-79530763D01*
X118812460Y-79496115D01*
X118818246Y-79473016D01*
X118818693Y-79472180D01*
X118882396Y-79353001D01*
X118936747Y-79173831D01*
X118955099Y-78987500D01*
X118936747Y-78801169D01*
X118882396Y-78621999D01*
X118794136Y-78456875D01*
X118794131Y-78456868D01*
X118713895Y-78359102D01*
X118675357Y-78312143D01*
X118607282Y-78256275D01*
X118530631Y-78193368D01*
X118530624Y-78193363D01*
X118365502Y-78105104D01*
X118235276Y-78065600D01*
X118206286Y-78041808D01*
X118200500Y-78018710D01*
X118200500Y-77416288D01*
X118214852Y-77381640D01*
X118235272Y-77369399D01*
X118365501Y-77329896D01*
X118530625Y-77241636D01*
X118675357Y-77122857D01*
X118794136Y-76978125D01*
X118882396Y-76813001D01*
X118936747Y-76633831D01*
X118955099Y-76447500D01*
X118936747Y-76261169D01*
X118882396Y-76081999D01*
X118794136Y-75916875D01*
X118794131Y-75916868D01*
X118709905Y-75814240D01*
X118675357Y-75772143D01*
X118607282Y-75716275D01*
X118530631Y-75653368D01*
X118530624Y-75653363D01*
X118365502Y-75565104D01*
X118186331Y-75510753D01*
X118000000Y-75492401D01*
X117813668Y-75510753D01*
X117813667Y-75510753D01*
X117634497Y-75565104D01*
X117469375Y-75653363D01*
X117469368Y-75653368D01*
X117324643Y-75772143D01*
X117205868Y-75916868D01*
X117205863Y-75916875D01*
X117117604Y-76081997D01*
X117063253Y-76261167D01*
X117063253Y-76261168D01*
X117044901Y-76447499D01*
X117044901Y-76447500D01*
X117063253Y-76633831D01*
X117063253Y-76633832D01*
X117117604Y-76813002D01*
X117205863Y-76978124D01*
X117205868Y-76978131D01*
X117268775Y-77054782D01*
X117324643Y-77122857D01*
X117407590Y-77190930D01*
X117469368Y-77241631D01*
X117469375Y-77241636D01*
X117634499Y-77329896D01*
X117764725Y-77369399D01*
X117793714Y-77393189D01*
X117799500Y-77416288D01*
X117799500Y-78018710D01*
X117785148Y-78053358D01*
X117764724Y-78065600D01*
X117634497Y-78105104D01*
X117469375Y-78193363D01*
X117469368Y-78193368D01*
X117324643Y-78312143D01*
X117205868Y-78456868D01*
X117205863Y-78456875D01*
X117117604Y-78621997D01*
X117063253Y-78801167D01*
X117063253Y-78801168D01*
X117044901Y-78987499D01*
X117044901Y-78987500D01*
X116414597Y-78987500D01*
X116414597Y-78987499D01*
X116396254Y-78801266D01*
X116396254Y-78801265D01*
X116341933Y-78622194D01*
X116341930Y-78622187D01*
X116253716Y-78457150D01*
X116173248Y-78359103D01*
X115855019Y-78677331D01*
X115841761Y-78656702D01*
X115768994Y-78593650D01*
X116088395Y-78274250D01*
X115990352Y-78193786D01*
X115990349Y-78193784D01*
X115825312Y-78105569D01*
X115825305Y-78105566D01*
X115646233Y-78051245D01*
X115460000Y-78032903D01*
X115273766Y-78051245D01*
X115273765Y-78051245D01*
X115094694Y-78105566D01*
X115094687Y-78105569D01*
X114929648Y-78193785D01*
X114831603Y-78274249D01*
X114831603Y-78274250D01*
X115151004Y-78593651D01*
X115078239Y-78656702D01*
X115064980Y-78677332D01*
X114746750Y-78359102D01*
X114746749Y-78359103D01*
X114666285Y-78457148D01*
X114578069Y-78622187D01*
X114578066Y-78622194D01*
X114523745Y-78801265D01*
X114523745Y-78801266D01*
X114505403Y-78987499D01*
X114505403Y-78987500D01*
X113874597Y-78987500D01*
X113874597Y-78987499D01*
X113856254Y-78801266D01*
X113856254Y-78801265D01*
X113801933Y-78622194D01*
X113801930Y-78622187D01*
X113713716Y-78457150D01*
X113633248Y-78359103D01*
X113315019Y-78677332D01*
X113301761Y-78656702D01*
X113228995Y-78593650D01*
X113548395Y-78274251D01*
X113548395Y-78274250D01*
X113450352Y-78193786D01*
X113450349Y-78193784D01*
X113285312Y-78105569D01*
X113285305Y-78105566D01*
X113106233Y-78051245D01*
X112920000Y-78032903D01*
X112733766Y-78051245D01*
X112733765Y-78051245D01*
X112554694Y-78105566D01*
X112554687Y-78105569D01*
X112389648Y-78193785D01*
X112291603Y-78274249D01*
X112291603Y-78274250D01*
X112611004Y-78593651D01*
X112538239Y-78656702D01*
X112524980Y-78677332D01*
X112206750Y-78359103D01*
X112206749Y-78359103D01*
X112126285Y-78457148D01*
X112038069Y-78622187D01*
X112038066Y-78622194D01*
X111983745Y-78801265D01*
X111983745Y-78801266D01*
X111965403Y-78987499D01*
X111965403Y-78987500D01*
X100150500Y-78987500D01*
X100150500Y-76447500D01*
X111965403Y-76447500D01*
X111983745Y-76633733D01*
X111983745Y-76633734D01*
X112038066Y-76812805D01*
X112038069Y-76812812D01*
X112126284Y-76977849D01*
X112126286Y-76977852D01*
X112206750Y-77075895D01*
X112524979Y-76757665D01*
X112538239Y-76778298D01*
X112611003Y-76841348D01*
X112291603Y-77160748D01*
X112389650Y-77241216D01*
X112554687Y-77329430D01*
X112554694Y-77329433D01*
X112733766Y-77383754D01*
X112920000Y-77402097D01*
X113106233Y-77383754D01*
X113106234Y-77383754D01*
X113285305Y-77329433D01*
X113285312Y-77329430D01*
X113450343Y-77241218D01*
X113450347Y-77241216D01*
X113548395Y-77160748D01*
X113228995Y-76841348D01*
X113301761Y-76778298D01*
X113315019Y-76757666D01*
X113633248Y-77075895D01*
X113713716Y-76977847D01*
X113713718Y-76977843D01*
X113801930Y-76812812D01*
X113801933Y-76812805D01*
X113856254Y-76633734D01*
X113856254Y-76633733D01*
X113874597Y-76447500D01*
X114505403Y-76447500D01*
X114523745Y-76633733D01*
X114523745Y-76633734D01*
X114578066Y-76812805D01*
X114578069Y-76812812D01*
X114666284Y-76977849D01*
X114666286Y-76977852D01*
X114746750Y-77075895D01*
X114746751Y-77075896D01*
X115064980Y-76757666D01*
X115078239Y-76778298D01*
X115151003Y-76841348D01*
X114831603Y-77160748D01*
X114929650Y-77241216D01*
X115094687Y-77329430D01*
X115094694Y-77329433D01*
X115273766Y-77383754D01*
X115460000Y-77402097D01*
X115646233Y-77383754D01*
X115646234Y-77383754D01*
X115825305Y-77329433D01*
X115825312Y-77329430D01*
X115990343Y-77241218D01*
X115990347Y-77241216D01*
X116088395Y-77160748D01*
X115768995Y-76841348D01*
X115841761Y-76778298D01*
X115855019Y-76757666D01*
X116173248Y-77075895D01*
X116253716Y-76977847D01*
X116253718Y-76977843D01*
X116341930Y-76812812D01*
X116341933Y-76812805D01*
X116396254Y-76633734D01*
X116396254Y-76633733D01*
X116414597Y-76447500D01*
X116414597Y-76447499D01*
X116396254Y-76261266D01*
X116396254Y-76261265D01*
X116341933Y-76082194D01*
X116341930Y-76082187D01*
X116253716Y-75917150D01*
X116173248Y-75819103D01*
X115855019Y-76137332D01*
X115841761Y-76116702D01*
X115768995Y-76053650D01*
X116088395Y-75734251D01*
X116088395Y-75734250D01*
X115990352Y-75653786D01*
X115990349Y-75653784D01*
X115825312Y-75565569D01*
X115825305Y-75565566D01*
X115646233Y-75511245D01*
X115460000Y-75492903D01*
X115273766Y-75511245D01*
X115273765Y-75511245D01*
X115094694Y-75565566D01*
X115094687Y-75565569D01*
X114929648Y-75653785D01*
X114831603Y-75734249D01*
X114831603Y-75734250D01*
X115151004Y-76053651D01*
X115078239Y-76116702D01*
X115064980Y-76137332D01*
X114746750Y-75819103D01*
X114746749Y-75819103D01*
X114666285Y-75917148D01*
X114578069Y-76082187D01*
X114578066Y-76082194D01*
X114523745Y-76261265D01*
X114523745Y-76261266D01*
X114505403Y-76447499D01*
X114505403Y-76447500D01*
X113874597Y-76447500D01*
X113874597Y-76447499D01*
X113856254Y-76261266D01*
X113856254Y-76261265D01*
X113801933Y-76082194D01*
X113801930Y-76082187D01*
X113713716Y-75917150D01*
X113633248Y-75819103D01*
X113315019Y-76137332D01*
X113301761Y-76116702D01*
X113228994Y-76053650D01*
X113548395Y-75734250D01*
X113450352Y-75653786D01*
X113450349Y-75653784D01*
X113285312Y-75565569D01*
X113285305Y-75565566D01*
X113106233Y-75511245D01*
X112920000Y-75492903D01*
X112733766Y-75511245D01*
X112733765Y-75511245D01*
X112554694Y-75565566D01*
X112554687Y-75565569D01*
X112389648Y-75653785D01*
X112291603Y-75734249D01*
X112291603Y-75734251D01*
X112611003Y-76053651D01*
X112538239Y-76116702D01*
X112524980Y-76137332D01*
X112206751Y-75819103D01*
X112206749Y-75819103D01*
X112126285Y-75917148D01*
X112038069Y-76082187D01*
X112038066Y-76082194D01*
X111983745Y-76261265D01*
X111983745Y-76261266D01*
X111965403Y-76447499D01*
X111965403Y-76447500D01*
X100150500Y-76447500D01*
X100150500Y-65199500D01*
X100164852Y-65164852D01*
X100199500Y-65150500D01*
X159800500Y-65150500D01*
X159835148Y-65164852D01*
G37*
%TD.AperFunction*%
%TD*%
M02*
