%TF.GenerationSoftware,KiCad,Pcbnew,7.0.6*%
%TF.CreationDate,2023-09-10T10:14:12-04:00*%
%TF.ProjectId,headstage-neuropix1e,68656164-7374-4616-9765-2d6e6575726f,B*%
%TF.SameCoordinates,Original*%
%TF.FileFunction,AssemblyDrawing,Top*%
%FSLAX46Y46*%
G04 Gerber Fmt 4.6, Leading zero omitted, Abs format (unit mm)*
G04 Created by KiCad (PCBNEW 7.0.6) date 2023-09-10 10:14:12*
%MOMM*%
%LPD*%
G01*
G04 APERTURE LIST*
%ADD10C,0.150000*%
%ADD11C,0.040000*%
%ADD12C,0.100000*%
G04 APERTURE END LIST*
D10*
X116956666Y-95354819D02*
X116956666Y-96069104D01*
X116956666Y-96069104D02*
X116909047Y-96211961D01*
X116909047Y-96211961D02*
X116813809Y-96307200D01*
X116813809Y-96307200D02*
X116670952Y-96354819D01*
X116670952Y-96354819D02*
X116575714Y-96354819D01*
X117861428Y-95688152D02*
X117861428Y-96354819D01*
X117623333Y-95307200D02*
X117385238Y-96021485D01*
X117385238Y-96021485D02*
X118004285Y-96021485D01*
D11*
X138138333Y-90273574D02*
X138055000Y-90154527D01*
X137995476Y-90273574D02*
X137995476Y-90023574D01*
X137995476Y-90023574D02*
X138090714Y-90023574D01*
X138090714Y-90023574D02*
X138114524Y-90035479D01*
X138114524Y-90035479D02*
X138126429Y-90047384D01*
X138126429Y-90047384D02*
X138138333Y-90071193D01*
X138138333Y-90071193D02*
X138138333Y-90106908D01*
X138138333Y-90106908D02*
X138126429Y-90130717D01*
X138126429Y-90130717D02*
X138114524Y-90142622D01*
X138114524Y-90142622D02*
X138090714Y-90154527D01*
X138090714Y-90154527D02*
X137995476Y-90154527D01*
X138376429Y-90273574D02*
X138233572Y-90273574D01*
X138305000Y-90273574D02*
X138305000Y-90023574D01*
X138305000Y-90023574D02*
X138281191Y-90059289D01*
X138281191Y-90059289D02*
X138257381Y-90083098D01*
X138257381Y-90083098D02*
X138233572Y-90095003D01*
X146489765Y-93160714D02*
X146501670Y-93172618D01*
X146501670Y-93172618D02*
X146513574Y-93208333D01*
X146513574Y-93208333D02*
X146513574Y-93232142D01*
X146513574Y-93232142D02*
X146501670Y-93267856D01*
X146501670Y-93267856D02*
X146477860Y-93291666D01*
X146477860Y-93291666D02*
X146454050Y-93303571D01*
X146454050Y-93303571D02*
X146406431Y-93315475D01*
X146406431Y-93315475D02*
X146370717Y-93315475D01*
X146370717Y-93315475D02*
X146323098Y-93303571D01*
X146323098Y-93303571D02*
X146299289Y-93291666D01*
X146299289Y-93291666D02*
X146275479Y-93267856D01*
X146275479Y-93267856D02*
X146263574Y-93232142D01*
X146263574Y-93232142D02*
X146263574Y-93208333D01*
X146263574Y-93208333D02*
X146275479Y-93172618D01*
X146275479Y-93172618D02*
X146287384Y-93160714D01*
X146513574Y-92922618D02*
X146513574Y-93065475D01*
X146513574Y-92994047D02*
X146263574Y-92994047D01*
X146263574Y-92994047D02*
X146299289Y-93017856D01*
X146299289Y-93017856D02*
X146323098Y-93041666D01*
X146323098Y-93041666D02*
X146335003Y-93065475D01*
X146513574Y-92803571D02*
X146513574Y-92755952D01*
X146513574Y-92755952D02*
X146501670Y-92732142D01*
X146501670Y-92732142D02*
X146489765Y-92720238D01*
X146489765Y-92720238D02*
X146454050Y-92696428D01*
X146454050Y-92696428D02*
X146406431Y-92684523D01*
X146406431Y-92684523D02*
X146311193Y-92684523D01*
X146311193Y-92684523D02*
X146287384Y-92696428D01*
X146287384Y-92696428D02*
X146275479Y-92708333D01*
X146275479Y-92708333D02*
X146263574Y-92732142D01*
X146263574Y-92732142D02*
X146263574Y-92779761D01*
X146263574Y-92779761D02*
X146275479Y-92803571D01*
X146275479Y-92803571D02*
X146287384Y-92815476D01*
X146287384Y-92815476D02*
X146311193Y-92827380D01*
X146311193Y-92827380D02*
X146370717Y-92827380D01*
X146370717Y-92827380D02*
X146394527Y-92815476D01*
X146394527Y-92815476D02*
X146406431Y-92803571D01*
X146406431Y-92803571D02*
X146418336Y-92779761D01*
X146418336Y-92779761D02*
X146418336Y-92732142D01*
X146418336Y-92732142D02*
X146406431Y-92708333D01*
X146406431Y-92708333D02*
X146394527Y-92696428D01*
X146394527Y-92696428D02*
X146370717Y-92684523D01*
X140111667Y-88363574D02*
X140111667Y-88542146D01*
X140111667Y-88542146D02*
X140099762Y-88577860D01*
X140099762Y-88577860D02*
X140075953Y-88601670D01*
X140075953Y-88601670D02*
X140040238Y-88613574D01*
X140040238Y-88613574D02*
X140016429Y-88613574D01*
X140349762Y-88363574D02*
X140230714Y-88363574D01*
X140230714Y-88363574D02*
X140218810Y-88482622D01*
X140218810Y-88482622D02*
X140230714Y-88470717D01*
X140230714Y-88470717D02*
X140254524Y-88458812D01*
X140254524Y-88458812D02*
X140314048Y-88458812D01*
X140314048Y-88458812D02*
X140337857Y-88470717D01*
X140337857Y-88470717D02*
X140349762Y-88482622D01*
X140349762Y-88482622D02*
X140361667Y-88506431D01*
X140361667Y-88506431D02*
X140361667Y-88565955D01*
X140361667Y-88565955D02*
X140349762Y-88589765D01*
X140349762Y-88589765D02*
X140337857Y-88601670D01*
X140337857Y-88601670D02*
X140314048Y-88613574D01*
X140314048Y-88613574D02*
X140254524Y-88613574D01*
X140254524Y-88613574D02*
X140230714Y-88601670D01*
X140230714Y-88601670D02*
X140218810Y-88589765D01*
X143611667Y-88463574D02*
X143611667Y-88642146D01*
X143611667Y-88642146D02*
X143599762Y-88677860D01*
X143599762Y-88677860D02*
X143575953Y-88701670D01*
X143575953Y-88701670D02*
X143540238Y-88713574D01*
X143540238Y-88713574D02*
X143516429Y-88713574D01*
X143861667Y-88713574D02*
X143718810Y-88713574D01*
X143790238Y-88713574D02*
X143790238Y-88463574D01*
X143790238Y-88463574D02*
X143766429Y-88499289D01*
X143766429Y-88499289D02*
X143742619Y-88523098D01*
X143742619Y-88523098D02*
X143718810Y-88535003D01*
X139143574Y-90950714D02*
X139024527Y-91034047D01*
X139143574Y-91093571D02*
X138893574Y-91093571D01*
X138893574Y-91093571D02*
X138893574Y-90998333D01*
X138893574Y-90998333D02*
X138905479Y-90974523D01*
X138905479Y-90974523D02*
X138917384Y-90962618D01*
X138917384Y-90962618D02*
X138941193Y-90950714D01*
X138941193Y-90950714D02*
X138976908Y-90950714D01*
X138976908Y-90950714D02*
X139000717Y-90962618D01*
X139000717Y-90962618D02*
X139012622Y-90974523D01*
X139012622Y-90974523D02*
X139024527Y-90998333D01*
X139024527Y-90998333D02*
X139024527Y-91093571D01*
X139143574Y-90712618D02*
X139143574Y-90855475D01*
X139143574Y-90784047D02*
X138893574Y-90784047D01*
X138893574Y-90784047D02*
X138929289Y-90807856D01*
X138929289Y-90807856D02*
X138953098Y-90831666D01*
X138953098Y-90831666D02*
X138965003Y-90855475D01*
X138893574Y-90486428D02*
X138893574Y-90605476D01*
X138893574Y-90605476D02*
X139012622Y-90617380D01*
X139012622Y-90617380D02*
X139000717Y-90605476D01*
X139000717Y-90605476D02*
X138988812Y-90581666D01*
X138988812Y-90581666D02*
X138988812Y-90522142D01*
X138988812Y-90522142D02*
X139000717Y-90498333D01*
X139000717Y-90498333D02*
X139012622Y-90486428D01*
X139012622Y-90486428D02*
X139036431Y-90474523D01*
X139036431Y-90474523D02*
X139095955Y-90474523D01*
X139095955Y-90474523D02*
X139119765Y-90486428D01*
X139119765Y-90486428D02*
X139131670Y-90498333D01*
X139131670Y-90498333D02*
X139143574Y-90522142D01*
X139143574Y-90522142D02*
X139143574Y-90581666D01*
X139143574Y-90581666D02*
X139131670Y-90605476D01*
X139131670Y-90605476D02*
X139119765Y-90617380D01*
X142413574Y-90810714D02*
X142294527Y-90894047D01*
X142413574Y-90953571D02*
X142163574Y-90953571D01*
X142163574Y-90953571D02*
X142163574Y-90858333D01*
X142163574Y-90858333D02*
X142175479Y-90834523D01*
X142175479Y-90834523D02*
X142187384Y-90822618D01*
X142187384Y-90822618D02*
X142211193Y-90810714D01*
X142211193Y-90810714D02*
X142246908Y-90810714D01*
X142246908Y-90810714D02*
X142270717Y-90822618D01*
X142270717Y-90822618D02*
X142282622Y-90834523D01*
X142282622Y-90834523D02*
X142294527Y-90858333D01*
X142294527Y-90858333D02*
X142294527Y-90953571D01*
X142413574Y-90572618D02*
X142413574Y-90715475D01*
X142413574Y-90644047D02*
X142163574Y-90644047D01*
X142163574Y-90644047D02*
X142199289Y-90667856D01*
X142199289Y-90667856D02*
X142223098Y-90691666D01*
X142223098Y-90691666D02*
X142235003Y-90715475D01*
X142187384Y-90477380D02*
X142175479Y-90465476D01*
X142175479Y-90465476D02*
X142163574Y-90441666D01*
X142163574Y-90441666D02*
X142163574Y-90382142D01*
X142163574Y-90382142D02*
X142175479Y-90358333D01*
X142175479Y-90358333D02*
X142187384Y-90346428D01*
X142187384Y-90346428D02*
X142211193Y-90334523D01*
X142211193Y-90334523D02*
X142235003Y-90334523D01*
X142235003Y-90334523D02*
X142270717Y-90346428D01*
X142270717Y-90346428D02*
X142413574Y-90489285D01*
X142413574Y-90489285D02*
X142413574Y-90334523D01*
X145589765Y-92160714D02*
X145601670Y-92172618D01*
X145601670Y-92172618D02*
X145613574Y-92208333D01*
X145613574Y-92208333D02*
X145613574Y-92232142D01*
X145613574Y-92232142D02*
X145601670Y-92267856D01*
X145601670Y-92267856D02*
X145577860Y-92291666D01*
X145577860Y-92291666D02*
X145554050Y-92303571D01*
X145554050Y-92303571D02*
X145506431Y-92315475D01*
X145506431Y-92315475D02*
X145470717Y-92315475D01*
X145470717Y-92315475D02*
X145423098Y-92303571D01*
X145423098Y-92303571D02*
X145399289Y-92291666D01*
X145399289Y-92291666D02*
X145375479Y-92267856D01*
X145375479Y-92267856D02*
X145363574Y-92232142D01*
X145363574Y-92232142D02*
X145363574Y-92208333D01*
X145363574Y-92208333D02*
X145375479Y-92172618D01*
X145375479Y-92172618D02*
X145387384Y-92160714D01*
X145387384Y-92065475D02*
X145375479Y-92053571D01*
X145375479Y-92053571D02*
X145363574Y-92029761D01*
X145363574Y-92029761D02*
X145363574Y-91970237D01*
X145363574Y-91970237D02*
X145375479Y-91946428D01*
X145375479Y-91946428D02*
X145387384Y-91934523D01*
X145387384Y-91934523D02*
X145411193Y-91922618D01*
X145411193Y-91922618D02*
X145435003Y-91922618D01*
X145435003Y-91922618D02*
X145470717Y-91934523D01*
X145470717Y-91934523D02*
X145613574Y-92077380D01*
X145613574Y-92077380D02*
X145613574Y-91922618D01*
X145613574Y-91684523D02*
X145613574Y-91827380D01*
X145613574Y-91755952D02*
X145363574Y-91755952D01*
X145363574Y-91755952D02*
X145399289Y-91779761D01*
X145399289Y-91779761D02*
X145423098Y-91803571D01*
X145423098Y-91803571D02*
X145435003Y-91827380D01*
X138030476Y-92056425D02*
X138030476Y-91854044D01*
X138030476Y-91854044D02*
X138018571Y-91830234D01*
X138018571Y-91830234D02*
X138006666Y-91818330D01*
X138006666Y-91818330D02*
X137982857Y-91806425D01*
X137982857Y-91806425D02*
X137935238Y-91806425D01*
X137935238Y-91806425D02*
X137911428Y-91818330D01*
X137911428Y-91818330D02*
X137899523Y-91830234D01*
X137899523Y-91830234D02*
X137887619Y-91854044D01*
X137887619Y-91854044D02*
X137887619Y-92056425D01*
X137780475Y-92032615D02*
X137768571Y-92044520D01*
X137768571Y-92044520D02*
X137744761Y-92056425D01*
X137744761Y-92056425D02*
X137685237Y-92056425D01*
X137685237Y-92056425D02*
X137661428Y-92044520D01*
X137661428Y-92044520D02*
X137649523Y-92032615D01*
X137649523Y-92032615D02*
X137637618Y-92008806D01*
X137637618Y-92008806D02*
X137637618Y-91984996D01*
X137637618Y-91984996D02*
X137649523Y-91949282D01*
X137649523Y-91949282D02*
X137792380Y-91806425D01*
X137792380Y-91806425D02*
X137637618Y-91806425D01*
X135089765Y-91005714D02*
X135101670Y-91017618D01*
X135101670Y-91017618D02*
X135113574Y-91053333D01*
X135113574Y-91053333D02*
X135113574Y-91077142D01*
X135113574Y-91077142D02*
X135101670Y-91112856D01*
X135101670Y-91112856D02*
X135077860Y-91136666D01*
X135077860Y-91136666D02*
X135054050Y-91148571D01*
X135054050Y-91148571D02*
X135006431Y-91160475D01*
X135006431Y-91160475D02*
X134970717Y-91160475D01*
X134970717Y-91160475D02*
X134923098Y-91148571D01*
X134923098Y-91148571D02*
X134899289Y-91136666D01*
X134899289Y-91136666D02*
X134875479Y-91112856D01*
X134875479Y-91112856D02*
X134863574Y-91077142D01*
X134863574Y-91077142D02*
X134863574Y-91053333D01*
X134863574Y-91053333D02*
X134875479Y-91017618D01*
X134875479Y-91017618D02*
X134887384Y-91005714D01*
X135113574Y-90767618D02*
X135113574Y-90910475D01*
X135113574Y-90839047D02*
X134863574Y-90839047D01*
X134863574Y-90839047D02*
X134899289Y-90862856D01*
X134899289Y-90862856D02*
X134923098Y-90886666D01*
X134923098Y-90886666D02*
X134935003Y-90910475D01*
X134863574Y-90612857D02*
X134863574Y-90589047D01*
X134863574Y-90589047D02*
X134875479Y-90565238D01*
X134875479Y-90565238D02*
X134887384Y-90553333D01*
X134887384Y-90553333D02*
X134911193Y-90541428D01*
X134911193Y-90541428D02*
X134958812Y-90529523D01*
X134958812Y-90529523D02*
X135018336Y-90529523D01*
X135018336Y-90529523D02*
X135065955Y-90541428D01*
X135065955Y-90541428D02*
X135089765Y-90553333D01*
X135089765Y-90553333D02*
X135101670Y-90565238D01*
X135101670Y-90565238D02*
X135113574Y-90589047D01*
X135113574Y-90589047D02*
X135113574Y-90612857D01*
X135113574Y-90612857D02*
X135101670Y-90636666D01*
X135101670Y-90636666D02*
X135089765Y-90648571D01*
X135089765Y-90648571D02*
X135065955Y-90660476D01*
X135065955Y-90660476D02*
X135018336Y-90672380D01*
X135018336Y-90672380D02*
X134958812Y-90672380D01*
X134958812Y-90672380D02*
X134911193Y-90660476D01*
X134911193Y-90660476D02*
X134887384Y-90648571D01*
X134887384Y-90648571D02*
X134875479Y-90636666D01*
X134875479Y-90636666D02*
X134863574Y-90612857D01*
X140409523Y-91263574D02*
X140409523Y-91465955D01*
X140409523Y-91465955D02*
X140421428Y-91489765D01*
X140421428Y-91489765D02*
X140433333Y-91501670D01*
X140433333Y-91501670D02*
X140457142Y-91513574D01*
X140457142Y-91513574D02*
X140504761Y-91513574D01*
X140504761Y-91513574D02*
X140528571Y-91501670D01*
X140528571Y-91501670D02*
X140540476Y-91489765D01*
X140540476Y-91489765D02*
X140552380Y-91465955D01*
X140552380Y-91465955D02*
X140552380Y-91263574D01*
X140778571Y-91263574D02*
X140730952Y-91263574D01*
X140730952Y-91263574D02*
X140707143Y-91275479D01*
X140707143Y-91275479D02*
X140695238Y-91287384D01*
X140695238Y-91287384D02*
X140671428Y-91323098D01*
X140671428Y-91323098D02*
X140659524Y-91370717D01*
X140659524Y-91370717D02*
X140659524Y-91465955D01*
X140659524Y-91465955D02*
X140671428Y-91489765D01*
X140671428Y-91489765D02*
X140683333Y-91501670D01*
X140683333Y-91501670D02*
X140707143Y-91513574D01*
X140707143Y-91513574D02*
X140754762Y-91513574D01*
X140754762Y-91513574D02*
X140778571Y-91501670D01*
X140778571Y-91501670D02*
X140790476Y-91489765D01*
X140790476Y-91489765D02*
X140802381Y-91465955D01*
X140802381Y-91465955D02*
X140802381Y-91406431D01*
X140802381Y-91406431D02*
X140790476Y-91382622D01*
X140790476Y-91382622D02*
X140778571Y-91370717D01*
X140778571Y-91370717D02*
X140754762Y-91358812D01*
X140754762Y-91358812D02*
X140707143Y-91358812D01*
X140707143Y-91358812D02*
X140683333Y-91370717D01*
X140683333Y-91370717D02*
X140671428Y-91382622D01*
X140671428Y-91382622D02*
X140659524Y-91406431D01*
X143247619Y-91790443D02*
X143247619Y-91952348D01*
X143247619Y-91952348D02*
X143257142Y-91971396D01*
X143257142Y-91971396D02*
X143266666Y-91980920D01*
X143266666Y-91980920D02*
X143285714Y-91990443D01*
X143285714Y-91990443D02*
X143323809Y-91990443D01*
X143323809Y-91990443D02*
X143342857Y-91980920D01*
X143342857Y-91980920D02*
X143352380Y-91971396D01*
X143352380Y-91971396D02*
X143361904Y-91952348D01*
X143361904Y-91952348D02*
X143361904Y-91790443D01*
X143542857Y-91857110D02*
X143542857Y-91990443D01*
X143495238Y-91780920D02*
X143447619Y-91923777D01*
X143447619Y-91923777D02*
X143571428Y-91923777D01*
X148889765Y-93060714D02*
X148901670Y-93072618D01*
X148901670Y-93072618D02*
X148913574Y-93108333D01*
X148913574Y-93108333D02*
X148913574Y-93132142D01*
X148913574Y-93132142D02*
X148901670Y-93167856D01*
X148901670Y-93167856D02*
X148877860Y-93191666D01*
X148877860Y-93191666D02*
X148854050Y-93203571D01*
X148854050Y-93203571D02*
X148806431Y-93215475D01*
X148806431Y-93215475D02*
X148770717Y-93215475D01*
X148770717Y-93215475D02*
X148723098Y-93203571D01*
X148723098Y-93203571D02*
X148699289Y-93191666D01*
X148699289Y-93191666D02*
X148675479Y-93167856D01*
X148675479Y-93167856D02*
X148663574Y-93132142D01*
X148663574Y-93132142D02*
X148663574Y-93108333D01*
X148663574Y-93108333D02*
X148675479Y-93072618D01*
X148675479Y-93072618D02*
X148687384Y-93060714D01*
X148687384Y-92965475D02*
X148675479Y-92953571D01*
X148675479Y-92953571D02*
X148663574Y-92929761D01*
X148663574Y-92929761D02*
X148663574Y-92870237D01*
X148663574Y-92870237D02*
X148675479Y-92846428D01*
X148675479Y-92846428D02*
X148687384Y-92834523D01*
X148687384Y-92834523D02*
X148711193Y-92822618D01*
X148711193Y-92822618D02*
X148735003Y-92822618D01*
X148735003Y-92822618D02*
X148770717Y-92834523D01*
X148770717Y-92834523D02*
X148913574Y-92977380D01*
X148913574Y-92977380D02*
X148913574Y-92822618D01*
X148663574Y-92739285D02*
X148663574Y-92584523D01*
X148663574Y-92584523D02*
X148758812Y-92667857D01*
X148758812Y-92667857D02*
X148758812Y-92632142D01*
X148758812Y-92632142D02*
X148770717Y-92608333D01*
X148770717Y-92608333D02*
X148782622Y-92596428D01*
X148782622Y-92596428D02*
X148806431Y-92584523D01*
X148806431Y-92584523D02*
X148865955Y-92584523D01*
X148865955Y-92584523D02*
X148889765Y-92596428D01*
X148889765Y-92596428D02*
X148901670Y-92608333D01*
X148901670Y-92608333D02*
X148913574Y-92632142D01*
X148913574Y-92632142D02*
X148913574Y-92703571D01*
X148913574Y-92703571D02*
X148901670Y-92727380D01*
X148901670Y-92727380D02*
X148889765Y-92739285D01*
X135113574Y-92286666D02*
X134994527Y-92369999D01*
X135113574Y-92429523D02*
X134863574Y-92429523D01*
X134863574Y-92429523D02*
X134863574Y-92334285D01*
X134863574Y-92334285D02*
X134875479Y-92310475D01*
X134875479Y-92310475D02*
X134887384Y-92298570D01*
X134887384Y-92298570D02*
X134911193Y-92286666D01*
X134911193Y-92286666D02*
X134946908Y-92286666D01*
X134946908Y-92286666D02*
X134970717Y-92298570D01*
X134970717Y-92298570D02*
X134982622Y-92310475D01*
X134982622Y-92310475D02*
X134994527Y-92334285D01*
X134994527Y-92334285D02*
X134994527Y-92429523D01*
X134863574Y-92060475D02*
X134863574Y-92179523D01*
X134863574Y-92179523D02*
X134982622Y-92191427D01*
X134982622Y-92191427D02*
X134970717Y-92179523D01*
X134970717Y-92179523D02*
X134958812Y-92155713D01*
X134958812Y-92155713D02*
X134958812Y-92096189D01*
X134958812Y-92096189D02*
X134970717Y-92072380D01*
X134970717Y-92072380D02*
X134982622Y-92060475D01*
X134982622Y-92060475D02*
X135006431Y-92048570D01*
X135006431Y-92048570D02*
X135065955Y-92048570D01*
X135065955Y-92048570D02*
X135089765Y-92060475D01*
X135089765Y-92060475D02*
X135101670Y-92072380D01*
X135101670Y-92072380D02*
X135113574Y-92096189D01*
X135113574Y-92096189D02*
X135113574Y-92155713D01*
X135113574Y-92155713D02*
X135101670Y-92179523D01*
X135101670Y-92179523D02*
X135089765Y-92191427D01*
X147189765Y-93160714D02*
X147201670Y-93172618D01*
X147201670Y-93172618D02*
X147213574Y-93208333D01*
X147213574Y-93208333D02*
X147213574Y-93232142D01*
X147213574Y-93232142D02*
X147201670Y-93267856D01*
X147201670Y-93267856D02*
X147177860Y-93291666D01*
X147177860Y-93291666D02*
X147154050Y-93303571D01*
X147154050Y-93303571D02*
X147106431Y-93315475D01*
X147106431Y-93315475D02*
X147070717Y-93315475D01*
X147070717Y-93315475D02*
X147023098Y-93303571D01*
X147023098Y-93303571D02*
X146999289Y-93291666D01*
X146999289Y-93291666D02*
X146975479Y-93267856D01*
X146975479Y-93267856D02*
X146963574Y-93232142D01*
X146963574Y-93232142D02*
X146963574Y-93208333D01*
X146963574Y-93208333D02*
X146975479Y-93172618D01*
X146975479Y-93172618D02*
X146987384Y-93160714D01*
X146987384Y-93065475D02*
X146975479Y-93053571D01*
X146975479Y-93053571D02*
X146963574Y-93029761D01*
X146963574Y-93029761D02*
X146963574Y-92970237D01*
X146963574Y-92970237D02*
X146975479Y-92946428D01*
X146975479Y-92946428D02*
X146987384Y-92934523D01*
X146987384Y-92934523D02*
X147011193Y-92922618D01*
X147011193Y-92922618D02*
X147035003Y-92922618D01*
X147035003Y-92922618D02*
X147070717Y-92934523D01*
X147070717Y-92934523D02*
X147213574Y-93077380D01*
X147213574Y-93077380D02*
X147213574Y-92922618D01*
X146963574Y-92767857D02*
X146963574Y-92744047D01*
X146963574Y-92744047D02*
X146975479Y-92720238D01*
X146975479Y-92720238D02*
X146987384Y-92708333D01*
X146987384Y-92708333D02*
X147011193Y-92696428D01*
X147011193Y-92696428D02*
X147058812Y-92684523D01*
X147058812Y-92684523D02*
X147118336Y-92684523D01*
X147118336Y-92684523D02*
X147165955Y-92696428D01*
X147165955Y-92696428D02*
X147189765Y-92708333D01*
X147189765Y-92708333D02*
X147201670Y-92720238D01*
X147201670Y-92720238D02*
X147213574Y-92744047D01*
X147213574Y-92744047D02*
X147213574Y-92767857D01*
X147213574Y-92767857D02*
X147201670Y-92791666D01*
X147201670Y-92791666D02*
X147189765Y-92803571D01*
X147189765Y-92803571D02*
X147165955Y-92815476D01*
X147165955Y-92815476D02*
X147118336Y-92827380D01*
X147118336Y-92827380D02*
X147058812Y-92827380D01*
X147058812Y-92827380D02*
X147011193Y-92815476D01*
X147011193Y-92815476D02*
X146987384Y-92803571D01*
X146987384Y-92803571D02*
X146975479Y-92791666D01*
X146975479Y-92791666D02*
X146963574Y-92767857D01*
X140639285Y-93213574D02*
X140555952Y-93094527D01*
X140496428Y-93213574D02*
X140496428Y-92963574D01*
X140496428Y-92963574D02*
X140591666Y-92963574D01*
X140591666Y-92963574D02*
X140615476Y-92975479D01*
X140615476Y-92975479D02*
X140627381Y-92987384D01*
X140627381Y-92987384D02*
X140639285Y-93011193D01*
X140639285Y-93011193D02*
X140639285Y-93046908D01*
X140639285Y-93046908D02*
X140627381Y-93070717D01*
X140627381Y-93070717D02*
X140615476Y-93082622D01*
X140615476Y-93082622D02*
X140591666Y-93094527D01*
X140591666Y-93094527D02*
X140496428Y-93094527D01*
X140877381Y-93213574D02*
X140734524Y-93213574D01*
X140805952Y-93213574D02*
X140805952Y-92963574D01*
X140805952Y-92963574D02*
X140782143Y-92999289D01*
X140782143Y-92999289D02*
X140758333Y-93023098D01*
X140758333Y-93023098D02*
X140734524Y-93035003D01*
X141115476Y-93213574D02*
X140972619Y-93213574D01*
X141044047Y-93213574D02*
X141044047Y-92963574D01*
X141044047Y-92963574D02*
X141020238Y-92999289D01*
X141020238Y-92999289D02*
X140996428Y-93023098D01*
X140996428Y-93023098D02*
X140972619Y-93035003D01*
X139789765Y-93160714D02*
X139801670Y-93172618D01*
X139801670Y-93172618D02*
X139813574Y-93208333D01*
X139813574Y-93208333D02*
X139813574Y-93232142D01*
X139813574Y-93232142D02*
X139801670Y-93267856D01*
X139801670Y-93267856D02*
X139777860Y-93291666D01*
X139777860Y-93291666D02*
X139754050Y-93303571D01*
X139754050Y-93303571D02*
X139706431Y-93315475D01*
X139706431Y-93315475D02*
X139670717Y-93315475D01*
X139670717Y-93315475D02*
X139623098Y-93303571D01*
X139623098Y-93303571D02*
X139599289Y-93291666D01*
X139599289Y-93291666D02*
X139575479Y-93267856D01*
X139575479Y-93267856D02*
X139563574Y-93232142D01*
X139563574Y-93232142D02*
X139563574Y-93208333D01*
X139563574Y-93208333D02*
X139575479Y-93172618D01*
X139575479Y-93172618D02*
X139587384Y-93160714D01*
X139587384Y-93065475D02*
X139575479Y-93053571D01*
X139575479Y-93053571D02*
X139563574Y-93029761D01*
X139563574Y-93029761D02*
X139563574Y-92970237D01*
X139563574Y-92970237D02*
X139575479Y-92946428D01*
X139575479Y-92946428D02*
X139587384Y-92934523D01*
X139587384Y-92934523D02*
X139611193Y-92922618D01*
X139611193Y-92922618D02*
X139635003Y-92922618D01*
X139635003Y-92922618D02*
X139670717Y-92934523D01*
X139670717Y-92934523D02*
X139813574Y-93077380D01*
X139813574Y-93077380D02*
X139813574Y-92922618D01*
X139670717Y-92779761D02*
X139658812Y-92803571D01*
X139658812Y-92803571D02*
X139646908Y-92815476D01*
X139646908Y-92815476D02*
X139623098Y-92827380D01*
X139623098Y-92827380D02*
X139611193Y-92827380D01*
X139611193Y-92827380D02*
X139587384Y-92815476D01*
X139587384Y-92815476D02*
X139575479Y-92803571D01*
X139575479Y-92803571D02*
X139563574Y-92779761D01*
X139563574Y-92779761D02*
X139563574Y-92732142D01*
X139563574Y-92732142D02*
X139575479Y-92708333D01*
X139575479Y-92708333D02*
X139587384Y-92696428D01*
X139587384Y-92696428D02*
X139611193Y-92684523D01*
X139611193Y-92684523D02*
X139623098Y-92684523D01*
X139623098Y-92684523D02*
X139646908Y-92696428D01*
X139646908Y-92696428D02*
X139658812Y-92708333D01*
X139658812Y-92708333D02*
X139670717Y-92732142D01*
X139670717Y-92732142D02*
X139670717Y-92779761D01*
X139670717Y-92779761D02*
X139682622Y-92803571D01*
X139682622Y-92803571D02*
X139694527Y-92815476D01*
X139694527Y-92815476D02*
X139718336Y-92827380D01*
X139718336Y-92827380D02*
X139765955Y-92827380D01*
X139765955Y-92827380D02*
X139789765Y-92815476D01*
X139789765Y-92815476D02*
X139801670Y-92803571D01*
X139801670Y-92803571D02*
X139813574Y-92779761D01*
X139813574Y-92779761D02*
X139813574Y-92732142D01*
X139813574Y-92732142D02*
X139801670Y-92708333D01*
X139801670Y-92708333D02*
X139789765Y-92696428D01*
X139789765Y-92696428D02*
X139765955Y-92684523D01*
X139765955Y-92684523D02*
X139718336Y-92684523D01*
X139718336Y-92684523D02*
X139694527Y-92696428D01*
X139694527Y-92696428D02*
X139682622Y-92708333D01*
X139682622Y-92708333D02*
X139670717Y-92732142D01*
X138953574Y-93160714D02*
X138834527Y-93244047D01*
X138953574Y-93303571D02*
X138703574Y-93303571D01*
X138703574Y-93303571D02*
X138703574Y-93208333D01*
X138703574Y-93208333D02*
X138715479Y-93184523D01*
X138715479Y-93184523D02*
X138727384Y-93172618D01*
X138727384Y-93172618D02*
X138751193Y-93160714D01*
X138751193Y-93160714D02*
X138786908Y-93160714D01*
X138786908Y-93160714D02*
X138810717Y-93172618D01*
X138810717Y-93172618D02*
X138822622Y-93184523D01*
X138822622Y-93184523D02*
X138834527Y-93208333D01*
X138834527Y-93208333D02*
X138834527Y-93303571D01*
X138953574Y-92922618D02*
X138953574Y-93065475D01*
X138953574Y-92994047D02*
X138703574Y-92994047D01*
X138703574Y-92994047D02*
X138739289Y-93017856D01*
X138739289Y-93017856D02*
X138763098Y-93041666D01*
X138763098Y-93041666D02*
X138775003Y-93065475D01*
X138786908Y-92708333D02*
X138953574Y-92708333D01*
X138691670Y-92767857D02*
X138870241Y-92827380D01*
X138870241Y-92827380D02*
X138870241Y-92672619D01*
X136680476Y-92136425D02*
X136680476Y-91934044D01*
X136680476Y-91934044D02*
X136668571Y-91910234D01*
X136668571Y-91910234D02*
X136656666Y-91898330D01*
X136656666Y-91898330D02*
X136632857Y-91886425D01*
X136632857Y-91886425D02*
X136585238Y-91886425D01*
X136585238Y-91886425D02*
X136561428Y-91898330D01*
X136561428Y-91898330D02*
X136549523Y-91910234D01*
X136549523Y-91910234D02*
X136537619Y-91934044D01*
X136537619Y-91934044D02*
X136537619Y-92136425D01*
X136442380Y-92136425D02*
X136287618Y-92136425D01*
X136287618Y-92136425D02*
X136370952Y-92041187D01*
X136370952Y-92041187D02*
X136335237Y-92041187D01*
X136335237Y-92041187D02*
X136311428Y-92029282D01*
X136311428Y-92029282D02*
X136299523Y-92017377D01*
X136299523Y-92017377D02*
X136287618Y-91993568D01*
X136287618Y-91993568D02*
X136287618Y-91934044D01*
X136287618Y-91934044D02*
X136299523Y-91910234D01*
X136299523Y-91910234D02*
X136311428Y-91898330D01*
X136311428Y-91898330D02*
X136335237Y-91886425D01*
X136335237Y-91886425D02*
X136406666Y-91886425D01*
X136406666Y-91886425D02*
X136430475Y-91898330D01*
X136430475Y-91898330D02*
X136442380Y-91910234D01*
X147558333Y-91513574D02*
X147439285Y-91513574D01*
X147439285Y-91513574D02*
X147439285Y-91263574D01*
X147748809Y-91346908D02*
X147748809Y-91513574D01*
X147689285Y-91251670D02*
X147629762Y-91430241D01*
X147629762Y-91430241D02*
X147784523Y-91430241D01*
X148089765Y-93060714D02*
X148101670Y-93072618D01*
X148101670Y-93072618D02*
X148113574Y-93108333D01*
X148113574Y-93108333D02*
X148113574Y-93132142D01*
X148113574Y-93132142D02*
X148101670Y-93167856D01*
X148101670Y-93167856D02*
X148077860Y-93191666D01*
X148077860Y-93191666D02*
X148054050Y-93203571D01*
X148054050Y-93203571D02*
X148006431Y-93215475D01*
X148006431Y-93215475D02*
X147970717Y-93215475D01*
X147970717Y-93215475D02*
X147923098Y-93203571D01*
X147923098Y-93203571D02*
X147899289Y-93191666D01*
X147899289Y-93191666D02*
X147875479Y-93167856D01*
X147875479Y-93167856D02*
X147863574Y-93132142D01*
X147863574Y-93132142D02*
X147863574Y-93108333D01*
X147863574Y-93108333D02*
X147875479Y-93072618D01*
X147875479Y-93072618D02*
X147887384Y-93060714D01*
X147887384Y-92965475D02*
X147875479Y-92953571D01*
X147875479Y-92953571D02*
X147863574Y-92929761D01*
X147863574Y-92929761D02*
X147863574Y-92870237D01*
X147863574Y-92870237D02*
X147875479Y-92846428D01*
X147875479Y-92846428D02*
X147887384Y-92834523D01*
X147887384Y-92834523D02*
X147911193Y-92822618D01*
X147911193Y-92822618D02*
X147935003Y-92822618D01*
X147935003Y-92822618D02*
X147970717Y-92834523D01*
X147970717Y-92834523D02*
X148113574Y-92977380D01*
X148113574Y-92977380D02*
X148113574Y-92822618D01*
X147887384Y-92727380D02*
X147875479Y-92715476D01*
X147875479Y-92715476D02*
X147863574Y-92691666D01*
X147863574Y-92691666D02*
X147863574Y-92632142D01*
X147863574Y-92632142D02*
X147875479Y-92608333D01*
X147875479Y-92608333D02*
X147887384Y-92596428D01*
X147887384Y-92596428D02*
X147911193Y-92584523D01*
X147911193Y-92584523D02*
X147935003Y-92584523D01*
X147935003Y-92584523D02*
X147970717Y-92596428D01*
X147970717Y-92596428D02*
X148113574Y-92739285D01*
X148113574Y-92739285D02*
X148113574Y-92584523D01*
X143358333Y-91089765D02*
X143346429Y-91101670D01*
X143346429Y-91101670D02*
X143310714Y-91113574D01*
X143310714Y-91113574D02*
X143286905Y-91113574D01*
X143286905Y-91113574D02*
X143251191Y-91101670D01*
X143251191Y-91101670D02*
X143227381Y-91077860D01*
X143227381Y-91077860D02*
X143215476Y-91054050D01*
X143215476Y-91054050D02*
X143203572Y-91006431D01*
X143203572Y-91006431D02*
X143203572Y-90970717D01*
X143203572Y-90970717D02*
X143215476Y-90923098D01*
X143215476Y-90923098D02*
X143227381Y-90899289D01*
X143227381Y-90899289D02*
X143251191Y-90875479D01*
X143251191Y-90875479D02*
X143286905Y-90863574D01*
X143286905Y-90863574D02*
X143310714Y-90863574D01*
X143310714Y-90863574D02*
X143346429Y-90875479D01*
X143346429Y-90875479D02*
X143358333Y-90887384D01*
X143441667Y-90863574D02*
X143608333Y-90863574D01*
X143608333Y-90863574D02*
X143501191Y-91113574D01*
X142516667Y-96113574D02*
X142516667Y-96292146D01*
X142516667Y-96292146D02*
X142504762Y-96327860D01*
X142504762Y-96327860D02*
X142480953Y-96351670D01*
X142480953Y-96351670D02*
X142445238Y-96363574D01*
X142445238Y-96363574D02*
X142421429Y-96363574D01*
X142623810Y-96137384D02*
X142635714Y-96125479D01*
X142635714Y-96125479D02*
X142659524Y-96113574D01*
X142659524Y-96113574D02*
X142719048Y-96113574D01*
X142719048Y-96113574D02*
X142742857Y-96125479D01*
X142742857Y-96125479D02*
X142754762Y-96137384D01*
X142754762Y-96137384D02*
X142766667Y-96161193D01*
X142766667Y-96161193D02*
X142766667Y-96185003D01*
X142766667Y-96185003D02*
X142754762Y-96220717D01*
X142754762Y-96220717D02*
X142611905Y-96363574D01*
X142611905Y-96363574D02*
X142766667Y-96363574D01*
X149119285Y-90799765D02*
X149107381Y-90811670D01*
X149107381Y-90811670D02*
X149071666Y-90823574D01*
X149071666Y-90823574D02*
X149047857Y-90823574D01*
X149047857Y-90823574D02*
X149012143Y-90811670D01*
X149012143Y-90811670D02*
X148988333Y-90787860D01*
X148988333Y-90787860D02*
X148976428Y-90764050D01*
X148976428Y-90764050D02*
X148964524Y-90716431D01*
X148964524Y-90716431D02*
X148964524Y-90680717D01*
X148964524Y-90680717D02*
X148976428Y-90633098D01*
X148976428Y-90633098D02*
X148988333Y-90609289D01*
X148988333Y-90609289D02*
X149012143Y-90585479D01*
X149012143Y-90585479D02*
X149047857Y-90573574D01*
X149047857Y-90573574D02*
X149071666Y-90573574D01*
X149071666Y-90573574D02*
X149107381Y-90585479D01*
X149107381Y-90585479D02*
X149119285Y-90597384D01*
X149214524Y-90597384D02*
X149226428Y-90585479D01*
X149226428Y-90585479D02*
X149250238Y-90573574D01*
X149250238Y-90573574D02*
X149309762Y-90573574D01*
X149309762Y-90573574D02*
X149333571Y-90585479D01*
X149333571Y-90585479D02*
X149345476Y-90597384D01*
X149345476Y-90597384D02*
X149357381Y-90621193D01*
X149357381Y-90621193D02*
X149357381Y-90645003D01*
X149357381Y-90645003D02*
X149345476Y-90680717D01*
X149345476Y-90680717D02*
X149202619Y-90823574D01*
X149202619Y-90823574D02*
X149357381Y-90823574D01*
X149571666Y-90656908D02*
X149571666Y-90823574D01*
X149512142Y-90561670D02*
X149452619Y-90740241D01*
X149452619Y-90740241D02*
X149607380Y-90740241D01*
X145839285Y-91113574D02*
X145755952Y-90994527D01*
X145696428Y-91113574D02*
X145696428Y-90863574D01*
X145696428Y-90863574D02*
X145791666Y-90863574D01*
X145791666Y-90863574D02*
X145815476Y-90875479D01*
X145815476Y-90875479D02*
X145827381Y-90887384D01*
X145827381Y-90887384D02*
X145839285Y-90911193D01*
X145839285Y-90911193D02*
X145839285Y-90946908D01*
X145839285Y-90946908D02*
X145827381Y-90970717D01*
X145827381Y-90970717D02*
X145815476Y-90982622D01*
X145815476Y-90982622D02*
X145791666Y-90994527D01*
X145791666Y-90994527D02*
X145696428Y-90994527D01*
X146077381Y-91113574D02*
X145934524Y-91113574D01*
X146005952Y-91113574D02*
X146005952Y-90863574D01*
X146005952Y-90863574D02*
X145982143Y-90899289D01*
X145982143Y-90899289D02*
X145958333Y-90923098D01*
X145958333Y-90923098D02*
X145934524Y-90935003D01*
X146232142Y-90863574D02*
X146255952Y-90863574D01*
X146255952Y-90863574D02*
X146279761Y-90875479D01*
X146279761Y-90875479D02*
X146291666Y-90887384D01*
X146291666Y-90887384D02*
X146303571Y-90911193D01*
X146303571Y-90911193D02*
X146315476Y-90958812D01*
X146315476Y-90958812D02*
X146315476Y-91018336D01*
X146315476Y-91018336D02*
X146303571Y-91065955D01*
X146303571Y-91065955D02*
X146291666Y-91089765D01*
X146291666Y-91089765D02*
X146279761Y-91101670D01*
X146279761Y-91101670D02*
X146255952Y-91113574D01*
X146255952Y-91113574D02*
X146232142Y-91113574D01*
X146232142Y-91113574D02*
X146208333Y-91101670D01*
X146208333Y-91101670D02*
X146196428Y-91089765D01*
X146196428Y-91089765D02*
X146184523Y-91065955D01*
X146184523Y-91065955D02*
X146172619Y-91018336D01*
X146172619Y-91018336D02*
X146172619Y-90958812D01*
X146172619Y-90958812D02*
X146184523Y-90911193D01*
X146184523Y-90911193D02*
X146196428Y-90887384D01*
X146196428Y-90887384D02*
X146208333Y-90875479D01*
X146208333Y-90875479D02*
X146232142Y-90863574D01*
D10*
X117546666Y-77322319D02*
X117546666Y-78036604D01*
X117546666Y-78036604D02*
X117499047Y-78179461D01*
X117499047Y-78179461D02*
X117403809Y-78274700D01*
X117403809Y-78274700D02*
X117260952Y-78322319D01*
X117260952Y-78322319D02*
X117165714Y-78322319D01*
X117927619Y-77322319D02*
X118546666Y-77322319D01*
X118546666Y-77322319D02*
X118213333Y-77703271D01*
X118213333Y-77703271D02*
X118356190Y-77703271D01*
X118356190Y-77703271D02*
X118451428Y-77750890D01*
X118451428Y-77750890D02*
X118499047Y-77798509D01*
X118499047Y-77798509D02*
X118546666Y-77893747D01*
X118546666Y-77893747D02*
X118546666Y-78131842D01*
X118546666Y-78131842D02*
X118499047Y-78227080D01*
X118499047Y-78227080D02*
X118451428Y-78274700D01*
X118451428Y-78274700D02*
X118356190Y-78322319D01*
X118356190Y-78322319D02*
X118070476Y-78322319D01*
X118070476Y-78322319D02*
X117975238Y-78274700D01*
X117975238Y-78274700D02*
X117927619Y-78227080D01*
D11*
X142413574Y-92310714D02*
X142294527Y-92394047D01*
X142413574Y-92453571D02*
X142163574Y-92453571D01*
X142163574Y-92453571D02*
X142163574Y-92358333D01*
X142163574Y-92358333D02*
X142175479Y-92334523D01*
X142175479Y-92334523D02*
X142187384Y-92322618D01*
X142187384Y-92322618D02*
X142211193Y-92310714D01*
X142211193Y-92310714D02*
X142246908Y-92310714D01*
X142246908Y-92310714D02*
X142270717Y-92322618D01*
X142270717Y-92322618D02*
X142282622Y-92334523D01*
X142282622Y-92334523D02*
X142294527Y-92358333D01*
X142294527Y-92358333D02*
X142294527Y-92453571D01*
X142413574Y-92072618D02*
X142413574Y-92215475D01*
X142413574Y-92144047D02*
X142163574Y-92144047D01*
X142163574Y-92144047D02*
X142199289Y-92167856D01*
X142199289Y-92167856D02*
X142223098Y-92191666D01*
X142223098Y-92191666D02*
X142235003Y-92215475D01*
X142163574Y-91989285D02*
X142163574Y-91834523D01*
X142163574Y-91834523D02*
X142258812Y-91917857D01*
X142258812Y-91917857D02*
X142258812Y-91882142D01*
X142258812Y-91882142D02*
X142270717Y-91858333D01*
X142270717Y-91858333D02*
X142282622Y-91846428D01*
X142282622Y-91846428D02*
X142306431Y-91834523D01*
X142306431Y-91834523D02*
X142365955Y-91834523D01*
X142365955Y-91834523D02*
X142389765Y-91846428D01*
X142389765Y-91846428D02*
X142401670Y-91858333D01*
X142401670Y-91858333D02*
X142413574Y-91882142D01*
X142413574Y-91882142D02*
X142413574Y-91953571D01*
X142413574Y-91953571D02*
X142401670Y-91977380D01*
X142401670Y-91977380D02*
X142389765Y-91989285D01*
X136438333Y-90333574D02*
X136355000Y-90214527D01*
X136295476Y-90333574D02*
X136295476Y-90083574D01*
X136295476Y-90083574D02*
X136390714Y-90083574D01*
X136390714Y-90083574D02*
X136414524Y-90095479D01*
X136414524Y-90095479D02*
X136426429Y-90107384D01*
X136426429Y-90107384D02*
X136438333Y-90131193D01*
X136438333Y-90131193D02*
X136438333Y-90166908D01*
X136438333Y-90166908D02*
X136426429Y-90190717D01*
X136426429Y-90190717D02*
X136414524Y-90202622D01*
X136414524Y-90202622D02*
X136390714Y-90214527D01*
X136390714Y-90214527D02*
X136295476Y-90214527D01*
X136533572Y-90107384D02*
X136545476Y-90095479D01*
X136545476Y-90095479D02*
X136569286Y-90083574D01*
X136569286Y-90083574D02*
X136628810Y-90083574D01*
X136628810Y-90083574D02*
X136652619Y-90095479D01*
X136652619Y-90095479D02*
X136664524Y-90107384D01*
X136664524Y-90107384D02*
X136676429Y-90131193D01*
X136676429Y-90131193D02*
X136676429Y-90155003D01*
X136676429Y-90155003D02*
X136664524Y-90190717D01*
X136664524Y-90190717D02*
X136521667Y-90333574D01*
X136521667Y-90333574D02*
X136676429Y-90333574D01*
X149415476Y-93013574D02*
X149415476Y-92763574D01*
X149415476Y-92763574D02*
X149475000Y-92763574D01*
X149475000Y-92763574D02*
X149510714Y-92775479D01*
X149510714Y-92775479D02*
X149534524Y-92799289D01*
X149534524Y-92799289D02*
X149546429Y-92823098D01*
X149546429Y-92823098D02*
X149558333Y-92870717D01*
X149558333Y-92870717D02*
X149558333Y-92906431D01*
X149558333Y-92906431D02*
X149546429Y-92954050D01*
X149546429Y-92954050D02*
X149534524Y-92977860D01*
X149534524Y-92977860D02*
X149510714Y-93001670D01*
X149510714Y-93001670D02*
X149475000Y-93013574D01*
X149475000Y-93013574D02*
X149415476Y-93013574D01*
X149796429Y-93013574D02*
X149653572Y-93013574D01*
X149725000Y-93013574D02*
X149725000Y-92763574D01*
X149725000Y-92763574D02*
X149701191Y-92799289D01*
X149701191Y-92799289D02*
X149677381Y-92823098D01*
X149677381Y-92823098D02*
X149653572Y-92835003D01*
D12*
%TO.C,R1*%
X137880000Y-90410000D02*
X138480000Y-90410000D01*
X137880000Y-90710000D02*
X137880000Y-90410000D01*
X138480000Y-90410000D02*
X138480000Y-90710000D01*
X138480000Y-90710000D02*
X137880000Y-90710000D01*
%TO.C,C19*%
X146500000Y-91900000D02*
X146500000Y-92500000D01*
X146200000Y-91900000D02*
X146500000Y-91900000D01*
X146500000Y-92500000D02*
X146200000Y-92500000D01*
X146200000Y-92500000D02*
X146200000Y-91900000D01*
%TO.C,J5*%
X139000000Y-87900000D02*
X141300000Y-87900000D01*
X141300000Y-87900000D02*
X141300000Y-89100000D01*
X141300000Y-89100000D02*
X139000000Y-89100000D01*
X139000000Y-89100000D02*
X139000000Y-87900000D01*
%TO.C,J1*%
X142700000Y-87600000D02*
X144700000Y-87600000D01*
X144700000Y-87600000D02*
X144700000Y-89600000D01*
X144700000Y-89600000D02*
X142700000Y-89600000D01*
X142700000Y-89600000D02*
X142700000Y-87600000D01*
X143841421Y-89300000D02*
G75*
G03*
X143841421Y-89300000I-141421J0D01*
G01*
%TO.C,R15*%
X139280000Y-91090000D02*
X139280000Y-90490000D01*
X139580000Y-91090000D02*
X139280000Y-91090000D01*
X139280000Y-90490000D02*
X139580000Y-90490000D01*
X139580000Y-90490000D02*
X139580000Y-91090000D01*
%TO.C,R12*%
X142000000Y-90350000D02*
X142000000Y-90950000D01*
X141700000Y-90350000D02*
X142000000Y-90350000D01*
X142000000Y-90950000D02*
X141700000Y-90950000D01*
X141700000Y-90950000D02*
X141700000Y-90350000D01*
%TO.C,C21*%
X145700000Y-91500000D02*
X145700000Y-92500000D01*
X145200000Y-91500000D02*
X145700000Y-91500000D01*
X145700000Y-92500000D02*
X145200000Y-92500000D01*
X145200000Y-92500000D02*
X145200000Y-91500000D01*
%TO.C,U2*%
X138340000Y-92170000D02*
X138340000Y-91170000D01*
X138340000Y-91170000D02*
X137340000Y-91170000D01*
X137840000Y-92670000D02*
X138340000Y-92170000D01*
X137340000Y-92670000D02*
X137840000Y-92670000D01*
X137340000Y-91170000D02*
X137340000Y-92670000D01*
%TO.C,C10*%
X135250000Y-91145000D02*
X135250000Y-90545000D01*
X135550000Y-91145000D02*
X135250000Y-91145000D01*
X135250000Y-90545000D02*
X135550000Y-90545000D01*
X135550000Y-90545000D02*
X135550000Y-91145000D01*
%TO.C,U6*%
X140150000Y-92050000D02*
X140150000Y-90750000D01*
X140500000Y-92050000D02*
X140150000Y-91700000D01*
X141050000Y-92050000D02*
X140150000Y-92050000D01*
X140150000Y-90750000D02*
X141050000Y-90750000D01*
X141050000Y-90750000D02*
X141050000Y-92050000D01*
%TO.C,U4*%
X143150000Y-92400000D02*
X142900000Y-92150000D01*
X143900000Y-92400000D02*
X143150000Y-92400000D01*
X142900000Y-92150000D02*
X142900000Y-91400000D01*
X142900000Y-91400000D02*
X143900000Y-91400000D01*
X143900000Y-91400000D02*
X143900000Y-92400000D01*
%TO.C,C23*%
X148900000Y-91850000D02*
X148900000Y-92450000D01*
X148600000Y-91850000D02*
X148900000Y-91850000D01*
X148900000Y-92450000D02*
X148600000Y-92450000D01*
X148600000Y-92450000D02*
X148600000Y-91850000D01*
%TO.C,R5*%
X135250000Y-92545000D02*
X135250000Y-91945000D01*
X135550000Y-92545000D02*
X135250000Y-92545000D01*
X135250000Y-91945000D02*
X135550000Y-91945000D01*
X135550000Y-91945000D02*
X135550000Y-92545000D01*
%TO.C,C20*%
X147200000Y-91900000D02*
X147200000Y-92500000D01*
X146900000Y-91900000D02*
X147200000Y-91900000D01*
X147200000Y-92500000D02*
X146900000Y-92500000D01*
X146900000Y-92500000D02*
X146900000Y-91900000D01*
%TO.C,R11*%
X141100000Y-92750000D02*
X140500000Y-92750000D01*
X141100000Y-92450000D02*
X141100000Y-92750000D01*
X140500000Y-92750000D02*
X140500000Y-92450000D01*
X140500000Y-92450000D02*
X141100000Y-92450000D01*
%TO.C,C28*%
X139500000Y-92550000D02*
X139500000Y-91950000D01*
X139800000Y-92550000D02*
X139500000Y-92550000D01*
X139500000Y-91950000D02*
X139800000Y-91950000D01*
X139800000Y-91950000D02*
X139800000Y-92550000D01*
%TO.C,R14*%
X138990000Y-91900000D02*
X138990000Y-92500000D01*
X138690000Y-91900000D02*
X138990000Y-91900000D01*
X138990000Y-92500000D02*
X138690000Y-92500000D01*
X138690000Y-92500000D02*
X138690000Y-91900000D01*
%TO.C,U3*%
X136990000Y-92250000D02*
X136990000Y-91250000D01*
X136990000Y-91250000D02*
X135990000Y-91250000D01*
X136490000Y-92750000D02*
X136990000Y-92250000D01*
X135990000Y-92750000D02*
X136490000Y-92750000D01*
X135990000Y-91250000D02*
X135990000Y-92750000D01*
%TO.C,L4*%
X147900000Y-91150000D02*
X147300000Y-91150000D01*
X147900000Y-90850000D02*
X147900000Y-91150000D01*
X147300000Y-91150000D02*
X147300000Y-90850000D01*
X147300000Y-90850000D02*
X147900000Y-90850000D01*
%TO.C,C22*%
X148150000Y-91850000D02*
X148150000Y-92450000D01*
X147850000Y-91850000D02*
X148150000Y-91850000D01*
X148150000Y-92450000D02*
X147850000Y-92450000D01*
X147850000Y-92450000D02*
X147850000Y-91850000D01*
%TO.C,C7*%
X143100000Y-90450000D02*
X143700000Y-90450000D01*
X143100000Y-90750000D02*
X143100000Y-90450000D01*
X143700000Y-90450000D02*
X143700000Y-90750000D01*
X143700000Y-90750000D02*
X143100000Y-90750000D01*
%TO.C,J2*%
X134600000Y-93850000D02*
X134600000Y-98650000D01*
X134600000Y-98650000D02*
X150600000Y-98650000D01*
X150600000Y-93850000D02*
X134600000Y-93850000D01*
X150600000Y-98650000D02*
X150600000Y-93850000D01*
%TO.C,C24*%
X148780000Y-90460000D02*
X149780000Y-90460000D01*
X148780000Y-90960000D02*
X148780000Y-90460000D01*
X149780000Y-90460000D02*
X149780000Y-90960000D01*
X149780000Y-90960000D02*
X148780000Y-90960000D01*
%TO.C,R10*%
X146300000Y-90750000D02*
X145700000Y-90750000D01*
X146300000Y-90450000D02*
X146300000Y-90750000D01*
X145700000Y-90750000D02*
X145700000Y-90450000D01*
X145700000Y-90450000D02*
X146300000Y-90450000D01*
%TO.C,J3*%
X127180000Y-73267500D02*
X128180000Y-74267500D01*
X120050000Y-73267500D02*
X120050000Y-74467500D01*
X107820000Y-73267500D02*
X127180000Y-73267500D01*
X128180000Y-74267500D02*
X128180000Y-82167500D01*
X126990000Y-74467500D02*
X126990000Y-80967500D01*
X120050000Y-74467500D02*
X126990000Y-74467500D01*
X115950000Y-74467500D02*
X115950000Y-73267500D01*
X115950000Y-74467500D02*
X115950000Y-74467500D01*
X109010000Y-74467500D02*
X115950000Y-74467500D01*
X126990000Y-80967500D02*
X109010000Y-80967500D01*
X109010000Y-80967500D02*
X109010000Y-74467500D01*
X128180000Y-82167500D02*
X107820000Y-82167500D01*
X107820000Y-82167500D02*
X107820000Y-73267500D01*
%TO.C,R13*%
X142000000Y-91850000D02*
X142000000Y-92450000D01*
X141700000Y-91850000D02*
X142000000Y-91850000D01*
X142000000Y-92450000D02*
X141700000Y-92450000D01*
X141700000Y-92450000D02*
X141700000Y-91850000D01*
%TO.C,R2*%
X136780000Y-90770000D02*
X136180000Y-90770000D01*
X136780000Y-90470000D02*
X136780000Y-90770000D01*
X136180000Y-90770000D02*
X136180000Y-90470000D01*
X136180000Y-90470000D02*
X136780000Y-90470000D01*
%TO.C,D1*%
X149800000Y-91950000D02*
X149400000Y-91950000D01*
X149600000Y-91950000D02*
X149800000Y-92300000D01*
X149800000Y-92300000D02*
X149400000Y-92300000D01*
X149400000Y-92300000D02*
X149600000Y-91950000D01*
X149300000Y-91650000D02*
X149900000Y-91650000D01*
X149900000Y-91650000D02*
X149900000Y-92650000D01*
X149900000Y-92650000D02*
X149300000Y-92650000D01*
X149300000Y-92650000D02*
X149300000Y-91650000D01*
%TD*%
M02*
